G04 #@! TF.GenerationSoftware,KiCad,Pcbnew,(5.1.4)-1*
G04 #@! TF.CreationDate,2022-11-05T07:13:54+01:00*
G04 #@! TF.ProjectId,REG1-App-Universal,52454731-2d41-4707-902d-556e69766572,V00.02*
G04 #@! TF.SameCoordinates,Original*
G04 #@! TF.FileFunction,Copper,L2,Bot*
G04 #@! TF.FilePolarity,Positive*
%FSLAX46Y46*%
G04 Gerber Fmt 4.6, Leading zero omitted, Abs format (unit mm)*
G04 Created by KiCad (PCBNEW (5.1.4)-1) date 2022-11-05 07:13:54*
%MOMM*%
%LPD*%
G04 APERTURE LIST*
%ADD10O,1.700000X1.700000*%
%ADD11R,1.700000X1.700000*%
%ADD12O,3.600000X1.800000*%
%ADD13C,0.100000*%
%ADD14C,1.800000*%
%ADD15C,0.300000*%
G04 APERTURE END LIST*
D10*
X137780000Y-115560000D03*
X135240000Y-115560000D03*
X132700000Y-115560000D03*
X130160000Y-115560000D03*
X127620000Y-115560000D03*
X125080000Y-115560000D03*
X122540000Y-115560000D03*
X120000000Y-115560000D03*
X117460000Y-115560000D03*
X114920000Y-115560000D03*
X112380000Y-115560000D03*
X109840000Y-115560000D03*
X107300000Y-115560000D03*
X104760000Y-115560000D03*
X102220000Y-115560000D03*
X99680000Y-115560000D03*
X97140000Y-115560000D03*
X94600000Y-115560000D03*
X92060000Y-115560000D03*
X89520000Y-115560000D03*
X86980000Y-115560000D03*
D11*
X84440000Y-115560000D03*
D10*
X137780000Y-100320000D03*
X135240000Y-100320000D03*
X132700000Y-100320000D03*
X130160000Y-100320000D03*
X127620000Y-100320000D03*
X125080000Y-100320000D03*
X122540000Y-100320000D03*
X120000000Y-100320000D03*
X117460000Y-100320000D03*
X114920000Y-100320000D03*
X112380000Y-100320000D03*
X109840000Y-100320000D03*
X107300000Y-100320000D03*
X104760000Y-100320000D03*
X102220000Y-100320000D03*
X99680000Y-100320000D03*
X97140000Y-100320000D03*
X94600000Y-100320000D03*
X92060000Y-100320000D03*
X89520000Y-100320000D03*
X86980000Y-100320000D03*
D11*
X84440000Y-100320000D03*
D10*
X137780000Y-102860000D03*
X135240000Y-102860000D03*
X132700000Y-102860000D03*
X130160000Y-102860000D03*
X127620000Y-102860000D03*
X125080000Y-102860000D03*
X122540000Y-102860000D03*
X120000000Y-102860000D03*
X117460000Y-102860000D03*
X114920000Y-102860000D03*
X112380000Y-102860000D03*
X109840000Y-102860000D03*
X107300000Y-102860000D03*
X104760000Y-102860000D03*
X102220000Y-102860000D03*
X99680000Y-102860000D03*
X97140000Y-102860000D03*
X94600000Y-102860000D03*
X92060000Y-102860000D03*
X89520000Y-102860000D03*
X86980000Y-102860000D03*
D11*
X84440000Y-102860000D03*
D10*
X137780000Y-105400000D03*
X135240000Y-105400000D03*
X132700000Y-105400000D03*
X130160000Y-105400000D03*
X127620000Y-105400000D03*
X125080000Y-105400000D03*
X122540000Y-105400000D03*
X120000000Y-105400000D03*
X117460000Y-105400000D03*
X114920000Y-105400000D03*
X112380000Y-105400000D03*
X109840000Y-105400000D03*
X107300000Y-105400000D03*
X104760000Y-105400000D03*
X102220000Y-105400000D03*
X99680000Y-105400000D03*
X97140000Y-105400000D03*
X94600000Y-105400000D03*
X92060000Y-105400000D03*
X89520000Y-105400000D03*
X86980000Y-105400000D03*
D11*
X84440000Y-105400000D03*
D10*
X137780000Y-107940000D03*
X135240000Y-107940000D03*
X132700000Y-107940000D03*
X130160000Y-107940000D03*
X127620000Y-107940000D03*
X125080000Y-107940000D03*
X122540000Y-107940000D03*
X120000000Y-107940000D03*
X117460000Y-107940000D03*
X114920000Y-107940000D03*
X112380000Y-107940000D03*
X109840000Y-107940000D03*
X107300000Y-107940000D03*
X104760000Y-107940000D03*
X102220000Y-107940000D03*
X99680000Y-107940000D03*
X97140000Y-107940000D03*
X94600000Y-107940000D03*
X92060000Y-107940000D03*
X89520000Y-107940000D03*
X86980000Y-107940000D03*
D11*
X84440000Y-107940000D03*
D10*
X137780000Y-110480000D03*
X135240000Y-110480000D03*
X132700000Y-110480000D03*
X130160000Y-110480000D03*
X127620000Y-110480000D03*
X125080000Y-110480000D03*
X122540000Y-110480000D03*
X120000000Y-110480000D03*
X117460000Y-110480000D03*
X114920000Y-110480000D03*
X112380000Y-110480000D03*
X109840000Y-110480000D03*
X107300000Y-110480000D03*
X104760000Y-110480000D03*
X102220000Y-110480000D03*
X99680000Y-110480000D03*
X97140000Y-110480000D03*
X94600000Y-110480000D03*
X92060000Y-110480000D03*
X89520000Y-110480000D03*
X86980000Y-110480000D03*
D11*
X84440000Y-110480000D03*
D10*
X137780000Y-113020000D03*
X135240000Y-113020000D03*
X132700000Y-113020000D03*
X130160000Y-113020000D03*
X127620000Y-113020000D03*
X125080000Y-113020000D03*
X122540000Y-113020000D03*
X120000000Y-113020000D03*
X117460000Y-113020000D03*
X114920000Y-113020000D03*
X112380000Y-113020000D03*
X109840000Y-113020000D03*
X107300000Y-113020000D03*
X104760000Y-113020000D03*
X102220000Y-113020000D03*
X99680000Y-113020000D03*
X97140000Y-113020000D03*
X94600000Y-113020000D03*
X92060000Y-113020000D03*
X89520000Y-113020000D03*
X86980000Y-113020000D03*
D11*
X84440000Y-113020000D03*
D10*
X140320000Y-102860000D03*
X140320000Y-105400000D03*
X140320000Y-107940000D03*
X140320000Y-110480000D03*
X140320000Y-113020000D03*
D11*
X140320000Y-115560000D03*
D10*
X107300000Y-97780000D03*
X109840000Y-97780000D03*
X112380000Y-97780000D03*
X114920000Y-97780000D03*
X117460000Y-97780000D03*
X120000000Y-97780000D03*
X122540000Y-97780000D03*
X125080000Y-97780000D03*
X127620000Y-97780000D03*
D11*
X130160000Y-97780000D03*
D10*
X81900000Y-115560000D03*
X81900000Y-113020000D03*
X81900000Y-110480000D03*
X81900000Y-107940000D03*
X81900000Y-105400000D03*
D11*
X81900000Y-102860000D03*
D10*
X107900000Y-94300000D03*
X110440000Y-94300000D03*
X112980000Y-94300000D03*
X115520000Y-94300000D03*
X118060000Y-94300000D03*
X120600000Y-94300000D03*
X123140000Y-94300000D03*
X125680000Y-94300000D03*
X128220000Y-94300000D03*
D11*
X130760000Y-94300000D03*
D12*
X146500000Y-98500000D03*
X146500000Y-102000000D03*
X146500000Y-105500000D03*
X146500000Y-109000000D03*
X146500000Y-112500000D03*
D13*
G36*
X148074504Y-115101204D02*
G01*
X148098773Y-115104804D01*
X148122571Y-115110765D01*
X148145671Y-115119030D01*
X148167849Y-115129520D01*
X148188893Y-115142133D01*
X148208598Y-115156747D01*
X148226777Y-115173223D01*
X148243253Y-115191402D01*
X148257867Y-115211107D01*
X148270480Y-115232151D01*
X148280970Y-115254329D01*
X148289235Y-115277429D01*
X148295196Y-115301227D01*
X148298796Y-115325496D01*
X148300000Y-115350000D01*
X148300000Y-116650000D01*
X148298796Y-116674504D01*
X148295196Y-116698773D01*
X148289235Y-116722571D01*
X148280970Y-116745671D01*
X148270480Y-116767849D01*
X148257867Y-116788893D01*
X148243253Y-116808598D01*
X148226777Y-116826777D01*
X148208598Y-116843253D01*
X148188893Y-116857867D01*
X148167849Y-116870480D01*
X148145671Y-116880970D01*
X148122571Y-116889235D01*
X148098773Y-116895196D01*
X148074504Y-116898796D01*
X148050000Y-116900000D01*
X144950000Y-116900000D01*
X144925496Y-116898796D01*
X144901227Y-116895196D01*
X144877429Y-116889235D01*
X144854329Y-116880970D01*
X144832151Y-116870480D01*
X144811107Y-116857867D01*
X144791402Y-116843253D01*
X144773223Y-116826777D01*
X144756747Y-116808598D01*
X144742133Y-116788893D01*
X144729520Y-116767849D01*
X144719030Y-116745671D01*
X144710765Y-116722571D01*
X144704804Y-116698773D01*
X144701204Y-116674504D01*
X144700000Y-116650000D01*
X144700000Y-115350000D01*
X144701204Y-115325496D01*
X144704804Y-115301227D01*
X144710765Y-115277429D01*
X144719030Y-115254329D01*
X144729520Y-115232151D01*
X144742133Y-115211107D01*
X144756747Y-115191402D01*
X144773223Y-115173223D01*
X144791402Y-115156747D01*
X144811107Y-115142133D01*
X144832151Y-115129520D01*
X144854329Y-115119030D01*
X144877429Y-115110765D01*
X144901227Y-115104804D01*
X144925496Y-115101204D01*
X144950000Y-115100000D01*
X148050000Y-115100000D01*
X148074504Y-115101204D01*
X148074504Y-115101204D01*
G37*
D14*
X146500000Y-116000000D03*
D12*
X76500000Y-116100000D03*
X76500000Y-112600000D03*
X76500000Y-109100000D03*
X76500000Y-105600000D03*
X76500000Y-102100000D03*
D13*
G36*
X78074504Y-97701204D02*
G01*
X78098773Y-97704804D01*
X78122571Y-97710765D01*
X78145671Y-97719030D01*
X78167849Y-97729520D01*
X78188893Y-97742133D01*
X78208598Y-97756747D01*
X78226777Y-97773223D01*
X78243253Y-97791402D01*
X78257867Y-97811107D01*
X78270480Y-97832151D01*
X78280970Y-97854329D01*
X78289235Y-97877429D01*
X78295196Y-97901227D01*
X78298796Y-97925496D01*
X78300000Y-97950000D01*
X78300000Y-99250000D01*
X78298796Y-99274504D01*
X78295196Y-99298773D01*
X78289235Y-99322571D01*
X78280970Y-99345671D01*
X78270480Y-99367849D01*
X78257867Y-99388893D01*
X78243253Y-99408598D01*
X78226777Y-99426777D01*
X78208598Y-99443253D01*
X78188893Y-99457867D01*
X78167849Y-99470480D01*
X78145671Y-99480970D01*
X78122571Y-99489235D01*
X78098773Y-99495196D01*
X78074504Y-99498796D01*
X78050000Y-99500000D01*
X74950000Y-99500000D01*
X74925496Y-99498796D01*
X74901227Y-99495196D01*
X74877429Y-99489235D01*
X74854329Y-99480970D01*
X74832151Y-99470480D01*
X74811107Y-99457867D01*
X74791402Y-99443253D01*
X74773223Y-99426777D01*
X74756747Y-99408598D01*
X74742133Y-99388893D01*
X74729520Y-99367849D01*
X74719030Y-99345671D01*
X74710765Y-99322571D01*
X74704804Y-99298773D01*
X74701204Y-99274504D01*
X74700000Y-99250000D01*
X74700000Y-97950000D01*
X74701204Y-97925496D01*
X74704804Y-97901227D01*
X74710765Y-97877429D01*
X74719030Y-97854329D01*
X74729520Y-97832151D01*
X74742133Y-97811107D01*
X74756747Y-97791402D01*
X74773223Y-97773223D01*
X74791402Y-97756747D01*
X74811107Y-97742133D01*
X74832151Y-97729520D01*
X74854329Y-97719030D01*
X74877429Y-97710765D01*
X74901227Y-97704804D01*
X74925496Y-97701204D01*
X74950000Y-97700000D01*
X78050000Y-97700000D01*
X78074504Y-97701204D01*
X78074504Y-97701204D01*
G37*
D14*
X76500000Y-98600000D03*
D15*
X80520000Y-109100000D02*
X81900000Y-110480000D01*
X76500000Y-109100000D02*
X80520000Y-109100000D01*
X79560000Y-105600000D02*
X81900000Y-107940000D01*
X76500000Y-105600000D02*
X79560000Y-105600000D01*
X78600000Y-102100000D02*
X81900000Y-105400000D01*
X76500000Y-102100000D02*
X78600000Y-102100000D01*
X76500000Y-98600000D02*
X79110000Y-98600000D01*
X81900000Y-101390000D02*
X81900000Y-102860000D01*
X79110000Y-98600000D02*
X81900000Y-101390000D01*
X142760000Y-105500000D02*
X142490000Y-105770000D01*
X146500000Y-105500000D02*
X142760000Y-105500000D01*
X140320000Y-107940000D02*
X142490000Y-105770000D01*
X141800000Y-109000000D02*
X140320000Y-110480000D01*
X146500000Y-109000000D02*
X141800000Y-109000000D01*
X140840000Y-112500000D02*
X140320000Y-113020000D01*
X146500000Y-112500000D02*
X140840000Y-112500000D01*
X140760000Y-116000000D02*
X140320000Y-115560000D01*
X146500000Y-116000000D02*
X140760000Y-116000000D01*
X81360000Y-116100000D02*
X81900000Y-115560000D01*
X76500000Y-116100000D02*
X81360000Y-116100000D01*
X81480000Y-112600000D02*
X81900000Y-113020000D01*
X76500000Y-112600000D02*
X81480000Y-112600000D01*
X144680000Y-98500000D02*
X146500000Y-98500000D01*
X140320000Y-102860000D02*
X144680000Y-98500000D01*
X143720000Y-102000000D02*
X146500000Y-102000000D01*
X140320000Y-105400000D02*
X143720000Y-102000000D01*
X107900000Y-97180000D02*
X107300000Y-97780000D01*
X107900000Y-94300000D02*
X107900000Y-97180000D01*
X110440000Y-97180000D02*
X109840000Y-97780000D01*
X110440000Y-94300000D02*
X110440000Y-97180000D01*
X112980000Y-97180000D02*
X112380000Y-97780000D01*
X112980000Y-94300000D02*
X112980000Y-97180000D01*
X115520000Y-97180000D02*
X114920000Y-97780000D01*
X115520000Y-94300000D02*
X115520000Y-97180000D01*
X118060000Y-97180000D02*
X117460000Y-97780000D01*
X118060000Y-94300000D02*
X118060000Y-97180000D01*
X120600000Y-97180000D02*
X120000000Y-97780000D01*
X120600000Y-94300000D02*
X120600000Y-97180000D01*
X123140000Y-97180000D02*
X122540000Y-97780000D01*
X123140000Y-94300000D02*
X123140000Y-97180000D01*
X125680000Y-97180000D02*
X125080000Y-97780000D01*
X125680000Y-94300000D02*
X125680000Y-97180000D01*
X128220000Y-97180000D02*
X127620000Y-97780000D01*
X128220000Y-94300000D02*
X128220000Y-97180000D01*
X130760000Y-97180000D02*
X130160000Y-97780000D01*
X130760000Y-94300000D02*
X130760000Y-97180000D01*
M02*
