M48
; DRILL file {KiCad (5.1.4)-1} date 28/01/2023 22:22:50
; FORMAT={-:-/ absolute / inch / decimal}
; #@! TF.CreationDate,2023-01-28T22:22:50+01:00
; #@! TF.GenerationSoftware,Kicad,Pcbnew,(5.1.4)-1
; #@! TF.FileFunction,Plated,1,2,PTH
FMAT,2
INCH
T1C0.0118
%
G90
G05
T1
X3.9886Y-4.8488
X3.989Y-5.1469
X3.9921Y-4.6024
X3.9931Y-5.3967
X4.0161Y-4.9236
X4.0197Y-4.6654
X4.0205Y-5.2177
X4.0207Y-5.4675
X4.4331Y-4.8602
X4.4449Y-4.6043
X4.4449Y-4.7185
X4.4488Y-4.9744
X4.776Y-4.8488
X4.7764Y-5.1469
X4.7795Y-4.6024
X4.7805Y-5.3967
X4.8035Y-4.9236
X4.8071Y-4.6654
X4.8079Y-5.2177
X4.8081Y-5.4675
X5.2205Y-4.8602
X5.2323Y-4.6043
X5.2323Y-4.7185
X5.2362Y-4.9744
X5.5634Y-4.8488
X5.5638Y-5.1469
X5.5669Y-4.6024
X5.5679Y-5.3967
X5.5909Y-4.9236
X5.5945Y-4.6654
X5.5953Y-5.2177
X5.5955Y-5.4675
X6.0079Y-4.8602
X6.0197Y-4.6043
X6.0197Y-4.7185
X6.0236Y-4.9744
X6.3508Y-4.8488
X6.3512Y-5.1469
X6.3543Y-4.6024
X6.3553Y-5.3967
X6.3783Y-4.9236
X6.3819Y-4.6654
X6.3827Y-5.2177
X6.3829Y-5.4675
X6.7953Y-4.8602
X6.8071Y-4.6043
X6.8071Y-4.7185
X6.811Y-4.9744
X7.1382Y-4.8488
X7.1386Y-5.1469
X7.1417Y-4.6024
X7.1427Y-5.3967
X7.1657Y-4.9236
X7.1693Y-4.6654
X7.1701Y-5.2177
X7.1703Y-5.4675
X7.5827Y-4.8602
X7.5945Y-4.6043
X7.5945Y-4.7185
X7.5984Y-4.9744
T0
M30
