G04 #@! TF.GenerationSoftware,KiCad,Pcbnew,(5.1.4)-1*
G04 #@! TF.CreationDate,2023-01-28T22:22:51+01:00*
G04 #@! TF.ProjectId,REG1-Front-Universal - Kopie,52454731-2d46-4726-9f6e-742d556e6976,V00.01*
G04 #@! TF.SameCoordinates,Original*
G04 #@! TF.FileFunction,Copper,L2,Bot*
G04 #@! TF.FilePolarity,Positive*
%FSLAX46Y46*%
G04 Gerber Fmt 4.6, Leading zero omitted, Abs format (unit mm)*
G04 Created by KiCad (PCBNEW (5.1.4)-1) date 2023-01-28 22:22:51*
%MOMM*%
%LPD*%
G04 APERTURE LIST*
%ADD10R,1.000000X2.580000*%
%ADD11C,0.600000*%
%ADD12C,0.500000*%
%ADD13C,0.160000*%
G04 APERTURE END LIST*
D10*
X182560000Y-122895000D03*
X182560000Y-127065000D03*
X184560000Y-122895000D03*
X184560000Y-127065000D03*
X186560000Y-122895000D03*
X186560000Y-127065000D03*
X188560000Y-122895000D03*
X188560000Y-127065000D03*
X162560000Y-122895000D03*
X162560000Y-127065000D03*
X164560000Y-122895000D03*
X164560000Y-127065000D03*
X166560000Y-122895000D03*
X166560000Y-127065000D03*
X168560000Y-122895000D03*
X168560000Y-127065000D03*
X142560000Y-122895000D03*
X142560000Y-127065000D03*
X144560000Y-122895000D03*
X144560000Y-127065000D03*
X146560000Y-122895000D03*
X146560000Y-127065000D03*
X148560000Y-122895000D03*
X148560000Y-127065000D03*
X122560000Y-122895000D03*
X122560000Y-127065000D03*
X124560000Y-122895000D03*
X124560000Y-127065000D03*
X126560000Y-122895000D03*
X126560000Y-127065000D03*
X128560000Y-122895000D03*
X128560000Y-127065000D03*
X108560000Y-127065000D03*
X108560000Y-122895000D03*
X106560000Y-127065000D03*
X106560000Y-122895000D03*
X104560000Y-127065000D03*
X104560000Y-122895000D03*
X102560000Y-127065000D03*
X102560000Y-122895000D03*
D11*
X101400000Y-116900000D03*
X101310000Y-123160000D03*
X101320000Y-130730000D03*
X101425000Y-137075000D03*
D12*
X112900000Y-119850000D03*
X113000000Y-126350000D03*
D11*
X121400000Y-116900000D03*
X141400000Y-116900000D03*
X161400000Y-116900000D03*
X181400000Y-116900000D03*
X121310000Y-123160000D03*
X141310000Y-123160000D03*
X161310000Y-123160000D03*
X181310000Y-123160000D03*
X121425000Y-137075000D03*
X141425000Y-137075000D03*
X161425000Y-137075000D03*
X181425000Y-137075000D03*
X121320000Y-130730000D03*
X141320000Y-130730000D03*
X161320000Y-130730000D03*
X181320000Y-130730000D03*
D12*
X132900000Y-119850000D03*
X152900000Y-119850000D03*
X172900000Y-119850000D03*
X192900000Y-119850000D03*
X133000000Y-126350000D03*
X153000000Y-126350000D03*
X173000000Y-126350000D03*
X193000000Y-126350000D03*
D11*
X102120000Y-132530000D03*
X122120000Y-132530000D03*
X142120000Y-132530000D03*
X162120000Y-132530000D03*
X182120000Y-132530000D03*
D12*
X112900000Y-116950000D03*
X132900000Y-116950000D03*
X152900000Y-116950000D03*
X172900000Y-116950000D03*
X192900000Y-116950000D03*
D11*
X102100000Y-118500000D03*
X122100000Y-118500000D03*
X142100000Y-118500000D03*
X162100000Y-118500000D03*
X182100000Y-118500000D03*
X102010000Y-125060000D03*
X122010000Y-125060000D03*
X142010000Y-125060000D03*
X162010000Y-125060000D03*
X182010000Y-125060000D03*
D12*
X112600000Y-123450000D03*
X132600000Y-123450000D03*
X152600000Y-123450000D03*
X172600000Y-123450000D03*
X192600000Y-123450000D03*
D11*
X102125000Y-138875000D03*
X122125000Y-138875000D03*
X142125000Y-138875000D03*
X162125000Y-138875000D03*
X182125000Y-138875000D03*
D13*
X101400000Y-116900000D02*
X99390000Y-118910000D01*
X99390000Y-121240000D02*
X101310000Y-123160000D01*
X99390000Y-118910000D02*
X99390000Y-121240000D01*
X100160000Y-130730000D02*
X101320000Y-130730000D01*
X98890000Y-129460000D02*
X100160000Y-130730000D01*
X98890000Y-126004264D02*
X98890000Y-129460000D01*
X101310000Y-123160000D02*
X101310000Y-123584264D01*
X101310000Y-123584264D02*
X98890000Y-126004264D01*
X101425000Y-130835000D02*
X101320000Y-130730000D01*
X101425000Y-137075000D02*
X101425000Y-130835000D01*
X112950001Y-126399999D02*
X113000000Y-126350000D01*
X113100000Y-126250000D02*
X113000000Y-126350000D01*
X113100000Y-120600000D02*
X113100000Y-126250000D01*
X112900000Y-120400000D02*
X113100000Y-120600000D01*
X112900000Y-119850000D02*
X112900000Y-120400000D01*
X101575000Y-122895000D02*
X101310000Y-123160000D01*
X102560000Y-122895000D02*
X101575000Y-122895000D01*
X112750001Y-126100001D02*
X113000000Y-126350000D01*
X112184999Y-125534999D02*
X112750001Y-126100001D01*
X107254998Y-125534999D02*
X112184999Y-125534999D01*
X106145000Y-124425001D02*
X107254998Y-125534999D01*
X103300001Y-124425001D02*
X106145000Y-124425001D01*
X102560000Y-123685000D02*
X103300001Y-124425001D01*
X102560000Y-122895000D02*
X102560000Y-123685000D01*
X123300001Y-124425001D02*
X126145000Y-124425001D01*
X143300001Y-124425001D02*
X146145000Y-124425001D01*
X163300001Y-124425001D02*
X166145000Y-124425001D01*
X183300001Y-124425001D02*
X186145000Y-124425001D01*
X122560000Y-123685000D02*
X123300001Y-124425001D01*
X142560000Y-123685000D02*
X143300001Y-124425001D01*
X162560000Y-123685000D02*
X163300001Y-124425001D01*
X182560000Y-123685000D02*
X183300001Y-124425001D01*
X121425000Y-137075000D02*
X121425000Y-130835000D01*
X141425000Y-137075000D02*
X141425000Y-130835000D01*
X161425000Y-137075000D02*
X161425000Y-130835000D01*
X181425000Y-137075000D02*
X181425000Y-130835000D01*
X122560000Y-122895000D02*
X121575000Y-122895000D01*
X142560000Y-122895000D02*
X141575000Y-122895000D01*
X162560000Y-122895000D02*
X161575000Y-122895000D01*
X182560000Y-122895000D02*
X181575000Y-122895000D01*
X120160000Y-130730000D02*
X121320000Y-130730000D01*
X140160000Y-130730000D02*
X141320000Y-130730000D01*
X160160000Y-130730000D02*
X161320000Y-130730000D01*
X180160000Y-130730000D02*
X181320000Y-130730000D01*
X126145000Y-124425001D02*
X127254998Y-125534999D01*
X146145000Y-124425001D02*
X147254998Y-125534999D01*
X166145000Y-124425001D02*
X167254998Y-125534999D01*
X186145000Y-124425001D02*
X187254998Y-125534999D01*
X122560000Y-122895000D02*
X122560000Y-123685000D01*
X142560000Y-122895000D02*
X142560000Y-123685000D01*
X162560000Y-122895000D02*
X162560000Y-123685000D01*
X182560000Y-122895000D02*
X182560000Y-123685000D01*
X133100000Y-120600000D02*
X133100000Y-126250000D01*
X153100000Y-120600000D02*
X153100000Y-126250000D01*
X173100000Y-120600000D02*
X173100000Y-126250000D01*
X193100000Y-120600000D02*
X193100000Y-126250000D01*
X132184999Y-125534999D02*
X132750001Y-126100001D01*
X152184999Y-125534999D02*
X152750001Y-126100001D01*
X172184999Y-125534999D02*
X172750001Y-126100001D01*
X192184999Y-125534999D02*
X192750001Y-126100001D01*
X133100000Y-126250000D02*
X133000000Y-126350000D01*
X153100000Y-126250000D02*
X153000000Y-126350000D01*
X173100000Y-126250000D02*
X173000000Y-126350000D01*
X193100000Y-126250000D02*
X193000000Y-126350000D01*
X121400000Y-116900000D02*
X119390000Y-118910000D01*
X141400000Y-116900000D02*
X139390000Y-118910000D01*
X161400000Y-116900000D02*
X159390000Y-118910000D01*
X181400000Y-116900000D02*
X179390000Y-118910000D01*
X119390000Y-121240000D02*
X121310000Y-123160000D01*
X139390000Y-121240000D02*
X141310000Y-123160000D01*
X159390000Y-121240000D02*
X161310000Y-123160000D01*
X179390000Y-121240000D02*
X181310000Y-123160000D01*
X118890000Y-129460000D02*
X120160000Y-130730000D01*
X138890000Y-129460000D02*
X140160000Y-130730000D01*
X158890000Y-129460000D02*
X160160000Y-130730000D01*
X178890000Y-129460000D02*
X180160000Y-130730000D01*
X119390000Y-118910000D02*
X119390000Y-121240000D01*
X139390000Y-118910000D02*
X139390000Y-121240000D01*
X159390000Y-118910000D02*
X159390000Y-121240000D01*
X179390000Y-118910000D02*
X179390000Y-121240000D01*
X121310000Y-123584264D02*
X118890000Y-126004264D01*
X141310000Y-123584264D02*
X138890000Y-126004264D01*
X161310000Y-123584264D02*
X158890000Y-126004264D01*
X181310000Y-123584264D02*
X178890000Y-126004264D01*
X121425000Y-130835000D02*
X121320000Y-130730000D01*
X141425000Y-130835000D02*
X141320000Y-130730000D01*
X161425000Y-130835000D02*
X161320000Y-130730000D01*
X181425000Y-130835000D02*
X181320000Y-130730000D01*
X132950001Y-126399999D02*
X133000000Y-126350000D01*
X152950001Y-126399999D02*
X153000000Y-126350000D01*
X172950001Y-126399999D02*
X173000000Y-126350000D01*
X192950001Y-126399999D02*
X193000000Y-126350000D01*
X118890000Y-126004264D02*
X118890000Y-129460000D01*
X138890000Y-126004264D02*
X138890000Y-129460000D01*
X158890000Y-126004264D02*
X158890000Y-129460000D01*
X178890000Y-126004264D02*
X178890000Y-129460000D01*
X132900000Y-120400000D02*
X133100000Y-120600000D01*
X152900000Y-120400000D02*
X153100000Y-120600000D01*
X172900000Y-120400000D02*
X173100000Y-120600000D01*
X192900000Y-120400000D02*
X193100000Y-120600000D01*
X132900000Y-119850000D02*
X132900000Y-120400000D01*
X152900000Y-119850000D02*
X152900000Y-120400000D01*
X172900000Y-119850000D02*
X172900000Y-120400000D01*
X192900000Y-119850000D02*
X192900000Y-120400000D01*
X132750001Y-126100001D02*
X133000000Y-126350000D01*
X152750001Y-126100001D02*
X153000000Y-126350000D01*
X172750001Y-126100001D02*
X173000000Y-126350000D01*
X192750001Y-126100001D02*
X193000000Y-126350000D01*
X127254998Y-125534999D02*
X132184999Y-125534999D01*
X147254998Y-125534999D02*
X152184999Y-125534999D01*
X167254998Y-125534999D02*
X172184999Y-125534999D01*
X187254998Y-125534999D02*
X192184999Y-125534999D01*
X121310000Y-123160000D02*
X121310000Y-123584264D01*
X141310000Y-123160000D02*
X141310000Y-123584264D01*
X161310000Y-123160000D02*
X161310000Y-123584264D01*
X181310000Y-123160000D02*
X181310000Y-123584264D01*
X121575000Y-122895000D02*
X121310000Y-123160000D01*
X141575000Y-122895000D02*
X141310000Y-123160000D01*
X161575000Y-122895000D02*
X161310000Y-123160000D01*
X181575000Y-122895000D02*
X181310000Y-123160000D01*
X102120000Y-132530000D02*
X105580000Y-129070000D01*
X102419999Y-132230001D02*
X102120000Y-132530000D01*
X106560000Y-128090000D02*
X102419999Y-132230001D01*
X106560000Y-127065000D02*
X106560000Y-128090000D01*
X126560000Y-128090000D02*
X122419999Y-132230001D01*
X146560000Y-128090000D02*
X142419999Y-132230001D01*
X166560000Y-128090000D02*
X162419999Y-132230001D01*
X186560000Y-128090000D02*
X182419999Y-132230001D01*
X126560000Y-127065000D02*
X126560000Y-128090000D01*
X146560000Y-127065000D02*
X146560000Y-128090000D01*
X166560000Y-127065000D02*
X166560000Y-128090000D01*
X186560000Y-127065000D02*
X186560000Y-128090000D01*
X122120000Y-132530000D02*
X125580000Y-129070000D01*
X142120000Y-132530000D02*
X145580000Y-129070000D01*
X162120000Y-132530000D02*
X165580000Y-129070000D01*
X182120000Y-132530000D02*
X185580000Y-129070000D01*
X122419999Y-132230001D02*
X122120000Y-132530000D01*
X142419999Y-132230001D02*
X142120000Y-132530000D01*
X162419999Y-132230001D02*
X162120000Y-132530000D01*
X182419999Y-132230001D02*
X182120000Y-132530000D01*
X104560000Y-122105000D02*
X101300000Y-118845000D01*
X104560000Y-122895000D02*
X104560000Y-122105000D01*
X101300000Y-118845000D02*
X101300000Y-118300000D01*
X102650000Y-116950000D02*
X112900000Y-116950000D01*
X101300000Y-118300000D02*
X102650000Y-116950000D01*
X124560000Y-122105000D02*
X121300000Y-118845000D01*
X144560000Y-122105000D02*
X141300000Y-118845000D01*
X164560000Y-122105000D02*
X161300000Y-118845000D01*
X184560000Y-122105000D02*
X181300000Y-118845000D01*
X124560000Y-122895000D02*
X124560000Y-122105000D01*
X144560000Y-122895000D02*
X144560000Y-122105000D01*
X164560000Y-122895000D02*
X164560000Y-122105000D01*
X184560000Y-122895000D02*
X184560000Y-122105000D01*
X121300000Y-118845000D02*
X121300000Y-118300000D01*
X141300000Y-118845000D02*
X141300000Y-118300000D01*
X161300000Y-118845000D02*
X161300000Y-118300000D01*
X181300000Y-118845000D02*
X181300000Y-118300000D01*
X122650000Y-116950000D02*
X132900000Y-116950000D01*
X142650000Y-116950000D02*
X152900000Y-116950000D01*
X162650000Y-116950000D02*
X172900000Y-116950000D01*
X182650000Y-116950000D02*
X192900000Y-116950000D01*
X121300000Y-118300000D02*
X122650000Y-116950000D01*
X141300000Y-118300000D02*
X142650000Y-116950000D01*
X161300000Y-118300000D02*
X162650000Y-116950000D01*
X181300000Y-118300000D02*
X182650000Y-116950000D01*
X102524264Y-118500000D02*
X102100000Y-118500000D01*
X105615000Y-118500000D02*
X103800000Y-118500000D01*
X108560000Y-121445000D02*
X105615000Y-118500000D01*
X108560000Y-122895000D02*
X108560000Y-121445000D01*
X103800000Y-118500000D02*
X102524264Y-118500000D01*
X122524264Y-118500000D02*
X122100000Y-118500000D01*
X142524264Y-118500000D02*
X142100000Y-118500000D01*
X162524264Y-118500000D02*
X162100000Y-118500000D01*
X182524264Y-118500000D02*
X182100000Y-118500000D01*
X125615000Y-118500000D02*
X123800000Y-118500000D01*
X145615000Y-118500000D02*
X143800000Y-118500000D01*
X165615000Y-118500000D02*
X163800000Y-118500000D01*
X185615000Y-118500000D02*
X183800000Y-118500000D01*
X128560000Y-121445000D02*
X125615000Y-118500000D01*
X148560000Y-121445000D02*
X145615000Y-118500000D01*
X168560000Y-121445000D02*
X165615000Y-118500000D01*
X188560000Y-121445000D02*
X185615000Y-118500000D01*
X128560000Y-122895000D02*
X128560000Y-121445000D01*
X148560000Y-122895000D02*
X148560000Y-121445000D01*
X168560000Y-122895000D02*
X168560000Y-121445000D01*
X188560000Y-122895000D02*
X188560000Y-121445000D01*
X123800000Y-118500000D02*
X122524264Y-118500000D01*
X143800000Y-118500000D02*
X142524264Y-118500000D01*
X163800000Y-118500000D02*
X162524264Y-118500000D01*
X183800000Y-118500000D02*
X182524264Y-118500000D01*
X102434264Y-125060000D02*
X102010000Y-125060000D01*
X104005000Y-125060000D02*
X102434264Y-125060000D01*
X104560000Y-125615000D02*
X104005000Y-125060000D01*
X104560000Y-127065000D02*
X104560000Y-125615000D01*
X122434264Y-125060000D02*
X122010000Y-125060000D01*
X142434264Y-125060000D02*
X142010000Y-125060000D01*
X162434264Y-125060000D02*
X162010000Y-125060000D01*
X182434264Y-125060000D02*
X182010000Y-125060000D01*
X124005000Y-125060000D02*
X122434264Y-125060000D01*
X144005000Y-125060000D02*
X142434264Y-125060000D01*
X164005000Y-125060000D02*
X162434264Y-125060000D01*
X184005000Y-125060000D02*
X182434264Y-125060000D01*
X124560000Y-127065000D02*
X124560000Y-125615000D01*
X144560000Y-127065000D02*
X144560000Y-125615000D01*
X164560000Y-127065000D02*
X164560000Y-125615000D01*
X184560000Y-127065000D02*
X184560000Y-125615000D01*
X124560000Y-125615000D02*
X124005000Y-125060000D01*
X144560000Y-125615000D02*
X144005000Y-125060000D01*
X164560000Y-125615000D02*
X164005000Y-125060000D01*
X184560000Y-125615000D02*
X184005000Y-125060000D01*
X106560000Y-124345000D02*
X106915000Y-124700000D01*
X106560000Y-122895000D02*
X106560000Y-124345000D01*
X111350000Y-124700000D02*
X112600000Y-123450000D01*
X106915000Y-124700000D02*
X111350000Y-124700000D01*
X126560000Y-124345000D02*
X126915000Y-124700000D01*
X146560000Y-124345000D02*
X146915000Y-124700000D01*
X166560000Y-124345000D02*
X166915000Y-124700000D01*
X186560000Y-124345000D02*
X186915000Y-124700000D01*
X126915000Y-124700000D02*
X131350000Y-124700000D01*
X146915000Y-124700000D02*
X151350000Y-124700000D01*
X166915000Y-124700000D02*
X171350000Y-124700000D01*
X186915000Y-124700000D02*
X191350000Y-124700000D01*
X126560000Y-122895000D02*
X126560000Y-124345000D01*
X146560000Y-122895000D02*
X146560000Y-124345000D01*
X166560000Y-122895000D02*
X166560000Y-124345000D01*
X186560000Y-122895000D02*
X186560000Y-124345000D01*
X131350000Y-124700000D02*
X132600000Y-123450000D01*
X151350000Y-124700000D02*
X152600000Y-123450000D01*
X171350000Y-124700000D02*
X172600000Y-123450000D01*
X191350000Y-124700000D02*
X192600000Y-123450000D01*
X102424999Y-138575001D02*
X102424999Y-138565001D01*
X102125000Y-138875000D02*
X102424999Y-138575001D01*
X102424999Y-138565001D02*
X107570000Y-133420000D01*
X108560000Y-132440000D02*
X102125000Y-138875000D01*
X108560000Y-127065000D02*
X108560000Y-132440000D01*
X128560000Y-132440000D02*
X122125000Y-138875000D01*
X148560000Y-132440000D02*
X142125000Y-138875000D01*
X168560000Y-132440000D02*
X162125000Y-138875000D01*
X188560000Y-132440000D02*
X182125000Y-138875000D01*
X122125000Y-138875000D02*
X122424999Y-138575001D01*
X142125000Y-138875000D02*
X142424999Y-138575001D01*
X162125000Y-138875000D02*
X162424999Y-138575001D01*
X182125000Y-138875000D02*
X182424999Y-138575001D01*
X122424999Y-138575001D02*
X122424999Y-138565001D01*
X142424999Y-138575001D02*
X142424999Y-138565001D01*
X162424999Y-138575001D02*
X162424999Y-138565001D01*
X182424999Y-138575001D02*
X182424999Y-138565001D01*
X122424999Y-138565001D02*
X127570000Y-133420000D01*
X142424999Y-138565001D02*
X147570000Y-133420000D01*
X162424999Y-138565001D02*
X167570000Y-133420000D01*
X182424999Y-138565001D02*
X187570000Y-133420000D01*
X128560000Y-127065000D02*
X128560000Y-132440000D01*
X148560000Y-127065000D02*
X148560000Y-132440000D01*
X168560000Y-127065000D02*
X168560000Y-132440000D01*
X188560000Y-127065000D02*
X188560000Y-132440000D01*
M02*
