G04 #@! TF.GenerationSoftware,KiCad,Pcbnew,(5.1.4)-1*
G04 #@! TF.CreationDate,2023-01-28T22:22:51+01:00*
G04 #@! TF.ProjectId,REG1-Front-Universal - Kopie,52454731-2d46-4726-9f6e-742d556e6976,V00.01*
G04 #@! TF.SameCoordinates,Original*
G04 #@! TF.FileFunction,Paste,Bot*
G04 #@! TF.FilePolarity,Positive*
%FSLAX46Y46*%
G04 Gerber Fmt 4.6, Leading zero omitted, Abs format (unit mm)*
G04 Created by KiCad (PCBNEW (5.1.4)-1) date 2023-01-28 22:22:51*
%MOMM*%
%LPD*%
G04 APERTURE LIST*
%ADD10R,1.000000X2.580000*%
G04 APERTURE END LIST*
D10*
X182560000Y-122895000D03*
X182560000Y-127065000D03*
X184560000Y-122895000D03*
X184560000Y-127065000D03*
X186560000Y-122895000D03*
X186560000Y-127065000D03*
X188560000Y-122895000D03*
X188560000Y-127065000D03*
X162560000Y-122895000D03*
X162560000Y-127065000D03*
X164560000Y-122895000D03*
X164560000Y-127065000D03*
X166560000Y-122895000D03*
X166560000Y-127065000D03*
X168560000Y-122895000D03*
X168560000Y-127065000D03*
X142560000Y-122895000D03*
X142560000Y-127065000D03*
X144560000Y-122895000D03*
X144560000Y-127065000D03*
X146560000Y-122895000D03*
X146560000Y-127065000D03*
X148560000Y-122895000D03*
X148560000Y-127065000D03*
X122560000Y-122895000D03*
X122560000Y-127065000D03*
X124560000Y-122895000D03*
X124560000Y-127065000D03*
X126560000Y-122895000D03*
X126560000Y-127065000D03*
X128560000Y-122895000D03*
X128560000Y-127065000D03*
X108560000Y-127065000D03*
X108560000Y-122895000D03*
X106560000Y-127065000D03*
X106560000Y-122895000D03*
X104560000Y-127065000D03*
X104560000Y-122895000D03*
X102560000Y-127065000D03*
X102560000Y-122895000D03*
M02*
