G04 #@! TF.GenerationSoftware,KiCad,Pcbnew,(5.1.4)-1*
G04 #@! TF.CreationDate,2023-01-28T22:22:51+01:00*
G04 #@! TF.ProjectId,REG1-Front-Universal - Kopie,52454731-2d46-4726-9f6e-742d556e6976,V00.01*
G04 #@! TF.SameCoordinates,Original*
G04 #@! TF.FileFunction,Soldermask,Bot*
G04 #@! TF.FilePolarity,Negative*
%FSLAX46Y46*%
G04 Gerber Fmt 4.6, Leading zero omitted, Abs format (unit mm)*
G04 Created by KiCad (PCBNEW (5.1.4)-1) date 2023-01-28 22:22:51*
%MOMM*%
%LPD*%
G04 APERTURE LIST*
%ADD10C,0.100000*%
G04 APERTURE END LIST*
D10*
G36*
X124498967Y-151603823D02*
G01*
X124523214Y-151608646D01*
X124568893Y-151627567D01*
X124610003Y-151655036D01*
X124644964Y-151689997D01*
X124672433Y-151731107D01*
X124691354Y-151776786D01*
X124691354Y-151776787D01*
X124700962Y-151825087D01*
X124703807Y-151834466D01*
X124708428Y-151843111D01*
X124714082Y-151850000D01*
X124708427Y-151856891D01*
X124703807Y-151865535D01*
X124700962Y-151874913D01*
X124691354Y-151923214D01*
X124672433Y-151968893D01*
X124644964Y-152010003D01*
X124610003Y-152044964D01*
X124568893Y-152072433D01*
X124523214Y-152091354D01*
X124498967Y-152096177D01*
X124474722Y-152101000D01*
X124425278Y-152101000D01*
X124401033Y-152096177D01*
X124376786Y-152091354D01*
X124331107Y-152072433D01*
X124289997Y-152044964D01*
X124255036Y-152010003D01*
X124227567Y-151968893D01*
X124208646Y-151923214D01*
X124199038Y-151874913D01*
X124196193Y-151865534D01*
X124191572Y-151856889D01*
X124185918Y-151850000D01*
X124191573Y-151843109D01*
X124196193Y-151834465D01*
X124199038Y-151825087D01*
X124208646Y-151776787D01*
X124208646Y-151776786D01*
X124227567Y-151731107D01*
X124255036Y-151689997D01*
X124289997Y-151655036D01*
X124331107Y-151627567D01*
X124376786Y-151608646D01*
X124401033Y-151603823D01*
X124425278Y-151599000D01*
X124474722Y-151599000D01*
X124498967Y-151603823D01*
X124498967Y-151603823D01*
G37*
G36*
X125698967Y-151603823D02*
G01*
X125723214Y-151608646D01*
X125768893Y-151627567D01*
X125810003Y-151655036D01*
X125844964Y-151689997D01*
X125872433Y-151731107D01*
X125891354Y-151776786D01*
X125891354Y-151776787D01*
X125900962Y-151825087D01*
X125903807Y-151834466D01*
X125908428Y-151843111D01*
X125914082Y-151850000D01*
X125908427Y-151856891D01*
X125903807Y-151865535D01*
X125900962Y-151874913D01*
X125891354Y-151923214D01*
X125872433Y-151968893D01*
X125844964Y-152010003D01*
X125810003Y-152044964D01*
X125768893Y-152072433D01*
X125723214Y-152091354D01*
X125698967Y-152096177D01*
X125674722Y-152101000D01*
X125625278Y-152101000D01*
X125601033Y-152096177D01*
X125576786Y-152091354D01*
X125531107Y-152072433D01*
X125489997Y-152044964D01*
X125455036Y-152010003D01*
X125427567Y-151968893D01*
X125408646Y-151923214D01*
X125399038Y-151874913D01*
X125396193Y-151865534D01*
X125391572Y-151856889D01*
X125385918Y-151850000D01*
X125391573Y-151843109D01*
X125396193Y-151834465D01*
X125399038Y-151825087D01*
X125408646Y-151776787D01*
X125408646Y-151776786D01*
X125427567Y-151731107D01*
X125455036Y-151689997D01*
X125489997Y-151655036D01*
X125531107Y-151627567D01*
X125576786Y-151608646D01*
X125601033Y-151603823D01*
X125625278Y-151599000D01*
X125674722Y-151599000D01*
X125698967Y-151603823D01*
X125698967Y-151603823D01*
G37*
G36*
X106898967Y-151603823D02*
G01*
X106923214Y-151608646D01*
X106968893Y-151627567D01*
X107010003Y-151655036D01*
X107044964Y-151689997D01*
X107072433Y-151731107D01*
X107091354Y-151776786D01*
X107091354Y-151776787D01*
X107100962Y-151825087D01*
X107103807Y-151834466D01*
X107108428Y-151843111D01*
X107114082Y-151850000D01*
X107108427Y-151856891D01*
X107103807Y-151865535D01*
X107100962Y-151874913D01*
X107091354Y-151923214D01*
X107072433Y-151968893D01*
X107044964Y-152010003D01*
X107010003Y-152044964D01*
X106968893Y-152072433D01*
X106923214Y-152091354D01*
X106898967Y-152096177D01*
X106874722Y-152101000D01*
X106825278Y-152101000D01*
X106801033Y-152096177D01*
X106776786Y-152091354D01*
X106731107Y-152072433D01*
X106689997Y-152044964D01*
X106655036Y-152010003D01*
X106627567Y-151968893D01*
X106608646Y-151923214D01*
X106599038Y-151874913D01*
X106596193Y-151865534D01*
X106591572Y-151856889D01*
X106585918Y-151850000D01*
X106591573Y-151843109D01*
X106596193Y-151834465D01*
X106599038Y-151825087D01*
X106608646Y-151776787D01*
X106608646Y-151776786D01*
X106627567Y-151731107D01*
X106655036Y-151689997D01*
X106689997Y-151655036D01*
X106731107Y-151627567D01*
X106776786Y-151608646D01*
X106801033Y-151603823D01*
X106825278Y-151599000D01*
X106874722Y-151599000D01*
X106898967Y-151603823D01*
X106898967Y-151603823D01*
G37*
G36*
X108098967Y-151603823D02*
G01*
X108123214Y-151608646D01*
X108168893Y-151627567D01*
X108210003Y-151655036D01*
X108244964Y-151689997D01*
X108272433Y-151731107D01*
X108291354Y-151776786D01*
X108301000Y-151825279D01*
X108301000Y-151874721D01*
X108291354Y-151923214D01*
X108272433Y-151968893D01*
X108244964Y-152010003D01*
X108210003Y-152044964D01*
X108168893Y-152072433D01*
X108123214Y-152091354D01*
X108098967Y-152096177D01*
X108074722Y-152101000D01*
X108025278Y-152101000D01*
X108001033Y-152096177D01*
X107976786Y-152091354D01*
X107931107Y-152072433D01*
X107889997Y-152044964D01*
X107855036Y-152010003D01*
X107827567Y-151968893D01*
X107808646Y-151923214D01*
X107799038Y-151874913D01*
X107796193Y-151865534D01*
X107791572Y-151856889D01*
X107785918Y-151850000D01*
X107791573Y-151843109D01*
X107796193Y-151834465D01*
X107799038Y-151825087D01*
X107808646Y-151776787D01*
X107808646Y-151776786D01*
X107827567Y-151731107D01*
X107855036Y-151689997D01*
X107889997Y-151655036D01*
X107931107Y-151627567D01*
X107976786Y-151608646D01*
X108001033Y-151603823D01*
X108025278Y-151599000D01*
X108074722Y-151599000D01*
X108098967Y-151603823D01*
X108098967Y-151603823D01*
G37*
G36*
X107498967Y-151603823D02*
G01*
X107523214Y-151608646D01*
X107568893Y-151627567D01*
X107610003Y-151655036D01*
X107644964Y-151689997D01*
X107672433Y-151731107D01*
X107691354Y-151776786D01*
X107691354Y-151776787D01*
X107700962Y-151825087D01*
X107703807Y-151834466D01*
X107708428Y-151843111D01*
X107714082Y-151850000D01*
X107708427Y-151856891D01*
X107703807Y-151865535D01*
X107700962Y-151874913D01*
X107691354Y-151923214D01*
X107672433Y-151968893D01*
X107644964Y-152010003D01*
X107610003Y-152044964D01*
X107568893Y-152072433D01*
X107523214Y-152091354D01*
X107498967Y-152096177D01*
X107474722Y-152101000D01*
X107425278Y-152101000D01*
X107401033Y-152096177D01*
X107376786Y-152091354D01*
X107331107Y-152072433D01*
X107289997Y-152044964D01*
X107255036Y-152010003D01*
X107227567Y-151968893D01*
X107208646Y-151923214D01*
X107199038Y-151874913D01*
X107196193Y-151865534D01*
X107191572Y-151856889D01*
X107185918Y-151850000D01*
X107191573Y-151843109D01*
X107196193Y-151834465D01*
X107199038Y-151825087D01*
X107208646Y-151776787D01*
X107208646Y-151776786D01*
X107227567Y-151731107D01*
X107255036Y-151689997D01*
X107289997Y-151655036D01*
X107331107Y-151627567D01*
X107376786Y-151608646D01*
X107401033Y-151603823D01*
X107425278Y-151599000D01*
X107474722Y-151599000D01*
X107498967Y-151603823D01*
X107498967Y-151603823D01*
G37*
G36*
X106298967Y-151603823D02*
G01*
X106323214Y-151608646D01*
X106368893Y-151627567D01*
X106410003Y-151655036D01*
X106444964Y-151689997D01*
X106472433Y-151731107D01*
X106491354Y-151776786D01*
X106491354Y-151776787D01*
X106500962Y-151825087D01*
X106503807Y-151834466D01*
X106508428Y-151843111D01*
X106514082Y-151850000D01*
X106508427Y-151856891D01*
X106503807Y-151865535D01*
X106500962Y-151874913D01*
X106491354Y-151923214D01*
X106472433Y-151968893D01*
X106444964Y-152010003D01*
X106410003Y-152044964D01*
X106368893Y-152072433D01*
X106323214Y-152091354D01*
X106298967Y-152096177D01*
X106274722Y-152101000D01*
X106225278Y-152101000D01*
X106201033Y-152096177D01*
X106176786Y-152091354D01*
X106131107Y-152072433D01*
X106089997Y-152044964D01*
X106055036Y-152010003D01*
X106027567Y-151968893D01*
X106008646Y-151923214D01*
X105999038Y-151874913D01*
X105996193Y-151865534D01*
X105991572Y-151856889D01*
X105985918Y-151850000D01*
X105991573Y-151843109D01*
X105996193Y-151834465D01*
X105999038Y-151825087D01*
X106008646Y-151776787D01*
X106008646Y-151776786D01*
X106027567Y-151731107D01*
X106055036Y-151689997D01*
X106089997Y-151655036D01*
X106131107Y-151627567D01*
X106176786Y-151608646D01*
X106201033Y-151603823D01*
X106225278Y-151599000D01*
X106274722Y-151599000D01*
X106298967Y-151603823D01*
X106298967Y-151603823D01*
G37*
G36*
X103898967Y-151603823D02*
G01*
X103923214Y-151608646D01*
X103968893Y-151627567D01*
X104010003Y-151655036D01*
X104044964Y-151689997D01*
X104072433Y-151731107D01*
X104091354Y-151776786D01*
X104091354Y-151776787D01*
X104100962Y-151825087D01*
X104103807Y-151834466D01*
X104108428Y-151843111D01*
X104114082Y-151850000D01*
X104108427Y-151856891D01*
X104103807Y-151865535D01*
X104100962Y-151874913D01*
X104091354Y-151923214D01*
X104072433Y-151968893D01*
X104044964Y-152010003D01*
X104010003Y-152044964D01*
X103968893Y-152072433D01*
X103923214Y-152091354D01*
X103898967Y-152096177D01*
X103874722Y-152101000D01*
X103825278Y-152101000D01*
X103801033Y-152096177D01*
X103776786Y-152091354D01*
X103731107Y-152072433D01*
X103689997Y-152044964D01*
X103655036Y-152010003D01*
X103627567Y-151968893D01*
X103608646Y-151923214D01*
X103599000Y-151874721D01*
X103599000Y-151825279D01*
X103608646Y-151776786D01*
X103627567Y-151731107D01*
X103655036Y-151689997D01*
X103689997Y-151655036D01*
X103731107Y-151627567D01*
X103776786Y-151608646D01*
X103801033Y-151603823D01*
X103825278Y-151599000D01*
X103874722Y-151599000D01*
X103898967Y-151603823D01*
X103898967Y-151603823D01*
G37*
G36*
X104498967Y-151603823D02*
G01*
X104523214Y-151608646D01*
X104568893Y-151627567D01*
X104610003Y-151655036D01*
X104644964Y-151689997D01*
X104672433Y-151731107D01*
X104691354Y-151776786D01*
X104691354Y-151776787D01*
X104700962Y-151825087D01*
X104703807Y-151834466D01*
X104708428Y-151843111D01*
X104714082Y-151850000D01*
X104708427Y-151856891D01*
X104703807Y-151865535D01*
X104700962Y-151874913D01*
X104691354Y-151923214D01*
X104672433Y-151968893D01*
X104644964Y-152010003D01*
X104610003Y-152044964D01*
X104568893Y-152072433D01*
X104523214Y-152091354D01*
X104498967Y-152096177D01*
X104474722Y-152101000D01*
X104425278Y-152101000D01*
X104401033Y-152096177D01*
X104376786Y-152091354D01*
X104331107Y-152072433D01*
X104289997Y-152044964D01*
X104255036Y-152010003D01*
X104227567Y-151968893D01*
X104208646Y-151923214D01*
X104199038Y-151874913D01*
X104196193Y-151865534D01*
X104191572Y-151856889D01*
X104185918Y-151850000D01*
X104191573Y-151843109D01*
X104196193Y-151834465D01*
X104199038Y-151825087D01*
X104208646Y-151776787D01*
X104208646Y-151776786D01*
X104227567Y-151731107D01*
X104255036Y-151689997D01*
X104289997Y-151655036D01*
X104331107Y-151627567D01*
X104376786Y-151608646D01*
X104401033Y-151603823D01*
X104425278Y-151599000D01*
X104474722Y-151599000D01*
X104498967Y-151603823D01*
X104498967Y-151603823D01*
G37*
G36*
X105698967Y-151603823D02*
G01*
X105723214Y-151608646D01*
X105768893Y-151627567D01*
X105810003Y-151655036D01*
X105844964Y-151689997D01*
X105872433Y-151731107D01*
X105891354Y-151776786D01*
X105891354Y-151776787D01*
X105900962Y-151825087D01*
X105903807Y-151834466D01*
X105908428Y-151843111D01*
X105914082Y-151850000D01*
X105908427Y-151856891D01*
X105903807Y-151865535D01*
X105900962Y-151874913D01*
X105891354Y-151923214D01*
X105872433Y-151968893D01*
X105844964Y-152010003D01*
X105810003Y-152044964D01*
X105768893Y-152072433D01*
X105723214Y-152091354D01*
X105698967Y-152096177D01*
X105674722Y-152101000D01*
X105625278Y-152101000D01*
X105601033Y-152096177D01*
X105576786Y-152091354D01*
X105531107Y-152072433D01*
X105489997Y-152044964D01*
X105455036Y-152010003D01*
X105427567Y-151968893D01*
X105408646Y-151923214D01*
X105399038Y-151874913D01*
X105396193Y-151865534D01*
X105391572Y-151856889D01*
X105385918Y-151850000D01*
X105391573Y-151843109D01*
X105396193Y-151834465D01*
X105399038Y-151825087D01*
X105408646Y-151776787D01*
X105408646Y-151776786D01*
X105427567Y-151731107D01*
X105455036Y-151689997D01*
X105489997Y-151655036D01*
X105531107Y-151627567D01*
X105576786Y-151608646D01*
X105601033Y-151603823D01*
X105625278Y-151599000D01*
X105674722Y-151599000D01*
X105698967Y-151603823D01*
X105698967Y-151603823D01*
G37*
G36*
X105098967Y-151603823D02*
G01*
X105123214Y-151608646D01*
X105168893Y-151627567D01*
X105210003Y-151655036D01*
X105244964Y-151689997D01*
X105272433Y-151731107D01*
X105291354Y-151776786D01*
X105291354Y-151776787D01*
X105300962Y-151825087D01*
X105303807Y-151834466D01*
X105308428Y-151843111D01*
X105314082Y-151850000D01*
X105308427Y-151856891D01*
X105303807Y-151865535D01*
X105300962Y-151874913D01*
X105291354Y-151923214D01*
X105272433Y-151968893D01*
X105244964Y-152010003D01*
X105210003Y-152044964D01*
X105168893Y-152072433D01*
X105123214Y-152091354D01*
X105098967Y-152096177D01*
X105074722Y-152101000D01*
X105025278Y-152101000D01*
X105001033Y-152096177D01*
X104976786Y-152091354D01*
X104931107Y-152072433D01*
X104889997Y-152044964D01*
X104855036Y-152010003D01*
X104827567Y-151968893D01*
X104808646Y-151923214D01*
X104799038Y-151874913D01*
X104796193Y-151865534D01*
X104791572Y-151856889D01*
X104785918Y-151850000D01*
X104791573Y-151843109D01*
X104796193Y-151834465D01*
X104799038Y-151825087D01*
X104808646Y-151776787D01*
X104808646Y-151776786D01*
X104827567Y-151731107D01*
X104855036Y-151689997D01*
X104889997Y-151655036D01*
X104931107Y-151627567D01*
X104976786Y-151608646D01*
X105001033Y-151603823D01*
X105025278Y-151599000D01*
X105074722Y-151599000D01*
X105098967Y-151603823D01*
X105098967Y-151603823D01*
G37*
G36*
X125098967Y-151603823D02*
G01*
X125123214Y-151608646D01*
X125168893Y-151627567D01*
X125210003Y-151655036D01*
X125244964Y-151689997D01*
X125272433Y-151731107D01*
X125291354Y-151776786D01*
X125291354Y-151776787D01*
X125300962Y-151825087D01*
X125303807Y-151834466D01*
X125308428Y-151843111D01*
X125314082Y-151850000D01*
X125308427Y-151856891D01*
X125303807Y-151865535D01*
X125300962Y-151874913D01*
X125291354Y-151923214D01*
X125272433Y-151968893D01*
X125244964Y-152010003D01*
X125210003Y-152044964D01*
X125168893Y-152072433D01*
X125123214Y-152091354D01*
X125098967Y-152096177D01*
X125074722Y-152101000D01*
X125025278Y-152101000D01*
X125001033Y-152096177D01*
X124976786Y-152091354D01*
X124931107Y-152072433D01*
X124889997Y-152044964D01*
X124855036Y-152010003D01*
X124827567Y-151968893D01*
X124808646Y-151923214D01*
X124799038Y-151874913D01*
X124796193Y-151865534D01*
X124791572Y-151856889D01*
X124785918Y-151850000D01*
X124791573Y-151843109D01*
X124796193Y-151834465D01*
X124799038Y-151825087D01*
X124808646Y-151776787D01*
X124808646Y-151776786D01*
X124827567Y-151731107D01*
X124855036Y-151689997D01*
X124889997Y-151655036D01*
X124931107Y-151627567D01*
X124976786Y-151608646D01*
X125001033Y-151603823D01*
X125025278Y-151599000D01*
X125074722Y-151599000D01*
X125098967Y-151603823D01*
X125098967Y-151603823D01*
G37*
G36*
X146298967Y-151603823D02*
G01*
X146323214Y-151608646D01*
X146368893Y-151627567D01*
X146410003Y-151655036D01*
X146444964Y-151689997D01*
X146472433Y-151731107D01*
X146491354Y-151776786D01*
X146491354Y-151776787D01*
X146500962Y-151825087D01*
X146503807Y-151834466D01*
X146508428Y-151843111D01*
X146514082Y-151850000D01*
X146508427Y-151856891D01*
X146503807Y-151865535D01*
X146500962Y-151874913D01*
X146491354Y-151923214D01*
X146472433Y-151968893D01*
X146444964Y-152010003D01*
X146410003Y-152044964D01*
X146368893Y-152072433D01*
X146323214Y-152091354D01*
X146298967Y-152096177D01*
X146274722Y-152101000D01*
X146225278Y-152101000D01*
X146201033Y-152096177D01*
X146176786Y-152091354D01*
X146131107Y-152072433D01*
X146089997Y-152044964D01*
X146055036Y-152010003D01*
X146027567Y-151968893D01*
X146008646Y-151923214D01*
X145999038Y-151874913D01*
X145996193Y-151865534D01*
X145991572Y-151856889D01*
X145985918Y-151850000D01*
X145991573Y-151843109D01*
X145996193Y-151834465D01*
X145999038Y-151825087D01*
X146008646Y-151776787D01*
X146008646Y-151776786D01*
X146027567Y-151731107D01*
X146055036Y-151689997D01*
X146089997Y-151655036D01*
X146131107Y-151627567D01*
X146176786Y-151608646D01*
X146201033Y-151603823D01*
X146225278Y-151599000D01*
X146274722Y-151599000D01*
X146298967Y-151603823D01*
X146298967Y-151603823D01*
G37*
G36*
X123898967Y-151603823D02*
G01*
X123923214Y-151608646D01*
X123968893Y-151627567D01*
X124010003Y-151655036D01*
X124044964Y-151689997D01*
X124072433Y-151731107D01*
X124091354Y-151776786D01*
X124091354Y-151776787D01*
X124100962Y-151825087D01*
X124103807Y-151834466D01*
X124108428Y-151843111D01*
X124114082Y-151850000D01*
X124108427Y-151856891D01*
X124103807Y-151865535D01*
X124100962Y-151874913D01*
X124091354Y-151923214D01*
X124072433Y-151968893D01*
X124044964Y-152010003D01*
X124010003Y-152044964D01*
X123968893Y-152072433D01*
X123923214Y-152091354D01*
X123898967Y-152096177D01*
X123874722Y-152101000D01*
X123825278Y-152101000D01*
X123801033Y-152096177D01*
X123776786Y-152091354D01*
X123731107Y-152072433D01*
X123689997Y-152044964D01*
X123655036Y-152010003D01*
X123627567Y-151968893D01*
X123608646Y-151923214D01*
X123599000Y-151874721D01*
X123599000Y-151825279D01*
X123608646Y-151776786D01*
X123627567Y-151731107D01*
X123655036Y-151689997D01*
X123689997Y-151655036D01*
X123731107Y-151627567D01*
X123776786Y-151608646D01*
X123801033Y-151603823D01*
X123825278Y-151599000D01*
X123874722Y-151599000D01*
X123898967Y-151603823D01*
X123898967Y-151603823D01*
G37*
G36*
X126298967Y-151603823D02*
G01*
X126323214Y-151608646D01*
X126368893Y-151627567D01*
X126410003Y-151655036D01*
X126444964Y-151689997D01*
X126472433Y-151731107D01*
X126491354Y-151776786D01*
X126491354Y-151776787D01*
X126500962Y-151825087D01*
X126503807Y-151834466D01*
X126508428Y-151843111D01*
X126514082Y-151850000D01*
X126508427Y-151856891D01*
X126503807Y-151865535D01*
X126500962Y-151874913D01*
X126491354Y-151923214D01*
X126472433Y-151968893D01*
X126444964Y-152010003D01*
X126410003Y-152044964D01*
X126368893Y-152072433D01*
X126323214Y-152091354D01*
X126298967Y-152096177D01*
X126274722Y-152101000D01*
X126225278Y-152101000D01*
X126201033Y-152096177D01*
X126176786Y-152091354D01*
X126131107Y-152072433D01*
X126089997Y-152044964D01*
X126055036Y-152010003D01*
X126027567Y-151968893D01*
X126008646Y-151923214D01*
X125999038Y-151874913D01*
X125996193Y-151865534D01*
X125991572Y-151856889D01*
X125985918Y-151850000D01*
X125991573Y-151843109D01*
X125996193Y-151834465D01*
X125999038Y-151825087D01*
X126008646Y-151776787D01*
X126008646Y-151776786D01*
X126027567Y-151731107D01*
X126055036Y-151689997D01*
X126089997Y-151655036D01*
X126131107Y-151627567D01*
X126176786Y-151608646D01*
X126201033Y-151603823D01*
X126225278Y-151599000D01*
X126274722Y-151599000D01*
X126298967Y-151603823D01*
X126298967Y-151603823D01*
G37*
G36*
X127498967Y-151603823D02*
G01*
X127523214Y-151608646D01*
X127568893Y-151627567D01*
X127610003Y-151655036D01*
X127644964Y-151689997D01*
X127672433Y-151731107D01*
X127691354Y-151776786D01*
X127691354Y-151776787D01*
X127700962Y-151825087D01*
X127703807Y-151834466D01*
X127708428Y-151843111D01*
X127714082Y-151850000D01*
X127708427Y-151856891D01*
X127703807Y-151865535D01*
X127700962Y-151874913D01*
X127691354Y-151923214D01*
X127672433Y-151968893D01*
X127644964Y-152010003D01*
X127610003Y-152044964D01*
X127568893Y-152072433D01*
X127523214Y-152091354D01*
X127498967Y-152096177D01*
X127474722Y-152101000D01*
X127425278Y-152101000D01*
X127401033Y-152096177D01*
X127376786Y-152091354D01*
X127331107Y-152072433D01*
X127289997Y-152044964D01*
X127255036Y-152010003D01*
X127227567Y-151968893D01*
X127208646Y-151923214D01*
X127199038Y-151874913D01*
X127196193Y-151865534D01*
X127191572Y-151856889D01*
X127185918Y-151850000D01*
X127191573Y-151843109D01*
X127196193Y-151834465D01*
X127199038Y-151825087D01*
X127208646Y-151776787D01*
X127208646Y-151776786D01*
X127227567Y-151731107D01*
X127255036Y-151689997D01*
X127289997Y-151655036D01*
X127331107Y-151627567D01*
X127376786Y-151608646D01*
X127401033Y-151603823D01*
X127425278Y-151599000D01*
X127474722Y-151599000D01*
X127498967Y-151603823D01*
X127498967Y-151603823D01*
G37*
G36*
X128098967Y-151603823D02*
G01*
X128123214Y-151608646D01*
X128168893Y-151627567D01*
X128210003Y-151655036D01*
X128244964Y-151689997D01*
X128272433Y-151731107D01*
X128291354Y-151776786D01*
X128301000Y-151825279D01*
X128301000Y-151874721D01*
X128291354Y-151923214D01*
X128272433Y-151968893D01*
X128244964Y-152010003D01*
X128210003Y-152044964D01*
X128168893Y-152072433D01*
X128123214Y-152091354D01*
X128098967Y-152096177D01*
X128074722Y-152101000D01*
X128025278Y-152101000D01*
X128001033Y-152096177D01*
X127976786Y-152091354D01*
X127931107Y-152072433D01*
X127889997Y-152044964D01*
X127855036Y-152010003D01*
X127827567Y-151968893D01*
X127808646Y-151923214D01*
X127799038Y-151874913D01*
X127796193Y-151865534D01*
X127791572Y-151856889D01*
X127785918Y-151850000D01*
X127791573Y-151843109D01*
X127796193Y-151834465D01*
X127799038Y-151825087D01*
X127808646Y-151776787D01*
X127808646Y-151776786D01*
X127827567Y-151731107D01*
X127855036Y-151689997D01*
X127889997Y-151655036D01*
X127931107Y-151627567D01*
X127976786Y-151608646D01*
X128001033Y-151603823D01*
X128025278Y-151599000D01*
X128074722Y-151599000D01*
X128098967Y-151603823D01*
X128098967Y-151603823D01*
G37*
G36*
X126898967Y-151603823D02*
G01*
X126923214Y-151608646D01*
X126968893Y-151627567D01*
X127010003Y-151655036D01*
X127044964Y-151689997D01*
X127072433Y-151731107D01*
X127091354Y-151776786D01*
X127091354Y-151776787D01*
X127100962Y-151825087D01*
X127103807Y-151834466D01*
X127108428Y-151843111D01*
X127114082Y-151850000D01*
X127108427Y-151856891D01*
X127103807Y-151865535D01*
X127100962Y-151874913D01*
X127091354Y-151923214D01*
X127072433Y-151968893D01*
X127044964Y-152010003D01*
X127010003Y-152044964D01*
X126968893Y-152072433D01*
X126923214Y-152091354D01*
X126898967Y-152096177D01*
X126874722Y-152101000D01*
X126825278Y-152101000D01*
X126801033Y-152096177D01*
X126776786Y-152091354D01*
X126731107Y-152072433D01*
X126689997Y-152044964D01*
X126655036Y-152010003D01*
X126627567Y-151968893D01*
X126608646Y-151923214D01*
X126599038Y-151874913D01*
X126596193Y-151865534D01*
X126591572Y-151856889D01*
X126585918Y-151850000D01*
X126591573Y-151843109D01*
X126596193Y-151834465D01*
X126599038Y-151825087D01*
X126608646Y-151776787D01*
X126608646Y-151776786D01*
X126627567Y-151731107D01*
X126655036Y-151689997D01*
X126689997Y-151655036D01*
X126731107Y-151627567D01*
X126776786Y-151608646D01*
X126801033Y-151603823D01*
X126825278Y-151599000D01*
X126874722Y-151599000D01*
X126898967Y-151603823D01*
X126898967Y-151603823D01*
G37*
G36*
X145098967Y-151603823D02*
G01*
X145123214Y-151608646D01*
X145168893Y-151627567D01*
X145210003Y-151655036D01*
X145244964Y-151689997D01*
X145272433Y-151731107D01*
X145291354Y-151776786D01*
X145291354Y-151776787D01*
X145300962Y-151825087D01*
X145303807Y-151834466D01*
X145308428Y-151843111D01*
X145314082Y-151850000D01*
X145308427Y-151856891D01*
X145303807Y-151865535D01*
X145300962Y-151874913D01*
X145291354Y-151923214D01*
X145272433Y-151968893D01*
X145244964Y-152010003D01*
X145210003Y-152044964D01*
X145168893Y-152072433D01*
X145123214Y-152091354D01*
X145098967Y-152096177D01*
X145074722Y-152101000D01*
X145025278Y-152101000D01*
X145001033Y-152096177D01*
X144976786Y-152091354D01*
X144931107Y-152072433D01*
X144889997Y-152044964D01*
X144855036Y-152010003D01*
X144827567Y-151968893D01*
X144808646Y-151923214D01*
X144799038Y-151874913D01*
X144796193Y-151865534D01*
X144791572Y-151856889D01*
X144785918Y-151850000D01*
X144791573Y-151843109D01*
X144796193Y-151834465D01*
X144799038Y-151825087D01*
X144808646Y-151776787D01*
X144808646Y-151776786D01*
X144827567Y-151731107D01*
X144855036Y-151689997D01*
X144889997Y-151655036D01*
X144931107Y-151627567D01*
X144976786Y-151608646D01*
X145001033Y-151603823D01*
X145025278Y-151599000D01*
X145074722Y-151599000D01*
X145098967Y-151603823D01*
X145098967Y-151603823D01*
G37*
G36*
X145698967Y-151603823D02*
G01*
X145723214Y-151608646D01*
X145768893Y-151627567D01*
X145810003Y-151655036D01*
X145844964Y-151689997D01*
X145872433Y-151731107D01*
X145891354Y-151776786D01*
X145891354Y-151776787D01*
X145900962Y-151825087D01*
X145903807Y-151834466D01*
X145908428Y-151843111D01*
X145914082Y-151850000D01*
X145908427Y-151856891D01*
X145903807Y-151865535D01*
X145900962Y-151874913D01*
X145891354Y-151923214D01*
X145872433Y-151968893D01*
X145844964Y-152010003D01*
X145810003Y-152044964D01*
X145768893Y-152072433D01*
X145723214Y-152091354D01*
X145698967Y-152096177D01*
X145674722Y-152101000D01*
X145625278Y-152101000D01*
X145601033Y-152096177D01*
X145576786Y-152091354D01*
X145531107Y-152072433D01*
X145489997Y-152044964D01*
X145455036Y-152010003D01*
X145427567Y-151968893D01*
X145408646Y-151923214D01*
X145399038Y-151874913D01*
X145396193Y-151865534D01*
X145391572Y-151856889D01*
X145385918Y-151850000D01*
X145391573Y-151843109D01*
X145396193Y-151834465D01*
X145399038Y-151825087D01*
X145408646Y-151776787D01*
X145408646Y-151776786D01*
X145427567Y-151731107D01*
X145455036Y-151689997D01*
X145489997Y-151655036D01*
X145531107Y-151627567D01*
X145576786Y-151608646D01*
X145601033Y-151603823D01*
X145625278Y-151599000D01*
X145674722Y-151599000D01*
X145698967Y-151603823D01*
X145698967Y-151603823D01*
G37*
G36*
X144498967Y-151603823D02*
G01*
X144523214Y-151608646D01*
X144568893Y-151627567D01*
X144610003Y-151655036D01*
X144644964Y-151689997D01*
X144672433Y-151731107D01*
X144691354Y-151776786D01*
X144691354Y-151776787D01*
X144700962Y-151825087D01*
X144703807Y-151834466D01*
X144708428Y-151843111D01*
X144714082Y-151850000D01*
X144708427Y-151856891D01*
X144703807Y-151865535D01*
X144700962Y-151874913D01*
X144691354Y-151923214D01*
X144672433Y-151968893D01*
X144644964Y-152010003D01*
X144610003Y-152044964D01*
X144568893Y-152072433D01*
X144523214Y-152091354D01*
X144498967Y-152096177D01*
X144474722Y-152101000D01*
X144425278Y-152101000D01*
X144401033Y-152096177D01*
X144376786Y-152091354D01*
X144331107Y-152072433D01*
X144289997Y-152044964D01*
X144255036Y-152010003D01*
X144227567Y-151968893D01*
X144208646Y-151923214D01*
X144199038Y-151874913D01*
X144196193Y-151865534D01*
X144191572Y-151856889D01*
X144185918Y-151850000D01*
X144191573Y-151843109D01*
X144196193Y-151834465D01*
X144199038Y-151825087D01*
X144208646Y-151776787D01*
X144208646Y-151776786D01*
X144227567Y-151731107D01*
X144255036Y-151689997D01*
X144289997Y-151655036D01*
X144331107Y-151627567D01*
X144376786Y-151608646D01*
X144401033Y-151603823D01*
X144425278Y-151599000D01*
X144474722Y-151599000D01*
X144498967Y-151603823D01*
X144498967Y-151603823D01*
G37*
G36*
X168098967Y-151603823D02*
G01*
X168123214Y-151608646D01*
X168168893Y-151627567D01*
X168210003Y-151655036D01*
X168244964Y-151689997D01*
X168272433Y-151731107D01*
X168291354Y-151776786D01*
X168301000Y-151825279D01*
X168301000Y-151874721D01*
X168291354Y-151923214D01*
X168272433Y-151968893D01*
X168244964Y-152010003D01*
X168210003Y-152044964D01*
X168168893Y-152072433D01*
X168123214Y-152091354D01*
X168098967Y-152096177D01*
X168074722Y-152101000D01*
X168025278Y-152101000D01*
X168001033Y-152096177D01*
X167976786Y-152091354D01*
X167931107Y-152072433D01*
X167889997Y-152044964D01*
X167855036Y-152010003D01*
X167827567Y-151968893D01*
X167808646Y-151923214D01*
X167799038Y-151874913D01*
X167796193Y-151865534D01*
X167791572Y-151856889D01*
X167785918Y-151850000D01*
X167791573Y-151843109D01*
X167796193Y-151834465D01*
X167799038Y-151825087D01*
X167808646Y-151776787D01*
X167808646Y-151776786D01*
X167827567Y-151731107D01*
X167855036Y-151689997D01*
X167889997Y-151655036D01*
X167931107Y-151627567D01*
X167976786Y-151608646D01*
X168001033Y-151603823D01*
X168025278Y-151599000D01*
X168074722Y-151599000D01*
X168098967Y-151603823D01*
X168098967Y-151603823D01*
G37*
G36*
X188098967Y-151603823D02*
G01*
X188123214Y-151608646D01*
X188168893Y-151627567D01*
X188210003Y-151655036D01*
X188244964Y-151689997D01*
X188272433Y-151731107D01*
X188291354Y-151776786D01*
X188301000Y-151825279D01*
X188301000Y-151874721D01*
X188291354Y-151923214D01*
X188272433Y-151968893D01*
X188244964Y-152010003D01*
X188210003Y-152044964D01*
X188168893Y-152072433D01*
X188123214Y-152091354D01*
X188098967Y-152096177D01*
X188074722Y-152101000D01*
X188025278Y-152101000D01*
X188001033Y-152096177D01*
X187976786Y-152091354D01*
X187931107Y-152072433D01*
X187889997Y-152044964D01*
X187855036Y-152010003D01*
X187827567Y-151968893D01*
X187808646Y-151923214D01*
X187799038Y-151874913D01*
X187796193Y-151865534D01*
X187791572Y-151856889D01*
X187785918Y-151850000D01*
X187791573Y-151843109D01*
X187796193Y-151834465D01*
X187799038Y-151825087D01*
X187808646Y-151776787D01*
X187808646Y-151776786D01*
X187827567Y-151731107D01*
X187855036Y-151689997D01*
X187889997Y-151655036D01*
X187931107Y-151627567D01*
X187976786Y-151608646D01*
X188001033Y-151603823D01*
X188025278Y-151599000D01*
X188074722Y-151599000D01*
X188098967Y-151603823D01*
X188098967Y-151603823D01*
G37*
G36*
X186898967Y-151603823D02*
G01*
X186923214Y-151608646D01*
X186968893Y-151627567D01*
X187010003Y-151655036D01*
X187044964Y-151689997D01*
X187072433Y-151731107D01*
X187091354Y-151776786D01*
X187091354Y-151776787D01*
X187100962Y-151825087D01*
X187103807Y-151834466D01*
X187108428Y-151843111D01*
X187114082Y-151850000D01*
X187108427Y-151856891D01*
X187103807Y-151865535D01*
X187100962Y-151874913D01*
X187091354Y-151923214D01*
X187072433Y-151968893D01*
X187044964Y-152010003D01*
X187010003Y-152044964D01*
X186968893Y-152072433D01*
X186923214Y-152091354D01*
X186898967Y-152096177D01*
X186874722Y-152101000D01*
X186825278Y-152101000D01*
X186801033Y-152096177D01*
X186776786Y-152091354D01*
X186731107Y-152072433D01*
X186689997Y-152044964D01*
X186655036Y-152010003D01*
X186627567Y-151968893D01*
X186608646Y-151923214D01*
X186599038Y-151874913D01*
X186596193Y-151865534D01*
X186591572Y-151856889D01*
X186585918Y-151850000D01*
X186591573Y-151843109D01*
X186596193Y-151834465D01*
X186599038Y-151825087D01*
X186608646Y-151776787D01*
X186608646Y-151776786D01*
X186627567Y-151731107D01*
X186655036Y-151689997D01*
X186689997Y-151655036D01*
X186731107Y-151627567D01*
X186776786Y-151608646D01*
X186801033Y-151603823D01*
X186825278Y-151599000D01*
X186874722Y-151599000D01*
X186898967Y-151603823D01*
X186898967Y-151603823D01*
G37*
G36*
X147498967Y-151603823D02*
G01*
X147523214Y-151608646D01*
X147568893Y-151627567D01*
X147610003Y-151655036D01*
X147644964Y-151689997D01*
X147672433Y-151731107D01*
X147691354Y-151776786D01*
X147691354Y-151776787D01*
X147700962Y-151825087D01*
X147703807Y-151834466D01*
X147708428Y-151843111D01*
X147714082Y-151850000D01*
X147708427Y-151856891D01*
X147703807Y-151865535D01*
X147700962Y-151874913D01*
X147691354Y-151923214D01*
X147672433Y-151968893D01*
X147644964Y-152010003D01*
X147610003Y-152044964D01*
X147568893Y-152072433D01*
X147523214Y-152091354D01*
X147498967Y-152096177D01*
X147474722Y-152101000D01*
X147425278Y-152101000D01*
X147401033Y-152096177D01*
X147376786Y-152091354D01*
X147331107Y-152072433D01*
X147289997Y-152044964D01*
X147255036Y-152010003D01*
X147227567Y-151968893D01*
X147208646Y-151923214D01*
X147199038Y-151874913D01*
X147196193Y-151865534D01*
X147191572Y-151856889D01*
X147185918Y-151850000D01*
X147191573Y-151843109D01*
X147196193Y-151834465D01*
X147199038Y-151825087D01*
X147208646Y-151776787D01*
X147208646Y-151776786D01*
X147227567Y-151731107D01*
X147255036Y-151689997D01*
X147289997Y-151655036D01*
X147331107Y-151627567D01*
X147376786Y-151608646D01*
X147401033Y-151603823D01*
X147425278Y-151599000D01*
X147474722Y-151599000D01*
X147498967Y-151603823D01*
X147498967Y-151603823D01*
G37*
G36*
X148098967Y-151603823D02*
G01*
X148123214Y-151608646D01*
X148168893Y-151627567D01*
X148210003Y-151655036D01*
X148244964Y-151689997D01*
X148272433Y-151731107D01*
X148291354Y-151776786D01*
X148301000Y-151825279D01*
X148301000Y-151874721D01*
X148291354Y-151923214D01*
X148272433Y-151968893D01*
X148244964Y-152010003D01*
X148210003Y-152044964D01*
X148168893Y-152072433D01*
X148123214Y-152091354D01*
X148098967Y-152096177D01*
X148074722Y-152101000D01*
X148025278Y-152101000D01*
X148001033Y-152096177D01*
X147976786Y-152091354D01*
X147931107Y-152072433D01*
X147889997Y-152044964D01*
X147855036Y-152010003D01*
X147827567Y-151968893D01*
X147808646Y-151923214D01*
X147799038Y-151874913D01*
X147796193Y-151865534D01*
X147791572Y-151856889D01*
X147785918Y-151850000D01*
X147791573Y-151843109D01*
X147796193Y-151834465D01*
X147799038Y-151825087D01*
X147808646Y-151776787D01*
X147808646Y-151776786D01*
X147827567Y-151731107D01*
X147855036Y-151689997D01*
X147889997Y-151655036D01*
X147931107Y-151627567D01*
X147976786Y-151608646D01*
X148001033Y-151603823D01*
X148025278Y-151599000D01*
X148074722Y-151599000D01*
X148098967Y-151603823D01*
X148098967Y-151603823D01*
G37*
G36*
X146898967Y-151603823D02*
G01*
X146923214Y-151608646D01*
X146968893Y-151627567D01*
X147010003Y-151655036D01*
X147044964Y-151689997D01*
X147072433Y-151731107D01*
X147091354Y-151776786D01*
X147091354Y-151776787D01*
X147100962Y-151825087D01*
X147103807Y-151834466D01*
X147108428Y-151843111D01*
X147114082Y-151850000D01*
X147108427Y-151856891D01*
X147103807Y-151865535D01*
X147100962Y-151874913D01*
X147091354Y-151923214D01*
X147072433Y-151968893D01*
X147044964Y-152010003D01*
X147010003Y-152044964D01*
X146968893Y-152072433D01*
X146923214Y-152091354D01*
X146898967Y-152096177D01*
X146874722Y-152101000D01*
X146825278Y-152101000D01*
X146801033Y-152096177D01*
X146776786Y-152091354D01*
X146731107Y-152072433D01*
X146689997Y-152044964D01*
X146655036Y-152010003D01*
X146627567Y-151968893D01*
X146608646Y-151923214D01*
X146599038Y-151874913D01*
X146596193Y-151865534D01*
X146591572Y-151856889D01*
X146585918Y-151850000D01*
X146591573Y-151843109D01*
X146596193Y-151834465D01*
X146599038Y-151825087D01*
X146608646Y-151776787D01*
X146608646Y-151776786D01*
X146627567Y-151731107D01*
X146655036Y-151689997D01*
X146689997Y-151655036D01*
X146731107Y-151627567D01*
X146776786Y-151608646D01*
X146801033Y-151603823D01*
X146825278Y-151599000D01*
X146874722Y-151599000D01*
X146898967Y-151603823D01*
X146898967Y-151603823D01*
G37*
G36*
X165098967Y-151603823D02*
G01*
X165123214Y-151608646D01*
X165168893Y-151627567D01*
X165210003Y-151655036D01*
X165244964Y-151689997D01*
X165272433Y-151731107D01*
X165291354Y-151776786D01*
X165291354Y-151776787D01*
X165300962Y-151825087D01*
X165303807Y-151834466D01*
X165308428Y-151843111D01*
X165314082Y-151850000D01*
X165308427Y-151856891D01*
X165303807Y-151865535D01*
X165300962Y-151874913D01*
X165291354Y-151923214D01*
X165272433Y-151968893D01*
X165244964Y-152010003D01*
X165210003Y-152044964D01*
X165168893Y-152072433D01*
X165123214Y-152091354D01*
X165098967Y-152096177D01*
X165074722Y-152101000D01*
X165025278Y-152101000D01*
X165001033Y-152096177D01*
X164976786Y-152091354D01*
X164931107Y-152072433D01*
X164889997Y-152044964D01*
X164855036Y-152010003D01*
X164827567Y-151968893D01*
X164808646Y-151923214D01*
X164799038Y-151874913D01*
X164796193Y-151865534D01*
X164791572Y-151856889D01*
X164785918Y-151850000D01*
X164791573Y-151843109D01*
X164796193Y-151834465D01*
X164799038Y-151825087D01*
X164808646Y-151776787D01*
X164808646Y-151776786D01*
X164827567Y-151731107D01*
X164855036Y-151689997D01*
X164889997Y-151655036D01*
X164931107Y-151627567D01*
X164976786Y-151608646D01*
X165001033Y-151603823D01*
X165025278Y-151599000D01*
X165074722Y-151599000D01*
X165098967Y-151603823D01*
X165098967Y-151603823D01*
G37*
G36*
X165698967Y-151603823D02*
G01*
X165723214Y-151608646D01*
X165768893Y-151627567D01*
X165810003Y-151655036D01*
X165844964Y-151689997D01*
X165872433Y-151731107D01*
X165891354Y-151776786D01*
X165891354Y-151776787D01*
X165900962Y-151825087D01*
X165903807Y-151834466D01*
X165908428Y-151843111D01*
X165914082Y-151850000D01*
X165908427Y-151856891D01*
X165903807Y-151865535D01*
X165900962Y-151874913D01*
X165891354Y-151923214D01*
X165872433Y-151968893D01*
X165844964Y-152010003D01*
X165810003Y-152044964D01*
X165768893Y-152072433D01*
X165723214Y-152091354D01*
X165698967Y-152096177D01*
X165674722Y-152101000D01*
X165625278Y-152101000D01*
X165601033Y-152096177D01*
X165576786Y-152091354D01*
X165531107Y-152072433D01*
X165489997Y-152044964D01*
X165455036Y-152010003D01*
X165427567Y-151968893D01*
X165408646Y-151923214D01*
X165399038Y-151874913D01*
X165396193Y-151865534D01*
X165391572Y-151856889D01*
X165385918Y-151850000D01*
X165391573Y-151843109D01*
X165396193Y-151834465D01*
X165399038Y-151825087D01*
X165408646Y-151776787D01*
X165408646Y-151776786D01*
X165427567Y-151731107D01*
X165455036Y-151689997D01*
X165489997Y-151655036D01*
X165531107Y-151627567D01*
X165576786Y-151608646D01*
X165601033Y-151603823D01*
X165625278Y-151599000D01*
X165674722Y-151599000D01*
X165698967Y-151603823D01*
X165698967Y-151603823D01*
G37*
G36*
X164498967Y-151603823D02*
G01*
X164523214Y-151608646D01*
X164568893Y-151627567D01*
X164610003Y-151655036D01*
X164644964Y-151689997D01*
X164672433Y-151731107D01*
X164691354Y-151776786D01*
X164691354Y-151776787D01*
X164700962Y-151825087D01*
X164703807Y-151834466D01*
X164708428Y-151843111D01*
X164714082Y-151850000D01*
X164708427Y-151856891D01*
X164703807Y-151865535D01*
X164700962Y-151874913D01*
X164691354Y-151923214D01*
X164672433Y-151968893D01*
X164644964Y-152010003D01*
X164610003Y-152044964D01*
X164568893Y-152072433D01*
X164523214Y-152091354D01*
X164498967Y-152096177D01*
X164474722Y-152101000D01*
X164425278Y-152101000D01*
X164401033Y-152096177D01*
X164376786Y-152091354D01*
X164331107Y-152072433D01*
X164289997Y-152044964D01*
X164255036Y-152010003D01*
X164227567Y-151968893D01*
X164208646Y-151923214D01*
X164199038Y-151874913D01*
X164196193Y-151865534D01*
X164191572Y-151856889D01*
X164185918Y-151850000D01*
X164191573Y-151843109D01*
X164196193Y-151834465D01*
X164199038Y-151825087D01*
X164208646Y-151776787D01*
X164208646Y-151776786D01*
X164227567Y-151731107D01*
X164255036Y-151689997D01*
X164289997Y-151655036D01*
X164331107Y-151627567D01*
X164376786Y-151608646D01*
X164401033Y-151603823D01*
X164425278Y-151599000D01*
X164474722Y-151599000D01*
X164498967Y-151603823D01*
X164498967Y-151603823D01*
G37*
G36*
X163898967Y-151603823D02*
G01*
X163923214Y-151608646D01*
X163968893Y-151627567D01*
X164010003Y-151655036D01*
X164044964Y-151689997D01*
X164072433Y-151731107D01*
X164091354Y-151776786D01*
X164091354Y-151776787D01*
X164100962Y-151825087D01*
X164103807Y-151834466D01*
X164108428Y-151843111D01*
X164114082Y-151850000D01*
X164108427Y-151856891D01*
X164103807Y-151865535D01*
X164100962Y-151874913D01*
X164091354Y-151923214D01*
X164072433Y-151968893D01*
X164044964Y-152010003D01*
X164010003Y-152044964D01*
X163968893Y-152072433D01*
X163923214Y-152091354D01*
X163898967Y-152096177D01*
X163874722Y-152101000D01*
X163825278Y-152101000D01*
X163801033Y-152096177D01*
X163776786Y-152091354D01*
X163731107Y-152072433D01*
X163689997Y-152044964D01*
X163655036Y-152010003D01*
X163627567Y-151968893D01*
X163608646Y-151923214D01*
X163599000Y-151874721D01*
X163599000Y-151825279D01*
X163608646Y-151776786D01*
X163627567Y-151731107D01*
X163655036Y-151689997D01*
X163689997Y-151655036D01*
X163731107Y-151627567D01*
X163776786Y-151608646D01*
X163801033Y-151603823D01*
X163825278Y-151599000D01*
X163874722Y-151599000D01*
X163898967Y-151603823D01*
X163898967Y-151603823D01*
G37*
G36*
X166298967Y-151603823D02*
G01*
X166323214Y-151608646D01*
X166368893Y-151627567D01*
X166410003Y-151655036D01*
X166444964Y-151689997D01*
X166472433Y-151731107D01*
X166491354Y-151776786D01*
X166491354Y-151776787D01*
X166500962Y-151825087D01*
X166503807Y-151834466D01*
X166508428Y-151843111D01*
X166514082Y-151850000D01*
X166508427Y-151856891D01*
X166503807Y-151865535D01*
X166500962Y-151874913D01*
X166491354Y-151923214D01*
X166472433Y-151968893D01*
X166444964Y-152010003D01*
X166410003Y-152044964D01*
X166368893Y-152072433D01*
X166323214Y-152091354D01*
X166298967Y-152096177D01*
X166274722Y-152101000D01*
X166225278Y-152101000D01*
X166201033Y-152096177D01*
X166176786Y-152091354D01*
X166131107Y-152072433D01*
X166089997Y-152044964D01*
X166055036Y-152010003D01*
X166027567Y-151968893D01*
X166008646Y-151923214D01*
X165999038Y-151874913D01*
X165996193Y-151865534D01*
X165991572Y-151856889D01*
X165985918Y-151850000D01*
X165991573Y-151843109D01*
X165996193Y-151834465D01*
X165999038Y-151825087D01*
X166008646Y-151776787D01*
X166008646Y-151776786D01*
X166027567Y-151731107D01*
X166055036Y-151689997D01*
X166089997Y-151655036D01*
X166131107Y-151627567D01*
X166176786Y-151608646D01*
X166201033Y-151603823D01*
X166225278Y-151599000D01*
X166274722Y-151599000D01*
X166298967Y-151603823D01*
X166298967Y-151603823D01*
G37*
G36*
X143898967Y-151603823D02*
G01*
X143923214Y-151608646D01*
X143968893Y-151627567D01*
X144010003Y-151655036D01*
X144044964Y-151689997D01*
X144072433Y-151731107D01*
X144091354Y-151776786D01*
X144091354Y-151776787D01*
X144100962Y-151825087D01*
X144103807Y-151834466D01*
X144108428Y-151843111D01*
X144114082Y-151850000D01*
X144108427Y-151856891D01*
X144103807Y-151865535D01*
X144100962Y-151874913D01*
X144091354Y-151923214D01*
X144072433Y-151968893D01*
X144044964Y-152010003D01*
X144010003Y-152044964D01*
X143968893Y-152072433D01*
X143923214Y-152091354D01*
X143898967Y-152096177D01*
X143874722Y-152101000D01*
X143825278Y-152101000D01*
X143801033Y-152096177D01*
X143776786Y-152091354D01*
X143731107Y-152072433D01*
X143689997Y-152044964D01*
X143655036Y-152010003D01*
X143627567Y-151968893D01*
X143608646Y-151923214D01*
X143599000Y-151874721D01*
X143599000Y-151825279D01*
X143608646Y-151776786D01*
X143627567Y-151731107D01*
X143655036Y-151689997D01*
X143689997Y-151655036D01*
X143731107Y-151627567D01*
X143776786Y-151608646D01*
X143801033Y-151603823D01*
X143825278Y-151599000D01*
X143874722Y-151599000D01*
X143898967Y-151603823D01*
X143898967Y-151603823D01*
G37*
G36*
X166898967Y-151603823D02*
G01*
X166923214Y-151608646D01*
X166968893Y-151627567D01*
X167010003Y-151655036D01*
X167044964Y-151689997D01*
X167072433Y-151731107D01*
X167091354Y-151776786D01*
X167091354Y-151776787D01*
X167100962Y-151825087D01*
X167103807Y-151834466D01*
X167108428Y-151843111D01*
X167114082Y-151850000D01*
X167108427Y-151856891D01*
X167103807Y-151865535D01*
X167100962Y-151874913D01*
X167091354Y-151923214D01*
X167072433Y-151968893D01*
X167044964Y-152010003D01*
X167010003Y-152044964D01*
X166968893Y-152072433D01*
X166923214Y-152091354D01*
X166898967Y-152096177D01*
X166874722Y-152101000D01*
X166825278Y-152101000D01*
X166801033Y-152096177D01*
X166776786Y-152091354D01*
X166731107Y-152072433D01*
X166689997Y-152044964D01*
X166655036Y-152010003D01*
X166627567Y-151968893D01*
X166608646Y-151923214D01*
X166599038Y-151874913D01*
X166596193Y-151865534D01*
X166591572Y-151856889D01*
X166585918Y-151850000D01*
X166591573Y-151843109D01*
X166596193Y-151834465D01*
X166599038Y-151825087D01*
X166608646Y-151776787D01*
X166608646Y-151776786D01*
X166627567Y-151731107D01*
X166655036Y-151689997D01*
X166689997Y-151655036D01*
X166731107Y-151627567D01*
X166776786Y-151608646D01*
X166801033Y-151603823D01*
X166825278Y-151599000D01*
X166874722Y-151599000D01*
X166898967Y-151603823D01*
X166898967Y-151603823D01*
G37*
G36*
X185098967Y-151603823D02*
G01*
X185123214Y-151608646D01*
X185168893Y-151627567D01*
X185210003Y-151655036D01*
X185244964Y-151689997D01*
X185272433Y-151731107D01*
X185291354Y-151776786D01*
X185291354Y-151776787D01*
X185300962Y-151825087D01*
X185303807Y-151834466D01*
X185308428Y-151843111D01*
X185314082Y-151850000D01*
X185308427Y-151856891D01*
X185303807Y-151865535D01*
X185300962Y-151874913D01*
X185291354Y-151923214D01*
X185272433Y-151968893D01*
X185244964Y-152010003D01*
X185210003Y-152044964D01*
X185168893Y-152072433D01*
X185123214Y-152091354D01*
X185098967Y-152096177D01*
X185074722Y-152101000D01*
X185025278Y-152101000D01*
X185001033Y-152096177D01*
X184976786Y-152091354D01*
X184931107Y-152072433D01*
X184889997Y-152044964D01*
X184855036Y-152010003D01*
X184827567Y-151968893D01*
X184808646Y-151923214D01*
X184799038Y-151874913D01*
X184796193Y-151865534D01*
X184791572Y-151856889D01*
X184785918Y-151850000D01*
X184791573Y-151843109D01*
X184796193Y-151834465D01*
X184799038Y-151825087D01*
X184808646Y-151776787D01*
X184808646Y-151776786D01*
X184827567Y-151731107D01*
X184855036Y-151689997D01*
X184889997Y-151655036D01*
X184931107Y-151627567D01*
X184976786Y-151608646D01*
X185001033Y-151603823D01*
X185025278Y-151599000D01*
X185074722Y-151599000D01*
X185098967Y-151603823D01*
X185098967Y-151603823D01*
G37*
G36*
X185698967Y-151603823D02*
G01*
X185723214Y-151608646D01*
X185768893Y-151627567D01*
X185810003Y-151655036D01*
X185844964Y-151689997D01*
X185872433Y-151731107D01*
X185891354Y-151776786D01*
X185891354Y-151776787D01*
X185900962Y-151825087D01*
X185903807Y-151834466D01*
X185908428Y-151843111D01*
X185914082Y-151850000D01*
X185908427Y-151856891D01*
X185903807Y-151865535D01*
X185900962Y-151874913D01*
X185891354Y-151923214D01*
X185872433Y-151968893D01*
X185844964Y-152010003D01*
X185810003Y-152044964D01*
X185768893Y-152072433D01*
X185723214Y-152091354D01*
X185698967Y-152096177D01*
X185674722Y-152101000D01*
X185625278Y-152101000D01*
X185601033Y-152096177D01*
X185576786Y-152091354D01*
X185531107Y-152072433D01*
X185489997Y-152044964D01*
X185455036Y-152010003D01*
X185427567Y-151968893D01*
X185408646Y-151923214D01*
X185399038Y-151874913D01*
X185396193Y-151865534D01*
X185391572Y-151856889D01*
X185385918Y-151850000D01*
X185391573Y-151843109D01*
X185396193Y-151834465D01*
X185399038Y-151825087D01*
X185408646Y-151776787D01*
X185408646Y-151776786D01*
X185427567Y-151731107D01*
X185455036Y-151689997D01*
X185489997Y-151655036D01*
X185531107Y-151627567D01*
X185576786Y-151608646D01*
X185601033Y-151603823D01*
X185625278Y-151599000D01*
X185674722Y-151599000D01*
X185698967Y-151603823D01*
X185698967Y-151603823D01*
G37*
G36*
X184498967Y-151603823D02*
G01*
X184523214Y-151608646D01*
X184568893Y-151627567D01*
X184610003Y-151655036D01*
X184644964Y-151689997D01*
X184672433Y-151731107D01*
X184691354Y-151776786D01*
X184691354Y-151776787D01*
X184700962Y-151825087D01*
X184703807Y-151834466D01*
X184708428Y-151843111D01*
X184714082Y-151850000D01*
X184708427Y-151856891D01*
X184703807Y-151865535D01*
X184700962Y-151874913D01*
X184691354Y-151923214D01*
X184672433Y-151968893D01*
X184644964Y-152010003D01*
X184610003Y-152044964D01*
X184568893Y-152072433D01*
X184523214Y-152091354D01*
X184498967Y-152096177D01*
X184474722Y-152101000D01*
X184425278Y-152101000D01*
X184401033Y-152096177D01*
X184376786Y-152091354D01*
X184331107Y-152072433D01*
X184289997Y-152044964D01*
X184255036Y-152010003D01*
X184227567Y-151968893D01*
X184208646Y-151923214D01*
X184199038Y-151874913D01*
X184196193Y-151865534D01*
X184191572Y-151856889D01*
X184185918Y-151850000D01*
X184191573Y-151843109D01*
X184196193Y-151834465D01*
X184199038Y-151825087D01*
X184208646Y-151776787D01*
X184208646Y-151776786D01*
X184227567Y-151731107D01*
X184255036Y-151689997D01*
X184289997Y-151655036D01*
X184331107Y-151627567D01*
X184376786Y-151608646D01*
X184401033Y-151603823D01*
X184425278Y-151599000D01*
X184474722Y-151599000D01*
X184498967Y-151603823D01*
X184498967Y-151603823D01*
G37*
G36*
X183898967Y-151603823D02*
G01*
X183923214Y-151608646D01*
X183968893Y-151627567D01*
X184010003Y-151655036D01*
X184044964Y-151689997D01*
X184072433Y-151731107D01*
X184091354Y-151776786D01*
X184091354Y-151776787D01*
X184100962Y-151825087D01*
X184103807Y-151834466D01*
X184108428Y-151843111D01*
X184114082Y-151850000D01*
X184108427Y-151856891D01*
X184103807Y-151865535D01*
X184100962Y-151874913D01*
X184091354Y-151923214D01*
X184072433Y-151968893D01*
X184044964Y-152010003D01*
X184010003Y-152044964D01*
X183968893Y-152072433D01*
X183923214Y-152091354D01*
X183898967Y-152096177D01*
X183874722Y-152101000D01*
X183825278Y-152101000D01*
X183801033Y-152096177D01*
X183776786Y-152091354D01*
X183731107Y-152072433D01*
X183689997Y-152044964D01*
X183655036Y-152010003D01*
X183627567Y-151968893D01*
X183608646Y-151923214D01*
X183599000Y-151874721D01*
X183599000Y-151825279D01*
X183608646Y-151776786D01*
X183627567Y-151731107D01*
X183655036Y-151689997D01*
X183689997Y-151655036D01*
X183731107Y-151627567D01*
X183776786Y-151608646D01*
X183801033Y-151603823D01*
X183825278Y-151599000D01*
X183874722Y-151599000D01*
X183898967Y-151603823D01*
X183898967Y-151603823D01*
G37*
G36*
X186298967Y-151603823D02*
G01*
X186323214Y-151608646D01*
X186368893Y-151627567D01*
X186410003Y-151655036D01*
X186444964Y-151689997D01*
X186472433Y-151731107D01*
X186491354Y-151776786D01*
X186491354Y-151776787D01*
X186500962Y-151825087D01*
X186503807Y-151834466D01*
X186508428Y-151843111D01*
X186514082Y-151850000D01*
X186508427Y-151856891D01*
X186503807Y-151865535D01*
X186500962Y-151874913D01*
X186491354Y-151923214D01*
X186472433Y-151968893D01*
X186444964Y-152010003D01*
X186410003Y-152044964D01*
X186368893Y-152072433D01*
X186323214Y-152091354D01*
X186298967Y-152096177D01*
X186274722Y-152101000D01*
X186225278Y-152101000D01*
X186201033Y-152096177D01*
X186176786Y-152091354D01*
X186131107Y-152072433D01*
X186089997Y-152044964D01*
X186055036Y-152010003D01*
X186027567Y-151968893D01*
X186008646Y-151923214D01*
X185999038Y-151874913D01*
X185996193Y-151865534D01*
X185991572Y-151856889D01*
X185985918Y-151850000D01*
X185991573Y-151843109D01*
X185996193Y-151834465D01*
X185999038Y-151825087D01*
X186008646Y-151776787D01*
X186008646Y-151776786D01*
X186027567Y-151731107D01*
X186055036Y-151689997D01*
X186089997Y-151655036D01*
X186131107Y-151627567D01*
X186176786Y-151608646D01*
X186201033Y-151603823D01*
X186225278Y-151599000D01*
X186274722Y-151599000D01*
X186298967Y-151603823D01*
X186298967Y-151603823D01*
G37*
G36*
X187498967Y-151603823D02*
G01*
X187523214Y-151608646D01*
X187568893Y-151627567D01*
X187610003Y-151655036D01*
X187644964Y-151689997D01*
X187672433Y-151731107D01*
X187691354Y-151776786D01*
X187691354Y-151776787D01*
X187700962Y-151825087D01*
X187703807Y-151834466D01*
X187708428Y-151843111D01*
X187714082Y-151850000D01*
X187708427Y-151856891D01*
X187703807Y-151865535D01*
X187700962Y-151874913D01*
X187691354Y-151923214D01*
X187672433Y-151968893D01*
X187644964Y-152010003D01*
X187610003Y-152044964D01*
X187568893Y-152072433D01*
X187523214Y-152091354D01*
X187498967Y-152096177D01*
X187474722Y-152101000D01*
X187425278Y-152101000D01*
X187401033Y-152096177D01*
X187376786Y-152091354D01*
X187331107Y-152072433D01*
X187289997Y-152044964D01*
X187255036Y-152010003D01*
X187227567Y-151968893D01*
X187208646Y-151923214D01*
X187199038Y-151874913D01*
X187196193Y-151865534D01*
X187191572Y-151856889D01*
X187185918Y-151850000D01*
X187191573Y-151843109D01*
X187196193Y-151834465D01*
X187199038Y-151825087D01*
X187208646Y-151776787D01*
X187208646Y-151776786D01*
X187227567Y-151731107D01*
X187255036Y-151689997D01*
X187289997Y-151655036D01*
X187331107Y-151627567D01*
X187376786Y-151608646D01*
X187401033Y-151603823D01*
X187425278Y-151599000D01*
X187474722Y-151599000D01*
X187498967Y-151603823D01*
X187498967Y-151603823D01*
G37*
G36*
X167498967Y-151603823D02*
G01*
X167523214Y-151608646D01*
X167568893Y-151627567D01*
X167610003Y-151655036D01*
X167644964Y-151689997D01*
X167672433Y-151731107D01*
X167691354Y-151776786D01*
X167691354Y-151776787D01*
X167700962Y-151825087D01*
X167703807Y-151834466D01*
X167708428Y-151843111D01*
X167714082Y-151850000D01*
X167708427Y-151856891D01*
X167703807Y-151865535D01*
X167700962Y-151874913D01*
X167691354Y-151923214D01*
X167672433Y-151968893D01*
X167644964Y-152010003D01*
X167610003Y-152044964D01*
X167568893Y-152072433D01*
X167523214Y-152091354D01*
X167498967Y-152096177D01*
X167474722Y-152101000D01*
X167425278Y-152101000D01*
X167401033Y-152096177D01*
X167376786Y-152091354D01*
X167331107Y-152072433D01*
X167289997Y-152044964D01*
X167255036Y-152010003D01*
X167227567Y-151968893D01*
X167208646Y-151923214D01*
X167199038Y-151874913D01*
X167196193Y-151865534D01*
X167191572Y-151856889D01*
X167185918Y-151850000D01*
X167191573Y-151843109D01*
X167196193Y-151834465D01*
X167199038Y-151825087D01*
X167208646Y-151776787D01*
X167208646Y-151776786D01*
X167227567Y-151731107D01*
X167255036Y-151689997D01*
X167289997Y-151655036D01*
X167331107Y-151627567D01*
X167376786Y-151608646D01*
X167401033Y-151603823D01*
X167425278Y-151599000D01*
X167474722Y-151599000D01*
X167498967Y-151603823D01*
X167498967Y-151603823D01*
G37*
G36*
X149111000Y-128406000D02*
G01*
X148009000Y-128406000D01*
X148009000Y-125724000D01*
X149111000Y-125724000D01*
X149111000Y-128406000D01*
X149111000Y-128406000D01*
G37*
G36*
X183111000Y-128406000D02*
G01*
X182009000Y-128406000D01*
X182009000Y-125724000D01*
X183111000Y-125724000D01*
X183111000Y-128406000D01*
X183111000Y-128406000D01*
G37*
G36*
X145111000Y-128406000D02*
G01*
X144009000Y-128406000D01*
X144009000Y-125724000D01*
X145111000Y-125724000D01*
X145111000Y-128406000D01*
X145111000Y-128406000D01*
G37*
G36*
X143111000Y-128406000D02*
G01*
X142009000Y-128406000D01*
X142009000Y-125724000D01*
X143111000Y-125724000D01*
X143111000Y-128406000D01*
X143111000Y-128406000D01*
G37*
G36*
X107111000Y-128406000D02*
G01*
X106009000Y-128406000D01*
X106009000Y-125724000D01*
X107111000Y-125724000D01*
X107111000Y-128406000D01*
X107111000Y-128406000D01*
G37*
G36*
X169111000Y-128406000D02*
G01*
X168009000Y-128406000D01*
X168009000Y-125724000D01*
X169111000Y-125724000D01*
X169111000Y-128406000D01*
X169111000Y-128406000D01*
G37*
G36*
X167111000Y-128406000D02*
G01*
X166009000Y-128406000D01*
X166009000Y-125724000D01*
X167111000Y-125724000D01*
X167111000Y-128406000D01*
X167111000Y-128406000D01*
G37*
G36*
X165111000Y-128406000D02*
G01*
X164009000Y-128406000D01*
X164009000Y-125724000D01*
X165111000Y-125724000D01*
X165111000Y-128406000D01*
X165111000Y-128406000D01*
G37*
G36*
X163111000Y-128406000D02*
G01*
X162009000Y-128406000D01*
X162009000Y-125724000D01*
X163111000Y-125724000D01*
X163111000Y-128406000D01*
X163111000Y-128406000D01*
G37*
G36*
X187111000Y-128406000D02*
G01*
X186009000Y-128406000D01*
X186009000Y-125724000D01*
X187111000Y-125724000D01*
X187111000Y-128406000D01*
X187111000Y-128406000D01*
G37*
G36*
X125111000Y-128406000D02*
G01*
X124009000Y-128406000D01*
X124009000Y-125724000D01*
X125111000Y-125724000D01*
X125111000Y-128406000D01*
X125111000Y-128406000D01*
G37*
G36*
X127111000Y-128406000D02*
G01*
X126009000Y-128406000D01*
X126009000Y-125724000D01*
X127111000Y-125724000D01*
X127111000Y-128406000D01*
X127111000Y-128406000D01*
G37*
G36*
X129111000Y-128406000D02*
G01*
X128009000Y-128406000D01*
X128009000Y-125724000D01*
X129111000Y-125724000D01*
X129111000Y-128406000D01*
X129111000Y-128406000D01*
G37*
G36*
X109111000Y-128406000D02*
G01*
X108009000Y-128406000D01*
X108009000Y-125724000D01*
X109111000Y-125724000D01*
X109111000Y-128406000D01*
X109111000Y-128406000D01*
G37*
G36*
X105111000Y-128406000D02*
G01*
X104009000Y-128406000D01*
X104009000Y-125724000D01*
X105111000Y-125724000D01*
X105111000Y-128406000D01*
X105111000Y-128406000D01*
G37*
G36*
X103111000Y-128406000D02*
G01*
X102009000Y-128406000D01*
X102009000Y-125724000D01*
X103111000Y-125724000D01*
X103111000Y-128406000D01*
X103111000Y-128406000D01*
G37*
G36*
X147111000Y-128406000D02*
G01*
X146009000Y-128406000D01*
X146009000Y-125724000D01*
X147111000Y-125724000D01*
X147111000Y-128406000D01*
X147111000Y-128406000D01*
G37*
G36*
X185111000Y-128406000D02*
G01*
X184009000Y-128406000D01*
X184009000Y-125724000D01*
X185111000Y-125724000D01*
X185111000Y-128406000D01*
X185111000Y-128406000D01*
G37*
G36*
X189111000Y-128406000D02*
G01*
X188009000Y-128406000D01*
X188009000Y-125724000D01*
X189111000Y-125724000D01*
X189111000Y-128406000D01*
X189111000Y-128406000D01*
G37*
G36*
X123111000Y-128406000D02*
G01*
X122009000Y-128406000D01*
X122009000Y-125724000D01*
X123111000Y-125724000D01*
X123111000Y-128406000D01*
X123111000Y-128406000D01*
G37*
G36*
X167111000Y-124236000D02*
G01*
X166009000Y-124236000D01*
X166009000Y-121554000D01*
X167111000Y-121554000D01*
X167111000Y-124236000D01*
X167111000Y-124236000D01*
G37*
G36*
X165111000Y-124236000D02*
G01*
X164009000Y-124236000D01*
X164009000Y-121554000D01*
X165111000Y-121554000D01*
X165111000Y-124236000D01*
X165111000Y-124236000D01*
G37*
G36*
X163111000Y-124236000D02*
G01*
X162009000Y-124236000D01*
X162009000Y-121554000D01*
X163111000Y-121554000D01*
X163111000Y-124236000D01*
X163111000Y-124236000D01*
G37*
G36*
X189111000Y-124236000D02*
G01*
X188009000Y-124236000D01*
X188009000Y-121554000D01*
X189111000Y-121554000D01*
X189111000Y-124236000D01*
X189111000Y-124236000D01*
G37*
G36*
X187111000Y-124236000D02*
G01*
X186009000Y-124236000D01*
X186009000Y-121554000D01*
X187111000Y-121554000D01*
X187111000Y-124236000D01*
X187111000Y-124236000D01*
G37*
G36*
X149111000Y-124236000D02*
G01*
X148009000Y-124236000D01*
X148009000Y-121554000D01*
X149111000Y-121554000D01*
X149111000Y-124236000D01*
X149111000Y-124236000D01*
G37*
G36*
X147111000Y-124236000D02*
G01*
X146009000Y-124236000D01*
X146009000Y-121554000D01*
X147111000Y-121554000D01*
X147111000Y-124236000D01*
X147111000Y-124236000D01*
G37*
G36*
X105111000Y-124236000D02*
G01*
X104009000Y-124236000D01*
X104009000Y-121554000D01*
X105111000Y-121554000D01*
X105111000Y-124236000D01*
X105111000Y-124236000D01*
G37*
G36*
X107111000Y-124236000D02*
G01*
X106009000Y-124236000D01*
X106009000Y-121554000D01*
X107111000Y-121554000D01*
X107111000Y-124236000D01*
X107111000Y-124236000D01*
G37*
G36*
X143111000Y-124236000D02*
G01*
X142009000Y-124236000D01*
X142009000Y-121554000D01*
X143111000Y-121554000D01*
X143111000Y-124236000D01*
X143111000Y-124236000D01*
G37*
G36*
X103111000Y-124236000D02*
G01*
X102009000Y-124236000D01*
X102009000Y-121554000D01*
X103111000Y-121554000D01*
X103111000Y-124236000D01*
X103111000Y-124236000D01*
G37*
G36*
X183111000Y-124236000D02*
G01*
X182009000Y-124236000D01*
X182009000Y-121554000D01*
X183111000Y-121554000D01*
X183111000Y-124236000D01*
X183111000Y-124236000D01*
G37*
G36*
X109111000Y-124236000D02*
G01*
X108009000Y-124236000D01*
X108009000Y-121554000D01*
X109111000Y-121554000D01*
X109111000Y-124236000D01*
X109111000Y-124236000D01*
G37*
G36*
X185111000Y-124236000D02*
G01*
X184009000Y-124236000D01*
X184009000Y-121554000D01*
X185111000Y-121554000D01*
X185111000Y-124236000D01*
X185111000Y-124236000D01*
G37*
G36*
X145111000Y-124236000D02*
G01*
X144009000Y-124236000D01*
X144009000Y-121554000D01*
X145111000Y-121554000D01*
X145111000Y-124236000D01*
X145111000Y-124236000D01*
G37*
G36*
X129111000Y-124236000D02*
G01*
X128009000Y-124236000D01*
X128009000Y-121554000D01*
X129111000Y-121554000D01*
X129111000Y-124236000D01*
X129111000Y-124236000D01*
G37*
G36*
X127111000Y-124236000D02*
G01*
X126009000Y-124236000D01*
X126009000Y-121554000D01*
X127111000Y-121554000D01*
X127111000Y-124236000D01*
X127111000Y-124236000D01*
G37*
G36*
X125111000Y-124236000D02*
G01*
X124009000Y-124236000D01*
X124009000Y-121554000D01*
X125111000Y-121554000D01*
X125111000Y-124236000D01*
X125111000Y-124236000D01*
G37*
G36*
X123111000Y-124236000D02*
G01*
X122009000Y-124236000D01*
X122009000Y-121554000D01*
X123111000Y-121554000D01*
X123111000Y-124236000D01*
X123111000Y-124236000D01*
G37*
G36*
X169111000Y-124236000D02*
G01*
X168009000Y-124236000D01*
X168009000Y-121554000D01*
X169111000Y-121554000D01*
X169111000Y-124236000D01*
X169111000Y-124236000D01*
G37*
G36*
X165623214Y-109308646D02*
G01*
X165668893Y-109327567D01*
X165710003Y-109355036D01*
X165744964Y-109389997D01*
X165772433Y-109431107D01*
X165791354Y-109476786D01*
X165791354Y-109476787D01*
X165800962Y-109525087D01*
X165803807Y-109534466D01*
X165808428Y-109543111D01*
X165814082Y-109550000D01*
X165808427Y-109556891D01*
X165803807Y-109565535D01*
X165800962Y-109574913D01*
X165791354Y-109623214D01*
X165772433Y-109668893D01*
X165744964Y-109710003D01*
X165710003Y-109744964D01*
X165668893Y-109772433D01*
X165623214Y-109791354D01*
X165598967Y-109796177D01*
X165574722Y-109801000D01*
X165525278Y-109801000D01*
X165501033Y-109796177D01*
X165476786Y-109791354D01*
X165431107Y-109772433D01*
X165389997Y-109744964D01*
X165355036Y-109710003D01*
X165327567Y-109668893D01*
X165308646Y-109623214D01*
X165299038Y-109574913D01*
X165296193Y-109565534D01*
X165291572Y-109556889D01*
X165285918Y-109550000D01*
X165291573Y-109543109D01*
X165296193Y-109534465D01*
X165299038Y-109525087D01*
X165308646Y-109476787D01*
X165308646Y-109476786D01*
X165327567Y-109431107D01*
X165355036Y-109389997D01*
X165389997Y-109355036D01*
X165431107Y-109327567D01*
X165476786Y-109308646D01*
X165525278Y-109299000D01*
X165574722Y-109299000D01*
X165623214Y-109308646D01*
X165623214Y-109308646D01*
G37*
G36*
X186823214Y-109308646D02*
G01*
X186868893Y-109327567D01*
X186910003Y-109355036D01*
X186944964Y-109389997D01*
X186972433Y-109431107D01*
X186991354Y-109476786D01*
X186991354Y-109476787D01*
X187000962Y-109525087D01*
X187003807Y-109534466D01*
X187008428Y-109543111D01*
X187014082Y-109550000D01*
X187008427Y-109556891D01*
X187003807Y-109565535D01*
X187000962Y-109574913D01*
X186991354Y-109623214D01*
X186972433Y-109668893D01*
X186944964Y-109710003D01*
X186910003Y-109744964D01*
X186868893Y-109772433D01*
X186823214Y-109791354D01*
X186798967Y-109796177D01*
X186774722Y-109801000D01*
X186725278Y-109801000D01*
X186701033Y-109796177D01*
X186676786Y-109791354D01*
X186631107Y-109772433D01*
X186589997Y-109744964D01*
X186555036Y-109710003D01*
X186527567Y-109668893D01*
X186508646Y-109623214D01*
X186499038Y-109574913D01*
X186496193Y-109565534D01*
X186491572Y-109556889D01*
X186485918Y-109550000D01*
X186491573Y-109543109D01*
X186496193Y-109534465D01*
X186499038Y-109525087D01*
X186508646Y-109476787D01*
X186508646Y-109476786D01*
X186527567Y-109431107D01*
X186555036Y-109389997D01*
X186589997Y-109355036D01*
X186631107Y-109327567D01*
X186676786Y-109308646D01*
X186725278Y-109299000D01*
X186774722Y-109299000D01*
X186823214Y-109308646D01*
X186823214Y-109308646D01*
G37*
G36*
X165023214Y-109308646D02*
G01*
X165068893Y-109327567D01*
X165110003Y-109355036D01*
X165144964Y-109389997D01*
X165172433Y-109431107D01*
X165191354Y-109476786D01*
X165191354Y-109476787D01*
X165200962Y-109525087D01*
X165203807Y-109534466D01*
X165208428Y-109543111D01*
X165214082Y-109550000D01*
X165208427Y-109556891D01*
X165203807Y-109565535D01*
X165200962Y-109574913D01*
X165191354Y-109623214D01*
X165172433Y-109668893D01*
X165144964Y-109710003D01*
X165110003Y-109744964D01*
X165068893Y-109772433D01*
X165023214Y-109791354D01*
X164998967Y-109796177D01*
X164974722Y-109801000D01*
X164925278Y-109801000D01*
X164901033Y-109796177D01*
X164876786Y-109791354D01*
X164831107Y-109772433D01*
X164789997Y-109744964D01*
X164755036Y-109710003D01*
X164727567Y-109668893D01*
X164708646Y-109623214D01*
X164699038Y-109574913D01*
X164696193Y-109565534D01*
X164691572Y-109556889D01*
X164685918Y-109550000D01*
X164691573Y-109543109D01*
X164696193Y-109534465D01*
X164699038Y-109525087D01*
X164708646Y-109476787D01*
X164708646Y-109476786D01*
X164727567Y-109431107D01*
X164755036Y-109389997D01*
X164789997Y-109355036D01*
X164831107Y-109327567D01*
X164876786Y-109308646D01*
X164925278Y-109299000D01*
X164974722Y-109299000D01*
X165023214Y-109308646D01*
X165023214Y-109308646D01*
G37*
G36*
X164423214Y-109308646D02*
G01*
X164468893Y-109327567D01*
X164510003Y-109355036D01*
X164544964Y-109389997D01*
X164572433Y-109431107D01*
X164591354Y-109476786D01*
X164591354Y-109476787D01*
X164600962Y-109525087D01*
X164603807Y-109534466D01*
X164608428Y-109543111D01*
X164614082Y-109550000D01*
X164608427Y-109556891D01*
X164603807Y-109565535D01*
X164600962Y-109574913D01*
X164591354Y-109623214D01*
X164572433Y-109668893D01*
X164544964Y-109710003D01*
X164510003Y-109744964D01*
X164468893Y-109772433D01*
X164423214Y-109791354D01*
X164398967Y-109796177D01*
X164374722Y-109801000D01*
X164325278Y-109801000D01*
X164301033Y-109796177D01*
X164276786Y-109791354D01*
X164231107Y-109772433D01*
X164189997Y-109744964D01*
X164155036Y-109710003D01*
X164127567Y-109668893D01*
X164108646Y-109623214D01*
X164099038Y-109574913D01*
X164096193Y-109565534D01*
X164091572Y-109556889D01*
X164085918Y-109550000D01*
X164091573Y-109543109D01*
X164096193Y-109534465D01*
X164099038Y-109525087D01*
X164108646Y-109476787D01*
X164108646Y-109476786D01*
X164127567Y-109431107D01*
X164155036Y-109389997D01*
X164189997Y-109355036D01*
X164231107Y-109327567D01*
X164276786Y-109308646D01*
X164325278Y-109299000D01*
X164374722Y-109299000D01*
X164423214Y-109308646D01*
X164423214Y-109308646D01*
G37*
G36*
X163823214Y-109308646D02*
G01*
X163868893Y-109327567D01*
X163910003Y-109355036D01*
X163944964Y-109389997D01*
X163972433Y-109431107D01*
X163991354Y-109476786D01*
X163991354Y-109476787D01*
X164000962Y-109525087D01*
X164003807Y-109534466D01*
X164008428Y-109543111D01*
X164014082Y-109550000D01*
X164008427Y-109556891D01*
X164003807Y-109565535D01*
X164000962Y-109574913D01*
X163991354Y-109623214D01*
X163972433Y-109668893D01*
X163944964Y-109710003D01*
X163910003Y-109744964D01*
X163868893Y-109772433D01*
X163823214Y-109791354D01*
X163798967Y-109796177D01*
X163774722Y-109801000D01*
X163725278Y-109801000D01*
X163701033Y-109796177D01*
X163676786Y-109791354D01*
X163631107Y-109772433D01*
X163589997Y-109744964D01*
X163555036Y-109710003D01*
X163527567Y-109668893D01*
X163508646Y-109623214D01*
X163499000Y-109574721D01*
X163499000Y-109525279D01*
X163508646Y-109476786D01*
X163527567Y-109431107D01*
X163555036Y-109389997D01*
X163589997Y-109355036D01*
X163631107Y-109327567D01*
X163676786Y-109308646D01*
X163725278Y-109299000D01*
X163774722Y-109299000D01*
X163823214Y-109308646D01*
X163823214Y-109308646D01*
G37*
G36*
X147423214Y-109308646D02*
G01*
X147468893Y-109327567D01*
X147510003Y-109355036D01*
X147544964Y-109389997D01*
X147572433Y-109431107D01*
X147591354Y-109476786D01*
X147591354Y-109476787D01*
X147600962Y-109525087D01*
X147603807Y-109534466D01*
X147608428Y-109543111D01*
X147614082Y-109550000D01*
X147608427Y-109556891D01*
X147603807Y-109565535D01*
X147600962Y-109574913D01*
X147591354Y-109623214D01*
X147572433Y-109668893D01*
X147544964Y-109710003D01*
X147510003Y-109744964D01*
X147468893Y-109772433D01*
X147423214Y-109791354D01*
X147398967Y-109796177D01*
X147374722Y-109801000D01*
X147325278Y-109801000D01*
X147301033Y-109796177D01*
X147276786Y-109791354D01*
X147231107Y-109772433D01*
X147189997Y-109744964D01*
X147155036Y-109710003D01*
X147127567Y-109668893D01*
X147108646Y-109623214D01*
X147099038Y-109574913D01*
X147096193Y-109565534D01*
X147091572Y-109556889D01*
X147085918Y-109550000D01*
X147091573Y-109543109D01*
X147096193Y-109534465D01*
X147099038Y-109525087D01*
X147108646Y-109476787D01*
X147108646Y-109476786D01*
X147127567Y-109431107D01*
X147155036Y-109389997D01*
X147189997Y-109355036D01*
X147231107Y-109327567D01*
X147276786Y-109308646D01*
X147325278Y-109299000D01*
X147374722Y-109299000D01*
X147423214Y-109308646D01*
X147423214Y-109308646D01*
G37*
G36*
X146823214Y-109308646D02*
G01*
X146868893Y-109327567D01*
X146910003Y-109355036D01*
X146944964Y-109389997D01*
X146972433Y-109431107D01*
X146991354Y-109476786D01*
X146991354Y-109476787D01*
X147000962Y-109525087D01*
X147003807Y-109534466D01*
X147008428Y-109543111D01*
X147014082Y-109550000D01*
X147008427Y-109556891D01*
X147003807Y-109565535D01*
X147000962Y-109574913D01*
X146991354Y-109623214D01*
X146972433Y-109668893D01*
X146944964Y-109710003D01*
X146910003Y-109744964D01*
X146868893Y-109772433D01*
X146823214Y-109791354D01*
X146798967Y-109796177D01*
X146774722Y-109801000D01*
X146725278Y-109801000D01*
X146701033Y-109796177D01*
X146676786Y-109791354D01*
X146631107Y-109772433D01*
X146589997Y-109744964D01*
X146555036Y-109710003D01*
X146527567Y-109668893D01*
X146508646Y-109623214D01*
X146499038Y-109574913D01*
X146496193Y-109565534D01*
X146491572Y-109556889D01*
X146485918Y-109550000D01*
X146491573Y-109543109D01*
X146496193Y-109534465D01*
X146499038Y-109525087D01*
X146508646Y-109476787D01*
X146508646Y-109476786D01*
X146527567Y-109431107D01*
X146555036Y-109389997D01*
X146589997Y-109355036D01*
X146631107Y-109327567D01*
X146676786Y-109308646D01*
X146725278Y-109299000D01*
X146774722Y-109299000D01*
X146823214Y-109308646D01*
X146823214Y-109308646D01*
G37*
G36*
X146223214Y-109308646D02*
G01*
X146268893Y-109327567D01*
X146310003Y-109355036D01*
X146344964Y-109389997D01*
X146372433Y-109431107D01*
X146391354Y-109476786D01*
X146391354Y-109476787D01*
X146400962Y-109525087D01*
X146403807Y-109534466D01*
X146408428Y-109543111D01*
X146414082Y-109550000D01*
X146408427Y-109556891D01*
X146403807Y-109565535D01*
X146400962Y-109574913D01*
X146391354Y-109623214D01*
X146372433Y-109668893D01*
X146344964Y-109710003D01*
X146310003Y-109744964D01*
X146268893Y-109772433D01*
X146223214Y-109791354D01*
X146198967Y-109796177D01*
X146174722Y-109801000D01*
X146125278Y-109801000D01*
X146101033Y-109796177D01*
X146076786Y-109791354D01*
X146031107Y-109772433D01*
X145989997Y-109744964D01*
X145955036Y-109710003D01*
X145927567Y-109668893D01*
X145908646Y-109623214D01*
X145899038Y-109574913D01*
X145896193Y-109565534D01*
X145891572Y-109556889D01*
X145885918Y-109550000D01*
X145891573Y-109543109D01*
X145896193Y-109534465D01*
X145899038Y-109525087D01*
X145908646Y-109476787D01*
X145908646Y-109476786D01*
X145927567Y-109431107D01*
X145955036Y-109389997D01*
X145989997Y-109355036D01*
X146031107Y-109327567D01*
X146076786Y-109308646D01*
X146125278Y-109299000D01*
X146174722Y-109299000D01*
X146223214Y-109308646D01*
X146223214Y-109308646D01*
G37*
G36*
X145623214Y-109308646D02*
G01*
X145668893Y-109327567D01*
X145710003Y-109355036D01*
X145744964Y-109389997D01*
X145772433Y-109431107D01*
X145791354Y-109476786D01*
X145791354Y-109476787D01*
X145800962Y-109525087D01*
X145803807Y-109534466D01*
X145808428Y-109543111D01*
X145814082Y-109550000D01*
X145808427Y-109556891D01*
X145803807Y-109565535D01*
X145800962Y-109574913D01*
X145791354Y-109623214D01*
X145772433Y-109668893D01*
X145744964Y-109710003D01*
X145710003Y-109744964D01*
X145668893Y-109772433D01*
X145623214Y-109791354D01*
X145598967Y-109796177D01*
X145574722Y-109801000D01*
X145525278Y-109801000D01*
X145501033Y-109796177D01*
X145476786Y-109791354D01*
X145431107Y-109772433D01*
X145389997Y-109744964D01*
X145355036Y-109710003D01*
X145327567Y-109668893D01*
X145308646Y-109623214D01*
X145299038Y-109574913D01*
X145296193Y-109565534D01*
X145291572Y-109556889D01*
X145285918Y-109550000D01*
X145291573Y-109543109D01*
X145296193Y-109534465D01*
X145299038Y-109525087D01*
X145308646Y-109476787D01*
X145308646Y-109476786D01*
X145327567Y-109431107D01*
X145355036Y-109389997D01*
X145389997Y-109355036D01*
X145431107Y-109327567D01*
X145476786Y-109308646D01*
X145525278Y-109299000D01*
X145574722Y-109299000D01*
X145623214Y-109308646D01*
X145623214Y-109308646D01*
G37*
G36*
X145023214Y-109308646D02*
G01*
X145068893Y-109327567D01*
X145110003Y-109355036D01*
X145144964Y-109389997D01*
X145172433Y-109431107D01*
X145191354Y-109476786D01*
X145191354Y-109476787D01*
X145200962Y-109525087D01*
X145203807Y-109534466D01*
X145208428Y-109543111D01*
X145214082Y-109550000D01*
X145208427Y-109556891D01*
X145203807Y-109565535D01*
X145200962Y-109574913D01*
X145191354Y-109623214D01*
X145172433Y-109668893D01*
X145144964Y-109710003D01*
X145110003Y-109744964D01*
X145068893Y-109772433D01*
X145023214Y-109791354D01*
X144998967Y-109796177D01*
X144974722Y-109801000D01*
X144925278Y-109801000D01*
X144901033Y-109796177D01*
X144876786Y-109791354D01*
X144831107Y-109772433D01*
X144789997Y-109744964D01*
X144755036Y-109710003D01*
X144727567Y-109668893D01*
X144708646Y-109623214D01*
X144699038Y-109574913D01*
X144696193Y-109565534D01*
X144691572Y-109556889D01*
X144685918Y-109550000D01*
X144691573Y-109543109D01*
X144696193Y-109534465D01*
X144699038Y-109525087D01*
X144708646Y-109476787D01*
X144708646Y-109476786D01*
X144727567Y-109431107D01*
X144755036Y-109389997D01*
X144789997Y-109355036D01*
X144831107Y-109327567D01*
X144876786Y-109308646D01*
X144925278Y-109299000D01*
X144974722Y-109299000D01*
X145023214Y-109308646D01*
X145023214Y-109308646D01*
G37*
G36*
X183823214Y-109308646D02*
G01*
X183868893Y-109327567D01*
X183910003Y-109355036D01*
X183944964Y-109389997D01*
X183972433Y-109431107D01*
X183991354Y-109476786D01*
X183991354Y-109476787D01*
X184000962Y-109525087D01*
X184003807Y-109534466D01*
X184008428Y-109543111D01*
X184014082Y-109550000D01*
X184008427Y-109556891D01*
X184003807Y-109565535D01*
X184000962Y-109574913D01*
X183991354Y-109623214D01*
X183972433Y-109668893D01*
X183944964Y-109710003D01*
X183910003Y-109744964D01*
X183868893Y-109772433D01*
X183823214Y-109791354D01*
X183798967Y-109796177D01*
X183774722Y-109801000D01*
X183725278Y-109801000D01*
X183701033Y-109796177D01*
X183676786Y-109791354D01*
X183631107Y-109772433D01*
X183589997Y-109744964D01*
X183555036Y-109710003D01*
X183527567Y-109668893D01*
X183508646Y-109623214D01*
X183499000Y-109574721D01*
X183499000Y-109525279D01*
X183508646Y-109476786D01*
X183527567Y-109431107D01*
X183555036Y-109389997D01*
X183589997Y-109355036D01*
X183631107Y-109327567D01*
X183676786Y-109308646D01*
X183725278Y-109299000D01*
X183774722Y-109299000D01*
X183823214Y-109308646D01*
X183823214Y-109308646D01*
G37*
G36*
X126823214Y-109308646D02*
G01*
X126868893Y-109327567D01*
X126910003Y-109355036D01*
X126944964Y-109389997D01*
X126972433Y-109431107D01*
X126991354Y-109476786D01*
X126991354Y-109476787D01*
X127000962Y-109525087D01*
X127003807Y-109534466D01*
X127008428Y-109543111D01*
X127014082Y-109550000D01*
X127008427Y-109556891D01*
X127003807Y-109565535D01*
X127000962Y-109574913D01*
X126991354Y-109623214D01*
X126972433Y-109668893D01*
X126944964Y-109710003D01*
X126910003Y-109744964D01*
X126868893Y-109772433D01*
X126823214Y-109791354D01*
X126798967Y-109796177D01*
X126774722Y-109801000D01*
X126725278Y-109801000D01*
X126701033Y-109796177D01*
X126676786Y-109791354D01*
X126631107Y-109772433D01*
X126589997Y-109744964D01*
X126555036Y-109710003D01*
X126527567Y-109668893D01*
X126508646Y-109623214D01*
X126499038Y-109574913D01*
X126496193Y-109565534D01*
X126491572Y-109556889D01*
X126485918Y-109550000D01*
X126491573Y-109543109D01*
X126496193Y-109534465D01*
X126499038Y-109525087D01*
X126508646Y-109476787D01*
X126508646Y-109476786D01*
X126527567Y-109431107D01*
X126555036Y-109389997D01*
X126589997Y-109355036D01*
X126631107Y-109327567D01*
X126676786Y-109308646D01*
X126725278Y-109299000D01*
X126774722Y-109299000D01*
X126823214Y-109308646D01*
X126823214Y-109308646D01*
G37*
G36*
X143823214Y-109308646D02*
G01*
X143868893Y-109327567D01*
X143910003Y-109355036D01*
X143944964Y-109389997D01*
X143972433Y-109431107D01*
X143991354Y-109476786D01*
X143991354Y-109476787D01*
X144000962Y-109525087D01*
X144003807Y-109534466D01*
X144008428Y-109543111D01*
X144014082Y-109550000D01*
X144008427Y-109556891D01*
X144003807Y-109565535D01*
X144000962Y-109574913D01*
X143991354Y-109623214D01*
X143972433Y-109668893D01*
X143944964Y-109710003D01*
X143910003Y-109744964D01*
X143868893Y-109772433D01*
X143823214Y-109791354D01*
X143798967Y-109796177D01*
X143774722Y-109801000D01*
X143725278Y-109801000D01*
X143701033Y-109796177D01*
X143676786Y-109791354D01*
X143631107Y-109772433D01*
X143589997Y-109744964D01*
X143555036Y-109710003D01*
X143527567Y-109668893D01*
X143508646Y-109623214D01*
X143499000Y-109574721D01*
X143499000Y-109525279D01*
X143508646Y-109476786D01*
X143527567Y-109431107D01*
X143555036Y-109389997D01*
X143589997Y-109355036D01*
X143631107Y-109327567D01*
X143676786Y-109308646D01*
X143725278Y-109299000D01*
X143774722Y-109299000D01*
X143823214Y-109308646D01*
X143823214Y-109308646D01*
G37*
G36*
X144423214Y-109308646D02*
G01*
X144468893Y-109327567D01*
X144510003Y-109355036D01*
X144544964Y-109389997D01*
X144572433Y-109431107D01*
X144591354Y-109476786D01*
X144591354Y-109476787D01*
X144600962Y-109525087D01*
X144603807Y-109534466D01*
X144608428Y-109543111D01*
X144614082Y-109550000D01*
X144608427Y-109556891D01*
X144603807Y-109565535D01*
X144600962Y-109574913D01*
X144591354Y-109623214D01*
X144572433Y-109668893D01*
X144544964Y-109710003D01*
X144510003Y-109744964D01*
X144468893Y-109772433D01*
X144423214Y-109791354D01*
X144398967Y-109796177D01*
X144374722Y-109801000D01*
X144325278Y-109801000D01*
X144301033Y-109796177D01*
X144276786Y-109791354D01*
X144231107Y-109772433D01*
X144189997Y-109744964D01*
X144155036Y-109710003D01*
X144127567Y-109668893D01*
X144108646Y-109623214D01*
X144099038Y-109574913D01*
X144096193Y-109565534D01*
X144091572Y-109556889D01*
X144085918Y-109550000D01*
X144091573Y-109543109D01*
X144096193Y-109534465D01*
X144099038Y-109525087D01*
X144108646Y-109476787D01*
X144108646Y-109476786D01*
X144127567Y-109431107D01*
X144155036Y-109389997D01*
X144189997Y-109355036D01*
X144231107Y-109327567D01*
X144276786Y-109308646D01*
X144325278Y-109299000D01*
X144374722Y-109299000D01*
X144423214Y-109308646D01*
X144423214Y-109308646D01*
G37*
G36*
X185023214Y-109308646D02*
G01*
X185068893Y-109327567D01*
X185110003Y-109355036D01*
X185144964Y-109389997D01*
X185172433Y-109431107D01*
X185191354Y-109476786D01*
X185191354Y-109476787D01*
X185200962Y-109525087D01*
X185203807Y-109534466D01*
X185208428Y-109543111D01*
X185214082Y-109550000D01*
X185208427Y-109556891D01*
X185203807Y-109565535D01*
X185200962Y-109574913D01*
X185191354Y-109623214D01*
X185172433Y-109668893D01*
X185144964Y-109710003D01*
X185110003Y-109744964D01*
X185068893Y-109772433D01*
X185023214Y-109791354D01*
X184998967Y-109796177D01*
X184974722Y-109801000D01*
X184925278Y-109801000D01*
X184901033Y-109796177D01*
X184876786Y-109791354D01*
X184831107Y-109772433D01*
X184789997Y-109744964D01*
X184755036Y-109710003D01*
X184727567Y-109668893D01*
X184708646Y-109623214D01*
X184699038Y-109574913D01*
X184696193Y-109565534D01*
X184691572Y-109556889D01*
X184685918Y-109550000D01*
X184691573Y-109543109D01*
X184696193Y-109534465D01*
X184699038Y-109525087D01*
X184708646Y-109476787D01*
X184708646Y-109476786D01*
X184727567Y-109431107D01*
X184755036Y-109389997D01*
X184789997Y-109355036D01*
X184831107Y-109327567D01*
X184876786Y-109308646D01*
X184925278Y-109299000D01*
X184974722Y-109299000D01*
X185023214Y-109308646D01*
X185023214Y-109308646D01*
G37*
G36*
X184423214Y-109308646D02*
G01*
X184468893Y-109327567D01*
X184510003Y-109355036D01*
X184544964Y-109389997D01*
X184572433Y-109431107D01*
X184591354Y-109476786D01*
X184591354Y-109476787D01*
X184600962Y-109525087D01*
X184603807Y-109534466D01*
X184608428Y-109543111D01*
X184614082Y-109550000D01*
X184608427Y-109556891D01*
X184603807Y-109565535D01*
X184600962Y-109574913D01*
X184591354Y-109623214D01*
X184572433Y-109668893D01*
X184544964Y-109710003D01*
X184510003Y-109744964D01*
X184468893Y-109772433D01*
X184423214Y-109791354D01*
X184398967Y-109796177D01*
X184374722Y-109801000D01*
X184325278Y-109801000D01*
X184301033Y-109796177D01*
X184276786Y-109791354D01*
X184231107Y-109772433D01*
X184189997Y-109744964D01*
X184155036Y-109710003D01*
X184127567Y-109668893D01*
X184108646Y-109623214D01*
X184099038Y-109574913D01*
X184096193Y-109565534D01*
X184091572Y-109556889D01*
X184085918Y-109550000D01*
X184091573Y-109543109D01*
X184096193Y-109534465D01*
X184099038Y-109525087D01*
X184108646Y-109476787D01*
X184108646Y-109476786D01*
X184127567Y-109431107D01*
X184155036Y-109389997D01*
X184189997Y-109355036D01*
X184231107Y-109327567D01*
X184276786Y-109308646D01*
X184325278Y-109299000D01*
X184374722Y-109299000D01*
X184423214Y-109308646D01*
X184423214Y-109308646D01*
G37*
G36*
X185623214Y-109308646D02*
G01*
X185668893Y-109327567D01*
X185710003Y-109355036D01*
X185744964Y-109389997D01*
X185772433Y-109431107D01*
X185791354Y-109476786D01*
X185791354Y-109476787D01*
X185800962Y-109525087D01*
X185803807Y-109534466D01*
X185808428Y-109543111D01*
X185814082Y-109550000D01*
X185808427Y-109556891D01*
X185803807Y-109565535D01*
X185800962Y-109574913D01*
X185791354Y-109623214D01*
X185772433Y-109668893D01*
X185744964Y-109710003D01*
X185710003Y-109744964D01*
X185668893Y-109772433D01*
X185623214Y-109791354D01*
X185598967Y-109796177D01*
X185574722Y-109801000D01*
X185525278Y-109801000D01*
X185501033Y-109796177D01*
X185476786Y-109791354D01*
X185431107Y-109772433D01*
X185389997Y-109744964D01*
X185355036Y-109710003D01*
X185327567Y-109668893D01*
X185308646Y-109623214D01*
X185299038Y-109574913D01*
X185296193Y-109565534D01*
X185291572Y-109556889D01*
X185285918Y-109550000D01*
X185291573Y-109543109D01*
X185296193Y-109534465D01*
X185299038Y-109525087D01*
X185308646Y-109476787D01*
X185308646Y-109476786D01*
X185327567Y-109431107D01*
X185355036Y-109389997D01*
X185389997Y-109355036D01*
X185431107Y-109327567D01*
X185476786Y-109308646D01*
X185525278Y-109299000D01*
X185574722Y-109299000D01*
X185623214Y-109308646D01*
X185623214Y-109308646D01*
G37*
G36*
X188023214Y-109308646D02*
G01*
X188068893Y-109327567D01*
X188110003Y-109355036D01*
X188144964Y-109389997D01*
X188172433Y-109431107D01*
X188191354Y-109476786D01*
X188201000Y-109525279D01*
X188201000Y-109574721D01*
X188191354Y-109623214D01*
X188172433Y-109668893D01*
X188144964Y-109710003D01*
X188110003Y-109744964D01*
X188068893Y-109772433D01*
X188023214Y-109791354D01*
X187998967Y-109796177D01*
X187974722Y-109801000D01*
X187925278Y-109801000D01*
X187901033Y-109796177D01*
X187876786Y-109791354D01*
X187831107Y-109772433D01*
X187789997Y-109744964D01*
X187755036Y-109710003D01*
X187727567Y-109668893D01*
X187708646Y-109623214D01*
X187699038Y-109574913D01*
X187696193Y-109565534D01*
X187691572Y-109556889D01*
X187685918Y-109550000D01*
X187691573Y-109543109D01*
X187696193Y-109534465D01*
X187699038Y-109525087D01*
X187708646Y-109476787D01*
X187708646Y-109476786D01*
X187727567Y-109431107D01*
X187755036Y-109389997D01*
X187789997Y-109355036D01*
X187831107Y-109327567D01*
X187876786Y-109308646D01*
X187925278Y-109299000D01*
X187974722Y-109299000D01*
X188023214Y-109308646D01*
X188023214Y-109308646D01*
G37*
G36*
X187423214Y-109308646D02*
G01*
X187468893Y-109327567D01*
X187510003Y-109355036D01*
X187544964Y-109389997D01*
X187572433Y-109431107D01*
X187591354Y-109476786D01*
X187591354Y-109476787D01*
X187600962Y-109525087D01*
X187603807Y-109534466D01*
X187608428Y-109543111D01*
X187614082Y-109550000D01*
X187608427Y-109556891D01*
X187603807Y-109565535D01*
X187600962Y-109574913D01*
X187591354Y-109623214D01*
X187572433Y-109668893D01*
X187544964Y-109710003D01*
X187510003Y-109744964D01*
X187468893Y-109772433D01*
X187423214Y-109791354D01*
X187398967Y-109796177D01*
X187374722Y-109801000D01*
X187325278Y-109801000D01*
X187301033Y-109796177D01*
X187276786Y-109791354D01*
X187231107Y-109772433D01*
X187189997Y-109744964D01*
X187155036Y-109710003D01*
X187127567Y-109668893D01*
X187108646Y-109623214D01*
X187099038Y-109574913D01*
X187096193Y-109565534D01*
X187091572Y-109556889D01*
X187085918Y-109550000D01*
X187091573Y-109543109D01*
X187096193Y-109534465D01*
X187099038Y-109525087D01*
X187108646Y-109476787D01*
X187108646Y-109476786D01*
X187127567Y-109431107D01*
X187155036Y-109389997D01*
X187189997Y-109355036D01*
X187231107Y-109327567D01*
X187276786Y-109308646D01*
X187325278Y-109299000D01*
X187374722Y-109299000D01*
X187423214Y-109308646D01*
X187423214Y-109308646D01*
G37*
G36*
X186223214Y-109308646D02*
G01*
X186268893Y-109327567D01*
X186310003Y-109355036D01*
X186344964Y-109389997D01*
X186372433Y-109431107D01*
X186391354Y-109476786D01*
X186391354Y-109476787D01*
X186400962Y-109525087D01*
X186403807Y-109534466D01*
X186408428Y-109543111D01*
X186414082Y-109550000D01*
X186408427Y-109556891D01*
X186403807Y-109565535D01*
X186400962Y-109574913D01*
X186391354Y-109623214D01*
X186372433Y-109668893D01*
X186344964Y-109710003D01*
X186310003Y-109744964D01*
X186268893Y-109772433D01*
X186223214Y-109791354D01*
X186198967Y-109796177D01*
X186174722Y-109801000D01*
X186125278Y-109801000D01*
X186101033Y-109796177D01*
X186076786Y-109791354D01*
X186031107Y-109772433D01*
X185989997Y-109744964D01*
X185955036Y-109710003D01*
X185927567Y-109668893D01*
X185908646Y-109623214D01*
X185899038Y-109574913D01*
X185896193Y-109565534D01*
X185891572Y-109556889D01*
X185885918Y-109550000D01*
X185891573Y-109543109D01*
X185896193Y-109534465D01*
X185899038Y-109525087D01*
X185908646Y-109476787D01*
X185908646Y-109476786D01*
X185927567Y-109431107D01*
X185955036Y-109389997D01*
X185989997Y-109355036D01*
X186031107Y-109327567D01*
X186076786Y-109308646D01*
X186125278Y-109299000D01*
X186174722Y-109299000D01*
X186223214Y-109308646D01*
X186223214Y-109308646D01*
G37*
G36*
X106223214Y-109308646D02*
G01*
X106268893Y-109327567D01*
X106310003Y-109355036D01*
X106344964Y-109389997D01*
X106372433Y-109431107D01*
X106391354Y-109476786D01*
X106391354Y-109476787D01*
X106400962Y-109525087D01*
X106403807Y-109534466D01*
X106408428Y-109543111D01*
X106414082Y-109550000D01*
X106408427Y-109556891D01*
X106403807Y-109565535D01*
X106400962Y-109574913D01*
X106391354Y-109623214D01*
X106372433Y-109668893D01*
X106344964Y-109710003D01*
X106310003Y-109744964D01*
X106268893Y-109772433D01*
X106223214Y-109791354D01*
X106198967Y-109796177D01*
X106174722Y-109801000D01*
X106125278Y-109801000D01*
X106101033Y-109796177D01*
X106076786Y-109791354D01*
X106031107Y-109772433D01*
X105989997Y-109744964D01*
X105955036Y-109710003D01*
X105927567Y-109668893D01*
X105908646Y-109623214D01*
X105899038Y-109574913D01*
X105896193Y-109565534D01*
X105891572Y-109556889D01*
X105885918Y-109550000D01*
X105891573Y-109543109D01*
X105896193Y-109534465D01*
X105899038Y-109525087D01*
X105908646Y-109476787D01*
X105908646Y-109476786D01*
X105927567Y-109431107D01*
X105955036Y-109389997D01*
X105989997Y-109355036D01*
X106031107Y-109327567D01*
X106076786Y-109308646D01*
X106125278Y-109299000D01*
X106174722Y-109299000D01*
X106223214Y-109308646D01*
X106223214Y-109308646D01*
G37*
G36*
X126223214Y-109308646D02*
G01*
X126268893Y-109327567D01*
X126310003Y-109355036D01*
X126344964Y-109389997D01*
X126372433Y-109431107D01*
X126391354Y-109476786D01*
X126391354Y-109476787D01*
X126400962Y-109525087D01*
X126403807Y-109534466D01*
X126408428Y-109543111D01*
X126414082Y-109550000D01*
X126408427Y-109556891D01*
X126403807Y-109565535D01*
X126400962Y-109574913D01*
X126391354Y-109623214D01*
X126372433Y-109668893D01*
X126344964Y-109710003D01*
X126310003Y-109744964D01*
X126268893Y-109772433D01*
X126223214Y-109791354D01*
X126198967Y-109796177D01*
X126174722Y-109801000D01*
X126125278Y-109801000D01*
X126101033Y-109796177D01*
X126076786Y-109791354D01*
X126031107Y-109772433D01*
X125989997Y-109744964D01*
X125955036Y-109710003D01*
X125927567Y-109668893D01*
X125908646Y-109623214D01*
X125899038Y-109574913D01*
X125896193Y-109565534D01*
X125891572Y-109556889D01*
X125885918Y-109550000D01*
X125891573Y-109543109D01*
X125896193Y-109534465D01*
X125899038Y-109525087D01*
X125908646Y-109476787D01*
X125908646Y-109476786D01*
X125927567Y-109431107D01*
X125955036Y-109389997D01*
X125989997Y-109355036D01*
X126031107Y-109327567D01*
X126076786Y-109308646D01*
X126125278Y-109299000D01*
X126174722Y-109299000D01*
X126223214Y-109308646D01*
X126223214Y-109308646D01*
G37*
G36*
X127423214Y-109308646D02*
G01*
X127468893Y-109327567D01*
X127510003Y-109355036D01*
X127544964Y-109389997D01*
X127572433Y-109431107D01*
X127591354Y-109476786D01*
X127591354Y-109476787D01*
X127600962Y-109525087D01*
X127603807Y-109534466D01*
X127608428Y-109543111D01*
X127614082Y-109550000D01*
X127608427Y-109556891D01*
X127603807Y-109565535D01*
X127600962Y-109574913D01*
X127591354Y-109623214D01*
X127572433Y-109668893D01*
X127544964Y-109710003D01*
X127510003Y-109744964D01*
X127468893Y-109772433D01*
X127423214Y-109791354D01*
X127398967Y-109796177D01*
X127374722Y-109801000D01*
X127325278Y-109801000D01*
X127301033Y-109796177D01*
X127276786Y-109791354D01*
X127231107Y-109772433D01*
X127189997Y-109744964D01*
X127155036Y-109710003D01*
X127127567Y-109668893D01*
X127108646Y-109623214D01*
X127099038Y-109574913D01*
X127096193Y-109565534D01*
X127091572Y-109556889D01*
X127085918Y-109550000D01*
X127091573Y-109543109D01*
X127096193Y-109534465D01*
X127099038Y-109525087D01*
X127108646Y-109476787D01*
X127108646Y-109476786D01*
X127127567Y-109431107D01*
X127155036Y-109389997D01*
X127189997Y-109355036D01*
X127231107Y-109327567D01*
X127276786Y-109308646D01*
X127325278Y-109299000D01*
X127374722Y-109299000D01*
X127423214Y-109308646D01*
X127423214Y-109308646D01*
G37*
G36*
X128023214Y-109308646D02*
G01*
X128068893Y-109327567D01*
X128110003Y-109355036D01*
X128144964Y-109389997D01*
X128172433Y-109431107D01*
X128191354Y-109476786D01*
X128201000Y-109525279D01*
X128201000Y-109574721D01*
X128191354Y-109623214D01*
X128172433Y-109668893D01*
X128144964Y-109710003D01*
X128110003Y-109744964D01*
X128068893Y-109772433D01*
X128023214Y-109791354D01*
X127998967Y-109796177D01*
X127974722Y-109801000D01*
X127925278Y-109801000D01*
X127901033Y-109796177D01*
X127876786Y-109791354D01*
X127831107Y-109772433D01*
X127789997Y-109744964D01*
X127755036Y-109710003D01*
X127727567Y-109668893D01*
X127708646Y-109623214D01*
X127699038Y-109574913D01*
X127696193Y-109565534D01*
X127691572Y-109556889D01*
X127685918Y-109550000D01*
X127691573Y-109543109D01*
X127696193Y-109534465D01*
X127699038Y-109525087D01*
X127708646Y-109476787D01*
X127708646Y-109476786D01*
X127727567Y-109431107D01*
X127755036Y-109389997D01*
X127789997Y-109355036D01*
X127831107Y-109327567D01*
X127876786Y-109308646D01*
X127925278Y-109299000D01*
X127974722Y-109299000D01*
X128023214Y-109308646D01*
X128023214Y-109308646D01*
G37*
G36*
X125623214Y-109308646D02*
G01*
X125668893Y-109327567D01*
X125710003Y-109355036D01*
X125744964Y-109389997D01*
X125772433Y-109431107D01*
X125791354Y-109476786D01*
X125791354Y-109476787D01*
X125800962Y-109525087D01*
X125803807Y-109534466D01*
X125808428Y-109543111D01*
X125814082Y-109550000D01*
X125808427Y-109556891D01*
X125803807Y-109565535D01*
X125800962Y-109574913D01*
X125791354Y-109623214D01*
X125772433Y-109668893D01*
X125744964Y-109710003D01*
X125710003Y-109744964D01*
X125668893Y-109772433D01*
X125623214Y-109791354D01*
X125598967Y-109796177D01*
X125574722Y-109801000D01*
X125525278Y-109801000D01*
X125501033Y-109796177D01*
X125476786Y-109791354D01*
X125431107Y-109772433D01*
X125389997Y-109744964D01*
X125355036Y-109710003D01*
X125327567Y-109668893D01*
X125308646Y-109623214D01*
X125299038Y-109574913D01*
X125296193Y-109565534D01*
X125291572Y-109556889D01*
X125285918Y-109550000D01*
X125291573Y-109543109D01*
X125296193Y-109534465D01*
X125299038Y-109525087D01*
X125308646Y-109476787D01*
X125308646Y-109476786D01*
X125327567Y-109431107D01*
X125355036Y-109389997D01*
X125389997Y-109355036D01*
X125431107Y-109327567D01*
X125476786Y-109308646D01*
X125525278Y-109299000D01*
X125574722Y-109299000D01*
X125623214Y-109308646D01*
X125623214Y-109308646D01*
G37*
G36*
X124423214Y-109308646D02*
G01*
X124468893Y-109327567D01*
X124510003Y-109355036D01*
X124544964Y-109389997D01*
X124572433Y-109431107D01*
X124591354Y-109476786D01*
X124591354Y-109476787D01*
X124600962Y-109525087D01*
X124603807Y-109534466D01*
X124608428Y-109543111D01*
X124614082Y-109550000D01*
X124608427Y-109556891D01*
X124603807Y-109565535D01*
X124600962Y-109574913D01*
X124591354Y-109623214D01*
X124572433Y-109668893D01*
X124544964Y-109710003D01*
X124510003Y-109744964D01*
X124468893Y-109772433D01*
X124423214Y-109791354D01*
X124398967Y-109796177D01*
X124374722Y-109801000D01*
X124325278Y-109801000D01*
X124301033Y-109796177D01*
X124276786Y-109791354D01*
X124231107Y-109772433D01*
X124189997Y-109744964D01*
X124155036Y-109710003D01*
X124127567Y-109668893D01*
X124108646Y-109623214D01*
X124099038Y-109574913D01*
X124096193Y-109565534D01*
X124091572Y-109556889D01*
X124085918Y-109550000D01*
X124091573Y-109543109D01*
X124096193Y-109534465D01*
X124099038Y-109525087D01*
X124108646Y-109476787D01*
X124108646Y-109476786D01*
X124127567Y-109431107D01*
X124155036Y-109389997D01*
X124189997Y-109355036D01*
X124231107Y-109327567D01*
X124276786Y-109308646D01*
X124325278Y-109299000D01*
X124374722Y-109299000D01*
X124423214Y-109308646D01*
X124423214Y-109308646D01*
G37*
G36*
X123823214Y-109308646D02*
G01*
X123868893Y-109327567D01*
X123910003Y-109355036D01*
X123944964Y-109389997D01*
X123972433Y-109431107D01*
X123991354Y-109476786D01*
X123991354Y-109476787D01*
X124000962Y-109525087D01*
X124003807Y-109534466D01*
X124008428Y-109543111D01*
X124014082Y-109550000D01*
X124008427Y-109556891D01*
X124003807Y-109565535D01*
X124000962Y-109574913D01*
X123991354Y-109623214D01*
X123972433Y-109668893D01*
X123944964Y-109710003D01*
X123910003Y-109744964D01*
X123868893Y-109772433D01*
X123823214Y-109791354D01*
X123798967Y-109796177D01*
X123774722Y-109801000D01*
X123725278Y-109801000D01*
X123701033Y-109796177D01*
X123676786Y-109791354D01*
X123631107Y-109772433D01*
X123589997Y-109744964D01*
X123555036Y-109710003D01*
X123527567Y-109668893D01*
X123508646Y-109623214D01*
X123499000Y-109574721D01*
X123499000Y-109525279D01*
X123508646Y-109476786D01*
X123527567Y-109431107D01*
X123555036Y-109389997D01*
X123589997Y-109355036D01*
X123631107Y-109327567D01*
X123676786Y-109308646D01*
X123725278Y-109299000D01*
X123774722Y-109299000D01*
X123823214Y-109308646D01*
X123823214Y-109308646D01*
G37*
G36*
X125023214Y-109308646D02*
G01*
X125068893Y-109327567D01*
X125110003Y-109355036D01*
X125144964Y-109389997D01*
X125172433Y-109431107D01*
X125191354Y-109476786D01*
X125191354Y-109476787D01*
X125200962Y-109525087D01*
X125203807Y-109534466D01*
X125208428Y-109543111D01*
X125214082Y-109550000D01*
X125208427Y-109556891D01*
X125203807Y-109565535D01*
X125200962Y-109574913D01*
X125191354Y-109623214D01*
X125172433Y-109668893D01*
X125144964Y-109710003D01*
X125110003Y-109744964D01*
X125068893Y-109772433D01*
X125023214Y-109791354D01*
X124998967Y-109796177D01*
X124974722Y-109801000D01*
X124925278Y-109801000D01*
X124901033Y-109796177D01*
X124876786Y-109791354D01*
X124831107Y-109772433D01*
X124789997Y-109744964D01*
X124755036Y-109710003D01*
X124727567Y-109668893D01*
X124708646Y-109623214D01*
X124699038Y-109574913D01*
X124696193Y-109565534D01*
X124691572Y-109556889D01*
X124685918Y-109550000D01*
X124691573Y-109543109D01*
X124696193Y-109534465D01*
X124699038Y-109525087D01*
X124708646Y-109476787D01*
X124708646Y-109476786D01*
X124727567Y-109431107D01*
X124755036Y-109389997D01*
X124789997Y-109355036D01*
X124831107Y-109327567D01*
X124876786Y-109308646D01*
X124925278Y-109299000D01*
X124974722Y-109299000D01*
X125023214Y-109308646D01*
X125023214Y-109308646D01*
G37*
G36*
X148023214Y-109308646D02*
G01*
X148068893Y-109327567D01*
X148110003Y-109355036D01*
X148144964Y-109389997D01*
X148172433Y-109431107D01*
X148191354Y-109476786D01*
X148201000Y-109525279D01*
X148201000Y-109574721D01*
X148191354Y-109623214D01*
X148172433Y-109668893D01*
X148144964Y-109710003D01*
X148110003Y-109744964D01*
X148068893Y-109772433D01*
X148023214Y-109791354D01*
X147998967Y-109796177D01*
X147974722Y-109801000D01*
X147925278Y-109801000D01*
X147901033Y-109796177D01*
X147876786Y-109791354D01*
X147831107Y-109772433D01*
X147789997Y-109744964D01*
X147755036Y-109710003D01*
X147727567Y-109668893D01*
X147708646Y-109623214D01*
X147699038Y-109574913D01*
X147696193Y-109565534D01*
X147691572Y-109556889D01*
X147685918Y-109550000D01*
X147691573Y-109543109D01*
X147696193Y-109534465D01*
X147699038Y-109525087D01*
X147708646Y-109476787D01*
X147708646Y-109476786D01*
X147727567Y-109431107D01*
X147755036Y-109389997D01*
X147789997Y-109355036D01*
X147831107Y-109327567D01*
X147876786Y-109308646D01*
X147925278Y-109299000D01*
X147974722Y-109299000D01*
X148023214Y-109308646D01*
X148023214Y-109308646D01*
G37*
G36*
X106823214Y-109308646D02*
G01*
X106868893Y-109327567D01*
X106910003Y-109355036D01*
X106944964Y-109389997D01*
X106972433Y-109431107D01*
X106991354Y-109476786D01*
X106991354Y-109476787D01*
X107000962Y-109525087D01*
X107003807Y-109534466D01*
X107008428Y-109543111D01*
X107014082Y-109550000D01*
X107008427Y-109556891D01*
X107003807Y-109565535D01*
X107000962Y-109574913D01*
X106991354Y-109623214D01*
X106972433Y-109668893D01*
X106944964Y-109710003D01*
X106910003Y-109744964D01*
X106868893Y-109772433D01*
X106823214Y-109791354D01*
X106798967Y-109796177D01*
X106774722Y-109801000D01*
X106725278Y-109801000D01*
X106701033Y-109796177D01*
X106676786Y-109791354D01*
X106631107Y-109772433D01*
X106589997Y-109744964D01*
X106555036Y-109710003D01*
X106527567Y-109668893D01*
X106508646Y-109623214D01*
X106499038Y-109574913D01*
X106496193Y-109565534D01*
X106491572Y-109556889D01*
X106485918Y-109550000D01*
X106491573Y-109543109D01*
X106496193Y-109534465D01*
X106499038Y-109525087D01*
X106508646Y-109476787D01*
X106508646Y-109476786D01*
X106527567Y-109431107D01*
X106555036Y-109389997D01*
X106589997Y-109355036D01*
X106631107Y-109327567D01*
X106676786Y-109308646D01*
X106725278Y-109299000D01*
X106774722Y-109299000D01*
X106823214Y-109308646D01*
X106823214Y-109308646D01*
G37*
G36*
X166223214Y-109308646D02*
G01*
X166268893Y-109327567D01*
X166310003Y-109355036D01*
X166344964Y-109389997D01*
X166372433Y-109431107D01*
X166391354Y-109476786D01*
X166391354Y-109476787D01*
X166400962Y-109525087D01*
X166403807Y-109534466D01*
X166408428Y-109543111D01*
X166414082Y-109550000D01*
X166408427Y-109556891D01*
X166403807Y-109565535D01*
X166400962Y-109574913D01*
X166391354Y-109623214D01*
X166372433Y-109668893D01*
X166344964Y-109710003D01*
X166310003Y-109744964D01*
X166268893Y-109772433D01*
X166223214Y-109791354D01*
X166198967Y-109796177D01*
X166174722Y-109801000D01*
X166125278Y-109801000D01*
X166101033Y-109796177D01*
X166076786Y-109791354D01*
X166031107Y-109772433D01*
X165989997Y-109744964D01*
X165955036Y-109710003D01*
X165927567Y-109668893D01*
X165908646Y-109623214D01*
X165899038Y-109574913D01*
X165896193Y-109565534D01*
X165891572Y-109556889D01*
X165885918Y-109550000D01*
X165891573Y-109543109D01*
X165896193Y-109534465D01*
X165899038Y-109525087D01*
X165908646Y-109476787D01*
X165908646Y-109476786D01*
X165927567Y-109431107D01*
X165955036Y-109389997D01*
X165989997Y-109355036D01*
X166031107Y-109327567D01*
X166076786Y-109308646D01*
X166125278Y-109299000D01*
X166174722Y-109299000D01*
X166223214Y-109308646D01*
X166223214Y-109308646D01*
G37*
G36*
X107423214Y-109308646D02*
G01*
X107468893Y-109327567D01*
X107510003Y-109355036D01*
X107544964Y-109389997D01*
X107572433Y-109431107D01*
X107591354Y-109476786D01*
X107591354Y-109476787D01*
X107600962Y-109525087D01*
X107603807Y-109534466D01*
X107608428Y-109543111D01*
X107614082Y-109550000D01*
X107608427Y-109556891D01*
X107603807Y-109565535D01*
X107600962Y-109574913D01*
X107591354Y-109623214D01*
X107572433Y-109668893D01*
X107544964Y-109710003D01*
X107510003Y-109744964D01*
X107468893Y-109772433D01*
X107423214Y-109791354D01*
X107398967Y-109796177D01*
X107374722Y-109801000D01*
X107325278Y-109801000D01*
X107301033Y-109796177D01*
X107276786Y-109791354D01*
X107231107Y-109772433D01*
X107189997Y-109744964D01*
X107155036Y-109710003D01*
X107127567Y-109668893D01*
X107108646Y-109623214D01*
X107099038Y-109574913D01*
X107096193Y-109565534D01*
X107091572Y-109556889D01*
X107085918Y-109550000D01*
X107091573Y-109543109D01*
X107096193Y-109534465D01*
X107099038Y-109525087D01*
X107108646Y-109476787D01*
X107108646Y-109476786D01*
X107127567Y-109431107D01*
X107155036Y-109389997D01*
X107189997Y-109355036D01*
X107231107Y-109327567D01*
X107276786Y-109308646D01*
X107325278Y-109299000D01*
X107374722Y-109299000D01*
X107423214Y-109308646D01*
X107423214Y-109308646D01*
G37*
G36*
X108023214Y-109308646D02*
G01*
X108068893Y-109327567D01*
X108110003Y-109355036D01*
X108144964Y-109389997D01*
X108172433Y-109431107D01*
X108191354Y-109476786D01*
X108201000Y-109525279D01*
X108201000Y-109574721D01*
X108191354Y-109623214D01*
X108172433Y-109668893D01*
X108144964Y-109710003D01*
X108110003Y-109744964D01*
X108068893Y-109772433D01*
X108023214Y-109791354D01*
X107998967Y-109796177D01*
X107974722Y-109801000D01*
X107925278Y-109801000D01*
X107901033Y-109796177D01*
X107876786Y-109791354D01*
X107831107Y-109772433D01*
X107789997Y-109744964D01*
X107755036Y-109710003D01*
X107727567Y-109668893D01*
X107708646Y-109623214D01*
X107699038Y-109574913D01*
X107696193Y-109565534D01*
X107691572Y-109556889D01*
X107685918Y-109550000D01*
X107691573Y-109543109D01*
X107696193Y-109534465D01*
X107699038Y-109525087D01*
X107708646Y-109476787D01*
X107708646Y-109476786D01*
X107727567Y-109431107D01*
X107755036Y-109389997D01*
X107789997Y-109355036D01*
X107831107Y-109327567D01*
X107876786Y-109308646D01*
X107925278Y-109299000D01*
X107974722Y-109299000D01*
X108023214Y-109308646D01*
X108023214Y-109308646D01*
G37*
G36*
X105623214Y-109308646D02*
G01*
X105668893Y-109327567D01*
X105710003Y-109355036D01*
X105744964Y-109389997D01*
X105772433Y-109431107D01*
X105791354Y-109476786D01*
X105791354Y-109476787D01*
X105800962Y-109525087D01*
X105803807Y-109534466D01*
X105808428Y-109543111D01*
X105814082Y-109550000D01*
X105808427Y-109556891D01*
X105803807Y-109565535D01*
X105800962Y-109574913D01*
X105791354Y-109623214D01*
X105772433Y-109668893D01*
X105744964Y-109710003D01*
X105710003Y-109744964D01*
X105668893Y-109772433D01*
X105623214Y-109791354D01*
X105598967Y-109796177D01*
X105574722Y-109801000D01*
X105525278Y-109801000D01*
X105501033Y-109796177D01*
X105476786Y-109791354D01*
X105431107Y-109772433D01*
X105389997Y-109744964D01*
X105355036Y-109710003D01*
X105327567Y-109668893D01*
X105308646Y-109623214D01*
X105299038Y-109574913D01*
X105296193Y-109565534D01*
X105291572Y-109556889D01*
X105285918Y-109550000D01*
X105291573Y-109543109D01*
X105296193Y-109534465D01*
X105299038Y-109525087D01*
X105308646Y-109476787D01*
X105308646Y-109476786D01*
X105327567Y-109431107D01*
X105355036Y-109389997D01*
X105389997Y-109355036D01*
X105431107Y-109327567D01*
X105476786Y-109308646D01*
X105525278Y-109299000D01*
X105574722Y-109299000D01*
X105623214Y-109308646D01*
X105623214Y-109308646D01*
G37*
G36*
X104423214Y-109308646D02*
G01*
X104468893Y-109327567D01*
X104510003Y-109355036D01*
X104544964Y-109389997D01*
X104572433Y-109431107D01*
X104591354Y-109476786D01*
X104591354Y-109476787D01*
X104600962Y-109525087D01*
X104603807Y-109534466D01*
X104608428Y-109543111D01*
X104614082Y-109550000D01*
X104608427Y-109556891D01*
X104603807Y-109565535D01*
X104600962Y-109574913D01*
X104591354Y-109623214D01*
X104572433Y-109668893D01*
X104544964Y-109710003D01*
X104510003Y-109744964D01*
X104468893Y-109772433D01*
X104423214Y-109791354D01*
X104398967Y-109796177D01*
X104374722Y-109801000D01*
X104325278Y-109801000D01*
X104301033Y-109796177D01*
X104276786Y-109791354D01*
X104231107Y-109772433D01*
X104189997Y-109744964D01*
X104155036Y-109710003D01*
X104127567Y-109668893D01*
X104108646Y-109623214D01*
X104099038Y-109574913D01*
X104096193Y-109565534D01*
X104091572Y-109556889D01*
X104085918Y-109550000D01*
X104091573Y-109543109D01*
X104096193Y-109534465D01*
X104099038Y-109525087D01*
X104108646Y-109476787D01*
X104108646Y-109476786D01*
X104127567Y-109431107D01*
X104155036Y-109389997D01*
X104189997Y-109355036D01*
X104231107Y-109327567D01*
X104276786Y-109308646D01*
X104325278Y-109299000D01*
X104374722Y-109299000D01*
X104423214Y-109308646D01*
X104423214Y-109308646D01*
G37*
G36*
X103823214Y-109308646D02*
G01*
X103868893Y-109327567D01*
X103910003Y-109355036D01*
X103944964Y-109389997D01*
X103972433Y-109431107D01*
X103991354Y-109476786D01*
X103991354Y-109476787D01*
X104000962Y-109525087D01*
X104003807Y-109534466D01*
X104008428Y-109543111D01*
X104014082Y-109550000D01*
X104008427Y-109556891D01*
X104003807Y-109565535D01*
X104000962Y-109574913D01*
X103991354Y-109623214D01*
X103972433Y-109668893D01*
X103944964Y-109710003D01*
X103910003Y-109744964D01*
X103868893Y-109772433D01*
X103823214Y-109791354D01*
X103798967Y-109796177D01*
X103774722Y-109801000D01*
X103725278Y-109801000D01*
X103701033Y-109796177D01*
X103676786Y-109791354D01*
X103631107Y-109772433D01*
X103589997Y-109744964D01*
X103555036Y-109710003D01*
X103527567Y-109668893D01*
X103508646Y-109623214D01*
X103499000Y-109574721D01*
X103499000Y-109525279D01*
X103508646Y-109476786D01*
X103527567Y-109431107D01*
X103555036Y-109389997D01*
X103589997Y-109355036D01*
X103631107Y-109327567D01*
X103676786Y-109308646D01*
X103725278Y-109299000D01*
X103774722Y-109299000D01*
X103823214Y-109308646D01*
X103823214Y-109308646D01*
G37*
G36*
X105023214Y-109308646D02*
G01*
X105068893Y-109327567D01*
X105110003Y-109355036D01*
X105144964Y-109389997D01*
X105172433Y-109431107D01*
X105191354Y-109476786D01*
X105191354Y-109476787D01*
X105200962Y-109525087D01*
X105203807Y-109534466D01*
X105208428Y-109543111D01*
X105214082Y-109550000D01*
X105208427Y-109556891D01*
X105203807Y-109565535D01*
X105200962Y-109574913D01*
X105191354Y-109623214D01*
X105172433Y-109668893D01*
X105144964Y-109710003D01*
X105110003Y-109744964D01*
X105068893Y-109772433D01*
X105023214Y-109791354D01*
X104998967Y-109796177D01*
X104974722Y-109801000D01*
X104925278Y-109801000D01*
X104901033Y-109796177D01*
X104876786Y-109791354D01*
X104831107Y-109772433D01*
X104789997Y-109744964D01*
X104755036Y-109710003D01*
X104727567Y-109668893D01*
X104708646Y-109623214D01*
X104699038Y-109574913D01*
X104696193Y-109565534D01*
X104691572Y-109556889D01*
X104685918Y-109550000D01*
X104691573Y-109543109D01*
X104696193Y-109534465D01*
X104699038Y-109525087D01*
X104708646Y-109476787D01*
X104708646Y-109476786D01*
X104727567Y-109431107D01*
X104755036Y-109389997D01*
X104789997Y-109355036D01*
X104831107Y-109327567D01*
X104876786Y-109308646D01*
X104925278Y-109299000D01*
X104974722Y-109299000D01*
X105023214Y-109308646D01*
X105023214Y-109308646D01*
G37*
G36*
X168023214Y-109308646D02*
G01*
X168068893Y-109327567D01*
X168110003Y-109355036D01*
X168144964Y-109389997D01*
X168172433Y-109431107D01*
X168191354Y-109476786D01*
X168201000Y-109525279D01*
X168201000Y-109574721D01*
X168191354Y-109623214D01*
X168172433Y-109668893D01*
X168144964Y-109710003D01*
X168110003Y-109744964D01*
X168068893Y-109772433D01*
X168023214Y-109791354D01*
X167998967Y-109796177D01*
X167974722Y-109801000D01*
X167925278Y-109801000D01*
X167901033Y-109796177D01*
X167876786Y-109791354D01*
X167831107Y-109772433D01*
X167789997Y-109744964D01*
X167755036Y-109710003D01*
X167727567Y-109668893D01*
X167708646Y-109623214D01*
X167699038Y-109574913D01*
X167696193Y-109565534D01*
X167691572Y-109556889D01*
X167685918Y-109550000D01*
X167691573Y-109543109D01*
X167696193Y-109534465D01*
X167699038Y-109525087D01*
X167708646Y-109476787D01*
X167708646Y-109476786D01*
X167727567Y-109431107D01*
X167755036Y-109389997D01*
X167789997Y-109355036D01*
X167831107Y-109327567D01*
X167876786Y-109308646D01*
X167925278Y-109299000D01*
X167974722Y-109299000D01*
X168023214Y-109308646D01*
X168023214Y-109308646D01*
G37*
G36*
X167423214Y-109308646D02*
G01*
X167468893Y-109327567D01*
X167510003Y-109355036D01*
X167544964Y-109389997D01*
X167572433Y-109431107D01*
X167591354Y-109476786D01*
X167591354Y-109476787D01*
X167600962Y-109525087D01*
X167603807Y-109534466D01*
X167608428Y-109543111D01*
X167614082Y-109550000D01*
X167608427Y-109556891D01*
X167603807Y-109565535D01*
X167600962Y-109574913D01*
X167591354Y-109623214D01*
X167572433Y-109668893D01*
X167544964Y-109710003D01*
X167510003Y-109744964D01*
X167468893Y-109772433D01*
X167423214Y-109791354D01*
X167398967Y-109796177D01*
X167374722Y-109801000D01*
X167325278Y-109801000D01*
X167301033Y-109796177D01*
X167276786Y-109791354D01*
X167231107Y-109772433D01*
X167189997Y-109744964D01*
X167155036Y-109710003D01*
X167127567Y-109668893D01*
X167108646Y-109623214D01*
X167099038Y-109574913D01*
X167096193Y-109565534D01*
X167091572Y-109556889D01*
X167085918Y-109550000D01*
X167091573Y-109543109D01*
X167096193Y-109534465D01*
X167099038Y-109525087D01*
X167108646Y-109476787D01*
X167108646Y-109476786D01*
X167127567Y-109431107D01*
X167155036Y-109389997D01*
X167189997Y-109355036D01*
X167231107Y-109327567D01*
X167276786Y-109308646D01*
X167325278Y-109299000D01*
X167374722Y-109299000D01*
X167423214Y-109308646D01*
X167423214Y-109308646D01*
G37*
G36*
X166823214Y-109308646D02*
G01*
X166868893Y-109327567D01*
X166910003Y-109355036D01*
X166944964Y-109389997D01*
X166972433Y-109431107D01*
X166991354Y-109476786D01*
X166991354Y-109476787D01*
X167000962Y-109525087D01*
X167003807Y-109534466D01*
X167008428Y-109543111D01*
X167014082Y-109550000D01*
X167008427Y-109556891D01*
X167003807Y-109565535D01*
X167000962Y-109574913D01*
X166991354Y-109623214D01*
X166972433Y-109668893D01*
X166944964Y-109710003D01*
X166910003Y-109744964D01*
X166868893Y-109772433D01*
X166823214Y-109791354D01*
X166798967Y-109796177D01*
X166774722Y-109801000D01*
X166725278Y-109801000D01*
X166701033Y-109796177D01*
X166676786Y-109791354D01*
X166631107Y-109772433D01*
X166589997Y-109744964D01*
X166555036Y-109710003D01*
X166527567Y-109668893D01*
X166508646Y-109623214D01*
X166499038Y-109574913D01*
X166496193Y-109565534D01*
X166491572Y-109556889D01*
X166485918Y-109550000D01*
X166491573Y-109543109D01*
X166496193Y-109534465D01*
X166499038Y-109525087D01*
X166508646Y-109476787D01*
X166508646Y-109476786D01*
X166527567Y-109431107D01*
X166555036Y-109389997D01*
X166589997Y-109355036D01*
X166631107Y-109327567D01*
X166676786Y-109308646D01*
X166725278Y-109299000D01*
X166774722Y-109299000D01*
X166823214Y-109308646D01*
X166823214Y-109308646D01*
G37*
M02*
