M48
; DRILL file {KiCad (5.1.4)-1} date 28/01/2023 22:22:50
; FORMAT={-:-/ absolute / inch / decimal}
; #@! TF.CreationDate,2023-01-28T22:22:50+01:00
; #@! TF.GenerationSoftware,Kicad,Pcbnew,(5.1.4)-1
; #@! TF.FileFunction,NonPlated,1,2,NPTH
FMAT,2
INCH
T1C0.0157
%
G90
G05
T1
X6.4508Y-5.9783
X6.4744Y-5.9783
X6.498Y-5.9783
X6.5217Y-5.9783
X6.5453Y-5.9783
X6.5689Y-5.9783
X6.5925Y-5.9783
X6.6161Y-5.9783
X5.6594Y-4.313
X5.6831Y-4.313
X5.7067Y-4.313
X5.7303Y-4.313
X5.7539Y-4.313
X5.7776Y-4.313
X5.8012Y-4.313
X5.8248Y-4.313
X4.0846Y-4.313
X4.1083Y-4.313
X4.1319Y-4.313
X4.1555Y-4.313
X4.1791Y-4.313
X4.2028Y-4.313
X4.2264Y-4.313
X4.25Y-4.313
X7.2382Y-5.9783
X7.2618Y-5.9783
X7.2854Y-5.9783
X7.3091Y-5.9783
X7.3327Y-5.9783
X7.3563Y-5.9783
X7.3799Y-5.9783
X7.4035Y-5.9783
X4.872Y-4.313
X4.8957Y-4.313
X4.9193Y-4.313
X4.9429Y-4.313
X4.9665Y-4.313
X4.9902Y-4.313
X5.0138Y-4.313
X5.0374Y-4.313
X6.4469Y-4.313
X6.4705Y-4.313
X6.4941Y-4.313
X6.5177Y-4.313
X6.5413Y-4.313
X6.565Y-4.313
X6.5886Y-4.313
X6.6122Y-4.313
X5.6634Y-5.9783
X5.687Y-5.9783
X5.7106Y-5.9783
X5.7343Y-5.9783
X5.7579Y-5.9783
X5.7815Y-5.9783
X5.8051Y-5.9783
X5.8287Y-5.9783
X7.2343Y-4.313
X7.2579Y-4.313
X7.2815Y-4.313
X7.3051Y-4.313
X7.3287Y-4.313
X7.3524Y-4.313
X7.376Y-4.313
X7.3996Y-4.313
X4.876Y-5.9783
X4.8996Y-5.9783
X4.9232Y-5.9783
X4.9469Y-5.9783
X4.9705Y-5.9783
X4.9941Y-5.9783
X5.0177Y-5.9783
X5.0413Y-5.9783
X4.0886Y-5.9783
X4.1122Y-5.9783
X4.1358Y-5.9783
X4.1594Y-5.9783
X4.1831Y-5.9783
X4.2067Y-5.9783
X4.2303Y-5.9783
X4.2539Y-5.9783
T0
M30
