G04 #@! TF.GenerationSoftware,KiCad,Pcbnew,(5.1.4)-1*
G04 #@! TF.CreationDate,2023-01-28T22:22:51+01:00*
G04 #@! TF.ProjectId,REG1-Front-Universal - Kopie,52454731-2d46-4726-9f6e-742d556e6976,V00.01*
G04 #@! TF.SameCoordinates,Original*
G04 #@! TF.FileFunction,Legend,Bot*
G04 #@! TF.FilePolarity,Positive*
%FSLAX46Y46*%
G04 Gerber Fmt 4.6, Leading zero omitted, Abs format (unit mm)*
G04 Created by KiCad (PCBNEW (5.1.4)-1) date 2023-01-28 22:22:51*
%MOMM*%
%LPD*%
G04 APERTURE LIST*
%ADD10C,0.100000*%
%ADD11C,0.150000*%
%ADD12C,0.120000*%
G04 APERTURE END LIST*
D10*
X189021904Y-118207857D02*
X188221904Y-118207857D01*
X188221904Y-118512619D01*
X188260000Y-118588809D01*
X188298095Y-118626904D01*
X188374285Y-118665000D01*
X188488571Y-118665000D01*
X188564761Y-118626904D01*
X188602857Y-118588809D01*
X188640952Y-118512619D01*
X188640952Y-118207857D01*
X188602857Y-119274523D02*
X188640952Y-119388809D01*
X188679047Y-119426904D01*
X188755238Y-119465000D01*
X188869523Y-119465000D01*
X188945714Y-119426904D01*
X188983809Y-119388809D01*
X189021904Y-119312619D01*
X189021904Y-119007857D01*
X188221904Y-119007857D01*
X188221904Y-119274523D01*
X188260000Y-119350714D01*
X188298095Y-119388809D01*
X188374285Y-119426904D01*
X188450476Y-119426904D01*
X188526666Y-119388809D01*
X188564761Y-119350714D01*
X188602857Y-119274523D01*
X188602857Y-119007857D01*
X188221904Y-119693571D02*
X188221904Y-120150714D01*
X189021904Y-119922142D02*
X188221904Y-119922142D01*
X189021904Y-120417380D02*
X188221904Y-120417380D01*
X189021904Y-120874523D01*
X188221904Y-120874523D01*
X169021904Y-118207857D02*
X168221904Y-118207857D01*
X168221904Y-118512619D01*
X168260000Y-118588809D01*
X168298095Y-118626904D01*
X168374285Y-118665000D01*
X168488571Y-118665000D01*
X168564761Y-118626904D01*
X168602857Y-118588809D01*
X168640952Y-118512619D01*
X168640952Y-118207857D01*
X168602857Y-119274523D02*
X168640952Y-119388809D01*
X168679047Y-119426904D01*
X168755238Y-119465000D01*
X168869523Y-119465000D01*
X168945714Y-119426904D01*
X168983809Y-119388809D01*
X169021904Y-119312619D01*
X169021904Y-119007857D01*
X168221904Y-119007857D01*
X168221904Y-119274523D01*
X168260000Y-119350714D01*
X168298095Y-119388809D01*
X168374285Y-119426904D01*
X168450476Y-119426904D01*
X168526666Y-119388809D01*
X168564761Y-119350714D01*
X168602857Y-119274523D01*
X168602857Y-119007857D01*
X168221904Y-119693571D02*
X168221904Y-120150714D01*
X169021904Y-119922142D02*
X168221904Y-119922142D01*
X169021904Y-120417380D02*
X168221904Y-120417380D01*
X169021904Y-120874523D01*
X168221904Y-120874523D01*
X149021904Y-118207857D02*
X148221904Y-118207857D01*
X148221904Y-118512619D01*
X148260000Y-118588809D01*
X148298095Y-118626904D01*
X148374285Y-118665000D01*
X148488571Y-118665000D01*
X148564761Y-118626904D01*
X148602857Y-118588809D01*
X148640952Y-118512619D01*
X148640952Y-118207857D01*
X148602857Y-119274523D02*
X148640952Y-119388809D01*
X148679047Y-119426904D01*
X148755238Y-119465000D01*
X148869523Y-119465000D01*
X148945714Y-119426904D01*
X148983809Y-119388809D01*
X149021904Y-119312619D01*
X149021904Y-119007857D01*
X148221904Y-119007857D01*
X148221904Y-119274523D01*
X148260000Y-119350714D01*
X148298095Y-119388809D01*
X148374285Y-119426904D01*
X148450476Y-119426904D01*
X148526666Y-119388809D01*
X148564761Y-119350714D01*
X148602857Y-119274523D01*
X148602857Y-119007857D01*
X148221904Y-119693571D02*
X148221904Y-120150714D01*
X149021904Y-119922142D02*
X148221904Y-119922142D01*
X149021904Y-120417380D02*
X148221904Y-120417380D01*
X149021904Y-120874523D01*
X148221904Y-120874523D01*
X129021904Y-118207857D02*
X128221904Y-118207857D01*
X128221904Y-118512619D01*
X128260000Y-118588809D01*
X128298095Y-118626904D01*
X128374285Y-118665000D01*
X128488571Y-118665000D01*
X128564761Y-118626904D01*
X128602857Y-118588809D01*
X128640952Y-118512619D01*
X128640952Y-118207857D01*
X128602857Y-119274523D02*
X128640952Y-119388809D01*
X128679047Y-119426904D01*
X128755238Y-119465000D01*
X128869523Y-119465000D01*
X128945714Y-119426904D01*
X128983809Y-119388809D01*
X129021904Y-119312619D01*
X129021904Y-119007857D01*
X128221904Y-119007857D01*
X128221904Y-119274523D01*
X128260000Y-119350714D01*
X128298095Y-119388809D01*
X128374285Y-119426904D01*
X128450476Y-119426904D01*
X128526666Y-119388809D01*
X128564761Y-119350714D01*
X128602857Y-119274523D01*
X128602857Y-119007857D01*
X128221904Y-119693571D02*
X128221904Y-120150714D01*
X129021904Y-119922142D02*
X128221904Y-119922142D01*
X129021904Y-120417380D02*
X128221904Y-120417380D01*
X129021904Y-120874523D01*
X128221904Y-120874523D01*
D11*
X187012380Y-129787023D02*
X186536190Y-129453690D01*
X187012380Y-129215595D02*
X186012380Y-129215595D01*
X186012380Y-129596547D01*
X186060000Y-129691785D01*
X186107619Y-129739404D01*
X186202857Y-129787023D01*
X186345714Y-129787023D01*
X186440952Y-129739404D01*
X186488571Y-129691785D01*
X186536190Y-129596547D01*
X186536190Y-129215595D01*
X186488571Y-130215595D02*
X186488571Y-130548928D01*
X187012380Y-130691785D02*
X187012380Y-130215595D01*
X186012380Y-130215595D01*
X186012380Y-130691785D01*
X186964761Y-131072738D02*
X187012380Y-131215595D01*
X187012380Y-131453690D01*
X186964761Y-131548928D01*
X186917142Y-131596547D01*
X186821904Y-131644166D01*
X186726666Y-131644166D01*
X186631428Y-131596547D01*
X186583809Y-131548928D01*
X186536190Y-131453690D01*
X186488571Y-131263214D01*
X186440952Y-131167976D01*
X186393333Y-131120357D01*
X186298095Y-131072738D01*
X186202857Y-131072738D01*
X186107619Y-131120357D01*
X186060000Y-131167976D01*
X186012380Y-131263214D01*
X186012380Y-131501309D01*
X186060000Y-131644166D01*
X167012380Y-129787023D02*
X166536190Y-129453690D01*
X167012380Y-129215595D02*
X166012380Y-129215595D01*
X166012380Y-129596547D01*
X166060000Y-129691785D01*
X166107619Y-129739404D01*
X166202857Y-129787023D01*
X166345714Y-129787023D01*
X166440952Y-129739404D01*
X166488571Y-129691785D01*
X166536190Y-129596547D01*
X166536190Y-129215595D01*
X166488571Y-130215595D02*
X166488571Y-130548928D01*
X167012380Y-130691785D02*
X167012380Y-130215595D01*
X166012380Y-130215595D01*
X166012380Y-130691785D01*
X166964761Y-131072738D02*
X167012380Y-131215595D01*
X167012380Y-131453690D01*
X166964761Y-131548928D01*
X166917142Y-131596547D01*
X166821904Y-131644166D01*
X166726666Y-131644166D01*
X166631428Y-131596547D01*
X166583809Y-131548928D01*
X166536190Y-131453690D01*
X166488571Y-131263214D01*
X166440952Y-131167976D01*
X166393333Y-131120357D01*
X166298095Y-131072738D01*
X166202857Y-131072738D01*
X166107619Y-131120357D01*
X166060000Y-131167976D01*
X166012380Y-131263214D01*
X166012380Y-131501309D01*
X166060000Y-131644166D01*
X147012380Y-129787023D02*
X146536190Y-129453690D01*
X147012380Y-129215595D02*
X146012380Y-129215595D01*
X146012380Y-129596547D01*
X146060000Y-129691785D01*
X146107619Y-129739404D01*
X146202857Y-129787023D01*
X146345714Y-129787023D01*
X146440952Y-129739404D01*
X146488571Y-129691785D01*
X146536190Y-129596547D01*
X146536190Y-129215595D01*
X146488571Y-130215595D02*
X146488571Y-130548928D01*
X147012380Y-130691785D02*
X147012380Y-130215595D01*
X146012380Y-130215595D01*
X146012380Y-130691785D01*
X146964761Y-131072738D02*
X147012380Y-131215595D01*
X147012380Y-131453690D01*
X146964761Y-131548928D01*
X146917142Y-131596547D01*
X146821904Y-131644166D01*
X146726666Y-131644166D01*
X146631428Y-131596547D01*
X146583809Y-131548928D01*
X146536190Y-131453690D01*
X146488571Y-131263214D01*
X146440952Y-131167976D01*
X146393333Y-131120357D01*
X146298095Y-131072738D01*
X146202857Y-131072738D01*
X146107619Y-131120357D01*
X146060000Y-131167976D01*
X146012380Y-131263214D01*
X146012380Y-131501309D01*
X146060000Y-131644166D01*
X127012380Y-129787023D02*
X126536190Y-129453690D01*
X127012380Y-129215595D02*
X126012380Y-129215595D01*
X126012380Y-129596547D01*
X126060000Y-129691785D01*
X126107619Y-129739404D01*
X126202857Y-129787023D01*
X126345714Y-129787023D01*
X126440952Y-129739404D01*
X126488571Y-129691785D01*
X126536190Y-129596547D01*
X126536190Y-129215595D01*
X126488571Y-130215595D02*
X126488571Y-130548928D01*
X127012380Y-130691785D02*
X127012380Y-130215595D01*
X126012380Y-130215595D01*
X126012380Y-130691785D01*
X126964761Y-131072738D02*
X127012380Y-131215595D01*
X127012380Y-131453690D01*
X126964761Y-131548928D01*
X126917142Y-131596547D01*
X126821904Y-131644166D01*
X126726666Y-131644166D01*
X126631428Y-131596547D01*
X126583809Y-131548928D01*
X126536190Y-131453690D01*
X126488571Y-131263214D01*
X126440952Y-131167976D01*
X126393333Y-131120357D01*
X126298095Y-131072738D01*
X126202857Y-131072738D01*
X126107619Y-131120357D01*
X126060000Y-131167976D01*
X126012380Y-131263214D01*
X126012380Y-131501309D01*
X126060000Y-131644166D01*
X191217380Y-131847023D02*
X190741190Y-131513690D01*
X191217380Y-131275595D02*
X190217380Y-131275595D01*
X190217380Y-131656547D01*
X190265000Y-131751785D01*
X190312619Y-131799404D01*
X190407857Y-131847023D01*
X190550714Y-131847023D01*
X190645952Y-131799404D01*
X190693571Y-131751785D01*
X190741190Y-131656547D01*
X190741190Y-131275595D01*
X190693571Y-132275595D02*
X190693571Y-132608928D01*
X191217380Y-132751785D02*
X191217380Y-132275595D01*
X190217380Y-132275595D01*
X190217380Y-132751785D01*
X190265000Y-133704166D02*
X190217380Y-133608928D01*
X190217380Y-133466071D01*
X190265000Y-133323214D01*
X190360238Y-133227976D01*
X190455476Y-133180357D01*
X190645952Y-133132738D01*
X190788809Y-133132738D01*
X190979285Y-133180357D01*
X191074523Y-133227976D01*
X191169761Y-133323214D01*
X191217380Y-133466071D01*
X191217380Y-133561309D01*
X191169761Y-133704166D01*
X191122142Y-133751785D01*
X190788809Y-133751785D01*
X190788809Y-133561309D01*
X191217380Y-134704166D02*
X191217380Y-134132738D01*
X191217380Y-134418452D02*
X190217380Y-134418452D01*
X190360238Y-134323214D01*
X190455476Y-134227976D01*
X190503095Y-134132738D01*
X190836428Y-135132738D02*
X190836428Y-135894642D01*
X190693571Y-136704166D02*
X190693571Y-136370833D01*
X191217380Y-136370833D02*
X190217380Y-136370833D01*
X190217380Y-136847023D01*
X191217380Y-137227976D02*
X190550714Y-137227976D01*
X190741190Y-137227976D02*
X190645952Y-137275595D01*
X190598333Y-137323214D01*
X190550714Y-137418452D01*
X190550714Y-137513690D01*
X191217380Y-137989880D02*
X191169761Y-137894642D01*
X191122142Y-137847023D01*
X191026904Y-137799404D01*
X190741190Y-137799404D01*
X190645952Y-137847023D01*
X190598333Y-137894642D01*
X190550714Y-137989880D01*
X190550714Y-138132738D01*
X190598333Y-138227976D01*
X190645952Y-138275595D01*
X190741190Y-138323214D01*
X191026904Y-138323214D01*
X191122142Y-138275595D01*
X191169761Y-138227976D01*
X191217380Y-138132738D01*
X191217380Y-137989880D01*
X190550714Y-138751785D02*
X191217380Y-138751785D01*
X190645952Y-138751785D02*
X190598333Y-138799404D01*
X190550714Y-138894642D01*
X190550714Y-139037500D01*
X190598333Y-139132738D01*
X190693571Y-139180357D01*
X191217380Y-139180357D01*
X190550714Y-139513690D02*
X190550714Y-139894642D01*
X190217380Y-139656547D02*
X191074523Y-139656547D01*
X191169761Y-139704166D01*
X191217380Y-139799404D01*
X191217380Y-139894642D01*
X190836428Y-140227976D02*
X190836428Y-140989880D01*
X190217380Y-141466071D02*
X191026904Y-141466071D01*
X191122142Y-141513690D01*
X191169761Y-141561309D01*
X191217380Y-141656547D01*
X191217380Y-141847023D01*
X191169761Y-141942261D01*
X191122142Y-141989880D01*
X191026904Y-142037500D01*
X190217380Y-142037500D01*
X190550714Y-142513690D02*
X191217380Y-142513690D01*
X190645952Y-142513690D02*
X190598333Y-142561309D01*
X190550714Y-142656547D01*
X190550714Y-142799404D01*
X190598333Y-142894642D01*
X190693571Y-142942261D01*
X191217380Y-142942261D01*
X191217380Y-143418452D02*
X190550714Y-143418452D01*
X190217380Y-143418452D02*
X190265000Y-143370833D01*
X190312619Y-143418452D01*
X190265000Y-143466071D01*
X190217380Y-143418452D01*
X190312619Y-143418452D01*
X190550714Y-143799404D02*
X191217380Y-144037500D01*
X190550714Y-144275595D01*
X191169761Y-145037500D02*
X191217380Y-144942261D01*
X191217380Y-144751785D01*
X191169761Y-144656547D01*
X191074523Y-144608928D01*
X190693571Y-144608928D01*
X190598333Y-144656547D01*
X190550714Y-144751785D01*
X190550714Y-144942261D01*
X190598333Y-145037500D01*
X190693571Y-145085119D01*
X190788809Y-145085119D01*
X190884047Y-144608928D01*
X191217380Y-145513690D02*
X190550714Y-145513690D01*
X190741190Y-145513690D02*
X190645952Y-145561309D01*
X190598333Y-145608928D01*
X190550714Y-145704166D01*
X190550714Y-145799404D01*
X191169761Y-146085119D02*
X191217380Y-146180357D01*
X191217380Y-146370833D01*
X191169761Y-146466071D01*
X191074523Y-146513690D01*
X191026904Y-146513690D01*
X190931666Y-146466071D01*
X190884047Y-146370833D01*
X190884047Y-146227976D01*
X190836428Y-146132738D01*
X190741190Y-146085119D01*
X190693571Y-146085119D01*
X190598333Y-146132738D01*
X190550714Y-146227976D01*
X190550714Y-146370833D01*
X190598333Y-146466071D01*
X191217380Y-147370833D02*
X190693571Y-147370833D01*
X190598333Y-147323214D01*
X190550714Y-147227976D01*
X190550714Y-147037500D01*
X190598333Y-146942261D01*
X191169761Y-147370833D02*
X191217380Y-147275595D01*
X191217380Y-147037500D01*
X191169761Y-146942261D01*
X191074523Y-146894642D01*
X190979285Y-146894642D01*
X190884047Y-146942261D01*
X190836428Y-147037500D01*
X190836428Y-147275595D01*
X190788809Y-147370833D01*
X191217380Y-147989880D02*
X191169761Y-147894642D01*
X191074523Y-147847023D01*
X190217380Y-147847023D01*
X191867380Y-131132738D02*
X192867380Y-131466071D01*
X191867380Y-131799404D01*
X191867380Y-132323214D02*
X191867380Y-132418452D01*
X191915000Y-132513690D01*
X191962619Y-132561309D01*
X192057857Y-132608928D01*
X192248333Y-132656547D01*
X192486428Y-132656547D01*
X192676904Y-132608928D01*
X192772142Y-132561309D01*
X192819761Y-132513690D01*
X192867380Y-132418452D01*
X192867380Y-132323214D01*
X192819761Y-132227976D01*
X192772142Y-132180357D01*
X192676904Y-132132738D01*
X192486428Y-132085119D01*
X192248333Y-132085119D01*
X192057857Y-132132738D01*
X191962619Y-132180357D01*
X191915000Y-132227976D01*
X191867380Y-132323214D01*
X191867380Y-133275595D02*
X191867380Y-133370833D01*
X191915000Y-133466071D01*
X191962619Y-133513690D01*
X192057857Y-133561309D01*
X192248333Y-133608928D01*
X192486428Y-133608928D01*
X192676904Y-133561309D01*
X192772142Y-133513690D01*
X192819761Y-133466071D01*
X192867380Y-133370833D01*
X192867380Y-133275595D01*
X192819761Y-133180357D01*
X192772142Y-133132738D01*
X192676904Y-133085119D01*
X192486428Y-133037500D01*
X192248333Y-133037500D01*
X192057857Y-133085119D01*
X191962619Y-133132738D01*
X191915000Y-133180357D01*
X191867380Y-133275595D01*
X192772142Y-134037500D02*
X192819761Y-134085119D01*
X192867380Y-134037500D01*
X192819761Y-133989880D01*
X192772142Y-134037500D01*
X192867380Y-134037500D01*
X191867380Y-134704166D02*
X191867380Y-134799404D01*
X191915000Y-134894642D01*
X191962619Y-134942261D01*
X192057857Y-134989880D01*
X192248333Y-135037500D01*
X192486428Y-135037500D01*
X192676904Y-134989880D01*
X192772142Y-134942261D01*
X192819761Y-134894642D01*
X192867380Y-134799404D01*
X192867380Y-134704166D01*
X192819761Y-134608928D01*
X192772142Y-134561309D01*
X192676904Y-134513690D01*
X192486428Y-134466071D01*
X192248333Y-134466071D01*
X192057857Y-134513690D01*
X191962619Y-134561309D01*
X191915000Y-134608928D01*
X191867380Y-134704166D01*
X191962619Y-135418452D02*
X191915000Y-135466071D01*
X191867380Y-135561309D01*
X191867380Y-135799404D01*
X191915000Y-135894642D01*
X191962619Y-135942261D01*
X192057857Y-135989880D01*
X192153095Y-135989880D01*
X192295952Y-135942261D01*
X192867380Y-135370833D01*
X192867380Y-135989880D01*
X192105476Y-137989880D02*
X192057857Y-137894642D01*
X192057857Y-137704166D01*
X192105476Y-137608928D01*
X192200714Y-137513690D01*
X192295952Y-137466071D01*
X192486428Y-137466071D01*
X192581666Y-137513690D01*
X192676904Y-137608928D01*
X192724523Y-137704166D01*
X192724523Y-137894642D01*
X192676904Y-137989880D01*
X191724523Y-137799404D02*
X191772142Y-137561309D01*
X191915000Y-137323214D01*
X192153095Y-137180357D01*
X192391190Y-137132738D01*
X192629285Y-137180357D01*
X192867380Y-137323214D01*
X193010238Y-137561309D01*
X193057857Y-137799404D01*
X193010238Y-138037499D01*
X192867380Y-138275595D01*
X192629285Y-138418452D01*
X192391190Y-138466071D01*
X192153095Y-138418452D01*
X191915000Y-138275595D01*
X191772142Y-138037499D01*
X191724523Y-137799404D01*
X192867380Y-139656547D02*
X191867380Y-139656547D01*
X192200714Y-140132738D02*
X192867380Y-140132738D01*
X192295952Y-140132738D02*
X192248333Y-140180357D01*
X192200714Y-140275595D01*
X192200714Y-140418452D01*
X192248333Y-140513690D01*
X192343571Y-140561309D01*
X192867380Y-140561309D01*
X192200714Y-141466071D02*
X193010238Y-141466071D01*
X193105476Y-141418452D01*
X193153095Y-141370833D01*
X193200714Y-141275595D01*
X193200714Y-141132738D01*
X193153095Y-141037499D01*
X192819761Y-141466071D02*
X192867380Y-141370833D01*
X192867380Y-141180357D01*
X192819761Y-141085119D01*
X192772142Y-141037499D01*
X192676904Y-140989880D01*
X192391190Y-140989880D01*
X192295952Y-141037499D01*
X192248333Y-141085119D01*
X192200714Y-141180357D01*
X192200714Y-141370833D01*
X192248333Y-141466071D01*
X192486428Y-141942261D02*
X192486428Y-142704166D01*
X192867380Y-143180357D02*
X191867380Y-143180357D01*
X191867380Y-143418452D01*
X191915000Y-143561309D01*
X192010238Y-143656547D01*
X192105476Y-143704166D01*
X192295952Y-143751785D01*
X192438809Y-143751785D01*
X192629285Y-143704166D01*
X192724523Y-143656547D01*
X192819761Y-143561309D01*
X192867380Y-143418452D01*
X192867380Y-143180357D01*
X192867380Y-144323214D02*
X192819761Y-144227976D01*
X192772142Y-144180357D01*
X192676904Y-144132738D01*
X192391190Y-144132738D01*
X192295952Y-144180357D01*
X192248333Y-144227976D01*
X192200714Y-144323214D01*
X192200714Y-144466071D01*
X192248333Y-144561309D01*
X192295952Y-144608928D01*
X192391190Y-144656547D01*
X192676904Y-144656547D01*
X192772142Y-144608928D01*
X192819761Y-144561309D01*
X192867380Y-144466071D01*
X192867380Y-144323214D01*
X192867380Y-145085119D02*
X192200714Y-145085119D01*
X192295952Y-145085119D02*
X192248333Y-145132738D01*
X192200714Y-145227976D01*
X192200714Y-145370833D01*
X192248333Y-145466071D01*
X192343571Y-145513690D01*
X192867380Y-145513690D01*
X192343571Y-145513690D02*
X192248333Y-145561309D01*
X192200714Y-145656547D01*
X192200714Y-145799404D01*
X192248333Y-145894642D01*
X192343571Y-145942261D01*
X192867380Y-145942261D01*
X192819761Y-146466071D02*
X192867380Y-146466071D01*
X192962619Y-146418452D01*
X193010238Y-146370833D01*
X191962619Y-147608928D02*
X191915000Y-147656547D01*
X191867380Y-147751785D01*
X191867380Y-147989880D01*
X191915000Y-148085119D01*
X191962619Y-148132738D01*
X192057857Y-148180357D01*
X192153095Y-148180357D01*
X192295952Y-148132738D01*
X192867380Y-147561309D01*
X192867380Y-148180357D01*
X191867380Y-148799404D02*
X191867380Y-148894642D01*
X191915000Y-148989880D01*
X191962619Y-149037499D01*
X192057857Y-149085119D01*
X192248333Y-149132738D01*
X192486428Y-149132738D01*
X192676904Y-149085119D01*
X192772142Y-149037499D01*
X192819761Y-148989880D01*
X192867380Y-148894642D01*
X192867380Y-148799404D01*
X192819761Y-148704166D01*
X192772142Y-148656547D01*
X192676904Y-148608928D01*
X192486428Y-148561309D01*
X192248333Y-148561309D01*
X192057857Y-148608928D01*
X191962619Y-148656547D01*
X191915000Y-148704166D01*
X191867380Y-148799404D01*
X191962619Y-149513690D02*
X191915000Y-149561309D01*
X191867380Y-149656547D01*
X191867380Y-149894642D01*
X191915000Y-149989880D01*
X191962619Y-150037499D01*
X192057857Y-150085119D01*
X192153095Y-150085119D01*
X192295952Y-150037499D01*
X192867380Y-149466071D01*
X192867380Y-150085119D01*
X191962619Y-150466071D02*
X191915000Y-150513690D01*
X191867380Y-150608928D01*
X191867380Y-150847023D01*
X191915000Y-150942261D01*
X191962619Y-150989880D01*
X192057857Y-151037499D01*
X192153095Y-151037499D01*
X192295952Y-150989880D01*
X192867380Y-150418452D01*
X192867380Y-151037499D01*
X171217380Y-131847023D02*
X170741190Y-131513690D01*
X171217380Y-131275595D02*
X170217380Y-131275595D01*
X170217380Y-131656547D01*
X170265000Y-131751785D01*
X170312619Y-131799404D01*
X170407857Y-131847023D01*
X170550714Y-131847023D01*
X170645952Y-131799404D01*
X170693571Y-131751785D01*
X170741190Y-131656547D01*
X170741190Y-131275595D01*
X170693571Y-132275595D02*
X170693571Y-132608928D01*
X171217380Y-132751785D02*
X171217380Y-132275595D01*
X170217380Y-132275595D01*
X170217380Y-132751785D01*
X170265000Y-133704166D02*
X170217380Y-133608928D01*
X170217380Y-133466071D01*
X170265000Y-133323214D01*
X170360238Y-133227976D01*
X170455476Y-133180357D01*
X170645952Y-133132738D01*
X170788809Y-133132738D01*
X170979285Y-133180357D01*
X171074523Y-133227976D01*
X171169761Y-133323214D01*
X171217380Y-133466071D01*
X171217380Y-133561309D01*
X171169761Y-133704166D01*
X171122142Y-133751785D01*
X170788809Y-133751785D01*
X170788809Y-133561309D01*
X171217380Y-134704166D02*
X171217380Y-134132738D01*
X171217380Y-134418452D02*
X170217380Y-134418452D01*
X170360238Y-134323214D01*
X170455476Y-134227976D01*
X170503095Y-134132738D01*
X170836428Y-135132738D02*
X170836428Y-135894642D01*
X170693571Y-136704166D02*
X170693571Y-136370833D01*
X171217380Y-136370833D02*
X170217380Y-136370833D01*
X170217380Y-136847023D01*
X171217380Y-137227976D02*
X170550714Y-137227976D01*
X170741190Y-137227976D02*
X170645952Y-137275595D01*
X170598333Y-137323214D01*
X170550714Y-137418452D01*
X170550714Y-137513690D01*
X171217380Y-137989880D02*
X171169761Y-137894642D01*
X171122142Y-137847023D01*
X171026904Y-137799404D01*
X170741190Y-137799404D01*
X170645952Y-137847023D01*
X170598333Y-137894642D01*
X170550714Y-137989880D01*
X170550714Y-138132738D01*
X170598333Y-138227976D01*
X170645952Y-138275595D01*
X170741190Y-138323214D01*
X171026904Y-138323214D01*
X171122142Y-138275595D01*
X171169761Y-138227976D01*
X171217380Y-138132738D01*
X171217380Y-137989880D01*
X170550714Y-138751785D02*
X171217380Y-138751785D01*
X170645952Y-138751785D02*
X170598333Y-138799404D01*
X170550714Y-138894642D01*
X170550714Y-139037500D01*
X170598333Y-139132738D01*
X170693571Y-139180357D01*
X171217380Y-139180357D01*
X170550714Y-139513690D02*
X170550714Y-139894642D01*
X170217380Y-139656547D02*
X171074523Y-139656547D01*
X171169761Y-139704166D01*
X171217380Y-139799404D01*
X171217380Y-139894642D01*
X170836428Y-140227976D02*
X170836428Y-140989880D01*
X170217380Y-141466071D02*
X171026904Y-141466071D01*
X171122142Y-141513690D01*
X171169761Y-141561309D01*
X171217380Y-141656547D01*
X171217380Y-141847023D01*
X171169761Y-141942261D01*
X171122142Y-141989880D01*
X171026904Y-142037500D01*
X170217380Y-142037500D01*
X170550714Y-142513690D02*
X171217380Y-142513690D01*
X170645952Y-142513690D02*
X170598333Y-142561309D01*
X170550714Y-142656547D01*
X170550714Y-142799404D01*
X170598333Y-142894642D01*
X170693571Y-142942261D01*
X171217380Y-142942261D01*
X171217380Y-143418452D02*
X170550714Y-143418452D01*
X170217380Y-143418452D02*
X170265000Y-143370833D01*
X170312619Y-143418452D01*
X170265000Y-143466071D01*
X170217380Y-143418452D01*
X170312619Y-143418452D01*
X170550714Y-143799404D02*
X171217380Y-144037500D01*
X170550714Y-144275595D01*
X171169761Y-145037500D02*
X171217380Y-144942261D01*
X171217380Y-144751785D01*
X171169761Y-144656547D01*
X171074523Y-144608928D01*
X170693571Y-144608928D01*
X170598333Y-144656547D01*
X170550714Y-144751785D01*
X170550714Y-144942261D01*
X170598333Y-145037500D01*
X170693571Y-145085119D01*
X170788809Y-145085119D01*
X170884047Y-144608928D01*
X171217380Y-145513690D02*
X170550714Y-145513690D01*
X170741190Y-145513690D02*
X170645952Y-145561309D01*
X170598333Y-145608928D01*
X170550714Y-145704166D01*
X170550714Y-145799404D01*
X171169761Y-146085119D02*
X171217380Y-146180357D01*
X171217380Y-146370833D01*
X171169761Y-146466071D01*
X171074523Y-146513690D01*
X171026904Y-146513690D01*
X170931666Y-146466071D01*
X170884047Y-146370833D01*
X170884047Y-146227976D01*
X170836428Y-146132738D01*
X170741190Y-146085119D01*
X170693571Y-146085119D01*
X170598333Y-146132738D01*
X170550714Y-146227976D01*
X170550714Y-146370833D01*
X170598333Y-146466071D01*
X171217380Y-147370833D02*
X170693571Y-147370833D01*
X170598333Y-147323214D01*
X170550714Y-147227976D01*
X170550714Y-147037500D01*
X170598333Y-146942261D01*
X171169761Y-147370833D02*
X171217380Y-147275595D01*
X171217380Y-147037500D01*
X171169761Y-146942261D01*
X171074523Y-146894642D01*
X170979285Y-146894642D01*
X170884047Y-146942261D01*
X170836428Y-147037500D01*
X170836428Y-147275595D01*
X170788809Y-147370833D01*
X171217380Y-147989880D02*
X171169761Y-147894642D01*
X171074523Y-147847023D01*
X170217380Y-147847023D01*
X171867380Y-131132738D02*
X172867380Y-131466071D01*
X171867380Y-131799404D01*
X171867380Y-132323214D02*
X171867380Y-132418452D01*
X171915000Y-132513690D01*
X171962619Y-132561309D01*
X172057857Y-132608928D01*
X172248333Y-132656547D01*
X172486428Y-132656547D01*
X172676904Y-132608928D01*
X172772142Y-132561309D01*
X172819761Y-132513690D01*
X172867380Y-132418452D01*
X172867380Y-132323214D01*
X172819761Y-132227976D01*
X172772142Y-132180357D01*
X172676904Y-132132738D01*
X172486428Y-132085119D01*
X172248333Y-132085119D01*
X172057857Y-132132738D01*
X171962619Y-132180357D01*
X171915000Y-132227976D01*
X171867380Y-132323214D01*
X171867380Y-133275595D02*
X171867380Y-133370833D01*
X171915000Y-133466071D01*
X171962619Y-133513690D01*
X172057857Y-133561309D01*
X172248333Y-133608928D01*
X172486428Y-133608928D01*
X172676904Y-133561309D01*
X172772142Y-133513690D01*
X172819761Y-133466071D01*
X172867380Y-133370833D01*
X172867380Y-133275595D01*
X172819761Y-133180357D01*
X172772142Y-133132738D01*
X172676904Y-133085119D01*
X172486428Y-133037500D01*
X172248333Y-133037500D01*
X172057857Y-133085119D01*
X171962619Y-133132738D01*
X171915000Y-133180357D01*
X171867380Y-133275595D01*
X172772142Y-134037500D02*
X172819761Y-134085119D01*
X172867380Y-134037500D01*
X172819761Y-133989880D01*
X172772142Y-134037500D01*
X172867380Y-134037500D01*
X171867380Y-134704166D02*
X171867380Y-134799404D01*
X171915000Y-134894642D01*
X171962619Y-134942261D01*
X172057857Y-134989880D01*
X172248333Y-135037500D01*
X172486428Y-135037500D01*
X172676904Y-134989880D01*
X172772142Y-134942261D01*
X172819761Y-134894642D01*
X172867380Y-134799404D01*
X172867380Y-134704166D01*
X172819761Y-134608928D01*
X172772142Y-134561309D01*
X172676904Y-134513690D01*
X172486428Y-134466071D01*
X172248333Y-134466071D01*
X172057857Y-134513690D01*
X171962619Y-134561309D01*
X171915000Y-134608928D01*
X171867380Y-134704166D01*
X171962619Y-135418452D02*
X171915000Y-135466071D01*
X171867380Y-135561309D01*
X171867380Y-135799404D01*
X171915000Y-135894642D01*
X171962619Y-135942261D01*
X172057857Y-135989880D01*
X172153095Y-135989880D01*
X172295952Y-135942261D01*
X172867380Y-135370833D01*
X172867380Y-135989880D01*
X172105476Y-137989880D02*
X172057857Y-137894642D01*
X172057857Y-137704166D01*
X172105476Y-137608928D01*
X172200714Y-137513690D01*
X172295952Y-137466071D01*
X172486428Y-137466071D01*
X172581666Y-137513690D01*
X172676904Y-137608928D01*
X172724523Y-137704166D01*
X172724523Y-137894642D01*
X172676904Y-137989880D01*
X171724523Y-137799404D02*
X171772142Y-137561309D01*
X171915000Y-137323214D01*
X172153095Y-137180357D01*
X172391190Y-137132738D01*
X172629285Y-137180357D01*
X172867380Y-137323214D01*
X173010238Y-137561309D01*
X173057857Y-137799404D01*
X173010238Y-138037499D01*
X172867380Y-138275595D01*
X172629285Y-138418452D01*
X172391190Y-138466071D01*
X172153095Y-138418452D01*
X171915000Y-138275595D01*
X171772142Y-138037499D01*
X171724523Y-137799404D01*
X172867380Y-139656547D02*
X171867380Y-139656547D01*
X172200714Y-140132738D02*
X172867380Y-140132738D01*
X172295952Y-140132738D02*
X172248333Y-140180357D01*
X172200714Y-140275595D01*
X172200714Y-140418452D01*
X172248333Y-140513690D01*
X172343571Y-140561309D01*
X172867380Y-140561309D01*
X172200714Y-141466071D02*
X173010238Y-141466071D01*
X173105476Y-141418452D01*
X173153095Y-141370833D01*
X173200714Y-141275595D01*
X173200714Y-141132738D01*
X173153095Y-141037499D01*
X172819761Y-141466071D02*
X172867380Y-141370833D01*
X172867380Y-141180357D01*
X172819761Y-141085119D01*
X172772142Y-141037499D01*
X172676904Y-140989880D01*
X172391190Y-140989880D01*
X172295952Y-141037499D01*
X172248333Y-141085119D01*
X172200714Y-141180357D01*
X172200714Y-141370833D01*
X172248333Y-141466071D01*
X172486428Y-141942261D02*
X172486428Y-142704166D01*
X172867380Y-143180357D02*
X171867380Y-143180357D01*
X171867380Y-143418452D01*
X171915000Y-143561309D01*
X172010238Y-143656547D01*
X172105476Y-143704166D01*
X172295952Y-143751785D01*
X172438809Y-143751785D01*
X172629285Y-143704166D01*
X172724523Y-143656547D01*
X172819761Y-143561309D01*
X172867380Y-143418452D01*
X172867380Y-143180357D01*
X172867380Y-144323214D02*
X172819761Y-144227976D01*
X172772142Y-144180357D01*
X172676904Y-144132738D01*
X172391190Y-144132738D01*
X172295952Y-144180357D01*
X172248333Y-144227976D01*
X172200714Y-144323214D01*
X172200714Y-144466071D01*
X172248333Y-144561309D01*
X172295952Y-144608928D01*
X172391190Y-144656547D01*
X172676904Y-144656547D01*
X172772142Y-144608928D01*
X172819761Y-144561309D01*
X172867380Y-144466071D01*
X172867380Y-144323214D01*
X172867380Y-145085119D02*
X172200714Y-145085119D01*
X172295952Y-145085119D02*
X172248333Y-145132738D01*
X172200714Y-145227976D01*
X172200714Y-145370833D01*
X172248333Y-145466071D01*
X172343571Y-145513690D01*
X172867380Y-145513690D01*
X172343571Y-145513690D02*
X172248333Y-145561309D01*
X172200714Y-145656547D01*
X172200714Y-145799404D01*
X172248333Y-145894642D01*
X172343571Y-145942261D01*
X172867380Y-145942261D01*
X172819761Y-146466071D02*
X172867380Y-146466071D01*
X172962619Y-146418452D01*
X173010238Y-146370833D01*
X171962619Y-147608928D02*
X171915000Y-147656547D01*
X171867380Y-147751785D01*
X171867380Y-147989880D01*
X171915000Y-148085119D01*
X171962619Y-148132738D01*
X172057857Y-148180357D01*
X172153095Y-148180357D01*
X172295952Y-148132738D01*
X172867380Y-147561309D01*
X172867380Y-148180357D01*
X171867380Y-148799404D02*
X171867380Y-148894642D01*
X171915000Y-148989880D01*
X171962619Y-149037499D01*
X172057857Y-149085119D01*
X172248333Y-149132738D01*
X172486428Y-149132738D01*
X172676904Y-149085119D01*
X172772142Y-149037499D01*
X172819761Y-148989880D01*
X172867380Y-148894642D01*
X172867380Y-148799404D01*
X172819761Y-148704166D01*
X172772142Y-148656547D01*
X172676904Y-148608928D01*
X172486428Y-148561309D01*
X172248333Y-148561309D01*
X172057857Y-148608928D01*
X171962619Y-148656547D01*
X171915000Y-148704166D01*
X171867380Y-148799404D01*
X171962619Y-149513690D02*
X171915000Y-149561309D01*
X171867380Y-149656547D01*
X171867380Y-149894642D01*
X171915000Y-149989880D01*
X171962619Y-150037499D01*
X172057857Y-150085119D01*
X172153095Y-150085119D01*
X172295952Y-150037499D01*
X172867380Y-149466071D01*
X172867380Y-150085119D01*
X171962619Y-150466071D02*
X171915000Y-150513690D01*
X171867380Y-150608928D01*
X171867380Y-150847023D01*
X171915000Y-150942261D01*
X171962619Y-150989880D01*
X172057857Y-151037499D01*
X172153095Y-151037499D01*
X172295952Y-150989880D01*
X172867380Y-150418452D01*
X172867380Y-151037499D01*
X151217380Y-131847023D02*
X150741190Y-131513690D01*
X151217380Y-131275595D02*
X150217380Y-131275595D01*
X150217380Y-131656547D01*
X150265000Y-131751785D01*
X150312619Y-131799404D01*
X150407857Y-131847023D01*
X150550714Y-131847023D01*
X150645952Y-131799404D01*
X150693571Y-131751785D01*
X150741190Y-131656547D01*
X150741190Y-131275595D01*
X150693571Y-132275595D02*
X150693571Y-132608928D01*
X151217380Y-132751785D02*
X151217380Y-132275595D01*
X150217380Y-132275595D01*
X150217380Y-132751785D01*
X150265000Y-133704166D02*
X150217380Y-133608928D01*
X150217380Y-133466071D01*
X150265000Y-133323214D01*
X150360238Y-133227976D01*
X150455476Y-133180357D01*
X150645952Y-133132738D01*
X150788809Y-133132738D01*
X150979285Y-133180357D01*
X151074523Y-133227976D01*
X151169761Y-133323214D01*
X151217380Y-133466071D01*
X151217380Y-133561309D01*
X151169761Y-133704166D01*
X151122142Y-133751785D01*
X150788809Y-133751785D01*
X150788809Y-133561309D01*
X151217380Y-134704166D02*
X151217380Y-134132738D01*
X151217380Y-134418452D02*
X150217380Y-134418452D01*
X150360238Y-134323214D01*
X150455476Y-134227976D01*
X150503095Y-134132738D01*
X150836428Y-135132738D02*
X150836428Y-135894642D01*
X150693571Y-136704166D02*
X150693571Y-136370833D01*
X151217380Y-136370833D02*
X150217380Y-136370833D01*
X150217380Y-136847023D01*
X151217380Y-137227976D02*
X150550714Y-137227976D01*
X150741190Y-137227976D02*
X150645952Y-137275595D01*
X150598333Y-137323214D01*
X150550714Y-137418452D01*
X150550714Y-137513690D01*
X151217380Y-137989880D02*
X151169761Y-137894642D01*
X151122142Y-137847023D01*
X151026904Y-137799404D01*
X150741190Y-137799404D01*
X150645952Y-137847023D01*
X150598333Y-137894642D01*
X150550714Y-137989880D01*
X150550714Y-138132738D01*
X150598333Y-138227976D01*
X150645952Y-138275595D01*
X150741190Y-138323214D01*
X151026904Y-138323214D01*
X151122142Y-138275595D01*
X151169761Y-138227976D01*
X151217380Y-138132738D01*
X151217380Y-137989880D01*
X150550714Y-138751785D02*
X151217380Y-138751785D01*
X150645952Y-138751785D02*
X150598333Y-138799404D01*
X150550714Y-138894642D01*
X150550714Y-139037500D01*
X150598333Y-139132738D01*
X150693571Y-139180357D01*
X151217380Y-139180357D01*
X150550714Y-139513690D02*
X150550714Y-139894642D01*
X150217380Y-139656547D02*
X151074523Y-139656547D01*
X151169761Y-139704166D01*
X151217380Y-139799404D01*
X151217380Y-139894642D01*
X150836428Y-140227976D02*
X150836428Y-140989880D01*
X150217380Y-141466071D02*
X151026904Y-141466071D01*
X151122142Y-141513690D01*
X151169761Y-141561309D01*
X151217380Y-141656547D01*
X151217380Y-141847023D01*
X151169761Y-141942261D01*
X151122142Y-141989880D01*
X151026904Y-142037500D01*
X150217380Y-142037500D01*
X150550714Y-142513690D02*
X151217380Y-142513690D01*
X150645952Y-142513690D02*
X150598333Y-142561309D01*
X150550714Y-142656547D01*
X150550714Y-142799404D01*
X150598333Y-142894642D01*
X150693571Y-142942261D01*
X151217380Y-142942261D01*
X151217380Y-143418452D02*
X150550714Y-143418452D01*
X150217380Y-143418452D02*
X150265000Y-143370833D01*
X150312619Y-143418452D01*
X150265000Y-143466071D01*
X150217380Y-143418452D01*
X150312619Y-143418452D01*
X150550714Y-143799404D02*
X151217380Y-144037500D01*
X150550714Y-144275595D01*
X151169761Y-145037500D02*
X151217380Y-144942261D01*
X151217380Y-144751785D01*
X151169761Y-144656547D01*
X151074523Y-144608928D01*
X150693571Y-144608928D01*
X150598333Y-144656547D01*
X150550714Y-144751785D01*
X150550714Y-144942261D01*
X150598333Y-145037500D01*
X150693571Y-145085119D01*
X150788809Y-145085119D01*
X150884047Y-144608928D01*
X151217380Y-145513690D02*
X150550714Y-145513690D01*
X150741190Y-145513690D02*
X150645952Y-145561309D01*
X150598333Y-145608928D01*
X150550714Y-145704166D01*
X150550714Y-145799404D01*
X151169761Y-146085119D02*
X151217380Y-146180357D01*
X151217380Y-146370833D01*
X151169761Y-146466071D01*
X151074523Y-146513690D01*
X151026904Y-146513690D01*
X150931666Y-146466071D01*
X150884047Y-146370833D01*
X150884047Y-146227976D01*
X150836428Y-146132738D01*
X150741190Y-146085119D01*
X150693571Y-146085119D01*
X150598333Y-146132738D01*
X150550714Y-146227976D01*
X150550714Y-146370833D01*
X150598333Y-146466071D01*
X151217380Y-147370833D02*
X150693571Y-147370833D01*
X150598333Y-147323214D01*
X150550714Y-147227976D01*
X150550714Y-147037500D01*
X150598333Y-146942261D01*
X151169761Y-147370833D02*
X151217380Y-147275595D01*
X151217380Y-147037500D01*
X151169761Y-146942261D01*
X151074523Y-146894642D01*
X150979285Y-146894642D01*
X150884047Y-146942261D01*
X150836428Y-147037500D01*
X150836428Y-147275595D01*
X150788809Y-147370833D01*
X151217380Y-147989880D02*
X151169761Y-147894642D01*
X151074523Y-147847023D01*
X150217380Y-147847023D01*
X151867380Y-131132738D02*
X152867380Y-131466071D01*
X151867380Y-131799404D01*
X151867380Y-132323214D02*
X151867380Y-132418452D01*
X151915000Y-132513690D01*
X151962619Y-132561309D01*
X152057857Y-132608928D01*
X152248333Y-132656547D01*
X152486428Y-132656547D01*
X152676904Y-132608928D01*
X152772142Y-132561309D01*
X152819761Y-132513690D01*
X152867380Y-132418452D01*
X152867380Y-132323214D01*
X152819761Y-132227976D01*
X152772142Y-132180357D01*
X152676904Y-132132738D01*
X152486428Y-132085119D01*
X152248333Y-132085119D01*
X152057857Y-132132738D01*
X151962619Y-132180357D01*
X151915000Y-132227976D01*
X151867380Y-132323214D01*
X151867380Y-133275595D02*
X151867380Y-133370833D01*
X151915000Y-133466071D01*
X151962619Y-133513690D01*
X152057857Y-133561309D01*
X152248333Y-133608928D01*
X152486428Y-133608928D01*
X152676904Y-133561309D01*
X152772142Y-133513690D01*
X152819761Y-133466071D01*
X152867380Y-133370833D01*
X152867380Y-133275595D01*
X152819761Y-133180357D01*
X152772142Y-133132738D01*
X152676904Y-133085119D01*
X152486428Y-133037500D01*
X152248333Y-133037500D01*
X152057857Y-133085119D01*
X151962619Y-133132738D01*
X151915000Y-133180357D01*
X151867380Y-133275595D01*
X152772142Y-134037500D02*
X152819761Y-134085119D01*
X152867380Y-134037500D01*
X152819761Y-133989880D01*
X152772142Y-134037500D01*
X152867380Y-134037500D01*
X151867380Y-134704166D02*
X151867380Y-134799404D01*
X151915000Y-134894642D01*
X151962619Y-134942261D01*
X152057857Y-134989880D01*
X152248333Y-135037500D01*
X152486428Y-135037500D01*
X152676904Y-134989880D01*
X152772142Y-134942261D01*
X152819761Y-134894642D01*
X152867380Y-134799404D01*
X152867380Y-134704166D01*
X152819761Y-134608928D01*
X152772142Y-134561309D01*
X152676904Y-134513690D01*
X152486428Y-134466071D01*
X152248333Y-134466071D01*
X152057857Y-134513690D01*
X151962619Y-134561309D01*
X151915000Y-134608928D01*
X151867380Y-134704166D01*
X151962619Y-135418452D02*
X151915000Y-135466071D01*
X151867380Y-135561309D01*
X151867380Y-135799404D01*
X151915000Y-135894642D01*
X151962619Y-135942261D01*
X152057857Y-135989880D01*
X152153095Y-135989880D01*
X152295952Y-135942261D01*
X152867380Y-135370833D01*
X152867380Y-135989880D01*
X152105476Y-137989880D02*
X152057857Y-137894642D01*
X152057857Y-137704166D01*
X152105476Y-137608928D01*
X152200714Y-137513690D01*
X152295952Y-137466071D01*
X152486428Y-137466071D01*
X152581666Y-137513690D01*
X152676904Y-137608928D01*
X152724523Y-137704166D01*
X152724523Y-137894642D01*
X152676904Y-137989880D01*
X151724523Y-137799404D02*
X151772142Y-137561309D01*
X151915000Y-137323214D01*
X152153095Y-137180357D01*
X152391190Y-137132738D01*
X152629285Y-137180357D01*
X152867380Y-137323214D01*
X153010238Y-137561309D01*
X153057857Y-137799404D01*
X153010238Y-138037500D01*
X152867380Y-138275595D01*
X152629285Y-138418452D01*
X152391190Y-138466071D01*
X152153095Y-138418452D01*
X151915000Y-138275595D01*
X151772142Y-138037500D01*
X151724523Y-137799404D01*
X152867380Y-139656547D02*
X151867380Y-139656547D01*
X152200714Y-140132738D02*
X152867380Y-140132738D01*
X152295952Y-140132738D02*
X152248333Y-140180357D01*
X152200714Y-140275595D01*
X152200714Y-140418452D01*
X152248333Y-140513690D01*
X152343571Y-140561309D01*
X152867380Y-140561309D01*
X152200714Y-141466071D02*
X153010238Y-141466071D01*
X153105476Y-141418452D01*
X153153095Y-141370833D01*
X153200714Y-141275595D01*
X153200714Y-141132738D01*
X153153095Y-141037500D01*
X152819761Y-141466071D02*
X152867380Y-141370833D01*
X152867380Y-141180357D01*
X152819761Y-141085119D01*
X152772142Y-141037500D01*
X152676904Y-140989880D01*
X152391190Y-140989880D01*
X152295952Y-141037500D01*
X152248333Y-141085119D01*
X152200714Y-141180357D01*
X152200714Y-141370833D01*
X152248333Y-141466071D01*
X152486428Y-141942261D02*
X152486428Y-142704166D01*
X152867380Y-143180357D02*
X151867380Y-143180357D01*
X151867380Y-143418452D01*
X151915000Y-143561309D01*
X152010238Y-143656547D01*
X152105476Y-143704166D01*
X152295952Y-143751785D01*
X152438809Y-143751785D01*
X152629285Y-143704166D01*
X152724523Y-143656547D01*
X152819761Y-143561309D01*
X152867380Y-143418452D01*
X152867380Y-143180357D01*
X152867380Y-144323214D02*
X152819761Y-144227976D01*
X152772142Y-144180357D01*
X152676904Y-144132738D01*
X152391190Y-144132738D01*
X152295952Y-144180357D01*
X152248333Y-144227976D01*
X152200714Y-144323214D01*
X152200714Y-144466071D01*
X152248333Y-144561309D01*
X152295952Y-144608928D01*
X152391190Y-144656547D01*
X152676904Y-144656547D01*
X152772142Y-144608928D01*
X152819761Y-144561309D01*
X152867380Y-144466071D01*
X152867380Y-144323214D01*
X152867380Y-145085119D02*
X152200714Y-145085119D01*
X152295952Y-145085119D02*
X152248333Y-145132738D01*
X152200714Y-145227976D01*
X152200714Y-145370833D01*
X152248333Y-145466071D01*
X152343571Y-145513690D01*
X152867380Y-145513690D01*
X152343571Y-145513690D02*
X152248333Y-145561309D01*
X152200714Y-145656547D01*
X152200714Y-145799404D01*
X152248333Y-145894642D01*
X152343571Y-145942261D01*
X152867380Y-145942261D01*
X152819761Y-146466071D02*
X152867380Y-146466071D01*
X152962619Y-146418452D01*
X153010238Y-146370833D01*
X151962619Y-147608928D02*
X151915000Y-147656547D01*
X151867380Y-147751785D01*
X151867380Y-147989880D01*
X151915000Y-148085119D01*
X151962619Y-148132738D01*
X152057857Y-148180357D01*
X152153095Y-148180357D01*
X152295952Y-148132738D01*
X152867380Y-147561309D01*
X152867380Y-148180357D01*
X151867380Y-148799404D02*
X151867380Y-148894642D01*
X151915000Y-148989880D01*
X151962619Y-149037500D01*
X152057857Y-149085119D01*
X152248333Y-149132738D01*
X152486428Y-149132738D01*
X152676904Y-149085119D01*
X152772142Y-149037500D01*
X152819761Y-148989880D01*
X152867380Y-148894642D01*
X152867380Y-148799404D01*
X152819761Y-148704166D01*
X152772142Y-148656547D01*
X152676904Y-148608928D01*
X152486428Y-148561309D01*
X152248333Y-148561309D01*
X152057857Y-148608928D01*
X151962619Y-148656547D01*
X151915000Y-148704166D01*
X151867380Y-148799404D01*
X151962619Y-149513690D02*
X151915000Y-149561309D01*
X151867380Y-149656547D01*
X151867380Y-149894642D01*
X151915000Y-149989880D01*
X151962619Y-150037500D01*
X152057857Y-150085119D01*
X152153095Y-150085119D01*
X152295952Y-150037500D01*
X152867380Y-149466071D01*
X152867380Y-150085119D01*
X151962619Y-150466071D02*
X151915000Y-150513690D01*
X151867380Y-150608928D01*
X151867380Y-150847023D01*
X151915000Y-150942261D01*
X151962619Y-150989880D01*
X152057857Y-151037500D01*
X152153095Y-151037500D01*
X152295952Y-150989880D01*
X152867380Y-150418452D01*
X152867380Y-151037500D01*
X131217380Y-131847023D02*
X130741190Y-131513690D01*
X131217380Y-131275595D02*
X130217380Y-131275595D01*
X130217380Y-131656547D01*
X130265000Y-131751785D01*
X130312619Y-131799404D01*
X130407857Y-131847023D01*
X130550714Y-131847023D01*
X130645952Y-131799404D01*
X130693571Y-131751785D01*
X130741190Y-131656547D01*
X130741190Y-131275595D01*
X130693571Y-132275595D02*
X130693571Y-132608928D01*
X131217380Y-132751785D02*
X131217380Y-132275595D01*
X130217380Y-132275595D01*
X130217380Y-132751785D01*
X130265000Y-133704166D02*
X130217380Y-133608928D01*
X130217380Y-133466071D01*
X130265000Y-133323214D01*
X130360238Y-133227976D01*
X130455476Y-133180357D01*
X130645952Y-133132738D01*
X130788809Y-133132738D01*
X130979285Y-133180357D01*
X131074523Y-133227976D01*
X131169761Y-133323214D01*
X131217380Y-133466071D01*
X131217380Y-133561309D01*
X131169761Y-133704166D01*
X131122142Y-133751785D01*
X130788809Y-133751785D01*
X130788809Y-133561309D01*
X131217380Y-134704166D02*
X131217380Y-134132738D01*
X131217380Y-134418452D02*
X130217380Y-134418452D01*
X130360238Y-134323214D01*
X130455476Y-134227976D01*
X130503095Y-134132738D01*
X130836428Y-135132738D02*
X130836428Y-135894642D01*
X130693571Y-136704166D02*
X130693571Y-136370833D01*
X131217380Y-136370833D02*
X130217380Y-136370833D01*
X130217380Y-136847023D01*
X131217380Y-137227976D02*
X130550714Y-137227976D01*
X130741190Y-137227976D02*
X130645952Y-137275595D01*
X130598333Y-137323214D01*
X130550714Y-137418452D01*
X130550714Y-137513690D01*
X131217380Y-137989880D02*
X131169761Y-137894642D01*
X131122142Y-137847023D01*
X131026904Y-137799404D01*
X130741190Y-137799404D01*
X130645952Y-137847023D01*
X130598333Y-137894642D01*
X130550714Y-137989880D01*
X130550714Y-138132738D01*
X130598333Y-138227976D01*
X130645952Y-138275595D01*
X130741190Y-138323214D01*
X131026904Y-138323214D01*
X131122142Y-138275595D01*
X131169761Y-138227976D01*
X131217380Y-138132738D01*
X131217380Y-137989880D01*
X130550714Y-138751785D02*
X131217380Y-138751785D01*
X130645952Y-138751785D02*
X130598333Y-138799404D01*
X130550714Y-138894642D01*
X130550714Y-139037500D01*
X130598333Y-139132738D01*
X130693571Y-139180357D01*
X131217380Y-139180357D01*
X130550714Y-139513690D02*
X130550714Y-139894642D01*
X130217380Y-139656547D02*
X131074523Y-139656547D01*
X131169761Y-139704166D01*
X131217380Y-139799404D01*
X131217380Y-139894642D01*
X130836428Y-140227976D02*
X130836428Y-140989880D01*
X130217380Y-141466071D02*
X131026904Y-141466071D01*
X131122142Y-141513690D01*
X131169761Y-141561309D01*
X131217380Y-141656547D01*
X131217380Y-141847023D01*
X131169761Y-141942261D01*
X131122142Y-141989880D01*
X131026904Y-142037500D01*
X130217380Y-142037500D01*
X130550714Y-142513690D02*
X131217380Y-142513690D01*
X130645952Y-142513690D02*
X130598333Y-142561309D01*
X130550714Y-142656547D01*
X130550714Y-142799404D01*
X130598333Y-142894642D01*
X130693571Y-142942261D01*
X131217380Y-142942261D01*
X131217380Y-143418452D02*
X130550714Y-143418452D01*
X130217380Y-143418452D02*
X130265000Y-143370833D01*
X130312619Y-143418452D01*
X130265000Y-143466071D01*
X130217380Y-143418452D01*
X130312619Y-143418452D01*
X130550714Y-143799404D02*
X131217380Y-144037500D01*
X130550714Y-144275595D01*
X131169761Y-145037500D02*
X131217380Y-144942261D01*
X131217380Y-144751785D01*
X131169761Y-144656547D01*
X131074523Y-144608928D01*
X130693571Y-144608928D01*
X130598333Y-144656547D01*
X130550714Y-144751785D01*
X130550714Y-144942261D01*
X130598333Y-145037500D01*
X130693571Y-145085119D01*
X130788809Y-145085119D01*
X130884047Y-144608928D01*
X131217380Y-145513690D02*
X130550714Y-145513690D01*
X130741190Y-145513690D02*
X130645952Y-145561309D01*
X130598333Y-145608928D01*
X130550714Y-145704166D01*
X130550714Y-145799404D01*
X131169761Y-146085119D02*
X131217380Y-146180357D01*
X131217380Y-146370833D01*
X131169761Y-146466071D01*
X131074523Y-146513690D01*
X131026904Y-146513690D01*
X130931666Y-146466071D01*
X130884047Y-146370833D01*
X130884047Y-146227976D01*
X130836428Y-146132738D01*
X130741190Y-146085119D01*
X130693571Y-146085119D01*
X130598333Y-146132738D01*
X130550714Y-146227976D01*
X130550714Y-146370833D01*
X130598333Y-146466071D01*
X131217380Y-147370833D02*
X130693571Y-147370833D01*
X130598333Y-147323214D01*
X130550714Y-147227976D01*
X130550714Y-147037500D01*
X130598333Y-146942261D01*
X131169761Y-147370833D02*
X131217380Y-147275595D01*
X131217380Y-147037500D01*
X131169761Y-146942261D01*
X131074523Y-146894642D01*
X130979285Y-146894642D01*
X130884047Y-146942261D01*
X130836428Y-147037500D01*
X130836428Y-147275595D01*
X130788809Y-147370833D01*
X131217380Y-147989880D02*
X131169761Y-147894642D01*
X131074523Y-147847023D01*
X130217380Y-147847023D01*
X131867380Y-131132738D02*
X132867380Y-131466071D01*
X131867380Y-131799404D01*
X131867380Y-132323214D02*
X131867380Y-132418452D01*
X131915000Y-132513690D01*
X131962619Y-132561309D01*
X132057857Y-132608928D01*
X132248333Y-132656547D01*
X132486428Y-132656547D01*
X132676904Y-132608928D01*
X132772142Y-132561309D01*
X132819761Y-132513690D01*
X132867380Y-132418452D01*
X132867380Y-132323214D01*
X132819761Y-132227976D01*
X132772142Y-132180357D01*
X132676904Y-132132738D01*
X132486428Y-132085119D01*
X132248333Y-132085119D01*
X132057857Y-132132738D01*
X131962619Y-132180357D01*
X131915000Y-132227976D01*
X131867380Y-132323214D01*
X131867380Y-133275595D02*
X131867380Y-133370833D01*
X131915000Y-133466071D01*
X131962619Y-133513690D01*
X132057857Y-133561309D01*
X132248333Y-133608928D01*
X132486428Y-133608928D01*
X132676904Y-133561309D01*
X132772142Y-133513690D01*
X132819761Y-133466071D01*
X132867380Y-133370833D01*
X132867380Y-133275595D01*
X132819761Y-133180357D01*
X132772142Y-133132738D01*
X132676904Y-133085119D01*
X132486428Y-133037500D01*
X132248333Y-133037500D01*
X132057857Y-133085119D01*
X131962619Y-133132738D01*
X131915000Y-133180357D01*
X131867380Y-133275595D01*
X132772142Y-134037500D02*
X132819761Y-134085119D01*
X132867380Y-134037500D01*
X132819761Y-133989880D01*
X132772142Y-134037500D01*
X132867380Y-134037500D01*
X131867380Y-134704166D02*
X131867380Y-134799404D01*
X131915000Y-134894642D01*
X131962619Y-134942261D01*
X132057857Y-134989880D01*
X132248333Y-135037500D01*
X132486428Y-135037500D01*
X132676904Y-134989880D01*
X132772142Y-134942261D01*
X132819761Y-134894642D01*
X132867380Y-134799404D01*
X132867380Y-134704166D01*
X132819761Y-134608928D01*
X132772142Y-134561309D01*
X132676904Y-134513690D01*
X132486428Y-134466071D01*
X132248333Y-134466071D01*
X132057857Y-134513690D01*
X131962619Y-134561309D01*
X131915000Y-134608928D01*
X131867380Y-134704166D01*
X131962619Y-135418452D02*
X131915000Y-135466071D01*
X131867380Y-135561309D01*
X131867380Y-135799404D01*
X131915000Y-135894642D01*
X131962619Y-135942261D01*
X132057857Y-135989880D01*
X132153095Y-135989880D01*
X132295952Y-135942261D01*
X132867380Y-135370833D01*
X132867380Y-135989880D01*
X132105476Y-137989880D02*
X132057857Y-137894642D01*
X132057857Y-137704166D01*
X132105476Y-137608928D01*
X132200714Y-137513690D01*
X132295952Y-137466071D01*
X132486428Y-137466071D01*
X132581666Y-137513690D01*
X132676904Y-137608928D01*
X132724523Y-137704166D01*
X132724523Y-137894642D01*
X132676904Y-137989880D01*
X131724523Y-137799404D02*
X131772142Y-137561309D01*
X131915000Y-137323214D01*
X132153095Y-137180357D01*
X132391190Y-137132738D01*
X132629285Y-137180357D01*
X132867380Y-137323214D01*
X133010238Y-137561309D01*
X133057857Y-137799404D01*
X133010238Y-138037500D01*
X132867380Y-138275595D01*
X132629285Y-138418452D01*
X132391190Y-138466071D01*
X132153095Y-138418452D01*
X131915000Y-138275595D01*
X131772142Y-138037500D01*
X131724523Y-137799404D01*
X132867380Y-139656547D02*
X131867380Y-139656547D01*
X132200714Y-140132738D02*
X132867380Y-140132738D01*
X132295952Y-140132738D02*
X132248333Y-140180357D01*
X132200714Y-140275595D01*
X132200714Y-140418452D01*
X132248333Y-140513690D01*
X132343571Y-140561309D01*
X132867380Y-140561309D01*
X132200714Y-141466071D02*
X133010238Y-141466071D01*
X133105476Y-141418452D01*
X133153095Y-141370833D01*
X133200714Y-141275595D01*
X133200714Y-141132738D01*
X133153095Y-141037500D01*
X132819761Y-141466071D02*
X132867380Y-141370833D01*
X132867380Y-141180357D01*
X132819761Y-141085119D01*
X132772142Y-141037500D01*
X132676904Y-140989880D01*
X132391190Y-140989880D01*
X132295952Y-141037500D01*
X132248333Y-141085119D01*
X132200714Y-141180357D01*
X132200714Y-141370833D01*
X132248333Y-141466071D01*
X132486428Y-141942261D02*
X132486428Y-142704166D01*
X132867380Y-143180357D02*
X131867380Y-143180357D01*
X131867380Y-143418452D01*
X131915000Y-143561309D01*
X132010238Y-143656547D01*
X132105476Y-143704166D01*
X132295952Y-143751785D01*
X132438809Y-143751785D01*
X132629285Y-143704166D01*
X132724523Y-143656547D01*
X132819761Y-143561309D01*
X132867380Y-143418452D01*
X132867380Y-143180357D01*
X132867380Y-144323214D02*
X132819761Y-144227976D01*
X132772142Y-144180357D01*
X132676904Y-144132738D01*
X132391190Y-144132738D01*
X132295952Y-144180357D01*
X132248333Y-144227976D01*
X132200714Y-144323214D01*
X132200714Y-144466071D01*
X132248333Y-144561309D01*
X132295952Y-144608928D01*
X132391190Y-144656547D01*
X132676904Y-144656547D01*
X132772142Y-144608928D01*
X132819761Y-144561309D01*
X132867380Y-144466071D01*
X132867380Y-144323214D01*
X132867380Y-145085119D02*
X132200714Y-145085119D01*
X132295952Y-145085119D02*
X132248333Y-145132738D01*
X132200714Y-145227976D01*
X132200714Y-145370833D01*
X132248333Y-145466071D01*
X132343571Y-145513690D01*
X132867380Y-145513690D01*
X132343571Y-145513690D02*
X132248333Y-145561309D01*
X132200714Y-145656547D01*
X132200714Y-145799404D01*
X132248333Y-145894642D01*
X132343571Y-145942261D01*
X132867380Y-145942261D01*
X132819761Y-146466071D02*
X132867380Y-146466071D01*
X132962619Y-146418452D01*
X133010238Y-146370833D01*
X131962619Y-147608928D02*
X131915000Y-147656547D01*
X131867380Y-147751785D01*
X131867380Y-147989880D01*
X131915000Y-148085119D01*
X131962619Y-148132738D01*
X132057857Y-148180357D01*
X132153095Y-148180357D01*
X132295952Y-148132738D01*
X132867380Y-147561309D01*
X132867380Y-148180357D01*
X131867380Y-148799404D02*
X131867380Y-148894642D01*
X131915000Y-148989880D01*
X131962619Y-149037500D01*
X132057857Y-149085119D01*
X132248333Y-149132738D01*
X132486428Y-149132738D01*
X132676904Y-149085119D01*
X132772142Y-149037500D01*
X132819761Y-148989880D01*
X132867380Y-148894642D01*
X132867380Y-148799404D01*
X132819761Y-148704166D01*
X132772142Y-148656547D01*
X132676904Y-148608928D01*
X132486428Y-148561309D01*
X132248333Y-148561309D01*
X132057857Y-148608928D01*
X131962619Y-148656547D01*
X131915000Y-148704166D01*
X131867380Y-148799404D01*
X131962619Y-149513690D02*
X131915000Y-149561309D01*
X131867380Y-149656547D01*
X131867380Y-149894642D01*
X131915000Y-149989880D01*
X131962619Y-150037500D01*
X132057857Y-150085119D01*
X132153095Y-150085119D01*
X132295952Y-150037500D01*
X132867380Y-149466071D01*
X132867380Y-150085119D01*
X131962619Y-150466071D02*
X131915000Y-150513690D01*
X131867380Y-150608928D01*
X131867380Y-150847023D01*
X131915000Y-150942261D01*
X131962619Y-150989880D01*
X132057857Y-151037500D01*
X132153095Y-151037500D01*
X132295952Y-150989880D01*
X132867380Y-150418452D01*
X132867380Y-151037500D01*
X184060000Y-129539404D02*
X184012380Y-129444166D01*
X184012380Y-129301309D01*
X184060000Y-129158452D01*
X184155238Y-129063214D01*
X184250476Y-129015595D01*
X184440952Y-128967976D01*
X184583809Y-128967976D01*
X184774285Y-129015595D01*
X184869523Y-129063214D01*
X184964761Y-129158452D01*
X185012380Y-129301309D01*
X185012380Y-129396547D01*
X184964761Y-129539404D01*
X184917142Y-129587023D01*
X184583809Y-129587023D01*
X184583809Y-129396547D01*
X185012380Y-130015595D02*
X184012380Y-130015595D01*
X184012380Y-130396547D01*
X184060000Y-130491785D01*
X184107619Y-130539404D01*
X184202857Y-130587023D01*
X184345714Y-130587023D01*
X184440952Y-130539404D01*
X184488571Y-130491785D01*
X184536190Y-130396547D01*
X184536190Y-130015595D01*
X184107619Y-130967976D02*
X184060000Y-131015595D01*
X184012380Y-131110833D01*
X184012380Y-131348928D01*
X184060000Y-131444166D01*
X184107619Y-131491785D01*
X184202857Y-131539404D01*
X184298095Y-131539404D01*
X184440952Y-131491785D01*
X185012380Y-130920357D01*
X185012380Y-131539404D01*
X184345714Y-132396547D02*
X185012380Y-132396547D01*
X183964761Y-132158452D02*
X184679047Y-131920357D01*
X184679047Y-132539404D01*
X164060000Y-129539404D02*
X164012380Y-129444166D01*
X164012380Y-129301309D01*
X164060000Y-129158452D01*
X164155238Y-129063214D01*
X164250476Y-129015595D01*
X164440952Y-128967976D01*
X164583809Y-128967976D01*
X164774285Y-129015595D01*
X164869523Y-129063214D01*
X164964761Y-129158452D01*
X165012380Y-129301309D01*
X165012380Y-129396547D01*
X164964761Y-129539404D01*
X164917142Y-129587023D01*
X164583809Y-129587023D01*
X164583809Y-129396547D01*
X165012380Y-130015595D02*
X164012380Y-130015595D01*
X164012380Y-130396547D01*
X164060000Y-130491785D01*
X164107619Y-130539404D01*
X164202857Y-130587023D01*
X164345714Y-130587023D01*
X164440952Y-130539404D01*
X164488571Y-130491785D01*
X164536190Y-130396547D01*
X164536190Y-130015595D01*
X164107619Y-130967976D02*
X164060000Y-131015595D01*
X164012380Y-131110833D01*
X164012380Y-131348928D01*
X164060000Y-131444166D01*
X164107619Y-131491785D01*
X164202857Y-131539404D01*
X164298095Y-131539404D01*
X164440952Y-131491785D01*
X165012380Y-130920357D01*
X165012380Y-131539404D01*
X164345714Y-132396547D02*
X165012380Y-132396547D01*
X163964761Y-132158452D02*
X164679047Y-131920357D01*
X164679047Y-132539404D01*
X144060000Y-129539404D02*
X144012380Y-129444166D01*
X144012380Y-129301309D01*
X144060000Y-129158452D01*
X144155238Y-129063214D01*
X144250476Y-129015595D01*
X144440952Y-128967976D01*
X144583809Y-128967976D01*
X144774285Y-129015595D01*
X144869523Y-129063214D01*
X144964761Y-129158452D01*
X145012380Y-129301309D01*
X145012380Y-129396547D01*
X144964761Y-129539404D01*
X144917142Y-129587023D01*
X144583809Y-129587023D01*
X144583809Y-129396547D01*
X145012380Y-130015595D02*
X144012380Y-130015595D01*
X144012380Y-130396547D01*
X144060000Y-130491785D01*
X144107619Y-130539404D01*
X144202857Y-130587023D01*
X144345714Y-130587023D01*
X144440952Y-130539404D01*
X144488571Y-130491785D01*
X144536190Y-130396547D01*
X144536190Y-130015595D01*
X144107619Y-130967976D02*
X144060000Y-131015595D01*
X144012380Y-131110833D01*
X144012380Y-131348928D01*
X144060000Y-131444166D01*
X144107619Y-131491785D01*
X144202857Y-131539404D01*
X144298095Y-131539404D01*
X144440952Y-131491785D01*
X145012380Y-130920357D01*
X145012380Y-131539404D01*
X144345714Y-132396547D02*
X145012380Y-132396547D01*
X143964761Y-132158452D02*
X144679047Y-131920357D01*
X144679047Y-132539404D01*
X124060000Y-129539404D02*
X124012380Y-129444166D01*
X124012380Y-129301309D01*
X124060000Y-129158452D01*
X124155238Y-129063214D01*
X124250476Y-129015595D01*
X124440952Y-128967976D01*
X124583809Y-128967976D01*
X124774285Y-129015595D01*
X124869523Y-129063214D01*
X124964761Y-129158452D01*
X125012380Y-129301309D01*
X125012380Y-129396547D01*
X124964761Y-129539404D01*
X124917142Y-129587023D01*
X124583809Y-129587023D01*
X124583809Y-129396547D01*
X125012380Y-130015595D02*
X124012380Y-130015595D01*
X124012380Y-130396547D01*
X124060000Y-130491785D01*
X124107619Y-130539404D01*
X124202857Y-130587023D01*
X124345714Y-130587023D01*
X124440952Y-130539404D01*
X124488571Y-130491785D01*
X124536190Y-130396547D01*
X124536190Y-130015595D01*
X124107619Y-130967976D02*
X124060000Y-131015595D01*
X124012380Y-131110833D01*
X124012380Y-131348928D01*
X124060000Y-131444166D01*
X124107619Y-131491785D01*
X124202857Y-131539404D01*
X124298095Y-131539404D01*
X124440952Y-131491785D01*
X125012380Y-130920357D01*
X125012380Y-131539404D01*
X124345714Y-132396547D02*
X125012380Y-132396547D01*
X123964761Y-132158452D02*
X124679047Y-131920357D01*
X124679047Y-132539404D01*
X186160000Y-118942023D02*
X186112380Y-118846785D01*
X186112380Y-118703928D01*
X186160000Y-118561071D01*
X186255238Y-118465833D01*
X186350476Y-118418214D01*
X186540952Y-118370595D01*
X186683809Y-118370595D01*
X186874285Y-118418214D01*
X186969523Y-118465833D01*
X187064761Y-118561071D01*
X187112380Y-118703928D01*
X187112380Y-118799166D01*
X187064761Y-118942023D01*
X187017142Y-118989642D01*
X186683809Y-118989642D01*
X186683809Y-118799166D01*
X187112380Y-119418214D02*
X186112380Y-119418214D01*
X186112380Y-119799166D01*
X186160000Y-119894404D01*
X186207619Y-119942023D01*
X186302857Y-119989642D01*
X186445714Y-119989642D01*
X186540952Y-119942023D01*
X186588571Y-119894404D01*
X186636190Y-119799166D01*
X186636190Y-119418214D01*
X186112380Y-120322976D02*
X186112380Y-120942023D01*
X186493333Y-120608690D01*
X186493333Y-120751547D01*
X186540952Y-120846785D01*
X186588571Y-120894404D01*
X186683809Y-120942023D01*
X186921904Y-120942023D01*
X187017142Y-120894404D01*
X187064761Y-120846785D01*
X187112380Y-120751547D01*
X187112380Y-120465833D01*
X187064761Y-120370595D01*
X187017142Y-120322976D01*
X166160000Y-118942023D02*
X166112380Y-118846785D01*
X166112380Y-118703928D01*
X166160000Y-118561071D01*
X166255238Y-118465833D01*
X166350476Y-118418214D01*
X166540952Y-118370595D01*
X166683809Y-118370595D01*
X166874285Y-118418214D01*
X166969523Y-118465833D01*
X167064761Y-118561071D01*
X167112380Y-118703928D01*
X167112380Y-118799166D01*
X167064761Y-118942023D01*
X167017142Y-118989642D01*
X166683809Y-118989642D01*
X166683809Y-118799166D01*
X167112380Y-119418214D02*
X166112380Y-119418214D01*
X166112380Y-119799166D01*
X166160000Y-119894404D01*
X166207619Y-119942023D01*
X166302857Y-119989642D01*
X166445714Y-119989642D01*
X166540952Y-119942023D01*
X166588571Y-119894404D01*
X166636190Y-119799166D01*
X166636190Y-119418214D01*
X166112380Y-120322976D02*
X166112380Y-120942023D01*
X166493333Y-120608690D01*
X166493333Y-120751547D01*
X166540952Y-120846785D01*
X166588571Y-120894404D01*
X166683809Y-120942023D01*
X166921904Y-120942023D01*
X167017142Y-120894404D01*
X167064761Y-120846785D01*
X167112380Y-120751547D01*
X167112380Y-120465833D01*
X167064761Y-120370595D01*
X167017142Y-120322976D01*
X146160000Y-118942023D02*
X146112380Y-118846785D01*
X146112380Y-118703928D01*
X146160000Y-118561071D01*
X146255238Y-118465833D01*
X146350476Y-118418214D01*
X146540952Y-118370595D01*
X146683809Y-118370595D01*
X146874285Y-118418214D01*
X146969523Y-118465833D01*
X147064761Y-118561071D01*
X147112380Y-118703928D01*
X147112380Y-118799166D01*
X147064761Y-118942023D01*
X147017142Y-118989642D01*
X146683809Y-118989642D01*
X146683809Y-118799166D01*
X147112380Y-119418214D02*
X146112380Y-119418214D01*
X146112380Y-119799166D01*
X146160000Y-119894404D01*
X146207619Y-119942023D01*
X146302857Y-119989642D01*
X146445714Y-119989642D01*
X146540952Y-119942023D01*
X146588571Y-119894404D01*
X146636190Y-119799166D01*
X146636190Y-119418214D01*
X146112380Y-120322976D02*
X146112380Y-120942023D01*
X146493333Y-120608690D01*
X146493333Y-120751547D01*
X146540952Y-120846785D01*
X146588571Y-120894404D01*
X146683809Y-120942023D01*
X146921904Y-120942023D01*
X147017142Y-120894404D01*
X147064761Y-120846785D01*
X147112380Y-120751547D01*
X147112380Y-120465833D01*
X147064761Y-120370595D01*
X147017142Y-120322976D01*
X126160000Y-118942023D02*
X126112380Y-118846785D01*
X126112380Y-118703928D01*
X126160000Y-118561071D01*
X126255238Y-118465833D01*
X126350476Y-118418214D01*
X126540952Y-118370595D01*
X126683809Y-118370595D01*
X126874285Y-118418214D01*
X126969523Y-118465833D01*
X127064761Y-118561071D01*
X127112380Y-118703928D01*
X127112380Y-118799166D01*
X127064761Y-118942023D01*
X127017142Y-118989642D01*
X126683809Y-118989642D01*
X126683809Y-118799166D01*
X127112380Y-119418214D02*
X126112380Y-119418214D01*
X126112380Y-119799166D01*
X126160000Y-119894404D01*
X126207619Y-119942023D01*
X126302857Y-119989642D01*
X126445714Y-119989642D01*
X126540952Y-119942023D01*
X126588571Y-119894404D01*
X126636190Y-119799166D01*
X126636190Y-119418214D01*
X126112380Y-120322976D02*
X126112380Y-120942023D01*
X126493333Y-120608690D01*
X126493333Y-120751547D01*
X126540952Y-120846785D01*
X126588571Y-120894404D01*
X126683809Y-120942023D01*
X126921904Y-120942023D01*
X127017142Y-120894404D01*
X127064761Y-120846785D01*
X127112380Y-120751547D01*
X127112380Y-120465833D01*
X127064761Y-120370595D01*
X127017142Y-120322976D01*
X182060000Y-118846785D02*
X182012380Y-118751547D01*
X182012380Y-118608690D01*
X182060000Y-118465833D01*
X182155238Y-118370595D01*
X182250476Y-118322976D01*
X182440952Y-118275357D01*
X182583809Y-118275357D01*
X182774285Y-118322976D01*
X182869523Y-118370595D01*
X182964761Y-118465833D01*
X183012380Y-118608690D01*
X183012380Y-118703928D01*
X182964761Y-118846785D01*
X182917142Y-118894404D01*
X182583809Y-118894404D01*
X182583809Y-118703928D01*
X183012380Y-119322976D02*
X182012380Y-119322976D01*
X183012380Y-119894404D01*
X182012380Y-119894404D01*
X183012380Y-120370595D02*
X182012380Y-120370595D01*
X182012380Y-120608690D01*
X182060000Y-120751547D01*
X182155238Y-120846785D01*
X182250476Y-120894404D01*
X182440952Y-120942023D01*
X182583809Y-120942023D01*
X182774285Y-120894404D01*
X182869523Y-120846785D01*
X182964761Y-120751547D01*
X183012380Y-120608690D01*
X183012380Y-120370595D01*
X162060000Y-118846785D02*
X162012380Y-118751547D01*
X162012380Y-118608690D01*
X162060000Y-118465833D01*
X162155238Y-118370595D01*
X162250476Y-118322976D01*
X162440952Y-118275357D01*
X162583809Y-118275357D01*
X162774285Y-118322976D01*
X162869523Y-118370595D01*
X162964761Y-118465833D01*
X163012380Y-118608690D01*
X163012380Y-118703928D01*
X162964761Y-118846785D01*
X162917142Y-118894404D01*
X162583809Y-118894404D01*
X162583809Y-118703928D01*
X163012380Y-119322976D02*
X162012380Y-119322976D01*
X163012380Y-119894404D01*
X162012380Y-119894404D01*
X163012380Y-120370595D02*
X162012380Y-120370595D01*
X162012380Y-120608690D01*
X162060000Y-120751547D01*
X162155238Y-120846785D01*
X162250476Y-120894404D01*
X162440952Y-120942023D01*
X162583809Y-120942023D01*
X162774285Y-120894404D01*
X162869523Y-120846785D01*
X162964761Y-120751547D01*
X163012380Y-120608690D01*
X163012380Y-120370595D01*
X142060000Y-118846785D02*
X142012380Y-118751547D01*
X142012380Y-118608690D01*
X142060000Y-118465833D01*
X142155238Y-118370595D01*
X142250476Y-118322976D01*
X142440952Y-118275357D01*
X142583809Y-118275357D01*
X142774285Y-118322976D01*
X142869523Y-118370595D01*
X142964761Y-118465833D01*
X143012380Y-118608690D01*
X143012380Y-118703928D01*
X142964761Y-118846785D01*
X142917142Y-118894404D01*
X142583809Y-118894404D01*
X142583809Y-118703928D01*
X143012380Y-119322976D02*
X142012380Y-119322976D01*
X143012380Y-119894404D01*
X142012380Y-119894404D01*
X143012380Y-120370595D02*
X142012380Y-120370595D01*
X142012380Y-120608690D01*
X142060000Y-120751547D01*
X142155238Y-120846785D01*
X142250476Y-120894404D01*
X142440952Y-120942023D01*
X142583809Y-120942023D01*
X142774285Y-120894404D01*
X142869523Y-120846785D01*
X142964761Y-120751547D01*
X143012380Y-120608690D01*
X143012380Y-120370595D01*
X122060000Y-118846785D02*
X122012380Y-118751547D01*
X122012380Y-118608690D01*
X122060000Y-118465833D01*
X122155238Y-118370595D01*
X122250476Y-118322976D01*
X122440952Y-118275357D01*
X122583809Y-118275357D01*
X122774285Y-118322976D01*
X122869523Y-118370595D01*
X122964761Y-118465833D01*
X123012380Y-118608690D01*
X123012380Y-118703928D01*
X122964761Y-118846785D01*
X122917142Y-118894404D01*
X122583809Y-118894404D01*
X122583809Y-118703928D01*
X123012380Y-119322976D02*
X122012380Y-119322976D01*
X123012380Y-119894404D01*
X122012380Y-119894404D01*
X123012380Y-120370595D02*
X122012380Y-120370595D01*
X122012380Y-120608690D01*
X122060000Y-120751547D01*
X122155238Y-120846785D01*
X122250476Y-120894404D01*
X122440952Y-120942023D01*
X122583809Y-120942023D01*
X122774285Y-120894404D01*
X122869523Y-120846785D01*
X122964761Y-120751547D01*
X123012380Y-120608690D01*
X123012380Y-120370595D01*
X182012380Y-129020357D02*
X182012380Y-129639404D01*
X182393333Y-129306071D01*
X182393333Y-129448928D01*
X182440952Y-129544166D01*
X182488571Y-129591785D01*
X182583809Y-129639404D01*
X182821904Y-129639404D01*
X182917142Y-129591785D01*
X182964761Y-129544166D01*
X183012380Y-129448928D01*
X183012380Y-129163214D01*
X182964761Y-129067976D01*
X182917142Y-129020357D01*
X182012380Y-129925119D02*
X183012380Y-130258452D01*
X182012380Y-130591785D01*
X182012380Y-130829880D02*
X182012380Y-131448928D01*
X182393333Y-131115595D01*
X182393333Y-131258452D01*
X182440952Y-131353690D01*
X182488571Y-131401309D01*
X182583809Y-131448928D01*
X182821904Y-131448928D01*
X182917142Y-131401309D01*
X182964761Y-131353690D01*
X183012380Y-131258452D01*
X183012380Y-130972738D01*
X182964761Y-130877500D01*
X182917142Y-130829880D01*
X162012380Y-129020357D02*
X162012380Y-129639404D01*
X162393333Y-129306071D01*
X162393333Y-129448928D01*
X162440952Y-129544166D01*
X162488571Y-129591785D01*
X162583809Y-129639404D01*
X162821904Y-129639404D01*
X162917142Y-129591785D01*
X162964761Y-129544166D01*
X163012380Y-129448928D01*
X163012380Y-129163214D01*
X162964761Y-129067976D01*
X162917142Y-129020357D01*
X162012380Y-129925119D02*
X163012380Y-130258452D01*
X162012380Y-130591785D01*
X162012380Y-130829880D02*
X162012380Y-131448928D01*
X162393333Y-131115595D01*
X162393333Y-131258452D01*
X162440952Y-131353690D01*
X162488571Y-131401309D01*
X162583809Y-131448928D01*
X162821904Y-131448928D01*
X162917142Y-131401309D01*
X162964761Y-131353690D01*
X163012380Y-131258452D01*
X163012380Y-130972738D01*
X162964761Y-130877500D01*
X162917142Y-130829880D01*
X142012380Y-129020357D02*
X142012380Y-129639404D01*
X142393333Y-129306071D01*
X142393333Y-129448928D01*
X142440952Y-129544166D01*
X142488571Y-129591785D01*
X142583809Y-129639404D01*
X142821904Y-129639404D01*
X142917142Y-129591785D01*
X142964761Y-129544166D01*
X143012380Y-129448928D01*
X143012380Y-129163214D01*
X142964761Y-129067976D01*
X142917142Y-129020357D01*
X142012380Y-129925119D02*
X143012380Y-130258452D01*
X142012380Y-130591785D01*
X142012380Y-130829880D02*
X142012380Y-131448928D01*
X142393333Y-131115595D01*
X142393333Y-131258452D01*
X142440952Y-131353690D01*
X142488571Y-131401309D01*
X142583809Y-131448928D01*
X142821904Y-131448928D01*
X142917142Y-131401309D01*
X142964761Y-131353690D01*
X143012380Y-131258452D01*
X143012380Y-130972738D01*
X142964761Y-130877500D01*
X142917142Y-130829880D01*
X122012380Y-129020357D02*
X122012380Y-129639404D01*
X122393333Y-129306071D01*
X122393333Y-129448928D01*
X122440952Y-129544166D01*
X122488571Y-129591785D01*
X122583809Y-129639404D01*
X122821904Y-129639404D01*
X122917142Y-129591785D01*
X122964761Y-129544166D01*
X123012380Y-129448928D01*
X123012380Y-129163214D01*
X122964761Y-129067976D01*
X122917142Y-129020357D01*
X122012380Y-129925119D02*
X123012380Y-130258452D01*
X122012380Y-130591785D01*
X122012380Y-130829880D02*
X122012380Y-131448928D01*
X122393333Y-131115595D01*
X122393333Y-131258452D01*
X122440952Y-131353690D01*
X122488571Y-131401309D01*
X122583809Y-131448928D01*
X122821904Y-131448928D01*
X122917142Y-131401309D01*
X122964761Y-131353690D01*
X123012380Y-131258452D01*
X123012380Y-130972738D01*
X122964761Y-130877500D01*
X122917142Y-130829880D01*
D10*
X184921904Y-118384047D02*
X184121904Y-118384047D01*
X184121904Y-118688809D01*
X184160000Y-118765000D01*
X184198095Y-118803095D01*
X184274285Y-118841190D01*
X184388571Y-118841190D01*
X184464761Y-118803095D01*
X184502857Y-118765000D01*
X184540952Y-118688809D01*
X184540952Y-118384047D01*
X184921904Y-119565000D02*
X184921904Y-119184047D01*
X184121904Y-119184047D01*
X184502857Y-119831666D02*
X184502857Y-120098333D01*
X184921904Y-120212619D02*
X184921904Y-119831666D01*
X184121904Y-119831666D01*
X184121904Y-120212619D01*
X184921904Y-120555476D02*
X184121904Y-120555476D01*
X184121904Y-120745952D01*
X184160000Y-120860238D01*
X184236190Y-120936428D01*
X184312380Y-120974523D01*
X184464761Y-121012619D01*
X184579047Y-121012619D01*
X184731428Y-120974523D01*
X184807619Y-120936428D01*
X184883809Y-120860238D01*
X184921904Y-120745952D01*
X184921904Y-120555476D01*
X164921904Y-118384047D02*
X164121904Y-118384047D01*
X164121904Y-118688809D01*
X164160000Y-118765000D01*
X164198095Y-118803095D01*
X164274285Y-118841190D01*
X164388571Y-118841190D01*
X164464761Y-118803095D01*
X164502857Y-118765000D01*
X164540952Y-118688809D01*
X164540952Y-118384047D01*
X164921904Y-119565000D02*
X164921904Y-119184047D01*
X164121904Y-119184047D01*
X164502857Y-119831666D02*
X164502857Y-120098333D01*
X164921904Y-120212619D02*
X164921904Y-119831666D01*
X164121904Y-119831666D01*
X164121904Y-120212619D01*
X164921904Y-120555476D02*
X164121904Y-120555476D01*
X164121904Y-120745952D01*
X164160000Y-120860238D01*
X164236190Y-120936428D01*
X164312380Y-120974523D01*
X164464761Y-121012619D01*
X164579047Y-121012619D01*
X164731428Y-120974523D01*
X164807619Y-120936428D01*
X164883809Y-120860238D01*
X164921904Y-120745952D01*
X164921904Y-120555476D01*
X144921904Y-118384047D02*
X144121904Y-118384047D01*
X144121904Y-118688809D01*
X144160000Y-118765000D01*
X144198095Y-118803095D01*
X144274285Y-118841190D01*
X144388571Y-118841190D01*
X144464761Y-118803095D01*
X144502857Y-118765000D01*
X144540952Y-118688809D01*
X144540952Y-118384047D01*
X144921904Y-119565000D02*
X144921904Y-119184047D01*
X144121904Y-119184047D01*
X144502857Y-119831666D02*
X144502857Y-120098333D01*
X144921904Y-120212619D02*
X144921904Y-119831666D01*
X144121904Y-119831666D01*
X144121904Y-120212619D01*
X144921904Y-120555476D02*
X144121904Y-120555476D01*
X144121904Y-120745952D01*
X144160000Y-120860238D01*
X144236190Y-120936428D01*
X144312380Y-120974523D01*
X144464761Y-121012619D01*
X144579047Y-121012619D01*
X144731428Y-120974523D01*
X144807619Y-120936428D01*
X144883809Y-120860238D01*
X144921904Y-120745952D01*
X144921904Y-120555476D01*
X124921904Y-118384047D02*
X124121904Y-118384047D01*
X124121904Y-118688809D01*
X124160000Y-118765000D01*
X124198095Y-118803095D01*
X124274285Y-118841190D01*
X124388571Y-118841190D01*
X124464761Y-118803095D01*
X124502857Y-118765000D01*
X124540952Y-118688809D01*
X124540952Y-118384047D01*
X124921904Y-119565000D02*
X124921904Y-119184047D01*
X124121904Y-119184047D01*
X124502857Y-119831666D02*
X124502857Y-120098333D01*
X124921904Y-120212619D02*
X124921904Y-119831666D01*
X124121904Y-119831666D01*
X124121904Y-120212619D01*
X124921904Y-120555476D02*
X124121904Y-120555476D01*
X124121904Y-120745952D01*
X124160000Y-120860238D01*
X124236190Y-120936428D01*
X124312380Y-120974523D01*
X124464761Y-121012619D01*
X124579047Y-121012619D01*
X124731428Y-120974523D01*
X124807619Y-120936428D01*
X124883809Y-120860238D01*
X124921904Y-120745952D01*
X124921904Y-120555476D01*
D11*
X188488571Y-129548928D02*
X188536190Y-129691785D01*
X188583809Y-129739404D01*
X188679047Y-129787023D01*
X188821904Y-129787023D01*
X188917142Y-129739404D01*
X188964761Y-129691785D01*
X189012380Y-129596547D01*
X189012380Y-129215595D01*
X188012380Y-129215595D01*
X188012380Y-129548928D01*
X188060000Y-129644166D01*
X188107619Y-129691785D01*
X188202857Y-129739404D01*
X188298095Y-129739404D01*
X188393333Y-129691785D01*
X188440952Y-129644166D01*
X188488571Y-129548928D01*
X188488571Y-129215595D01*
X189012380Y-130691785D02*
X189012380Y-130215595D01*
X188012380Y-130215595D01*
X168488571Y-129548928D02*
X168536190Y-129691785D01*
X168583809Y-129739404D01*
X168679047Y-129787023D01*
X168821904Y-129787023D01*
X168917142Y-129739404D01*
X168964761Y-129691785D01*
X169012380Y-129596547D01*
X169012380Y-129215595D01*
X168012380Y-129215595D01*
X168012380Y-129548928D01*
X168060000Y-129644166D01*
X168107619Y-129691785D01*
X168202857Y-129739404D01*
X168298095Y-129739404D01*
X168393333Y-129691785D01*
X168440952Y-129644166D01*
X168488571Y-129548928D01*
X168488571Y-129215595D01*
X169012380Y-130691785D02*
X169012380Y-130215595D01*
X168012380Y-130215595D01*
X148488571Y-129548928D02*
X148536190Y-129691785D01*
X148583809Y-129739404D01*
X148679047Y-129787023D01*
X148821904Y-129787023D01*
X148917142Y-129739404D01*
X148964761Y-129691785D01*
X149012380Y-129596547D01*
X149012380Y-129215595D01*
X148012380Y-129215595D01*
X148012380Y-129548928D01*
X148060000Y-129644166D01*
X148107619Y-129691785D01*
X148202857Y-129739404D01*
X148298095Y-129739404D01*
X148393333Y-129691785D01*
X148440952Y-129644166D01*
X148488571Y-129548928D01*
X148488571Y-129215595D01*
X149012380Y-130691785D02*
X149012380Y-130215595D01*
X148012380Y-130215595D01*
X128488571Y-129548928D02*
X128536190Y-129691785D01*
X128583809Y-129739404D01*
X128679047Y-129787023D01*
X128821904Y-129787023D01*
X128917142Y-129739404D01*
X128964761Y-129691785D01*
X129012380Y-129596547D01*
X129012380Y-129215595D01*
X128012380Y-129215595D01*
X128012380Y-129548928D01*
X128060000Y-129644166D01*
X128107619Y-129691785D01*
X128202857Y-129739404D01*
X128298095Y-129739404D01*
X128393333Y-129691785D01*
X128440952Y-129644166D01*
X128488571Y-129548928D01*
X128488571Y-129215595D01*
X129012380Y-130691785D02*
X129012380Y-130215595D01*
X128012380Y-130215595D01*
X150369047Y-105402380D02*
X150369047Y-106116666D01*
X150416666Y-106259523D01*
X150511904Y-106354761D01*
X150654761Y-106402380D01*
X150750000Y-106402380D01*
X149416666Y-106402380D02*
X149892857Y-106402380D01*
X149892857Y-105402380D01*
X148511904Y-106307142D02*
X148559523Y-106354761D01*
X148702380Y-106402380D01*
X148797619Y-106402380D01*
X148940476Y-106354761D01*
X149035714Y-106259523D01*
X149083333Y-106164285D01*
X149130952Y-105973809D01*
X149130952Y-105830952D01*
X149083333Y-105640476D01*
X149035714Y-105545238D01*
X148940476Y-105450000D01*
X148797619Y-105402380D01*
X148702380Y-105402380D01*
X148559523Y-105450000D01*
X148511904Y-105497619D01*
X147797619Y-105402380D02*
X147797619Y-106116666D01*
X147845238Y-106259523D01*
X147940476Y-106354761D01*
X148083333Y-106402380D01*
X148178571Y-106402380D01*
X146845238Y-106402380D02*
X147321428Y-106402380D01*
X147321428Y-105402380D01*
X145940476Y-106307142D02*
X145988095Y-106354761D01*
X146130952Y-106402380D01*
X146226190Y-106402380D01*
X146369047Y-106354761D01*
X146464285Y-106259523D01*
X146511904Y-106164285D01*
X146559523Y-105973809D01*
X146559523Y-105830952D01*
X146511904Y-105640476D01*
X146464285Y-105545238D01*
X146369047Y-105450000D01*
X146226190Y-105402380D01*
X146130952Y-105402380D01*
X145988095Y-105450000D01*
X145940476Y-105497619D01*
X145226190Y-105402380D02*
X145226190Y-106116666D01*
X145273809Y-106259523D01*
X145369047Y-106354761D01*
X145511904Y-106402380D01*
X145607142Y-106402380D01*
X144273809Y-106402380D02*
X144750000Y-106402380D01*
X144750000Y-105402380D01*
X143369047Y-106307142D02*
X143416666Y-106354761D01*
X143559523Y-106402380D01*
X143654761Y-106402380D01*
X143797619Y-106354761D01*
X143892857Y-106259523D01*
X143940476Y-106164285D01*
X143988095Y-105973809D01*
X143988095Y-105830952D01*
X143940476Y-105640476D01*
X143892857Y-105545238D01*
X143797619Y-105450000D01*
X143654761Y-105402380D01*
X143559523Y-105402380D01*
X143416666Y-105450000D01*
X143369047Y-105497619D01*
X142654761Y-105402380D02*
X142654761Y-106116666D01*
X142702380Y-106259523D01*
X142797619Y-106354761D01*
X142940476Y-106402380D01*
X143035714Y-106402380D01*
X141702380Y-106402380D02*
X142178571Y-106402380D01*
X142178571Y-105402380D01*
X140797619Y-106307142D02*
X140845238Y-106354761D01*
X140988095Y-106402380D01*
X141083333Y-106402380D01*
X141226190Y-106354761D01*
X141321428Y-106259523D01*
X141369047Y-106164285D01*
X141416666Y-105973809D01*
X141416666Y-105830952D01*
X141369047Y-105640476D01*
X141321428Y-105545238D01*
X141226190Y-105450000D01*
X141083333Y-105402380D01*
X140988095Y-105402380D01*
X140845238Y-105450000D01*
X140797619Y-105497619D01*
X111217380Y-131847023D02*
X110741190Y-131513690D01*
X111217380Y-131275595D02*
X110217380Y-131275595D01*
X110217380Y-131656547D01*
X110265000Y-131751785D01*
X110312619Y-131799404D01*
X110407857Y-131847023D01*
X110550714Y-131847023D01*
X110645952Y-131799404D01*
X110693571Y-131751785D01*
X110741190Y-131656547D01*
X110741190Y-131275595D01*
X110693571Y-132275595D02*
X110693571Y-132608928D01*
X111217380Y-132751785D02*
X111217380Y-132275595D01*
X110217380Y-132275595D01*
X110217380Y-132751785D01*
X110265000Y-133704166D02*
X110217380Y-133608928D01*
X110217380Y-133466071D01*
X110265000Y-133323214D01*
X110360238Y-133227976D01*
X110455476Y-133180357D01*
X110645952Y-133132738D01*
X110788809Y-133132738D01*
X110979285Y-133180357D01*
X111074523Y-133227976D01*
X111169761Y-133323214D01*
X111217380Y-133466071D01*
X111217380Y-133561309D01*
X111169761Y-133704166D01*
X111122142Y-133751785D01*
X110788809Y-133751785D01*
X110788809Y-133561309D01*
X111217380Y-134704166D02*
X111217380Y-134132738D01*
X111217380Y-134418452D02*
X110217380Y-134418452D01*
X110360238Y-134323214D01*
X110455476Y-134227976D01*
X110503095Y-134132738D01*
X110836428Y-135132738D02*
X110836428Y-135894642D01*
X110693571Y-136704166D02*
X110693571Y-136370833D01*
X111217380Y-136370833D02*
X110217380Y-136370833D01*
X110217380Y-136847023D01*
X111217380Y-137227976D02*
X110550714Y-137227976D01*
X110741190Y-137227976D02*
X110645952Y-137275595D01*
X110598333Y-137323214D01*
X110550714Y-137418452D01*
X110550714Y-137513690D01*
X111217380Y-137989880D02*
X111169761Y-137894642D01*
X111122142Y-137847023D01*
X111026904Y-137799404D01*
X110741190Y-137799404D01*
X110645952Y-137847023D01*
X110598333Y-137894642D01*
X110550714Y-137989880D01*
X110550714Y-138132738D01*
X110598333Y-138227976D01*
X110645952Y-138275595D01*
X110741190Y-138323214D01*
X111026904Y-138323214D01*
X111122142Y-138275595D01*
X111169761Y-138227976D01*
X111217380Y-138132738D01*
X111217380Y-137989880D01*
X110550714Y-138751785D02*
X111217380Y-138751785D01*
X110645952Y-138751785D02*
X110598333Y-138799404D01*
X110550714Y-138894642D01*
X110550714Y-139037500D01*
X110598333Y-139132738D01*
X110693571Y-139180357D01*
X111217380Y-139180357D01*
X110550714Y-139513690D02*
X110550714Y-139894642D01*
X110217380Y-139656547D02*
X111074523Y-139656547D01*
X111169761Y-139704166D01*
X111217380Y-139799404D01*
X111217380Y-139894642D01*
X110836428Y-140227976D02*
X110836428Y-140989880D01*
X110217380Y-141466071D02*
X111026904Y-141466071D01*
X111122142Y-141513690D01*
X111169761Y-141561309D01*
X111217380Y-141656547D01*
X111217380Y-141847023D01*
X111169761Y-141942261D01*
X111122142Y-141989880D01*
X111026904Y-142037500D01*
X110217380Y-142037500D01*
X110550714Y-142513690D02*
X111217380Y-142513690D01*
X110645952Y-142513690D02*
X110598333Y-142561309D01*
X110550714Y-142656547D01*
X110550714Y-142799404D01*
X110598333Y-142894642D01*
X110693571Y-142942261D01*
X111217380Y-142942261D01*
X111217380Y-143418452D02*
X110550714Y-143418452D01*
X110217380Y-143418452D02*
X110265000Y-143370833D01*
X110312619Y-143418452D01*
X110265000Y-143466071D01*
X110217380Y-143418452D01*
X110312619Y-143418452D01*
X110550714Y-143799404D02*
X111217380Y-144037500D01*
X110550714Y-144275595D01*
X111169761Y-145037500D02*
X111217380Y-144942261D01*
X111217380Y-144751785D01*
X111169761Y-144656547D01*
X111074523Y-144608928D01*
X110693571Y-144608928D01*
X110598333Y-144656547D01*
X110550714Y-144751785D01*
X110550714Y-144942261D01*
X110598333Y-145037500D01*
X110693571Y-145085119D01*
X110788809Y-145085119D01*
X110884047Y-144608928D01*
X111217380Y-145513690D02*
X110550714Y-145513690D01*
X110741190Y-145513690D02*
X110645952Y-145561309D01*
X110598333Y-145608928D01*
X110550714Y-145704166D01*
X110550714Y-145799404D01*
X111169761Y-146085119D02*
X111217380Y-146180357D01*
X111217380Y-146370833D01*
X111169761Y-146466071D01*
X111074523Y-146513690D01*
X111026904Y-146513690D01*
X110931666Y-146466071D01*
X110884047Y-146370833D01*
X110884047Y-146227976D01*
X110836428Y-146132738D01*
X110741190Y-146085119D01*
X110693571Y-146085119D01*
X110598333Y-146132738D01*
X110550714Y-146227976D01*
X110550714Y-146370833D01*
X110598333Y-146466071D01*
X111217380Y-147370833D02*
X110693571Y-147370833D01*
X110598333Y-147323214D01*
X110550714Y-147227976D01*
X110550714Y-147037500D01*
X110598333Y-146942261D01*
X111169761Y-147370833D02*
X111217380Y-147275595D01*
X111217380Y-147037500D01*
X111169761Y-146942261D01*
X111074523Y-146894642D01*
X110979285Y-146894642D01*
X110884047Y-146942261D01*
X110836428Y-147037500D01*
X110836428Y-147275595D01*
X110788809Y-147370833D01*
X111217380Y-147989880D02*
X111169761Y-147894642D01*
X111074523Y-147847023D01*
X110217380Y-147847023D01*
X111867380Y-131132738D02*
X112867380Y-131466071D01*
X111867380Y-131799404D01*
X111867380Y-132323214D02*
X111867380Y-132418452D01*
X111915000Y-132513690D01*
X111962619Y-132561309D01*
X112057857Y-132608928D01*
X112248333Y-132656547D01*
X112486428Y-132656547D01*
X112676904Y-132608928D01*
X112772142Y-132561309D01*
X112819761Y-132513690D01*
X112867380Y-132418452D01*
X112867380Y-132323214D01*
X112819761Y-132227976D01*
X112772142Y-132180357D01*
X112676904Y-132132738D01*
X112486428Y-132085119D01*
X112248333Y-132085119D01*
X112057857Y-132132738D01*
X111962619Y-132180357D01*
X111915000Y-132227976D01*
X111867380Y-132323214D01*
X111867380Y-133275595D02*
X111867380Y-133370833D01*
X111915000Y-133466071D01*
X111962619Y-133513690D01*
X112057857Y-133561309D01*
X112248333Y-133608928D01*
X112486428Y-133608928D01*
X112676904Y-133561309D01*
X112772142Y-133513690D01*
X112819761Y-133466071D01*
X112867380Y-133370833D01*
X112867380Y-133275595D01*
X112819761Y-133180357D01*
X112772142Y-133132738D01*
X112676904Y-133085119D01*
X112486428Y-133037500D01*
X112248333Y-133037500D01*
X112057857Y-133085119D01*
X111962619Y-133132738D01*
X111915000Y-133180357D01*
X111867380Y-133275595D01*
X112772142Y-134037500D02*
X112819761Y-134085119D01*
X112867380Y-134037500D01*
X112819761Y-133989880D01*
X112772142Y-134037500D01*
X112867380Y-134037500D01*
X111867380Y-134704166D02*
X111867380Y-134799404D01*
X111915000Y-134894642D01*
X111962619Y-134942261D01*
X112057857Y-134989880D01*
X112248333Y-135037500D01*
X112486428Y-135037500D01*
X112676904Y-134989880D01*
X112772142Y-134942261D01*
X112819761Y-134894642D01*
X112867380Y-134799404D01*
X112867380Y-134704166D01*
X112819761Y-134608928D01*
X112772142Y-134561309D01*
X112676904Y-134513690D01*
X112486428Y-134466071D01*
X112248333Y-134466071D01*
X112057857Y-134513690D01*
X111962619Y-134561309D01*
X111915000Y-134608928D01*
X111867380Y-134704166D01*
X111962619Y-135418452D02*
X111915000Y-135466071D01*
X111867380Y-135561309D01*
X111867380Y-135799404D01*
X111915000Y-135894642D01*
X111962619Y-135942261D01*
X112057857Y-135989880D01*
X112153095Y-135989880D01*
X112295952Y-135942261D01*
X112867380Y-135370833D01*
X112867380Y-135989880D01*
X112105476Y-137989880D02*
X112057857Y-137894642D01*
X112057857Y-137704166D01*
X112105476Y-137608928D01*
X112200714Y-137513690D01*
X112295952Y-137466071D01*
X112486428Y-137466071D01*
X112581666Y-137513690D01*
X112676904Y-137608928D01*
X112724523Y-137704166D01*
X112724523Y-137894642D01*
X112676904Y-137989880D01*
X111724523Y-137799404D02*
X111772142Y-137561309D01*
X111915000Y-137323214D01*
X112153095Y-137180357D01*
X112391190Y-137132738D01*
X112629285Y-137180357D01*
X112867380Y-137323214D01*
X113010238Y-137561309D01*
X113057857Y-137799404D01*
X113010238Y-138037500D01*
X112867380Y-138275595D01*
X112629285Y-138418452D01*
X112391190Y-138466071D01*
X112153095Y-138418452D01*
X111915000Y-138275595D01*
X111772142Y-138037500D01*
X111724523Y-137799404D01*
X112867380Y-139656547D02*
X111867380Y-139656547D01*
X112200714Y-140132738D02*
X112867380Y-140132738D01*
X112295952Y-140132738D02*
X112248333Y-140180357D01*
X112200714Y-140275595D01*
X112200714Y-140418452D01*
X112248333Y-140513690D01*
X112343571Y-140561309D01*
X112867380Y-140561309D01*
X112200714Y-141466071D02*
X113010238Y-141466071D01*
X113105476Y-141418452D01*
X113153095Y-141370833D01*
X113200714Y-141275595D01*
X113200714Y-141132738D01*
X113153095Y-141037500D01*
X112819761Y-141466071D02*
X112867380Y-141370833D01*
X112867380Y-141180357D01*
X112819761Y-141085119D01*
X112772142Y-141037500D01*
X112676904Y-140989880D01*
X112391190Y-140989880D01*
X112295952Y-141037500D01*
X112248333Y-141085119D01*
X112200714Y-141180357D01*
X112200714Y-141370833D01*
X112248333Y-141466071D01*
X112486428Y-141942261D02*
X112486428Y-142704166D01*
X112867380Y-143180357D02*
X111867380Y-143180357D01*
X111867380Y-143418452D01*
X111915000Y-143561309D01*
X112010238Y-143656547D01*
X112105476Y-143704166D01*
X112295952Y-143751785D01*
X112438809Y-143751785D01*
X112629285Y-143704166D01*
X112724523Y-143656547D01*
X112819761Y-143561309D01*
X112867380Y-143418452D01*
X112867380Y-143180357D01*
X112867380Y-144323214D02*
X112819761Y-144227976D01*
X112772142Y-144180357D01*
X112676904Y-144132738D01*
X112391190Y-144132738D01*
X112295952Y-144180357D01*
X112248333Y-144227976D01*
X112200714Y-144323214D01*
X112200714Y-144466071D01*
X112248333Y-144561309D01*
X112295952Y-144608928D01*
X112391190Y-144656547D01*
X112676904Y-144656547D01*
X112772142Y-144608928D01*
X112819761Y-144561309D01*
X112867380Y-144466071D01*
X112867380Y-144323214D01*
X112867380Y-145085119D02*
X112200714Y-145085119D01*
X112295952Y-145085119D02*
X112248333Y-145132738D01*
X112200714Y-145227976D01*
X112200714Y-145370833D01*
X112248333Y-145466071D01*
X112343571Y-145513690D01*
X112867380Y-145513690D01*
X112343571Y-145513690D02*
X112248333Y-145561309D01*
X112200714Y-145656547D01*
X112200714Y-145799404D01*
X112248333Y-145894642D01*
X112343571Y-145942261D01*
X112867380Y-145942261D01*
X112819761Y-146466071D02*
X112867380Y-146466071D01*
X112962619Y-146418452D01*
X113010238Y-146370833D01*
X111962619Y-147608928D02*
X111915000Y-147656547D01*
X111867380Y-147751785D01*
X111867380Y-147989880D01*
X111915000Y-148085119D01*
X111962619Y-148132738D01*
X112057857Y-148180357D01*
X112153095Y-148180357D01*
X112295952Y-148132738D01*
X112867380Y-147561309D01*
X112867380Y-148180357D01*
X111867380Y-148799404D02*
X111867380Y-148894642D01*
X111915000Y-148989880D01*
X111962619Y-149037500D01*
X112057857Y-149085119D01*
X112248333Y-149132738D01*
X112486428Y-149132738D01*
X112676904Y-149085119D01*
X112772142Y-149037500D01*
X112819761Y-148989880D01*
X112867380Y-148894642D01*
X112867380Y-148799404D01*
X112819761Y-148704166D01*
X112772142Y-148656547D01*
X112676904Y-148608928D01*
X112486428Y-148561309D01*
X112248333Y-148561309D01*
X112057857Y-148608928D01*
X111962619Y-148656547D01*
X111915000Y-148704166D01*
X111867380Y-148799404D01*
X111962619Y-149513690D02*
X111915000Y-149561309D01*
X111867380Y-149656547D01*
X111867380Y-149894642D01*
X111915000Y-149989880D01*
X111962619Y-150037500D01*
X112057857Y-150085119D01*
X112153095Y-150085119D01*
X112295952Y-150037500D01*
X112867380Y-149466071D01*
X112867380Y-150085119D01*
X111962619Y-150466071D02*
X111915000Y-150513690D01*
X111867380Y-150608928D01*
X111867380Y-150847023D01*
X111915000Y-150942261D01*
X111962619Y-150989880D01*
X112057857Y-151037500D01*
X112153095Y-151037500D01*
X112295952Y-150989880D01*
X112867380Y-150418452D01*
X112867380Y-151037500D01*
D10*
X109021904Y-118207857D02*
X108221904Y-118207857D01*
X108221904Y-118512619D01*
X108260000Y-118588809D01*
X108298095Y-118626904D01*
X108374285Y-118665000D01*
X108488571Y-118665000D01*
X108564761Y-118626904D01*
X108602857Y-118588809D01*
X108640952Y-118512619D01*
X108640952Y-118207857D01*
X108602857Y-119274523D02*
X108640952Y-119388809D01*
X108679047Y-119426904D01*
X108755238Y-119465000D01*
X108869523Y-119465000D01*
X108945714Y-119426904D01*
X108983809Y-119388809D01*
X109021904Y-119312619D01*
X109021904Y-119007857D01*
X108221904Y-119007857D01*
X108221904Y-119274523D01*
X108260000Y-119350714D01*
X108298095Y-119388809D01*
X108374285Y-119426904D01*
X108450476Y-119426904D01*
X108526666Y-119388809D01*
X108564761Y-119350714D01*
X108602857Y-119274523D01*
X108602857Y-119007857D01*
X108221904Y-119693571D02*
X108221904Y-120150714D01*
X109021904Y-119922142D02*
X108221904Y-119922142D01*
X109021904Y-120417380D02*
X108221904Y-120417380D01*
X109021904Y-120874523D01*
X108221904Y-120874523D01*
D11*
X102012380Y-129020357D02*
X102012380Y-129639404D01*
X102393333Y-129306071D01*
X102393333Y-129448928D01*
X102440952Y-129544166D01*
X102488571Y-129591785D01*
X102583809Y-129639404D01*
X102821904Y-129639404D01*
X102917142Y-129591785D01*
X102964761Y-129544166D01*
X103012380Y-129448928D01*
X103012380Y-129163214D01*
X102964761Y-129067976D01*
X102917142Y-129020357D01*
X102012380Y-129925119D02*
X103012380Y-130258452D01*
X102012380Y-130591785D01*
X102012380Y-130829880D02*
X102012380Y-131448928D01*
X102393333Y-131115595D01*
X102393333Y-131258452D01*
X102440952Y-131353690D01*
X102488571Y-131401309D01*
X102583809Y-131448928D01*
X102821904Y-131448928D01*
X102917142Y-131401309D01*
X102964761Y-131353690D01*
X103012380Y-131258452D01*
X103012380Y-130972738D01*
X102964761Y-130877500D01*
X102917142Y-130829880D01*
X104060000Y-129539404D02*
X104012380Y-129444166D01*
X104012380Y-129301309D01*
X104060000Y-129158452D01*
X104155238Y-129063214D01*
X104250476Y-129015595D01*
X104440952Y-128967976D01*
X104583809Y-128967976D01*
X104774285Y-129015595D01*
X104869523Y-129063214D01*
X104964761Y-129158452D01*
X105012380Y-129301309D01*
X105012380Y-129396547D01*
X104964761Y-129539404D01*
X104917142Y-129587023D01*
X104583809Y-129587023D01*
X104583809Y-129396547D01*
X105012380Y-130015595D02*
X104012380Y-130015595D01*
X104012380Y-130396547D01*
X104060000Y-130491785D01*
X104107619Y-130539404D01*
X104202857Y-130587023D01*
X104345714Y-130587023D01*
X104440952Y-130539404D01*
X104488571Y-130491785D01*
X104536190Y-130396547D01*
X104536190Y-130015595D01*
X104107619Y-130967976D02*
X104060000Y-131015595D01*
X104012380Y-131110833D01*
X104012380Y-131348928D01*
X104060000Y-131444166D01*
X104107619Y-131491785D01*
X104202857Y-131539404D01*
X104298095Y-131539404D01*
X104440952Y-131491785D01*
X105012380Y-130920357D01*
X105012380Y-131539404D01*
X104345714Y-132396547D02*
X105012380Y-132396547D01*
X103964761Y-132158452D02*
X104679047Y-131920357D01*
X104679047Y-132539404D01*
X107012380Y-129787023D02*
X106536190Y-129453690D01*
X107012380Y-129215595D02*
X106012380Y-129215595D01*
X106012380Y-129596547D01*
X106060000Y-129691785D01*
X106107619Y-129739404D01*
X106202857Y-129787023D01*
X106345714Y-129787023D01*
X106440952Y-129739404D01*
X106488571Y-129691785D01*
X106536190Y-129596547D01*
X106536190Y-129215595D01*
X106488571Y-130215595D02*
X106488571Y-130548928D01*
X107012380Y-130691785D02*
X107012380Y-130215595D01*
X106012380Y-130215595D01*
X106012380Y-130691785D01*
X106964761Y-131072738D02*
X107012380Y-131215595D01*
X107012380Y-131453690D01*
X106964761Y-131548928D01*
X106917142Y-131596547D01*
X106821904Y-131644166D01*
X106726666Y-131644166D01*
X106631428Y-131596547D01*
X106583809Y-131548928D01*
X106536190Y-131453690D01*
X106488571Y-131263214D01*
X106440952Y-131167976D01*
X106393333Y-131120357D01*
X106298095Y-131072738D01*
X106202857Y-131072738D01*
X106107619Y-131120357D01*
X106060000Y-131167976D01*
X106012380Y-131263214D01*
X106012380Y-131501309D01*
X106060000Y-131644166D01*
X108488571Y-129548928D02*
X108536190Y-129691785D01*
X108583809Y-129739404D01*
X108679047Y-129787023D01*
X108821904Y-129787023D01*
X108917142Y-129739404D01*
X108964761Y-129691785D01*
X109012380Y-129596547D01*
X109012380Y-129215595D01*
X108012380Y-129215595D01*
X108012380Y-129548928D01*
X108060000Y-129644166D01*
X108107619Y-129691785D01*
X108202857Y-129739404D01*
X108298095Y-129739404D01*
X108393333Y-129691785D01*
X108440952Y-129644166D01*
X108488571Y-129548928D01*
X108488571Y-129215595D01*
X109012380Y-130691785D02*
X109012380Y-130215595D01*
X108012380Y-130215595D01*
X106160000Y-118942023D02*
X106112380Y-118846785D01*
X106112380Y-118703928D01*
X106160000Y-118561071D01*
X106255238Y-118465833D01*
X106350476Y-118418214D01*
X106540952Y-118370595D01*
X106683809Y-118370595D01*
X106874285Y-118418214D01*
X106969523Y-118465833D01*
X107064761Y-118561071D01*
X107112380Y-118703928D01*
X107112380Y-118799166D01*
X107064761Y-118942023D01*
X107017142Y-118989642D01*
X106683809Y-118989642D01*
X106683809Y-118799166D01*
X107112380Y-119418214D02*
X106112380Y-119418214D01*
X106112380Y-119799166D01*
X106160000Y-119894404D01*
X106207619Y-119942023D01*
X106302857Y-119989642D01*
X106445714Y-119989642D01*
X106540952Y-119942023D01*
X106588571Y-119894404D01*
X106636190Y-119799166D01*
X106636190Y-119418214D01*
X106112380Y-120322976D02*
X106112380Y-120942023D01*
X106493333Y-120608690D01*
X106493333Y-120751547D01*
X106540952Y-120846785D01*
X106588571Y-120894404D01*
X106683809Y-120942023D01*
X106921904Y-120942023D01*
X107017142Y-120894404D01*
X107064761Y-120846785D01*
X107112380Y-120751547D01*
X107112380Y-120465833D01*
X107064761Y-120370595D01*
X107017142Y-120322976D01*
D10*
X104921904Y-118384047D02*
X104121904Y-118384047D01*
X104121904Y-118688809D01*
X104160000Y-118765000D01*
X104198095Y-118803095D01*
X104274285Y-118841190D01*
X104388571Y-118841190D01*
X104464761Y-118803095D01*
X104502857Y-118765000D01*
X104540952Y-118688809D01*
X104540952Y-118384047D01*
X104921904Y-119565000D02*
X104921904Y-119184047D01*
X104121904Y-119184047D01*
X104502857Y-119831666D02*
X104502857Y-120098333D01*
X104921904Y-120212619D02*
X104921904Y-119831666D01*
X104121904Y-119831666D01*
X104121904Y-120212619D01*
X104921904Y-120555476D02*
X104121904Y-120555476D01*
X104121904Y-120745952D01*
X104160000Y-120860238D01*
X104236190Y-120936428D01*
X104312380Y-120974523D01*
X104464761Y-121012619D01*
X104579047Y-121012619D01*
X104731428Y-120974523D01*
X104807619Y-120936428D01*
X104883809Y-120860238D01*
X104921904Y-120745952D01*
X104921904Y-120555476D01*
D11*
X102060000Y-118846785D02*
X102012380Y-118751547D01*
X102012380Y-118608690D01*
X102060000Y-118465833D01*
X102155238Y-118370595D01*
X102250476Y-118322976D01*
X102440952Y-118275357D01*
X102583809Y-118275357D01*
X102774285Y-118322976D01*
X102869523Y-118370595D01*
X102964761Y-118465833D01*
X103012380Y-118608690D01*
X103012380Y-118703928D01*
X102964761Y-118846785D01*
X102917142Y-118894404D01*
X102583809Y-118894404D01*
X102583809Y-118703928D01*
X103012380Y-119322976D02*
X102012380Y-119322976D01*
X103012380Y-119894404D01*
X102012380Y-119894404D01*
X103012380Y-120370595D02*
X102012380Y-120370595D01*
X102012380Y-120608690D01*
X102060000Y-120751547D01*
X102155238Y-120846785D01*
X102250476Y-120894404D01*
X102440952Y-120942023D01*
X102583809Y-120942023D01*
X102774285Y-120894404D01*
X102869523Y-120846785D01*
X102964761Y-120751547D01*
X103012380Y-120608690D01*
X103012380Y-120370595D01*
D12*
X181500000Y-122920000D02*
X181500000Y-127040000D01*
X189620000Y-122920000D02*
X189620000Y-127040000D01*
X181800000Y-121665000D02*
X181800000Y-122920000D01*
X181500000Y-122920000D02*
X181800000Y-122920000D01*
X181500000Y-127040000D02*
X181800000Y-127040000D01*
X189320000Y-122920000D02*
X189620000Y-122920000D01*
X189320000Y-127040000D02*
X189620000Y-127040000D01*
X183320000Y-122920000D02*
X183800000Y-122920000D01*
X183320000Y-127040000D02*
X183800000Y-127040000D01*
X185320000Y-122920000D02*
X185800000Y-122920000D01*
X185320000Y-127040000D02*
X185800000Y-127040000D01*
X187320000Y-122920000D02*
X187800000Y-122920000D01*
X187320000Y-127040000D02*
X187800000Y-127040000D01*
X161500000Y-122920000D02*
X161500000Y-127040000D01*
X169620000Y-122920000D02*
X169620000Y-127040000D01*
X161800000Y-121665000D02*
X161800000Y-122920000D01*
X161500000Y-122920000D02*
X161800000Y-122920000D01*
X161500000Y-127040000D02*
X161800000Y-127040000D01*
X169320000Y-122920000D02*
X169620000Y-122920000D01*
X169320000Y-127040000D02*
X169620000Y-127040000D01*
X163320000Y-122920000D02*
X163800000Y-122920000D01*
X163320000Y-127040000D02*
X163800000Y-127040000D01*
X165320000Y-122920000D02*
X165800000Y-122920000D01*
X165320000Y-127040000D02*
X165800000Y-127040000D01*
X167320000Y-122920000D02*
X167800000Y-122920000D01*
X167320000Y-127040000D02*
X167800000Y-127040000D01*
X141500000Y-122920000D02*
X141500000Y-127040000D01*
X149620000Y-122920000D02*
X149620000Y-127040000D01*
X141800000Y-121665000D02*
X141800000Y-122920000D01*
X141500000Y-122920000D02*
X141800000Y-122920000D01*
X141500000Y-127040000D02*
X141800000Y-127040000D01*
X149320000Y-122920000D02*
X149620000Y-122920000D01*
X149320000Y-127040000D02*
X149620000Y-127040000D01*
X143320000Y-122920000D02*
X143800000Y-122920000D01*
X143320000Y-127040000D02*
X143800000Y-127040000D01*
X145320000Y-122920000D02*
X145800000Y-122920000D01*
X145320000Y-127040000D02*
X145800000Y-127040000D01*
X147320000Y-122920000D02*
X147800000Y-122920000D01*
X147320000Y-127040000D02*
X147800000Y-127040000D01*
X121500000Y-122920000D02*
X121500000Y-127040000D01*
X129620000Y-122920000D02*
X129620000Y-127040000D01*
X121800000Y-121665000D02*
X121800000Y-122920000D01*
X121500000Y-122920000D02*
X121800000Y-122920000D01*
X121500000Y-127040000D02*
X121800000Y-127040000D01*
X129320000Y-122920000D02*
X129620000Y-122920000D01*
X129320000Y-127040000D02*
X129620000Y-127040000D01*
X123320000Y-122920000D02*
X123800000Y-122920000D01*
X123320000Y-127040000D02*
X123800000Y-127040000D01*
X125320000Y-122920000D02*
X125800000Y-122920000D01*
X125320000Y-127040000D02*
X125800000Y-127040000D01*
X127320000Y-122920000D02*
X127800000Y-122920000D01*
X127320000Y-127040000D02*
X127800000Y-127040000D01*
X107320000Y-127040000D02*
X107800000Y-127040000D01*
X107320000Y-122920000D02*
X107800000Y-122920000D01*
X105320000Y-127040000D02*
X105800000Y-127040000D01*
X105320000Y-122920000D02*
X105800000Y-122920000D01*
X103320000Y-127040000D02*
X103800000Y-127040000D01*
X103320000Y-122920000D02*
X103800000Y-122920000D01*
X109320000Y-127040000D02*
X109620000Y-127040000D01*
X109320000Y-122920000D02*
X109620000Y-122920000D01*
X101500000Y-127040000D02*
X101800000Y-127040000D01*
X101500000Y-122920000D02*
X101800000Y-122920000D01*
X101800000Y-121665000D02*
X101800000Y-122920000D01*
X109620000Y-122920000D02*
X109620000Y-127040000D01*
X101500000Y-122920000D02*
X101500000Y-127040000D01*
D11*
X190012380Y-125046666D02*
X190726666Y-125046666D01*
X190869523Y-124999047D01*
X190964761Y-124903809D01*
X191012380Y-124760952D01*
X191012380Y-124665714D01*
X191012380Y-126046666D02*
X191012380Y-125475238D01*
X191012380Y-125760952D02*
X190012380Y-125760952D01*
X190155238Y-125665714D01*
X190250476Y-125570476D01*
X190298095Y-125475238D01*
X170012380Y-125046666D02*
X170726666Y-125046666D01*
X170869523Y-124999047D01*
X170964761Y-124903809D01*
X171012380Y-124760952D01*
X171012380Y-124665714D01*
X171012380Y-126046666D02*
X171012380Y-125475238D01*
X171012380Y-125760952D02*
X170012380Y-125760952D01*
X170155238Y-125665714D01*
X170250476Y-125570476D01*
X170298095Y-125475238D01*
X150012380Y-125046666D02*
X150726666Y-125046666D01*
X150869523Y-124999047D01*
X150964761Y-124903809D01*
X151012380Y-124760952D01*
X151012380Y-124665714D01*
X151012380Y-126046666D02*
X151012380Y-125475238D01*
X151012380Y-125760952D02*
X150012380Y-125760952D01*
X150155238Y-125665714D01*
X150250476Y-125570476D01*
X150298095Y-125475238D01*
X130012380Y-125046666D02*
X130726666Y-125046666D01*
X130869523Y-124999047D01*
X130964761Y-124903809D01*
X131012380Y-124760952D01*
X131012380Y-124665714D01*
X131012380Y-126046666D02*
X131012380Y-125475238D01*
X131012380Y-125760952D02*
X130012380Y-125760952D01*
X130155238Y-125665714D01*
X130250476Y-125570476D01*
X130298095Y-125475238D01*
X110012380Y-125046666D02*
X110726666Y-125046666D01*
X110869523Y-124999047D01*
X110964761Y-124903809D01*
X111012380Y-124760952D01*
X111012380Y-124665714D01*
X111012380Y-126046666D02*
X111012380Y-125475238D01*
X111012380Y-125760952D02*
X110012380Y-125760952D01*
X110155238Y-125665714D01*
X110250476Y-125570476D01*
X110298095Y-125475238D01*
M02*
