  0
SECTION
  2
HEADER
  9
$ANGBASE
  50
0.0
  9
$ANGDIR
  70
1
  9
$MEASUREMENT
  70
1
  0
ENDSEC
  0
SECTION
  2
TABLES
  0
TABLE
  2
LTYPE
  70
4
  0
LTYPE
  5
40F
  2
CONTINUOUS
  70
0
  3
Solid line
  72
65
  73
0
  40
0.0
  0
LTYPE
  5
410
  2
DASHDOT
 70
0
  3
Dash Dot ____ _ ____ _
 72
65
 73
4
 40
2.0
 49
1.25
 49
-0.25
 49
0.25
 49
-0.25
  0
LTYPE
  5
411
  2
DASHED
 70
0
  3
Dashed __ __ __ __ __
 72
65
 73
2
 40
0.75
 49
0.5
 49
-0.25
  0
LTYPE
  5
43B
  2
DOTTED
 70
0
  3
Dotted .  .  .  .
 72
65
 73
2
 40
0.2
 49
0.0
 49
-0.2
  0
ENDTAB
  0
TABLE
  2
STYLE
  70
4
  0
STYLE
  2
KICAD
  70
0
  40
0
  41
1
  42
1
  50
0
  71
0
  3
isocp.shx
  0
STYLE
  2
KICADB
  70
0
  40
0
  41
1
  42
1
  50
0
  71
0
  3
isocp.shx
  0
STYLE
  2
KICADI
  70
0
  40
0
  41
1
  42
1
  50
15
  71
0
  3
isocp.shx
  0
STYLE
  2
KICADBI
  70
0
  40
0
  41
1
  42
1
  50
15
  71
0
  3
isocp.shx
  0
ENDTAB
  0
TABLE
  2
LAYER
  70
1
  0
LAYER
  2
BLACK
  70
0
  62
7
  6
CONTINUOUS
  0
ENDTAB
  0
ENDSEC
  0
SECTION
  2
ENTITIES
0
LINE
8
BLACK
6
CONTINUOUS
10
139.48
20
-117.273
11
139.484
21
-117.273
0
LINE
8
BLACK
6
CONTINUOUS
10
139.484
20
-117.273
11
139.501
21
-117.286
0
LINE
8
BLACK
6
CONTINUOUS
10
139.501
20
-117.286
11
139.52
21
-117.297
0
LINE
8
BLACK
6
CONTINUOUS
10
139.52
20
-117.297
11
139.522
21
-117.301
0
LINE
8
BLACK
6
CONTINUOUS
10
139.522
20
-117.301
11
139.525
21
-117.303
0
LINE
8
BLACK
6
CONTINUOUS
10
139.525
20
-117.303
11
139.616
21
-117.44
0
LINE
8
BLACK
6
CONTINUOUS
10
139.616
20
-117.44
11
139.698
21
-117.521
0
LINE
8
BLACK
6
CONTINUOUS
10
139.698
20
-117.521
11
139.782
21
-117.563
0
LINE
8
BLACK
6
CONTINUOUS
10
139.782
20
-117.563
11
139.803
21
-117.579
0
LINE
8
BLACK
6
CONTINUOUS
10
139.803
20
-117.579
11
139.823
21
-117.626
0
LINE
8
BLACK
6
CONTINUOUS
10
139.823
20
-117.626
11
139.809
21
-117.675
0
LINE
8
BLACK
6
CONTINUOUS
10
139.809
20
-117.675
11
139.766
21
-117.703
0
LINE
8
BLACK
6
CONTINUOUS
10
139.766
20
-117.703
11
139.715
21
-117.698
0
LINE
8
BLACK
6
CONTINUOUS
10
139.715
20
-117.698
11
139.62
21
-117.65
0
LINE
8
BLACK
6
CONTINUOUS
10
139.62
20
-117.65
11
139.602
21
-117.637
0
LINE
8
BLACK
6
CONTINUOUS
10
139.602
20
-117.637
11
139.6
21
-117.636
0
LINE
8
BLACK
6
CONTINUOUS
10
139.6
20
-117.636
11
139.538
21
-117.574
0
LINE
8
BLACK
6
CONTINUOUS
10
139.538
20
-117.574
11
139.538
21
-118.27
0
LINE
8
BLACK
6
CONTINUOUS
10
139.538
20
-118.27
11
139.749
21
-118.27
0
LINE
8
BLACK
6
CONTINUOUS
10
139.749
20
-118.27
11
139.774
21
-118.274
0
LINE
8
BLACK
6
CONTINUOUS
10
139.774
20
-118.274
11
139.814
21
-118.307
0
LINE
8
BLACK
6
CONTINUOUS
10
139.814
20
-118.307
11
139.822
21
-118.358
0
LINE
8
BLACK
6
CONTINUOUS
10
139.822
20
-118.358
11
139.797
21
-118.402
0
LINE
8
BLACK
6
CONTINUOUS
10
139.797
20
-118.402
11
139.749
21
-118.42
0
LINE
8
BLACK
6
CONTINUOUS
10
139.749
20
-118.42
11
139.177
21
-118.42
0
LINE
8
BLACK
6
CONTINUOUS
10
139.177
20
-118.42
11
139.151
21
-118.415
0
LINE
8
BLACK
6
CONTINUOUS
10
139.151
20
-118.415
11
139.112
21
-118.382
0
LINE
8
BLACK
6
CONTINUOUS
10
139.112
20
-118.382
11
139.103
21
-118.332
0
LINE
8
BLACK
6
CONTINUOUS
10
139.103
20
-118.332
11
139.129
21
-118.287
0
LINE
8
BLACK
6
CONTINUOUS
10
139.129
20
-118.287
11
139.177
21
-118.27
0
LINE
8
BLACK
6
CONTINUOUS
10
139.177
20
-118.27
11
139.388
21
-118.27
0
LINE
8
BLACK
6
CONTINUOUS
10
139.388
20
-118.27
11
139.388
21
-117.345
0
LINE
8
BLACK
6
CONTINUOUS
10
139.388
20
-117.345
11
139.392
21
-117.319
0
LINE
8
BLACK
6
CONTINUOUS
10
139.392
20
-117.319
11
139.395
21
-117.316
0
LINE
8
BLACK
6
CONTINUOUS
10
139.395
20
-117.316
11
139.396
21
-117.312
0
LINE
8
BLACK
6
CONTINUOUS
10
139.396
20
-117.312
11
139.411
21
-117.297
0
LINE
8
BLACK
6
CONTINUOUS
10
139.411
20
-117.297
11
139.425
21
-117.28
0
LINE
8
BLACK
6
CONTINUOUS
10
139.425
20
-117.28
11
139.43
21
-117.279
0
LINE
8
BLACK
6
CONTINUOUS
10
139.43
20
-117.279
11
139.433
21
-117.276
0
LINE
8
BLACK
6
CONTINUOUS
10
139.433
20
-117.276
11
139.454
21
-117.275
0
LINE
8
BLACK
6
CONTINUOUS
10
139.454
20
-117.275
11
139.476
21
-117.271
0
LINE
8
BLACK
6
CONTINUOUS
10
139.476
20
-117.271
11
139.48
21
-117.273
0
LINE
8
BLACK
6
CONTINUOUS
10
140.584
20
-117.274
11
140.587
21
-117.277
0
LINE
8
BLACK
6
CONTINUOUS
10
140.587
20
-117.277
11
140.592
21
-117.278
0
LINE
8
BLACK
6
CONTINUOUS
10
140.592
20
-117.278
11
140.687
21
-117.325
0
LINE
8
BLACK
6
CONTINUOUS
10
140.687
20
-117.325
11
140.705
21
-117.339
0
LINE
8
BLACK
6
CONTINUOUS
10
140.705
20
-117.339
11
140.706
21
-117.339
0
LINE
8
BLACK
6
CONTINUOUS
10
140.706
20
-117.339
11
140.754
21
-117.387
0
LINE
8
BLACK
6
CONTINUOUS
10
140.754
20
-117.387
11
140.769
21
-117.408
0
LINE
8
BLACK
6
CONTINUOUS
10
140.769
20
-117.408
11
140.773
21
-117.459
0
LINE
8
BLACK
6
CONTINUOUS
10
140.773
20
-117.459
11
140.744
21
-117.501
0
LINE
8
BLACK
6
CONTINUOUS
10
140.744
20
-117.501
11
140.694
21
-117.515
0
LINE
8
BLACK
6
CONTINUOUS
10
140.694
20
-117.515
11
140.648
21
-117.493
0
LINE
8
BLACK
6
CONTINUOUS
10
140.648
20
-117.493
11
140.609
21
-117.454
0
LINE
8
BLACK
6
CONTINUOUS
10
140.609
20
-117.454
11
140.54
21
-117.42
0
LINE
8
BLACK
6
CONTINUOUS
10
140.54
20
-117.42
11
140.338
21
-117.42
0
LINE
8
BLACK
6
CONTINUOUS
10
140.338
20
-117.42
11
140.269
21
-117.454
0
LINE
8
BLACK
6
CONTINUOUS
10
140.269
20
-117.454
11
140.239
21
-117.484
0
LINE
8
BLACK
6
CONTINUOUS
10
140.239
20
-117.484
11
140.205
21
-117.553
0
LINE
8
BLACK
6
CONTINUOUS
10
140.205
20
-117.553
11
140.205
21
-117.618
0
LINE
8
BLACK
6
CONTINUOUS
10
140.205
20
-117.618
11
140.243
21
-117.733
0
LINE
8
BLACK
6
CONTINUOUS
10
140.243
20
-117.733
11
140.802
21
-118.292
0
LINE
8
BLACK
6
CONTINUOUS
10
140.802
20
-118.292
11
140.811
21
-118.305
0
LINE
8
BLACK
6
CONTINUOUS
10
140.811
20
-118.305
11
140.814
21
-118.307
0
LINE
8
BLACK
6
CONTINUOUS
10
140.814
20
-118.307
11
140.814
21
-118.309
0
LINE
8
BLACK
6
CONTINUOUS
10
140.814
20
-118.309
11
140.817
21
-118.313
0
LINE
8
BLACK
6
CONTINUOUS
10
140.817
20
-118.313
11
140.819
21
-118.336
0
LINE
8
BLACK
6
CONTINUOUS
10
140.819
20
-118.336
11
140.822
21
-118.358
0
LINE
8
BLACK
6
CONTINUOUS
10
140.822
20
-118.358
11
140.821
21
-118.361
0
LINE
8
BLACK
6
CONTINUOUS
10
140.821
20
-118.361
11
140.821
21
-118.364
0
LINE
8
BLACK
6
CONTINUOUS
10
140.821
20
-118.364
11
140.808
21
-118.383
0
LINE
8
BLACK
6
CONTINUOUS
10
140.808
20
-118.383
11
140.797
21
-118.402
0
LINE
8
BLACK
6
CONTINUOUS
10
140.797
20
-118.402
11
140.794
21
-118.403
0
LINE
8
BLACK
6
CONTINUOUS
10
140.794
20
-118.403
11
140.792
21
-118.406
0
LINE
8
BLACK
6
CONTINUOUS
10
140.792
20
-118.406
11
140.77
21
-118.412
0
LINE
8
BLACK
6
CONTINUOUS
10
140.77
20
-118.412
11
140.749
21
-118.42
0
LINE
8
BLACK
6
CONTINUOUS
10
140.749
20
-118.42
11
140.13
21
-118.42
0
LINE
8
BLACK
6
CONTINUOUS
10
140.13
20
-118.42
11
140.104
21
-118.415
0
LINE
8
BLACK
6
CONTINUOUS
10
140.104
20
-118.415
11
140.065
21
-118.382
0
LINE
8
BLACK
6
CONTINUOUS
10
140.065
20
-118.382
11
140.056
21
-118.332
0
LINE
8
BLACK
6
CONTINUOUS
10
140.056
20
-118.332
11
140.081
21
-118.287
0
LINE
8
BLACK
6
CONTINUOUS
10
140.081
20
-118.287
11
140.13
21
-118.27
0
LINE
8
BLACK
6
CONTINUOUS
10
140.13
20
-118.27
11
140.568
21
-118.27
0
LINE
8
BLACK
6
CONTINUOUS
10
140.568
20
-118.27
11
140.124
21
-117.826
0
LINE
8
BLACK
6
CONTINUOUS
10
140.124
20
-117.826
11
140.109
21
-117.805
0
LINE
8
BLACK
6
CONTINUOUS
10
140.109
20
-117.805
11
140.109
21
-117.801
0
LINE
8
BLACK
6
CONTINUOUS
10
140.109
20
-117.801
11
140.106
21
-117.797
0
LINE
8
BLACK
6
CONTINUOUS
10
140.106
20
-117.797
11
140.058
21
-117.654
0
LINE
8
BLACK
6
CONTINUOUS
10
140.058
20
-117.654
11
140.055
21
-117.632
0
LINE
8
BLACK
6
CONTINUOUS
10
140.055
20
-117.632
11
140.055
21
-117.631
0
LINE
8
BLACK
6
CONTINUOUS
10
140.055
20
-117.631
11
140.055
21
-117.535
0
LINE
8
BLACK
6
CONTINUOUS
10
140.055
20
-117.535
11
140.059
21
-117.51
0
LINE
8
BLACK
6
CONTINUOUS
10
140.059
20
-117.51
11
140.062
21
-117.506
0
LINE
8
BLACK
6
CONTINUOUS
10
140.062
20
-117.506
11
140.062
21
-117.502
0
LINE
8
BLACK
6
CONTINUOUS
10
140.062
20
-117.502
11
140.11
21
-117.407
0
LINE
8
BLACK
6
CONTINUOUS
10
140.11
20
-117.407
11
140.123
21
-117.389
0
LINE
8
BLACK
6
CONTINUOUS
10
140.123
20
-117.389
11
140.124
21
-117.387
0
LINE
8
BLACK
6
CONTINUOUS
10
140.124
20
-117.387
11
140.172
21
-117.339
0
LINE
8
BLACK
6
CONTINUOUS
10
140.172
20
-117.339
11
140.19
21
-117.327
0
LINE
8
BLACK
6
CONTINUOUS
10
140.19
20
-117.327
11
140.191
21
-117.325
0
LINE
8
BLACK
6
CONTINUOUS
10
140.191
20
-117.325
11
140.286
21
-117.278
0
LINE
8
BLACK
6
CONTINUOUS
10
140.286
20
-117.278
11
140.311
21
-117.27
0
LINE
8
BLACK
6
CONTINUOUS
10
140.311
20
-117.27
11
140.316
21
-117.271
0
LINE
8
BLACK
6
CONTINUOUS
10
140.316
20
-117.271
11
140.32
21
-117.27
0
LINE
8
BLACK
6
CONTINUOUS
10
140.32
20
-117.27
11
140.558
21
-117.27
0
LINE
8
BLACK
6
CONTINUOUS
10
140.558
20
-117.27
11
140.584
21
-117.274
0
LINE
8
BLACK
6
CONTINUOUS
10
141.187
20
-117.297
11
141.205
21
-117.345
0
LINE
8
BLACK
6
CONTINUOUS
10
141.205
20
-117.345
11
141.205
21
-118.047
0
LINE
8
BLACK
6
CONTINUOUS
10
141.205
20
-118.047
11
141.243
21
-118.161
0
LINE
8
BLACK
6
CONTINUOUS
10
141.243
20
-118.161
11
141.313
21
-118.232
0
LINE
8
BLACK
6
CONTINUOUS
10
141.313
20
-118.232
11
141.427
21
-118.27
0
LINE
8
BLACK
6
CONTINUOUS
10
141.427
20
-118.27
11
141.51
21
-118.27
0
LINE
8
BLACK
6
CONTINUOUS
10
141.51
20
-118.27
11
141.536
21
-118.274
0
LINE
8
BLACK
6
CONTINUOUS
10
141.536
20
-118.274
11
141.575
21
-118.307
0
LINE
8
BLACK
6
CONTINUOUS
10
141.575
20
-118.307
11
141.584
21
-118.358
0
LINE
8
BLACK
6
CONTINUOUS
10
141.584
20
-118.358
11
141.559
21
-118.402
0
LINE
8
BLACK
6
CONTINUOUS
10
141.559
20
-118.402
11
141.51
21
-118.42
0
LINE
8
BLACK
6
CONTINUOUS
10
141.51
20
-118.42
11
141.415
21
-118.42
0
LINE
8
BLACK
6
CONTINUOUS
10
141.415
20
-118.42
11
141.393
21
-118.416
0
LINE
8
BLACK
6
CONTINUOUS
10
141.393
20
-118.416
11
141.392
21
-118.416
0
LINE
8
BLACK
6
CONTINUOUS
10
141.392
20
-118.416
11
141.249
21
-118.368
0
LINE
8
BLACK
6
CONTINUOUS
10
141.249
20
-118.368
11
141.226
21
-118.356
0
LINE
8
BLACK
6
CONTINUOUS
10
141.226
20
-118.356
11
141.223
21
-118.352
0
LINE
8
BLACK
6
CONTINUOUS
10
141.223
20
-118.352
11
141.219
21
-118.35
0
LINE
8
BLACK
6
CONTINUOUS
10
141.219
20
-118.35
11
141.124
21
-118.255
0
LINE
8
BLACK
6
CONTINUOUS
10
141.124
20
-118.255
11
141.109
21
-118.234
0
LINE
8
BLACK
6
CONTINUOUS
10
141.109
20
-118.234
11
141.109
21
-118.229
0
LINE
8
BLACK
6
CONTINUOUS
10
141.109
20
-118.229
11
141.106
21
-118.226
0
LINE
8
BLACK
6
CONTINUOUS
10
141.106
20
-118.226
11
141.058
21
-118.083
0
LINE
8
BLACK
6
CONTINUOUS
10
141.058
20
-118.083
11
141.055
21
-118.061
0
LINE
8
BLACK
6
CONTINUOUS
10
141.055
20
-118.061
11
141.055
21
-118.059
0
LINE
8
BLACK
6
CONTINUOUS
10
141.055
20
-118.059
11
141.055
21
-117.345
0
LINE
8
BLACK
6
CONTINUOUS
10
141.055
20
-117.345
11
141.059
21
-117.319
0
LINE
8
BLACK
6
CONTINUOUS
10
141.059
20
-117.319
11
141.092
21
-117.28
0
LINE
8
BLACK
6
CONTINUOUS
10
141.092
20
-117.28
11
141.143
21
-117.271
0
LINE
8
BLACK
6
CONTINUOUS
10
141.143
20
-117.271
11
141.187
21
-117.297
0
LINE
8
BLACK
6
CONTINUOUS
10
82.4
20
-116.061
11
82.4034
21
-116.064
0
LINE
8
BLACK
6
CONTINUOUS
10
82.4034
20
-116.064
11
82.4079
21
-116.064
0
LINE
8
BLACK
6
CONTINUOUS
10
82.4079
20
-116.064
11
82.5031
21
-116.112
0
LINE
8
BLACK
6
CONTINUOUS
10
82.5031
20
-116.112
11
82.5211
21
-116.125
0
LINE
8
BLACK
6
CONTINUOUS
10
82.5211
20
-116.125
11
82.5226
21
-116.126
0
LINE
8
BLACK
6
CONTINUOUS
10
82.5226
20
-116.126
11
82.5702
21
-116.174
0
LINE
8
BLACK
6
CONTINUOUS
10
82.5702
20
-116.174
11
82.5831
21
-116.192
0
LINE
8
BLACK
6
CONTINUOUS
10
82.5831
20
-116.192
11
82.5843
21
-116.193
0
LINE
8
BLACK
6
CONTINUOUS
10
82.5843
20
-116.193
11
82.6319
21
-116.288
0
LINE
8
BLACK
6
CONTINUOUS
10
82.6319
20
-116.288
11
82.6393
21
-116.313
0
LINE
8
BLACK
6
CONTINUOUS
10
82.6393
20
-116.313
11
82.6383
21
-116.318
0
LINE
8
BLACK
6
CONTINUOUS
10
82.6383
20
-116.318
11
82.6398
21
-116.322
0
LINE
8
BLACK
6
CONTINUOUS
10
82.6398
20
-116.322
11
82.6398
21
-116.512
0
LINE
8
BLACK
6
CONTINUOUS
10
82.6398
20
-116.512
11
82.6353
21
-116.538
0
LINE
8
BLACK
6
CONTINUOUS
10
82.6353
20
-116.538
11
82.6324
21
-116.541
0
LINE
8
BLACK
6
CONTINUOUS
10
82.6324
20
-116.541
11
82.6319
21
-116.546
0
LINE
8
BLACK
6
CONTINUOUS
10
82.6319
20
-116.546
11
82.5843
21
-116.641
0
LINE
8
BLACK
6
CONTINUOUS
10
82.5843
20
-116.641
11
82.5709
21
-116.659
0
LINE
8
BLACK
6
CONTINUOUS
10
82.5709
20
-116.659
11
82.5702
21
-116.661
0
LINE
8
BLACK
6
CONTINUOUS
10
82.5702
20
-116.661
11
82.5226
21
-116.708
0
LINE
8
BLACK
6
CONTINUOUS
10
82.5226
20
-116.708
11
82.5042
21
-116.721
0
LINE
8
BLACK
6
CONTINUOUS
10
82.5042
20
-116.721
11
82.5031
21
-116.722
0
LINE
8
BLACK
6
CONTINUOUS
10
82.5031
20
-116.722
11
82.4079
21
-116.77
0
LINE
8
BLACK
6
CONTINUOUS
10
82.4079
20
-116.77
11
82.3829
21
-116.777
0
LINE
8
BLACK
6
CONTINUOUS
10
82.3829
20
-116.777
11
82.3786
21
-116.776
0
LINE
8
BLACK
6
CONTINUOUS
10
82.3786
20
-116.776
11
82.3743
21
-116.778
0
LINE
8
BLACK
6
CONTINUOUS
10
82.3743
20
-116.778
11
82.1362
21
-116.778
0
LINE
8
BLACK
6
CONTINUOUS
10
82.1362
20
-116.778
11
82.1106
21
-116.773
0
LINE
8
BLACK
6
CONTINUOUS
10
82.1106
20
-116.773
11
82.1072
21
-116.77
0
LINE
8
BLACK
6
CONTINUOUS
10
82.1072
20
-116.77
11
82.1027
21
-116.77
0
LINE
8
BLACK
6
CONTINUOUS
10
82.1027
20
-116.77
11
82.0075
21
-116.722
0
LINE
8
BLACK
6
CONTINUOUS
10
82.0075
20
-116.722
11
81.9895
21
-116.709
0
LINE
8
BLACK
6
CONTINUOUS
10
81.9895
20
-116.709
11
81.988
21
-116.708
0
LINE
8
BLACK
6
CONTINUOUS
10
81.988
20
-116.708
11
81.9404
21
-116.661
0
LINE
8
BLACK
6
CONTINUOUS
10
81.9404
20
-116.661
11
81.9275
21
-116.642
0
LINE
8
BLACK
6
CONTINUOUS
10
81.9275
20
-116.642
11
81.9263
21
-116.641
0
LINE
8
BLACK
6
CONTINUOUS
10
81.9263
20
-116.641
11
81.8787
21
-116.546
0
LINE
8
BLACK
6
CONTINUOUS
10
81.8787
20
-116.546
11
81.8713
21
-116.521
0
LINE
8
BLACK
6
CONTINUOUS
10
81.8713
20
-116.521
11
81.8723
21
-116.517
0
LINE
8
BLACK
6
CONTINUOUS
10
81.8723
20
-116.517
11
81.8708
21
-116.512
0
LINE
8
BLACK
6
CONTINUOUS
10
81.8708
20
-116.512
11
81.8708
21
-116.322
0
LINE
8
BLACK
6
CONTINUOUS
10
81.8708
20
-116.322
11
81.8753
21
-116.296
0
LINE
8
BLACK
6
CONTINUOUS
10
81.8753
20
-116.296
11
81.8782
21
-116.293
0
LINE
8
BLACK
6
CONTINUOUS
10
81.8782
20
-116.293
11
81.8787
21
-116.288
0
LINE
8
BLACK
6
CONTINUOUS
10
81.8787
20
-116.288
11
81.9078
21
-116.23
0
LINE
8
BLACK
6
CONTINUOUS
10
81.9078
20
-116.23
11
81.8337
21
-116.249
0
LINE
8
BLACK
6
CONTINUOUS
10
81.8337
20
-116.249
11
81.7078
21
-116.333
0
LINE
8
BLACK
6
CONTINUOUS
10
81.7078
20
-116.333
11
81.6741
21
-116.366
0
LINE
8
BLACK
6
CONTINUOUS
10
81.6741
20
-116.366
11
81.6398
21
-116.435
0
LINE
8
BLACK
6
CONTINUOUS
10
81.6398
20
-116.435
11
81.6398
21
-116.608
0
LINE
8
BLACK
6
CONTINUOUS
10
81.6398
20
-116.608
11
81.6353
21
-116.633
0
LINE
8
BLACK
6
CONTINUOUS
10
81.6353
20
-116.633
11
81.6023
21
-116.673
0
LINE
8
BLACK
6
CONTINUOUS
10
81.6023
20
-116.673
11
81.5518
21
-116.681
0
LINE
8
BLACK
6
CONTINUOUS
10
81.5518
20
-116.681
11
81.5074
21
-116.656
0
LINE
8
BLACK
6
CONTINUOUS
10
81.5074
20
-116.656
11
81.4898
21
-116.608
0
LINE
8
BLACK
6
CONTINUOUS
10
81.4898
20
-116.608
11
81.4898
21
-116.417
0
LINE
8
BLACK
6
CONTINUOUS
10
81.4898
20
-116.417
11
81.4943
21
-116.391
0
LINE
8
BLACK
6
CONTINUOUS
10
81.4943
20
-116.391
11
81.4972
21
-116.388
0
LINE
8
BLACK
6
CONTINUOUS
10
81.4972
20
-116.388
11
81.4977
21
-116.384
0
LINE
8
BLACK
6
CONTINUOUS
10
81.4977
20
-116.384
11
81.5454
21
-116.288
0
LINE
8
BLACK
6
CONTINUOUS
10
81.5454
20
-116.288
11
81.5587
21
-116.27
0
LINE
8
BLACK
6
CONTINUOUS
10
81.5587
20
-116.27
11
81.5594
21
-116.269
0
LINE
8
BLACK
6
CONTINUOUS
10
81.5594
20
-116.269
11
81.607
21
-116.221
0
LINE
8
BLACK
6
CONTINUOUS
10
81.607
20
-116.221
11
81.6164
21
-116.215
0
LINE
8
BLACK
6
CONTINUOUS
10
81.6164
20
-116.215
11
81.6185
21
-116.212
0
LINE
8
BLACK
6
CONTINUOUS
10
81.6185
20
-116.212
11
81.7613
21
-116.117
0
LINE
8
BLACK
6
CONTINUOUS
10
81.7613
20
-116.117
11
81.7844
21
-116.107
0
LINE
8
BLACK
6
CONTINUOUS
10
81.7844
20
-116.107
11
81.7847
21
-116.106
0
LINE
8
BLACK
6
CONTINUOUS
10
81.7847
20
-116.106
11
81.9752
21
-116.059
0
LINE
8
BLACK
6
CONTINUOUS
10
81.9752
20
-116.059
11
81.9901
21
-116.058
0
LINE
8
BLACK
6
CONTINUOUS
10
81.9901
20
-116.058
11
81.9934
21
-116.056
0
LINE
8
BLACK
6
CONTINUOUS
10
81.9934
20
-116.056
11
82.3743
21
-116.056
0
LINE
8
BLACK
6
CONTINUOUS
10
82.3743
20
-116.056
11
82.4
21
-116.061
0
LINE
8
BLACK
6
CONTINUOUS
10
82.0854
20
-116.241
11
82.055
21
-116.271
0
LINE
8
BLACK
6
CONTINUOUS
10
82.055
20
-116.271
11
82.0208
21
-116.34
0
LINE
8
BLACK
6
CONTINUOUS
10
82.0208
20
-116.34
11
82.0208
21
-116.495
0
LINE
8
BLACK
6
CONTINUOUS
10
82.0208
20
-116.495
11
82.055
21
-116.563
0
LINE
8
BLACK
6
CONTINUOUS
10
82.055
20
-116.563
11
82.0854
21
-116.594
0
LINE
8
BLACK
6
CONTINUOUS
10
82.0854
20
-116.594
11
82.154
21
-116.628
0
LINE
8
BLACK
6
CONTINUOUS
10
82.154
20
-116.628
11
82.3566
21
-116.628
0
LINE
8
BLACK
6
CONTINUOUS
10
82.3566
20
-116.628
11
82.4252
21
-116.594
0
LINE
8
BLACK
6
CONTINUOUS
10
82.4252
20
-116.594
11
82.4556
21
-116.563
0
LINE
8
BLACK
6
CONTINUOUS
10
82.4556
20
-116.563
11
82.4898
21
-116.495
0
LINE
8
BLACK
6
CONTINUOUS
10
82.4898
20
-116.495
11
82.4898
21
-116.34
0
LINE
8
BLACK
6
CONTINUOUS
10
82.4898
20
-116.34
11
82.4556
21
-116.271
0
LINE
8
BLACK
6
CONTINUOUS
10
82.4556
20
-116.271
11
82.4252
21
-116.241
0
LINE
8
BLACK
6
CONTINUOUS
10
82.4252
20
-116.241
11
82.3566
21
-116.206
0
LINE
8
BLACK
6
CONTINUOUS
10
82.3566
20
-116.206
11
82.154
21
-116.206
0
LINE
8
BLACK
6
CONTINUOUS
10
82.154
20
-116.206
11
82.0854
21
-116.241
0
LINE
8
BLACK
6
CONTINUOUS
10
82.5226
20
-115.078
11
82.5702
21
-115.126
0
LINE
8
BLACK
6
CONTINUOUS
10
82.5702
20
-115.126
11
82.5831
21
-115.144
0
LINE
8
BLACK
6
CONTINUOUS
10
82.5831
20
-115.144
11
82.5843
21
-115.146
0
LINE
8
BLACK
6
CONTINUOUS
10
82.5843
20
-115.146
11
82.6319
21
-115.241
0
LINE
8
BLACK
6
CONTINUOUS
10
82.6319
20
-115.241
11
82.6393
21
-115.266
0
LINE
8
BLACK
6
CONTINUOUS
10
82.6393
20
-115.266
11
82.6383
21
-115.27
0
LINE
8
BLACK
6
CONTINUOUS
10
82.6383
20
-115.27
11
82.6398
21
-115.274
0
LINE
8
BLACK
6
CONTINUOUS
10
82.6398
20
-115.274
11
82.6398
21
-115.56
0
LINE
8
BLACK
6
CONTINUOUS
10
82.6398
20
-115.56
11
82.6353
21
-115.586
0
LINE
8
BLACK
6
CONTINUOUS
10
82.6353
20
-115.586
11
82.6324
21
-115.589
0
LINE
8
BLACK
6
CONTINUOUS
10
82.6324
20
-115.589
11
82.6319
21
-115.594
0
LINE
8
BLACK
6
CONTINUOUS
10
82.6319
20
-115.594
11
82.5843
21
-115.689
0
LINE
8
BLACK
6
CONTINUOUS
10
82.5843
20
-115.689
11
82.5709
21
-115.707
0
LINE
8
BLACK
6
CONTINUOUS
10
82.5709
20
-115.707
11
82.5702
21
-115.708
0
LINE
8
BLACK
6
CONTINUOUS
10
82.5702
20
-115.708
11
82.5226
21
-115.756
0
LINE
8
BLACK
6
CONTINUOUS
10
82.5226
20
-115.756
11
82.5042
21
-115.769
0
LINE
8
BLACK
6
CONTINUOUS
10
82.5042
20
-115.769
11
82.5031
21
-115.77
0
LINE
8
BLACK
6
CONTINUOUS
10
82.5031
20
-115.77
11
82.4079
21
-115.818
0
LINE
8
BLACK
6
CONTINUOUS
10
82.4079
20
-115.818
11
82.3829
21
-115.825
0
LINE
8
BLACK
6
CONTINUOUS
10
82.3829
20
-115.825
11
82.3786
21
-115.824
0
LINE
8
BLACK
6
CONTINUOUS
10
82.3786
20
-115.824
11
82.3743
21
-115.825
0
LINE
8
BLACK
6
CONTINUOUS
10
82.3743
20
-115.825
11
82.1362
21
-115.825
0
LINE
8
BLACK
6
CONTINUOUS
10
82.1362
20
-115.825
11
82.1106
21
-115.821
0
LINE
8
BLACK
6
CONTINUOUS
10
82.1106
20
-115.821
11
82.1072
21
-115.818
0
LINE
8
BLACK
6
CONTINUOUS
10
82.1072
20
-115.818
11
82.1027
21
-115.818
0
LINE
8
BLACK
6
CONTINUOUS
10
82.1027
20
-115.818
11
82.0075
21
-115.77
0
LINE
8
BLACK
6
CONTINUOUS
10
82.0075
20
-115.77
11
81.9895
21
-115.757
0
LINE
8
BLACK
6
CONTINUOUS
10
81.9895
20
-115.757
11
81.988
21
-115.756
0
LINE
8
BLACK
6
CONTINUOUS
10
81.988
20
-115.756
11
81.9404
21
-115.708
0
LINE
8
BLACK
6
CONTINUOUS
10
81.9404
20
-115.708
11
81.9275
21
-115.69
0
LINE
8
BLACK
6
CONTINUOUS
10
81.9275
20
-115.69
11
81.9263
21
-115.689
0
LINE
8
BLACK
6
CONTINUOUS
10
81.9263
20
-115.689
11
81.8787
21
-115.594
0
LINE
8
BLACK
6
CONTINUOUS
10
81.8787
20
-115.594
11
81.8744
21
-115.579
0
LINE
8
BLACK
6
CONTINUOUS
10
81.8744
20
-115.579
11
81.6142
21
-115.807
0
LINE
8
BLACK
6
CONTINUOUS
10
81.6142
20
-115.807
11
81.6046
21
-115.813
0
LINE
8
BLACK
6
CONTINUOUS
10
81.6046
20
-115.813
11
81.6023
21
-115.815
0
LINE
8
BLACK
6
CONTINUOUS
10
81.6023
20
-115.815
11
81.5993
21
-115.816
0
LINE
8
BLACK
6
CONTINUOUS
10
81.5993
20
-115.816
11
81.5919
21
-115.82
0
LINE
8
BLACK
6
CONTINUOUS
10
81.5919
20
-115.82
11
81.5717
21
-115.821
0
LINE
8
BLACK
6
CONTINUOUS
10
81.5717
20
-115.821
11
81.5518
21
-115.824
0
LINE
8
BLACK
6
CONTINUOUS
10
81.5518
20
-115.824
11
81.5466
21
-115.821
0
LINE
8
BLACK
6
CONTINUOUS
10
81.5466
20
-115.821
11
81.5406
21
-115.821
0
LINE
8
BLACK
6
CONTINUOUS
10
81.5406
20
-115.821
11
81.5249
21
-115.809
0
LINE
8
BLACK
6
CONTINUOUS
10
81.5249
20
-115.809
11
81.5074
21
-115.799
0
LINE
8
BLACK
6
CONTINUOUS
10
81.5074
20
-115.799
11
81.5053
21
-115.793
0
LINE
8
BLACK
6
CONTINUOUS
10
81.5053
20
-115.793
11
81.5007
21
-115.789
0
LINE
8
BLACK
6
CONTINUOUS
10
81.5007
20
-115.789
11
81.4967
21
-115.769
0
LINE
8
BLACK
6
CONTINUOUS
10
81.4967
20
-115.769
11
81.4898
21
-115.75
0
LINE
8
BLACK
6
CONTINUOUS
10
81.4898
20
-115.75
11
81.4898
21
-115.131
0
LINE
8
BLACK
6
CONTINUOUS
10
81.4898
20
-115.131
11
81.4943
21
-115.106
0
LINE
8
BLACK
6
CONTINUOUS
10
81.4943
20
-115.106
11
81.5273
21
-115.066
0
LINE
8
BLACK
6
CONTINUOUS
10
81.5273
20
-115.066
11
81.5778
21
-115.058
0
LINE
8
BLACK
6
CONTINUOUS
10
81.5778
20
-115.058
11
81.6223
21
-115.083
0
LINE
8
BLACK
6
CONTINUOUS
10
81.6223
20
-115.083
11
81.6398
21
-115.131
0
LINE
8
BLACK
6
CONTINUOUS
10
81.6398
20
-115.131
11
81.6398
21
-115.585
0
LINE
8
BLACK
6
CONTINUOUS
10
81.6398
20
-115.585
11
81.8964
21
-115.361
0
LINE
8
BLACK
6
CONTINUOUS
10
81.8964
20
-115.361
11
81.906
21
-115.355
0
LINE
8
BLACK
6
CONTINUOUS
10
81.906
20
-115.355
11
81.9083
21
-115.352
0
LINE
8
BLACK
6
CONTINUOUS
10
81.9083
20
-115.352
11
81.9113
21
-115.352
0
LINE
8
BLACK
6
CONTINUOUS
10
81.9113
20
-115.352
11
81.9187
21
-115.347
0
LINE
8
BLACK
6
CONTINUOUS
10
81.9187
20
-115.347
11
81.9389
21
-115.347
0
LINE
8
BLACK
6
CONTINUOUS
10
81.9389
20
-115.347
11
81.9588
21
-115.343
0
LINE
8
BLACK
6
CONTINUOUS
10
81.9588
20
-115.343
11
81.964
21
-115.346
0
LINE
8
BLACK
6
CONTINUOUS
10
81.964
20
-115.346
11
81.97
21
-115.346
0
LINE
8
BLACK
6
CONTINUOUS
10
81.97
20
-115.346
11
81.9857
21
-115.359
0
LINE
8
BLACK
6
CONTINUOUS
10
81.9857
20
-115.359
11
82.0032
21
-115.369
0
LINE
8
BLACK
6
CONTINUOUS
10
82.0032
20
-115.369
11
82.0053
21
-115.375
0
LINE
8
BLACK
6
CONTINUOUS
10
82.0053
20
-115.375
11
82.0099
21
-115.378
0
LINE
8
BLACK
6
CONTINUOUS
10
82.0099
20
-115.378
11
82.0139
21
-115.398
0
LINE
8
BLACK
6
CONTINUOUS
10
82.0139
20
-115.398
11
82.0208
21
-115.417
0
LINE
8
BLACK
6
CONTINUOUS
10
82.0208
20
-115.417
11
82.0208
21
-115.542
0
LINE
8
BLACK
6
CONTINUOUS
10
82.0208
20
-115.542
11
82.055
21
-115.611
0
LINE
8
BLACK
6
CONTINUOUS
10
82.055
20
-115.611
11
82.0854
21
-115.641
0
LINE
8
BLACK
6
CONTINUOUS
10
82.0854
20
-115.641
11
82.154
21
-115.675
0
LINE
8
BLACK
6
CONTINUOUS
10
82.154
20
-115.675
11
82.3566
21
-115.675
0
LINE
8
BLACK
6
CONTINUOUS
10
82.3566
20
-115.675
11
82.4252
21
-115.641
0
LINE
8
BLACK
6
CONTINUOUS
10
82.4252
20
-115.641
11
82.4556
21
-115.611
0
LINE
8
BLACK
6
CONTINUOUS
10
82.4556
20
-115.611
11
82.4898
21
-115.542
0
LINE
8
BLACK
6
CONTINUOUS
10
82.4898
20
-115.542
11
82.4898
21
-115.292
0
LINE
8
BLACK
6
CONTINUOUS
10
82.4898
20
-115.292
11
82.4556
21
-115.223
0
LINE
8
BLACK
6
CONTINUOUS
10
82.4556
20
-115.223
11
82.4165
21
-115.184
0
LINE
8
BLACK
6
CONTINUOUS
10
82.4165
20
-115.184
11
82.4016
21
-115.163
0
LINE
8
BLACK
6
CONTINUOUS
10
82.4016
20
-115.163
11
82.3971
21
-115.112
0
LINE
8
BLACK
6
CONTINUOUS
10
82.3971
20
-115.112
11
82.4266
21
-115.07
0
LINE
8
BLACK
6
CONTINUOUS
10
82.4266
20
-115.07
11
82.4761
21
-115.057
0
LINE
8
BLACK
6
CONTINUOUS
10
82.4761
20
-115.057
11
82.5226
21
-115.078
0
LINE
8
BLACK
6
CONTINUOUS
10
82.6223
20
-114.321
11
82.6398
21
-114.37
0
LINE
8
BLACK
6
CONTINUOUS
10
82.6398
20
-114.37
11
82.6398
21
-114.465
0
LINE
8
BLACK
6
CONTINUOUS
10
82.6398
20
-114.465
11
82.6359
21
-114.487
0
LINE
8
BLACK
6
CONTINUOUS
10
82.6359
20
-114.487
11
82.636
21
-114.488
0
LINE
8
BLACK
6
CONTINUOUS
10
82.636
20
-114.488
11
82.5884
21
-114.631
0
LINE
8
BLACK
6
CONTINUOUS
10
82.5884
20
-114.631
11
82.5759
21
-114.654
0
LINE
8
BLACK
6
CONTINUOUS
10
82.5759
20
-114.654
11
82.5721
21
-114.657
0
LINE
8
BLACK
6
CONTINUOUS
10
82.5721
20
-114.657
11
82.5702
21
-114.661
0
LINE
8
BLACK
6
CONTINUOUS
10
82.5702
20
-114.661
11
82.475
21
-114.756
0
LINE
8
BLACK
6
CONTINUOUS
10
82.475
20
-114.756
11
82.4537
21
-114.771
0
LINE
8
BLACK
6
CONTINUOUS
10
82.4537
20
-114.771
11
82.4492
21
-114.771
0
LINE
8
BLACK
6
CONTINUOUS
10
82.4492
20
-114.771
11
82.4457
21
-114.774
0
LINE
8
BLACK
6
CONTINUOUS
10
82.4457
20
-114.774
11
82.3028
21
-114.822
0
LINE
8
BLACK
6
CONTINUOUS
10
82.3028
20
-114.822
11
82.2806
21
-114.825
0
LINE
8
BLACK
6
CONTINUOUS
10
82.2806
20
-114.825
11
82.2791
21
-114.825
0
LINE
8
BLACK
6
CONTINUOUS
10
82.2791
20
-114.825
11
81.5648
21
-114.825
0
LINE
8
BLACK
6
CONTINUOUS
10
81.5648
20
-114.825
11
81.5392
21
-114.821
0
LINE
8
BLACK
6
CONTINUOUS
10
81.5392
20
-114.821
11
81.4999
21
-114.788
0
LINE
8
BLACK
6
CONTINUOUS
10
81.4999
20
-114.788
11
81.491
21
-114.737
0
LINE
8
BLACK
6
CONTINUOUS
10
81.491
20
-114.737
11
81.5166
21
-114.693
0
LINE
8
BLACK
6
CONTINUOUS
10
81.5166
20
-114.693
11
81.5648
21
-114.675
0
LINE
8
BLACK
6
CONTINUOUS
10
81.5648
20
-114.675
11
82.2669
21
-114.675
0
LINE
8
BLACK
6
CONTINUOUS
10
82.2669
20
-114.675
11
82.3814
21
-114.637
0
LINE
8
BLACK
6
CONTINUOUS
10
82.3814
20
-114.637
11
82.4516
21
-114.567
0
LINE
8
BLACK
6
CONTINUOUS
10
82.4516
20
-114.567
11
82.4898
21
-114.453
0
LINE
8
BLACK
6
CONTINUOUS
10
82.4898
20
-114.453
11
82.4898
21
-114.37
0
LINE
8
BLACK
6
CONTINUOUS
10
82.4898
20
-114.37
11
82.4943
21
-114.344
0
LINE
8
BLACK
6
CONTINUOUS
10
82.4943
20
-114.344
11
82.5273
21
-114.305
0
LINE
8
BLACK
6
CONTINUOUS
10
82.5273
20
-114.305
11
82.5778
21
-114.296
0
LINE
8
BLACK
6
CONTINUOUS
10
82.5778
20
-114.296
11
82.6223
21
-114.321
0
LINE
8
BLACK
6
CONTINUOUS
10
82.1986
20
-113.519
11
82.2021
21
-113.519
0
LINE
8
BLACK
6
CONTINUOUS
10
82.2021
20
-113.519
11
82.3925
21
-113.566
0
LINE
8
BLACK
6
CONTINUOUS
10
82.3925
20
-113.566
11
82.4044
21
-113.572
0
LINE
8
BLACK
6
CONTINUOUS
10
82.4044
20
-113.572
11
82.4079
21
-113.572
0
LINE
8
BLACK
6
CONTINUOUS
10
82.4079
20
-113.572
11
82.5031
21
-113.62
0
LINE
8
BLACK
6
CONTINUOUS
10
82.5031
20
-113.62
11
82.5211
21
-113.633
0
LINE
8
BLACK
6
CONTINUOUS
10
82.5211
20
-113.633
11
82.5226
21
-113.634
0
LINE
8
BLACK
6
CONTINUOUS
10
82.5226
20
-113.634
11
82.5702
21
-113.681
0
LINE
8
BLACK
6
CONTINUOUS
10
82.5702
20
-113.681
11
82.5831
21
-113.7
0
LINE
8
BLACK
6
CONTINUOUS
10
82.5831
20
-113.7
11
82.5843
21
-113.701
0
LINE
8
BLACK
6
CONTINUOUS
10
82.5843
20
-113.701
11
82.6319
21
-113.796
0
LINE
8
BLACK
6
CONTINUOUS
10
82.6319
20
-113.796
11
82.6393
21
-113.821
0
LINE
8
BLACK
6
CONTINUOUS
10
82.6393
20
-113.821
11
82.6383
21
-113.825
0
LINE
8
BLACK
6
CONTINUOUS
10
82.6383
20
-113.825
11
82.6398
21
-113.83
0
LINE
8
BLACK
6
CONTINUOUS
10
82.6398
20
-113.83
11
82.6398
21
-113.925
0
LINE
8
BLACK
6
CONTINUOUS
10
82.6398
20
-113.925
11
82.6353
21
-113.95
0
LINE
8
BLACK
6
CONTINUOUS
10
82.6353
20
-113.95
11
82.6324
21
-113.954
0
LINE
8
BLACK
6
CONTINUOUS
10
82.6324
20
-113.954
11
82.6319
21
-113.958
0
LINE
8
BLACK
6
CONTINUOUS
10
82.6319
20
-113.958
11
82.5843
21
-114.054
0
LINE
8
BLACK
6
CONTINUOUS
10
82.5843
20
-114.054
11
82.5709
21
-114.072
0
LINE
8
BLACK
6
CONTINUOUS
10
82.5709
20
-114.072
11
82.5702
21
-114.073
0
LINE
8
BLACK
6
CONTINUOUS
10
82.5702
20
-114.073
11
82.5226
21
-114.121
0
LINE
8
BLACK
6
CONTINUOUS
10
82.5226
20
-114.121
11
82.5042
21
-114.134
0
LINE
8
BLACK
6
CONTINUOUS
10
82.5042
20
-114.134
11
82.5031
21
-114.135
0
LINE
8
BLACK
6
CONTINUOUS
10
82.5031
20
-114.135
11
82.4079
21
-114.182
0
LINE
8
BLACK
6
CONTINUOUS
10
82.4079
20
-114.182
11
82.3955
21
-114.186
0
LINE
8
BLACK
6
CONTINUOUS
10
82.3955
20
-114.186
11
82.3925
21
-114.188
0
LINE
8
BLACK
6
CONTINUOUS
10
82.3925
20
-114.188
11
82.2021
21
-114.236
0
LINE
8
BLACK
6
CONTINUOUS
10
82.2021
20
-114.236
11
82.1871
21
-114.237
0
LINE
8
BLACK
6
CONTINUOUS
10
82.1871
20
-114.237
11
82.1839
21
-114.238
0
LINE
8
BLACK
6
CONTINUOUS
10
82.1839
20
-114.238
11
81.9458
21
-114.238
0
LINE
8
BLACK
6
CONTINUOUS
10
81.9458
20
-114.238
11
81.931
21
-114.235
0
LINE
8
BLACK
6
CONTINUOUS
10
81.931
20
-114.235
11
81.9276
21
-114.236
0
LINE
8
BLACK
6
CONTINUOUS
10
81.9276
20
-114.236
11
81.7371
21
-114.188
0
LINE
8
BLACK
6
CONTINUOUS
10
81.7371
20
-114.188
11
81.7253
21
-114.183
0
LINE
8
BLACK
6
CONTINUOUS
10
81.7253
20
-114.183
11
81.7218
21
-114.182
0
LINE
8
BLACK
6
CONTINUOUS
10
81.7218
20
-114.182
11
81.6265
21
-114.135
0
LINE
8
BLACK
6
CONTINUOUS
10
81.6265
20
-114.135
11
81.6085
21
-114.121
0
LINE
8
BLACK
6
CONTINUOUS
10
81.6085
20
-114.121
11
81.607
21
-114.121
0
LINE
8
BLACK
6
CONTINUOUS
10
81.607
20
-114.121
11
81.5594
21
-114.073
0
LINE
8
BLACK
6
CONTINUOUS
10
81.5594
20
-114.073
11
81.5465
21
-114.055
0
LINE
8
BLACK
6
CONTINUOUS
10
81.5465
20
-114.055
11
81.5454
21
-114.054
0
LINE
8
BLACK
6
CONTINUOUS
10
81.5454
20
-114.054
11
81.4977
21
-113.958
0
LINE
8
BLACK
6
CONTINUOUS
10
81.4977
20
-113.958
11
81.4903
21
-113.933
0
LINE
8
BLACK
6
CONTINUOUS
10
81.4903
20
-113.933
11
81.4914
21
-113.929
0
LINE
8
BLACK
6
CONTINUOUS
10
81.4914
20
-113.929
11
81.4898
21
-113.925
0
LINE
8
BLACK
6
CONTINUOUS
10
81.4898
20
-113.925
11
81.4898
21
-113.83
0
LINE
8
BLACK
6
CONTINUOUS
10
81.4898
20
-113.83
11
81.4943
21
-113.804
0
LINE
8
BLACK
6
CONTINUOUS
10
81.4943
20
-113.804
11
81.4972
21
-113.8
0
LINE
8
BLACK
6
CONTINUOUS
10
81.4972
20
-113.8
11
81.4977
21
-113.796
0
LINE
8
BLACK
6
CONTINUOUS
10
81.4977
20
-113.796
11
81.5454
21
-113.701
0
LINE
8
BLACK
6
CONTINUOUS
10
81.5454
20
-113.701
11
81.5587
21
-113.683
0
LINE
8
BLACK
6
CONTINUOUS
10
81.5587
20
-113.683
11
81.5594
21
-113.681
0
LINE
8
BLACK
6
CONTINUOUS
10
81.5594
20
-113.681
11
81.607
21
-113.634
0
LINE
8
BLACK
6
CONTINUOUS
10
81.607
20
-113.634
11
81.6254
21
-113.621
0
LINE
8
BLACK
6
CONTINUOUS
10
81.6254
20
-113.621
11
81.6265
21
-113.62
0
LINE
8
BLACK
6
CONTINUOUS
10
81.6265
20
-113.62
11
81.7218
21
-113.572
0
LINE
8
BLACK
6
CONTINUOUS
10
81.7218
20
-113.572
11
81.7342
21
-113.568
0
LINE
8
BLACK
6
CONTINUOUS
10
81.7342
20
-113.568
11
81.7371
21
-113.566
0
LINE
8
BLACK
6
CONTINUOUS
10
81.7371
20
-113.566
11
81.9276
21
-113.519
0
LINE
8
BLACK
6
CONTINUOUS
10
81.9276
20
-113.519
11
81.9425
21
-113.518
0
LINE
8
BLACK
6
CONTINUOUS
10
81.9425
20
-113.518
11
81.9458
21
-113.516
0
LINE
8
BLACK
6
CONTINUOUS
10
81.9458
20
-113.516
11
82.1839
21
-113.516
0
LINE
8
BLACK
6
CONTINUOUS
10
82.1839
20
-113.516
11
82.1986
21
-113.519
0
LINE
8
BLACK
6
CONTINUOUS
10
81.7815
20
-113.71
11
81.7045
21
-113.748
0
LINE
8
BLACK
6
CONTINUOUS
10
81.7045
20
-113.748
11
81.6741
21
-113.779
0
LINE
8
BLACK
6
CONTINUOUS
10
81.6741
20
-113.779
11
81.6398
21
-113.847
0
LINE
8
BLACK
6
CONTINUOUS
10
81.6398
20
-113.847
11
81.6398
21
-113.907
0
LINE
8
BLACK
6
CONTINUOUS
10
81.6398
20
-113.907
11
81.6741
21
-113.976
0
LINE
8
BLACK
6
CONTINUOUS
10
81.6741
20
-113.976
11
81.7045
21
-114.006
0
LINE
8
BLACK
6
CONTINUOUS
10
81.7045
20
-114.006
11
81.7815
21
-114.044
0
LINE
8
BLACK
6
CONTINUOUS
10
81.7815
20
-114.044
11
81.955
21
-114.088
0
LINE
8
BLACK
6
CONTINUOUS
10
81.955
20
-114.088
11
82.1746
21
-114.088
0
LINE
8
BLACK
6
CONTINUOUS
10
82.1746
20
-114.088
11
82.3482
21
-114.044
0
LINE
8
BLACK
6
CONTINUOUS
10
82.3482
20
-114.044
11
82.4252
21
-114.006
0
LINE
8
BLACK
6
CONTINUOUS
10
82.4252
20
-114.006
11
82.4556
21
-113.976
0
LINE
8
BLACK
6
CONTINUOUS
10
82.4556
20
-113.976
11
82.4898
21
-113.907
0
LINE
8
BLACK
6
CONTINUOUS
10
82.4898
20
-113.907
11
82.4898
21
-113.847
0
LINE
8
BLACK
6
CONTINUOUS
10
82.4898
20
-113.847
11
82.4556
21
-113.779
0
LINE
8
BLACK
6
CONTINUOUS
10
82.4556
20
-113.779
11
82.4252
21
-113.748
0
LINE
8
BLACK
6
CONTINUOUS
10
82.4252
20
-113.748
11
82.3482
21
-113.71
0
LINE
8
BLACK
6
CONTINUOUS
10
82.3482
20
-113.71
11
82.1746
21
-113.666
0
LINE
8
BLACK
6
CONTINUOUS
10
82.1746
20
-113.666
11
81.955
21
-113.666
0
LINE
8
BLACK
6
CONTINUOUS
10
81.955
20
-113.666
11
81.7815
21
-113.71
0
LINE
8
BLACK
6
CONTINUOUS
10
82.5226
20
-112.538
11
82.5702
21
-112.586
0
LINE
8
BLACK
6
CONTINUOUS
10
82.5702
20
-112.586
11
82.5831
21
-112.604
0
LINE
8
BLACK
6
CONTINUOUS
10
82.5831
20
-112.604
11
82.5843
21
-112.606
0
LINE
8
BLACK
6
CONTINUOUS
10
82.5843
20
-112.606
11
82.6319
21
-112.701
0
LINE
8
BLACK
6
CONTINUOUS
10
82.6319
20
-112.701
11
82.6393
21
-112.726
0
LINE
8
BLACK
6
CONTINUOUS
10
82.6393
20
-112.726
11
82.6383
21
-112.73
0
LINE
8
BLACK
6
CONTINUOUS
10
82.6383
20
-112.73
11
82.6398
21
-112.734
0
LINE
8
BLACK
6
CONTINUOUS
10
82.6398
20
-112.734
11
82.6398
21
-113.02
0
LINE
8
BLACK
6
CONTINUOUS
10
82.6398
20
-113.02
11
82.6353
21
-113.046
0
LINE
8
BLACK
6
CONTINUOUS
10
82.6353
20
-113.046
11
82.6324
21
-113.049
0
LINE
8
BLACK
6
CONTINUOUS
10
82.6324
20
-113.049
11
82.6319
21
-113.054
0
LINE
8
BLACK
6
CONTINUOUS
10
82.6319
20
-113.054
11
82.5843
21
-113.149
0
LINE
8
BLACK
6
CONTINUOUS
10
82.5843
20
-113.149
11
82.5709
21
-113.167
0
LINE
8
BLACK
6
CONTINUOUS
10
82.5709
20
-113.167
11
82.5702
21
-113.168
0
LINE
8
BLACK
6
CONTINUOUS
10
82.5702
20
-113.168
11
82.5226
21
-113.216
0
LINE
8
BLACK
6
CONTINUOUS
10
82.5226
20
-113.216
11
82.5042
21
-113.229
0
LINE
8
BLACK
6
CONTINUOUS
10
82.5042
20
-113.229
11
82.5031
21
-113.23
0
LINE
8
BLACK
6
CONTINUOUS
10
82.5031
20
-113.23
11
82.4079
21
-113.278
0
LINE
8
BLACK
6
CONTINUOUS
10
82.4079
20
-113.278
11
82.3829
21
-113.285
0
LINE
8
BLACK
6
CONTINUOUS
10
82.3829
20
-113.285
11
82.3786
21
-113.284
0
LINE
8
BLACK
6
CONTINUOUS
10
82.3786
20
-113.284
11
82.3743
21
-113.285
0
LINE
8
BLACK
6
CONTINUOUS
10
82.3743
20
-113.285
11
82.1362
21
-113.285
0
LINE
8
BLACK
6
CONTINUOUS
10
82.1362
20
-113.285
11
82.1106
21
-113.281
0
LINE
8
BLACK
6
CONTINUOUS
10
82.1106
20
-113.281
11
82.1072
21
-113.278
0
LINE
8
BLACK
6
CONTINUOUS
10
82.1072
20
-113.278
11
82.1027
21
-113.278
0
LINE
8
BLACK
6
CONTINUOUS
10
82.1027
20
-113.278
11
82.0075
21
-113.23
0
LINE
8
BLACK
6
CONTINUOUS
10
82.0075
20
-113.23
11
81.9895
21
-113.217
0
LINE
8
BLACK
6
CONTINUOUS
10
81.9895
20
-113.217
11
81.988
21
-113.216
0
LINE
8
BLACK
6
CONTINUOUS
10
81.988
20
-113.216
11
81.9404
21
-113.168
0
LINE
8
BLACK
6
CONTINUOUS
10
81.9404
20
-113.168
11
81.9275
21
-113.15
0
LINE
8
BLACK
6
CONTINUOUS
10
81.9275
20
-113.15
11
81.9263
21
-113.149
0
LINE
8
BLACK
6
CONTINUOUS
10
81.9263
20
-113.149
11
81.8787
21
-113.054
0
LINE
8
BLACK
6
CONTINUOUS
10
81.8787
20
-113.054
11
81.8744
21
-113.039
0
LINE
8
BLACK
6
CONTINUOUS
10
81.8744
20
-113.039
11
81.6142
21
-113.267
0
LINE
8
BLACK
6
CONTINUOUS
10
81.6142
20
-113.267
11
81.6046
21
-113.273
0
LINE
8
BLACK
6
CONTINUOUS
10
81.6046
20
-113.273
11
81.6023
21
-113.275
0
LINE
8
BLACK
6
CONTINUOUS
10
81.6023
20
-113.275
11
81.5993
21
-113.276
0
LINE
8
BLACK
6
CONTINUOUS
10
81.5993
20
-113.276
11
81.5919
21
-113.28
0
LINE
8
BLACK
6
CONTINUOUS
10
81.5919
20
-113.28
11
81.5717
21
-113.281
0
LINE
8
BLACK
6
CONTINUOUS
10
81.5717
20
-113.281
11
81.5518
21
-113.284
0
LINE
8
BLACK
6
CONTINUOUS
10
81.5518
20
-113.284
11
81.5466
21
-113.281
0
LINE
8
BLACK
6
CONTINUOUS
10
81.5466
20
-113.281
11
81.5406
21
-113.281
0
LINE
8
BLACK
6
CONTINUOUS
10
81.5406
20
-113.281
11
81.5249
21
-113.269
0
LINE
8
BLACK
6
CONTINUOUS
10
81.5249
20
-113.269
11
81.5074
21
-113.259
0
LINE
8
BLACK
6
CONTINUOUS
10
81.5074
20
-113.259
11
81.5053
21
-113.253
0
LINE
8
BLACK
6
CONTINUOUS
10
81.5053
20
-113.253
11
81.5007
21
-113.249
0
LINE
8
BLACK
6
CONTINUOUS
10
81.5007
20
-113.249
11
81.4967
21
-113.229
0
LINE
8
BLACK
6
CONTINUOUS
10
81.4967
20
-113.229
11
81.4898
21
-113.21
0
LINE
8
BLACK
6
CONTINUOUS
10
81.4898
20
-113.21
11
81.4898
21
-112.591
0
LINE
8
BLACK
6
CONTINUOUS
10
81.4898
20
-112.591
11
81.4943
21
-112.566
0
LINE
8
BLACK
6
CONTINUOUS
10
81.4943
20
-112.566
11
81.5273
21
-112.526
0
LINE
8
BLACK
6
CONTINUOUS
10
81.5273
20
-112.526
11
81.5778
21
-112.518
0
LINE
8
BLACK
6
CONTINUOUS
10
81.5778
20
-112.518
11
81.6223
21
-112.543
0
LINE
8
BLACK
6
CONTINUOUS
10
81.6223
20
-112.543
11
81.6398
21
-112.591
0
LINE
8
BLACK
6
CONTINUOUS
10
81.6398
20
-112.591
11
81.6398
21
-113.045
0
LINE
8
BLACK
6
CONTINUOUS
10
81.6398
20
-113.045
11
81.8964
21
-112.821
0
LINE
8
BLACK
6
CONTINUOUS
10
81.8964
20
-112.821
11
81.906
21
-112.815
0
LINE
8
BLACK
6
CONTINUOUS
10
81.906
20
-112.815
11
81.9083
21
-112.812
0
LINE
8
BLACK
6
CONTINUOUS
10
81.9083
20
-112.812
11
81.9113
21
-112.812
0
LINE
8
BLACK
6
CONTINUOUS
10
81.9113
20
-112.812
11
81.9187
21
-112.807
0
LINE
8
BLACK
6
CONTINUOUS
10
81.9187
20
-112.807
11
81.9389
21
-112.807
0
LINE
8
BLACK
6
CONTINUOUS
10
81.9389
20
-112.807
11
81.9588
21
-112.803
0
LINE
8
BLACK
6
CONTINUOUS
10
81.9588
20
-112.803
11
81.964
21
-112.806
0
LINE
8
BLACK
6
CONTINUOUS
10
81.964
20
-112.806
11
81.97
21
-112.806
0
LINE
8
BLACK
6
CONTINUOUS
10
81.97
20
-112.806
11
81.9857
21
-112.819
0
LINE
8
BLACK
6
CONTINUOUS
10
81.9857
20
-112.819
11
82.0032
21
-112.829
0
LINE
8
BLACK
6
CONTINUOUS
10
82.0032
20
-112.829
11
82.0053
21
-112.835
0
LINE
8
BLACK
6
CONTINUOUS
10
82.0053
20
-112.835
11
82.0099
21
-112.838
0
LINE
8
BLACK
6
CONTINUOUS
10
82.0099
20
-112.838
11
82.0139
21
-112.858
0
LINE
8
BLACK
6
CONTINUOUS
10
82.0139
20
-112.858
11
82.0208
21
-112.877
0
LINE
8
BLACK
6
CONTINUOUS
10
82.0208
20
-112.877
11
82.0208
21
-113.002
0
LINE
8
BLACK
6
CONTINUOUS
10
82.0208
20
-113.002
11
82.055
21
-113.071
0
LINE
8
BLACK
6
CONTINUOUS
10
82.055
20
-113.071
11
82.0854
21
-113.101
0
LINE
8
BLACK
6
CONTINUOUS
10
82.0854
20
-113.101
11
82.154
21
-113.135
0
LINE
8
BLACK
6
CONTINUOUS
10
82.154
20
-113.135
11
82.3566
21
-113.135
0
LINE
8
BLACK
6
CONTINUOUS
10
82.3566
20
-113.135
11
82.4252
21
-113.101
0
LINE
8
BLACK
6
CONTINUOUS
10
82.4252
20
-113.101
11
82.4556
21
-113.071
0
LINE
8
BLACK
6
CONTINUOUS
10
82.4556
20
-113.071
11
82.4898
21
-113.002
0
LINE
8
BLACK
6
CONTINUOUS
10
82.4898
20
-113.002
11
82.4898
21
-112.752
0
LINE
8
BLACK
6
CONTINUOUS
10
82.4898
20
-112.752
11
82.4556
21
-112.683
0
LINE
8
BLACK
6
CONTINUOUS
10
82.4556
20
-112.683
11
82.4165
21
-112.644
0
LINE
8
BLACK
6
CONTINUOUS
10
82.4165
20
-112.644
11
82.4016
21
-112.623
0
LINE
8
BLACK
6
CONTINUOUS
10
82.4016
20
-112.623
11
82.3971
21
-112.572
0
LINE
8
BLACK
6
CONTINUOUS
10
82.3971
20
-112.572
11
82.4266
21
-112.53
0
LINE
8
BLACK
6
CONTINUOUS
10
82.4266
20
-112.53
11
82.4761
21
-112.517
0
LINE
8
BLACK
6
CONTINUOUS
10
82.4761
20
-112.517
11
82.5226
21
-112.538
0
LINE
8
BLACK
6
CONTINUOUS
10
82.6223
20
-111.781
11
82.6398
21
-111.83
0
LINE
8
BLACK
6
CONTINUOUS
10
82.6398
20
-111.83
11
82.6398
21
-111.925
0
LINE
8
BLACK
6
CONTINUOUS
10
82.6398
20
-111.925
11
82.6359
21
-111.947
0
LINE
8
BLACK
6
CONTINUOUS
10
82.6359
20
-111.947
11
82.636
21
-111.948
0
LINE
8
BLACK
6
CONTINUOUS
10
82.636
20
-111.948
11
82.5884
21
-112.091
0
LINE
8
BLACK
6
CONTINUOUS
10
82.5884
20
-112.091
11
82.5759
21
-112.114
0
LINE
8
BLACK
6
CONTINUOUS
10
82.5759
20
-112.114
11
82.5721
21
-112.117
0
LINE
8
BLACK
6
CONTINUOUS
10
82.5721
20
-112.117
11
82.5702
21
-112.121
0
LINE
8
BLACK
6
CONTINUOUS
10
82.5702
20
-112.121
11
82.475
21
-112.216
0
LINE
8
BLACK
6
CONTINUOUS
10
82.475
20
-112.216
11
82.4537
21
-112.231
0
LINE
8
BLACK
6
CONTINUOUS
10
82.4537
20
-112.231
11
82.4492
21
-112.231
0
LINE
8
BLACK
6
CONTINUOUS
10
82.4492
20
-112.231
11
82.4457
21
-112.234
0
LINE
8
BLACK
6
CONTINUOUS
10
82.4457
20
-112.234
11
82.3028
21
-112.282
0
LINE
8
BLACK
6
CONTINUOUS
10
82.3028
20
-112.282
11
82.2806
21
-112.285
0
LINE
8
BLACK
6
CONTINUOUS
10
82.2806
20
-112.285
11
82.2791
21
-112.285
0
LINE
8
BLACK
6
CONTINUOUS
10
82.2791
20
-112.285
11
81.5648
21
-112.285
0
LINE
8
BLACK
6
CONTINUOUS
10
81.5648
20
-112.285
11
81.5392
21
-112.281
0
LINE
8
BLACK
6
CONTINUOUS
10
81.5392
20
-112.281
11
81.4999
21
-112.248
0
LINE
8
BLACK
6
CONTINUOUS
10
81.4999
20
-112.248
11
81.491
21
-112.197
0
LINE
8
BLACK
6
CONTINUOUS
10
81.491
20
-112.197
11
81.5166
21
-112.153
0
LINE
8
BLACK
6
CONTINUOUS
10
81.5166
20
-112.153
11
81.5648
21
-112.135
0
LINE
8
BLACK
6
CONTINUOUS
10
81.5648
20
-112.135
11
82.2669
21
-112.135
0
LINE
8
BLACK
6
CONTINUOUS
10
82.2669
20
-112.135
11
82.3814
21
-112.097
0
LINE
8
BLACK
6
CONTINUOUS
10
82.3814
20
-112.097
11
82.4516
21
-112.027
0
LINE
8
BLACK
6
CONTINUOUS
10
82.4516
20
-112.027
11
82.4898
21
-111.913
0
LINE
8
BLACK
6
CONTINUOUS
10
82.4898
20
-111.913
11
82.4898
21
-111.83
0
LINE
8
BLACK
6
CONTINUOUS
10
82.4898
20
-111.83
11
82.4943
21
-111.804
0
LINE
8
BLACK
6
CONTINUOUS
10
82.4943
20
-111.804
11
82.5273
21
-111.765
0
LINE
8
BLACK
6
CONTINUOUS
10
82.5273
20
-111.765
11
82.5778
21
-111.756
0
LINE
8
BLACK
6
CONTINUOUS
10
82.5778
20
-111.756
11
82.6223
21
-111.781
0
LINE
8
BLACK
6
CONTINUOUS
10
81.8952
20
-110.991
11
81.9235
21
-111.034
0
LINE
8
BLACK
6
CONTINUOUS
10
81.9235
20
-111.034
11
81.9176
21
-111.085
0
LINE
8
BLACK
6
CONTINUOUS
10
81.9176
20
-111.085
11
81.87
21
-111.18
0
LINE
8
BLACK
6
CONTINUOUS
10
81.87
20
-111.18
11
81.8566
21
-111.198
0
LINE
8
BLACK
6
CONTINUOUS
10
81.8566
20
-111.198
11
81.8559
21
-111.2
0
LINE
8
BLACK
6
CONTINUOUS
10
81.8559
20
-111.2
11
81.7935
21
-111.262
0
LINE
8
BLACK
6
CONTINUOUS
10
81.7935
20
-111.262
11
82.4898
21
-111.262
0
LINE
8
BLACK
6
CONTINUOUS
10
82.4898
20
-111.262
11
82.4898
21
-111.051
0
LINE
8
BLACK
6
CONTINUOUS
10
82.4898
20
-111.051
11
82.4943
21
-111.026
0
LINE
8
BLACK
6
CONTINUOUS
10
82.4943
20
-111.026
11
82.5273
21
-110.986
0
LINE
8
BLACK
6
CONTINUOUS
10
82.5273
20
-110.986
11
82.5778
21
-110.978
0
LINE
8
BLACK
6
CONTINUOUS
10
82.5778
20
-110.978
11
82.6223
21
-111.003
0
LINE
8
BLACK
6
CONTINUOUS
10
82.6223
20
-111.003
11
82.6398
21
-111.051
0
LINE
8
BLACK
6
CONTINUOUS
10
82.6398
20
-111.051
11
82.6398
21
-111.623
0
LINE
8
BLACK
6
CONTINUOUS
10
82.6398
20
-111.623
11
82.6353
21
-111.649
0
LINE
8
BLACK
6
CONTINUOUS
10
82.6353
20
-111.649
11
82.6023
21
-111.688
0
LINE
8
BLACK
6
CONTINUOUS
10
82.6023
20
-111.688
11
82.5518
21
-111.697
0
LINE
8
BLACK
6
CONTINUOUS
10
82.5518
20
-111.697
11
82.5074
21
-111.671
0
LINE
8
BLACK
6
CONTINUOUS
10
82.5074
20
-111.671
11
82.4898
21
-111.623
0
LINE
8
BLACK
6
CONTINUOUS
10
82.4898
20
-111.623
11
82.4898
21
-111.412
0
LINE
8
BLACK
6
CONTINUOUS
10
82.4898
20
-111.412
11
81.5648
21
-111.412
0
LINE
8
BLACK
6
CONTINUOUS
10
81.5648
20
-111.412
11
81.5392
21
-111.408
0
LINE
8
BLACK
6
CONTINUOUS
10
81.5392
20
-111.408
11
81.5359
21
-111.405
0
LINE
8
BLACK
6
CONTINUOUS
10
81.5359
20
-111.405
11
81.5316
21
-111.404
0
LINE
8
BLACK
6
CONTINUOUS
10
81.5316
20
-111.404
11
81.5165
21
-111.389
0
LINE
8
BLACK
6
CONTINUOUS
10
81.5165
20
-111.389
11
81.4999
21
-111.375
0
LINE
8
BLACK
6
CONTINUOUS
10
81.4999
20
-111.375
11
81.4991
21
-111.37
0
LINE
8
BLACK
6
CONTINUOUS
10
81.4991
20
-111.37
11
81.4961
21
-111.367
0
LINE
8
BLACK
6
CONTINUOUS
10
81.4961
20
-111.367
11
81.4947
21
-111.346
0
LINE
8
BLACK
6
CONTINUOUS
10
81.4947
20
-111.346
11
81.491
21
-111.324
0
LINE
8
BLACK
6
CONTINUOUS
10
81.491
20
-111.324
11
81.4931
21
-111.32
0
LINE
8
BLACK
6
CONTINUOUS
10
81.4931
20
-111.32
11
81.4928
21
-111.316
0
LINE
8
BLACK
6
CONTINUOUS
10
81.4928
20
-111.316
11
81.5057
21
-111.299
0
LINE
8
BLACK
6
CONTINUOUS
10
81.5057
20
-111.299
11
81.5166
21
-111.28
0
LINE
8
BLACK
6
CONTINUOUS
10
81.5166
20
-111.28
11
81.5207
21
-111.278
0
LINE
8
BLACK
6
CONTINUOUS
10
81.5207
20
-111.278
11
81.5232
21
-111.275
0
LINE
8
BLACK
6
CONTINUOUS
10
81.5232
20
-111.275
11
81.6599
21
-111.184
0
LINE
8
BLACK
6
CONTINUOUS
10
81.6599
20
-111.184
11
81.7413
21
-111.102
0
LINE
8
BLACK
6
CONTINUOUS
10
81.7413
20
-111.102
11
81.7835
21
-111.018
0
LINE
8
BLACK
6
CONTINUOUS
10
81.7835
20
-111.018
11
81.799
21
-110.997
0
LINE
8
BLACK
6
CONTINUOUS
10
81.799
20
-110.997
11
81.846
21
-110.977
0
LINE
8
BLACK
6
CONTINUOUS
10
81.846
20
-110.977
11
81.8952
21
-110.991
0
LINE
8
BLACK
6
CONTINUOUS
10
82.5226
20
-109.998
11
82.5702
21
-110.046
0
LINE
8
BLACK
6
CONTINUOUS
10
82.5702
20
-110.046
11
82.5831
21
-110.064
0
LINE
8
BLACK
6
CONTINUOUS
10
82.5831
20
-110.064
11
82.5843
21
-110.066
0
LINE
8
BLACK
6
CONTINUOUS
10
82.5843
20
-110.066
11
82.6319
21
-110.161
0
LINE
8
BLACK
6
CONTINUOUS
10
82.6319
20
-110.161
11
82.6393
21
-110.186
0
LINE
8
BLACK
6
CONTINUOUS
10
82.6393
20
-110.186
11
82.6383
21
-110.19
0
LINE
8
BLACK
6
CONTINUOUS
10
82.6383
20
-110.19
11
82.6398
21
-110.194
0
LINE
8
BLACK
6
CONTINUOUS
10
82.6398
20
-110.194
11
82.6398
21
-110.48
0
LINE
8
BLACK
6
CONTINUOUS
10
82.6398
20
-110.48
11
82.6353
21
-110.506
0
LINE
8
BLACK
6
CONTINUOUS
10
82.6353
20
-110.506
11
82.6324
21
-110.509
0
LINE
8
BLACK
6
CONTINUOUS
10
82.6324
20
-110.509
11
82.6319
21
-110.514
0
LINE
8
BLACK
6
CONTINUOUS
10
82.6319
20
-110.514
11
82.5843
21
-110.609
0
LINE
8
BLACK
6
CONTINUOUS
10
82.5843
20
-110.609
11
82.5709
21
-110.627
0
LINE
8
BLACK
6
CONTINUOUS
10
82.5709
20
-110.627
11
82.5702
21
-110.628
0
LINE
8
BLACK
6
CONTINUOUS
10
82.5702
20
-110.628
11
82.5226
21
-110.676
0
LINE
8
BLACK
6
CONTINUOUS
10
82.5226
20
-110.676
11
82.5042
21
-110.689
0
LINE
8
BLACK
6
CONTINUOUS
10
82.5042
20
-110.689
11
82.5031
21
-110.69
0
LINE
8
BLACK
6
CONTINUOUS
10
82.5031
20
-110.69
11
82.4079
21
-110.738
0
LINE
8
BLACK
6
CONTINUOUS
10
82.4079
20
-110.738
11
82.3829
21
-110.745
0
LINE
8
BLACK
6
CONTINUOUS
10
82.3829
20
-110.745
11
82.3786
21
-110.744
0
LINE
8
BLACK
6
CONTINUOUS
10
82.3786
20
-110.744
11
82.3743
21
-110.745
0
LINE
8
BLACK
6
CONTINUOUS
10
82.3743
20
-110.745
11
82.1362
21
-110.745
0
LINE
8
BLACK
6
CONTINUOUS
10
82.1362
20
-110.745
11
82.1106
21
-110.741
0
LINE
8
BLACK
6
CONTINUOUS
10
82.1106
20
-110.741
11
82.1072
21
-110.738
0
LINE
8
BLACK
6
CONTINUOUS
10
82.1072
20
-110.738
11
82.1027
21
-110.738
0
LINE
8
BLACK
6
CONTINUOUS
10
82.1027
20
-110.738
11
82.0075
21
-110.69
0
LINE
8
BLACK
6
CONTINUOUS
10
82.0075
20
-110.69
11
81.9895
21
-110.677
0
LINE
8
BLACK
6
CONTINUOUS
10
81.9895
20
-110.677
11
81.988
21
-110.676
0
LINE
8
BLACK
6
CONTINUOUS
10
81.988
20
-110.676
11
81.9404
21
-110.628
0
LINE
8
BLACK
6
CONTINUOUS
10
81.9404
20
-110.628
11
81.9275
21
-110.61
0
LINE
8
BLACK
6
CONTINUOUS
10
81.9275
20
-110.61
11
81.9263
21
-110.609
0
LINE
8
BLACK
6
CONTINUOUS
10
81.9263
20
-110.609
11
81.8787
21
-110.514
0
LINE
8
BLACK
6
CONTINUOUS
10
81.8787
20
-110.514
11
81.8744
21
-110.499
0
LINE
8
BLACK
6
CONTINUOUS
10
81.8744
20
-110.499
11
81.6142
21
-110.727
0
LINE
8
BLACK
6
CONTINUOUS
10
81.6142
20
-110.727
11
81.6046
21
-110.733
0
LINE
8
BLACK
6
CONTINUOUS
10
81.6046
20
-110.733
11
81.6023
21
-110.735
0
LINE
8
BLACK
6
CONTINUOUS
10
81.6023
20
-110.735
11
81.5993
21
-110.736
0
LINE
8
BLACK
6
CONTINUOUS
10
81.5993
20
-110.736
11
81.5919
21
-110.74
0
LINE
8
BLACK
6
CONTINUOUS
10
81.5919
20
-110.74
11
81.5717
21
-110.741
0
LINE
8
BLACK
6
CONTINUOUS
10
81.5717
20
-110.741
11
81.5518
21
-110.744
0
LINE
8
BLACK
6
CONTINUOUS
10
81.5518
20
-110.744
11
81.5466
21
-110.741
0
LINE
8
BLACK
6
CONTINUOUS
10
81.5466
20
-110.741
11
81.5406
21
-110.741
0
LINE
8
BLACK
6
CONTINUOUS
10
81.5406
20
-110.741
11
81.5249
21
-110.729
0
LINE
8
BLACK
6
CONTINUOUS
10
81.5249
20
-110.729
11
81.5074
21
-110.719
0
LINE
8
BLACK
6
CONTINUOUS
10
81.5074
20
-110.719
11
81.5053
21
-110.713
0
LINE
8
BLACK
6
CONTINUOUS
10
81.5053
20
-110.713
11
81.5007
21
-110.709
0
LINE
8
BLACK
6
CONTINUOUS
10
81.5007
20
-110.709
11
81.4967
21
-110.689
0
LINE
8
BLACK
6
CONTINUOUS
10
81.4967
20
-110.689
11
81.4898
21
-110.67
0
LINE
8
BLACK
6
CONTINUOUS
10
81.4898
20
-110.67
11
81.4898
21
-110.051
0
LINE
8
BLACK
6
CONTINUOUS
10
81.4898
20
-110.051
11
81.4943
21
-110.026
0
LINE
8
BLACK
6
CONTINUOUS
10
81.4943
20
-110.026
11
81.5273
21
-109.986
0
LINE
8
BLACK
6
CONTINUOUS
10
81.5273
20
-109.986
11
81.5778
21
-109.978
0
LINE
8
BLACK
6
CONTINUOUS
10
81.5778
20
-109.978
11
81.6223
21
-110.003
0
LINE
8
BLACK
6
CONTINUOUS
10
81.6223
20
-110.003
11
81.6398
21
-110.051
0
LINE
8
BLACK
6
CONTINUOUS
10
81.6398
20
-110.051
11
81.6398
21
-110.505
0
LINE
8
BLACK
6
CONTINUOUS
10
81.6398
20
-110.505
11
81.8964
21
-110.281
0
LINE
8
BLACK
6
CONTINUOUS
10
81.8964
20
-110.281
11
81.906
21
-110.275
0
LINE
8
BLACK
6
CONTINUOUS
10
81.906
20
-110.275
11
81.9083
21
-110.272
0
LINE
8
BLACK
6
CONTINUOUS
10
81.9083
20
-110.272
11
81.9113
21
-110.272
0
LINE
8
BLACK
6
CONTINUOUS
10
81.9113
20
-110.272
11
81.9187
21
-110.267
0
LINE
8
BLACK
6
CONTINUOUS
10
81.9187
20
-110.267
11
81.9389
21
-110.267
0
LINE
8
BLACK
6
CONTINUOUS
10
81.9389
20
-110.267
11
81.9588
21
-110.263
0
LINE
8
BLACK
6
CONTINUOUS
10
81.9588
20
-110.263
11
81.964
21
-110.266
0
LINE
8
BLACK
6
CONTINUOUS
10
81.964
20
-110.266
11
81.97
21
-110.266
0
LINE
8
BLACK
6
CONTINUOUS
10
81.97
20
-110.266
11
81.9857
21
-110.279
0
LINE
8
BLACK
6
CONTINUOUS
10
81.9857
20
-110.279
11
82.0032
21
-110.289
0
LINE
8
BLACK
6
CONTINUOUS
10
82.0032
20
-110.289
11
82.0053
21
-110.295
0
LINE
8
BLACK
6
CONTINUOUS
10
82.0053
20
-110.295
11
82.0099
21
-110.298
0
LINE
8
BLACK
6
CONTINUOUS
10
82.0099
20
-110.298
11
82.0139
21
-110.318
0
LINE
8
BLACK
6
CONTINUOUS
10
82.0139
20
-110.318
11
82.0208
21
-110.337
0
LINE
8
BLACK
6
CONTINUOUS
10
82.0208
20
-110.337
11
82.0208
21
-110.462
0
LINE
8
BLACK
6
CONTINUOUS
10
82.0208
20
-110.462
11
82.055
21
-110.531
0
LINE
8
BLACK
6
CONTINUOUS
10
82.055
20
-110.531
11
82.0854
21
-110.561
0
LINE
8
BLACK
6
CONTINUOUS
10
82.0854
20
-110.561
11
82.154
21
-110.595
0
LINE
8
BLACK
6
CONTINUOUS
10
82.154
20
-110.595
11
82.3566
21
-110.595
0
LINE
8
BLACK
6
CONTINUOUS
10
82.3566
20
-110.595
11
82.4252
21
-110.561
0
LINE
8
BLACK
6
CONTINUOUS
10
82.4252
20
-110.561
11
82.4556
21
-110.531
0
LINE
8
BLACK
6
CONTINUOUS
10
82.4556
20
-110.531
11
82.4898
21
-110.462
0
LINE
8
BLACK
6
CONTINUOUS
10
82.4898
20
-110.462
11
82.4898
21
-110.212
0
LINE
8
BLACK
6
CONTINUOUS
10
82.4898
20
-110.212
11
82.4556
21
-110.143
0
LINE
8
BLACK
6
CONTINUOUS
10
82.4556
20
-110.143
11
82.4165
21
-110.104
0
LINE
8
BLACK
6
CONTINUOUS
10
82.4165
20
-110.104
11
82.4016
21
-110.083
0
LINE
8
BLACK
6
CONTINUOUS
10
82.4016
20
-110.083
11
82.3971
21
-110.032
0
LINE
8
BLACK
6
CONTINUOUS
10
82.3971
20
-110.032
11
82.4266
21
-109.99
0
LINE
8
BLACK
6
CONTINUOUS
10
82.4266
20
-109.99
11
82.4761
21
-109.977
0
LINE
8
BLACK
6
CONTINUOUS
10
82.4761
20
-109.977
11
82.5226
21
-109.998
0
LINE
8
BLACK
6
CONTINUOUS
10
82.6223
20
-109.241
11
82.6398
21
-109.29
0
LINE
8
BLACK
6
CONTINUOUS
10
82.6398
20
-109.29
11
82.6398
21
-109.385
0
LINE
8
BLACK
6
CONTINUOUS
10
82.6398
20
-109.385
11
82.6359
21
-109.407
0
LINE
8
BLACK
6
CONTINUOUS
10
82.6359
20
-109.407
11
82.636
21
-109.408
0
LINE
8
BLACK
6
CONTINUOUS
10
82.636
20
-109.408
11
82.5884
21
-109.551
0
LINE
8
BLACK
6
CONTINUOUS
10
82.5884
20
-109.551
11
82.5759
21
-109.574
0
LINE
8
BLACK
6
CONTINUOUS
10
82.5759
20
-109.574
11
82.5721
21
-109.577
0
LINE
8
BLACK
6
CONTINUOUS
10
82.5721
20
-109.577
11
82.5702
21
-109.581
0
LINE
8
BLACK
6
CONTINUOUS
10
82.5702
20
-109.581
11
82.475
21
-109.676
0
LINE
8
BLACK
6
CONTINUOUS
10
82.475
20
-109.676
11
82.4537
21
-109.691
0
LINE
8
BLACK
6
CONTINUOUS
10
82.4537
20
-109.691
11
82.4492
21
-109.691
0
LINE
8
BLACK
6
CONTINUOUS
10
82.4492
20
-109.691
11
82.4457
21
-109.694
0
LINE
8
BLACK
6
CONTINUOUS
10
82.4457
20
-109.694
11
82.3028
21
-109.742
0
LINE
8
BLACK
6
CONTINUOUS
10
82.3028
20
-109.742
11
82.2806
21
-109.745
0
LINE
8
BLACK
6
CONTINUOUS
10
82.2806
20
-109.745
11
82.2791
21
-109.745
0
LINE
8
BLACK
6
CONTINUOUS
10
82.2791
20
-109.745
11
81.5648
21
-109.745
0
LINE
8
BLACK
6
CONTINUOUS
10
81.5648
20
-109.745
11
81.5392
21
-109.741
0
LINE
8
BLACK
6
CONTINUOUS
10
81.5392
20
-109.741
11
81.4999
21
-109.708
0
LINE
8
BLACK
6
CONTINUOUS
10
81.4999
20
-109.708
11
81.491
21
-109.657
0
LINE
8
BLACK
6
CONTINUOUS
10
81.491
20
-109.657
11
81.5166
21
-109.613
0
LINE
8
BLACK
6
CONTINUOUS
10
81.5166
20
-109.613
11
81.5648
21
-109.595
0
LINE
8
BLACK
6
CONTINUOUS
10
81.5648
20
-109.595
11
82.2669
21
-109.595
0
LINE
8
BLACK
6
CONTINUOUS
10
82.2669
20
-109.595
11
82.3814
21
-109.557
0
LINE
8
BLACK
6
CONTINUOUS
10
82.3814
20
-109.557
11
82.4516
21
-109.487
0
LINE
8
BLACK
6
CONTINUOUS
10
82.4516
20
-109.487
11
82.4898
21
-109.373
0
LINE
8
BLACK
6
CONTINUOUS
10
82.4898
20
-109.373
11
82.4898
21
-109.29
0
LINE
8
BLACK
6
CONTINUOUS
10
82.4898
20
-109.29
11
82.4943
21
-109.264
0
LINE
8
BLACK
6
CONTINUOUS
10
82.4943
20
-109.264
11
82.5273
21
-109.225
0
LINE
8
BLACK
6
CONTINUOUS
10
82.5273
20
-109.225
11
82.5778
21
-109.216
0
LINE
8
BLACK
6
CONTINUOUS
10
82.5778
20
-109.216
11
82.6223
21
-109.241
0
LINE
8
BLACK
6
CONTINUOUS
10
82.5808
20
-108.392
11
82.5842
21
-108.391
0
LINE
8
BLACK
6
CONTINUOUS
10
82.5842
20
-108.391
11
82.6027
21
-108.404
0
LINE
8
BLACK
6
CONTINUOUS
10
82.6027
20
-108.404
11
82.6223
21
-108.416
0
LINE
8
BLACK
6
CONTINUOUS
10
82.6223
20
-108.416
11
82.6234
21
-108.419
0
LINE
8
BLACK
6
CONTINUOUS
10
82.6234
20
-108.419
11
82.6263
21
-108.421
0
LINE
8
BLACK
6
CONTINUOUS
10
82.6263
20
-108.421
11
82.6321
21
-108.443
0
LINE
8
BLACK
6
CONTINUOUS
10
82.6321
20
-108.443
11
82.6398
21
-108.464
0
LINE
8
BLACK
6
CONTINUOUS
10
82.6398
20
-108.464
11
82.6398
21
-109.083
0
LINE
8
BLACK
6
CONTINUOUS
10
82.6398
20
-109.083
11
82.6353
21
-109.109
0
LINE
8
BLACK
6
CONTINUOUS
10
82.6353
20
-109.109
11
82.6023
21
-109.148
0
LINE
8
BLACK
6
CONTINUOUS
10
82.6023
20
-109.148
11
82.5518
21
-109.157
0
LINE
8
BLACK
6
CONTINUOUS
10
82.5518
20
-109.157
11
82.5074
21
-109.131
0
LINE
8
BLACK
6
CONTINUOUS
10
82.5074
20
-109.131
11
82.4898
21
-109.083
0
LINE
8
BLACK
6
CONTINUOUS
10
82.4898
20
-109.083
11
82.4898
21
-108.645
0
LINE
8
BLACK
6
CONTINUOUS
10
82.4898
20
-108.645
11
82.0464
21
-109.088
0
LINE
8
BLACK
6
CONTINUOUS
10
82.0464
20
-109.088
11
82.0251
21
-109.103
0
LINE
8
BLACK
6
CONTINUOUS
10
82.0251
20
-109.103
11
82.0206
21
-109.104
0
LINE
8
BLACK
6
CONTINUOUS
10
82.0206
20
-109.104
11
82.0171
21
-109.106
0
LINE
8
BLACK
6
CONTINUOUS
10
82.0171
20
-109.106
11
81.8742
21
-109.154
0
LINE
8
BLACK
6
CONTINUOUS
10
81.8742
20
-109.154
11
81.8521
21
-109.157
0
LINE
8
BLACK
6
CONTINUOUS
10
81.8521
20
-109.157
11
81.8505
21
-109.158
0
LINE
8
BLACK
6
CONTINUOUS
10
81.8505
20
-109.158
11
81.7553
21
-109.158
0
LINE
8
BLACK
6
CONTINUOUS
10
81.7553
20
-109.158
11
81.7296
21
-109.153
0
LINE
8
BLACK
6
CONTINUOUS
10
81.7296
20
-109.153
11
81.7262
21
-109.15
0
LINE
8
BLACK
6
CONTINUOUS
10
81.7262
20
-109.15
11
81.7218
21
-109.15
0
LINE
8
BLACK
6
CONTINUOUS
10
81.7218
20
-109.15
11
81.6265
21
-109.102
0
LINE
8
BLACK
6
CONTINUOUS
10
81.6265
20
-109.102
11
81.6085
21
-109.089
0
LINE
8
BLACK
6
CONTINUOUS
10
81.6085
20
-109.089
11
81.607
21
-109.088
0
LINE
8
BLACK
6
CONTINUOUS
10
81.607
20
-109.088
11
81.5594
21
-109.041
0
LINE
8
BLACK
6
CONTINUOUS
10
81.5594
20
-109.041
11
81.5465
21
-109.022
0
LINE
8
BLACK
6
CONTINUOUS
10
81.5465
20
-109.022
11
81.5454
21
-109.021
0
LINE
8
BLACK
6
CONTINUOUS
10
81.5454
20
-109.021
11
81.4977
21
-108.926
0
LINE
8
BLACK
6
CONTINUOUS
10
81.4977
20
-108.926
11
81.4903
21
-108.901
0
LINE
8
BLACK
6
CONTINUOUS
10
81.4903
20
-108.901
11
81.4914
21
-108.897
0
LINE
8
BLACK
6
CONTINUOUS
10
81.4914
20
-108.897
11
81.4898
21
-108.892
0
LINE
8
BLACK
6
CONTINUOUS
10
81.4898
20
-108.892
11
81.4898
21
-108.654
0
LINE
8
BLACK
6
CONTINUOUS
10
81.4898
20
-108.654
11
81.4943
21
-108.629
0
LINE
8
BLACK
6
CONTINUOUS
10
81.4943
20
-108.629
11
81.4972
21
-108.625
0
LINE
8
BLACK
6
CONTINUOUS
10
81.4972
20
-108.625
11
81.4977
21
-108.621
0
LINE
8
BLACK
6
CONTINUOUS
10
81.4977
20
-108.621
11
81.5454
21
-108.526
0
LINE
8
BLACK
6
CONTINUOUS
10
81.5454
20
-108.526
11
81.5587
21
-108.507
0
LINE
8
BLACK
6
CONTINUOUS
10
81.5587
20
-108.507
11
81.5594
21
-108.506
0
LINE
8
BLACK
6
CONTINUOUS
10
81.5594
20
-108.506
11
81.607
21
-108.458
0
LINE
8
BLACK
6
CONTINUOUS
10
81.607
20
-108.458
11
81.6284
21
-108.443
0
LINE
8
BLACK
6
CONTINUOUS
10
81.6284
20
-108.443
11
81.6795
21
-108.439
0
LINE
8
BLACK
6
CONTINUOUS
10
81.6795
20
-108.439
11
81.7215
21
-108.468
0
LINE
8
BLACK
6
CONTINUOUS
10
81.7215
20
-108.468
11
81.7348
21
-108.518
0
LINE
8
BLACK
6
CONTINUOUS
10
81.7348
20
-108.518
11
81.7131
21
-108.564
0
LINE
8
BLACK
6
CONTINUOUS
10
81.7131
20
-108.564
11
81.6741
21
-108.603
0
LINE
8
BLACK
6
CONTINUOUS
10
81.6741
20
-108.603
11
81.6398
21
-108.672
0
LINE
8
BLACK
6
CONTINUOUS
10
81.6398
20
-108.672
11
81.6398
21
-108.875
0
LINE
8
BLACK
6
CONTINUOUS
10
81.6398
20
-108.875
11
81.6741
21
-108.943
0
LINE
8
BLACK
6
CONTINUOUS
10
81.6741
20
-108.943
11
81.7045
21
-108.974
0
LINE
8
BLACK
6
CONTINUOUS
10
81.7045
20
-108.974
11
81.773
21
-109.008
0
LINE
8
BLACK
6
CONTINUOUS
10
81.773
20
-109.008
11
81.8384
21
-109.008
0
LINE
8
BLACK
6
CONTINUOUS
10
81.8384
20
-109.008
11
81.9529
21
-108.97
0
LINE
8
BLACK
6
CONTINUOUS
10
81.9529
20
-108.97
11
82.5118
21
-108.411
0
LINE
8
BLACK
6
CONTINUOUS
10
82.5118
20
-108.411
11
82.5252
21
-108.401
0
LINE
8
BLACK
6
CONTINUOUS
10
82.5252
20
-108.401
11
82.5273
21
-108.399
0
LINE
8
BLACK
6
CONTINUOUS
10
82.5273
20
-108.399
11
82.5293
21
-108.399
0
LINE
8
BLACK
6
CONTINUOUS
10
82.5293
20
-108.399
11
82.5331
21
-108.396
0
LINE
8
BLACK
6
CONTINUOUS
10
82.5331
20
-108.396
11
82.5556
21
-108.394
0
LINE
8
BLACK
6
CONTINUOUS
10
82.5556
20
-108.394
11
82.5778
21
-108.39
0
LINE
8
BLACK
6
CONTINUOUS
10
82.5778
20
-108.39
11
82.5808
21
-108.392
0
LINE
8
BLACK
6
CONTINUOUS
10
82.5226
20
-107.458
11
82.5702
21
-107.506
0
LINE
8
BLACK
6
CONTINUOUS
10
82.5702
20
-107.506
11
82.5831
21
-107.524
0
LINE
8
BLACK
6
CONTINUOUS
10
82.5831
20
-107.524
11
82.5843
21
-107.526
0
LINE
8
BLACK
6
CONTINUOUS
10
82.5843
20
-107.526
11
82.6319
21
-107.621
0
LINE
8
BLACK
6
CONTINUOUS
10
82.6319
20
-107.621
11
82.6393
21
-107.646
0
LINE
8
BLACK
6
CONTINUOUS
10
82.6393
20
-107.646
11
82.6383
21
-107.65
0
LINE
8
BLACK
6
CONTINUOUS
10
82.6383
20
-107.65
11
82.6398
21
-107.654
0
LINE
8
BLACK
6
CONTINUOUS
10
82.6398
20
-107.654
11
82.6398
21
-107.94
0
LINE
8
BLACK
6
CONTINUOUS
10
82.6398
20
-107.94
11
82.6353
21
-107.966
0
LINE
8
BLACK
6
CONTINUOUS
10
82.6353
20
-107.966
11
82.6324
21
-107.969
0
LINE
8
BLACK
6
CONTINUOUS
10
82.6324
20
-107.969
11
82.6319
21
-107.974
0
LINE
8
BLACK
6
CONTINUOUS
10
82.6319
20
-107.974
11
82.5843
21
-108.069
0
LINE
8
BLACK
6
CONTINUOUS
10
82.5843
20
-108.069
11
82.5709
21
-108.087
0
LINE
8
BLACK
6
CONTINUOUS
10
82.5709
20
-108.087
11
82.5702
21
-108.088
0
LINE
8
BLACK
6
CONTINUOUS
10
82.5702
20
-108.088
11
82.5226
21
-108.136
0
LINE
8
BLACK
6
CONTINUOUS
10
82.5226
20
-108.136
11
82.5042
21
-108.149
0
LINE
8
BLACK
6
CONTINUOUS
10
82.5042
20
-108.149
11
82.5031
21
-108.15
0
LINE
8
BLACK
6
CONTINUOUS
10
82.5031
20
-108.15
11
82.4079
21
-108.198
0
LINE
8
BLACK
6
CONTINUOUS
10
82.4079
20
-108.198
11
82.3829
21
-108.205
0
LINE
8
BLACK
6
CONTINUOUS
10
82.3829
20
-108.205
11
82.3786
21
-108.204
0
LINE
8
BLACK
6
CONTINUOUS
10
82.3786
20
-108.204
11
82.3743
21
-108.205
0
LINE
8
BLACK
6
CONTINUOUS
10
82.3743
20
-108.205
11
82.1362
21
-108.205
0
LINE
8
BLACK
6
CONTINUOUS
10
82.1362
20
-108.205
11
82.1106
21
-108.201
0
LINE
8
BLACK
6
CONTINUOUS
10
82.1106
20
-108.201
11
82.1072
21
-108.198
0
LINE
8
BLACK
6
CONTINUOUS
10
82.1072
20
-108.198
11
82.1027
21
-108.198
0
LINE
8
BLACK
6
CONTINUOUS
10
82.1027
20
-108.198
11
82.0075
21
-108.15
0
LINE
8
BLACK
6
CONTINUOUS
10
82.0075
20
-108.15
11
81.9895
21
-108.137
0
LINE
8
BLACK
6
CONTINUOUS
10
81.9895
20
-108.137
11
81.988
21
-108.136
0
LINE
8
BLACK
6
CONTINUOUS
10
81.988
20
-108.136
11
81.9404
21
-108.088
0
LINE
8
BLACK
6
CONTINUOUS
10
81.9404
20
-108.088
11
81.9275
21
-108.07
0
LINE
8
BLACK
6
CONTINUOUS
10
81.9275
20
-108.07
11
81.9263
21
-108.069
0
LINE
8
BLACK
6
CONTINUOUS
10
81.9263
20
-108.069
11
81.8787
21
-107.974
0
LINE
8
BLACK
6
CONTINUOUS
10
81.8787
20
-107.974
11
81.8744
21
-107.959
0
LINE
8
BLACK
6
CONTINUOUS
10
81.8744
20
-107.959
11
81.6142
21
-108.187
0
LINE
8
BLACK
6
CONTINUOUS
10
81.6142
20
-108.187
11
81.6046
21
-108.193
0
LINE
8
BLACK
6
CONTINUOUS
10
81.6046
20
-108.193
11
81.6023
21
-108.195
0
LINE
8
BLACK
6
CONTINUOUS
10
81.6023
20
-108.195
11
81.5993
21
-108.196
0
LINE
8
BLACK
6
CONTINUOUS
10
81.5993
20
-108.196
11
81.5919
21
-108.2
0
LINE
8
BLACK
6
CONTINUOUS
10
81.5919
20
-108.2
11
81.5717
21
-108.201
0
LINE
8
BLACK
6
CONTINUOUS
10
81.5717
20
-108.201
11
81.5518
21
-108.204
0
LINE
8
BLACK
6
CONTINUOUS
10
81.5518
20
-108.204
11
81.5466
21
-108.201
0
LINE
8
BLACK
6
CONTINUOUS
10
81.5466
20
-108.201
11
81.5406
21
-108.201
0
LINE
8
BLACK
6
CONTINUOUS
10
81.5406
20
-108.201
11
81.5249
21
-108.189
0
LINE
8
BLACK
6
CONTINUOUS
10
81.5249
20
-108.189
11
81.5074
21
-108.179
0
LINE
8
BLACK
6
CONTINUOUS
10
81.5074
20
-108.179
11
81.5053
21
-108.173
0
LINE
8
BLACK
6
CONTINUOUS
10
81.5053
20
-108.173
11
81.5007
21
-108.169
0
LINE
8
BLACK
6
CONTINUOUS
10
81.5007
20
-108.169
11
81.4967
21
-108.149
0
LINE
8
BLACK
6
CONTINUOUS
10
81.4967
20
-108.149
11
81.4898
21
-108.13
0
LINE
8
BLACK
6
CONTINUOUS
10
81.4898
20
-108.13
11
81.4898
21
-107.511
0
LINE
8
BLACK
6
CONTINUOUS
10
81.4898
20
-107.511
11
81.4943
21
-107.486
0
LINE
8
BLACK
6
CONTINUOUS
10
81.4943
20
-107.486
11
81.5273
21
-107.446
0
LINE
8
BLACK
6
CONTINUOUS
10
81.5273
20
-107.446
11
81.5778
21
-107.438
0
LINE
8
BLACK
6
CONTINUOUS
10
81.5778
20
-107.438
11
81.6223
21
-107.463
0
LINE
8
BLACK
6
CONTINUOUS
10
81.6223
20
-107.463
11
81.6398
21
-107.511
0
LINE
8
BLACK
6
CONTINUOUS
10
81.6398
20
-107.511
11
81.6398
21
-107.965
0
LINE
8
BLACK
6
CONTINUOUS
10
81.6398
20
-107.965
11
81.8964
21
-107.741
0
LINE
8
BLACK
6
CONTINUOUS
10
81.8964
20
-107.741
11
81.906
21
-107.735
0
LINE
8
BLACK
6
CONTINUOUS
10
81.906
20
-107.735
11
81.9083
21
-107.732
0
LINE
8
BLACK
6
CONTINUOUS
10
81.9083
20
-107.732
11
81.9113
21
-107.732
0
LINE
8
BLACK
6
CONTINUOUS
10
81.9113
20
-107.732
11
81.9187
21
-107.727
0
LINE
8
BLACK
6
CONTINUOUS
10
81.9187
20
-107.727
11
81.9389
21
-107.727
0
LINE
8
BLACK
6
CONTINUOUS
10
81.9389
20
-107.727
11
81.9588
21
-107.723
0
LINE
8
BLACK
6
CONTINUOUS
10
81.9588
20
-107.723
11
81.964
21
-107.726
0
LINE
8
BLACK
6
CONTINUOUS
10
81.964
20
-107.726
11
81.97
21
-107.726
0
LINE
8
BLACK
6
CONTINUOUS
10
81.97
20
-107.726
11
81.9857
21
-107.739
0
LINE
8
BLACK
6
CONTINUOUS
10
81.9857
20
-107.739
11
82.0032
21
-107.749
0
LINE
8
BLACK
6
CONTINUOUS
10
82.0032
20
-107.749
11
82.0053
21
-107.755
0
LINE
8
BLACK
6
CONTINUOUS
10
82.0053
20
-107.755
11
82.0099
21
-107.758
0
LINE
8
BLACK
6
CONTINUOUS
10
82.0099
20
-107.758
11
82.0139
21
-107.778
0
LINE
8
BLACK
6
CONTINUOUS
10
82.0139
20
-107.778
11
82.0208
21
-107.797
0
LINE
8
BLACK
6
CONTINUOUS
10
82.0208
20
-107.797
11
82.0208
21
-107.922
0
LINE
8
BLACK
6
CONTINUOUS
10
82.0208
20
-107.922
11
82.055
21
-107.991
0
LINE
8
BLACK
6
CONTINUOUS
10
82.055
20
-107.991
11
82.0854
21
-108.021
0
LINE
8
BLACK
6
CONTINUOUS
10
82.0854
20
-108.021
11
82.154
21
-108.055
0
LINE
8
BLACK
6
CONTINUOUS
10
82.154
20
-108.055
11
82.3566
21
-108.055
0
LINE
8
BLACK
6
CONTINUOUS
10
82.3566
20
-108.055
11
82.4252
21
-108.021
0
LINE
8
BLACK
6
CONTINUOUS
10
82.4252
20
-108.021
11
82.4556
21
-107.991
0
LINE
8
BLACK
6
CONTINUOUS
10
82.4556
20
-107.991
11
82.4898
21
-107.922
0
LINE
8
BLACK
6
CONTINUOUS
10
82.4898
20
-107.922
11
82.4898
21
-107.672
0
LINE
8
BLACK
6
CONTINUOUS
10
82.4898
20
-107.672
11
82.4556
21
-107.603
0
LINE
8
BLACK
6
CONTINUOUS
10
82.4556
20
-107.603
11
82.4165
21
-107.564
0
LINE
8
BLACK
6
CONTINUOUS
10
82.4165
20
-107.564
11
82.4016
21
-107.543
0
LINE
8
BLACK
6
CONTINUOUS
10
82.4016
20
-107.543
11
82.3971
21
-107.492
0
LINE
8
BLACK
6
CONTINUOUS
10
82.3971
20
-107.492
11
82.4266
21
-107.45
0
LINE
8
BLACK
6
CONTINUOUS
10
82.4266
20
-107.45
11
82.4761
21
-107.437
0
LINE
8
BLACK
6
CONTINUOUS
10
82.4761
20
-107.437
11
82.5226
21
-107.458
0
LINE
8
BLACK
6
CONTINUOUS
10
82.6223
20
-106.701
11
82.6398
21
-106.75
0
LINE
8
BLACK
6
CONTINUOUS
10
82.6398
20
-106.75
11
82.6398
21
-106.845
0
LINE
8
BLACK
6
CONTINUOUS
10
82.6398
20
-106.845
11
82.6359
21
-106.867
0
LINE
8
BLACK
6
CONTINUOUS
10
82.6359
20
-106.867
11
82.636
21
-106.868
0
LINE
8
BLACK
6
CONTINUOUS
10
82.636
20
-106.868
11
82.5884
21
-107.011
0
LINE
8
BLACK
6
CONTINUOUS
10
82.5884
20
-107.011
11
82.5759
21
-107.034
0
LINE
8
BLACK
6
CONTINUOUS
10
82.5759
20
-107.034
11
82.5721
21
-107.037
0
LINE
8
BLACK
6
CONTINUOUS
10
82.5721
20
-107.037
11
82.5702
21
-107.041
0
LINE
8
BLACK
6
CONTINUOUS
10
82.5702
20
-107.041
11
82.475
21
-107.136
0
LINE
8
BLACK
6
CONTINUOUS
10
82.475
20
-107.136
11
82.4537
21
-107.151
0
LINE
8
BLACK
6
CONTINUOUS
10
82.4537
20
-107.151
11
82.4492
21
-107.151
0
LINE
8
BLACK
6
CONTINUOUS
10
82.4492
20
-107.151
11
82.4457
21
-107.154
0
LINE
8
BLACK
6
CONTINUOUS
10
82.4457
20
-107.154
11
82.3028
21
-107.202
0
LINE
8
BLACK
6
CONTINUOUS
10
82.3028
20
-107.202
11
82.2806
21
-107.205
0
LINE
8
BLACK
6
CONTINUOUS
10
82.2806
20
-107.205
11
82.2791
21
-107.205
0
LINE
8
BLACK
6
CONTINUOUS
10
82.2791
20
-107.205
11
81.5648
21
-107.205
0
LINE
8
BLACK
6
CONTINUOUS
10
81.5648
20
-107.205
11
81.5392
21
-107.201
0
LINE
8
BLACK
6
CONTINUOUS
10
81.5392
20
-107.201
11
81.4999
21
-107.168
0
LINE
8
BLACK
6
CONTINUOUS
10
81.4999
20
-107.168
11
81.491
21
-107.117
0
LINE
8
BLACK
6
CONTINUOUS
10
81.491
20
-107.117
11
81.5166
21
-107.073
0
LINE
8
BLACK
6
CONTINUOUS
10
81.5166
20
-107.073
11
81.5648
21
-107.055
0
LINE
8
BLACK
6
CONTINUOUS
10
81.5648
20
-107.055
11
82.2669
21
-107.055
0
LINE
8
BLACK
6
CONTINUOUS
10
82.2669
20
-107.055
11
82.3814
21
-107.017
0
LINE
8
BLACK
6
CONTINUOUS
10
82.3814
20
-107.017
11
82.4516
21
-106.947
0
LINE
8
BLACK
6
CONTINUOUS
10
82.4516
20
-106.947
11
82.4898
21
-106.833
0
LINE
8
BLACK
6
CONTINUOUS
10
82.4898
20
-106.833
11
82.4898
21
-106.75
0
LINE
8
BLACK
6
CONTINUOUS
10
82.4898
20
-106.75
11
82.4943
21
-106.724
0
LINE
8
BLACK
6
CONTINUOUS
10
82.4943
20
-106.724
11
82.5273
21
-106.685
0
LINE
8
BLACK
6
CONTINUOUS
10
82.5273
20
-106.685
11
82.5778
21
-106.676
0
LINE
8
BLACK
6
CONTINUOUS
10
82.5778
20
-106.676
11
82.6223
21
-106.701
0
LINE
8
BLACK
6
CONTINUOUS
10
82.5226
20
-105.871
11
82.5702
21
-105.918
0
LINE
8
BLACK
6
CONTINUOUS
10
82.5702
20
-105.918
11
82.5831
21
-105.937
0
LINE
8
BLACK
6
CONTINUOUS
10
82.5831
20
-105.937
11
82.5843
21
-105.938
0
LINE
8
BLACK
6
CONTINUOUS
10
82.5843
20
-105.938
11
82.6319
21
-106.033
0
LINE
8
BLACK
6
CONTINUOUS
10
82.6319
20
-106.033
11
82.6393
21
-106.058
0
LINE
8
BLACK
6
CONTINUOUS
10
82.6393
20
-106.058
11
82.6383
21
-106.062
0
LINE
8
BLACK
6
CONTINUOUS
10
82.6383
20
-106.062
11
82.6398
21
-106.067
0
LINE
8
BLACK
6
CONTINUOUS
10
82.6398
20
-106.067
11
82.6398
21
-106.352
0
LINE
8
BLACK
6
CONTINUOUS
10
82.6398
20
-106.352
11
82.6353
21
-106.378
0
LINE
8
BLACK
6
CONTINUOUS
10
82.6353
20
-106.378
11
82.6324
21
-106.381
0
LINE
8
BLACK
6
CONTINUOUS
10
82.6324
20
-106.381
11
82.6319
21
-106.386
0
LINE
8
BLACK
6
CONTINUOUS
10
82.6319
20
-106.386
11
82.5843
21
-106.481
0
LINE
8
BLACK
6
CONTINUOUS
10
82.5843
20
-106.481
11
82.5709
21
-106.499
0
LINE
8
BLACK
6
CONTINUOUS
10
82.5709
20
-106.499
11
82.5702
21
-106.501
0
LINE
8
BLACK
6
CONTINUOUS
10
82.5702
20
-106.501
11
82.5226
21
-106.548
0
LINE
8
BLACK
6
CONTINUOUS
10
82.5226
20
-106.548
11
82.5042
21
-106.561
0
LINE
8
BLACK
6
CONTINUOUS
10
82.5042
20
-106.561
11
82.5031
21
-106.562
0
LINE
8
BLACK
6
CONTINUOUS
10
82.5031
20
-106.562
11
82.4079
21
-106.61
0
LINE
8
BLACK
6
CONTINUOUS
10
82.4079
20
-106.61
11
82.3829
21
-106.617
0
LINE
8
BLACK
6
CONTINUOUS
10
82.3829
20
-106.617
11
82.3786
21
-106.616
0
LINE
8
BLACK
6
CONTINUOUS
10
82.3786
20
-106.616
11
82.3743
21
-106.618
0
LINE
8
BLACK
6
CONTINUOUS
10
82.3743
20
-106.618
11
82.1362
21
-106.618
0
LINE
8
BLACK
6
CONTINUOUS
10
82.1362
20
-106.618
11
82.1106
21
-106.613
0
LINE
8
BLACK
6
CONTINUOUS
10
82.1106
20
-106.613
11
82.1072
21
-106.61
0
LINE
8
BLACK
6
CONTINUOUS
10
82.1072
20
-106.61
11
82.1027
21
-106.61
0
LINE
8
BLACK
6
CONTINUOUS
10
82.1027
20
-106.61
11
82.0075
21
-106.562
0
LINE
8
BLACK
6
CONTINUOUS
10
82.0075
20
-106.562
11
81.9895
21
-106.549
0
LINE
8
BLACK
6
CONTINUOUS
10
81.9895
20
-106.549
11
81.988
21
-106.548
0
LINE
8
BLACK
6
CONTINUOUS
10
81.988
20
-106.548
11
81.9404
21
-106.501
0
LINE
8
BLACK
6
CONTINUOUS
10
81.9404
20
-106.501
11
81.9275
21
-106.482
0
LINE
8
BLACK
6
CONTINUOUS
10
81.9275
20
-106.482
11
81.9263
21
-106.481
0
LINE
8
BLACK
6
CONTINUOUS
10
81.9263
20
-106.481
11
81.8787
21
-106.386
0
LINE
8
BLACK
6
CONTINUOUS
10
81.8787
20
-106.386
11
81.8744
21
-106.372
0
LINE
8
BLACK
6
CONTINUOUS
10
81.8744
20
-106.372
11
81.6142
21
-106.599
0
LINE
8
BLACK
6
CONTINUOUS
10
81.6142
20
-106.599
11
81.6046
21
-106.605
0
LINE
8
BLACK
6
CONTINUOUS
10
81.6046
20
-106.605
11
81.6023
21
-106.608
0
LINE
8
BLACK
6
CONTINUOUS
10
81.6023
20
-106.608
11
81.5993
21
-106.608
0
LINE
8
BLACK
6
CONTINUOUS
10
81.5993
20
-106.608
11
81.5919
21
-106.613
0
LINE
8
BLACK
6
CONTINUOUS
10
81.5919
20
-106.613
11
81.5717
21
-106.613
0
LINE
8
BLACK
6
CONTINUOUS
10
81.5717
20
-106.613
11
81.5518
21
-106.617
0
LINE
8
BLACK
6
CONTINUOUS
10
81.5518
20
-106.617
11
81.5466
21
-106.614
0
LINE
8
BLACK
6
CONTINUOUS
10
81.5466
20
-106.614
11
81.5406
21
-106.614
0
LINE
8
BLACK
6
CONTINUOUS
10
81.5406
20
-106.614
11
81.5249
21
-106.601
0
LINE
8
BLACK
6
CONTINUOUS
10
81.5249
20
-106.601
11
81.5074
21
-106.591
0
LINE
8
BLACK
6
CONTINUOUS
10
81.5074
20
-106.591
11
81.5053
21
-106.585
0
LINE
8
BLACK
6
CONTINUOUS
10
81.5053
20
-106.585
11
81.5007
21
-106.582
0
LINE
8
BLACK
6
CONTINUOUS
10
81.5007
20
-106.582
11
81.4967
21
-106.562
0
LINE
8
BLACK
6
CONTINUOUS
10
81.4967
20
-106.562
11
81.4898
21
-106.543
0
LINE
8
BLACK
6
CONTINUOUS
10
81.4898
20
-106.543
11
81.4898
21
-105.924
0
LINE
8
BLACK
6
CONTINUOUS
10
81.4898
20
-105.924
11
81.4943
21
-105.898
0
LINE
8
BLACK
6
CONTINUOUS
10
81.4943
20
-105.898
11
81.5273
21
-105.859
0
LINE
8
BLACK
6
CONTINUOUS
10
81.5273
20
-105.859
11
81.5778
21
-105.85
0
LINE
8
BLACK
6
CONTINUOUS
10
81.5778
20
-105.85
11
81.6223
21
-105.876
0
LINE
8
BLACK
6
CONTINUOUS
10
81.6223
20
-105.876
11
81.6398
21
-105.924
0
LINE
8
BLACK
6
CONTINUOUS
10
81.6398
20
-105.924
11
81.6398
21
-106.378
0
LINE
8
BLACK
6
CONTINUOUS
10
81.6398
20
-106.378
11
81.8964
21
-106.153
0
LINE
8
BLACK
6
CONTINUOUS
10
81.8964
20
-106.153
11
81.906
21
-106.147
0
LINE
8
BLACK
6
CONTINUOUS
10
81.906
20
-106.147
11
81.9083
21
-106.145
0
LINE
8
BLACK
6
CONTINUOUS
10
81.9083
20
-106.145
11
81.9113
21
-106.144
0
LINE
8
BLACK
6
CONTINUOUS
10
81.9113
20
-106.144
11
81.9187
21
-106.14
0
LINE
8
BLACK
6
CONTINUOUS
10
81.9187
20
-106.14
11
81.9389
21
-106.139
0
LINE
8
BLACK
6
CONTINUOUS
10
81.9389
20
-106.139
11
81.9588
21
-106.136
0
LINE
8
BLACK
6
CONTINUOUS
10
81.9588
20
-106.136
11
81.964
21
-106.139
0
LINE
8
BLACK
6
CONTINUOUS
10
81.964
20
-106.139
11
81.97
21
-106.139
0
LINE
8
BLACK
6
CONTINUOUS
10
81.97
20
-106.139
11
81.9857
21
-106.151
0
LINE
8
BLACK
6
CONTINUOUS
10
81.9857
20
-106.151
11
82.0032
21
-106.161
0
LINE
8
BLACK
6
CONTINUOUS
10
82.0032
20
-106.161
11
82.0053
21
-106.167
0
LINE
8
BLACK
6
CONTINUOUS
10
82.0053
20
-106.167
11
82.0099
21
-106.171
0
LINE
8
BLACK
6
CONTINUOUS
10
82.0099
20
-106.171
11
82.0139
21
-106.191
0
LINE
8
BLACK
6
CONTINUOUS
10
82.0139
20
-106.191
11
82.0208
21
-106.21
0
LINE
8
BLACK
6
CONTINUOUS
10
82.0208
20
-106.21
11
82.0208
21
-106.335
0
LINE
8
BLACK
6
CONTINUOUS
10
82.0208
20
-106.335
11
82.055
21
-106.403
0
LINE
8
BLACK
6
CONTINUOUS
10
82.055
20
-106.403
11
82.0854
21
-106.434
0
LINE
8
BLACK
6
CONTINUOUS
10
82.0854
20
-106.434
11
82.154
21
-106.468
0
LINE
8
BLACK
6
CONTINUOUS
10
82.154
20
-106.468
11
82.3566
21
-106.468
0
LINE
8
BLACK
6
CONTINUOUS
10
82.3566
20
-106.468
11
82.4252
21
-106.434
0
LINE
8
BLACK
6
CONTINUOUS
10
82.4252
20
-106.434
11
82.4556
21
-106.403
0
LINE
8
BLACK
6
CONTINUOUS
10
82.4556
20
-106.403
11
82.4898
21
-106.335
0
LINE
8
BLACK
6
CONTINUOUS
10
82.4898
20
-106.335
11
82.4898
21
-106.084
0
LINE
8
BLACK
6
CONTINUOUS
10
82.4898
20
-106.084
11
82.4556
21
-106.016
0
LINE
8
BLACK
6
CONTINUOUS
10
82.4556
20
-106.016
11
82.4165
21
-105.977
0
LINE
8
BLACK
6
CONTINUOUS
10
82.4165
20
-105.977
11
82.4016
21
-105.956
0
LINE
8
BLACK
6
CONTINUOUS
10
82.4016
20
-105.956
11
82.3971
21
-105.904
0
LINE
8
BLACK
6
CONTINUOUS
10
82.3971
20
-105.904
11
82.4266
21
-105.862
0
LINE
8
BLACK
6
CONTINUOUS
10
82.4266
20
-105.862
11
82.4761
21
-105.849
0
LINE
8
BLACK
6
CONTINUOUS
10
82.4761
20
-105.849
11
82.5226
21
-105.871
0
LINE
8
BLACK
6
CONTINUOUS
10
82.5226
20
-104.918
11
82.5702
21
-104.966
0
LINE
8
BLACK
6
CONTINUOUS
10
82.5702
20
-104.966
11
82.5831
21
-104.984
0
LINE
8
BLACK
6
CONTINUOUS
10
82.5831
20
-104.984
11
82.5843
21
-104.986
0
LINE
8
BLACK
6
CONTINUOUS
10
82.5843
20
-104.986
11
82.6319
21
-105.081
0
LINE
8
BLACK
6
CONTINUOUS
10
82.6319
20
-105.081
11
82.6393
21
-105.106
0
LINE
8
BLACK
6
CONTINUOUS
10
82.6393
20
-105.106
11
82.6383
21
-105.11
0
LINE
8
BLACK
6
CONTINUOUS
10
82.6383
20
-105.11
11
82.6398
21
-105.114
0
LINE
8
BLACK
6
CONTINUOUS
10
82.6398
20
-105.114
11
82.6398
21
-105.4
0
LINE
8
BLACK
6
CONTINUOUS
10
82.6398
20
-105.4
11
82.6353
21
-105.426
0
LINE
8
BLACK
6
CONTINUOUS
10
82.6353
20
-105.426
11
82.6324
21
-105.429
0
LINE
8
BLACK
6
CONTINUOUS
10
82.6324
20
-105.429
11
82.6319
21
-105.434
0
LINE
8
BLACK
6
CONTINUOUS
10
82.6319
20
-105.434
11
82.5843
21
-105.529
0
LINE
8
BLACK
6
CONTINUOUS
10
82.5843
20
-105.529
11
82.5709
21
-105.547
0
LINE
8
BLACK
6
CONTINUOUS
10
82.5709
20
-105.547
11
82.5702
21
-105.548
0
LINE
8
BLACK
6
CONTINUOUS
10
82.5702
20
-105.548
11
82.5226
21
-105.596
0
LINE
8
BLACK
6
CONTINUOUS
10
82.5226
20
-105.596
11
82.5042
21
-105.609
0
LINE
8
BLACK
6
CONTINUOUS
10
82.5042
20
-105.609
11
82.5031
21
-105.61
0
LINE
8
BLACK
6
CONTINUOUS
10
82.5031
20
-105.61
11
82.4079
21
-105.658
0
LINE
8
BLACK
6
CONTINUOUS
10
82.4079
20
-105.658
11
82.3829
21
-105.665
0
LINE
8
BLACK
6
CONTINUOUS
10
82.3829
20
-105.665
11
82.3786
21
-105.664
0
LINE
8
BLACK
6
CONTINUOUS
10
82.3786
20
-105.664
11
82.3743
21
-105.665
0
LINE
8
BLACK
6
CONTINUOUS
10
82.3743
20
-105.665
11
82.1362
21
-105.665
0
LINE
8
BLACK
6
CONTINUOUS
10
82.1362
20
-105.665
11
82.1106
21
-105.661
0
LINE
8
BLACK
6
CONTINUOUS
10
82.1106
20
-105.661
11
82.1072
21
-105.658
0
LINE
8
BLACK
6
CONTINUOUS
10
82.1072
20
-105.658
11
82.1027
21
-105.658
0
LINE
8
BLACK
6
CONTINUOUS
10
82.1027
20
-105.658
11
82.0075
21
-105.61
0
LINE
8
BLACK
6
CONTINUOUS
10
82.0075
20
-105.61
11
81.9895
21
-105.597
0
LINE
8
BLACK
6
CONTINUOUS
10
81.9895
20
-105.597
11
81.988
21
-105.596
0
LINE
8
BLACK
6
CONTINUOUS
10
81.988
20
-105.596
11
81.9404
21
-105.548
0
LINE
8
BLACK
6
CONTINUOUS
10
81.9404
20
-105.548
11
81.9275
21
-105.53
0
LINE
8
BLACK
6
CONTINUOUS
10
81.9275
20
-105.53
11
81.9263
21
-105.529
0
LINE
8
BLACK
6
CONTINUOUS
10
81.9263
20
-105.529
11
81.8787
21
-105.434
0
LINE
8
BLACK
6
CONTINUOUS
10
81.8787
20
-105.434
11
81.8744
21
-105.419
0
LINE
8
BLACK
6
CONTINUOUS
10
81.8744
20
-105.419
11
81.6142
21
-105.647
0
LINE
8
BLACK
6
CONTINUOUS
10
81.6142
20
-105.647
11
81.6046
21
-105.653
0
LINE
8
BLACK
6
CONTINUOUS
10
81.6046
20
-105.653
11
81.6023
21
-105.655
0
LINE
8
BLACK
6
CONTINUOUS
10
81.6023
20
-105.655
11
81.5993
21
-105.656
0
LINE
8
BLACK
6
CONTINUOUS
10
81.5993
20
-105.656
11
81.5919
21
-105.66
0
LINE
8
BLACK
6
CONTINUOUS
10
81.5919
20
-105.66
11
81.5717
21
-105.661
0
LINE
8
BLACK
6
CONTINUOUS
10
81.5717
20
-105.661
11
81.5518
21
-105.664
0
LINE
8
BLACK
6
CONTINUOUS
10
81.5518
20
-105.664
11
81.5466
21
-105.661
0
LINE
8
BLACK
6
CONTINUOUS
10
81.5466
20
-105.661
11
81.5406
21
-105.661
0
LINE
8
BLACK
6
CONTINUOUS
10
81.5406
20
-105.661
11
81.5249
21
-105.649
0
LINE
8
BLACK
6
CONTINUOUS
10
81.5249
20
-105.649
11
81.5074
21
-105.639
0
LINE
8
BLACK
6
CONTINUOUS
10
81.5074
20
-105.639
11
81.5053
21
-105.633
0
LINE
8
BLACK
6
CONTINUOUS
10
81.5053
20
-105.633
11
81.5007
21
-105.629
0
LINE
8
BLACK
6
CONTINUOUS
10
81.5007
20
-105.629
11
81.4967
21
-105.609
0
LINE
8
BLACK
6
CONTINUOUS
10
81.4967
20
-105.609
11
81.4898
21
-105.59
0
LINE
8
BLACK
6
CONTINUOUS
10
81.4898
20
-105.59
11
81.4898
21
-104.971
0
LINE
8
BLACK
6
CONTINUOUS
10
81.4898
20
-104.971
11
81.4943
21
-104.946
0
LINE
8
BLACK
6
CONTINUOUS
10
81.4943
20
-104.946
11
81.5273
21
-104.906
0
LINE
8
BLACK
6
CONTINUOUS
10
81.5273
20
-104.906
11
81.5778
21
-104.898
0
LINE
8
BLACK
6
CONTINUOUS
10
81.5778
20
-104.898
11
81.6223
21
-104.923
0
LINE
8
BLACK
6
CONTINUOUS
10
81.6223
20
-104.923
11
81.6398
21
-104.971
0
LINE
8
BLACK
6
CONTINUOUS
10
81.6398
20
-104.971
11
81.6398
21
-105.425
0
LINE
8
BLACK
6
CONTINUOUS
10
81.6398
20
-105.425
11
81.8964
21
-105.201
0
LINE
8
BLACK
6
CONTINUOUS
10
81.8964
20
-105.201
11
81.906
21
-105.195
0
LINE
8
BLACK
6
CONTINUOUS
10
81.906
20
-105.195
11
81.9083
21
-105.192
0
LINE
8
BLACK
6
CONTINUOUS
10
81.9083
20
-105.192
11
81.9113
21
-105.192
0
LINE
8
BLACK
6
CONTINUOUS
10
81.9113
20
-105.192
11
81.9187
21
-105.187
0
LINE
8
BLACK
6
CONTINUOUS
10
81.9187
20
-105.187
11
81.9389
21
-105.187
0
LINE
8
BLACK
6
CONTINUOUS
10
81.9389
20
-105.187
11
81.9588
21
-105.183
0
LINE
8
BLACK
6
CONTINUOUS
10
81.9588
20
-105.183
11
81.964
21
-105.186
0
LINE
8
BLACK
6
CONTINUOUS
10
81.964
20
-105.186
11
81.97
21
-105.186
0
LINE
8
BLACK
6
CONTINUOUS
10
81.97
20
-105.186
11
81.9857
21
-105.199
0
LINE
8
BLACK
6
CONTINUOUS
10
81.9857
20
-105.199
11
82.0032
21
-105.209
0
LINE
8
BLACK
6
CONTINUOUS
10
82.0032
20
-105.209
11
82.0053
21
-105.215
0
LINE
8
BLACK
6
CONTINUOUS
10
82.0053
20
-105.215
11
82.0099
21
-105.218
0
LINE
8
BLACK
6
CONTINUOUS
10
82.0099
20
-105.218
11
82.0139
21
-105.238
0
LINE
8
BLACK
6
CONTINUOUS
10
82.0139
20
-105.238
11
82.0208
21
-105.257
0
LINE
8
BLACK
6
CONTINUOUS
10
82.0208
20
-105.257
11
82.0208
21
-105.382
0
LINE
8
BLACK
6
CONTINUOUS
10
82.0208
20
-105.382
11
82.055
21
-105.451
0
LINE
8
BLACK
6
CONTINUOUS
10
82.055
20
-105.451
11
82.0854
21
-105.481
0
LINE
8
BLACK
6
CONTINUOUS
10
82.0854
20
-105.481
11
82.154
21
-105.515
0
LINE
8
BLACK
6
CONTINUOUS
10
82.154
20
-105.515
11
82.3566
21
-105.515
0
LINE
8
BLACK
6
CONTINUOUS
10
82.3566
20
-105.515
11
82.4252
21
-105.481
0
LINE
8
BLACK
6
CONTINUOUS
10
82.4252
20
-105.481
11
82.4556
21
-105.451
0
LINE
8
BLACK
6
CONTINUOUS
10
82.4556
20
-105.451
11
82.4898
21
-105.382
0
LINE
8
BLACK
6
CONTINUOUS
10
82.4898
20
-105.382
11
82.4898
21
-105.132
0
LINE
8
BLACK
6
CONTINUOUS
10
82.4898
20
-105.132
11
82.4556
21
-105.063
0
LINE
8
BLACK
6
CONTINUOUS
10
82.4556
20
-105.063
11
82.4165
21
-105.024
0
LINE
8
BLACK
6
CONTINUOUS
10
82.4165
20
-105.024
11
82.4016
21
-105.003
0
LINE
8
BLACK
6
CONTINUOUS
10
82.4016
20
-105.003
11
82.3971
21
-104.952
0
LINE
8
BLACK
6
CONTINUOUS
10
82.3971
20
-104.952
11
82.4266
21
-104.91
0
LINE
8
BLACK
6
CONTINUOUS
10
82.4266
20
-104.91
11
82.4761
21
-104.897
0
LINE
8
BLACK
6
CONTINUOUS
10
82.4761
20
-104.897
11
82.5226
21
-104.918
0
LINE
8
BLACK
6
CONTINUOUS
10
82.2389
20
-103.359
11
82.2445
21
-103.358
0
LINE
8
BLACK
6
CONTINUOUS
10
82.2445
20
-103.358
11
82.2622
21
-103.368
0
LINE
8
BLACK
6
CONTINUOUS
10
82.2622
20
-103.368
11
82.2812
21
-103.375
0
LINE
8
BLACK
6
CONTINUOUS
10
82.2812
20
-103.375
11
82.284
21
-103.38
0
LINE
8
BLACK
6
CONTINUOUS
10
82.284
20
-103.38
11
82.2889
21
-103.383
0
LINE
8
BLACK
6
CONTINUOUS
10
82.2889
20
-103.383
11
82.2959
21
-103.402
0
LINE
8
BLACK
6
CONTINUOUS
10
82.2959
20
-103.402
11
82.3057
21
-103.42
0
LINE
8
BLACK
6
CONTINUOUS
10
82.3057
20
-103.42
11
82.3045
21
-103.426
0
LINE
8
BLACK
6
CONTINUOUS
10
82.3045
20
-103.426
11
82.3065
21
-103.431
0
LINE
8
BLACK
6
CONTINUOUS
10
82.3065
20
-103.431
11
82.3065
21
-103.833
0
LINE
8
BLACK
6
CONTINUOUS
10
82.3065
20
-103.833
11
82.5648
21
-103.833
0
LINE
8
BLACK
6
CONTINUOUS
10
82.5648
20
-103.833
11
82.5905
21
-103.837
0
LINE
8
BLACK
6
CONTINUOUS
10
82.5905
20
-103.837
11
82.6298
21
-103.87
0
LINE
8
BLACK
6
CONTINUOUS
10
82.6298
20
-103.87
11
82.6387
21
-103.921
0
LINE
8
BLACK
6
CONTINUOUS
10
82.6387
20
-103.921
11
82.613
21
-103.965
0
LINE
8
BLACK
6
CONTINUOUS
10
82.613
20
-103.965
11
82.5648
21
-103.983
0
LINE
8
BLACK
6
CONTINUOUS
10
82.5648
20
-103.983
11
82.3065
21
-103.983
0
LINE
8
BLACK
6
CONTINUOUS
10
82.3065
20
-103.983
11
82.3065
21
-104.05
0
LINE
8
BLACK
6
CONTINUOUS
10
82.3065
20
-104.05
11
82.303
21
-104.07
0
LINE
8
BLACK
6
CONTINUOUS
10
82.303
20
-104.07
11
83.05
21
-104.07
0
LINE
8
BLACK
6
CONTINUOUS
10
83.05
20
-104.07
11
83.0676
21
-104.028
0
LINE
8
BLACK
6
CONTINUOUS
10
83.0676
20
-104.028
11
83.11
21
-104.01
0
LINE
8
BLACK
6
CONTINUOUS
10
83.11
20
-104.01
11
84.44
21
-104.01
0
LINE
8
BLACK
6
CONTINUOUS
10
84.44
20
-104.01
11
84.4824
21
-104.028
0
LINE
8
BLACK
6
CONTINUOUS
10
84.4824
20
-104.028
11
84.5
21
-104.07
0
LINE
8
BLACK
6
CONTINUOUS
10
84.5
20
-104.07
11
84.4824
21
-104.112
0
LINE
8
BLACK
6
CONTINUOUS
10
84.4824
20
-104.112
11
84.44
21
-104.13
0
LINE
8
BLACK
6
CONTINUOUS
10
84.44
20
-104.13
11
83.29
21
-104.13
0
LINE
8
BLACK
6
CONTINUOUS
10
83.29
20
-104.13
11
83.29
21
-106.55
0
LINE
8
BLACK
6
CONTINUOUS
10
83.29
20
-106.55
11
84.44
21
-106.55
0
LINE
8
BLACK
6
CONTINUOUS
10
84.44
20
-106.55
11
84.4824
21
-106.568
0
LINE
8
BLACK
6
CONTINUOUS
10
84.4824
20
-106.568
11
84.5
21
-106.61
0
LINE
8
BLACK
6
CONTINUOUS
10
84.5
20
-106.61
11
84.4824
21
-106.652
0
LINE
8
BLACK
6
CONTINUOUS
10
84.4824
20
-106.652
11
84.44
21
-106.67
0
LINE
8
BLACK
6
CONTINUOUS
10
84.44
20
-106.67
11
83.29
21
-106.67
0
LINE
8
BLACK
6
CONTINUOUS
10
83.29
20
-106.67
11
83.29
21
-109.09
0
LINE
8
BLACK
6
CONTINUOUS
10
83.29
20
-109.09
11
84.44
21
-109.09
0
LINE
8
BLACK
6
CONTINUOUS
10
84.44
20
-109.09
11
84.4824
21
-109.108
0
LINE
8
BLACK
6
CONTINUOUS
10
84.4824
20
-109.108
11
84.5
21
-109.15
0
LINE
8
BLACK
6
CONTINUOUS
10
84.5
20
-109.15
11
84.4824
21
-109.192
0
LINE
8
BLACK
6
CONTINUOUS
10
84.4824
20
-109.192
11
84.44
21
-109.21
0
LINE
8
BLACK
6
CONTINUOUS
10
84.44
20
-109.21
11
83.29
21
-109.21
0
LINE
8
BLACK
6
CONTINUOUS
10
83.29
20
-109.21
11
83.29
21
-111.63
0
LINE
8
BLACK
6
CONTINUOUS
10
83.29
20
-111.63
11
84.44
21
-111.63
0
LINE
8
BLACK
6
CONTINUOUS
10
84.44
20
-111.63
11
84.4824
21
-111.648
0
LINE
8
BLACK
6
CONTINUOUS
10
84.4824
20
-111.648
11
84.5
21
-111.69
0
LINE
8
BLACK
6
CONTINUOUS
10
84.5
20
-111.69
11
84.4824
21
-111.732
0
LINE
8
BLACK
6
CONTINUOUS
10
84.4824
20
-111.732
11
84.44
21
-111.75
0
LINE
8
BLACK
6
CONTINUOUS
10
84.44
20
-111.75
11
83.29
21
-111.75
0
LINE
8
BLACK
6
CONTINUOUS
10
83.29
20
-111.75
11
83.29
21
-114.17
0
LINE
8
BLACK
6
CONTINUOUS
10
83.29
20
-114.17
11
84.44
21
-114.17
0
LINE
8
BLACK
6
CONTINUOUS
10
84.44
20
-114.17
11
84.4824
21
-114.188
0
LINE
8
BLACK
6
CONTINUOUS
10
84.4824
20
-114.188
11
84.5
21
-114.23
0
LINE
8
BLACK
6
CONTINUOUS
10
84.5
20
-114.23
11
84.4824
21
-114.272
0
LINE
8
BLACK
6
CONTINUOUS
10
84.4824
20
-114.272
11
84.44
21
-114.29
0
LINE
8
BLACK
6
CONTINUOUS
10
84.44
20
-114.29
11
83.29
21
-114.29
0
LINE
8
BLACK
6
CONTINUOUS
10
83.29
20
-114.29
11
83.29
21
-116.89
0
LINE
8
BLACK
6
CONTINUOUS
10
83.29
20
-116.89
11
83.2724
21
-116.932
0
LINE
8
BLACK
6
CONTINUOUS
10
83.2724
20
-116.932
11
83.23
21
-116.95
0
LINE
8
BLACK
6
CONTINUOUS
10
83.23
20
-116.95
11
80.57
21
-116.95
0
LINE
8
BLACK
6
CONTINUOUS
10
80.57
20
-116.95
11
80.5276
21
-116.932
0
LINE
8
BLACK
6
CONTINUOUS
10
80.5276
20
-116.932
11
80.51
21
-116.89
0
LINE
8
BLACK
6
CONTINUOUS
10
80.51
20
-116.89
11
80.51
21
-104.13
0
LINE
8
BLACK
6
CONTINUOUS
10
80.51
20
-104.13
11
80.5276
21
-104.088
0
LINE
8
BLACK
6
CONTINUOUS
10
80.5276
20
-104.088
11
80.57
21
-104.07
0
LINE
8
BLACK
6
CONTINUOUS
10
80.57
20
-104.07
11
82.1636
21
-104.07
0
LINE
8
BLACK
6
CONTINUOUS
10
82.1636
20
-104.07
11
82.1565
21
-104.05
0
LINE
8
BLACK
6
CONTINUOUS
10
82.1565
20
-104.05
11
82.1565
21
-103.983
0
LINE
8
BLACK
6
CONTINUOUS
10
82.1565
20
-103.983
11
81.8982
21
-103.983
0
LINE
8
BLACK
6
CONTINUOUS
10
81.8982
20
-103.983
11
81.8725
21
-103.978
0
LINE
8
BLACK
6
CONTINUOUS
10
81.8725
20
-103.978
11
81.8332
21
-103.945
0
LINE
8
BLACK
6
CONTINUOUS
10
81.8332
20
-103.945
11
81.8243
21
-103.895
0
LINE
8
BLACK
6
CONTINUOUS
10
81.8243
20
-103.895
11
81.8499
21
-103.85
0
LINE
8
BLACK
6
CONTINUOUS
10
81.8499
20
-103.85
11
81.8982
21
-103.833
0
LINE
8
BLACK
6
CONTINUOUS
10
81.8982
20
-103.833
11
82.1565
21
-103.833
0
LINE
8
BLACK
6
CONTINUOUS
10
82.1565
20
-103.833
11
82.1565
21
-103.535
0
LINE
8
BLACK
6
CONTINUOUS
10
82.1565
20
-103.535
11
81.5409
21
-103.741
0
LINE
8
BLACK
6
CONTINUOUS
10
81.5409
20
-103.741
11
81.5152
21
-103.744
0
LINE
8
BLACK
6
CONTINUOUS
10
81.5152
20
-103.744
11
81.4674
21
-103.726
0
LINE
8
BLACK
6
CONTINUOUS
10
81.4674
20
-103.726
11
81.443
21
-103.681
0
LINE
8
BLACK
6
CONTINUOUS
10
81.443
20
-103.681
11
81.4533
21
-103.63
0
LINE
8
BLACK
6
CONTINUOUS
10
81.4533
20
-103.63
11
81.4935
21
-103.598
0
LINE
8
BLACK
6
CONTINUOUS
10
81.4935
20
-103.598
11
82.2078
21
-103.36
0
LINE
8
BLACK
6
CONTINUOUS
10
82.2078
20
-103.36
11
82.2335
21
-103.356
0
LINE
8
BLACK
6
CONTINUOUS
10
82.2335
20
-103.356
11
82.2389
21
-103.359
0
LINE
8
BLACK
6
CONTINUOUS
10
82.6327
20
-104.19
11
82.6398
21
-104.21
0
LINE
8
BLACK
6
CONTINUOUS
10
82.6398
20
-104.21
11
82.6398
21
-104.305
0
LINE
8
BLACK
6
CONTINUOUS
10
82.6398
20
-104.305
11
82.6359
21
-104.327
0
LINE
8
BLACK
6
CONTINUOUS
10
82.6359
20
-104.327
11
82.636
21
-104.328
0
LINE
8
BLACK
6
CONTINUOUS
10
82.636
20
-104.328
11
82.5884
21
-104.471
0
LINE
8
BLACK
6
CONTINUOUS
10
82.5884
20
-104.471
11
82.5759
21
-104.494
0
LINE
8
BLACK
6
CONTINUOUS
10
82.5759
20
-104.494
11
82.5721
21
-104.497
0
LINE
8
BLACK
6
CONTINUOUS
10
82.5721
20
-104.497
11
82.5702
21
-104.501
0
LINE
8
BLACK
6
CONTINUOUS
10
82.5702
20
-104.501
11
82.475
21
-104.596
0
LINE
8
BLACK
6
CONTINUOUS
10
82.475
20
-104.596
11
82.4537
21
-104.611
0
LINE
8
BLACK
6
CONTINUOUS
10
82.4537
20
-104.611
11
82.4492
21
-104.611
0
LINE
8
BLACK
6
CONTINUOUS
10
82.4492
20
-104.611
11
82.4457
21
-104.614
0
LINE
8
BLACK
6
CONTINUOUS
10
82.4457
20
-104.614
11
82.3028
21
-104.662
0
LINE
8
BLACK
6
CONTINUOUS
10
82.3028
20
-104.662
11
82.2806
21
-104.665
0
LINE
8
BLACK
6
CONTINUOUS
10
82.2806
20
-104.665
11
82.2791
21
-104.665
0
LINE
8
BLACK
6
CONTINUOUS
10
82.2791
20
-104.665
11
81.5648
21
-104.665
0
LINE
8
BLACK
6
CONTINUOUS
10
81.5648
20
-104.665
11
81.5392
21
-104.661
0
LINE
8
BLACK
6
CONTINUOUS
10
81.5392
20
-104.661
11
81.4999
21
-104.628
0
LINE
8
BLACK
6
CONTINUOUS
10
81.4999
20
-104.628
11
81.491
21
-104.577
0
LINE
8
BLACK
6
CONTINUOUS
10
81.491
20
-104.577
11
81.5166
21
-104.533
0
LINE
8
BLACK
6
CONTINUOUS
10
81.5166
20
-104.533
11
81.5648
21
-104.515
0
LINE
8
BLACK
6
CONTINUOUS
10
81.5648
20
-104.515
11
82.2669
21
-104.515
0
LINE
8
BLACK
6
CONTINUOUS
10
82.2669
20
-104.515
11
82.3814
21
-104.477
0
LINE
8
BLACK
6
CONTINUOUS
10
82.3814
20
-104.477
11
82.4516
21
-104.407
0
LINE
8
BLACK
6
CONTINUOUS
10
82.4516
20
-104.407
11
82.4898
21
-104.293
0
LINE
8
BLACK
6
CONTINUOUS
10
82.4898
20
-104.293
11
82.4898
21
-104.21
0
LINE
8
BLACK
6
CONTINUOUS
10
82.4898
20
-104.21
11
82.4933
21
-104.19
0
LINE
8
BLACK
6
CONTINUOUS
10
82.4933
20
-104.19
11
80.63
21
-104.19
0
LINE
8
BLACK
6
CONTINUOUS
10
80.63
20
-104.19
11
80.63
21
-116.83
0
LINE
8
BLACK
6
CONTINUOUS
10
80.63
20
-116.83
11
83.17
21
-116.83
0
LINE
8
BLACK
6
CONTINUOUS
10
83.17
20
-116.83
11
83.17
21
-115.56
0
LINE
8
BLACK
6
CONTINUOUS
10
83.17
20
-115.56
11
83.1524
21
-115.602
0
LINE
8
BLACK
6
CONTINUOUS
10
83.1524
20
-115.602
11
83.11
21
-115.62
0
LINE
8
BLACK
6
CONTINUOUS
10
83.11
20
-115.62
11
83.0676
21
-115.602
0
LINE
8
BLACK
6
CONTINUOUS
10
83.0676
20
-115.602
11
83.05
21
-115.56
0
LINE
8
BLACK
6
CONTINUOUS
10
83.05
20
-115.56
11
83.05
21
-114.23
0
LINE
8
BLACK
6
CONTINUOUS
10
83.05
20
-114.23
11
83.0676
21
-114.188
0
LINE
8
BLACK
6
CONTINUOUS
10
83.0676
20
-114.188
11
83.11
21
-114.17
0
LINE
8
BLACK
6
CONTINUOUS
10
83.11
20
-114.17
11
83.17
21
-114.17
0
LINE
8
BLACK
6
CONTINUOUS
10
83.17
20
-114.17
11
83.17
21
-113.02
0
LINE
8
BLACK
6
CONTINUOUS
10
83.17
20
-113.02
11
83.1524
21
-113.062
0
LINE
8
BLACK
6
CONTINUOUS
10
83.1524
20
-113.062
11
83.11
21
-113.08
0
LINE
8
BLACK
6
CONTINUOUS
10
83.11
20
-113.08
11
83.0676
21
-113.062
0
LINE
8
BLACK
6
CONTINUOUS
10
83.0676
20
-113.062
11
83.05
21
-113.02
0
LINE
8
BLACK
6
CONTINUOUS
10
83.05
20
-113.02
11
83.05
21
-111.69
0
LINE
8
BLACK
6
CONTINUOUS
10
83.05
20
-111.69
11
83.0676
21
-111.648
0
LINE
8
BLACK
6
CONTINUOUS
10
83.0676
20
-111.648
11
83.11
21
-111.63
0
LINE
8
BLACK
6
CONTINUOUS
10
83.11
20
-111.63
11
83.17
21
-111.63
0
LINE
8
BLACK
6
CONTINUOUS
10
83.17
20
-111.63
11
83.17
21
-110.48
0
LINE
8
BLACK
6
CONTINUOUS
10
83.17
20
-110.48
11
83.1524
21
-110.522
0
LINE
8
BLACK
6
CONTINUOUS
10
83.1524
20
-110.522
11
83.11
21
-110.54
0
LINE
8
BLACK
6
CONTINUOUS
10
83.11
20
-110.54
11
83.0676
21
-110.522
0
LINE
8
BLACK
6
CONTINUOUS
10
83.0676
20
-110.522
11
83.05
21
-110.48
0
LINE
8
BLACK
6
CONTINUOUS
10
83.05
20
-110.48
11
83.05
21
-109.15
0
LINE
8
BLACK
6
CONTINUOUS
10
83.05
20
-109.15
11
83.0676
21
-109.108
0
LINE
8
BLACK
6
CONTINUOUS
10
83.0676
20
-109.108
11
83.11
21
-109.09
0
LINE
8
BLACK
6
CONTINUOUS
10
83.11
20
-109.09
11
83.17
21
-109.09
0
LINE
8
BLACK
6
CONTINUOUS
10
83.17
20
-109.09
11
83.17
21
-107.94
0
LINE
8
BLACK
6
CONTINUOUS
10
83.17
20
-107.94
11
83.1524
21
-107.982
0
LINE
8
BLACK
6
CONTINUOUS
10
83.1524
20
-107.982
11
83.11
21
-108
0
LINE
8
BLACK
6
CONTINUOUS
10
83.11
20
-108
11
83.0676
21
-107.982
0
LINE
8
BLACK
6
CONTINUOUS
10
83.0676
20
-107.982
11
83.05
21
-107.94
0
LINE
8
BLACK
6
CONTINUOUS
10
83.05
20
-107.94
11
83.05
21
-106.61
0
LINE
8
BLACK
6
CONTINUOUS
10
83.05
20
-106.61
11
83.0676
21
-106.568
0
LINE
8
BLACK
6
CONTINUOUS
10
83.0676
20
-106.568
11
83.11
21
-106.55
0
LINE
8
BLACK
6
CONTINUOUS
10
83.11
20
-106.55
11
83.17
21
-106.55
0
LINE
8
BLACK
6
CONTINUOUS
10
83.17
20
-106.55
11
83.17
21
-105.4
0
LINE
8
BLACK
6
CONTINUOUS
10
83.17
20
-105.4
11
83.1524
21
-105.442
0
LINE
8
BLACK
6
CONTINUOUS
10
83.1524
20
-105.442
11
83.11
21
-105.46
0
LINE
8
BLACK
6
CONTINUOUS
10
83.11
20
-105.46
11
83.0676
21
-105.442
0
LINE
8
BLACK
6
CONTINUOUS
10
83.0676
20
-105.442
11
83.05
21
-105.4
0
LINE
8
BLACK
6
CONTINUOUS
10
83.05
20
-105.4
11
83.05
21
-104.19
0
LINE
8
BLACK
6
CONTINUOUS
10
83.05
20
-104.19
11
82.6327
21
-104.19
0
LINE
8
BLACK
6
CONTINUOUS
10
128.89
20
-96.39
11
128.932
21
-96.4076
0
LINE
8
BLACK
6
CONTINUOUS
10
128.932
20
-96.4076
11
128.95
21
-96.45
0
LINE
8
BLACK
6
CONTINUOUS
10
128.95
20
-96.45
11
128.95
21
-98.93
0
LINE
8
BLACK
6
CONTINUOUS
10
128.95
20
-98.93
11
131.43
21
-98.93
0
LINE
8
BLACK
6
CONTINUOUS
10
131.43
20
-98.93
11
131.43
21
-97.78
0
LINE
8
BLACK
6
CONTINUOUS
10
131.43
20
-97.78
11
131.448
21
-97.7376
0
LINE
8
BLACK
6
CONTINUOUS
10
131.448
20
-97.7376
11
131.49
21
-97.72
0
LINE
8
BLACK
6
CONTINUOUS
10
131.49
20
-97.72
11
131.532
21
-97.7376
0
LINE
8
BLACK
6
CONTINUOUS
10
131.532
20
-97.7376
11
131.55
21
-97.78
0
LINE
8
BLACK
6
CONTINUOUS
10
131.55
20
-97.78
11
131.55
21
-98.93
0
LINE
8
BLACK
6
CONTINUOUS
10
131.55
20
-98.93
11
139.11
21
-98.93
0
LINE
8
BLACK
6
CONTINUOUS
10
139.11
20
-98.93
11
139.152
21
-98.9476
0
LINE
8
BLACK
6
CONTINUOUS
10
139.152
20
-98.9476
11
139.17
21
-98.99
0
LINE
8
BLACK
6
CONTINUOUS
10
139.17
20
-98.99
11
139.17
21
-101.47
0
LINE
8
BLACK
6
CONTINUOUS
10
139.17
20
-101.47
11
141.65
21
-101.47
0
LINE
8
BLACK
6
CONTINUOUS
10
141.65
20
-101.47
11
141.692
21
-101.488
0
LINE
8
BLACK
6
CONTINUOUS
10
141.692
20
-101.488
11
141.71
21
-101.53
0
LINE
8
BLACK
6
CONTINUOUS
10
141.71
20
-101.53
11
141.71
21
-114.29
0
LINE
8
BLACK
6
CONTINUOUS
10
141.71
20
-114.29
11
141.692
21
-114.332
0
LINE
8
BLACK
6
CONTINUOUS
10
141.692
20
-114.332
11
141.65
21
-114.35
0
LINE
8
BLACK
6
CONTINUOUS
10
141.65
20
-114.35
11
139.17
21
-114.35
0
LINE
8
BLACK
6
CONTINUOUS
10
139.17
20
-114.35
11
139.17
21
-116.83
0
LINE
8
BLACK
6
CONTINUOUS
10
139.17
20
-116.83
11
140.32
21
-116.83
0
LINE
8
BLACK
6
CONTINUOUS
10
140.32
20
-116.83
11
140.362
21
-116.848
0
LINE
8
BLACK
6
CONTINUOUS
10
140.362
20
-116.848
11
140.38
21
-116.89
0
LINE
8
BLACK
6
CONTINUOUS
10
140.38
20
-116.89
11
140.362
21
-116.932
0
LINE
8
BLACK
6
CONTINUOUS
10
140.362
20
-116.932
11
140.32
21
-116.95
0
LINE
8
BLACK
6
CONTINUOUS
10
140.32
20
-116.95
11
139.11
21
-116.95
0
LINE
8
BLACK
6
CONTINUOUS
10
139.11
20
-116.95
11
138.99
21
-116.95
0
LINE
8
BLACK
6
CONTINUOUS
10
138.99
20
-116.95
11
85.71
21
-116.95
0
LINE
8
BLACK
6
CONTINUOUS
10
85.71
20
-116.95
11
85.6676
21
-116.932
0
LINE
8
BLACK
6
CONTINUOUS
10
85.6676
20
-116.932
11
85.65
21
-116.89
0
LINE
8
BLACK
6
CONTINUOUS
10
85.65
20
-116.89
11
85.65
21
-114.23
0
LINE
8
BLACK
6
CONTINUOUS
10
85.65
20
-114.23
11
85.65
21
-111.69
0
LINE
8
BLACK
6
CONTINUOUS
10
85.65
20
-111.69
11
85.65
21
-109.15
0
LINE
8
BLACK
6
CONTINUOUS
10
85.65
20
-109.15
11
85.65
21
-106.61
0
LINE
8
BLACK
6
CONTINUOUS
10
85.65
20
-106.61
11
85.65
21
-104.07
0
LINE
8
BLACK
6
CONTINUOUS
10
85.65
20
-104.07
11
85.65
21
-101.53
0
LINE
8
BLACK
6
CONTINUOUS
10
85.65
20
-101.53
11
85.65
21
-98.99
0
LINE
8
BLACK
6
CONTINUOUS
10
85.65
20
-98.99
11
85.6676
21
-98.9476
0
LINE
8
BLACK
6
CONTINUOUS
10
85.6676
20
-98.9476
11
85.71
21
-98.93
0
LINE
8
BLACK
6
CONTINUOUS
10
85.71
20
-98.93
11
105.91
21
-98.93
0
LINE
8
BLACK
6
CONTINUOUS
10
105.91
20
-98.93
11
105.91
21
-96.45
0
LINE
8
BLACK
6
CONTINUOUS
10
105.91
20
-96.45
11
105.928
21
-96.4076
0
LINE
8
BLACK
6
CONTINUOUS
10
105.928
20
-96.4076
11
105.97
21
-96.39
0
LINE
8
BLACK
6
CONTINUOUS
10
105.97
20
-96.39
11
128.89
21
-96.39
0
LINE
8
BLACK
6
CONTINUOUS
10
85.77
20
-114.41
11
85.77
21
-116.83
0
LINE
8
BLACK
6
CONTINUOUS
10
85.77
20
-116.83
11
138.93
21
-116.83
0
LINE
8
BLACK
6
CONTINUOUS
10
138.93
20
-116.83
11
138.93
21
-115.56
0
LINE
8
BLACK
6
CONTINUOUS
10
138.93
20
-115.56
11
138.948
21
-115.518
0
LINE
8
BLACK
6
CONTINUOUS
10
138.948
20
-115.518
11
138.99
21
-115.5
0
LINE
8
BLACK
6
CONTINUOUS
10
138.99
20
-115.5
11
139.032
21
-115.518
0
LINE
8
BLACK
6
CONTINUOUS
10
139.032
20
-115.518
11
139.05
21
-115.56
0
LINE
8
BLACK
6
CONTINUOUS
10
139.05
20
-115.56
11
139.05
21
-114.41
0
LINE
8
BLACK
6
CONTINUOUS
10
139.05
20
-114.41
11
85.77
21
-114.41
0
LINE
8
BLACK
6
CONTINUOUS
10
139.17
20
-101.59
11
139.17
21
-104.07
0
LINE
8
BLACK
6
CONTINUOUS
10
139.17
20
-104.07
11
139.17
21
-104.07
0
LINE
8
BLACK
6
CONTINUOUS
10
139.17
20
-104.07
11
139.17
21
-106.61
0
LINE
8
BLACK
6
CONTINUOUS
10
139.17
20
-106.61
11
139.17
21
-106.61
0
LINE
8
BLACK
6
CONTINUOUS
10
139.17
20
-106.61
11
139.17
21
-109.15
0
LINE
8
BLACK
6
CONTINUOUS
10
139.17
20
-109.15
11
139.17
21
-109.15
0
LINE
8
BLACK
6
CONTINUOUS
10
139.17
20
-109.15
11
139.17
21
-111.69
0
LINE
8
BLACK
6
CONTINUOUS
10
139.17
20
-111.69
11
139.17
21
-111.69
0
LINE
8
BLACK
6
CONTINUOUS
10
139.17
20
-111.69
11
139.17
21
-114.23
0
LINE
8
BLACK
6
CONTINUOUS
10
139.17
20
-114.23
11
139.17
21
-114.23
0
LINE
8
BLACK
6
CONTINUOUS
10
139.17
20
-114.23
11
141.59
21
-114.23
0
LINE
8
BLACK
6
CONTINUOUS
10
141.59
20
-114.23
11
141.59
21
-101.59
0
LINE
8
BLACK
6
CONTINUOUS
10
141.59
20
-101.59
11
139.17
21
-101.59
0
LINE
8
BLACK
6
CONTINUOUS
10
85.77
20
-111.87
11
85.77
21
-114.17
0
LINE
8
BLACK
6
CONTINUOUS
10
85.77
20
-114.17
11
138.93
21
-114.17
0
LINE
8
BLACK
6
CONTINUOUS
10
138.93
20
-114.17
11
138.93
21
-111.87
0
LINE
8
BLACK
6
CONTINUOUS
10
138.93
20
-111.87
11
85.77
21
-111.87
0
LINE
8
BLACK
6
CONTINUOUS
10
85.77
20
-109.33
11
85.77
21
-111.63
0
LINE
8
BLACK
6
CONTINUOUS
10
85.77
20
-111.63
11
138.93
21
-111.63
0
LINE
8
BLACK
6
CONTINUOUS
10
138.93
20
-111.63
11
138.93
21
-109.33
0
LINE
8
BLACK
6
CONTINUOUS
10
138.93
20
-109.33
11
85.77
21
-109.33
0
LINE
8
BLACK
6
CONTINUOUS
10
85.77
20
-106.79
11
85.77
21
-109.09
0
LINE
8
BLACK
6
CONTINUOUS
10
85.77
20
-109.09
11
138.93
21
-109.09
0
LINE
8
BLACK
6
CONTINUOUS
10
138.93
20
-109.09
11
138.93
21
-106.79
0
LINE
8
BLACK
6
CONTINUOUS
10
138.93
20
-106.79
11
85.77
21
-106.79
0
LINE
8
BLACK
6
CONTINUOUS
10
85.77
20
-104.25
11
85.77
21
-106.55
0
LINE
8
BLACK
6
CONTINUOUS
10
85.77
20
-106.55
11
138.93
21
-106.55
0
LINE
8
BLACK
6
CONTINUOUS
10
138.93
20
-106.55
11
138.93
21
-104.25
0
LINE
8
BLACK
6
CONTINUOUS
10
138.93
20
-104.25
11
85.77
21
-104.25
0
LINE
8
BLACK
6
CONTINUOUS
10
85.77
20
-101.71
11
85.77
21
-104.01
0
LINE
8
BLACK
6
CONTINUOUS
10
85.77
20
-104.01
11
138.93
21
-104.01
0
LINE
8
BLACK
6
CONTINUOUS
10
138.93
20
-104.01
11
138.93
21
-101.71
0
LINE
8
BLACK
6
CONTINUOUS
10
138.93
20
-101.71
11
85.77
21
-101.71
0
LINE
8
BLACK
6
CONTINUOUS
10
131.55
20
-99.05
11
131.55
21
-99.11
0
LINE
8
BLACK
6
CONTINUOUS
10
131.55
20
-99.11
11
131.532
21
-99.1524
0
LINE
8
BLACK
6
CONTINUOUS
10
131.532
20
-99.1524
11
131.49
21
-99.17
0
LINE
8
BLACK
6
CONTINUOUS
10
131.49
20
-99.17
11
130.16
21
-99.17
0
LINE
8
BLACK
6
CONTINUOUS
10
130.16
20
-99.17
11
130.118
21
-99.1524
0
LINE
8
BLACK
6
CONTINUOUS
10
130.118
20
-99.1524
11
130.1
21
-99.11
0
LINE
8
BLACK
6
CONTINUOUS
10
130.1
20
-99.11
11
130.118
21
-99.0676
0
LINE
8
BLACK
6
CONTINUOUS
10
130.118
20
-99.0676
11
130.16
21
-99.05
0
LINE
8
BLACK
6
CONTINUOUS
10
130.16
20
-99.05
11
128.95
21
-99.05
0
LINE
8
BLACK
6
CONTINUOUS
10
128.95
20
-99.05
11
128.95
21
-99.11
0
LINE
8
BLACK
6
CONTINUOUS
10
128.95
20
-99.11
11
128.932
21
-99.1524
0
LINE
8
BLACK
6
CONTINUOUS
10
128.932
20
-99.1524
11
128.89
21
-99.17
0
LINE
8
BLACK
6
CONTINUOUS
10
128.89
20
-99.17
11
105.97
21
-99.17
0
LINE
8
BLACK
6
CONTINUOUS
10
105.97
20
-99.17
11
105.928
21
-99.1524
0
LINE
8
BLACK
6
CONTINUOUS
10
105.928
20
-99.1524
11
105.91
21
-99.11
0
LINE
8
BLACK
6
CONTINUOUS
10
105.91
20
-99.11
11
105.91
21
-99.11
0
LINE
8
BLACK
6
CONTINUOUS
10
105.91
20
-99.11
11
105.91
21
-99.05
0
LINE
8
BLACK
6
CONTINUOUS
10
105.91
20
-99.05
11
85.77
21
-99.05
0
LINE
8
BLACK
6
CONTINUOUS
10
85.77
20
-99.05
11
85.77
21
-101.47
0
LINE
8
BLACK
6
CONTINUOUS
10
85.77
20
-101.47
11
139.05
21
-101.47
0
LINE
8
BLACK
6
CONTINUOUS
10
139.05
20
-101.47
11
139.05
21
-99.05
0
LINE
8
BLACK
6
CONTINUOUS
10
139.05
20
-99.05
11
131.55
21
-99.05
0
LINE
8
BLACK
6
CONTINUOUS
10
106.03
20
-96.51
11
106.03
21
-98.93
0
LINE
8
BLACK
6
CONTINUOUS
10
106.03
20
-98.93
11
128.83
21
-98.93
0
LINE
8
BLACK
6
CONTINUOUS
10
128.83
20
-98.93
11
128.83
21
-96.51
0
LINE
8
BLACK
6
CONTINUOUS
10
128.83
20
-96.51
11
106.03
21
-96.51
0
LINE
8
BLACK
6
CONTINUOUS
10
82.5226
20
-102.378
11
82.5702
21
-102.426
0
LINE
8
BLACK
6
CONTINUOUS
10
82.5702
20
-102.426
11
82.5831
21
-102.444
0
LINE
8
BLACK
6
CONTINUOUS
10
82.5831
20
-102.444
11
82.5843
21
-102.446
0
LINE
8
BLACK
6
CONTINUOUS
10
82.5843
20
-102.446
11
82.6319
21
-102.541
0
LINE
8
BLACK
6
CONTINUOUS
10
82.6319
20
-102.541
11
82.6393
21
-102.566
0
LINE
8
BLACK
6
CONTINUOUS
10
82.6393
20
-102.566
11
82.6383
21
-102.57
0
LINE
8
BLACK
6
CONTINUOUS
10
82.6383
20
-102.57
11
82.6398
21
-102.574
0
LINE
8
BLACK
6
CONTINUOUS
10
82.6398
20
-102.574
11
82.6398
21
-102.86
0
LINE
8
BLACK
6
CONTINUOUS
10
82.6398
20
-102.86
11
82.6353
21
-102.886
0
LINE
8
BLACK
6
CONTINUOUS
10
82.6353
20
-102.886
11
82.6324
21
-102.889
0
LINE
8
BLACK
6
CONTINUOUS
10
82.6324
20
-102.889
11
82.6319
21
-102.894
0
LINE
8
BLACK
6
CONTINUOUS
10
82.6319
20
-102.894
11
82.5843
21
-102.989
0
LINE
8
BLACK
6
CONTINUOUS
10
82.5843
20
-102.989
11
82.5709
21
-103.007
0
LINE
8
BLACK
6
CONTINUOUS
10
82.5709
20
-103.007
11
82.5702
21
-103.008
0
LINE
8
BLACK
6
CONTINUOUS
10
82.5702
20
-103.008
11
82.5226
21
-103.056
0
LINE
8
BLACK
6
CONTINUOUS
10
82.5226
20
-103.056
11
82.5042
21
-103.069
0
LINE
8
BLACK
6
CONTINUOUS
10
82.5042
20
-103.069
11
82.5031
21
-103.07
0
LINE
8
BLACK
6
CONTINUOUS
10
82.5031
20
-103.07
11
82.4079
21
-103.118
0
LINE
8
BLACK
6
CONTINUOUS
10
82.4079
20
-103.118
11
82.3829
21
-103.125
0
LINE
8
BLACK
6
CONTINUOUS
10
82.3829
20
-103.125
11
82.3786
21
-103.124
0
LINE
8
BLACK
6
CONTINUOUS
10
82.3786
20
-103.124
11
82.3743
21
-103.125
0
LINE
8
BLACK
6
CONTINUOUS
10
82.3743
20
-103.125
11
82.1362
21
-103.125
0
LINE
8
BLACK
6
CONTINUOUS
10
82.1362
20
-103.125
11
82.1106
21
-103.121
0
LINE
8
BLACK
6
CONTINUOUS
10
82.1106
20
-103.121
11
82.1072
21
-103.118
0
LINE
8
BLACK
6
CONTINUOUS
10
82.1072
20
-103.118
11
82.1027
21
-103.118
0
LINE
8
BLACK
6
CONTINUOUS
10
82.1027
20
-103.118
11
82.0075
21
-103.07
0
LINE
8
BLACK
6
CONTINUOUS
10
82.0075
20
-103.07
11
81.9895
21
-103.057
0
LINE
8
BLACK
6
CONTINUOUS
10
81.9895
20
-103.057
11
81.988
21
-103.056
0
LINE
8
BLACK
6
CONTINUOUS
10
81.988
20
-103.056
11
81.9404
21
-103.008
0
LINE
8
BLACK
6
CONTINUOUS
10
81.9404
20
-103.008
11
81.9275
21
-102.99
0
LINE
8
BLACK
6
CONTINUOUS
10
81.9275
20
-102.99
11
81.9263
21
-102.989
0
LINE
8
BLACK
6
CONTINUOUS
10
81.9263
20
-102.989
11
81.8787
21
-102.894
0
LINE
8
BLACK
6
CONTINUOUS
10
81.8787
20
-102.894
11
81.8744
21
-102.879
0
LINE
8
BLACK
6
CONTINUOUS
10
81.8744
20
-102.879
11
81.6142
21
-103.107
0
LINE
8
BLACK
6
CONTINUOUS
10
81.6142
20
-103.107
11
81.6046
21
-103.113
0
LINE
8
BLACK
6
CONTINUOUS
10
81.6046
20
-103.113
11
81.6023
21
-103.115
0
LINE
8
BLACK
6
CONTINUOUS
10
81.6023
20
-103.115
11
81.5993
21
-103.116
0
LINE
8
BLACK
6
CONTINUOUS
10
81.5993
20
-103.116
11
81.5919
21
-103.12
0
LINE
8
BLACK
6
CONTINUOUS
10
81.5919
20
-103.12
11
81.5717
21
-103.121
0
LINE
8
BLACK
6
CONTINUOUS
10
81.5717
20
-103.121
11
81.5518
21
-103.124
0
LINE
8
BLACK
6
CONTINUOUS
10
81.5518
20
-103.124
11
81.5466
21
-103.121
0
LINE
8
BLACK
6
CONTINUOUS
10
81.5466
20
-103.121
11
81.5406
21
-103.121
0
LINE
8
BLACK
6
CONTINUOUS
10
81.5406
20
-103.121
11
81.5249
21
-103.109
0
LINE
8
BLACK
6
CONTINUOUS
10
81.5249
20
-103.109
11
81.5074
21
-103.099
0
LINE
8
BLACK
6
CONTINUOUS
10
81.5074
20
-103.099
11
81.5053
21
-103.093
0
LINE
8
BLACK
6
CONTINUOUS
10
81.5053
20
-103.093
11
81.5007
21
-103.089
0
LINE
8
BLACK
6
CONTINUOUS
10
81.5007
20
-103.089
11
81.4967
21
-103.069
0
LINE
8
BLACK
6
CONTINUOUS
10
81.4967
20
-103.069
11
81.4898
21
-103.05
0
LINE
8
BLACK
6
CONTINUOUS
10
81.4898
20
-103.05
11
81.4898
21
-102.431
0
LINE
8
BLACK
6
CONTINUOUS
10
81.4898
20
-102.431
11
81.4943
21
-102.406
0
LINE
8
BLACK
6
CONTINUOUS
10
81.4943
20
-102.406
11
81.5273
21
-102.366
0
LINE
8
BLACK
6
CONTINUOUS
10
81.5273
20
-102.366
11
81.5778
21
-102.358
0
LINE
8
BLACK
6
CONTINUOUS
10
81.5778
20
-102.358
11
81.6223
21
-102.383
0
LINE
8
BLACK
6
CONTINUOUS
10
81.6223
20
-102.383
11
81.6398
21
-102.431
0
LINE
8
BLACK
6
CONTINUOUS
10
81.6398
20
-102.431
11
81.6398
21
-102.885
0
LINE
8
BLACK
6
CONTINUOUS
10
81.6398
20
-102.885
11
81.8964
21
-102.661
0
LINE
8
BLACK
6
CONTINUOUS
10
81.8964
20
-102.661
11
81.906
21
-102.655
0
LINE
8
BLACK
6
CONTINUOUS
10
81.906
20
-102.655
11
81.9083
21
-102.652
0
LINE
8
BLACK
6
CONTINUOUS
10
81.9083
20
-102.652
11
81.9113
21
-102.652
0
LINE
8
BLACK
6
CONTINUOUS
10
81.9113
20
-102.652
11
81.9187
21
-102.647
0
LINE
8
BLACK
6
CONTINUOUS
10
81.9187
20
-102.647
11
81.9389
21
-102.647
0
LINE
8
BLACK
6
CONTINUOUS
10
81.9389
20
-102.647
11
81.9588
21
-102.643
0
LINE
8
BLACK
6
CONTINUOUS
10
81.9588
20
-102.643
11
81.964
21
-102.646
0
LINE
8
BLACK
6
CONTINUOUS
10
81.964
20
-102.646
11
81.97
21
-102.646
0
LINE
8
BLACK
6
CONTINUOUS
10
81.97
20
-102.646
11
81.9857
21
-102.659
0
LINE
8
BLACK
6
CONTINUOUS
10
81.9857
20
-102.659
11
82.0032
21
-102.669
0
LINE
8
BLACK
6
CONTINUOUS
10
82.0032
20
-102.669
11
82.0053
21
-102.675
0
LINE
8
BLACK
6
CONTINUOUS
10
82.0053
20
-102.675
11
82.0099
21
-102.678
0
LINE
8
BLACK
6
CONTINUOUS
10
82.0099
20
-102.678
11
82.0139
21
-102.698
0
LINE
8
BLACK
6
CONTINUOUS
10
82.0139
20
-102.698
11
82.0208
21
-102.717
0
LINE
8
BLACK
6
CONTINUOUS
10
82.0208
20
-102.717
11
82.0208
21
-102.842
0
LINE
8
BLACK
6
CONTINUOUS
10
82.0208
20
-102.842
11
82.055
21
-102.911
0
LINE
8
BLACK
6
CONTINUOUS
10
82.055
20
-102.911
11
82.0854
21
-102.941
0
LINE
8
BLACK
6
CONTINUOUS
10
82.0854
20
-102.941
11
82.154
21
-102.975
0
LINE
8
BLACK
6
CONTINUOUS
10
82.154
20
-102.975
11
82.3566
21
-102.975
0
LINE
8
BLACK
6
CONTINUOUS
10
82.3566
20
-102.975
11
82.4252
21
-102.941
0
LINE
8
BLACK
6
CONTINUOUS
10
82.4252
20
-102.941
11
82.4556
21
-102.911
0
LINE
8
BLACK
6
CONTINUOUS
10
82.4556
20
-102.911
11
82.4898
21
-102.842
0
LINE
8
BLACK
6
CONTINUOUS
10
82.4898
20
-102.842
11
82.4898
21
-102.592
0
LINE
8
BLACK
6
CONTINUOUS
10
82.4898
20
-102.592
11
82.4556
21
-102.523
0
LINE
8
BLACK
6
CONTINUOUS
10
82.4556
20
-102.523
11
82.4165
21
-102.484
0
LINE
8
BLACK
6
CONTINUOUS
10
82.4165
20
-102.484
11
82.4016
21
-102.463
0
LINE
8
BLACK
6
CONTINUOUS
10
82.4016
20
-102.463
11
82.3971
21
-102.412
0
LINE
8
BLACK
6
CONTINUOUS
10
82.3971
20
-102.412
11
82.4266
21
-102.37
0
LINE
8
BLACK
6
CONTINUOUS
10
82.4266
20
-102.37
11
82.4761
21
-102.357
0
LINE
8
BLACK
6
CONTINUOUS
10
82.4761
20
-102.357
11
82.5226
21
-102.378
0
LINE
8
BLACK
6
CONTINUOUS
10
82.5226
20
-99.8384
11
82.5702
21
-99.886
0
LINE
8
BLACK
6
CONTINUOUS
10
82.5702
20
-99.886
11
82.5831
21
-99.9044
0
LINE
8
BLACK
6
CONTINUOUS
10
82.5831
20
-99.9044
11
82.5843
21
-99.9055
0
LINE
8
BLACK
6
CONTINUOUS
10
82.5843
20
-99.9055
11
82.6319
21
-100.001
0
LINE
8
BLACK
6
CONTINUOUS
10
82.6319
20
-100.001
11
82.6345
21
-100.01
0
LINE
8
BLACK
6
CONTINUOUS
10
82.6345
20
-100.01
11
82.6345
21
-99.9848
0
LINE
8
BLACK
6
CONTINUOUS
10
82.6345
20
-99.9848
11
82.639
21
-99.9592
0
LINE
8
BLACK
6
CONTINUOUS
10
82.639
20
-99.9592
11
82.672
21
-99.9199
0
LINE
8
BLACK
6
CONTINUOUS
10
82.672
20
-99.9199
11
82.7225
21
-99.911
0
LINE
8
BLACK
6
CONTINUOUS
10
82.7225
20
-99.911
11
82.767
21
-99.9366
0
LINE
8
BLACK
6
CONTINUOUS
10
82.767
20
-99.9366
11
82.7845
21
-99.9848
0
LINE
8
BLACK
6
CONTINUOUS
10
82.7845
20
-99.9848
11
82.7845
21
-100.687
0
LINE
8
BLACK
6
CONTINUOUS
10
82.7845
20
-100.687
11
82.8227
21
-100.801
0
LINE
8
BLACK
6
CONTINUOUS
10
82.8227
20
-100.801
11
82.8929
21
-100.872
0
LINE
8
BLACK
6
CONTINUOUS
10
82.8929
20
-100.872
11
83.0074
21
-100.91
0
LINE
8
BLACK
6
CONTINUOUS
10
83.0074
20
-100.91
11
83.0905
21
-100.91
0
LINE
8
BLACK
6
CONTINUOUS
10
83.0905
20
-100.91
11
83.1161
21
-100.914
0
LINE
8
BLACK
6
CONTINUOUS
10
83.1161
20
-100.914
11
83.1554
21
-100.947
0
LINE
8
BLACK
6
CONTINUOUS
10
83.1554
20
-100.947
11
83.1643
21
-100.998
0
LINE
8
BLACK
6
CONTINUOUS
10
83.1643
20
-100.998
11
83.1387
21
-101.042
0
LINE
8
BLACK
6
CONTINUOUS
10
83.1387
20
-101.042
11
83.0905
21
-101.06
0
LINE
8
BLACK
6
CONTINUOUS
10
83.0905
20
-101.06
11
82.9952
21
-101.06
0
LINE
8
BLACK
6
CONTINUOUS
10
82.9952
20
-101.06
11
82.9732
21
-101.056
0
LINE
8
BLACK
6
CONTINUOUS
10
82.9732
20
-101.056
11
82.9715
21
-101.056
0
LINE
8
BLACK
6
CONTINUOUS
10
82.9715
20
-101.056
11
82.8287
21
-101.008
0
LINE
8
BLACK
6
CONTINUOUS
10
82.8287
20
-101.008
11
82.8058
21
-100.996
0
LINE
8
BLACK
6
CONTINUOUS
10
82.8058
20
-100.996
11
82.8034
21
-100.992
0
LINE
8
BLACK
6
CONTINUOUS
10
82.8034
20
-100.992
11
82.7993
21
-100.99
0
LINE
8
BLACK
6
CONTINUOUS
10
82.7993
20
-100.99
11
82.7041
21
-100.895
0
LINE
8
BLACK
6
CONTINUOUS
10
82.7041
20
-100.895
11
82.6892
21
-100.874
0
LINE
8
BLACK
6
CONTINUOUS
10
82.6892
20
-100.874
11
82.6888
21
-100.869
0
LINE
8
BLACK
6
CONTINUOUS
10
82.6888
20
-100.869
11
82.686
21
-100.866
0
LINE
8
BLACK
6
CONTINUOUS
10
82.686
20
-100.866
11
82.6384
21
-100.723
0
LINE
8
BLACK
6
CONTINUOUS
10
82.6384
20
-100.723
11
82.6351
21
-100.701
0
LINE
8
BLACK
6
CONTINUOUS
10
82.6351
20
-100.701
11
82.6345
21
-100.699
0
LINE
8
BLACK
6
CONTINUOUS
10
82.6345
20
-100.699
11
82.6345
21
-100.347
0
LINE
8
BLACK
6
CONTINUOUS
10
82.6345
20
-100.347
11
82.6324
21
-100.349
0
LINE
8
BLACK
6
CONTINUOUS
10
82.6324
20
-100.349
11
82.6319
21
-100.354
0
LINE
8
BLACK
6
CONTINUOUS
10
82.6319
20
-100.354
11
82.5843
21
-100.449
0
LINE
8
BLACK
6
CONTINUOUS
10
82.5843
20
-100.449
11
82.5709
21
-100.467
0
LINE
8
BLACK
6
CONTINUOUS
10
82.5709
20
-100.467
11
82.5702
21
-100.468
0
LINE
8
BLACK
6
CONTINUOUS
10
82.5702
20
-100.468
11
82.5226
21
-100.516
0
LINE
8
BLACK
6
CONTINUOUS
10
82.5226
20
-100.516
11
82.5042
21
-100.529
0
LINE
8
BLACK
6
CONTINUOUS
10
82.5042
20
-100.529
11
82.5031
21
-100.53
0
LINE
8
BLACK
6
CONTINUOUS
10
82.5031
20
-100.53
11
82.4079
21
-100.578
0
LINE
8
BLACK
6
CONTINUOUS
10
82.4079
20
-100.578
11
82.3829
21
-100.585
0
LINE
8
BLACK
6
CONTINUOUS
10
82.3829
20
-100.585
11
82.3786
21
-100.584
0
LINE
8
BLACK
6
CONTINUOUS
10
82.3786
20
-100.584
11
82.3743
21
-100.585
0
LINE
8
BLACK
6
CONTINUOUS
10
82.3743
20
-100.585
11
82.1362
21
-100.585
0
LINE
8
BLACK
6
CONTINUOUS
10
82.1362
20
-100.585
11
82.1106
21
-100.581
0
LINE
8
BLACK
6
CONTINUOUS
10
82.1106
20
-100.581
11
82.1072
21
-100.578
0
LINE
8
BLACK
6
CONTINUOUS
10
82.1072
20
-100.578
11
82.1027
21
-100.578
0
LINE
8
BLACK
6
CONTINUOUS
10
82.1027
20
-100.578
11
82.0702
21
-100.561
0
LINE
8
BLACK
6
CONTINUOUS
10
82.0702
20
-100.561
11
82.0702
21
-100.826
0
LINE
8
BLACK
6
CONTINUOUS
10
82.0702
20
-100.826
11
82.081
21
-100.833
0
LINE
8
BLACK
6
CONTINUOUS
10
82.081
20
-100.833
11
82.1019
21
-100.848
0
LINE
8
BLACK
6
CONTINUOUS
10
82.1019
20
-100.848
11
82.102
21
-100.848
0
LINE
8
BLACK
6
CONTINUOUS
10
82.102
20
-100.848
11
82.1024
21
-100.848
0
LINE
8
BLACK
6
CONTINUOUS
10
82.1024
20
-100.848
11
82.109
21
-100.873
0
LINE
8
BLACK
6
CONTINUOUS
10
82.109
20
-100.873
11
82.1158
21
-100.897
0
LINE
8
BLACK
6
CONTINUOUS
10
82.1158
20
-100.897
11
82.1156
21
-100.897
0
LINE
8
BLACK
6
CONTINUOUS
10
82.1156
20
-100.897
11
82.1157
21
-100.898
0
LINE
8
BLACK
6
CONTINUOUS
10
82.1157
20
-100.898
11
82.1102
21
-100.91
0
LINE
8
BLACK
6
CONTINUOUS
10
82.1102
20
-100.91
11
82.281
21
-100.91
0
LINE
8
BLACK
6
CONTINUOUS
10
82.281
20
-100.91
11
82.3066
21
-100.914
0
LINE
8
BLACK
6
CONTINUOUS
10
82.3066
20
-100.914
11
82.3459
21
-100.947
0
LINE
8
BLACK
6
CONTINUOUS
10
82.3459
20
-100.947
11
82.3548
21
-100.998
0
LINE
8
BLACK
6
CONTINUOUS
10
82.3548
20
-100.998
11
82.3292
21
-101.042
0
LINE
8
BLACK
6
CONTINUOUS
10
82.3292
20
-101.042
11
82.281
21
-101.06
0
LINE
8
BLACK
6
CONTINUOUS
10
82.281
20
-101.06
11
82.0208
21
-101.06
0
LINE
8
BLACK
6
CONTINUOUS
10
82.0208
20
-101.06
11
82.0208
21
-101.255
0
LINE
8
BLACK
6
CONTINUOUS
10
82.0208
20
-101.255
11
82.055
21
-101.323
0
LINE
8
BLACK
6
CONTINUOUS
10
82.055
20
-101.323
11
82.0854
21
-101.354
0
LINE
8
BLACK
6
CONTINUOUS
10
82.0854
20
-101.354
11
82.154
21
-101.388
0
LINE
8
BLACK
6
CONTINUOUS
10
82.154
20
-101.388
11
82.3566
21
-101.388
0
LINE
8
BLACK
6
CONTINUOUS
10
82.3566
20
-101.388
11
82.4252
21
-101.354
0
LINE
8
BLACK
6
CONTINUOUS
10
82.4252
20
-101.354
11
82.4556
21
-101.323
0
LINE
8
BLACK
6
CONTINUOUS
10
82.4556
20
-101.323
11
82.4898
21
-101.255
0
LINE
8
BLACK
6
CONTINUOUS
10
82.4898
20
-101.255
11
82.4898
21
-101.052
0
LINE
8
BLACK
6
CONTINUOUS
10
82.4898
20
-101.052
11
82.4556
21
-100.983
0
LINE
8
BLACK
6
CONTINUOUS
10
82.4556
20
-100.983
11
82.4165
21
-100.944
0
LINE
8
BLACK
6
CONTINUOUS
10
82.4165
20
-100.944
11
82.4016
21
-100.923
0
LINE
8
BLACK
6
CONTINUOUS
10
82.4016
20
-100.923
11
82.3971
21
-100.872
0
LINE
8
BLACK
6
CONTINUOUS
10
82.3971
20
-100.872
11
82.4266
21
-100.83
0
LINE
8
BLACK
6
CONTINUOUS
10
82.4266
20
-100.83
11
82.4761
21
-100.817
0
LINE
8
BLACK
6
CONTINUOUS
10
82.4761
20
-100.817
11
82.5226
21
-100.838
0
LINE
8
BLACK
6
CONTINUOUS
10
82.5226
20
-100.838
11
82.5702
21
-100.886
0
LINE
8
BLACK
6
CONTINUOUS
10
82.5702
20
-100.886
11
82.5831
21
-100.904
0
LINE
8
BLACK
6
CONTINUOUS
10
82.5831
20
-100.904
11
82.5843
21
-100.906
0
LINE
8
BLACK
6
CONTINUOUS
10
82.5843
20
-100.906
11
82.6319
21
-101.001
0
LINE
8
BLACK
6
CONTINUOUS
10
82.6319
20
-101.001
11
82.6393
21
-101.026
0
LINE
8
BLACK
6
CONTINUOUS
10
82.6393
20
-101.026
11
82.6383
21
-101.03
0
LINE
8
BLACK
6
CONTINUOUS
10
82.6383
20
-101.03
11
82.6398
21
-101.034
0
LINE
8
BLACK
6
CONTINUOUS
10
82.6398
20
-101.034
11
82.6398
21
-101.272
0
LINE
8
BLACK
6
CONTINUOUS
10
82.6398
20
-101.272
11
82.6353
21
-101.298
0
LINE
8
BLACK
6
CONTINUOUS
10
82.6353
20
-101.298
11
82.6324
21
-101.301
0
LINE
8
BLACK
6
CONTINUOUS
10
82.6324
20
-101.301
11
82.6319
21
-101.306
0
LINE
8
BLACK
6
CONTINUOUS
10
82.6319
20
-101.306
11
82.5843
21
-101.401
0
LINE
8
BLACK
6
CONTINUOUS
10
82.5843
20
-101.401
11
82.5709
21
-101.419
0
LINE
8
BLACK
6
CONTINUOUS
10
82.5709
20
-101.419
11
82.5702
21
-101.421
0
LINE
8
BLACK
6
CONTINUOUS
10
82.5702
20
-101.421
11
82.5226
21
-101.468
0
LINE
8
BLACK
6
CONTINUOUS
10
82.5226
20
-101.468
11
82.5201
21
-101.47
0
LINE
8
BLACK
6
CONTINUOUS
10
82.5201
20
-101.47
11
83.23
21
-101.47
0
LINE
8
BLACK
6
CONTINUOUS
10
83.23
20
-101.47
11
84.44
21
-101.47
0
LINE
8
BLACK
6
CONTINUOUS
10
84.44
20
-101.47
11
84.4824
21
-101.488
0
LINE
8
BLACK
6
CONTINUOUS
10
84.4824
20
-101.488
11
84.5
21
-101.53
0
LINE
8
BLACK
6
CONTINUOUS
10
84.5
20
-101.53
11
84.4824
21
-101.572
0
LINE
8
BLACK
6
CONTINUOUS
10
84.4824
20
-101.572
11
84.44
21
-101.59
0
LINE
8
BLACK
6
CONTINUOUS
10
84.44
20
-101.59
11
83.29
21
-101.59
0
LINE
8
BLACK
6
CONTINUOUS
10
83.29
20
-101.59
11
83.29
21
-102.86
0
LINE
8
BLACK
6
CONTINUOUS
10
83.29
20
-102.86
11
83.2724
21
-102.902
0
LINE
8
BLACK
6
CONTINUOUS
10
83.2724
20
-102.902
11
83.23
21
-102.92
0
LINE
8
BLACK
6
CONTINUOUS
10
83.23
20
-102.92
11
83.1876
21
-102.902
0
LINE
8
BLACK
6
CONTINUOUS
10
83.1876
20
-102.902
11
83.17
21
-102.86
0
LINE
8
BLACK
6
CONTINUOUS
10
83.17
20
-102.86
11
83.1524
21
-102.902
0
LINE
8
BLACK
6
CONTINUOUS
10
83.1524
20
-102.902
11
83.11
21
-102.92
0
LINE
8
BLACK
6
CONTINUOUS
10
83.11
20
-102.92
11
83.0676
21
-102.902
0
LINE
8
BLACK
6
CONTINUOUS
10
83.0676
20
-102.902
11
83.05
21
-102.86
0
LINE
8
BLACK
6
CONTINUOUS
10
83.05
20
-102.86
11
83.05
21
-101.59
0
LINE
8
BLACK
6
CONTINUOUS
10
83.05
20
-101.59
11
81.9
21
-101.59
0
LINE
8
BLACK
6
CONTINUOUS
10
81.9
20
-101.59
11
81.8576
21
-101.572
0
LINE
8
BLACK
6
CONTINUOUS
10
81.8576
20
-101.572
11
81.84
21
-101.53
0
LINE
8
BLACK
6
CONTINUOUS
10
81.84
20
-101.53
11
81.8576
21
-101.488
0
LINE
8
BLACK
6
CONTINUOUS
10
81.8576
20
-101.488
11
81.9
21
-101.47
0
LINE
8
BLACK
6
CONTINUOUS
10
81.9
20
-101.47
11
81.9909
21
-101.47
0
LINE
8
BLACK
6
CONTINUOUS
10
81.9909
20
-101.47
11
81.9895
21
-101.469
0
LINE
8
BLACK
6
CONTINUOUS
10
81.9895
20
-101.469
11
81.988
21
-101.468
0
LINE
8
BLACK
6
CONTINUOUS
10
81.988
20
-101.468
11
81.9404
21
-101.421
0
LINE
8
BLACK
6
CONTINUOUS
10
81.9404
20
-101.421
11
81.9275
21
-101.402
0
LINE
8
BLACK
6
CONTINUOUS
10
81.9275
20
-101.402
11
81.9263
21
-101.401
0
LINE
8
BLACK
6
CONTINUOUS
10
81.9263
20
-101.401
11
81.8787
21
-101.306
0
LINE
8
BLACK
6
CONTINUOUS
10
81.8787
20
-101.306
11
81.8713
21
-101.281
0
LINE
8
BLACK
6
CONTINUOUS
10
81.8713
20
-101.281
11
81.8723
21
-101.277
0
LINE
8
BLACK
6
CONTINUOUS
10
81.8723
20
-101.277
11
81.8708
21
-101.272
0
LINE
8
BLACK
6
CONTINUOUS
10
81.8708
20
-101.272
11
81.8708
21
-101.06
0
LINE
8
BLACK
6
CONTINUOUS
10
81.8708
20
-101.06
11
81.7095
21
-101.06
0
LINE
8
BLACK
6
CONTINUOUS
10
81.7095
20
-101.06
11
81.6839
21
-101.055
0
LINE
8
BLACK
6
CONTINUOUS
10
81.6839
20
-101.055
11
81.6446
21
-101.022
0
LINE
8
BLACK
6
CONTINUOUS
10
81.6446
20
-101.022
11
81.6418
21
-101.007
0
LINE
8
BLACK
6
CONTINUOUS
10
81.6418
20
-101.007
11
81.6398
21
-101.007
0
LINE
8
BLACK
6
CONTINUOUS
10
81.6398
20
-101.007
11
81.6398
21
-101.415
0
LINE
8
BLACK
6
CONTINUOUS
10
81.6398
20
-101.415
11
81.6353
21
-101.441
0
LINE
8
BLACK
6
CONTINUOUS
10
81.6353
20
-101.441
11
81.6023
21
-101.48
0
LINE
8
BLACK
6
CONTINUOUS
10
81.6023
20
-101.48
11
81.5518
21
-101.489
0
LINE
8
BLACK
6
CONTINUOUS
10
81.5518
20
-101.489
11
81.5074
21
-101.463
0
LINE
8
BLACK
6
CONTINUOUS
10
81.5074
20
-101.463
11
81.4898
21
-101.415
0
LINE
8
BLACK
6
CONTINUOUS
10
81.4898
20
-101.415
11
81.4898
21
-100.939
0
LINE
8
BLACK
6
CONTINUOUS
10
81.4898
20
-100.939
11
81.4905
21
-100.935
0
LINE
8
BLACK
6
CONTINUOUS
10
81.4905
20
-100.935
11
81.49
21
-100.933
0
LINE
8
BLACK
6
CONTINUOUS
10
81.49
20
-100.933
11
81.4913
21
-100.931
0
LINE
8
BLACK
6
CONTINUOUS
10
81.4913
20
-100.931
11
81.4943
21
-100.913
0
LINE
8
BLACK
6
CONTINUOUS
10
81.4943
20
-100.913
11
81.5046
21
-100.901
0
LINE
8
BLACK
6
CONTINUOUS
10
81.5046
20
-100.901
11
81.5111
21
-100.887
0
LINE
8
BLACK
6
CONTINUOUS
10
81.5111
20
-100.887
11
81.5206
21
-100.882
0
LINE
8
BLACK
6
CONTINUOUS
10
81.5206
20
-100.882
11
81.5273
21
-100.874
0
LINE
8
BLACK
6
CONTINUOUS
10
81.5273
20
-100.874
11
81.543
21
-100.871
0
LINE
8
BLACK
6
CONTINUOUS
10
81.543
20
-100.871
11
81.5574
21
-100.864
0
LINE
8
BLACK
6
CONTINUOUS
10
81.5574
20
-100.864
11
81.9202
21
-100.828
0
LINE
8
BLACK
6
CONTINUOUS
10
81.9202
20
-100.828
11
81.9202
21
-100.437
0
LINE
8
BLACK
6
CONTINUOUS
10
81.9202
20
-100.437
11
81.8787
21
-100.354
0
LINE
8
BLACK
6
CONTINUOUS
10
81.8787
20
-100.354
11
81.8744
21
-100.339
0
LINE
8
BLACK
6
CONTINUOUS
10
81.8744
20
-100.339
11
81.6142
21
-100.567
0
LINE
8
BLACK
6
CONTINUOUS
10
81.6142
20
-100.567
11
81.6046
21
-100.573
0
LINE
8
BLACK
6
CONTINUOUS
10
81.6046
20
-100.573
11
81.6023
21
-100.575
0
LINE
8
BLACK
6
CONTINUOUS
10
81.6023
20
-100.575
11
81.5993
21
-100.576
0
LINE
8
BLACK
6
CONTINUOUS
10
81.5993
20
-100.576
11
81.5919
21
-100.58
0
LINE
8
BLACK
6
CONTINUOUS
10
81.5919
20
-100.58
11
81.5717
21
-100.581
0
LINE
8
BLACK
6
CONTINUOUS
10
81.5717
20
-100.581
11
81.5518
21
-100.584
0
LINE
8
BLACK
6
CONTINUOUS
10
81.5518
20
-100.584
11
81.5466
21
-100.581
0
LINE
8
BLACK
6
CONTINUOUS
10
81.5466
20
-100.581
11
81.5406
21
-100.581
0
LINE
8
BLACK
6
CONTINUOUS
10
81.5406
20
-100.581
11
81.5249
21
-100.569
0
LINE
8
BLACK
6
CONTINUOUS
10
81.5249
20
-100.569
11
81.5074
21
-100.559
0
LINE
8
BLACK
6
CONTINUOUS
10
81.5074
20
-100.559
11
81.5053
21
-100.553
0
LINE
8
BLACK
6
CONTINUOUS
10
81.5053
20
-100.553
11
81.5007
21
-100.549
0
LINE
8
BLACK
6
CONTINUOUS
10
81.5007
20
-100.549
11
81.4967
21
-100.529
0
LINE
8
BLACK
6
CONTINUOUS
10
81.4967
20
-100.529
11
81.4898
21
-100.51
0
LINE
8
BLACK
6
CONTINUOUS
10
81.4898
20
-100.51
11
81.4898
21
-99.8914
0
LINE
8
BLACK
6
CONTINUOUS
10
81.4898
20
-99.8914
11
81.4943
21
-99.8658
0
LINE
8
BLACK
6
CONTINUOUS
10
81.4943
20
-99.8658
11
81.5273
21
-99.8265
0
LINE
8
BLACK
6
CONTINUOUS
10
81.5273
20
-99.8265
11
81.5778
21
-99.8176
0
LINE
8
BLACK
6
CONTINUOUS
10
81.5778
20
-99.8176
11
81.6223
21
-99.8432
0
LINE
8
BLACK
6
CONTINUOUS
10
81.6223
20
-99.8432
11
81.6398
21
-99.8914
0
LINE
8
BLACK
6
CONTINUOUS
10
81.6398
20
-99.8914
11
81.6398
21
-100.345
0
LINE
8
BLACK
6
CONTINUOUS
10
81.6398
20
-100.345
11
81.8964
21
-100.121
0
LINE
8
BLACK
6
CONTINUOUS
10
81.8964
20
-100.121
11
81.906
21
-100.115
0
LINE
8
BLACK
6
CONTINUOUS
10
81.906
20
-100.115
11
81.9083
21
-100.112
0
LINE
8
BLACK
6
CONTINUOUS
10
81.9083
20
-100.112
11
81.9113
21
-100.112
0
LINE
8
BLACK
6
CONTINUOUS
10
81.9113
20
-100.112
11
81.9187
21
-100.107
0
LINE
8
BLACK
6
CONTINUOUS
10
81.9187
20
-100.107
11
81.9202
21
-100.107
0
LINE
8
BLACK
6
CONTINUOUS
10
81.9202
20
-100.107
11
81.9202
21
-99.9848
0
LINE
8
BLACK
6
CONTINUOUS
10
81.9202
20
-99.9848
11
81.9248
21
-99.9592
0
LINE
8
BLACK
6
CONTINUOUS
10
81.9248
20
-99.9592
11
81.9275
21
-99.9559
0
LINE
8
BLACK
6
CONTINUOUS
10
81.9275
20
-99.9559
11
81.928
21
-99.9516
0
LINE
8
BLACK
6
CONTINUOUS
10
81.928
20
-99.9516
11
81.9437
21
-99.9365
0
LINE
8
BLACK
6
CONTINUOUS
10
81.9437
20
-99.9365
11
81.9577
21
-99.9199
0
LINE
8
BLACK
6
CONTINUOUS
10
81.9577
20
-99.9199
11
81.962
21
-99.9191
0
LINE
8
BLACK
6
CONTINUOUS
10
81.962
20
-99.9191
11
81.9651
21
-99.9161
0
LINE
8
BLACK
6
CONTINUOUS
10
81.9651
20
-99.9161
11
81.9868
21
-99.9147
0
LINE
8
BLACK
6
CONTINUOUS
10
81.9868
20
-99.9147
11
82.0083
21
-99.911
0
LINE
8
BLACK
6
CONTINUOUS
10
82.0083
20
-99.911
11
82.012
21
-99.9131
0
LINE
8
BLACK
6
CONTINUOUS
10
82.012
20
-99.9131
11
82.0163
21
-99.9128
0
LINE
8
BLACK
6
CONTINUOUS
10
82.0163
20
-99.9128
11
82.0338
21
-99.9257
0
LINE
8
BLACK
6
CONTINUOUS
10
82.0338
20
-99.9257
11
82.0527
21
-99.9366
0
LINE
8
BLACK
6
CONTINUOUS
10
82.0527
20
-99.9366
11
82.0542
21
-99.9407
0
LINE
8
BLACK
6
CONTINUOUS
10
82.0542
20
-99.9407
11
82.0576
21
-99.9432
0
LINE
8
BLACK
6
CONTINUOUS
10
82.0576
20
-99.9432
11
82.1488
21
-100.08
0
LINE
8
BLACK
6
CONTINUOUS
10
82.1488
20
-100.08
11
82.2301
21
-100.161
0
LINE
8
BLACK
6
CONTINUOUS
10
82.2301
20
-100.161
11
82.3145
21
-100.203
0
LINE
8
BLACK
6
CONTINUOUS
10
82.3145
20
-100.203
11
82.3354
21
-100.219
0
LINE
8
BLACK
6
CONTINUOUS
10
82.3354
20
-100.219
11
82.3558
21
-100.266
0
LINE
8
BLACK
6
CONTINUOUS
10
82.3558
20
-100.266
11
82.3412
21
-100.315
0
LINE
8
BLACK
6
CONTINUOUS
10
82.3412
20
-100.315
11
82.2984
21
-100.343
0
LINE
8
BLACK
6
CONTINUOUS
10
82.2984
20
-100.343
11
82.2474
21
-100.338
0
LINE
8
BLACK
6
CONTINUOUS
10
82.2474
20
-100.338
11
82.1522
21
-100.29
0
LINE
8
BLACK
6
CONTINUOUS
10
82.1522
20
-100.29
11
82.1342
21
-100.277
0
LINE
8
BLACK
6
CONTINUOUS
10
82.1342
20
-100.277
11
82.1327
21
-100.276
0
LINE
8
BLACK
6
CONTINUOUS
10
82.1327
20
-100.276
11
82.0702
21
-100.214
0
LINE
8
BLACK
6
CONTINUOUS
10
82.0702
20
-100.214
11
82.0702
21
-100.386
0
LINE
8
BLACK
6
CONTINUOUS
10
82.0702
20
-100.386
11
82.0854
21
-100.401
0
LINE
8
BLACK
6
CONTINUOUS
10
82.0854
20
-100.401
11
82.154
21
-100.435
0
LINE
8
BLACK
6
CONTINUOUS
10
82.154
20
-100.435
11
82.3566
21
-100.435
0
LINE
8
BLACK
6
CONTINUOUS
10
82.3566
20
-100.435
11
82.4252
21
-100.401
0
LINE
8
BLACK
6
CONTINUOUS
10
82.4252
20
-100.401
11
82.4556
21
-100.371
0
LINE
8
BLACK
6
CONTINUOUS
10
82.4556
20
-100.371
11
82.4898
21
-100.302
0
LINE
8
BLACK
6
CONTINUOUS
10
82.4898
20
-100.302
11
82.4898
21
-100.052
0
LINE
8
BLACK
6
CONTINUOUS
10
82.4898
20
-100.052
11
82.4556
21
-99.9835
0
LINE
8
BLACK
6
CONTINUOUS
10
82.4556
20
-99.9835
11
82.4165
21
-99.9445
0
LINE
8
BLACK
6
CONTINUOUS
10
82.4165
20
-99.9445
11
82.4016
21
-99.9231
0
LINE
8
BLACK
6
CONTINUOUS
10
82.4016
20
-99.9231
11
82.3971
21
-99.872
0
LINE
8
BLACK
6
CONTINUOUS
10
82.3971
20
-99.872
11
82.4266
21
-99.83
0
LINE
8
BLACK
6
CONTINUOUS
10
82.4266
20
-99.83
11
82.4761
21
-99.8167
0
LINE
8
BLACK
6
CONTINUOUS
10
82.4761
20
-99.8167
11
82.5226
21
-99.8384
0
LINE
8
BLACK
6
CONTINUOUS
10
82.6223
20
-101.621
11
82.6398
21
-101.67
0
LINE
8
BLACK
6
CONTINUOUS
10
82.6398
20
-101.67
11
82.6398
21
-101.765
0
LINE
8
BLACK
6
CONTINUOUS
10
82.6398
20
-101.765
11
82.6359
21
-101.787
0
LINE
8
BLACK
6
CONTINUOUS
10
82.6359
20
-101.787
11
82.636
21
-101.788
0
LINE
8
BLACK
6
CONTINUOUS
10
82.636
20
-101.788
11
82.5884
21
-101.931
0
LINE
8
BLACK
6
CONTINUOUS
10
82.5884
20
-101.931
11
82.5759
21
-101.954
0
LINE
8
BLACK
6
CONTINUOUS
10
82.5759
20
-101.954
11
82.5721
21
-101.957
0
LINE
8
BLACK
6
CONTINUOUS
10
82.5721
20
-101.957
11
82.5702
21
-101.961
0
LINE
8
BLACK
6
CONTINUOUS
10
82.5702
20
-101.961
11
82.475
21
-102.056
0
LINE
8
BLACK
6
CONTINUOUS
10
82.475
20
-102.056
11
82.4537
21
-102.071
0
LINE
8
BLACK
6
CONTINUOUS
10
82.4537
20
-102.071
11
82.4492
21
-102.071
0
LINE
8
BLACK
6
CONTINUOUS
10
82.4492
20
-102.071
11
82.4457
21
-102.074
0
LINE
8
BLACK
6
CONTINUOUS
10
82.4457
20
-102.074
11
82.3028
21
-102.122
0
LINE
8
BLACK
6
CONTINUOUS
10
82.3028
20
-102.122
11
82.2806
21
-102.125
0
LINE
8
BLACK
6
CONTINUOUS
10
82.2806
20
-102.125
11
82.2791
21
-102.125
0
LINE
8
BLACK
6
CONTINUOUS
10
82.2791
20
-102.125
11
81.5648
21
-102.125
0
LINE
8
BLACK
6
CONTINUOUS
10
81.5648
20
-102.125
11
81.5392
21
-102.121
0
LINE
8
BLACK
6
CONTINUOUS
10
81.5392
20
-102.121
11
81.4999
21
-102.088
0
LINE
8
BLACK
6
CONTINUOUS
10
81.4999
20
-102.088
11
81.491
21
-102.037
0
LINE
8
BLACK
6
CONTINUOUS
10
81.491
20
-102.037
11
81.5166
21
-101.993
0
LINE
8
BLACK
6
CONTINUOUS
10
81.5166
20
-101.993
11
81.5648
21
-101.975
0
LINE
8
BLACK
6
CONTINUOUS
10
81.5648
20
-101.975
11
82.2669
21
-101.975
0
LINE
8
BLACK
6
CONTINUOUS
10
82.2669
20
-101.975
11
82.3814
21
-101.937
0
LINE
8
BLACK
6
CONTINUOUS
10
82.3814
20
-101.937
11
82.4516
21
-101.867
0
LINE
8
BLACK
6
CONTINUOUS
10
82.4516
20
-101.867
11
82.4898
21
-101.753
0
LINE
8
BLACK
6
CONTINUOUS
10
82.4898
20
-101.753
11
82.4898
21
-101.67
0
LINE
8
BLACK
6
CONTINUOUS
10
82.4898
20
-101.67
11
82.4943
21
-101.644
0
LINE
8
BLACK
6
CONTINUOUS
10
82.4943
20
-101.644
11
82.5273
21
-101.605
0
LINE
8
BLACK
6
CONTINUOUS
10
82.5273
20
-101.605
11
82.5778
21
-101.596
0
LINE
8
BLACK
6
CONTINUOUS
10
82.5778
20
-101.596
11
82.6223
21
-101.621
0
LINE
8
BLACK
6
CONTINUOUS
10
81.0596
20
-99.9131
11
81.0639
21
-99.9128
0
LINE
8
BLACK
6
CONTINUOUS
10
81.0639
20
-99.9128
11
81.0815
21
-99.9257
0
LINE
8
BLACK
6
CONTINUOUS
10
81.0815
20
-99.9257
11
81.1003
21
-99.9366
0
LINE
8
BLACK
6
CONTINUOUS
10
81.1003
20
-99.9366
11
81.1018
21
-99.9407
0
LINE
8
BLACK
6
CONTINUOUS
10
81.1018
20
-99.9407
11
81.1053
21
-99.9432
0
LINE
8
BLACK
6
CONTINUOUS
10
81.1053
20
-99.9432
11
81.1964
21
-100.08
0
LINE
8
BLACK
6
CONTINUOUS
10
81.1964
20
-100.08
11
81.2778
21
-100.161
0
LINE
8
BLACK
6
CONTINUOUS
10
81.2778
20
-100.161
11
81.3621
21
-100.203
0
LINE
8
BLACK
6
CONTINUOUS
10
81.3621
20
-100.203
11
81.383
21
-100.219
0
LINE
8
BLACK
6
CONTINUOUS
10
81.383
20
-100.219
11
81.4034
21
-100.266
0
LINE
8
BLACK
6
CONTINUOUS
10
81.4034
20
-100.266
11
81.3888
21
-100.315
0
LINE
8
BLACK
6
CONTINUOUS
10
81.3888
20
-100.315
11
81.346
21
-100.343
0
LINE
8
BLACK
6
CONTINUOUS
10
81.346
20
-100.343
11
81.295
21
-100.338
0
LINE
8
BLACK
6
CONTINUOUS
10
81.295
20
-100.338
11
81.1998
21
-100.29
0
LINE
8
BLACK
6
CONTINUOUS
10
81.1998
20
-100.29
11
81.1818
21
-100.277
0
LINE
8
BLACK
6
CONTINUOUS
10
81.1818
20
-100.277
11
81.1803
21
-100.276
0
LINE
8
BLACK
6
CONTINUOUS
10
81.1803
20
-100.276
11
81.1179
21
-100.214
0
LINE
8
BLACK
6
CONTINUOUS
10
81.1179
20
-100.214
11
81.1179
21
-100.91
0
LINE
8
BLACK
6
CONTINUOUS
10
81.1179
20
-100.91
11
81.3286
21
-100.91
0
LINE
8
BLACK
6
CONTINUOUS
10
81.3286
20
-100.91
11
81.3542
21
-100.914
0
LINE
8
BLACK
6
CONTINUOUS
10
81.3542
20
-100.914
11
81.3935
21
-100.947
0
LINE
8
BLACK
6
CONTINUOUS
10
81.3935
20
-100.947
11
81.4024
21
-100.998
0
LINE
8
BLACK
6
CONTINUOUS
10
81.4024
20
-100.998
11
81.3768
21
-101.042
0
LINE
8
BLACK
6
CONTINUOUS
10
81.3768
20
-101.042
11
81.3286
21
-101.06
0
LINE
8
BLACK
6
CONTINUOUS
10
81.3286
20
-101.06
11
80.7571
21
-101.06
0
LINE
8
BLACK
6
CONTINUOUS
10
80.7571
20
-101.06
11
80.7315
21
-101.055
0
LINE
8
BLACK
6
CONTINUOUS
10
80.7315
20
-101.055
11
80.6922
21
-101.022
0
LINE
8
BLACK
6
CONTINUOUS
10
80.6922
20
-101.022
11
80.6833
21
-100.972
0
LINE
8
BLACK
6
CONTINUOUS
10
80.6833
20
-100.972
11
80.7089
21
-100.927
0
LINE
8
BLACK
6
CONTINUOUS
10
80.7089
20
-100.927
11
80.7571
21
-100.91
0
LINE
8
BLACK
6
CONTINUOUS
10
80.7571
20
-100.91
11
80.9679
21
-100.91
0
LINE
8
BLACK
6
CONTINUOUS
10
80.9679
20
-100.91
11
80.9679
21
-99.9848
0
LINE
8
BLACK
6
CONTINUOUS
10
80.9679
20
-99.9848
11
80.9724
21
-99.9592
0
LINE
8
BLACK
6
CONTINUOUS
10
80.9724
20
-99.9592
11
80.9751
21
-99.9559
0
LINE
8
BLACK
6
CONTINUOUS
10
80.9751
20
-99.9559
11
80.9756
21
-99.9516
0
LINE
8
BLACK
6
CONTINUOUS
10
80.9756
20
-99.9516
11
80.9914
21
-99.9365
0
LINE
8
BLACK
6
CONTINUOUS
10
80.9914
20
-99.9365
11
81.0054
21
-99.9199
0
LINE
8
BLACK
6
CONTINUOUS
10
81.0054
20
-99.9199
11
81.0096
21
-99.9191
0
LINE
8
BLACK
6
CONTINUOUS
10
81.0096
20
-99.9191
11
81.0127
21
-99.9161
0
LINE
8
BLACK
6
CONTINUOUS
10
81.0127
20
-99.9161
11
81.0344
21
-99.9147
0
LINE
8
BLACK
6
CONTINUOUS
10
81.0344
20
-99.9147
11
81.0559
21
-99.911
0
LINE
8
BLACK
6
CONTINUOUS
10
81.0559
20
-99.911
11
81.0596
21
-99.9131
0
LINE
8
BLACK
6
CONTINUOUS
10
84.4824
20
-98.9476
11
84.5
21
-98.99
0
LINE
8
BLACK
6
CONTINUOUS
10
84.5
20
-98.99
11
84.4824
21
-99.0324
0
LINE
8
BLACK
6
CONTINUOUS
10
84.4824
20
-99.0324
11
84.44
21
-99.05
0
LINE
8
BLACK
6
CONTINUOUS
10
84.44
20
-99.05
11
83.17
21
-99.05
0
LINE
8
BLACK
6
CONTINUOUS
10
83.17
20
-99.05
11
83.17
21
-100.32
0
LINE
8
BLACK
6
CONTINUOUS
10
83.17
20
-100.32
11
83.1524
21
-100.362
0
LINE
8
BLACK
6
CONTINUOUS
10
83.1524
20
-100.362
11
83.11
21
-100.38
0
LINE
8
BLACK
6
CONTINUOUS
10
83.11
20
-100.38
11
83.0676
21
-100.362
0
LINE
8
BLACK
6
CONTINUOUS
10
83.0676
20
-100.362
11
83.05
21
-100.32
0
LINE
8
BLACK
6
CONTINUOUS
10
83.05
20
-100.32
11
83.05
21
-98.99
0
LINE
8
BLACK
6
CONTINUOUS
10
83.05
20
-98.99
11
83.0676
21
-98.9476
0
LINE
8
BLACK
6
CONTINUOUS
10
83.0676
20
-98.9476
11
83.11
21
-98.93
0
LINE
8
BLACK
6
CONTINUOUS
10
83.11
20
-98.93
11
84.44
21
-98.93
0
LINE
8
BLACK
6
CONTINUOUS
10
84.44
20
-98.93
11
84.4824
21
-98.9476
0
LINE
8
BLACK
6
CONTINUOUS
10
82.6223
20
-99.0813
11
82.6398
21
-99.1295
0
LINE
8
BLACK
6
CONTINUOUS
10
82.6398
20
-99.1295
11
82.6398
21
-99.2248
0
LINE
8
BLACK
6
CONTINUOUS
10
82.6398
20
-99.2248
11
82.6359
21
-99.2468
0
LINE
8
BLACK
6
CONTINUOUS
10
82.6359
20
-99.2468
11
82.636
21
-99.2485
0
LINE
8
BLACK
6
CONTINUOUS
10
82.636
20
-99.2485
11
82.5884
21
-99.3913
0
LINE
8
BLACK
6
CONTINUOUS
10
82.5884
20
-99.3913
11
82.5759
21
-99.4142
0
LINE
8
BLACK
6
CONTINUOUS
10
82.5759
20
-99.4142
11
82.5721
21
-99.4166
0
LINE
8
BLACK
6
CONTINUOUS
10
82.5721
20
-99.4166
11
82.5702
21
-99.4207
0
LINE
8
BLACK
6
CONTINUOUS
10
82.5702
20
-99.4207
11
82.475
21
-99.5159
0
LINE
8
BLACK
6
CONTINUOUS
10
82.475
20
-99.5159
11
82.4537
21
-99.5308
0
LINE
8
BLACK
6
CONTINUOUS
10
82.4537
20
-99.5308
11
82.4492
21
-99.5312
0
LINE
8
BLACK
6
CONTINUOUS
10
82.4492
20
-99.5312
11
82.4457
21
-99.534
0
LINE
8
BLACK
6
CONTINUOUS
10
82.4457
20
-99.534
11
82.3028
21
-99.5816
0
LINE
8
BLACK
6
CONTINUOUS
10
82.3028
20
-99.5816
11
82.2806
21
-99.5849
0
LINE
8
BLACK
6
CONTINUOUS
10
82.2806
20
-99.5849
11
82.2791
21
-99.5855
0
LINE
8
BLACK
6
CONTINUOUS
10
82.2791
20
-99.5855
11
81.5648
21
-99.5855
0
LINE
8
BLACK
6
CONTINUOUS
10
81.5648
20
-99.5855
11
81.5392
21
-99.581
0
LINE
8
BLACK
6
CONTINUOUS
10
81.5392
20
-99.581
11
81.4999
21
-99.548
0
LINE
8
BLACK
6
CONTINUOUS
10
81.4999
20
-99.548
11
81.491
21
-99.4975
0
LINE
8
BLACK
6
CONTINUOUS
10
81.491
20
-99.4975
11
81.5166
21
-99.453
0
LINE
8
BLACK
6
CONTINUOUS
10
81.5166
20
-99.453
11
81.5648
21
-99.4355
0
LINE
8
BLACK
6
CONTINUOUS
10
81.5648
20
-99.4355
11
82.2669
21
-99.4355
0
LINE
8
BLACK
6
CONTINUOUS
10
82.2669
20
-99.4355
11
82.3814
21
-99.3973
0
LINE
8
BLACK
6
CONTINUOUS
10
82.3814
20
-99.3973
11
82.4516
21
-99.3271
0
LINE
8
BLACK
6
CONTINUOUS
10
82.4516
20
-99.3271
11
82.4898
21
-99.2126
0
LINE
8
BLACK
6
CONTINUOUS
10
82.4898
20
-99.2126
11
82.4898
21
-99.1295
0
LINE
8
BLACK
6
CONTINUOUS
10
82.4898
20
-99.1295
11
82.4943
21
-99.1039
0
LINE
8
BLACK
6
CONTINUOUS
10
82.4943
20
-99.1039
11
82.5273
21
-99.0646
0
LINE
8
BLACK
6
CONTINUOUS
10
82.5273
20
-99.0646
11
82.5778
21
-99.0557
0
LINE
8
BLACK
6
CONTINUOUS
10
82.5778
20
-99.0557
11
82.6223
21
-99.0813
0
LINE
8
BLACK
6
CONTINUOUS
10
132.961
20
-97.7555
11
132.964
21
-97.7552
0
LINE
8
BLACK
6
CONTINUOUS
10
132.964
20
-97.7552
11
132.983
21
-97.7681
0
LINE
8
BLACK
6
CONTINUOUS
10
132.983
20
-97.7681
11
133.002
21
-97.7794
0
LINE
8
BLACK
6
CONTINUOUS
10
133.002
20
-97.7794
11
133.003
21
-97.7826
0
LINE
8
BLACK
6
CONTINUOUS
10
133.003
20
-97.7826
11
133.006
21
-97.7846
0
LINE
8
BLACK
6
CONTINUOUS
10
133.006
20
-97.7846
11
133.012
21
-97.8064
0
LINE
8
BLACK
6
CONTINUOUS
10
133.012
20
-97.8064
11
133.02
21
-97.8276
0
LINE
8
BLACK
6
CONTINUOUS
10
133.02
20
-97.8276
11
133.02
21
-98.4467
0
LINE
8
BLACK
6
CONTINUOUS
10
133.02
20
-98.4467
11
133.015
21
-98.4723
0
LINE
8
BLACK
6
CONTINUOUS
10
133.015
20
-98.4723
11
132.982
21
-98.5116
0
LINE
8
BLACK
6
CONTINUOUS
10
132.982
20
-98.5116
11
132.932
21
-98.5205
0
LINE
8
BLACK
6
CONTINUOUS
10
132.932
20
-98.5205
11
132.887
21
-98.4949
0
LINE
8
BLACK
6
CONTINUOUS
10
132.887
20
-98.4949
11
132.87
21
-98.4467
0
LINE
8
BLACK
6
CONTINUOUS
10
132.87
20
-98.4467
11
132.87
21
-98.0087
0
LINE
8
BLACK
6
CONTINUOUS
10
132.87
20
-98.0087
11
132.426
21
-98.4521
0
LINE
8
BLACK
6
CONTINUOUS
10
132.426
20
-98.4521
11
132.405
21
-98.467
0
LINE
8
BLACK
6
CONTINUOUS
10
132.405
20
-98.467
11
132.401
21
-98.4674
0
LINE
8
BLACK
6
CONTINUOUS
10
132.401
20
-98.4674
11
132.397
21
-98.4702
0
LINE
8
BLACK
6
CONTINUOUS
10
132.397
20
-98.4702
11
132.254
21
-98.5178
0
LINE
8
BLACK
6
CONTINUOUS
10
132.254
20
-98.5178
11
132.232
21
-98.5211
0
LINE
8
BLACK
6
CONTINUOUS
10
132.232
20
-98.5211
11
132.231
21
-98.5217
0
LINE
8
BLACK
6
CONTINUOUS
10
132.231
20
-98.5217
11
132.135
21
-98.5217
0
LINE
8
BLACK
6
CONTINUOUS
10
132.135
20
-98.5217
11
132.11
21
-98.5171
0
LINE
8
BLACK
6
CONTINUOUS
10
132.11
20
-98.5171
11
132.106
21
-98.5143
0
LINE
8
BLACK
6
CONTINUOUS
10
132.106
20
-98.5143
11
132.102
21
-98.5137
0
LINE
8
BLACK
6
CONTINUOUS
10
132.102
20
-98.5137
11
132.007
21
-98.4661
0
LINE
8
BLACK
6
CONTINUOUS
10
132.007
20
-98.4661
11
131.989
21
-98.4528
0
LINE
8
BLACK
6
CONTINUOUS
10
131.989
20
-98.4528
11
131.987
21
-98.4521
0
LINE
8
BLACK
6
CONTINUOUS
10
131.987
20
-98.4521
11
131.939
21
-98.4045
0
LINE
8
BLACK
6
CONTINUOUS
10
131.939
20
-98.4045
11
131.927
21
-98.3861
0
LINE
8
BLACK
6
CONTINUOUS
10
131.927
20
-98.3861
11
131.925
21
-98.385
0
LINE
8
BLACK
6
CONTINUOUS
10
131.925
20
-98.385
11
131.878
21
-98.2897
0
LINE
8
BLACK
6
CONTINUOUS
10
131.878
20
-98.2897
11
131.87
21
-98.2648
0
LINE
8
BLACK
6
CONTINUOUS
10
131.87
20
-98.2648
11
131.871
21
-98.2604
0
LINE
8
BLACK
6
CONTINUOUS
10
131.871
20
-98.2604
11
131.87
21
-98.2562
0
LINE
8
BLACK
6
CONTINUOUS
10
131.87
20
-98.2562
11
131.87
21
-98.0181
0
LINE
8
BLACK
6
CONTINUOUS
10
131.87
20
-98.0181
11
131.874
21
-97.9924
0
LINE
8
BLACK
6
CONTINUOUS
10
131.874
20
-97.9924
11
131.877
21
-97.989
0
LINE
8
BLACK
6
CONTINUOUS
10
131.877
20
-97.989
11
131.878
21
-97.9846
0
LINE
8
BLACK
6
CONTINUOUS
10
131.878
20
-97.9846
11
131.925
21
-97.8893
0
LINE
8
BLACK
6
CONTINUOUS
10
131.925
20
-97.8893
11
131.939
21
-97.8713
0
LINE
8
BLACK
6
CONTINUOUS
10
131.939
20
-97.8713
11
131.939
21
-97.8698
0
LINE
8
BLACK
6
CONTINUOUS
10
131.939
20
-97.8698
11
131.987
21
-97.8222
0
LINE
8
BLACK
6
CONTINUOUS
10
131.987
20
-97.8222
11
132.008
21
-97.8073
0
LINE
8
BLACK
6
CONTINUOUS
10
132.008
20
-97.8073
11
132.059
21
-97.8028
0
LINE
8
BLACK
6
CONTINUOUS
10
132.059
20
-97.8028
11
132.101
21
-97.8322
0
LINE
8
BLACK
6
CONTINUOUS
10
132.101
20
-97.8322
11
132.115
21
-97.8818
0
LINE
8
BLACK
6
CONTINUOUS
10
132.115
20
-97.8818
11
132.093
21
-97.9283
0
LINE
8
BLACK
6
CONTINUOUS
10
132.093
20
-97.9283
11
132.054
21
-97.9673
0
LINE
8
BLACK
6
CONTINUOUS
10
132.054
20
-97.9673
11
132.02
21
-98.0358
0
LINE
8
BLACK
6
CONTINUOUS
10
132.02
20
-98.0358
11
132.02
21
-98.2385
0
LINE
8
BLACK
6
CONTINUOUS
10
132.02
20
-98.2385
11
132.054
21
-98.307
0
LINE
8
BLACK
6
CONTINUOUS
10
132.054
20
-98.307
11
132.084
21
-98.3374
0
LINE
8
BLACK
6
CONTINUOUS
10
132.084
20
-98.3374
11
132.153
21
-98.3717
0
LINE
8
BLACK
6
CONTINUOUS
10
132.153
20
-98.3717
11
132.218
21
-98.3717
0
LINE
8
BLACK
6
CONTINUOUS
10
132.218
20
-98.3717
11
132.333
21
-98.3335
0
LINE
8
BLACK
6
CONTINUOUS
10
132.333
20
-98.3335
11
132.892
21
-97.7746
0
LINE
8
BLACK
6
CONTINUOUS
10
132.892
20
-97.7746
11
132.905
21
-97.7652
0
LINE
8
BLACK
6
CONTINUOUS
10
132.905
20
-97.7652
11
132.907
21
-97.7627
0
LINE
8
BLACK
6
CONTINUOUS
10
132.907
20
-97.7627
11
132.909
21
-97.7623
0
LINE
8
BLACK
6
CONTINUOUS
10
132.909
20
-97.7623
11
132.913
21
-97.7596
0
LINE
8
BLACK
6
CONTINUOUS
10
132.913
20
-97.7596
11
132.936
21
-97.7577
0
LINE
8
BLACK
6
CONTINUOUS
10
132.936
20
-97.7577
11
132.958
21
-97.7538
0
LINE
8
BLACK
6
CONTINUOUS
10
132.958
20
-97.7538
11
132.961
21
-97.7555
0
LINE
8
BLACK
6
CONTINUOUS
10
133.002
20
-97.0175
11
133.02
21
-97.0657
0
LINE
8
BLACK
6
CONTINUOUS
10
133.02
20
-97.0657
11
133.02
21
-97.161
0
LINE
8
BLACK
6
CONTINUOUS
10
133.02
20
-97.161
11
133.016
21
-97.183
0
LINE
8
BLACK
6
CONTINUOUS
10
133.016
20
-97.183
11
133.016
21
-97.1847
0
LINE
8
BLACK
6
CONTINUOUS
10
133.016
20
-97.1847
11
132.968
21
-97.3275
0
LINE
8
BLACK
6
CONTINUOUS
10
132.968
20
-97.3275
11
132.956
21
-97.3504
0
LINE
8
BLACK
6
CONTINUOUS
10
132.956
20
-97.3504
11
132.952
21
-97.3528
0
LINE
8
BLACK
6
CONTINUOUS
10
132.952
20
-97.3528
11
132.95
21
-97.3568
0
LINE
8
BLACK
6
CONTINUOUS
10
132.95
20
-97.3568
11
132.855
21
-97.4521
0
LINE
8
BLACK
6
CONTINUOUS
10
132.855
20
-97.4521
11
132.834
21
-97.467
0
LINE
8
BLACK
6
CONTINUOUS
10
132.834
20
-97.467
11
132.829
21
-97.4674
0
LINE
8
BLACK
6
CONTINUOUS
10
132.829
20
-97.4674
11
132.826
21
-97.4702
0
LINE
8
BLACK
6
CONTINUOUS
10
132.826
20
-97.4702
11
132.683
21
-97.5178
0
LINE
8
BLACK
6
CONTINUOUS
10
132.683
20
-97.5178
11
132.661
21
-97.5211
0
LINE
8
BLACK
6
CONTINUOUS
10
132.661
20
-97.5211
11
132.659
21
-97.5217
0
LINE
8
BLACK
6
CONTINUOUS
10
132.659
20
-97.5217
11
131.945
21
-97.5217
0
LINE
8
BLACK
6
CONTINUOUS
10
131.945
20
-97.5217
11
131.919
21
-97.5171
0
LINE
8
BLACK
6
CONTINUOUS
10
131.919
20
-97.5171
11
131.88
21
-97.4842
0
LINE
8
BLACK
6
CONTINUOUS
10
131.88
20
-97.4842
11
131.871
21
-97.4336
0
LINE
8
BLACK
6
CONTINUOUS
10
131.871
20
-97.4336
11
131.897
21
-97.3892
0
LINE
8
BLACK
6
CONTINUOUS
10
131.897
20
-97.3892
11
131.945
21
-97.3717
0
LINE
8
BLACK
6
CONTINUOUS
10
131.945
20
-97.3717
11
132.647
21
-97.3717
0
LINE
8
BLACK
6
CONTINUOUS
10
132.647
20
-97.3717
11
132.761
21
-97.3335
0
LINE
8
BLACK
6
CONTINUOUS
10
132.761
20
-97.3335
11
132.832
21
-97.2633
0
LINE
8
BLACK
6
CONTINUOUS
10
132.832
20
-97.2633
11
132.87
21
-97.1488
0
LINE
8
BLACK
6
CONTINUOUS
10
132.87
20
-97.1488
11
132.87
21
-97.0657
0
LINE
8
BLACK
6
CONTINUOUS
10
132.87
20
-97.0657
11
132.874
21
-97.0401
0
LINE
8
BLACK
6
CONTINUOUS
10
132.874
20
-97.0401
11
132.907
21
-97.0008
0
LINE
8
BLACK
6
CONTINUOUS
10
132.907
20
-97.0008
11
132.958
21
-96.9919
0
LINE
8
BLACK
6
CONTINUOUS
10
132.958
20
-96.9919
11
133.002
21
-97.0175
0
LINE
8
BLACK
6
CONTINUOUS
10
132.072
20
-94.2576
11
132.09
21
-94.3
0
LINE
8
BLACK
6
CONTINUOUS
10
132.09
20
-94.3
11
132.09
21
-95.57
0
LINE
8
BLACK
6
CONTINUOUS
10
132.09
20
-95.57
11
132.072
21
-95.6124
0
LINE
8
BLACK
6
CONTINUOUS
10
132.072
20
-95.6124
11
132.03
21
-95.63
0
LINE
8
BLACK
6
CONTINUOUS
10
132.03
20
-95.63
11
130.76
21
-95.63
0
LINE
8
BLACK
6
CONTINUOUS
10
130.76
20
-95.63
11
130.718
21
-95.6124
0
LINE
8
BLACK
6
CONTINUOUS
10
130.718
20
-95.6124
11
130.7
21
-95.57
0
LINE
8
BLACK
6
CONTINUOUS
10
130.7
20
-95.57
11
130.718
21
-95.5276
0
LINE
8
BLACK
6
CONTINUOUS
10
130.718
20
-95.5276
11
130.76
21
-95.51
0
LINE
8
BLACK
6
CONTINUOUS
10
130.76
20
-95.51
11
131.97
21
-95.51
0
LINE
8
BLACK
6
CONTINUOUS
10
131.97
20
-95.51
11
131.97
21
-94.3
0
LINE
8
BLACK
6
CONTINUOUS
10
131.97
20
-94.3
11
131.988
21
-94.2576
0
LINE
8
BLACK
6
CONTINUOUS
10
131.988
20
-94.2576
11
132.03
21
-94.24
0
LINE
8
BLACK
6
CONTINUOUS
10
132.03
20
-94.24
11
132.072
21
-94.2576
0
LINE
8
BLACK
6
CONTINUOUS
10
108.28
20
-84.14
11
108.322
21
-84.1576
0
LINE
8
BLACK
6
CONTINUOUS
10
108.322
20
-84.1576
11
108.34
21
-84.2
0
LINE
8
BLACK
6
CONTINUOUS
10
108.34
20
-84.2
11
108.34
21
-90.14
0
LINE
8
BLACK
6
CONTINUOUS
10
108.34
20
-90.14
11
110
21
-90.14
0
LINE
8
BLACK
6
CONTINUOUS
10
110
20
-90.14
11
110
21
-84.2
0
LINE
8
BLACK
6
CONTINUOUS
10
110
20
-84.2
11
110.018
21
-84.1576
0
LINE
8
BLACK
6
CONTINUOUS
10
110.018
20
-84.1576
11
110.06
21
-84.14
0
LINE
8
BLACK
6
CONTINUOUS
10
110.06
20
-84.14
11
110.82
21
-84.14
0
LINE
8
BLACK
6
CONTINUOUS
10
110.82
20
-84.14
11
110.862
21
-84.1576
0
LINE
8
BLACK
6
CONTINUOUS
10
110.862
20
-84.1576
11
110.88
21
-84.2
0
LINE
8
BLACK
6
CONTINUOUS
10
110.88
20
-84.2
11
110.88
21
-90.14
0
LINE
8
BLACK
6
CONTINUOUS
10
110.88
20
-90.14
11
112.54
21
-90.14
0
LINE
8
BLACK
6
CONTINUOUS
10
112.54
20
-90.14
11
112.54
21
-84.2
0
LINE
8
BLACK
6
CONTINUOUS
10
112.54
20
-84.2
11
112.558
21
-84.1576
0
LINE
8
BLACK
6
CONTINUOUS
10
112.558
20
-84.1576
11
112.6
21
-84.14
0
LINE
8
BLACK
6
CONTINUOUS
10
112.6
20
-84.14
11
113.36
21
-84.14
0
LINE
8
BLACK
6
CONTINUOUS
10
113.36
20
-84.14
11
113.402
21
-84.1576
0
LINE
8
BLACK
6
CONTINUOUS
10
113.402
20
-84.1576
11
113.42
21
-84.2
0
LINE
8
BLACK
6
CONTINUOUS
10
113.42
20
-84.2
11
113.42
21
-90.14
0
LINE
8
BLACK
6
CONTINUOUS
10
113.42
20
-90.14
11
115.08
21
-90.14
0
LINE
8
BLACK
6
CONTINUOUS
10
115.08
20
-90.14
11
115.08
21
-84.2
0
LINE
8
BLACK
6
CONTINUOUS
10
115.08
20
-84.2
11
115.098
21
-84.1576
0
LINE
8
BLACK
6
CONTINUOUS
10
115.098
20
-84.1576
11
115.14
21
-84.14
0
LINE
8
BLACK
6
CONTINUOUS
10
115.14
20
-84.14
11
115.9
21
-84.14
0
LINE
8
BLACK
6
CONTINUOUS
10
115.9
20
-84.14
11
115.942
21
-84.1576
0
LINE
8
BLACK
6
CONTINUOUS
10
115.942
20
-84.1576
11
115.96
21
-84.2
0
LINE
8
BLACK
6
CONTINUOUS
10
115.96
20
-84.2
11
115.96
21
-90.14
0
LINE
8
BLACK
6
CONTINUOUS
10
115.96
20
-90.14
11
117.62
21
-90.14
0
LINE
8
BLACK
6
CONTINUOUS
10
117.62
20
-90.14
11
117.62
21
-84.2
0
LINE
8
BLACK
6
CONTINUOUS
10
117.62
20
-84.2
11
117.638
21
-84.1576
0
LINE
8
BLACK
6
CONTINUOUS
10
117.638
20
-84.1576
11
117.68
21
-84.14
0
LINE
8
BLACK
6
CONTINUOUS
10
117.68
20
-84.14
11
118.44
21
-84.14
0
LINE
8
BLACK
6
CONTINUOUS
10
118.44
20
-84.14
11
118.482
21
-84.1576
0
LINE
8
BLACK
6
CONTINUOUS
10
118.482
20
-84.1576
11
118.5
21
-84.2
0
LINE
8
BLACK
6
CONTINUOUS
10
118.5
20
-84.2
11
118.5
21
-90.14
0
LINE
8
BLACK
6
CONTINUOUS
10
118.5
20
-90.14
11
120.16
21
-90.14
0
LINE
8
BLACK
6
CONTINUOUS
10
120.16
20
-90.14
11
120.16
21
-84.2
0
LINE
8
BLACK
6
CONTINUOUS
10
120.16
20
-84.2
11
120.178
21
-84.1576
0
LINE
8
BLACK
6
CONTINUOUS
10
120.178
20
-84.1576
11
120.22
21
-84.14
0
LINE
8
BLACK
6
CONTINUOUS
10
120.22
20
-84.14
11
120.98
21
-84.14
0
LINE
8
BLACK
6
CONTINUOUS
10
120.98
20
-84.14
11
121.022
21
-84.1576
0
LINE
8
BLACK
6
CONTINUOUS
10
121.022
20
-84.1576
11
121.04
21
-84.2
0
LINE
8
BLACK
6
CONTINUOUS
10
121.04
20
-84.2
11
121.04
21
-90.14
0
LINE
8
BLACK
6
CONTINUOUS
10
121.04
20
-90.14
11
122.7
21
-90.14
0
LINE
8
BLACK
6
CONTINUOUS
10
122.7
20
-90.14
11
122.7
21
-84.2
0
LINE
8
BLACK
6
CONTINUOUS
10
122.7
20
-84.2
11
122.718
21
-84.1576
0
LINE
8
BLACK
6
CONTINUOUS
10
122.718
20
-84.1576
11
122.76
21
-84.14
0
LINE
8
BLACK
6
CONTINUOUS
10
122.76
20
-84.14
11
123.52
21
-84.14
0
LINE
8
BLACK
6
CONTINUOUS
10
123.52
20
-84.14
11
123.562
21
-84.1576
0
LINE
8
BLACK
6
CONTINUOUS
10
123.562
20
-84.1576
11
123.58
21
-84.2
0
LINE
8
BLACK
6
CONTINUOUS
10
123.58
20
-84.2
11
123.58
21
-90.14
0
LINE
8
BLACK
6
CONTINUOUS
10
123.58
20
-90.14
11
125.24
21
-90.14
0
LINE
8
BLACK
6
CONTINUOUS
10
125.24
20
-90.14
11
125.24
21
-84.2
0
LINE
8
BLACK
6
CONTINUOUS
10
125.24
20
-84.2
11
125.258
21
-84.1576
0
LINE
8
BLACK
6
CONTINUOUS
10
125.258
20
-84.1576
11
125.3
21
-84.14
0
LINE
8
BLACK
6
CONTINUOUS
10
125.3
20
-84.14
11
126.06
21
-84.14
0
LINE
8
BLACK
6
CONTINUOUS
10
126.06
20
-84.14
11
126.102
21
-84.1576
0
LINE
8
BLACK
6
CONTINUOUS
10
126.102
20
-84.1576
11
126.12
21
-84.2
0
LINE
8
BLACK
6
CONTINUOUS
10
126.12
20
-84.2
11
126.12
21
-90.14
0
LINE
8
BLACK
6
CONTINUOUS
10
126.12
20
-90.14
11
127.78
21
-90.14
0
LINE
8
BLACK
6
CONTINUOUS
10
127.78
20
-90.14
11
127.78
21
-84.2
0
LINE
8
BLACK
6
CONTINUOUS
10
127.78
20
-84.2
11
127.798
21
-84.1576
0
LINE
8
BLACK
6
CONTINUOUS
10
127.798
20
-84.1576
11
127.84
21
-84.14
0
LINE
8
BLACK
6
CONTINUOUS
10
127.84
20
-84.14
11
128.6
21
-84.14
0
LINE
8
BLACK
6
CONTINUOUS
10
128.6
20
-84.14
11
128.642
21
-84.1576
0
LINE
8
BLACK
6
CONTINUOUS
10
128.642
20
-84.1576
11
128.66
21
-84.2
0
LINE
8
BLACK
6
CONTINUOUS
10
128.66
20
-84.2
11
128.66
21
-90.14
0
LINE
8
BLACK
6
CONTINUOUS
10
128.66
20
-90.14
11
130.32
21
-90.14
0
LINE
8
BLACK
6
CONTINUOUS
10
130.32
20
-90.14
11
130.32
21
-84.2
0
LINE
8
BLACK
6
CONTINUOUS
10
130.32
20
-84.2
11
130.338
21
-84.1576
0
LINE
8
BLACK
6
CONTINUOUS
10
130.338
20
-84.1576
11
130.38
21
-84.14
0
LINE
8
BLACK
6
CONTINUOUS
10
130.38
20
-84.14
11
131.14
21
-84.14
0
LINE
8
BLACK
6
CONTINUOUS
10
131.14
20
-84.14
11
131.182
21
-84.1576
0
LINE
8
BLACK
6
CONTINUOUS
10
131.182
20
-84.1576
11
131.2
21
-84.2
0
LINE
8
BLACK
6
CONTINUOUS
10
131.2
20
-84.2
11
131.2
21
-90.14
0
LINE
8
BLACK
6
CONTINUOUS
10
131.2
20
-90.14
11
132.09
21
-90.14
0
LINE
8
BLACK
6
CONTINUOUS
10
132.09
20
-90.14
11
132.132
21
-90.1576
0
LINE
8
BLACK
6
CONTINUOUS
10
132.132
20
-90.1576
11
132.15
21
-90.2
0
LINE
8
BLACK
6
CONTINUOUS
10
132.15
20
-90.2
11
132.15
21
-92.86
0
LINE
8
BLACK
6
CONTINUOUS
10
132.15
20
-92.86
11
132.132
21
-92.9024
0
LINE
8
BLACK
6
CONTINUOUS
10
132.132
20
-92.9024
11
132.09
21
-92.92
0
LINE
8
BLACK
6
CONTINUOUS
10
132.09
20
-92.92
11
131.2
21
-92.92
0
LINE
8
BLACK
6
CONTINUOUS
10
131.2
20
-92.92
11
131.2
21
-93.19
0
LINE
8
BLACK
6
CONTINUOUS
10
131.2
20
-93.19
11
131.182
21
-93.2324
0
LINE
8
BLACK
6
CONTINUOUS
10
131.182
20
-93.2324
11
131.14
21
-93.25
0
LINE
8
BLACK
6
CONTINUOUS
10
131.14
20
-93.25
11
131.098
21
-93.2324
0
LINE
8
BLACK
6
CONTINUOUS
10
131.098
20
-93.2324
11
131.08
21
-93.19
0
LINE
8
BLACK
6
CONTINUOUS
10
131.08
20
-93.19
11
131.08
21
-92.92
0
LINE
8
BLACK
6
CONTINUOUS
10
131.08
20
-92.92
11
130.44
21
-92.92
0
LINE
8
BLACK
6
CONTINUOUS
10
130.44
20
-92.92
11
130.44
21
-93.19
0
LINE
8
BLACK
6
CONTINUOUS
10
130.44
20
-93.19
11
130.422
21
-93.2324
0
LINE
8
BLACK
6
CONTINUOUS
10
130.422
20
-93.2324
11
130.38
21
-93.25
0
LINE
8
BLACK
6
CONTINUOUS
10
130.38
20
-93.25
11
130.338
21
-93.2324
0
LINE
8
BLACK
6
CONTINUOUS
10
130.338
20
-93.2324
11
130.32
21
-93.19
0
LINE
8
BLACK
6
CONTINUOUS
10
130.32
20
-93.19
11
130.32
21
-92.92
0
LINE
8
BLACK
6
CONTINUOUS
10
130.32
20
-92.92
11
129.49
21
-92.92
0
LINE
8
BLACK
6
CONTINUOUS
10
129.49
20
-92.92
11
128.66
21
-92.92
0
LINE
8
BLACK
6
CONTINUOUS
10
128.66
20
-92.92
11
128.66
21
-93.2571
0
LINE
8
BLACK
6
CONTINUOUS
10
128.66
20
-93.2571
11
128.642
21
-93.2995
0
LINE
8
BLACK
6
CONTINUOUS
10
128.642
20
-93.2995
11
128.6
21
-93.3171
0
LINE
8
BLACK
6
CONTINUOUS
10
128.6
20
-93.3171
11
128.558
21
-93.2995
0
LINE
8
BLACK
6
CONTINUOUS
10
128.558
20
-93.2995
11
128.54
21
-93.2571
0
LINE
8
BLACK
6
CONTINUOUS
10
128.54
20
-93.2571
11
128.54
21
-92.92
0
LINE
8
BLACK
6
CONTINUOUS
10
128.54
20
-92.92
11
127.9
21
-92.92
0
LINE
8
BLACK
6
CONTINUOUS
10
127.9
20
-92.92
11
127.9
21
-93.2571
0
LINE
8
BLACK
6
CONTINUOUS
10
127.9
20
-93.2571
11
127.882
21
-93.2995
0
LINE
8
BLACK
6
CONTINUOUS
10
127.882
20
-93.2995
11
127.84
21
-93.3171
0
LINE
8
BLACK
6
CONTINUOUS
10
127.84
20
-93.3171
11
127.798
21
-93.2995
0
LINE
8
BLACK
6
CONTINUOUS
10
127.798
20
-93.2995
11
127.78
21
-93.2571
0
LINE
8
BLACK
6
CONTINUOUS
10
127.78
20
-93.2571
11
127.78
21
-92.92
0
LINE
8
BLACK
6
CONTINUOUS
10
127.78
20
-92.92
11
126.95
21
-92.92
0
LINE
8
BLACK
6
CONTINUOUS
10
126.95
20
-92.92
11
126.12
21
-92.92
0
LINE
8
BLACK
6
CONTINUOUS
10
126.12
20
-92.92
11
126.12
21
-93.2571
0
LINE
8
BLACK
6
CONTINUOUS
10
126.12
20
-93.2571
11
126.102
21
-93.2995
0
LINE
8
BLACK
6
CONTINUOUS
10
126.102
20
-93.2995
11
126.06
21
-93.3171
0
LINE
8
BLACK
6
CONTINUOUS
10
126.06
20
-93.3171
11
126.018
21
-93.2995
0
LINE
8
BLACK
6
CONTINUOUS
10
126.018
20
-93.2995
11
126
21
-93.2571
0
LINE
8
BLACK
6
CONTINUOUS
10
126
20
-93.2571
11
126
21
-92.92
0
LINE
8
BLACK
6
CONTINUOUS
10
126
20
-92.92
11
125.36
21
-92.92
0
LINE
8
BLACK
6
CONTINUOUS
10
125.36
20
-92.92
11
125.36
21
-93.2571
0
LINE
8
BLACK
6
CONTINUOUS
10
125.36
20
-93.2571
11
125.342
21
-93.2995
0
LINE
8
BLACK
6
CONTINUOUS
10
125.342
20
-93.2995
11
125.3
21
-93.3171
0
LINE
8
BLACK
6
CONTINUOUS
10
125.3
20
-93.3171
11
125.258
21
-93.2995
0
LINE
8
BLACK
6
CONTINUOUS
10
125.258
20
-93.2995
11
125.24
21
-93.2571
0
LINE
8
BLACK
6
CONTINUOUS
10
125.24
20
-93.2571
11
125.24
21
-92.92
0
LINE
8
BLACK
6
CONTINUOUS
10
125.24
20
-92.92
11
124.41
21
-92.92
0
LINE
8
BLACK
6
CONTINUOUS
10
124.41
20
-92.92
11
123.58
21
-92.92
0
LINE
8
BLACK
6
CONTINUOUS
10
123.58
20
-92.92
11
123.58
21
-93.2571
0
LINE
8
BLACK
6
CONTINUOUS
10
123.58
20
-93.2571
11
123.562
21
-93.2995
0
LINE
8
BLACK
6
CONTINUOUS
10
123.562
20
-93.2995
11
123.52
21
-93.3171
0
LINE
8
BLACK
6
CONTINUOUS
10
123.52
20
-93.3171
11
123.478
21
-93.2995
0
LINE
8
BLACK
6
CONTINUOUS
10
123.478
20
-93.2995
11
123.46
21
-93.2571
0
LINE
8
BLACK
6
CONTINUOUS
10
123.46
20
-93.2571
11
123.46
21
-92.92
0
LINE
8
BLACK
6
CONTINUOUS
10
123.46
20
-92.92
11
122.82
21
-92.92
0
LINE
8
BLACK
6
CONTINUOUS
10
122.82
20
-92.92
11
122.82
21
-93.2571
0
LINE
8
BLACK
6
CONTINUOUS
10
122.82
20
-93.2571
11
122.802
21
-93.2995
0
LINE
8
BLACK
6
CONTINUOUS
10
122.802
20
-93.2995
11
122.76
21
-93.3171
0
LINE
8
BLACK
6
CONTINUOUS
10
122.76
20
-93.3171
11
122.718
21
-93.2995
0
LINE
8
BLACK
6
CONTINUOUS
10
122.718
20
-93.2995
11
122.7
21
-93.2571
0
LINE
8
BLACK
6
CONTINUOUS
10
122.7
20
-93.2571
11
122.7
21
-92.92
0
LINE
8
BLACK
6
CONTINUOUS
10
122.7
20
-92.92
11
121.87
21
-92.92
0
LINE
8
BLACK
6
CONTINUOUS
10
121.87
20
-92.92
11
121.04
21
-92.92
0
LINE
8
BLACK
6
CONTINUOUS
10
121.04
20
-92.92
11
121.04
21
-93.2571
0
LINE
8
BLACK
6
CONTINUOUS
10
121.04
20
-93.2571
11
121.022
21
-93.2995
0
LINE
8
BLACK
6
CONTINUOUS
10
121.022
20
-93.2995
11
120.98
21
-93.3171
0
LINE
8
BLACK
6
CONTINUOUS
10
120.98
20
-93.3171
11
120.938
21
-93.2995
0
LINE
8
BLACK
6
CONTINUOUS
10
120.938
20
-93.2995
11
120.92
21
-93.2571
0
LINE
8
BLACK
6
CONTINUOUS
10
120.92
20
-93.2571
11
120.92
21
-92.92
0
LINE
8
BLACK
6
CONTINUOUS
10
120.92
20
-92.92
11
120.28
21
-92.92
0
LINE
8
BLACK
6
CONTINUOUS
10
120.28
20
-92.92
11
120.28
21
-93.2571
0
LINE
8
BLACK
6
CONTINUOUS
10
120.28
20
-93.2571
11
120.262
21
-93.2995
0
LINE
8
BLACK
6
CONTINUOUS
10
120.262
20
-93.2995
11
120.22
21
-93.3171
0
LINE
8
BLACK
6
CONTINUOUS
10
120.22
20
-93.3171
11
120.178
21
-93.2995
0
LINE
8
BLACK
6
CONTINUOUS
10
120.178
20
-93.2995
11
120.16
21
-93.2571
0
LINE
8
BLACK
6
CONTINUOUS
10
120.16
20
-93.2571
11
120.16
21
-92.92
0
LINE
8
BLACK
6
CONTINUOUS
10
120.16
20
-92.92
11
119.33
21
-92.92
0
LINE
8
BLACK
6
CONTINUOUS
10
119.33
20
-92.92
11
118.5
21
-92.92
0
LINE
8
BLACK
6
CONTINUOUS
10
118.5
20
-92.92
11
118.5
21
-93.2571
0
LINE
8
BLACK
6
CONTINUOUS
10
118.5
20
-93.2571
11
118.482
21
-93.2995
0
LINE
8
BLACK
6
CONTINUOUS
10
118.482
20
-93.2995
11
118.44
21
-93.3171
0
LINE
8
BLACK
6
CONTINUOUS
10
118.44
20
-93.3171
11
118.398
21
-93.2995
0
LINE
8
BLACK
6
CONTINUOUS
10
118.398
20
-93.2995
11
118.38
21
-93.2571
0
LINE
8
BLACK
6
CONTINUOUS
10
118.38
20
-93.2571
11
118.38
21
-92.92
0
LINE
8
BLACK
6
CONTINUOUS
10
118.38
20
-92.92
11
117.74
21
-92.92
0
LINE
8
BLACK
6
CONTINUOUS
10
117.74
20
-92.92
11
117.74
21
-93.2571
0
LINE
8
BLACK
6
CONTINUOUS
10
117.74
20
-93.2571
11
117.722
21
-93.2995
0
LINE
8
BLACK
6
CONTINUOUS
10
117.722
20
-93.2995
11
117.68
21
-93.3171
0
LINE
8
BLACK
6
CONTINUOUS
10
117.68
20
-93.3171
11
117.638
21
-93.2995
0
LINE
8
BLACK
6
CONTINUOUS
10
117.638
20
-93.2995
11
117.62
21
-93.2571
0
LINE
8
BLACK
6
CONTINUOUS
10
117.62
20
-93.2571
11
117.62
21
-92.92
0
LINE
8
BLACK
6
CONTINUOUS
10
117.62
20
-92.92
11
116.79
21
-92.92
0
LINE
8
BLACK
6
CONTINUOUS
10
116.79
20
-92.92
11
115.96
21
-92.92
0
LINE
8
BLACK
6
CONTINUOUS
10
115.96
20
-92.92
11
115.96
21
-93.2571
0
LINE
8
BLACK
6
CONTINUOUS
10
115.96
20
-93.2571
11
115.942
21
-93.2995
0
LINE
8
BLACK
6
CONTINUOUS
10
115.942
20
-93.2995
11
115.9
21
-93.3171
0
LINE
8
BLACK
6
CONTINUOUS
10
115.9
20
-93.3171
11
115.858
21
-93.2995
0
LINE
8
BLACK
6
CONTINUOUS
10
115.858
20
-93.2995
11
115.84
21
-93.2571
0
LINE
8
BLACK
6
CONTINUOUS
10
115.84
20
-93.2571
11
115.84
21
-92.92
0
LINE
8
BLACK
6
CONTINUOUS
10
115.84
20
-92.92
11
115.2
21
-92.92
0
LINE
8
BLACK
6
CONTINUOUS
10
115.2
20
-92.92
11
115.2
21
-93.2571
0
LINE
8
BLACK
6
CONTINUOUS
10
115.2
20
-93.2571
11
115.182
21
-93.2995
0
LINE
8
BLACK
6
CONTINUOUS
10
115.182
20
-93.2995
11
115.14
21
-93.3171
0
LINE
8
BLACK
6
CONTINUOUS
10
115.14
20
-93.3171
11
115.098
21
-93.2995
0
LINE
8
BLACK
6
CONTINUOUS
10
115.098
20
-93.2995
11
115.08
21
-93.2571
0
LINE
8
BLACK
6
CONTINUOUS
10
115.08
20
-93.2571
11
115.08
21
-92.92
0
LINE
8
BLACK
6
CONTINUOUS
10
115.08
20
-92.92
11
114.25
21
-92.92
0
LINE
8
BLACK
6
CONTINUOUS
10
114.25
20
-92.92
11
113.42
21
-92.92
0
LINE
8
BLACK
6
CONTINUOUS
10
113.42
20
-92.92
11
113.42
21
-93.2571
0
LINE
8
BLACK
6
CONTINUOUS
10
113.42
20
-93.2571
11
113.402
21
-93.2995
0
LINE
8
BLACK
6
CONTINUOUS
10
113.402
20
-93.2995
11
113.36
21
-93.3171
0
LINE
8
BLACK
6
CONTINUOUS
10
113.36
20
-93.3171
11
113.318
21
-93.2995
0
LINE
8
BLACK
6
CONTINUOUS
10
113.318
20
-93.2995
11
113.3
21
-93.2571
0
LINE
8
BLACK
6
CONTINUOUS
10
113.3
20
-93.2571
11
113.3
21
-92.92
0
LINE
8
BLACK
6
CONTINUOUS
10
113.3
20
-92.92
11
112.66
21
-92.92
0
LINE
8
BLACK
6
CONTINUOUS
10
112.66
20
-92.92
11
112.66
21
-93.2571
0
LINE
8
BLACK
6
CONTINUOUS
10
112.66
20
-93.2571
11
112.642
21
-93.2995
0
LINE
8
BLACK
6
CONTINUOUS
10
112.642
20
-93.2995
11
112.6
21
-93.3171
0
LINE
8
BLACK
6
CONTINUOUS
10
112.6
20
-93.3171
11
112.558
21
-93.2995
0
LINE
8
BLACK
6
CONTINUOUS
10
112.558
20
-93.2995
11
112.54
21
-93.2571
0
LINE
8
BLACK
6
CONTINUOUS
10
112.54
20
-93.2571
11
112.54
21
-92.92
0
LINE
8
BLACK
6
CONTINUOUS
10
112.54
20
-92.92
11
111.71
21
-92.92
0
LINE
8
BLACK
6
CONTINUOUS
10
111.71
20
-92.92
11
110.88
21
-92.92
0
LINE
8
BLACK
6
CONTINUOUS
10
110.88
20
-92.92
11
110.88
21
-93.2571
0
LINE
8
BLACK
6
CONTINUOUS
10
110.88
20
-93.2571
11
110.862
21
-93.2995
0
LINE
8
BLACK
6
CONTINUOUS
10
110.862
20
-93.2995
11
110.82
21
-93.3171
0
LINE
8
BLACK
6
CONTINUOUS
10
110.82
20
-93.3171
11
110.778
21
-93.2995
0
LINE
8
BLACK
6
CONTINUOUS
10
110.778
20
-93.2995
11
110.76
21
-93.2571
0
LINE
8
BLACK
6
CONTINUOUS
10
110.76
20
-93.2571
11
110.76
21
-92.92
0
LINE
8
BLACK
6
CONTINUOUS
10
110.76
20
-92.92
11
110.12
21
-92.92
0
LINE
8
BLACK
6
CONTINUOUS
10
110.12
20
-92.92
11
110.12
21
-93.2571
0
LINE
8
BLACK
6
CONTINUOUS
10
110.12
20
-93.2571
11
110.102
21
-93.2995
0
LINE
8
BLACK
6
CONTINUOUS
10
110.102
20
-93.2995
11
110.06
21
-93.3171
0
LINE
8
BLACK
6
CONTINUOUS
10
110.06
20
-93.3171
11
110.018
21
-93.2995
0
LINE
8
BLACK
6
CONTINUOUS
10
110.018
20
-93.2995
11
110
21
-93.2571
0
LINE
8
BLACK
6
CONTINUOUS
10
110
20
-93.2571
11
110
21
-92.92
0
LINE
8
BLACK
6
CONTINUOUS
10
110
20
-92.92
11
109.17
21
-92.92
0
LINE
8
BLACK
6
CONTINUOUS
10
109.17
20
-92.92
11
108.34
21
-92.92
0
LINE
8
BLACK
6
CONTINUOUS
10
108.34
20
-92.92
11
108.34
21
-93.2571
0
LINE
8
BLACK
6
CONTINUOUS
10
108.34
20
-93.2571
11
108.322
21
-93.2995
0
LINE
8
BLACK
6
CONTINUOUS
10
108.322
20
-93.2995
11
108.28
21
-93.3171
0
LINE
8
BLACK
6
CONTINUOUS
10
108.28
20
-93.3171
11
108.238
21
-93.2995
0
LINE
8
BLACK
6
CONTINUOUS
10
108.238
20
-93.2995
11
108.22
21
-93.2571
0
LINE
8
BLACK
6
CONTINUOUS
10
108.22
20
-93.2571
11
108.22
21
-92.92
0
LINE
8
BLACK
6
CONTINUOUS
10
108.22
20
-92.92
11
107.58
21
-92.92
0
LINE
8
BLACK
6
CONTINUOUS
10
107.58
20
-92.92
11
107.58
21
-93.2571
0
LINE
8
BLACK
6
CONTINUOUS
10
107.58
20
-93.2571
11
107.562
21
-93.2995
0
LINE
8
BLACK
6
CONTINUOUS
10
107.562
20
-93.2995
11
107.52
21
-93.3171
0
LINE
8
BLACK
6
CONTINUOUS
10
107.52
20
-93.3171
11
107.478
21
-93.2995
0
LINE
8
BLACK
6
CONTINUOUS
10
107.478
20
-93.2995
11
107.46
21
-93.2571
0
LINE
8
BLACK
6
CONTINUOUS
10
107.46
20
-93.2571
11
107.46
21
-92.92
0
LINE
8
BLACK
6
CONTINUOUS
10
107.46
20
-92.92
11
106.57
21
-92.92
0
LINE
8
BLACK
6
CONTINUOUS
10
106.57
20
-92.92
11
106.528
21
-92.9024
0
LINE
8
BLACK
6
CONTINUOUS
10
106.528
20
-92.9024
11
106.51
21
-92.86
0
LINE
8
BLACK
6
CONTINUOUS
10
106.51
20
-92.86
11
106.51
21
-92.86
0
LINE
8
BLACK
6
CONTINUOUS
10
106.51
20
-92.86
11
106.51
21
-90.2
0
LINE
8
BLACK
6
CONTINUOUS
10
106.51
20
-90.2
11
106.528
21
-90.1576
0
LINE
8
BLACK
6
CONTINUOUS
10
106.528
20
-90.1576
11
106.57
21
-90.14
0
LINE
8
BLACK
6
CONTINUOUS
10
106.57
20
-90.14
11
107.46
21
-90.14
0
LINE
8
BLACK
6
CONTINUOUS
10
107.46
20
-90.14
11
107.46
21
-84.2
0
LINE
8
BLACK
6
CONTINUOUS
10
107.46
20
-84.2
11
107.478
21
-84.1576
0
LINE
8
BLACK
6
CONTINUOUS
10
107.478
20
-84.1576
11
107.52
21
-84.14
0
LINE
8
BLACK
6
CONTINUOUS
10
107.52
20
-84.14
11
108.28
21
-84.14
0
LINE
8
BLACK
6
CONTINUOUS
10
108.28
20
-90.26
11
107.52
21
-90.26
0
LINE
8
BLACK
6
CONTINUOUS
10
107.52
20
-90.26
11
106.63
21
-90.26
0
LINE
8
BLACK
6
CONTINUOUS
10
106.63
20
-90.26
11
106.63
21
-92.8
0
LINE
8
BLACK
6
CONTINUOUS
10
106.63
20
-92.8
11
109.11
21
-92.8
0
LINE
8
BLACK
6
CONTINUOUS
10
109.11
20
-92.8
11
109.11
21
-90.26
0
LINE
8
BLACK
6
CONTINUOUS
10
109.11
20
-90.26
11
108.28
21
-90.26
0
LINE
8
BLACK
6
CONTINUOUS
10
110.82
20
-90.26
11
110.06
21
-90.26
0
LINE
8
BLACK
6
CONTINUOUS
10
110.06
20
-90.26
11
109.23
21
-90.26
0
LINE
8
BLACK
6
CONTINUOUS
10
109.23
20
-90.26
11
109.23
21
-92.8
0
LINE
8
BLACK
6
CONTINUOUS
10
109.23
20
-92.8
11
111.65
21
-92.8
0
LINE
8
BLACK
6
CONTINUOUS
10
111.65
20
-92.8
11
111.65
21
-90.26
0
LINE
8
BLACK
6
CONTINUOUS
10
111.65
20
-90.26
11
110.82
21
-90.26
0
LINE
8
BLACK
6
CONTINUOUS
10
113.36
20
-90.26
11
112.6
21
-90.26
0
LINE
8
BLACK
6
CONTINUOUS
10
112.6
20
-90.26
11
111.77
21
-90.26
0
LINE
8
BLACK
6
CONTINUOUS
10
111.77
20
-90.26
11
111.77
21
-92.8
0
LINE
8
BLACK
6
CONTINUOUS
10
111.77
20
-92.8
11
114.19
21
-92.8
0
LINE
8
BLACK
6
CONTINUOUS
10
114.19
20
-92.8
11
114.19
21
-90.26
0
LINE
8
BLACK
6
CONTINUOUS
10
114.19
20
-90.26
11
113.36
21
-90.26
0
LINE
8
BLACK
6
CONTINUOUS
10
115.9
20
-90.26
11
115.14
21
-90.26
0
LINE
8
BLACK
6
CONTINUOUS
10
115.14
20
-90.26
11
114.31
21
-90.26
0
LINE
8
BLACK
6
CONTINUOUS
10
114.31
20
-90.26
11
114.31
21
-92.8
0
LINE
8
BLACK
6
CONTINUOUS
10
114.31
20
-92.8
11
116.73
21
-92.8
0
LINE
8
BLACK
6
CONTINUOUS
10
116.73
20
-92.8
11
116.73
21
-90.26
0
LINE
8
BLACK
6
CONTINUOUS
10
116.73
20
-90.26
11
115.9
21
-90.26
0
LINE
8
BLACK
6
CONTINUOUS
10
118.44
20
-90.26
11
117.68
21
-90.26
0
LINE
8
BLACK
6
CONTINUOUS
10
117.68
20
-90.26
11
116.85
21
-90.26
0
LINE
8
BLACK
6
CONTINUOUS
10
116.85
20
-90.26
11
116.85
21
-92.8
0
LINE
8
BLACK
6
CONTINUOUS
10
116.85
20
-92.8
11
119.27
21
-92.8
0
LINE
8
BLACK
6
CONTINUOUS
10
119.27
20
-92.8
11
119.27
21
-90.26
0
LINE
8
BLACK
6
CONTINUOUS
10
119.27
20
-90.26
11
118.44
21
-90.26
0
LINE
8
BLACK
6
CONTINUOUS
10
120.98
20
-90.26
11
120.22
21
-90.26
0
LINE
8
BLACK
6
CONTINUOUS
10
120.22
20
-90.26
11
119.39
21
-90.26
0
LINE
8
BLACK
6
CONTINUOUS
10
119.39
20
-90.26
11
119.39
21
-92.8
0
LINE
8
BLACK
6
CONTINUOUS
10
119.39
20
-92.8
11
121.81
21
-92.8
0
LINE
8
BLACK
6
CONTINUOUS
10
121.81
20
-92.8
11
121.81
21
-90.26
0
LINE
8
BLACK
6
CONTINUOUS
10
121.81
20
-90.26
11
120.98
21
-90.26
0
LINE
8
BLACK
6
CONTINUOUS
10
123.52
20
-90.26
11
122.76
21
-90.26
0
LINE
8
BLACK
6
CONTINUOUS
10
122.76
20
-90.26
11
121.93
21
-90.26
0
LINE
8
BLACK
6
CONTINUOUS
10
121.93
20
-90.26
11
121.93
21
-92.8
0
LINE
8
BLACK
6
CONTINUOUS
10
121.93
20
-92.8
11
124.35
21
-92.8
0
LINE
8
BLACK
6
CONTINUOUS
10
124.35
20
-92.8
11
124.35
21
-90.26
0
LINE
8
BLACK
6
CONTINUOUS
10
124.35
20
-90.26
11
123.52
21
-90.26
0
LINE
8
BLACK
6
CONTINUOUS
10
126.06
20
-90.26
11
125.3
21
-90.26
0
LINE
8
BLACK
6
CONTINUOUS
10
125.3
20
-90.26
11
124.47
21
-90.26
0
LINE
8
BLACK
6
CONTINUOUS
10
124.47
20
-90.26
11
124.47
21
-92.8
0
LINE
8
BLACK
6
CONTINUOUS
10
124.47
20
-92.8
11
126.89
21
-92.8
0
LINE
8
BLACK
6
CONTINUOUS
10
126.89
20
-92.8
11
126.89
21
-90.26
0
LINE
8
BLACK
6
CONTINUOUS
10
126.89
20
-90.26
11
126.06
21
-90.26
0
LINE
8
BLACK
6
CONTINUOUS
10
128.6
20
-90.26
11
127.84
21
-90.26
0
LINE
8
BLACK
6
CONTINUOUS
10
127.84
20
-90.26
11
127.01
21
-90.26
0
LINE
8
BLACK
6
CONTINUOUS
10
127.01
20
-90.26
11
127.01
21
-92.8
0
LINE
8
BLACK
6
CONTINUOUS
10
127.01
20
-92.8
11
129.43
21
-92.8
0
LINE
8
BLACK
6
CONTINUOUS
10
129.43
20
-92.8
11
129.43
21
-90.26
0
LINE
8
BLACK
6
CONTINUOUS
10
129.43
20
-90.26
11
128.6
21
-90.26
0
LINE
8
BLACK
6
CONTINUOUS
10
131.14
20
-90.26
11
131.08
21
-90.26
0
LINE
8
BLACK
6
CONTINUOUS
10
131.08
20
-90.26
11
130.96
21
-90.26
0
LINE
8
BLACK
6
CONTINUOUS
10
130.96
20
-90.26
11
130.84
21
-90.26
0
LINE
8
BLACK
6
CONTINUOUS
10
130.84
20
-90.26
11
130.72
21
-90.26
0
LINE
8
BLACK
6
CONTINUOUS
10
130.72
20
-90.26
11
130.6
21
-90.26
0
LINE
8
BLACK
6
CONTINUOUS
10
130.6
20
-90.26
11
130.48
21
-90.26
0
LINE
8
BLACK
6
CONTINUOUS
10
130.48
20
-90.26
11
130.38
21
-90.26
0
LINE
8
BLACK
6
CONTINUOUS
10
130.38
20
-90.26
11
129.55
21
-90.26
0
LINE
8
BLACK
6
CONTINUOUS
10
129.55
20
-90.26
11
129.55
21
-92.8
0
LINE
8
BLACK
6
CONTINUOUS
10
129.55
20
-92.8
11
132.03
21
-92.8
0
LINE
8
BLACK
6
CONTINUOUS
10
132.03
20
-92.8
11
132.03
21
-90.26
0
LINE
8
BLACK
6
CONTINUOUS
10
132.03
20
-90.26
11
131.14
21
-90.26
0
LINE
8
BLACK
6
CONTINUOUS
10
107.58
20
-84.26
11
107.58
21
-90.14
0
LINE
8
BLACK
6
CONTINUOUS
10
107.58
20
-90.14
11
108.22
21
-90.14
0
LINE
8
BLACK
6
CONTINUOUS
10
108.22
20
-90.14
11
108.22
21
-84.26
0
LINE
8
BLACK
6
CONTINUOUS
10
108.22
20
-84.26
11
107.58
21
-84.26
0
LINE
8
BLACK
6
CONTINUOUS
10
110.12
20
-84.26
11
110.12
21
-90.14
0
LINE
8
BLACK
6
CONTINUOUS
10
110.12
20
-90.14
11
110.76
21
-90.14
0
LINE
8
BLACK
6
CONTINUOUS
10
110.76
20
-90.14
11
110.76
21
-84.26
0
LINE
8
BLACK
6
CONTINUOUS
10
110.76
20
-84.26
11
110.12
21
-84.26
0
LINE
8
BLACK
6
CONTINUOUS
10
112.66
20
-84.26
11
112.66
21
-90.14
0
LINE
8
BLACK
6
CONTINUOUS
10
112.66
20
-90.14
11
113.3
21
-90.14
0
LINE
8
BLACK
6
CONTINUOUS
10
113.3
20
-90.14
11
113.3
21
-84.26
0
LINE
8
BLACK
6
CONTINUOUS
10
113.3
20
-84.26
11
112.66
21
-84.26
0
LINE
8
BLACK
6
CONTINUOUS
10
115.2
20
-84.26
11
115.2
21
-90.14
0
LINE
8
BLACK
6
CONTINUOUS
10
115.2
20
-90.14
11
115.84
21
-90.14
0
LINE
8
BLACK
6
CONTINUOUS
10
115.84
20
-90.14
11
115.84
21
-84.26
0
LINE
8
BLACK
6
CONTINUOUS
10
115.84
20
-84.26
11
115.2
21
-84.26
0
LINE
8
BLACK
6
CONTINUOUS
10
117.74
20
-84.26
11
117.74
21
-90.14
0
LINE
8
BLACK
6
CONTINUOUS
10
117.74
20
-90.14
11
118.38
21
-90.14
0
LINE
8
BLACK
6
CONTINUOUS
10
118.38
20
-90.14
11
118.38
21
-84.26
0
LINE
8
BLACK
6
CONTINUOUS
10
118.38
20
-84.26
11
117.74
21
-84.26
0
LINE
8
BLACK
6
CONTINUOUS
10
120.28
20
-84.26
11
120.28
21
-90.14
0
LINE
8
BLACK
6
CONTINUOUS
10
120.28
20
-90.14
11
120.92
21
-90.14
0
LINE
8
BLACK
6
CONTINUOUS
10
120.92
20
-90.14
11
120.92
21
-84.26
0
LINE
8
BLACK
6
CONTINUOUS
10
120.92
20
-84.26
11
120.28
21
-84.26
0
LINE
8
BLACK
6
CONTINUOUS
10
122.82
20
-84.26
11
122.82
21
-90.14
0
LINE
8
BLACK
6
CONTINUOUS
10
122.82
20
-90.14
11
123.46
21
-90.14
0
LINE
8
BLACK
6
CONTINUOUS
10
123.46
20
-90.14
11
123.46
21
-84.26
0
LINE
8
BLACK
6
CONTINUOUS
10
123.46
20
-84.26
11
122.82
21
-84.26
0
LINE
8
BLACK
6
CONTINUOUS
10
125.36
20
-84.26
11
125.36
21
-90.14
0
LINE
8
BLACK
6
CONTINUOUS
10
125.36
20
-90.14
11
126
21
-90.14
0
LINE
8
BLACK
6
CONTINUOUS
10
126
20
-90.14
11
126
21
-84.26
0
LINE
8
BLACK
6
CONTINUOUS
10
126
20
-84.26
11
125.36
21
-84.26
0
LINE
8
BLACK
6
CONTINUOUS
10
127.9
20
-84.26
11
127.9
21
-90.14
0
LINE
8
BLACK
6
CONTINUOUS
10
127.9
20
-90.14
11
128.54
21
-90.14
0
LINE
8
BLACK
6
CONTINUOUS
10
128.54
20
-90.14
11
128.54
21
-84.26
0
LINE
8
BLACK
6
CONTINUOUS
10
128.54
20
-84.26
11
127.9
21
-84.26
0
LINE
8
BLACK
6
CONTINUOUS
10
132.815
20
-89.95
11
132.843
21
-89.9928
0
LINE
8
BLACK
6
CONTINUOUS
10
132.843
20
-89.9928
11
132.838
21
-90.0438
0
LINE
8
BLACK
6
CONTINUOUS
10
132.838
20
-90.0438
11
132.79
21
-90.139
0
LINE
8
BLACK
6
CONTINUOUS
10
132.79
20
-90.139
11
132.777
21
-90.157
0
LINE
8
BLACK
6
CONTINUOUS
10
132.777
20
-90.157
11
132.776
21
-90.1585
0
LINE
8
BLACK
6
CONTINUOUS
10
132.776
20
-90.1585
11
132.714
21
-90.221
0
LINE
8
BLACK
6
CONTINUOUS
10
132.714
20
-90.221
11
133.41
21
-90.221
0
LINE
8
BLACK
6
CONTINUOUS
10
133.41
20
-90.221
11
133.41
21
-90.0102
0
LINE
8
BLACK
6
CONTINUOUS
10
133.41
20
-90.0102
11
133.414
21
-89.9846
0
LINE
8
BLACK
6
CONTINUOUS
10
133.414
20
-89.9846
11
133.447
21
-89.9453
0
LINE
8
BLACK
6
CONTINUOUS
10
133.447
20
-89.9453
11
133.498
21
-89.9364
0
LINE
8
BLACK
6
CONTINUOUS
10
133.498
20
-89.9364
11
133.542
21
-89.962
0
LINE
8
BLACK
6
CONTINUOUS
10
133.542
20
-89.962
11
133.56
21
-90.0102
0
LINE
8
BLACK
6
CONTINUOUS
10
133.56
20
-90.0102
11
133.56
21
-90.5817
0
LINE
8
BLACK
6
CONTINUOUS
10
133.56
20
-90.5817
11
133.555
21
-90.6073
0
LINE
8
BLACK
6
CONTINUOUS
10
133.555
20
-90.6073
11
133.522
21
-90.6466
0
LINE
8
BLACK
6
CONTINUOUS
10
133.522
20
-90.6466
11
133.472
21
-90.6555
0
LINE
8
BLACK
6
CONTINUOUS
10
133.472
20
-90.6555
11
133.427
21
-90.6299
0
LINE
8
BLACK
6
CONTINUOUS
10
133.427
20
-90.6299
11
133.41
21
-90.5817
0
LINE
8
BLACK
6
CONTINUOUS
10
133.41
20
-90.5817
11
133.41
21
-90.371
0
LINE
8
BLACK
6
CONTINUOUS
10
133.41
20
-90.371
11
132.485
21
-90.371
0
LINE
8
BLACK
6
CONTINUOUS
10
132.485
20
-90.371
11
132.459
21
-90.3664
0
LINE
8
BLACK
6
CONTINUOUS
10
132.459
20
-90.3664
11
132.456
21
-90.3637
0
LINE
8
BLACK
6
CONTINUOUS
10
132.456
20
-90.3637
11
132.452
21
-90.3632
0
LINE
8
BLACK
6
CONTINUOUS
10
132.452
20
-90.3632
11
132.437
21
-90.3474
0
LINE
8
BLACK
6
CONTINUOUS
10
132.437
20
-90.3474
11
132.42
21
-90.3335
0
LINE
8
BLACK
6
CONTINUOUS
10
132.42
20
-90.3335
11
132.419
21
-90.3292
0
LINE
8
BLACK
6
CONTINUOUS
10
132.419
20
-90.3292
11
132.416
21
-90.3261
0
LINE
8
BLACK
6
CONTINUOUS
10
132.416
20
-90.3261
11
132.415
21
-90.3044
0
LINE
8
BLACK
6
CONTINUOUS
10
132.415
20
-90.3044
11
132.411
21
-90.2829
0
LINE
8
BLACK
6
CONTINUOUS
10
132.411
20
-90.2829
11
132.413
21
-90.2792
0
LINE
8
BLACK
6
CONTINUOUS
10
132.413
20
-90.2792
11
132.413
21
-90.2749
0
LINE
8
BLACK
6
CONTINUOUS
10
132.413
20
-90.2749
11
132.426
21
-90.2573
0
LINE
8
BLACK
6
CONTINUOUS
10
132.426
20
-90.2573
11
132.437
21
-90.2385
0
LINE
8
BLACK
6
CONTINUOUS
10
132.437
20
-90.2385
11
132.441
21
-90.237
0
LINE
8
BLACK
6
CONTINUOUS
10
132.441
20
-90.237
11
132.443
21
-90.2335
0
LINE
8
BLACK
6
CONTINUOUS
10
132.443
20
-90.2335
11
132.58
21
-90.1424
0
LINE
8
BLACK
6
CONTINUOUS
10
132.58
20
-90.1424
11
132.661
21
-90.061
0
LINE
8
BLACK
6
CONTINUOUS
10
132.661
20
-90.061
11
132.703
21
-89.9767
0
LINE
8
BLACK
6
CONTINUOUS
10
132.703
20
-89.9767
11
132.719
21
-89.9558
0
LINE
8
BLACK
6
CONTINUOUS
10
132.719
20
-89.9558
11
132.766
21
-89.9354
0
LINE
8
BLACK
6
CONTINUOUS
10
132.766
20
-89.9354
11
132.815
21
-89.95
0
LINE
8
BLACK
6
CONTINUOUS
10
133.542
20
-89.1525
11
133.56
21
-89.2007
0
LINE
8
BLACK
6
CONTINUOUS
10
133.56
20
-89.2007
11
133.56
21
-89.296
0
LINE
8
BLACK
6
CONTINUOUS
10
133.56
20
-89.296
11
133.556
21
-89.318
0
LINE
8
BLACK
6
CONTINUOUS
10
133.556
20
-89.318
11
133.556
21
-89.3197
0
LINE
8
BLACK
6
CONTINUOUS
10
133.556
20
-89.3197
11
133.508
21
-89.4625
0
LINE
8
BLACK
6
CONTINUOUS
10
133.508
20
-89.4625
11
133.496
21
-89.4854
0
LINE
8
BLACK
6
CONTINUOUS
10
133.496
20
-89.4854
11
133.492
21
-89.4878
0
LINE
8
BLACK
6
CONTINUOUS
10
133.492
20
-89.4878
11
133.49
21
-89.4918
0
LINE
8
BLACK
6
CONTINUOUS
10
133.49
20
-89.4918
11
133.395
21
-89.5871
0
LINE
8
BLACK
6
CONTINUOUS
10
133.395
20
-89.5871
11
133.374
21
-89.602
0
LINE
8
BLACK
6
CONTINUOUS
10
133.374
20
-89.602
11
133.369
21
-89.6024
0
LINE
8
BLACK
6
CONTINUOUS
10
133.369
20
-89.6024
11
133.366
21
-89.6052
0
LINE
8
BLACK
6
CONTINUOUS
10
133.366
20
-89.6052
11
133.223
21
-89.6528
0
LINE
8
BLACK
6
CONTINUOUS
10
133.223
20
-89.6528
11
133.201
21
-89.6561
0
LINE
8
BLACK
6
CONTINUOUS
10
133.201
20
-89.6561
11
133.199
21
-89.6567
0
LINE
8
BLACK
6
CONTINUOUS
10
133.199
20
-89.6567
11
132.485
21
-89.6567
0
LINE
8
BLACK
6
CONTINUOUS
10
132.485
20
-89.6567
11
132.459
21
-89.6521
0
LINE
8
BLACK
6
CONTINUOUS
10
132.459
20
-89.6521
11
132.42
21
-89.6192
0
LINE
8
BLACK
6
CONTINUOUS
10
132.42
20
-89.6192
11
132.411
21
-89.5686
0
LINE
8
BLACK
6
CONTINUOUS
10
132.411
20
-89.5686
11
132.437
21
-89.5242
0
LINE
8
BLACK
6
CONTINUOUS
10
132.437
20
-89.5242
11
132.485
21
-89.5067
0
LINE
8
BLACK
6
CONTINUOUS
10
132.485
20
-89.5067
11
133.187
21
-89.5067
0
LINE
8
BLACK
6
CONTINUOUS
10
133.187
20
-89.5067
11
133.301
21
-89.4685
0
LINE
8
BLACK
6
CONTINUOUS
10
133.301
20
-89.4685
11
133.372
21
-89.3983
0
LINE
8
BLACK
6
CONTINUOUS
10
133.372
20
-89.3983
11
133.41
21
-89.2838
0
LINE
8
BLACK
6
CONTINUOUS
10
133.41
20
-89.2838
11
133.41
21
-89.2007
0
LINE
8
BLACK
6
CONTINUOUS
10
133.41
20
-89.2007
11
133.414
21
-89.1751
0
LINE
8
BLACK
6
CONTINUOUS
10
133.414
20
-89.1751
11
133.447
21
-89.1358
0
LINE
8
BLACK
6
CONTINUOUS
10
133.447
20
-89.1358
11
133.498
21
-89.1269
0
LINE
8
BLACK
6
CONTINUOUS
10
133.498
20
-89.1269
11
133.542
21
-89.1525
  0
ENDSEC
  0
EOF
