solid CATIA STL
  facet normal  0.000000e+000  0.000000e+000  1.000000e+000
    outer loop
      vertex -6.000000e+000 -2.000000e-001  4.000000e-001
      vertex -4.000000e+000 -2.000000e-001  4.000000e-001
      vertex -6.000000e+000  1.800000e+000  4.000000e-001
    endloop
  endfacet
  facet normal  -0.000000e+000  0.000000e+000  1.000000e+000
    outer loop
      vertex -6.000000e+000  1.800000e+000  4.000000e-001
      vertex -4.000000e+000 -2.000000e-001  4.000000e-001
      vertex -4.000000e+000  1.800000e+000  4.000000e-001
    endloop
  endfacet
  facet normal  0.000000e+000  0.000000e+000 -1.000000e+000
    outer loop
      vertex -6.000000e+000 -2.000000e-001  0.000000e+000
      vertex -6.000000e+000  1.800000e+000  0.000000e+000
      vertex -4.000000e+000 -2.000000e-001  0.000000e+000
    endloop
  endfacet
  facet normal  0.000000e+000  0.000000e+000 -1.000000e+000
    outer loop
      vertex -4.000000e+000 -2.000000e-001  0.000000e+000
      vertex -6.000000e+000  1.800000e+000  0.000000e+000
      vertex -4.000000e+000  1.800000e+000  0.000000e+000
    endloop
  endfacet
  facet normal  1.000000e+000  -0.000000e+000  0.000000e+000
    outer loop
      vertex -4.000000e+000  1.800000e+000  4.000000e-001
      vertex -4.000000e+000 -2.000000e-001  4.000000e-001
      vertex -4.000000e+000  1.800000e+000  0.000000e+000
    endloop
  endfacet
  facet normal  1.000000e+000  0.000000e+000  0.000000e+000
    outer loop
      vertex -4.000000e+000  1.800000e+000  0.000000e+000
      vertex -4.000000e+000 -2.000000e-001  4.000000e-001
      vertex -4.000000e+000 -2.000000e-001  0.000000e+000
    endloop
  endfacet
  facet normal  0.000000e+000 -1.000000e+000  0.000000e+000
    outer loop
      vertex -4.000000e+000 -2.000000e-001  4.000000e-001
      vertex -6.000000e+000 -2.000000e-001  4.000000e-001
      vertex -4.000000e+000 -2.000000e-001  0.000000e+000
    endloop
  endfacet
  facet normal  0.000000e+000 -1.000000e+000  0.000000e+000
    outer loop
      vertex -4.000000e+000 -2.000000e-001  0.000000e+000
      vertex -6.000000e+000 -2.000000e-001  4.000000e-001
      vertex -6.000000e+000 -2.000000e-001  0.000000e+000
    endloop
  endfacet
  facet normal -1.000000e+000  -0.000000e+000  0.000000e+000
    outer loop
      vertex -6.000000e+000 -2.000000e-001  4.000000e-001
      vertex -6.000000e+000  1.800000e+000  4.000000e-001
      vertex -6.000000e+000 -2.000000e-001  0.000000e+000
    endloop
  endfacet
  facet normal -1.000000e+000  0.000000e+000  0.000000e+000
    outer loop
      vertex -6.000000e+000 -2.000000e-001  0.000000e+000
      vertex -6.000000e+000  1.800000e+000  4.000000e-001
      vertex -6.000000e+000  1.800000e+000  0.000000e+000
    endloop
  endfacet
  facet normal  0.000000e+000  1.000000e+000  0.000000e+000
    outer loop
      vertex -6.000000e+000  1.800000e+000  4.000000e-001
      vertex -4.000000e+000  1.800000e+000  4.000000e-001
      vertex -6.000000e+000  1.800000e+000  0.000000e+000
    endloop
  endfacet
  facet normal  0.000000e+000  1.000000e+000  0.000000e+000
    outer loop
      vertex -6.000000e+000  1.800000e+000  0.000000e+000
      vertex -4.000000e+000  1.800000e+000  4.000000e-001
      vertex -4.000000e+000  1.800000e+000  0.000000e+000
    endloop
  endfacet
  facet normal  0.000000e+000  0.000000e+000  1.000000e+000
    outer loop
      vertex -6.000000e+000 -6.200000e+000  4.000000e-001
      vertex -4.000000e+000 -6.200000e+000  4.000000e-001
      vertex -6.000000e+000 -4.200000e+000  4.000000e-001
    endloop
  endfacet
  facet normal  -0.000000e+000  0.000000e+000  1.000000e+000
    outer loop
      vertex -6.000000e+000 -4.200000e+000  4.000000e-001
      vertex -4.000000e+000 -6.200000e+000  4.000000e-001
      vertex -4.000000e+000 -4.200000e+000  4.000000e-001
    endloop
  endfacet
  facet normal  0.000000e+000  0.000000e+000 -1.000000e+000
    outer loop
      vertex -6.000000e+000 -6.200000e+000  0.000000e+000
      vertex -6.000000e+000 -4.200000e+000  0.000000e+000
      vertex -4.000000e+000 -6.200000e+000  0.000000e+000
    endloop
  endfacet
  facet normal  0.000000e+000  0.000000e+000 -1.000000e+000
    outer loop
      vertex -4.000000e+000 -6.200000e+000  0.000000e+000
      vertex -6.000000e+000 -4.200000e+000  0.000000e+000
      vertex -4.000000e+000 -4.200000e+000  0.000000e+000
    endloop
  endfacet
  facet normal  1.000000e+000  -0.000000e+000  0.000000e+000
    outer loop
      vertex -4.000000e+000 -4.200000e+000  4.000000e-001
      vertex -4.000000e+000 -6.200000e+000  4.000000e-001
      vertex -4.000000e+000 -4.200000e+000  0.000000e+000
    endloop
  endfacet
  facet normal  1.000000e+000  0.000000e+000  0.000000e+000
    outer loop
      vertex -4.000000e+000 -4.200000e+000  0.000000e+000
      vertex -4.000000e+000 -6.200000e+000  4.000000e-001
      vertex -4.000000e+000 -6.200000e+000  0.000000e+000
    endloop
  endfacet
  facet normal  0.000000e+000 -1.000000e+000  0.000000e+000
    outer loop
      vertex -4.000000e+000 -6.200000e+000  4.000000e-001
      vertex -6.000000e+000 -6.200000e+000  4.000000e-001
      vertex -4.000000e+000 -6.200000e+000  0.000000e+000
    endloop
  endfacet
  facet normal  0.000000e+000 -1.000000e+000  0.000000e+000
    outer loop
      vertex -4.000000e+000 -6.200000e+000  0.000000e+000
      vertex -6.000000e+000 -6.200000e+000  4.000000e-001
      vertex -6.000000e+000 -6.200000e+000  0.000000e+000
    endloop
  endfacet
  facet normal -1.000000e+000  -0.000000e+000  0.000000e+000
    outer loop
      vertex -6.000000e+000 -6.200000e+000  4.000000e-001
      vertex -6.000000e+000 -4.200000e+000  4.000000e-001
      vertex -6.000000e+000 -6.200000e+000  0.000000e+000
    endloop
  endfacet
  facet normal -1.000000e+000  0.000000e+000  0.000000e+000
    outer loop
      vertex -6.000000e+000 -6.200000e+000  0.000000e+000
      vertex -6.000000e+000 -4.200000e+000  4.000000e-001
      vertex -6.000000e+000 -4.200000e+000  0.000000e+000
    endloop
  endfacet
  facet normal  0.000000e+000  1.000000e+000  0.000000e+000
    outer loop
      vertex -6.000000e+000 -4.200000e+000  4.000000e-001
      vertex -4.000000e+000 -4.200000e+000  4.000000e-001
      vertex -6.000000e+000 -4.200000e+000  0.000000e+000
    endloop
  endfacet
  facet normal  0.000000e+000  1.000000e+000  0.000000e+000
    outer loop
      vertex -6.000000e+000 -4.200000e+000  0.000000e+000
      vertex -4.000000e+000 -4.200000e+000  4.000000e-001
      vertex -4.000000e+000 -4.200000e+000  0.000000e+000
    endloop
  endfacet
  facet normal  0.000000e+000  0.000000e+000  1.000000e+000
    outer loop
      vertex -6.000000e+000 -1.220000e+001  4.000000e-001
      vertex -4.000000e+000 -1.220000e+001  4.000000e-001
      vertex -6.000000e+000 -1.020000e+001  4.000000e-001
    endloop
  endfacet
  facet normal  -0.000000e+000  0.000000e+000  1.000000e+000
    outer loop
      vertex -6.000000e+000 -1.020000e+001  4.000000e-001
      vertex -4.000000e+000 -1.220000e+001  4.000000e-001
      vertex -4.000000e+000 -1.020000e+001  4.000000e-001
    endloop
  endfacet
  facet normal  0.000000e+000  0.000000e+000 -1.000000e+000
    outer loop
      vertex -6.000000e+000 -1.220000e+001  0.000000e+000
      vertex -6.000000e+000 -1.020000e+001  0.000000e+000
      vertex -4.000000e+000 -1.220000e+001  0.000000e+000
    endloop
  endfacet
  facet normal  0.000000e+000  0.000000e+000 -1.000000e+000
    outer loop
      vertex -4.000000e+000 -1.220000e+001  0.000000e+000
      vertex -6.000000e+000 -1.020000e+001  0.000000e+000
      vertex -4.000000e+000 -1.020000e+001  0.000000e+000
    endloop
  endfacet
  facet normal  1.000000e+000  -0.000000e+000  0.000000e+000
    outer loop
      vertex -4.000000e+000 -1.020000e+001  4.000000e-001
      vertex -4.000000e+000 -1.220000e+001  4.000000e-001
      vertex -4.000000e+000 -1.020000e+001  0.000000e+000
    endloop
  endfacet
  facet normal  1.000000e+000  0.000000e+000  0.000000e+000
    outer loop
      vertex -4.000000e+000 -1.020000e+001  0.000000e+000
      vertex -4.000000e+000 -1.220000e+001  4.000000e-001
      vertex -4.000000e+000 -1.220000e+001  0.000000e+000
    endloop
  endfacet
  facet normal  0.000000e+000 -1.000000e+000  0.000000e+000
    outer loop
      vertex -4.000000e+000 -1.220000e+001  4.000000e-001
      vertex -6.000000e+000 -1.220000e+001  4.000000e-001
      vertex -4.000000e+000 -1.220000e+001  0.000000e+000
    endloop
  endfacet
  facet normal  0.000000e+000 -1.000000e+000  0.000000e+000
    outer loop
      vertex -4.000000e+000 -1.220000e+001  0.000000e+000
      vertex -6.000000e+000 -1.220000e+001  4.000000e-001
      vertex -6.000000e+000 -1.220000e+001  0.000000e+000
    endloop
  endfacet
  facet normal -1.000000e+000  -0.000000e+000  0.000000e+000
    outer loop
      vertex -6.000000e+000 -1.220000e+001  4.000000e-001
      vertex -6.000000e+000 -1.020000e+001  4.000000e-001
      vertex -6.000000e+000 -1.220000e+001  0.000000e+000
    endloop
  endfacet
  facet normal -1.000000e+000  0.000000e+000  0.000000e+000
    outer loop
      vertex -6.000000e+000 -1.220000e+001  0.000000e+000
      vertex -6.000000e+000 -1.020000e+001  4.000000e-001
      vertex -6.000000e+000 -1.020000e+001  0.000000e+000
    endloop
  endfacet
  facet normal  0.000000e+000  1.000000e+000  0.000000e+000
    outer loop
      vertex -6.000000e+000 -1.020000e+001  4.000000e-001
      vertex -4.000000e+000 -1.020000e+001  4.000000e-001
      vertex -6.000000e+000 -1.020000e+001  0.000000e+000
    endloop
  endfacet
  facet normal  0.000000e+000  1.000000e+000  0.000000e+000
    outer loop
      vertex -6.000000e+000 -1.020000e+001  0.000000e+000
      vertex -4.000000e+000 -1.020000e+001  4.000000e-001
      vertex -4.000000e+000 -1.020000e+001  0.000000e+000
    endloop
  endfacet
  facet normal  0.000000e+000  0.000000e+000  1.000000e+000
    outer loop
      vertex -6.000000e+000 -1.820000e+001  4.000000e-001
      vertex -4.000000e+000 -1.820000e+001  4.000000e-001
      vertex -6.000000e+000 -1.620000e+001  4.000000e-001
    endloop
  endfacet
  facet normal  -0.000000e+000  0.000000e+000  1.000000e+000
    outer loop
      vertex -6.000000e+000 -1.620000e+001  4.000000e-001
      vertex -4.000000e+000 -1.820000e+001  4.000000e-001
      vertex -4.000000e+000 -1.620000e+001  4.000000e-001
    endloop
  endfacet
  facet normal  0.000000e+000  0.000000e+000 -1.000000e+000
    outer loop
      vertex -6.000000e+000 -1.820000e+001  0.000000e+000
      vertex -6.000000e+000 -1.620000e+001  0.000000e+000
      vertex -4.000000e+000 -1.820000e+001  0.000000e+000
    endloop
  endfacet
  facet normal  0.000000e+000  0.000000e+000 -1.000000e+000
    outer loop
      vertex -4.000000e+000 -1.820000e+001  0.000000e+000
      vertex -6.000000e+000 -1.620000e+001  0.000000e+000
      vertex -4.000000e+000 -1.620000e+001  0.000000e+000
    endloop
  endfacet
  facet normal  1.000000e+000  -0.000000e+000  0.000000e+000
    outer loop
      vertex -4.000000e+000 -1.620000e+001  4.000000e-001
      vertex -4.000000e+000 -1.820000e+001  4.000000e-001
      vertex -4.000000e+000 -1.620000e+001  0.000000e+000
    endloop
  endfacet
  facet normal  1.000000e+000  0.000000e+000  0.000000e+000
    outer loop
      vertex -4.000000e+000 -1.620000e+001  0.000000e+000
      vertex -4.000000e+000 -1.820000e+001  4.000000e-001
      vertex -4.000000e+000 -1.820000e+001  0.000000e+000
    endloop
  endfacet
  facet normal  0.000000e+000 -1.000000e+000  0.000000e+000
    outer loop
      vertex -4.000000e+000 -1.820000e+001  4.000000e-001
      vertex -6.000000e+000 -1.820000e+001  4.000000e-001
      vertex -4.000000e+000 -1.820000e+001  0.000000e+000
    endloop
  endfacet
  facet normal  0.000000e+000 -1.000000e+000  0.000000e+000
    outer loop
      vertex -4.000000e+000 -1.820000e+001  0.000000e+000
      vertex -6.000000e+000 -1.820000e+001  4.000000e-001
      vertex -6.000000e+000 -1.820000e+001  0.000000e+000
    endloop
  endfacet
  facet normal -1.000000e+000  -0.000000e+000  0.000000e+000
    outer loop
      vertex -6.000000e+000 -1.820000e+001  4.000000e-001
      vertex -6.000000e+000 -1.620000e+001  4.000000e-001
      vertex -6.000000e+000 -1.820000e+001  0.000000e+000
    endloop
  endfacet
  facet normal -1.000000e+000  0.000000e+000  0.000000e+000
    outer loop
      vertex -6.000000e+000 -1.820000e+001  0.000000e+000
      vertex -6.000000e+000 -1.620000e+001  4.000000e-001
      vertex -6.000000e+000 -1.620000e+001  0.000000e+000
    endloop
  endfacet
  facet normal  0.000000e+000  1.000000e+000  0.000000e+000
    outer loop
      vertex -6.000000e+000 -1.620000e+001  4.000000e-001
      vertex -4.000000e+000 -1.620000e+001  4.000000e-001
      vertex -6.000000e+000 -1.620000e+001  0.000000e+000
    endloop
  endfacet
  facet normal  0.000000e+000  1.000000e+000  0.000000e+000
    outer loop
      vertex -6.000000e+000 -1.620000e+001  0.000000e+000
      vertex -4.000000e+000 -1.620000e+001  4.000000e-001
      vertex -4.000000e+000 -1.620000e+001  0.000000e+000
    endloop
  endfacet
endsolid CATIA STL
