G04 #@! TF.GenerationSoftware,KiCad,Pcbnew,(5.1.4)-1*
G04 #@! TF.CreationDate,2022-10-21T16:14:19+02:00*
G04 #@! TF.ProjectId,REG1-Front-Universal,52454731-2d46-4726-9f6e-742d556e6976,V00.01*
G04 #@! TF.SameCoordinates,Original*
G04 #@! TF.FileFunction,Legend,Bot*
G04 #@! TF.FilePolarity,Positive*
%FSLAX46Y46*%
G04 Gerber Fmt 4.6, Leading zero omitted, Abs format (unit mm)*
G04 Created by KiCad (PCBNEW (5.1.4)-1) date 2022-10-21 16:14:19*
%MOMM*%
%LPD*%
G04 APERTURE LIST*
%ADD10C,0.150000*%
%ADD11C,0.100000*%
%ADD12C,0.120000*%
G04 APERTURE END LIST*
D10*
X110719047Y-110952380D02*
X110719047Y-111666666D01*
X110766666Y-111809523D01*
X110861904Y-111904761D01*
X111004761Y-111952380D01*
X111100000Y-111952380D01*
X109766666Y-111952380D02*
X110242857Y-111952380D01*
X110242857Y-110952380D01*
X108861904Y-111857142D02*
X108909523Y-111904761D01*
X109052380Y-111952380D01*
X109147619Y-111952380D01*
X109290476Y-111904761D01*
X109385714Y-111809523D01*
X109433333Y-111714285D01*
X109480952Y-111523809D01*
X109480952Y-111380952D01*
X109433333Y-111190476D01*
X109385714Y-111095238D01*
X109290476Y-111000000D01*
X109147619Y-110952380D01*
X109052380Y-110952380D01*
X108909523Y-111000000D01*
X108861904Y-111047619D01*
X108147619Y-110952380D02*
X108147619Y-111666666D01*
X108195238Y-111809523D01*
X108290476Y-111904761D01*
X108433333Y-111952380D01*
X108528571Y-111952380D01*
X107195238Y-111952380D02*
X107671428Y-111952380D01*
X107671428Y-110952380D01*
X106290476Y-111857142D02*
X106338095Y-111904761D01*
X106480952Y-111952380D01*
X106576190Y-111952380D01*
X106719047Y-111904761D01*
X106814285Y-111809523D01*
X106861904Y-111714285D01*
X106909523Y-111523809D01*
X106909523Y-111380952D01*
X106861904Y-111190476D01*
X106814285Y-111095238D01*
X106719047Y-111000000D01*
X106576190Y-110952380D01*
X106480952Y-110952380D01*
X106338095Y-111000000D01*
X106290476Y-111047619D01*
X105576190Y-110952380D02*
X105576190Y-111666666D01*
X105623809Y-111809523D01*
X105719047Y-111904761D01*
X105861904Y-111952380D01*
X105957142Y-111952380D01*
X104623809Y-111952380D02*
X105100000Y-111952380D01*
X105100000Y-110952380D01*
X103719047Y-111857142D02*
X103766666Y-111904761D01*
X103909523Y-111952380D01*
X104004761Y-111952380D01*
X104147619Y-111904761D01*
X104242857Y-111809523D01*
X104290476Y-111714285D01*
X104338095Y-111523809D01*
X104338095Y-111380952D01*
X104290476Y-111190476D01*
X104242857Y-111095238D01*
X104147619Y-111000000D01*
X104004761Y-110952380D01*
X103909523Y-110952380D01*
X103766666Y-111000000D01*
X103719047Y-111047619D01*
X103004761Y-110952380D02*
X103004761Y-111666666D01*
X103052380Y-111809523D01*
X103147619Y-111904761D01*
X103290476Y-111952380D01*
X103385714Y-111952380D01*
X102052380Y-111952380D02*
X102528571Y-111952380D01*
X102528571Y-110952380D01*
X101147619Y-111857142D02*
X101195238Y-111904761D01*
X101338095Y-111952380D01*
X101433333Y-111952380D01*
X101576190Y-111904761D01*
X101671428Y-111809523D01*
X101719047Y-111714285D01*
X101766666Y-111523809D01*
X101766666Y-111380952D01*
X101719047Y-111190476D01*
X101671428Y-111095238D01*
X101576190Y-111000000D01*
X101433333Y-110952380D01*
X101338095Y-110952380D01*
X101195238Y-111000000D01*
X101147619Y-111047619D01*
X109127380Y-131707023D02*
X108651190Y-131373690D01*
X109127380Y-131135595D02*
X108127380Y-131135595D01*
X108127380Y-131516547D01*
X108175000Y-131611785D01*
X108222619Y-131659404D01*
X108317857Y-131707023D01*
X108460714Y-131707023D01*
X108555952Y-131659404D01*
X108603571Y-131611785D01*
X108651190Y-131516547D01*
X108651190Y-131135595D01*
X108603571Y-132135595D02*
X108603571Y-132468928D01*
X109127380Y-132611785D02*
X109127380Y-132135595D01*
X108127380Y-132135595D01*
X108127380Y-132611785D01*
X108175000Y-133564166D02*
X108127380Y-133468928D01*
X108127380Y-133326071D01*
X108175000Y-133183214D01*
X108270238Y-133087976D01*
X108365476Y-133040357D01*
X108555952Y-132992738D01*
X108698809Y-132992738D01*
X108889285Y-133040357D01*
X108984523Y-133087976D01*
X109079761Y-133183214D01*
X109127380Y-133326071D01*
X109127380Y-133421309D01*
X109079761Y-133564166D01*
X109032142Y-133611785D01*
X108698809Y-133611785D01*
X108698809Y-133421309D01*
X109127380Y-134564166D02*
X109127380Y-133992738D01*
X109127380Y-134278452D02*
X108127380Y-134278452D01*
X108270238Y-134183214D01*
X108365476Y-134087976D01*
X108413095Y-133992738D01*
X108746428Y-134992738D02*
X108746428Y-135754642D01*
X108603571Y-136564166D02*
X108603571Y-136230833D01*
X109127380Y-136230833D02*
X108127380Y-136230833D01*
X108127380Y-136707023D01*
X109127380Y-137087976D02*
X108460714Y-137087976D01*
X108651190Y-137087976D02*
X108555952Y-137135595D01*
X108508333Y-137183214D01*
X108460714Y-137278452D01*
X108460714Y-137373690D01*
X109127380Y-137849880D02*
X109079761Y-137754642D01*
X109032142Y-137707023D01*
X108936904Y-137659404D01*
X108651190Y-137659404D01*
X108555952Y-137707023D01*
X108508333Y-137754642D01*
X108460714Y-137849880D01*
X108460714Y-137992738D01*
X108508333Y-138087976D01*
X108555952Y-138135595D01*
X108651190Y-138183214D01*
X108936904Y-138183214D01*
X109032142Y-138135595D01*
X109079761Y-138087976D01*
X109127380Y-137992738D01*
X109127380Y-137849880D01*
X108460714Y-138611785D02*
X109127380Y-138611785D01*
X108555952Y-138611785D02*
X108508333Y-138659404D01*
X108460714Y-138754642D01*
X108460714Y-138897500D01*
X108508333Y-138992738D01*
X108603571Y-139040357D01*
X109127380Y-139040357D01*
X108460714Y-139373690D02*
X108460714Y-139754642D01*
X108127380Y-139516547D02*
X108984523Y-139516547D01*
X109079761Y-139564166D01*
X109127380Y-139659404D01*
X109127380Y-139754642D01*
X108746428Y-140087976D02*
X108746428Y-140849880D01*
X108127380Y-141326071D02*
X108936904Y-141326071D01*
X109032142Y-141373690D01*
X109079761Y-141421309D01*
X109127380Y-141516547D01*
X109127380Y-141707023D01*
X109079761Y-141802261D01*
X109032142Y-141849880D01*
X108936904Y-141897500D01*
X108127380Y-141897500D01*
X108460714Y-142373690D02*
X109127380Y-142373690D01*
X108555952Y-142373690D02*
X108508333Y-142421309D01*
X108460714Y-142516547D01*
X108460714Y-142659404D01*
X108508333Y-142754642D01*
X108603571Y-142802261D01*
X109127380Y-142802261D01*
X109127380Y-143278452D02*
X108460714Y-143278452D01*
X108127380Y-143278452D02*
X108175000Y-143230833D01*
X108222619Y-143278452D01*
X108175000Y-143326071D01*
X108127380Y-143278452D01*
X108222619Y-143278452D01*
X108460714Y-143659404D02*
X109127380Y-143897500D01*
X108460714Y-144135595D01*
X109079761Y-144897500D02*
X109127380Y-144802261D01*
X109127380Y-144611785D01*
X109079761Y-144516547D01*
X108984523Y-144468928D01*
X108603571Y-144468928D01*
X108508333Y-144516547D01*
X108460714Y-144611785D01*
X108460714Y-144802261D01*
X108508333Y-144897500D01*
X108603571Y-144945119D01*
X108698809Y-144945119D01*
X108794047Y-144468928D01*
X109127380Y-145373690D02*
X108460714Y-145373690D01*
X108651190Y-145373690D02*
X108555952Y-145421309D01*
X108508333Y-145468928D01*
X108460714Y-145564166D01*
X108460714Y-145659404D01*
X109079761Y-145945119D02*
X109127380Y-146040357D01*
X109127380Y-146230833D01*
X109079761Y-146326071D01*
X108984523Y-146373690D01*
X108936904Y-146373690D01*
X108841666Y-146326071D01*
X108794047Y-146230833D01*
X108794047Y-146087976D01*
X108746428Y-145992738D01*
X108651190Y-145945119D01*
X108603571Y-145945119D01*
X108508333Y-145992738D01*
X108460714Y-146087976D01*
X108460714Y-146230833D01*
X108508333Y-146326071D01*
X109127380Y-147230833D02*
X108603571Y-147230833D01*
X108508333Y-147183214D01*
X108460714Y-147087976D01*
X108460714Y-146897500D01*
X108508333Y-146802261D01*
X109079761Y-147230833D02*
X109127380Y-147135595D01*
X109127380Y-146897500D01*
X109079761Y-146802261D01*
X108984523Y-146754642D01*
X108889285Y-146754642D01*
X108794047Y-146802261D01*
X108746428Y-146897500D01*
X108746428Y-147135595D01*
X108698809Y-147230833D01*
X109127380Y-147849880D02*
X109079761Y-147754642D01*
X108984523Y-147707023D01*
X108127380Y-147707023D01*
X109777380Y-130992738D02*
X110777380Y-131326071D01*
X109777380Y-131659404D01*
X109777380Y-132183214D02*
X109777380Y-132278452D01*
X109825000Y-132373690D01*
X109872619Y-132421309D01*
X109967857Y-132468928D01*
X110158333Y-132516547D01*
X110396428Y-132516547D01*
X110586904Y-132468928D01*
X110682142Y-132421309D01*
X110729761Y-132373690D01*
X110777380Y-132278452D01*
X110777380Y-132183214D01*
X110729761Y-132087976D01*
X110682142Y-132040357D01*
X110586904Y-131992738D01*
X110396428Y-131945119D01*
X110158333Y-131945119D01*
X109967857Y-131992738D01*
X109872619Y-132040357D01*
X109825000Y-132087976D01*
X109777380Y-132183214D01*
X109777380Y-133135595D02*
X109777380Y-133230833D01*
X109825000Y-133326071D01*
X109872619Y-133373690D01*
X109967857Y-133421309D01*
X110158333Y-133468928D01*
X110396428Y-133468928D01*
X110586904Y-133421309D01*
X110682142Y-133373690D01*
X110729761Y-133326071D01*
X110777380Y-133230833D01*
X110777380Y-133135595D01*
X110729761Y-133040357D01*
X110682142Y-132992738D01*
X110586904Y-132945119D01*
X110396428Y-132897500D01*
X110158333Y-132897500D01*
X109967857Y-132945119D01*
X109872619Y-132992738D01*
X109825000Y-133040357D01*
X109777380Y-133135595D01*
X110682142Y-133897500D02*
X110729761Y-133945119D01*
X110777380Y-133897500D01*
X110729761Y-133849880D01*
X110682142Y-133897500D01*
X110777380Y-133897500D01*
X109777380Y-134564166D02*
X109777380Y-134659404D01*
X109825000Y-134754642D01*
X109872619Y-134802261D01*
X109967857Y-134849880D01*
X110158333Y-134897500D01*
X110396428Y-134897500D01*
X110586904Y-134849880D01*
X110682142Y-134802261D01*
X110729761Y-134754642D01*
X110777380Y-134659404D01*
X110777380Y-134564166D01*
X110729761Y-134468928D01*
X110682142Y-134421309D01*
X110586904Y-134373690D01*
X110396428Y-134326071D01*
X110158333Y-134326071D01*
X109967857Y-134373690D01*
X109872619Y-134421309D01*
X109825000Y-134468928D01*
X109777380Y-134564166D01*
X110777380Y-135849880D02*
X110777380Y-135278452D01*
X110777380Y-135564166D02*
X109777380Y-135564166D01*
X109920238Y-135468928D01*
X110015476Y-135373690D01*
X110063095Y-135278452D01*
D11*
X113522142Y-120761904D02*
X113522142Y-119961904D01*
X113217380Y-119961904D01*
X113141190Y-120000000D01*
X113103095Y-120038095D01*
X113065000Y-120114285D01*
X113065000Y-120228571D01*
X113103095Y-120304761D01*
X113141190Y-120342857D01*
X113217380Y-120380952D01*
X113522142Y-120380952D01*
X112455476Y-120342857D02*
X112341190Y-120380952D01*
X112303095Y-120419047D01*
X112265000Y-120495238D01*
X112265000Y-120609523D01*
X112303095Y-120685714D01*
X112341190Y-120723809D01*
X112417380Y-120761904D01*
X112722142Y-120761904D01*
X112722142Y-119961904D01*
X112455476Y-119961904D01*
X112379285Y-120000000D01*
X112341190Y-120038095D01*
X112303095Y-120114285D01*
X112303095Y-120190476D01*
X112341190Y-120266666D01*
X112379285Y-120304761D01*
X112455476Y-120342857D01*
X112722142Y-120342857D01*
X112036428Y-119961904D02*
X111579285Y-119961904D01*
X111807857Y-120761904D02*
X111807857Y-119961904D01*
X111312619Y-120761904D02*
X111312619Y-119961904D01*
X110855476Y-120761904D01*
X110855476Y-119961904D01*
D10*
X103559642Y-125852380D02*
X102940595Y-125852380D01*
X103273928Y-126233333D01*
X103131071Y-126233333D01*
X103035833Y-126280952D01*
X102988214Y-126328571D01*
X102940595Y-126423809D01*
X102940595Y-126661904D01*
X102988214Y-126757142D01*
X103035833Y-126804761D01*
X103131071Y-126852380D01*
X103416785Y-126852380D01*
X103512023Y-126804761D01*
X103559642Y-126757142D01*
X102654880Y-125852380D02*
X102321547Y-126852380D01*
X101988214Y-125852380D01*
X101750119Y-125852380D02*
X101131071Y-125852380D01*
X101464404Y-126233333D01*
X101321547Y-126233333D01*
X101226309Y-126280952D01*
X101178690Y-126328571D01*
X101131071Y-126423809D01*
X101131071Y-126661904D01*
X101178690Y-126757142D01*
X101226309Y-126804761D01*
X101321547Y-126852380D01*
X101607261Y-126852380D01*
X101702500Y-126804761D01*
X101750119Y-126757142D01*
X102840595Y-123900000D02*
X102935833Y-123852380D01*
X103078690Y-123852380D01*
X103221547Y-123900000D01*
X103316785Y-123995238D01*
X103364404Y-124090476D01*
X103412023Y-124280952D01*
X103412023Y-124423809D01*
X103364404Y-124614285D01*
X103316785Y-124709523D01*
X103221547Y-124804761D01*
X103078690Y-124852380D01*
X102983452Y-124852380D01*
X102840595Y-124804761D01*
X102792976Y-124757142D01*
X102792976Y-124423809D01*
X102983452Y-124423809D01*
X102364404Y-124852380D02*
X102364404Y-123852380D01*
X101983452Y-123852380D01*
X101888214Y-123900000D01*
X101840595Y-123947619D01*
X101792976Y-124042857D01*
X101792976Y-124185714D01*
X101840595Y-124280952D01*
X101888214Y-124328571D01*
X101983452Y-124376190D01*
X102364404Y-124376190D01*
X101412023Y-123947619D02*
X101364404Y-123900000D01*
X101269166Y-123852380D01*
X101031071Y-123852380D01*
X100935833Y-123900000D01*
X100888214Y-123947619D01*
X100840595Y-124042857D01*
X100840595Y-124138095D01*
X100888214Y-124280952D01*
X101459642Y-124852380D01*
X100840595Y-124852380D01*
X99983452Y-124185714D02*
X99983452Y-124852380D01*
X100221547Y-123804761D02*
X100459642Y-124519047D01*
X99840595Y-124519047D01*
X102992976Y-122852380D02*
X103326309Y-122376190D01*
X103564404Y-122852380D02*
X103564404Y-121852380D01*
X103183452Y-121852380D01*
X103088214Y-121900000D01*
X103040595Y-121947619D01*
X102992976Y-122042857D01*
X102992976Y-122185714D01*
X103040595Y-122280952D01*
X103088214Y-122328571D01*
X103183452Y-122376190D01*
X103564404Y-122376190D01*
X102564404Y-122328571D02*
X102231071Y-122328571D01*
X102088214Y-122852380D02*
X102564404Y-122852380D01*
X102564404Y-121852380D01*
X102088214Y-121852380D01*
X101707261Y-122804761D02*
X101564404Y-122852380D01*
X101326309Y-122852380D01*
X101231071Y-122804761D01*
X101183452Y-122757142D01*
X101135833Y-122661904D01*
X101135833Y-122566666D01*
X101183452Y-122471428D01*
X101231071Y-122423809D01*
X101326309Y-122376190D01*
X101516785Y-122328571D01*
X101612023Y-122280952D01*
X101659642Y-122233333D01*
X101707261Y-122138095D01*
X101707261Y-122042857D01*
X101659642Y-121947619D01*
X101612023Y-121900000D01*
X101516785Y-121852380D01*
X101278690Y-121852380D01*
X101135833Y-121900000D01*
X103231071Y-120328571D02*
X103088214Y-120376190D01*
X103040595Y-120423809D01*
X102992976Y-120519047D01*
X102992976Y-120661904D01*
X103040595Y-120757142D01*
X103088214Y-120804761D01*
X103183452Y-120852380D01*
X103564404Y-120852380D01*
X103564404Y-119852380D01*
X103231071Y-119852380D01*
X103135833Y-119900000D01*
X103088214Y-119947619D01*
X103040595Y-120042857D01*
X103040595Y-120138095D01*
X103088214Y-120233333D01*
X103135833Y-120280952D01*
X103231071Y-120328571D01*
X103564404Y-120328571D01*
X102088214Y-120852380D02*
X102564404Y-120852380D01*
X102564404Y-119852380D01*
X112987976Y-121900000D02*
X113083214Y-121852380D01*
X113226071Y-121852380D01*
X113368928Y-121900000D01*
X113464166Y-121995238D01*
X113511785Y-122090476D01*
X113559404Y-122280952D01*
X113559404Y-122423809D01*
X113511785Y-122614285D01*
X113464166Y-122709523D01*
X113368928Y-122804761D01*
X113226071Y-122852380D01*
X113130833Y-122852380D01*
X112987976Y-122804761D01*
X112940357Y-122757142D01*
X112940357Y-122423809D01*
X113130833Y-122423809D01*
X112511785Y-122852380D02*
X112511785Y-121852380D01*
X112130833Y-121852380D01*
X112035595Y-121900000D01*
X111987976Y-121947619D01*
X111940357Y-122042857D01*
X111940357Y-122185714D01*
X111987976Y-122280952D01*
X112035595Y-122328571D01*
X112130833Y-122376190D01*
X112511785Y-122376190D01*
X111607023Y-121852380D02*
X110987976Y-121852380D01*
X111321309Y-122233333D01*
X111178452Y-122233333D01*
X111083214Y-122280952D01*
X111035595Y-122328571D01*
X110987976Y-122423809D01*
X110987976Y-122661904D01*
X111035595Y-122757142D01*
X111083214Y-122804761D01*
X111178452Y-122852380D01*
X111464166Y-122852380D01*
X111559404Y-122804761D01*
X111607023Y-122757142D01*
D11*
X113545952Y-124861904D02*
X113545952Y-124061904D01*
X113241190Y-124061904D01*
X113165000Y-124100000D01*
X113126904Y-124138095D01*
X113088809Y-124214285D01*
X113088809Y-124328571D01*
X113126904Y-124404761D01*
X113165000Y-124442857D01*
X113241190Y-124480952D01*
X113545952Y-124480952D01*
X112365000Y-124861904D02*
X112745952Y-124861904D01*
X112745952Y-124061904D01*
X112098333Y-124442857D02*
X111831666Y-124442857D01*
X111717380Y-124861904D02*
X112098333Y-124861904D01*
X112098333Y-124061904D01*
X111717380Y-124061904D01*
X111374523Y-124861904D02*
X111374523Y-124061904D01*
X111184047Y-124061904D01*
X111069761Y-124100000D01*
X110993571Y-124176190D01*
X110955476Y-124252380D01*
X110917380Y-124404761D01*
X110917380Y-124519047D01*
X110955476Y-124671428D01*
X110993571Y-124747619D01*
X111069761Y-124823809D01*
X111184047Y-124861904D01*
X111374523Y-124861904D01*
D10*
X113083214Y-126000000D02*
X113178452Y-125952380D01*
X113321309Y-125952380D01*
X113464166Y-126000000D01*
X113559404Y-126095238D01*
X113607023Y-126190476D01*
X113654642Y-126380952D01*
X113654642Y-126523809D01*
X113607023Y-126714285D01*
X113559404Y-126809523D01*
X113464166Y-126904761D01*
X113321309Y-126952380D01*
X113226071Y-126952380D01*
X113083214Y-126904761D01*
X113035595Y-126857142D01*
X113035595Y-126523809D01*
X113226071Y-126523809D01*
X112607023Y-126952380D02*
X112607023Y-125952380D01*
X112035595Y-126952380D01*
X112035595Y-125952380D01*
X111559404Y-126952380D02*
X111559404Y-125952380D01*
X111321309Y-125952380D01*
X111178452Y-126000000D01*
X111083214Y-126095238D01*
X111035595Y-126190476D01*
X110987976Y-126380952D01*
X110987976Y-126523809D01*
X111035595Y-126714285D01*
X111083214Y-126809523D01*
X111178452Y-126904761D01*
X111321309Y-126952380D01*
X111559404Y-126952380D01*
D12*
X109360000Y-121640000D02*
X109360000Y-121160000D01*
X105240000Y-121640000D02*
X105240000Y-121160000D01*
X109360000Y-123640000D02*
X109360000Y-123160000D01*
X105240000Y-123640000D02*
X105240000Y-123160000D01*
X109360000Y-125640000D02*
X109360000Y-125160000D01*
X105240000Y-125640000D02*
X105240000Y-125160000D01*
X109360000Y-119640000D02*
X109360000Y-119340000D01*
X105240000Y-119640000D02*
X105240000Y-119340000D01*
X109360000Y-127460000D02*
X109360000Y-127160000D01*
X105240000Y-127460000D02*
X105240000Y-127160000D01*
X103985000Y-127160000D02*
X105240000Y-127160000D01*
X105240000Y-119340000D02*
X109360000Y-119340000D01*
X105240000Y-127460000D02*
X109360000Y-127460000D01*
D10*
X108033333Y-117852380D02*
X108033333Y-118566666D01*
X108080952Y-118709523D01*
X108176190Y-118804761D01*
X108319047Y-118852380D01*
X108414285Y-118852380D01*
X107033333Y-118852380D02*
X107604761Y-118852380D01*
X107319047Y-118852380D02*
X107319047Y-117852380D01*
X107414285Y-117995238D01*
X107509523Y-118090476D01*
X107604761Y-118138095D01*
M02*
