G04 #@! TF.GenerationSoftware,KiCad,Pcbnew,(5.1.4)-1*
G04 #@! TF.CreationDate,2022-10-21T16:14:19+02:00*
G04 #@! TF.ProjectId,REG1-Front-Universal,52454731-2d46-4726-9f6e-742d556e6976,V00.01*
G04 #@! TF.SameCoordinates,Original*
G04 #@! TF.FileFunction,Copper,L2,Bot*
G04 #@! TF.FilePolarity,Positive*
%FSLAX46Y46*%
G04 Gerber Fmt 4.6, Leading zero omitted, Abs format (unit mm)*
G04 Created by KiCad (PCBNEW (5.1.4)-1) date 2022-10-21 16:14:19*
%MOMM*%
%LPD*%
G04 APERTURE LIST*
%ADD10R,2.580000X1.000000*%
%ADD11C,0.600000*%
%ADD12C,0.200000*%
G04 APERTURE END LIST*
D10*
X109385000Y-120400000D03*
X105215000Y-120400000D03*
X109385000Y-122400000D03*
X105215000Y-122400000D03*
X109385000Y-124400000D03*
X105215000Y-124400000D03*
X109385000Y-126400000D03*
X105215000Y-126400000D03*
D11*
X113100000Y-121100000D03*
X113200000Y-127100000D03*
X101200000Y-119300000D03*
X101000000Y-125400000D03*
X101100000Y-133400000D03*
X101100000Y-139300000D03*
X102900000Y-132600000D03*
X113100000Y-118200000D03*
X102800000Y-118600000D03*
X102900000Y-124700000D03*
X112600000Y-124200000D03*
X102900000Y-138600000D03*
D12*
X101100000Y-133400000D02*
X101100000Y-125500000D01*
X101100000Y-125500000D02*
X101000000Y-125400000D01*
X101100000Y-139300000D02*
X101100000Y-133400000D01*
X113200000Y-127100000D02*
X113200000Y-126675736D01*
X113200000Y-126675736D02*
X113160001Y-126635737D01*
X113160001Y-126635737D02*
X113160001Y-121584265D01*
X113160001Y-121584265D02*
X113100000Y-121524264D01*
X113100000Y-121524264D02*
X113100000Y-121100000D01*
X101200000Y-119300000D02*
X101200000Y-125200000D01*
X101200000Y-125200000D02*
X101000000Y-125400000D01*
X109385000Y-127100000D02*
X109385000Y-126400000D01*
X109385000Y-132943802D02*
X109385000Y-127100000D01*
X103028802Y-139300000D02*
X109385000Y-132943802D01*
X101100000Y-139300000D02*
X103028802Y-139300000D01*
X113200000Y-127100000D02*
X112400000Y-127100000D01*
X111700000Y-126400000D02*
X109385000Y-126400000D01*
X112400000Y-127100000D02*
X111700000Y-126400000D01*
X106005000Y-122400000D02*
X107100000Y-123495000D01*
X105215000Y-122400000D02*
X106005000Y-122400000D01*
X107100000Y-128400000D02*
X102900000Y-132600000D01*
X107100000Y-123495000D02*
X107100000Y-128400000D01*
X113100000Y-118200000D02*
X113100000Y-119000000D01*
X113100000Y-119000000D02*
X110700000Y-121400000D01*
X110700000Y-121400000D02*
X107800000Y-121400000D01*
X107800000Y-121400000D02*
X107600000Y-121600000D01*
X108595000Y-124400000D02*
X109385000Y-124400000D01*
X107600000Y-123405000D02*
X108595000Y-124400000D01*
X107600000Y-121600000D02*
X107600000Y-123405000D01*
X109385000Y-119700000D02*
X109385000Y-120400000D01*
X108285000Y-118600000D02*
X109385000Y-119700000D01*
X102800000Y-118600000D02*
X108285000Y-118600000D01*
X103199999Y-124400001D02*
X102900000Y-124700000D01*
X105215000Y-124400000D02*
X103199999Y-124400001D01*
X110875000Y-122400000D02*
X109385000Y-122400000D01*
X111224264Y-122400000D02*
X110875000Y-122400000D01*
X112600000Y-123775736D02*
X111224264Y-122400000D01*
X112600000Y-124200000D02*
X112600000Y-123775736D01*
X101800000Y-137500000D02*
X102900000Y-138600000D01*
X101800000Y-122325000D02*
X101800000Y-137500000D01*
X105215000Y-120400000D02*
X103725000Y-120400000D01*
X103725000Y-120400000D02*
X101800000Y-122325000D01*
M02*
