G04 #@! TF.GenerationSoftware,KiCad,Pcbnew,(5.1.4)-1*
G04 #@! TF.CreationDate,2022-10-21T16:14:19+02:00*
G04 #@! TF.ProjectId,REG1-Front-Universal,52454731-2d46-4726-9f6e-742d556e6976,V00.01*
G04 #@! TF.SameCoordinates,Original*
G04 #@! TF.FileFunction,Soldermask,Top*
G04 #@! TF.FilePolarity,Negative*
%FSLAX46Y46*%
G04 Gerber Fmt 4.6, Leading zero omitted, Abs format (unit mm)*
G04 Created by KiCad (PCBNEW (5.1.4)-1) date 2022-10-21 16:14:19*
%MOMM*%
%LPD*%
G04 APERTURE LIST*
%ADD10C,0.100000*%
G04 APERTURE END LIST*
D10*
G36*
X104801000Y-140451000D02*
G01*
X103499000Y-140451000D01*
X103499000Y-139699000D01*
X104801000Y-139699000D01*
X104801000Y-140451000D01*
X104801000Y-140451000D01*
G37*
G36*
X100501000Y-140451000D02*
G01*
X99199000Y-140451000D01*
X99199000Y-139699000D01*
X100501000Y-139699000D01*
X100501000Y-140451000D01*
X100501000Y-140451000D01*
G37*
G36*
X104801000Y-138301000D02*
G01*
X103499000Y-138301000D01*
X103499000Y-137549000D01*
X104801000Y-137549000D01*
X104801000Y-138301000D01*
X104801000Y-138301000D01*
G37*
G36*
X100501000Y-138301000D02*
G01*
X99199000Y-138301000D01*
X99199000Y-137549000D01*
X100501000Y-137549000D01*
X100501000Y-138301000D01*
X100501000Y-138301000D01*
G37*
G36*
X100501000Y-134451000D02*
G01*
X99199000Y-134451000D01*
X99199000Y-133699000D01*
X100501000Y-133699000D01*
X100501000Y-134451000D01*
X100501000Y-134451000D01*
G37*
G36*
X104801000Y-134451000D02*
G01*
X103499000Y-134451000D01*
X103499000Y-133699000D01*
X104801000Y-133699000D01*
X104801000Y-134451000D01*
X104801000Y-134451000D01*
G37*
G36*
X104801000Y-132301000D02*
G01*
X103499000Y-132301000D01*
X103499000Y-131549000D01*
X104801000Y-131549000D01*
X104801000Y-132301000D01*
X104801000Y-132301000D01*
G37*
G36*
X100501000Y-132301000D02*
G01*
X99199000Y-132301000D01*
X99199000Y-131549000D01*
X100501000Y-131549000D01*
X100501000Y-132301000D01*
X100501000Y-132301000D01*
G37*
G36*
X112211824Y-126732080D02*
G01*
X112239545Y-126740490D01*
X112265089Y-126754144D01*
X112287480Y-126772520D01*
X112305856Y-126794911D01*
X112319510Y-126820455D01*
X112327920Y-126848176D01*
X112331000Y-126879453D01*
X112331000Y-127320547D01*
X112327920Y-127351824D01*
X112319510Y-127379545D01*
X112305856Y-127405089D01*
X112287480Y-127427480D01*
X112265089Y-127445856D01*
X112239545Y-127459510D01*
X112211824Y-127467920D01*
X112180547Y-127471000D01*
X111789453Y-127471000D01*
X111758176Y-127467920D01*
X111730455Y-127459510D01*
X111704911Y-127445856D01*
X111682520Y-127427480D01*
X111664144Y-127405089D01*
X111650490Y-127379545D01*
X111642080Y-127351824D01*
X111639000Y-127320547D01*
X111639000Y-126879453D01*
X111642080Y-126848176D01*
X111650490Y-126820455D01*
X111664144Y-126794911D01*
X111682520Y-126772520D01*
X111704911Y-126754144D01*
X111730455Y-126740490D01*
X111758176Y-126732080D01*
X111789453Y-126729000D01*
X112180547Y-126729000D01*
X112211824Y-126732080D01*
X112211824Y-126732080D01*
G37*
G36*
X111241824Y-126732080D02*
G01*
X111269545Y-126740490D01*
X111295089Y-126754144D01*
X111317480Y-126772520D01*
X111335856Y-126794911D01*
X111349510Y-126820455D01*
X111357920Y-126848176D01*
X111361000Y-126879453D01*
X111361000Y-127320547D01*
X111357920Y-127351824D01*
X111349510Y-127379545D01*
X111335856Y-127405089D01*
X111317480Y-127427480D01*
X111295089Y-127445856D01*
X111269545Y-127459510D01*
X111241824Y-127467920D01*
X111210547Y-127471000D01*
X110819453Y-127471000D01*
X110788176Y-127467920D01*
X110760455Y-127459510D01*
X110734911Y-127445856D01*
X110712520Y-127427480D01*
X110694144Y-127405089D01*
X110680490Y-127379545D01*
X110672080Y-127351824D01*
X110669000Y-127320547D01*
X110669000Y-126879453D01*
X110672080Y-126848176D01*
X110680490Y-126820455D01*
X110694144Y-126794911D01*
X110712520Y-126772520D01*
X110734911Y-126754144D01*
X110760455Y-126740490D01*
X110788176Y-126732080D01*
X110819453Y-126729000D01*
X111210547Y-126729000D01*
X111241824Y-126732080D01*
X111241824Y-126732080D01*
G37*
G36*
X100501000Y-126451000D02*
G01*
X99199000Y-126451000D01*
X99199000Y-125699000D01*
X100501000Y-125699000D01*
X100501000Y-126451000D01*
X100501000Y-126451000D01*
G37*
G36*
X104801000Y-126451000D02*
G01*
X103499000Y-126451000D01*
X103499000Y-125699000D01*
X104801000Y-125699000D01*
X104801000Y-126451000D01*
X104801000Y-126451000D01*
G37*
G36*
X111849477Y-125303450D02*
G01*
X111890559Y-125315912D01*
X111928424Y-125336152D01*
X111961612Y-125363388D01*
X111988848Y-125396576D01*
X112009088Y-125434441D01*
X112021550Y-125475523D01*
X112026000Y-125520704D01*
X112026000Y-126054296D01*
X112021550Y-126099477D01*
X112009088Y-126140559D01*
X111988848Y-126178424D01*
X111961612Y-126211612D01*
X111928424Y-126238848D01*
X111890559Y-126259088D01*
X111849477Y-126271550D01*
X111804296Y-126276000D01*
X111195704Y-126276000D01*
X111150523Y-126271550D01*
X111109441Y-126259088D01*
X111071576Y-126238848D01*
X111038388Y-126211612D01*
X111011152Y-126178424D01*
X110990912Y-126140559D01*
X110978450Y-126099477D01*
X110974000Y-126054296D01*
X110974000Y-125520704D01*
X110978450Y-125475523D01*
X110990912Y-125434441D01*
X111011152Y-125396576D01*
X111038388Y-125363388D01*
X111071576Y-125336152D01*
X111109441Y-125315912D01*
X111150523Y-125303450D01*
X111195704Y-125299000D01*
X111804296Y-125299000D01*
X111849477Y-125303450D01*
X111849477Y-125303450D01*
G37*
G36*
X111849477Y-123728450D02*
G01*
X111890559Y-123740912D01*
X111928424Y-123761152D01*
X111961612Y-123788388D01*
X111988848Y-123821576D01*
X112009088Y-123859441D01*
X112021550Y-123900523D01*
X112026000Y-123945704D01*
X112026000Y-124479296D01*
X112021550Y-124524477D01*
X112009088Y-124565559D01*
X111988848Y-124603424D01*
X111961612Y-124636612D01*
X111928424Y-124663848D01*
X111890559Y-124684088D01*
X111849477Y-124696550D01*
X111804296Y-124701000D01*
X111195704Y-124701000D01*
X111150523Y-124696550D01*
X111109441Y-124684088D01*
X111071576Y-124663848D01*
X111038388Y-124636612D01*
X111011152Y-124603424D01*
X110990912Y-124565559D01*
X110978450Y-124524477D01*
X110974000Y-124479296D01*
X110974000Y-123945704D01*
X110978450Y-123900523D01*
X110990912Y-123859441D01*
X111011152Y-123821576D01*
X111038388Y-123788388D01*
X111071576Y-123761152D01*
X111109441Y-123740912D01*
X111150523Y-123728450D01*
X111195704Y-123724000D01*
X111804296Y-123724000D01*
X111849477Y-123728450D01*
X111849477Y-123728450D01*
G37*
G36*
X100501000Y-124301000D02*
G01*
X99199000Y-124301000D01*
X99199000Y-123549000D01*
X100501000Y-123549000D01*
X100501000Y-124301000D01*
X100501000Y-124301000D01*
G37*
G36*
X104801000Y-124301000D02*
G01*
X103499000Y-124301000D01*
X103499000Y-123549000D01*
X104801000Y-123549000D01*
X104801000Y-124301000D01*
X104801000Y-124301000D01*
G37*
G36*
X111241824Y-120732080D02*
G01*
X111269545Y-120740490D01*
X111295089Y-120754144D01*
X111317480Y-120772520D01*
X111335856Y-120794911D01*
X111349510Y-120820455D01*
X111357920Y-120848176D01*
X111361000Y-120879453D01*
X111361000Y-121320547D01*
X111357920Y-121351824D01*
X111349510Y-121379545D01*
X111335856Y-121405089D01*
X111317480Y-121427480D01*
X111295089Y-121445856D01*
X111269545Y-121459510D01*
X111241824Y-121467920D01*
X111210547Y-121471000D01*
X110819453Y-121471000D01*
X110788176Y-121467920D01*
X110760455Y-121459510D01*
X110734911Y-121445856D01*
X110712520Y-121427480D01*
X110694144Y-121405089D01*
X110680490Y-121379545D01*
X110672080Y-121351824D01*
X110669000Y-121320547D01*
X110669000Y-120879453D01*
X110672080Y-120848176D01*
X110680490Y-120820455D01*
X110694144Y-120794911D01*
X110712520Y-120772520D01*
X110734911Y-120754144D01*
X110760455Y-120740490D01*
X110788176Y-120732080D01*
X110819453Y-120729000D01*
X111210547Y-120729000D01*
X111241824Y-120732080D01*
X111241824Y-120732080D01*
G37*
G36*
X112211824Y-120732080D02*
G01*
X112239545Y-120740490D01*
X112265089Y-120754144D01*
X112287480Y-120772520D01*
X112305856Y-120794911D01*
X112319510Y-120820455D01*
X112327920Y-120848176D01*
X112331000Y-120879453D01*
X112331000Y-121320547D01*
X112327920Y-121351824D01*
X112319510Y-121379545D01*
X112305856Y-121405089D01*
X112287480Y-121427480D01*
X112265089Y-121445856D01*
X112239545Y-121459510D01*
X112211824Y-121467920D01*
X112180547Y-121471000D01*
X111789453Y-121471000D01*
X111758176Y-121467920D01*
X111730455Y-121459510D01*
X111704911Y-121445856D01*
X111682520Y-121427480D01*
X111664144Y-121405089D01*
X111650490Y-121379545D01*
X111642080Y-121351824D01*
X111639000Y-121320547D01*
X111639000Y-120879453D01*
X111642080Y-120848176D01*
X111650490Y-120820455D01*
X111664144Y-120794911D01*
X111682520Y-120772520D01*
X111704911Y-120754144D01*
X111730455Y-120740490D01*
X111758176Y-120732080D01*
X111789453Y-120729000D01*
X112180547Y-120729000D01*
X112211824Y-120732080D01*
X112211824Y-120732080D01*
G37*
G36*
X100501000Y-120451000D02*
G01*
X99199000Y-120451000D01*
X99199000Y-119699000D01*
X100501000Y-119699000D01*
X100501000Y-120451000D01*
X100501000Y-120451000D01*
G37*
G36*
X104801000Y-120451000D02*
G01*
X103499000Y-120451000D01*
X103499000Y-119699000D01*
X104801000Y-119699000D01*
X104801000Y-120451000D01*
X104801000Y-120451000D01*
G37*
G36*
X111849477Y-119303450D02*
G01*
X111890559Y-119315912D01*
X111928424Y-119336152D01*
X111961612Y-119363388D01*
X111988848Y-119396576D01*
X112009088Y-119434441D01*
X112021550Y-119475523D01*
X112026000Y-119520704D01*
X112026000Y-120054296D01*
X112021550Y-120099477D01*
X112009088Y-120140559D01*
X111988848Y-120178424D01*
X111961612Y-120211612D01*
X111928424Y-120238848D01*
X111890559Y-120259088D01*
X111849477Y-120271550D01*
X111804296Y-120276000D01*
X111195704Y-120276000D01*
X111150523Y-120271550D01*
X111109441Y-120259088D01*
X111071576Y-120238848D01*
X111038388Y-120211612D01*
X111011152Y-120178424D01*
X110990912Y-120140559D01*
X110978450Y-120099477D01*
X110974000Y-120054296D01*
X110974000Y-119520704D01*
X110978450Y-119475523D01*
X110990912Y-119434441D01*
X111011152Y-119396576D01*
X111038388Y-119363388D01*
X111071576Y-119336152D01*
X111109441Y-119315912D01*
X111150523Y-119303450D01*
X111195704Y-119299000D01*
X111804296Y-119299000D01*
X111849477Y-119303450D01*
X111849477Y-119303450D01*
G37*
G36*
X111849477Y-117728450D02*
G01*
X111890559Y-117740912D01*
X111928424Y-117761152D01*
X111961612Y-117788388D01*
X111988848Y-117821576D01*
X112009088Y-117859441D01*
X112021550Y-117900523D01*
X112026000Y-117945704D01*
X112026000Y-118479296D01*
X112021550Y-118524477D01*
X112009088Y-118565559D01*
X111988848Y-118603424D01*
X111961612Y-118636612D01*
X111928424Y-118663848D01*
X111890559Y-118684088D01*
X111849477Y-118696550D01*
X111804296Y-118701000D01*
X111195704Y-118701000D01*
X111150523Y-118696550D01*
X111109441Y-118684088D01*
X111071576Y-118663848D01*
X111038388Y-118636612D01*
X111011152Y-118603424D01*
X110990912Y-118565559D01*
X110978450Y-118524477D01*
X110974000Y-118479296D01*
X110974000Y-117945704D01*
X110978450Y-117900523D01*
X110990912Y-117859441D01*
X111011152Y-117821576D01*
X111038388Y-117788388D01*
X111071576Y-117761152D01*
X111109441Y-117740912D01*
X111150523Y-117728450D01*
X111195704Y-117724000D01*
X111804296Y-117724000D01*
X111849477Y-117728450D01*
X111849477Y-117728450D01*
G37*
G36*
X100501000Y-118301000D02*
G01*
X99199000Y-118301000D01*
X99199000Y-117549000D01*
X100501000Y-117549000D01*
X100501000Y-118301000D01*
X100501000Y-118301000D01*
G37*
G36*
X104801000Y-118301000D02*
G01*
X103499000Y-118301000D01*
X103499000Y-117549000D01*
X104801000Y-117549000D01*
X104801000Y-118301000D01*
X104801000Y-118301000D01*
G37*
M02*
