G04 #@! TF.GenerationSoftware,KiCad,Pcbnew,(5.1.4)-1*
G04 #@! TF.CreationDate,2022-10-21T16:14:19+02:00*
G04 #@! TF.ProjectId,REG1-Front-Universal,52454731-2d46-4726-9f6e-742d556e6976,V00.01*
G04 #@! TF.SameCoordinates,Original*
G04 #@! TF.FileFunction,Paste,Top*
G04 #@! TF.FilePolarity,Positive*
%FSLAX46Y46*%
G04 Gerber Fmt 4.6, Leading zero omitted, Abs format (unit mm)*
G04 Created by KiCad (PCBNEW (5.1.4)-1) date 2022-10-21 16:14:19*
%MOMM*%
%LPD*%
G04 APERTURE LIST*
%ADD10C,0.100000*%
%ADD11C,0.875000*%
%ADD12R,1.200000X0.650000*%
%ADD13C,0.590000*%
G04 APERTURE END LIST*
D10*
G36*
X111777691Y-117776053D02*
G01*
X111798926Y-117779203D01*
X111819750Y-117784419D01*
X111839962Y-117791651D01*
X111859368Y-117800830D01*
X111877781Y-117811866D01*
X111895024Y-117824654D01*
X111910930Y-117839070D01*
X111925346Y-117854976D01*
X111938134Y-117872219D01*
X111949170Y-117890632D01*
X111958349Y-117910038D01*
X111965581Y-117930250D01*
X111970797Y-117951074D01*
X111973947Y-117972309D01*
X111975000Y-117993750D01*
X111975000Y-118431250D01*
X111973947Y-118452691D01*
X111970797Y-118473926D01*
X111965581Y-118494750D01*
X111958349Y-118514962D01*
X111949170Y-118534368D01*
X111938134Y-118552781D01*
X111925346Y-118570024D01*
X111910930Y-118585930D01*
X111895024Y-118600346D01*
X111877781Y-118613134D01*
X111859368Y-118624170D01*
X111839962Y-118633349D01*
X111819750Y-118640581D01*
X111798926Y-118645797D01*
X111777691Y-118648947D01*
X111756250Y-118650000D01*
X111243750Y-118650000D01*
X111222309Y-118648947D01*
X111201074Y-118645797D01*
X111180250Y-118640581D01*
X111160038Y-118633349D01*
X111140632Y-118624170D01*
X111122219Y-118613134D01*
X111104976Y-118600346D01*
X111089070Y-118585930D01*
X111074654Y-118570024D01*
X111061866Y-118552781D01*
X111050830Y-118534368D01*
X111041651Y-118514962D01*
X111034419Y-118494750D01*
X111029203Y-118473926D01*
X111026053Y-118452691D01*
X111025000Y-118431250D01*
X111025000Y-117993750D01*
X111026053Y-117972309D01*
X111029203Y-117951074D01*
X111034419Y-117930250D01*
X111041651Y-117910038D01*
X111050830Y-117890632D01*
X111061866Y-117872219D01*
X111074654Y-117854976D01*
X111089070Y-117839070D01*
X111104976Y-117824654D01*
X111122219Y-117811866D01*
X111140632Y-117800830D01*
X111160038Y-117791651D01*
X111180250Y-117784419D01*
X111201074Y-117779203D01*
X111222309Y-117776053D01*
X111243750Y-117775000D01*
X111756250Y-117775000D01*
X111777691Y-117776053D01*
X111777691Y-117776053D01*
G37*
D11*
X111500000Y-118212500D03*
D10*
G36*
X111777691Y-119351053D02*
G01*
X111798926Y-119354203D01*
X111819750Y-119359419D01*
X111839962Y-119366651D01*
X111859368Y-119375830D01*
X111877781Y-119386866D01*
X111895024Y-119399654D01*
X111910930Y-119414070D01*
X111925346Y-119429976D01*
X111938134Y-119447219D01*
X111949170Y-119465632D01*
X111958349Y-119485038D01*
X111965581Y-119505250D01*
X111970797Y-119526074D01*
X111973947Y-119547309D01*
X111975000Y-119568750D01*
X111975000Y-120006250D01*
X111973947Y-120027691D01*
X111970797Y-120048926D01*
X111965581Y-120069750D01*
X111958349Y-120089962D01*
X111949170Y-120109368D01*
X111938134Y-120127781D01*
X111925346Y-120145024D01*
X111910930Y-120160930D01*
X111895024Y-120175346D01*
X111877781Y-120188134D01*
X111859368Y-120199170D01*
X111839962Y-120208349D01*
X111819750Y-120215581D01*
X111798926Y-120220797D01*
X111777691Y-120223947D01*
X111756250Y-120225000D01*
X111243750Y-120225000D01*
X111222309Y-120223947D01*
X111201074Y-120220797D01*
X111180250Y-120215581D01*
X111160038Y-120208349D01*
X111140632Y-120199170D01*
X111122219Y-120188134D01*
X111104976Y-120175346D01*
X111089070Y-120160930D01*
X111074654Y-120145024D01*
X111061866Y-120127781D01*
X111050830Y-120109368D01*
X111041651Y-120089962D01*
X111034419Y-120069750D01*
X111029203Y-120048926D01*
X111026053Y-120027691D01*
X111025000Y-120006250D01*
X111025000Y-119568750D01*
X111026053Y-119547309D01*
X111029203Y-119526074D01*
X111034419Y-119505250D01*
X111041651Y-119485038D01*
X111050830Y-119465632D01*
X111061866Y-119447219D01*
X111074654Y-119429976D01*
X111089070Y-119414070D01*
X111104976Y-119399654D01*
X111122219Y-119386866D01*
X111140632Y-119375830D01*
X111160038Y-119366651D01*
X111180250Y-119359419D01*
X111201074Y-119354203D01*
X111222309Y-119351053D01*
X111243750Y-119350000D01*
X111756250Y-119350000D01*
X111777691Y-119351053D01*
X111777691Y-119351053D01*
G37*
D11*
X111500000Y-119787500D03*
D10*
G36*
X111777691Y-123776053D02*
G01*
X111798926Y-123779203D01*
X111819750Y-123784419D01*
X111839962Y-123791651D01*
X111859368Y-123800830D01*
X111877781Y-123811866D01*
X111895024Y-123824654D01*
X111910930Y-123839070D01*
X111925346Y-123854976D01*
X111938134Y-123872219D01*
X111949170Y-123890632D01*
X111958349Y-123910038D01*
X111965581Y-123930250D01*
X111970797Y-123951074D01*
X111973947Y-123972309D01*
X111975000Y-123993750D01*
X111975000Y-124431250D01*
X111973947Y-124452691D01*
X111970797Y-124473926D01*
X111965581Y-124494750D01*
X111958349Y-124514962D01*
X111949170Y-124534368D01*
X111938134Y-124552781D01*
X111925346Y-124570024D01*
X111910930Y-124585930D01*
X111895024Y-124600346D01*
X111877781Y-124613134D01*
X111859368Y-124624170D01*
X111839962Y-124633349D01*
X111819750Y-124640581D01*
X111798926Y-124645797D01*
X111777691Y-124648947D01*
X111756250Y-124650000D01*
X111243750Y-124650000D01*
X111222309Y-124648947D01*
X111201074Y-124645797D01*
X111180250Y-124640581D01*
X111160038Y-124633349D01*
X111140632Y-124624170D01*
X111122219Y-124613134D01*
X111104976Y-124600346D01*
X111089070Y-124585930D01*
X111074654Y-124570024D01*
X111061866Y-124552781D01*
X111050830Y-124534368D01*
X111041651Y-124514962D01*
X111034419Y-124494750D01*
X111029203Y-124473926D01*
X111026053Y-124452691D01*
X111025000Y-124431250D01*
X111025000Y-123993750D01*
X111026053Y-123972309D01*
X111029203Y-123951074D01*
X111034419Y-123930250D01*
X111041651Y-123910038D01*
X111050830Y-123890632D01*
X111061866Y-123872219D01*
X111074654Y-123854976D01*
X111089070Y-123839070D01*
X111104976Y-123824654D01*
X111122219Y-123811866D01*
X111140632Y-123800830D01*
X111160038Y-123791651D01*
X111180250Y-123784419D01*
X111201074Y-123779203D01*
X111222309Y-123776053D01*
X111243750Y-123775000D01*
X111756250Y-123775000D01*
X111777691Y-123776053D01*
X111777691Y-123776053D01*
G37*
D11*
X111500000Y-124212500D03*
D10*
G36*
X111777691Y-125351053D02*
G01*
X111798926Y-125354203D01*
X111819750Y-125359419D01*
X111839962Y-125366651D01*
X111859368Y-125375830D01*
X111877781Y-125386866D01*
X111895024Y-125399654D01*
X111910930Y-125414070D01*
X111925346Y-125429976D01*
X111938134Y-125447219D01*
X111949170Y-125465632D01*
X111958349Y-125485038D01*
X111965581Y-125505250D01*
X111970797Y-125526074D01*
X111973947Y-125547309D01*
X111975000Y-125568750D01*
X111975000Y-126006250D01*
X111973947Y-126027691D01*
X111970797Y-126048926D01*
X111965581Y-126069750D01*
X111958349Y-126089962D01*
X111949170Y-126109368D01*
X111938134Y-126127781D01*
X111925346Y-126145024D01*
X111910930Y-126160930D01*
X111895024Y-126175346D01*
X111877781Y-126188134D01*
X111859368Y-126199170D01*
X111839962Y-126208349D01*
X111819750Y-126215581D01*
X111798926Y-126220797D01*
X111777691Y-126223947D01*
X111756250Y-126225000D01*
X111243750Y-126225000D01*
X111222309Y-126223947D01*
X111201074Y-126220797D01*
X111180250Y-126215581D01*
X111160038Y-126208349D01*
X111140632Y-126199170D01*
X111122219Y-126188134D01*
X111104976Y-126175346D01*
X111089070Y-126160930D01*
X111074654Y-126145024D01*
X111061866Y-126127781D01*
X111050830Y-126109368D01*
X111041651Y-126089962D01*
X111034419Y-126069750D01*
X111029203Y-126048926D01*
X111026053Y-126027691D01*
X111025000Y-126006250D01*
X111025000Y-125568750D01*
X111026053Y-125547309D01*
X111029203Y-125526074D01*
X111034419Y-125505250D01*
X111041651Y-125485038D01*
X111050830Y-125465632D01*
X111061866Y-125447219D01*
X111074654Y-125429976D01*
X111089070Y-125414070D01*
X111104976Y-125399654D01*
X111122219Y-125386866D01*
X111140632Y-125375830D01*
X111160038Y-125366651D01*
X111180250Y-125359419D01*
X111201074Y-125354203D01*
X111222309Y-125351053D01*
X111243750Y-125350000D01*
X111756250Y-125350000D01*
X111777691Y-125351053D01*
X111777691Y-125351053D01*
G37*
D11*
X111500000Y-125787500D03*
D12*
X99850000Y-140075000D03*
X99850000Y-137925000D03*
X104150000Y-140075000D03*
X104150000Y-137925000D03*
X99850000Y-134075000D03*
X99850000Y-131925000D03*
X104150000Y-134075000D03*
X104150000Y-131925000D03*
X99850000Y-126075000D03*
X99850000Y-123925000D03*
X104150000Y-126075000D03*
X104150000Y-123925000D03*
D10*
G36*
X111176958Y-126780710D02*
G01*
X111191276Y-126782834D01*
X111205317Y-126786351D01*
X111218946Y-126791228D01*
X111232031Y-126797417D01*
X111244447Y-126804858D01*
X111256073Y-126813481D01*
X111266798Y-126823202D01*
X111276519Y-126833927D01*
X111285142Y-126845553D01*
X111292583Y-126857969D01*
X111298772Y-126871054D01*
X111303649Y-126884683D01*
X111307166Y-126898724D01*
X111309290Y-126913042D01*
X111310000Y-126927500D01*
X111310000Y-127272500D01*
X111309290Y-127286958D01*
X111307166Y-127301276D01*
X111303649Y-127315317D01*
X111298772Y-127328946D01*
X111292583Y-127342031D01*
X111285142Y-127354447D01*
X111276519Y-127366073D01*
X111266798Y-127376798D01*
X111256073Y-127386519D01*
X111244447Y-127395142D01*
X111232031Y-127402583D01*
X111218946Y-127408772D01*
X111205317Y-127413649D01*
X111191276Y-127417166D01*
X111176958Y-127419290D01*
X111162500Y-127420000D01*
X110867500Y-127420000D01*
X110853042Y-127419290D01*
X110838724Y-127417166D01*
X110824683Y-127413649D01*
X110811054Y-127408772D01*
X110797969Y-127402583D01*
X110785553Y-127395142D01*
X110773927Y-127386519D01*
X110763202Y-127376798D01*
X110753481Y-127366073D01*
X110744858Y-127354447D01*
X110737417Y-127342031D01*
X110731228Y-127328946D01*
X110726351Y-127315317D01*
X110722834Y-127301276D01*
X110720710Y-127286958D01*
X110720000Y-127272500D01*
X110720000Y-126927500D01*
X110720710Y-126913042D01*
X110722834Y-126898724D01*
X110726351Y-126884683D01*
X110731228Y-126871054D01*
X110737417Y-126857969D01*
X110744858Y-126845553D01*
X110753481Y-126833927D01*
X110763202Y-126823202D01*
X110773927Y-126813481D01*
X110785553Y-126804858D01*
X110797969Y-126797417D01*
X110811054Y-126791228D01*
X110824683Y-126786351D01*
X110838724Y-126782834D01*
X110853042Y-126780710D01*
X110867500Y-126780000D01*
X111162500Y-126780000D01*
X111176958Y-126780710D01*
X111176958Y-126780710D01*
G37*
D13*
X111015000Y-127100000D03*
D10*
G36*
X112146958Y-126780710D02*
G01*
X112161276Y-126782834D01*
X112175317Y-126786351D01*
X112188946Y-126791228D01*
X112202031Y-126797417D01*
X112214447Y-126804858D01*
X112226073Y-126813481D01*
X112236798Y-126823202D01*
X112246519Y-126833927D01*
X112255142Y-126845553D01*
X112262583Y-126857969D01*
X112268772Y-126871054D01*
X112273649Y-126884683D01*
X112277166Y-126898724D01*
X112279290Y-126913042D01*
X112280000Y-126927500D01*
X112280000Y-127272500D01*
X112279290Y-127286958D01*
X112277166Y-127301276D01*
X112273649Y-127315317D01*
X112268772Y-127328946D01*
X112262583Y-127342031D01*
X112255142Y-127354447D01*
X112246519Y-127366073D01*
X112236798Y-127376798D01*
X112226073Y-127386519D01*
X112214447Y-127395142D01*
X112202031Y-127402583D01*
X112188946Y-127408772D01*
X112175317Y-127413649D01*
X112161276Y-127417166D01*
X112146958Y-127419290D01*
X112132500Y-127420000D01*
X111837500Y-127420000D01*
X111823042Y-127419290D01*
X111808724Y-127417166D01*
X111794683Y-127413649D01*
X111781054Y-127408772D01*
X111767969Y-127402583D01*
X111755553Y-127395142D01*
X111743927Y-127386519D01*
X111733202Y-127376798D01*
X111723481Y-127366073D01*
X111714858Y-127354447D01*
X111707417Y-127342031D01*
X111701228Y-127328946D01*
X111696351Y-127315317D01*
X111692834Y-127301276D01*
X111690710Y-127286958D01*
X111690000Y-127272500D01*
X111690000Y-126927500D01*
X111690710Y-126913042D01*
X111692834Y-126898724D01*
X111696351Y-126884683D01*
X111701228Y-126871054D01*
X111707417Y-126857969D01*
X111714858Y-126845553D01*
X111723481Y-126833927D01*
X111733202Y-126823202D01*
X111743927Y-126813481D01*
X111755553Y-126804858D01*
X111767969Y-126797417D01*
X111781054Y-126791228D01*
X111794683Y-126786351D01*
X111808724Y-126782834D01*
X111823042Y-126780710D01*
X111837500Y-126780000D01*
X112132500Y-126780000D01*
X112146958Y-126780710D01*
X112146958Y-126780710D01*
G37*
D13*
X111985000Y-127100000D03*
D10*
G36*
X111176958Y-120780710D02*
G01*
X111191276Y-120782834D01*
X111205317Y-120786351D01*
X111218946Y-120791228D01*
X111232031Y-120797417D01*
X111244447Y-120804858D01*
X111256073Y-120813481D01*
X111266798Y-120823202D01*
X111276519Y-120833927D01*
X111285142Y-120845553D01*
X111292583Y-120857969D01*
X111298772Y-120871054D01*
X111303649Y-120884683D01*
X111307166Y-120898724D01*
X111309290Y-120913042D01*
X111310000Y-120927500D01*
X111310000Y-121272500D01*
X111309290Y-121286958D01*
X111307166Y-121301276D01*
X111303649Y-121315317D01*
X111298772Y-121328946D01*
X111292583Y-121342031D01*
X111285142Y-121354447D01*
X111276519Y-121366073D01*
X111266798Y-121376798D01*
X111256073Y-121386519D01*
X111244447Y-121395142D01*
X111232031Y-121402583D01*
X111218946Y-121408772D01*
X111205317Y-121413649D01*
X111191276Y-121417166D01*
X111176958Y-121419290D01*
X111162500Y-121420000D01*
X110867500Y-121420000D01*
X110853042Y-121419290D01*
X110838724Y-121417166D01*
X110824683Y-121413649D01*
X110811054Y-121408772D01*
X110797969Y-121402583D01*
X110785553Y-121395142D01*
X110773927Y-121386519D01*
X110763202Y-121376798D01*
X110753481Y-121366073D01*
X110744858Y-121354447D01*
X110737417Y-121342031D01*
X110731228Y-121328946D01*
X110726351Y-121315317D01*
X110722834Y-121301276D01*
X110720710Y-121286958D01*
X110720000Y-121272500D01*
X110720000Y-120927500D01*
X110720710Y-120913042D01*
X110722834Y-120898724D01*
X110726351Y-120884683D01*
X110731228Y-120871054D01*
X110737417Y-120857969D01*
X110744858Y-120845553D01*
X110753481Y-120833927D01*
X110763202Y-120823202D01*
X110773927Y-120813481D01*
X110785553Y-120804858D01*
X110797969Y-120797417D01*
X110811054Y-120791228D01*
X110824683Y-120786351D01*
X110838724Y-120782834D01*
X110853042Y-120780710D01*
X110867500Y-120780000D01*
X111162500Y-120780000D01*
X111176958Y-120780710D01*
X111176958Y-120780710D01*
G37*
D13*
X111015000Y-121100000D03*
D10*
G36*
X112146958Y-120780710D02*
G01*
X112161276Y-120782834D01*
X112175317Y-120786351D01*
X112188946Y-120791228D01*
X112202031Y-120797417D01*
X112214447Y-120804858D01*
X112226073Y-120813481D01*
X112236798Y-120823202D01*
X112246519Y-120833927D01*
X112255142Y-120845553D01*
X112262583Y-120857969D01*
X112268772Y-120871054D01*
X112273649Y-120884683D01*
X112277166Y-120898724D01*
X112279290Y-120913042D01*
X112280000Y-120927500D01*
X112280000Y-121272500D01*
X112279290Y-121286958D01*
X112277166Y-121301276D01*
X112273649Y-121315317D01*
X112268772Y-121328946D01*
X112262583Y-121342031D01*
X112255142Y-121354447D01*
X112246519Y-121366073D01*
X112236798Y-121376798D01*
X112226073Y-121386519D01*
X112214447Y-121395142D01*
X112202031Y-121402583D01*
X112188946Y-121408772D01*
X112175317Y-121413649D01*
X112161276Y-121417166D01*
X112146958Y-121419290D01*
X112132500Y-121420000D01*
X111837500Y-121420000D01*
X111823042Y-121419290D01*
X111808724Y-121417166D01*
X111794683Y-121413649D01*
X111781054Y-121408772D01*
X111767969Y-121402583D01*
X111755553Y-121395142D01*
X111743927Y-121386519D01*
X111733202Y-121376798D01*
X111723481Y-121366073D01*
X111714858Y-121354447D01*
X111707417Y-121342031D01*
X111701228Y-121328946D01*
X111696351Y-121315317D01*
X111692834Y-121301276D01*
X111690710Y-121286958D01*
X111690000Y-121272500D01*
X111690000Y-120927500D01*
X111690710Y-120913042D01*
X111692834Y-120898724D01*
X111696351Y-120884683D01*
X111701228Y-120871054D01*
X111707417Y-120857969D01*
X111714858Y-120845553D01*
X111723481Y-120833927D01*
X111733202Y-120823202D01*
X111743927Y-120813481D01*
X111755553Y-120804858D01*
X111767969Y-120797417D01*
X111781054Y-120791228D01*
X111794683Y-120786351D01*
X111808724Y-120782834D01*
X111823042Y-120780710D01*
X111837500Y-120780000D01*
X112132500Y-120780000D01*
X112146958Y-120780710D01*
X112146958Y-120780710D01*
G37*
D13*
X111985000Y-121100000D03*
D12*
X99850000Y-120075000D03*
X99850000Y-117925000D03*
X104150000Y-120075000D03*
X104150000Y-117925000D03*
M02*
