G04 #@! TF.GenerationSoftware,KiCad,Pcbnew,(5.1.4)-1*
G04 #@! TF.CreationDate,2022-10-21T15:02:13+02:00*
G04 #@! TF.ProjectId,REG1-App-Universal,52454731-2d41-4707-902d-556e69766572,V00.01*
G04 #@! TF.SameCoordinates,Original*
G04 #@! TF.FileFunction,Legend,Top*
G04 #@! TF.FilePolarity,Positive*
%FSLAX46Y46*%
G04 Gerber Fmt 4.6, Leading zero omitted, Abs format (unit mm)*
G04 Created by KiCad (PCBNEW (5.1.4)-1) date 2022-10-21 15:02:13*
%MOMM*%
%LPD*%
G04 APERTURE LIST*
%ADD10C,0.150000*%
%ADD11C,0.010000*%
%ADD12C,0.120000*%
G04 APERTURE END LIST*
D10*
X89507023Y-94927380D02*
X89173690Y-94451190D01*
X88935595Y-94927380D02*
X88935595Y-93927380D01*
X89316547Y-93927380D01*
X89411785Y-93975000D01*
X89459404Y-94022619D01*
X89507023Y-94117857D01*
X89507023Y-94260714D01*
X89459404Y-94355952D01*
X89411785Y-94403571D01*
X89316547Y-94451190D01*
X88935595Y-94451190D01*
X89935595Y-94403571D02*
X90268928Y-94403571D01*
X90411785Y-94927380D02*
X89935595Y-94927380D01*
X89935595Y-93927380D01*
X90411785Y-93927380D01*
X91364166Y-93975000D02*
X91268928Y-93927380D01*
X91126071Y-93927380D01*
X90983214Y-93975000D01*
X90887976Y-94070238D01*
X90840357Y-94165476D01*
X90792738Y-94355952D01*
X90792738Y-94498809D01*
X90840357Y-94689285D01*
X90887976Y-94784523D01*
X90983214Y-94879761D01*
X91126071Y-94927380D01*
X91221309Y-94927380D01*
X91364166Y-94879761D01*
X91411785Y-94832142D01*
X91411785Y-94498809D01*
X91221309Y-94498809D01*
X92364166Y-94927380D02*
X91792738Y-94927380D01*
X92078452Y-94927380D02*
X92078452Y-93927380D01*
X91983214Y-94070238D01*
X91887976Y-94165476D01*
X91792738Y-94213095D01*
X92792738Y-94546428D02*
X93554642Y-94546428D01*
X93983214Y-94641666D02*
X94459404Y-94641666D01*
X93887976Y-94927380D02*
X94221309Y-93927380D01*
X94554642Y-94927380D01*
X94887976Y-94260714D02*
X94887976Y-95260714D01*
X94887976Y-94308333D02*
X94983214Y-94260714D01*
X95173690Y-94260714D01*
X95268928Y-94308333D01*
X95316547Y-94355952D01*
X95364166Y-94451190D01*
X95364166Y-94736904D01*
X95316547Y-94832142D01*
X95268928Y-94879761D01*
X95173690Y-94927380D01*
X94983214Y-94927380D01*
X94887976Y-94879761D01*
X95792738Y-94260714D02*
X95792738Y-95260714D01*
X95792738Y-94308333D02*
X95887976Y-94260714D01*
X96078452Y-94260714D01*
X96173690Y-94308333D01*
X96221309Y-94355952D01*
X96268928Y-94451190D01*
X96268928Y-94736904D01*
X96221309Y-94832142D01*
X96173690Y-94879761D01*
X96078452Y-94927380D01*
X95887976Y-94927380D01*
X95792738Y-94879761D01*
X96697500Y-94546428D02*
X97459404Y-94546428D01*
X97935595Y-93927380D02*
X97935595Y-94736904D01*
X97983214Y-94832142D01*
X98030833Y-94879761D01*
X98126071Y-94927380D01*
X98316547Y-94927380D01*
X98411785Y-94879761D01*
X98459404Y-94832142D01*
X98507023Y-94736904D01*
X98507023Y-93927380D01*
X98983214Y-94260714D02*
X98983214Y-94927380D01*
X98983214Y-94355952D02*
X99030833Y-94308333D01*
X99126071Y-94260714D01*
X99268928Y-94260714D01*
X99364166Y-94308333D01*
X99411785Y-94403571D01*
X99411785Y-94927380D01*
X99887976Y-94927380D02*
X99887976Y-94260714D01*
X99887976Y-93927380D02*
X99840357Y-93975000D01*
X99887976Y-94022619D01*
X99935595Y-93975000D01*
X99887976Y-93927380D01*
X99887976Y-94022619D01*
X100268928Y-94260714D02*
X100507023Y-94927380D01*
X100745119Y-94260714D01*
X101507023Y-94879761D02*
X101411785Y-94927380D01*
X101221309Y-94927380D01*
X101126071Y-94879761D01*
X101078452Y-94784523D01*
X101078452Y-94403571D01*
X101126071Y-94308333D01*
X101221309Y-94260714D01*
X101411785Y-94260714D01*
X101507023Y-94308333D01*
X101554642Y-94403571D01*
X101554642Y-94498809D01*
X101078452Y-94594047D01*
X101983214Y-94927380D02*
X101983214Y-94260714D01*
X101983214Y-94451190D02*
X102030833Y-94355952D01*
X102078452Y-94308333D01*
X102173690Y-94260714D01*
X102268928Y-94260714D01*
X102554642Y-94879761D02*
X102649880Y-94927380D01*
X102840357Y-94927380D01*
X102935595Y-94879761D01*
X102983214Y-94784523D01*
X102983214Y-94736904D01*
X102935595Y-94641666D01*
X102840357Y-94594047D01*
X102697500Y-94594047D01*
X102602261Y-94546428D01*
X102554642Y-94451190D01*
X102554642Y-94403571D01*
X102602261Y-94308333D01*
X102697500Y-94260714D01*
X102840357Y-94260714D01*
X102935595Y-94308333D01*
X103840357Y-94927380D02*
X103840357Y-94403571D01*
X103792738Y-94308333D01*
X103697500Y-94260714D01*
X103507023Y-94260714D01*
X103411785Y-94308333D01*
X103840357Y-94879761D02*
X103745119Y-94927380D01*
X103507023Y-94927380D01*
X103411785Y-94879761D01*
X103364166Y-94784523D01*
X103364166Y-94689285D01*
X103411785Y-94594047D01*
X103507023Y-94546428D01*
X103745119Y-94546428D01*
X103840357Y-94498809D01*
X104459404Y-94927380D02*
X104364166Y-94879761D01*
X104316547Y-94784523D01*
X104316547Y-93927380D01*
X88792738Y-95577380D02*
X89126071Y-96577380D01*
X89459404Y-95577380D01*
X89983214Y-95577380D02*
X90078452Y-95577380D01*
X90173690Y-95625000D01*
X90221309Y-95672619D01*
X90268928Y-95767857D01*
X90316547Y-95958333D01*
X90316547Y-96196428D01*
X90268928Y-96386904D01*
X90221309Y-96482142D01*
X90173690Y-96529761D01*
X90078452Y-96577380D01*
X89983214Y-96577380D01*
X89887976Y-96529761D01*
X89840357Y-96482142D01*
X89792738Y-96386904D01*
X89745119Y-96196428D01*
X89745119Y-95958333D01*
X89792738Y-95767857D01*
X89840357Y-95672619D01*
X89887976Y-95625000D01*
X89983214Y-95577380D01*
X90935595Y-95577380D02*
X91030833Y-95577380D01*
X91126071Y-95625000D01*
X91173690Y-95672619D01*
X91221309Y-95767857D01*
X91268928Y-95958333D01*
X91268928Y-96196428D01*
X91221309Y-96386904D01*
X91173690Y-96482142D01*
X91126071Y-96529761D01*
X91030833Y-96577380D01*
X90935595Y-96577380D01*
X90840357Y-96529761D01*
X90792738Y-96482142D01*
X90745119Y-96386904D01*
X90697500Y-96196428D01*
X90697500Y-95958333D01*
X90745119Y-95767857D01*
X90792738Y-95672619D01*
X90840357Y-95625000D01*
X90935595Y-95577380D01*
X91697500Y-96482142D02*
X91745119Y-96529761D01*
X91697500Y-96577380D01*
X91649880Y-96529761D01*
X91697500Y-96482142D01*
X91697500Y-96577380D01*
X92364166Y-95577380D02*
X92459404Y-95577380D01*
X92554642Y-95625000D01*
X92602261Y-95672619D01*
X92649880Y-95767857D01*
X92697500Y-95958333D01*
X92697500Y-96196428D01*
X92649880Y-96386904D01*
X92602261Y-96482142D01*
X92554642Y-96529761D01*
X92459404Y-96577380D01*
X92364166Y-96577380D01*
X92268928Y-96529761D01*
X92221309Y-96482142D01*
X92173690Y-96386904D01*
X92126071Y-96196428D01*
X92126071Y-95958333D01*
X92173690Y-95767857D01*
X92221309Y-95672619D01*
X92268928Y-95625000D01*
X92364166Y-95577380D01*
X93649880Y-96577380D02*
X93078452Y-96577380D01*
X93364166Y-96577380D02*
X93364166Y-95577380D01*
X93268928Y-95720238D01*
X93173690Y-95815476D01*
X93078452Y-95863095D01*
D11*
G36*
X85267732Y-93366770D02*
G01*
X85362945Y-93388676D01*
X85441100Y-93437311D01*
X85502493Y-93512880D01*
X85517236Y-93539925D01*
X85531809Y-93570347D01*
X85542513Y-93598208D01*
X85549945Y-93628979D01*
X85554700Y-93668130D01*
X85557375Y-93721131D01*
X85558565Y-93793453D01*
X85558868Y-93890567D01*
X85558875Y-93921991D01*
X85558875Y-94220500D01*
X85431875Y-94220500D01*
X85431786Y-93954593D01*
X85430793Y-93835083D01*
X85427366Y-93742652D01*
X85420703Y-93672673D01*
X85409998Y-93620517D01*
X85394447Y-93581556D01*
X85373248Y-93551162D01*
X85359182Y-93536696D01*
X85309802Y-93508684D01*
X85246176Y-93496458D01*
X85180781Y-93500363D01*
X85126098Y-93520741D01*
X85113850Y-93529937D01*
X85087147Y-93557432D01*
X85067126Y-93589001D01*
X85052865Y-93629452D01*
X85043447Y-93683594D01*
X85037950Y-93756236D01*
X85035454Y-93852188D01*
X85035000Y-93942177D01*
X85035000Y-94220500D01*
X84908000Y-94220500D01*
X84908000Y-93379125D01*
X84971500Y-93379125D01*
X85014871Y-93382716D01*
X85033252Y-93395102D01*
X85035000Y-93404260D01*
X85040875Y-93422884D01*
X85046906Y-93423267D01*
X85121305Y-93388566D01*
X85181700Y-93370210D01*
X85239354Y-93365319D01*
X85267732Y-93366770D01*
X85267732Y-93366770D01*
G37*
X85267732Y-93366770D02*
X85362945Y-93388676D01*
X85441100Y-93437311D01*
X85502493Y-93512880D01*
X85517236Y-93539925D01*
X85531809Y-93570347D01*
X85542513Y-93598208D01*
X85549945Y-93628979D01*
X85554700Y-93668130D01*
X85557375Y-93721131D01*
X85558565Y-93793453D01*
X85558868Y-93890567D01*
X85558875Y-93921991D01*
X85558875Y-94220500D01*
X85431875Y-94220500D01*
X85431786Y-93954593D01*
X85430793Y-93835083D01*
X85427366Y-93742652D01*
X85420703Y-93672673D01*
X85409998Y-93620517D01*
X85394447Y-93581556D01*
X85373248Y-93551162D01*
X85359182Y-93536696D01*
X85309802Y-93508684D01*
X85246176Y-93496458D01*
X85180781Y-93500363D01*
X85126098Y-93520741D01*
X85113850Y-93529937D01*
X85087147Y-93557432D01*
X85067126Y-93589001D01*
X85052865Y-93629452D01*
X85043447Y-93683594D01*
X85037950Y-93756236D01*
X85035454Y-93852188D01*
X85035000Y-93942177D01*
X85035000Y-94220500D01*
X84908000Y-94220500D01*
X84908000Y-93379125D01*
X84971500Y-93379125D01*
X85014871Y-93382716D01*
X85033252Y-93395102D01*
X85035000Y-93404260D01*
X85040875Y-93422884D01*
X85046906Y-93423267D01*
X85121305Y-93388566D01*
X85181700Y-93370210D01*
X85239354Y-93365319D01*
X85267732Y-93366770D01*
G36*
X84345469Y-93379191D02*
G01*
X84440416Y-93418298D01*
X84523894Y-93476748D01*
X84591215Y-93551938D01*
X84637692Y-93641259D01*
X84658635Y-93742106D01*
X84658995Y-93748860D01*
X84661937Y-93815687D01*
X84290918Y-93819953D01*
X83919900Y-93824219D01*
X83930146Y-93875451D01*
X83953463Y-93933560D01*
X83996337Y-93994414D01*
X84049913Y-94046590D01*
X84077624Y-94065667D01*
X84124022Y-94085473D01*
X84181330Y-94100666D01*
X84197301Y-94103314D01*
X84274039Y-94100889D01*
X84353013Y-94077029D01*
X84423650Y-94036505D01*
X84475379Y-93984088D01*
X84480966Y-93975304D01*
X84505822Y-93939280D01*
X84532444Y-93923031D01*
X84574687Y-93918917D01*
X84583304Y-93918875D01*
X84652348Y-93918875D01*
X84634363Y-93970468D01*
X84603897Y-94025491D01*
X84553072Y-94085349D01*
X84490543Y-94141989D01*
X84424967Y-94187357D01*
X84377193Y-94209763D01*
X84274544Y-94232030D01*
X84171650Y-94231592D01*
X84096506Y-94214458D01*
X83984953Y-94160412D01*
X83898693Y-94087483D01*
X83838364Y-93996559D01*
X83804601Y-93888529D01*
X83797098Y-93796353D01*
X83809275Y-93696625D01*
X83938809Y-93696625D01*
X84224967Y-93696625D01*
X84316317Y-93695914D01*
X84395606Y-93693938D01*
X84457829Y-93690936D01*
X84497980Y-93687142D01*
X84511125Y-93683097D01*
X84499069Y-93650271D01*
X84467995Y-93608625D01*
X84425544Y-93566584D01*
X84379355Y-93532576D01*
X84369721Y-93527151D01*
X84281578Y-93497238D01*
X84190897Y-93495472D01*
X84104256Y-93519826D01*
X84028237Y-93568271D01*
X83969416Y-93638780D01*
X83961521Y-93652968D01*
X83938809Y-93696625D01*
X83809275Y-93696625D01*
X83811682Y-93676913D01*
X83853922Y-93572472D01*
X83922779Y-93484718D01*
X84017214Y-93415338D01*
X84038699Y-93404005D01*
X84139923Y-93369439D01*
X84243742Y-93362036D01*
X84345469Y-93379191D01*
X84345469Y-93379191D01*
G37*
X84345469Y-93379191D02*
X84440416Y-93418298D01*
X84523894Y-93476748D01*
X84591215Y-93551938D01*
X84637692Y-93641259D01*
X84658635Y-93742106D01*
X84658995Y-93748860D01*
X84661937Y-93815687D01*
X84290918Y-93819953D01*
X83919900Y-93824219D01*
X83930146Y-93875451D01*
X83953463Y-93933560D01*
X83996337Y-93994414D01*
X84049913Y-94046590D01*
X84077624Y-94065667D01*
X84124022Y-94085473D01*
X84181330Y-94100666D01*
X84197301Y-94103314D01*
X84274039Y-94100889D01*
X84353013Y-94077029D01*
X84423650Y-94036505D01*
X84475379Y-93984088D01*
X84480966Y-93975304D01*
X84505822Y-93939280D01*
X84532444Y-93923031D01*
X84574687Y-93918917D01*
X84583304Y-93918875D01*
X84652348Y-93918875D01*
X84634363Y-93970468D01*
X84603897Y-94025491D01*
X84553072Y-94085349D01*
X84490543Y-94141989D01*
X84424967Y-94187357D01*
X84377193Y-94209763D01*
X84274544Y-94232030D01*
X84171650Y-94231592D01*
X84096506Y-94214458D01*
X83984953Y-94160412D01*
X83898693Y-94087483D01*
X83838364Y-93996559D01*
X83804601Y-93888529D01*
X83797098Y-93796353D01*
X83809275Y-93696625D01*
X83938809Y-93696625D01*
X84224967Y-93696625D01*
X84316317Y-93695914D01*
X84395606Y-93693938D01*
X84457829Y-93690936D01*
X84497980Y-93687142D01*
X84511125Y-93683097D01*
X84499069Y-93650271D01*
X84467995Y-93608625D01*
X84425544Y-93566584D01*
X84379355Y-93532576D01*
X84369721Y-93527151D01*
X84281578Y-93497238D01*
X84190897Y-93495472D01*
X84104256Y-93519826D01*
X84028237Y-93568271D01*
X83969416Y-93638780D01*
X83961521Y-93652968D01*
X83938809Y-93696625D01*
X83809275Y-93696625D01*
X83811682Y-93676913D01*
X83853922Y-93572472D01*
X83922779Y-93484718D01*
X84017214Y-93415338D01*
X84038699Y-93404005D01*
X84139923Y-93369439D01*
X84243742Y-93362036D01*
X84345469Y-93379191D01*
G36*
X81889104Y-92942612D02*
G01*
X82006698Y-92968292D01*
X82118405Y-93016615D01*
X82220699Y-93088130D01*
X82310052Y-93183387D01*
X82379551Y-93295994D01*
X82406391Y-93351861D01*
X82423717Y-93395486D01*
X82433606Y-93436920D01*
X82438137Y-93486211D01*
X82439389Y-93553407D01*
X82439437Y-93585499D01*
X82438883Y-93662067D01*
X82435834Y-93716937D01*
X82428212Y-93760156D01*
X82413938Y-93801773D01*
X82390933Y-93851838D01*
X82379551Y-93875005D01*
X82303770Y-93994384D01*
X82207212Y-94092000D01*
X82093835Y-94165994D01*
X81967596Y-94214508D01*
X81832456Y-94235682D01*
X81692370Y-94227658D01*
X81647556Y-94218717D01*
X81523586Y-94174146D01*
X81412490Y-94104165D01*
X81317232Y-94013223D01*
X81240777Y-93905772D01*
X81186089Y-93786262D01*
X81156133Y-93659141D01*
X81154205Y-93547959D01*
X81288916Y-93547959D01*
X81293866Y-93664732D01*
X81320779Y-93765833D01*
X81375777Y-93870768D01*
X81454007Y-93960863D01*
X81549687Y-94031449D01*
X81657035Y-94077857D01*
X81724903Y-94092187D01*
X81811203Y-94095607D01*
X81902152Y-94086789D01*
X81984180Y-94067582D01*
X82024461Y-94051342D01*
X82126510Y-93983421D01*
X82209078Y-93895740D01*
X82269798Y-93793450D01*
X82306299Y-93681699D01*
X82316213Y-93565638D01*
X82298634Y-93455342D01*
X82252475Y-93344776D01*
X82184341Y-93246813D01*
X82099394Y-93166845D01*
X82002797Y-93110265D01*
X81951086Y-93092253D01*
X81827458Y-93073448D01*
X81709638Y-93082559D01*
X81600559Y-93116451D01*
X81503153Y-93171992D01*
X81420353Y-93246048D01*
X81355092Y-93335483D01*
X81310302Y-93437165D01*
X81288916Y-93547959D01*
X81154205Y-93547959D01*
X81153873Y-93528862D01*
X81159650Y-93486281D01*
X81197372Y-93350627D01*
X81257422Y-93233214D01*
X81336273Y-93134592D01*
X81430398Y-93055313D01*
X81536271Y-92995925D01*
X81650364Y-92956978D01*
X81769151Y-92939024D01*
X81889104Y-92942612D01*
X81889104Y-92942612D01*
G37*
X81889104Y-92942612D02*
X82006698Y-92968292D01*
X82118405Y-93016615D01*
X82220699Y-93088130D01*
X82310052Y-93183387D01*
X82379551Y-93295994D01*
X82406391Y-93351861D01*
X82423717Y-93395486D01*
X82433606Y-93436920D01*
X82438137Y-93486211D01*
X82439389Y-93553407D01*
X82439437Y-93585499D01*
X82438883Y-93662067D01*
X82435834Y-93716937D01*
X82428212Y-93760156D01*
X82413938Y-93801773D01*
X82390933Y-93851838D01*
X82379551Y-93875005D01*
X82303770Y-93994384D01*
X82207212Y-94092000D01*
X82093835Y-94165994D01*
X81967596Y-94214508D01*
X81832456Y-94235682D01*
X81692370Y-94227658D01*
X81647556Y-94218717D01*
X81523586Y-94174146D01*
X81412490Y-94104165D01*
X81317232Y-94013223D01*
X81240777Y-93905772D01*
X81186089Y-93786262D01*
X81156133Y-93659141D01*
X81154205Y-93547959D01*
X81288916Y-93547959D01*
X81293866Y-93664732D01*
X81320779Y-93765833D01*
X81375777Y-93870768D01*
X81454007Y-93960863D01*
X81549687Y-94031449D01*
X81657035Y-94077857D01*
X81724903Y-94092187D01*
X81811203Y-94095607D01*
X81902152Y-94086789D01*
X81984180Y-94067582D01*
X82024461Y-94051342D01*
X82126510Y-93983421D01*
X82209078Y-93895740D01*
X82269798Y-93793450D01*
X82306299Y-93681699D01*
X82316213Y-93565638D01*
X82298634Y-93455342D01*
X82252475Y-93344776D01*
X82184341Y-93246813D01*
X82099394Y-93166845D01*
X82002797Y-93110265D01*
X81951086Y-93092253D01*
X81827458Y-93073448D01*
X81709638Y-93082559D01*
X81600559Y-93116451D01*
X81503153Y-93171992D01*
X81420353Y-93246048D01*
X81355092Y-93335483D01*
X81310302Y-93437165D01*
X81288916Y-93547959D01*
X81154205Y-93547959D01*
X81153873Y-93528862D01*
X81159650Y-93486281D01*
X81197372Y-93350627D01*
X81257422Y-93233214D01*
X81336273Y-93134592D01*
X81430398Y-93055313D01*
X81536271Y-92995925D01*
X81650364Y-92956978D01*
X81769151Y-92939024D01*
X81889104Y-92942612D01*
G36*
X86874876Y-92880025D02*
G01*
X86897624Y-92909429D01*
X86907424Y-92963388D01*
X86908250Y-92993362D01*
X86909373Y-93042223D01*
X86915228Y-93067255D01*
X86929545Y-93076363D01*
X86947937Y-93077500D01*
X86972297Y-93074595D01*
X86983924Y-93060246D01*
X86987447Y-93025999D01*
X86987625Y-93005018D01*
X86994428Y-92933559D01*
X87014367Y-92888466D01*
X87046732Y-92871255D01*
X87050385Y-92871125D01*
X87092797Y-92875359D01*
X87117168Y-92892370D01*
X87128169Y-92928618D01*
X87130500Y-92981964D01*
X87131330Y-93033599D01*
X87136653Y-93061982D01*
X87150712Y-93075609D01*
X87177754Y-93082978D01*
X87181330Y-93083697D01*
X87247071Y-93111810D01*
X87293947Y-93163026D01*
X87315391Y-93223424D01*
X87325057Y-93283875D01*
X87407166Y-93283875D01*
X87471723Y-93289275D01*
X87510100Y-93307041D01*
X87526245Y-93339518D01*
X87527375Y-93355312D01*
X87518474Y-93393376D01*
X87489070Y-93416124D01*
X87435111Y-93425924D01*
X87405137Y-93426750D01*
X87356276Y-93427873D01*
X87331244Y-93433728D01*
X87322136Y-93448045D01*
X87321000Y-93466437D01*
X87323904Y-93490797D01*
X87338253Y-93502424D01*
X87372500Y-93505947D01*
X87393481Y-93506125D01*
X87465790Y-93513000D01*
X87510112Y-93533860D01*
X87527131Y-93569058D01*
X87527375Y-93574946D01*
X87519017Y-93614158D01*
X87491042Y-93637607D01*
X87439095Y-93647931D01*
X87405137Y-93649000D01*
X87356276Y-93650123D01*
X87331244Y-93655978D01*
X87322136Y-93670295D01*
X87321000Y-93688687D01*
X87323381Y-93711735D01*
X87335795Y-93723542D01*
X87366147Y-93727839D01*
X87405137Y-93728375D01*
X87470268Y-93733576D01*
X87509193Y-93750760D01*
X87525962Y-93782294D01*
X87527375Y-93799812D01*
X87518474Y-93837876D01*
X87489070Y-93860624D01*
X87435111Y-93870424D01*
X87405137Y-93871250D01*
X87356213Y-93872446D01*
X87331145Y-93878387D01*
X87322062Y-93892602D01*
X87321000Y-93908971D01*
X87324003Y-93930773D01*
X87338090Y-93943248D01*
X87370874Y-93950262D01*
X87409773Y-93954055D01*
X87471929Y-93963538D01*
X87508341Y-93982028D01*
X87524648Y-94013718D01*
X87527131Y-94041347D01*
X87513516Y-94078343D01*
X87471918Y-94100964D01*
X87402125Y-94109319D01*
X87394550Y-94109375D01*
X87348520Y-94111929D01*
X87324344Y-94122394D01*
X87312343Y-94144974D01*
X87312307Y-94145093D01*
X87279569Y-94203612D01*
X87226631Y-94246314D01*
X87183523Y-94261711D01*
X87153579Y-94268698D01*
X87137772Y-94280899D01*
X87131584Y-94306855D01*
X87130501Y-94355105D01*
X87130500Y-94361966D01*
X87125492Y-94429947D01*
X87109277Y-94471114D01*
X87080066Y-94488971D01*
X87064958Y-94490375D01*
X87023548Y-94476586D01*
X86997825Y-94435211D01*
X86987780Y-94366238D01*
X86987625Y-94354303D01*
X86986562Y-94304704D01*
X86980976Y-94279024D01*
X86967265Y-94269446D01*
X86947937Y-94268125D01*
X86925657Y-94270235D01*
X86913794Y-94281619D01*
X86909080Y-94309853D01*
X86908250Y-94360200D01*
X86903395Y-94428647D01*
X86887622Y-94470279D01*
X86859118Y-94488696D01*
X86842708Y-94490375D01*
X86801298Y-94476586D01*
X86775575Y-94435211D01*
X86765530Y-94366238D01*
X86765375Y-94354303D01*
X86764312Y-94304704D01*
X86758726Y-94279024D01*
X86745015Y-94269446D01*
X86725687Y-94268125D01*
X86703721Y-94270132D01*
X86691845Y-94281115D01*
X86686968Y-94308516D01*
X86686001Y-94359779D01*
X86686000Y-94363715D01*
X86684735Y-94417807D01*
X86678778Y-94449235D01*
X86664889Y-94467049D01*
X86645079Y-94477950D01*
X86602403Y-94489351D01*
X86573037Y-94476557D01*
X86555057Y-94437378D01*
X86546536Y-94369626D01*
X86546336Y-94365693D01*
X86542815Y-94312041D01*
X86536682Y-94282791D01*
X86524649Y-94270600D01*
X86503432Y-94268125D01*
X86502679Y-94268125D01*
X86480133Y-94270584D01*
X86468539Y-94283204D01*
X86464288Y-94313847D01*
X86463750Y-94352977D01*
X86459648Y-94413341D01*
X86445906Y-94451098D01*
X86434718Y-94464102D01*
X86392689Y-94487953D01*
X86354583Y-94480374D01*
X86329712Y-94455092D01*
X86314255Y-94417027D01*
X86305664Y-94364484D01*
X86305000Y-94346480D01*
X86303428Y-94301244D01*
X86293885Y-94276974D01*
X86269124Y-94262896D01*
X86243252Y-94254650D01*
X86189209Y-94227416D01*
X86148974Y-94186433D01*
X86130714Y-94140448D01*
X86130375Y-94133746D01*
X86122407Y-94118520D01*
X86094367Y-94111049D01*
X86051000Y-94109375D01*
X85989154Y-94101277D01*
X85940483Y-94079687D01*
X85912280Y-94048656D01*
X85908125Y-94030000D01*
X85922712Y-93995530D01*
X85961722Y-93968529D01*
X86018022Y-93952928D01*
X86052104Y-93950625D01*
X86099407Y-93949409D01*
X86122454Y-93943405D01*
X86128716Y-93929073D01*
X86127510Y-93914906D01*
X86120993Y-93894353D01*
X86103581Y-93882763D01*
X86067344Y-93876800D01*
X86031292Y-93874430D01*
X85975140Y-93869035D01*
X85942179Y-93858300D01*
X85923948Y-93839349D01*
X85923008Y-93837647D01*
X85914825Y-93804763D01*
X85930220Y-93768466D01*
X85931175Y-93766997D01*
X85950695Y-93744193D01*
X85977387Y-93732565D01*
X86021558Y-93728602D01*
X86044532Y-93728375D01*
X86094630Y-93727368D01*
X86120215Y-93722278D01*
X86128507Y-93709993D01*
X86127510Y-93692656D01*
X86120993Y-93672103D01*
X86103581Y-93660513D01*
X86067344Y-93654550D01*
X86031292Y-93652180D01*
X85975140Y-93646785D01*
X85942179Y-93636050D01*
X85923948Y-93617099D01*
X85923008Y-93615397D01*
X85914825Y-93582513D01*
X85930220Y-93546216D01*
X85931175Y-93544747D01*
X85950882Y-93521806D01*
X85977895Y-93510188D01*
X86022618Y-93506314D01*
X86043428Y-93506125D01*
X86093303Y-93505084D01*
X86119225Y-93499594D01*
X86128980Y-93486101D01*
X86130375Y-93466437D01*
X86127947Y-93443298D01*
X86115371Y-93431461D01*
X86084709Y-93427123D01*
X86047031Y-93426506D01*
X85975934Y-93420383D01*
X85932962Y-93401604D01*
X85916566Y-93368805D01*
X85925194Y-93320622D01*
X85925574Y-93319593D01*
X85936683Y-93299518D01*
X85956596Y-93288737D01*
X85993795Y-93284472D01*
X86034613Y-93283875D01*
X86130375Y-93283875D01*
X86130375Y-93230630D01*
X86144893Y-93172413D01*
X86183097Y-93122009D01*
X86236959Y-93088775D01*
X86256896Y-93083152D01*
X86285902Y-93074997D01*
X86300046Y-93059505D01*
X86304631Y-93027207D01*
X86305000Y-92997274D01*
X86313508Y-92929589D01*
X86339442Y-92887954D01*
X86383420Y-92871485D01*
X86392887Y-92871125D01*
X86430783Y-92883654D01*
X86454073Y-92922149D01*
X86463473Y-92987963D01*
X86463750Y-93005018D01*
X86465765Y-93050058D01*
X86474161Y-93071521D01*
X86492461Y-93077450D01*
X86495500Y-93077500D01*
X86514650Y-93073257D01*
X86524136Y-93055302D01*
X86527137Y-93015793D01*
X86527250Y-92999258D01*
X86535413Y-92930997D01*
X86560474Y-92888890D01*
X86603285Y-92871690D01*
X86615137Y-92871125D01*
X86653033Y-92883654D01*
X86676323Y-92922149D01*
X86685723Y-92987963D01*
X86686000Y-93005018D01*
X86687590Y-93049507D01*
X86695447Y-93070741D01*
X86714199Y-93077176D01*
X86725687Y-93077500D01*
X86748735Y-93075118D01*
X86760542Y-93062704D01*
X86764839Y-93032352D01*
X86765375Y-92993362D01*
X86770576Y-92928231D01*
X86787760Y-92889306D01*
X86819294Y-92872537D01*
X86836812Y-92871124D01*
X86874876Y-92880025D01*
X86874876Y-92880025D01*
G37*
X86874876Y-92880025D02*
X86897624Y-92909429D01*
X86907424Y-92963388D01*
X86908250Y-92993362D01*
X86909373Y-93042223D01*
X86915228Y-93067255D01*
X86929545Y-93076363D01*
X86947937Y-93077500D01*
X86972297Y-93074595D01*
X86983924Y-93060246D01*
X86987447Y-93025999D01*
X86987625Y-93005018D01*
X86994428Y-92933559D01*
X87014367Y-92888466D01*
X87046732Y-92871255D01*
X87050385Y-92871125D01*
X87092797Y-92875359D01*
X87117168Y-92892370D01*
X87128169Y-92928618D01*
X87130500Y-92981964D01*
X87131330Y-93033599D01*
X87136653Y-93061982D01*
X87150712Y-93075609D01*
X87177754Y-93082978D01*
X87181330Y-93083697D01*
X87247071Y-93111810D01*
X87293947Y-93163026D01*
X87315391Y-93223424D01*
X87325057Y-93283875D01*
X87407166Y-93283875D01*
X87471723Y-93289275D01*
X87510100Y-93307041D01*
X87526245Y-93339518D01*
X87527375Y-93355312D01*
X87518474Y-93393376D01*
X87489070Y-93416124D01*
X87435111Y-93425924D01*
X87405137Y-93426750D01*
X87356276Y-93427873D01*
X87331244Y-93433728D01*
X87322136Y-93448045D01*
X87321000Y-93466437D01*
X87323904Y-93490797D01*
X87338253Y-93502424D01*
X87372500Y-93505947D01*
X87393481Y-93506125D01*
X87465790Y-93513000D01*
X87510112Y-93533860D01*
X87527131Y-93569058D01*
X87527375Y-93574946D01*
X87519017Y-93614158D01*
X87491042Y-93637607D01*
X87439095Y-93647931D01*
X87405137Y-93649000D01*
X87356276Y-93650123D01*
X87331244Y-93655978D01*
X87322136Y-93670295D01*
X87321000Y-93688687D01*
X87323381Y-93711735D01*
X87335795Y-93723542D01*
X87366147Y-93727839D01*
X87405137Y-93728375D01*
X87470268Y-93733576D01*
X87509193Y-93750760D01*
X87525962Y-93782294D01*
X87527375Y-93799812D01*
X87518474Y-93837876D01*
X87489070Y-93860624D01*
X87435111Y-93870424D01*
X87405137Y-93871250D01*
X87356213Y-93872446D01*
X87331145Y-93878387D01*
X87322062Y-93892602D01*
X87321000Y-93908971D01*
X87324003Y-93930773D01*
X87338090Y-93943248D01*
X87370874Y-93950262D01*
X87409773Y-93954055D01*
X87471929Y-93963538D01*
X87508341Y-93982028D01*
X87524648Y-94013718D01*
X87527131Y-94041347D01*
X87513516Y-94078343D01*
X87471918Y-94100964D01*
X87402125Y-94109319D01*
X87394550Y-94109375D01*
X87348520Y-94111929D01*
X87324344Y-94122394D01*
X87312343Y-94144974D01*
X87312307Y-94145093D01*
X87279569Y-94203612D01*
X87226631Y-94246314D01*
X87183523Y-94261711D01*
X87153579Y-94268698D01*
X87137772Y-94280899D01*
X87131584Y-94306855D01*
X87130501Y-94355105D01*
X87130500Y-94361966D01*
X87125492Y-94429947D01*
X87109277Y-94471114D01*
X87080066Y-94488971D01*
X87064958Y-94490375D01*
X87023548Y-94476586D01*
X86997825Y-94435211D01*
X86987780Y-94366238D01*
X86987625Y-94354303D01*
X86986562Y-94304704D01*
X86980976Y-94279024D01*
X86967265Y-94269446D01*
X86947937Y-94268125D01*
X86925657Y-94270235D01*
X86913794Y-94281619D01*
X86909080Y-94309853D01*
X86908250Y-94360200D01*
X86903395Y-94428647D01*
X86887622Y-94470279D01*
X86859118Y-94488696D01*
X86842708Y-94490375D01*
X86801298Y-94476586D01*
X86775575Y-94435211D01*
X86765530Y-94366238D01*
X86765375Y-94354303D01*
X86764312Y-94304704D01*
X86758726Y-94279024D01*
X86745015Y-94269446D01*
X86725687Y-94268125D01*
X86703721Y-94270132D01*
X86691845Y-94281115D01*
X86686968Y-94308516D01*
X86686001Y-94359779D01*
X86686000Y-94363715D01*
X86684735Y-94417807D01*
X86678778Y-94449235D01*
X86664889Y-94467049D01*
X86645079Y-94477950D01*
X86602403Y-94489351D01*
X86573037Y-94476557D01*
X86555057Y-94437378D01*
X86546536Y-94369626D01*
X86546336Y-94365693D01*
X86542815Y-94312041D01*
X86536682Y-94282791D01*
X86524649Y-94270600D01*
X86503432Y-94268125D01*
X86502679Y-94268125D01*
X86480133Y-94270584D01*
X86468539Y-94283204D01*
X86464288Y-94313847D01*
X86463750Y-94352977D01*
X86459648Y-94413341D01*
X86445906Y-94451098D01*
X86434718Y-94464102D01*
X86392689Y-94487953D01*
X86354583Y-94480374D01*
X86329712Y-94455092D01*
X86314255Y-94417027D01*
X86305664Y-94364484D01*
X86305000Y-94346480D01*
X86303428Y-94301244D01*
X86293885Y-94276974D01*
X86269124Y-94262896D01*
X86243252Y-94254650D01*
X86189209Y-94227416D01*
X86148974Y-94186433D01*
X86130714Y-94140448D01*
X86130375Y-94133746D01*
X86122407Y-94118520D01*
X86094367Y-94111049D01*
X86051000Y-94109375D01*
X85989154Y-94101277D01*
X85940483Y-94079687D01*
X85912280Y-94048656D01*
X85908125Y-94030000D01*
X85922712Y-93995530D01*
X85961722Y-93968529D01*
X86018022Y-93952928D01*
X86052104Y-93950625D01*
X86099407Y-93949409D01*
X86122454Y-93943405D01*
X86128716Y-93929073D01*
X86127510Y-93914906D01*
X86120993Y-93894353D01*
X86103581Y-93882763D01*
X86067344Y-93876800D01*
X86031292Y-93874430D01*
X85975140Y-93869035D01*
X85942179Y-93858300D01*
X85923948Y-93839349D01*
X85923008Y-93837647D01*
X85914825Y-93804763D01*
X85930220Y-93768466D01*
X85931175Y-93766997D01*
X85950695Y-93744193D01*
X85977387Y-93732565D01*
X86021558Y-93728602D01*
X86044532Y-93728375D01*
X86094630Y-93727368D01*
X86120215Y-93722278D01*
X86128507Y-93709993D01*
X86127510Y-93692656D01*
X86120993Y-93672103D01*
X86103581Y-93660513D01*
X86067344Y-93654550D01*
X86031292Y-93652180D01*
X85975140Y-93646785D01*
X85942179Y-93636050D01*
X85923948Y-93617099D01*
X85923008Y-93615397D01*
X85914825Y-93582513D01*
X85930220Y-93546216D01*
X85931175Y-93544747D01*
X85950882Y-93521806D01*
X85977895Y-93510188D01*
X86022618Y-93506314D01*
X86043428Y-93506125D01*
X86093303Y-93505084D01*
X86119225Y-93499594D01*
X86128980Y-93486101D01*
X86130375Y-93466437D01*
X86127947Y-93443298D01*
X86115371Y-93431461D01*
X86084709Y-93427123D01*
X86047031Y-93426506D01*
X85975934Y-93420383D01*
X85932962Y-93401604D01*
X85916566Y-93368805D01*
X85925194Y-93320622D01*
X85925574Y-93319593D01*
X85936683Y-93299518D01*
X85956596Y-93288737D01*
X85993795Y-93284472D01*
X86034613Y-93283875D01*
X86130375Y-93283875D01*
X86130375Y-93230630D01*
X86144893Y-93172413D01*
X86183097Y-93122009D01*
X86236959Y-93088775D01*
X86256896Y-93083152D01*
X86285902Y-93074997D01*
X86300046Y-93059505D01*
X86304631Y-93027207D01*
X86305000Y-92997274D01*
X86313508Y-92929589D01*
X86339442Y-92887954D01*
X86383420Y-92871485D01*
X86392887Y-92871125D01*
X86430783Y-92883654D01*
X86454073Y-92922149D01*
X86463473Y-92987963D01*
X86463750Y-93005018D01*
X86465765Y-93050058D01*
X86474161Y-93071521D01*
X86492461Y-93077450D01*
X86495500Y-93077500D01*
X86514650Y-93073257D01*
X86524136Y-93055302D01*
X86527137Y-93015793D01*
X86527250Y-92999258D01*
X86535413Y-92930997D01*
X86560474Y-92888890D01*
X86603285Y-92871690D01*
X86615137Y-92871125D01*
X86653033Y-92883654D01*
X86676323Y-92922149D01*
X86685723Y-92987963D01*
X86686000Y-93005018D01*
X86687590Y-93049507D01*
X86695447Y-93070741D01*
X86714199Y-93077176D01*
X86725687Y-93077500D01*
X86748735Y-93075118D01*
X86760542Y-93062704D01*
X86764839Y-93032352D01*
X86765375Y-92993362D01*
X86770576Y-92928231D01*
X86787760Y-92889306D01*
X86819294Y-92872537D01*
X86836812Y-92871124D01*
X86874876Y-92880025D01*
G36*
X83300689Y-93385072D02*
G01*
X83397845Y-93433439D01*
X83481768Y-93505635D01*
X83547726Y-93599810D01*
X83562549Y-93630363D01*
X83582612Y-93703852D01*
X83588695Y-93792867D01*
X83581209Y-93884634D01*
X83560563Y-93966378D01*
X83551029Y-93988779D01*
X83488760Y-94083300D01*
X83407272Y-94156032D01*
X83311696Y-94205553D01*
X83207166Y-94230445D01*
X83098815Y-94229288D01*
X82991776Y-94200663D01*
X82919996Y-94163277D01*
X82882416Y-94140229D01*
X82857094Y-94126721D01*
X82852527Y-94125250D01*
X82849950Y-94140312D01*
X82847699Y-94182247D01*
X82845910Y-94246181D01*
X82844716Y-94327237D01*
X82844251Y-94420539D01*
X82844250Y-94426875D01*
X82844250Y-94728500D01*
X82717250Y-94728500D01*
X82717250Y-93817213D01*
X82851561Y-93817213D01*
X82871007Y-93904820D01*
X82915750Y-93983141D01*
X82982579Y-94046763D01*
X83068288Y-94090272D01*
X83078629Y-94093568D01*
X83140345Y-94106391D01*
X83199586Y-94103254D01*
X83245527Y-94092545D01*
X83325240Y-94055489D01*
X83388677Y-93996903D01*
X83433718Y-93923058D01*
X83458241Y-93840228D01*
X83460122Y-93754686D01*
X83437240Y-93672704D01*
X83405193Y-93620593D01*
X83333289Y-93551848D01*
X83252006Y-93509713D01*
X83166446Y-93493203D01*
X83081711Y-93501333D01*
X83002905Y-93533118D01*
X82935129Y-93587572D01*
X82883486Y-93663711D01*
X82860618Y-93725734D01*
X82851561Y-93817213D01*
X82717250Y-93817213D01*
X82717250Y-93379125D01*
X82780750Y-93379125D01*
X82821466Y-93381005D01*
X82839566Y-93391197D01*
X82844149Y-93416523D01*
X82844250Y-93426750D01*
X82850267Y-93462996D01*
X82865290Y-93474250D01*
X82884771Y-93457149D01*
X82884945Y-93456868D01*
X82904496Y-93440890D01*
X82943417Y-93418238D01*
X82977164Y-93401461D01*
X83085615Y-93367232D01*
X83195035Y-93362386D01*
X83300689Y-93385072D01*
X83300689Y-93385072D01*
G37*
X83300689Y-93385072D02*
X83397845Y-93433439D01*
X83481768Y-93505635D01*
X83547726Y-93599810D01*
X83562549Y-93630363D01*
X83582612Y-93703852D01*
X83588695Y-93792867D01*
X83581209Y-93884634D01*
X83560563Y-93966378D01*
X83551029Y-93988779D01*
X83488760Y-94083300D01*
X83407272Y-94156032D01*
X83311696Y-94205553D01*
X83207166Y-94230445D01*
X83098815Y-94229288D01*
X82991776Y-94200663D01*
X82919996Y-94163277D01*
X82882416Y-94140229D01*
X82857094Y-94126721D01*
X82852527Y-94125250D01*
X82849950Y-94140312D01*
X82847699Y-94182247D01*
X82845910Y-94246181D01*
X82844716Y-94327237D01*
X82844251Y-94420539D01*
X82844250Y-94426875D01*
X82844250Y-94728500D01*
X82717250Y-94728500D01*
X82717250Y-93817213D01*
X82851561Y-93817213D01*
X82871007Y-93904820D01*
X82915750Y-93983141D01*
X82982579Y-94046763D01*
X83068288Y-94090272D01*
X83078629Y-94093568D01*
X83140345Y-94106391D01*
X83199586Y-94103254D01*
X83245527Y-94092545D01*
X83325240Y-94055489D01*
X83388677Y-93996903D01*
X83433718Y-93923058D01*
X83458241Y-93840228D01*
X83460122Y-93754686D01*
X83437240Y-93672704D01*
X83405193Y-93620593D01*
X83333289Y-93551848D01*
X83252006Y-93509713D01*
X83166446Y-93493203D01*
X83081711Y-93501333D01*
X83002905Y-93533118D01*
X82935129Y-93587572D01*
X82883486Y-93663711D01*
X82860618Y-93725734D01*
X82851561Y-93817213D01*
X82717250Y-93817213D01*
X82717250Y-93379125D01*
X82780750Y-93379125D01*
X82821466Y-93381005D01*
X82839566Y-93391197D01*
X82844149Y-93416523D01*
X82844250Y-93426750D01*
X82850267Y-93462996D01*
X82865290Y-93474250D01*
X82884771Y-93457149D01*
X82884945Y-93456868D01*
X82904496Y-93440890D01*
X82943417Y-93418238D01*
X82977164Y-93401461D01*
X83085615Y-93367232D01*
X83195035Y-93362386D01*
X83300689Y-93385072D01*
G36*
X86741854Y-94548961D02*
G01*
X86751882Y-94562329D01*
X86757676Y-94592489D01*
X86761143Y-94645887D01*
X86762074Y-94668968D01*
X86766710Y-94792000D01*
X87254992Y-94792000D01*
X87404875Y-94792372D01*
X87525263Y-94793547D01*
X87618405Y-94795607D01*
X87686548Y-94798638D01*
X87731941Y-94802724D01*
X87756832Y-94807950D01*
X87762324Y-94811049D01*
X87779348Y-94847316D01*
X87776814Y-94890342D01*
X87762324Y-94915825D01*
X87752950Y-94918272D01*
X87729212Y-94920519D01*
X87690043Y-94922572D01*
X87634373Y-94924439D01*
X87561136Y-94926126D01*
X87469260Y-94927640D01*
X87357680Y-94928988D01*
X87225324Y-94930178D01*
X87071126Y-94931215D01*
X86894015Y-94932107D01*
X86692925Y-94932862D01*
X86466785Y-94933484D01*
X86214528Y-94933983D01*
X85935085Y-94934364D01*
X85627387Y-94934634D01*
X85290366Y-94934801D01*
X84922953Y-94934871D01*
X84818130Y-94934875D01*
X81892986Y-94934875D01*
X81888399Y-95073781D01*
X81885622Y-95140629D01*
X81881511Y-95182121D01*
X81874304Y-95204646D01*
X81862239Y-95214594D01*
X81848726Y-95217677D01*
X81831916Y-95218322D01*
X81821265Y-95210488D01*
X81815031Y-95188255D01*
X81811472Y-95145702D01*
X81809039Y-95082739D01*
X81804437Y-94942812D01*
X81535711Y-94938447D01*
X81430061Y-94935705D01*
X81345068Y-94931379D01*
X81284072Y-94925721D01*
X81250417Y-94918982D01*
X81245992Y-94916659D01*
X81227919Y-94883944D01*
X81228050Y-94842193D01*
X81244049Y-94811050D01*
X81253556Y-94808510D01*
X81277514Y-94806187D01*
X81317031Y-94804072D01*
X81373218Y-94802158D01*
X81447181Y-94800437D01*
X81540030Y-94798900D01*
X81652872Y-94797541D01*
X81786816Y-94796352D01*
X81942971Y-94795325D01*
X82122445Y-94794452D01*
X82326346Y-94793725D01*
X82555783Y-94793137D01*
X82811864Y-94792680D01*
X83095698Y-94792346D01*
X83408392Y-94792128D01*
X83751056Y-94792017D01*
X83973882Y-94792000D01*
X86684664Y-94792000D01*
X86689300Y-94668968D01*
X86692425Y-94606761D01*
X86697266Y-94569857D01*
X86705729Y-94551809D01*
X86719722Y-94546173D01*
X86725687Y-94545937D01*
X86741854Y-94548961D01*
X86741854Y-94548961D01*
G37*
X86741854Y-94548961D02*
X86751882Y-94562329D01*
X86757676Y-94592489D01*
X86761143Y-94645887D01*
X86762074Y-94668968D01*
X86766710Y-94792000D01*
X87254992Y-94792000D01*
X87404875Y-94792372D01*
X87525263Y-94793547D01*
X87618405Y-94795607D01*
X87686548Y-94798638D01*
X87731941Y-94802724D01*
X87756832Y-94807950D01*
X87762324Y-94811049D01*
X87779348Y-94847316D01*
X87776814Y-94890342D01*
X87762324Y-94915825D01*
X87752950Y-94918272D01*
X87729212Y-94920519D01*
X87690043Y-94922572D01*
X87634373Y-94924439D01*
X87561136Y-94926126D01*
X87469260Y-94927640D01*
X87357680Y-94928988D01*
X87225324Y-94930178D01*
X87071126Y-94931215D01*
X86894015Y-94932107D01*
X86692925Y-94932862D01*
X86466785Y-94933484D01*
X86214528Y-94933983D01*
X85935085Y-94934364D01*
X85627387Y-94934634D01*
X85290366Y-94934801D01*
X84922953Y-94934871D01*
X84818130Y-94934875D01*
X81892986Y-94934875D01*
X81888399Y-95073781D01*
X81885622Y-95140629D01*
X81881511Y-95182121D01*
X81874304Y-95204646D01*
X81862239Y-95214594D01*
X81848726Y-95217677D01*
X81831916Y-95218322D01*
X81821265Y-95210488D01*
X81815031Y-95188255D01*
X81811472Y-95145702D01*
X81809039Y-95082739D01*
X81804437Y-94942812D01*
X81535711Y-94938447D01*
X81430061Y-94935705D01*
X81345068Y-94931379D01*
X81284072Y-94925721D01*
X81250417Y-94918982D01*
X81245992Y-94916659D01*
X81227919Y-94883944D01*
X81228050Y-94842193D01*
X81244049Y-94811050D01*
X81253556Y-94808510D01*
X81277514Y-94806187D01*
X81317031Y-94804072D01*
X81373218Y-94802158D01*
X81447181Y-94800437D01*
X81540030Y-94798900D01*
X81652872Y-94797541D01*
X81786816Y-94796352D01*
X81942971Y-94795325D01*
X82122445Y-94794452D01*
X82326346Y-94793725D01*
X82555783Y-94793137D01*
X82811864Y-94792680D01*
X83095698Y-94792346D01*
X83408392Y-94792128D01*
X83751056Y-94792017D01*
X83973882Y-94792000D01*
X86684664Y-94792000D01*
X86689300Y-94668968D01*
X86692425Y-94606761D01*
X86697266Y-94569857D01*
X86705729Y-94551809D01*
X86719722Y-94546173D01*
X86725687Y-94545937D01*
X86741854Y-94548961D01*
G36*
X82227582Y-95320122D02*
G01*
X82249657Y-95336947D01*
X82263056Y-95372472D01*
X82271618Y-95432819D01*
X82272582Y-95442875D01*
X82278570Y-95493206D01*
X82287537Y-95520044D01*
X82304043Y-95531605D01*
X82323773Y-95535155D01*
X82369313Y-95554196D01*
X82410914Y-95593963D01*
X82439644Y-95643829D01*
X82447375Y-95682218D01*
X82449016Y-95709031D01*
X82459224Y-95722814D01*
X82485920Y-95727901D01*
X82532227Y-95728625D01*
X82603911Y-95737086D01*
X82649218Y-95762725D01*
X82668713Y-95805917D01*
X82669625Y-95820597D01*
X82656667Y-95855818D01*
X82617000Y-95877762D01*
X82549436Y-95886989D01*
X82527793Y-95887375D01*
X82480297Y-95888623D01*
X82456458Y-95895023D01*
X82448205Y-95910558D01*
X82447375Y-95927062D01*
X82449681Y-95949904D01*
X82461812Y-95961730D01*
X82491584Y-95966141D01*
X82533553Y-95966750D01*
X82605823Y-95974370D01*
X82650800Y-95997474D01*
X82669108Y-96036427D01*
X82669625Y-96046125D01*
X82656561Y-96088282D01*
X82616954Y-96114519D01*
X82550177Y-96125198D01*
X82533553Y-96125500D01*
X82483495Y-96126914D01*
X82457568Y-96133016D01*
X82448206Y-96146592D01*
X82447375Y-96157250D01*
X82452389Y-96177564D01*
X82472897Y-96186931D01*
X82514843Y-96189234D01*
X82586192Y-96197614D01*
X82637682Y-96220631D01*
X82664623Y-96255924D01*
X82666874Y-96265677D01*
X82664369Y-96306606D01*
X82640526Y-96332419D01*
X82592010Y-96345285D01*
X82540681Y-96347750D01*
X82488564Y-96348631D01*
X82460660Y-96353412D01*
X82449440Y-96365295D01*
X82447375Y-96387437D01*
X82449681Y-96410279D01*
X82461812Y-96422105D01*
X82491584Y-96426516D01*
X82533553Y-96427125D01*
X82605823Y-96434745D01*
X82650800Y-96457849D01*
X82669108Y-96496802D01*
X82669625Y-96506500D01*
X82656561Y-96548657D01*
X82616954Y-96574894D01*
X82550177Y-96585573D01*
X82533553Y-96585875D01*
X82483616Y-96587221D01*
X82457749Y-96593208D01*
X82448320Y-96606755D01*
X82447375Y-96618846D01*
X82434252Y-96656873D01*
X82401633Y-96696820D01*
X82359635Y-96729168D01*
X82318380Y-96744398D01*
X82313658Y-96744625D01*
X82290962Y-96746504D01*
X82278729Y-96757127D01*
X82273733Y-96783973D01*
X82272751Y-96834521D01*
X82272750Y-96839509D01*
X82271144Y-96894543D01*
X82264176Y-96927726D01*
X82248620Y-96948885D01*
X82233062Y-96960397D01*
X82201991Y-96977194D01*
X82177561Y-96974477D01*
X82153687Y-96960397D01*
X82131108Y-96941764D01*
X82119138Y-96917262D01*
X82114551Y-96877066D01*
X82114000Y-96839509D01*
X82113152Y-96786846D01*
X82108525Y-96758457D01*
X82096995Y-96746874D01*
X82075439Y-96744626D01*
X82074312Y-96744625D01*
X82053005Y-96746426D01*
X82041122Y-96756604D01*
X82035919Y-96782321D01*
X82034649Y-96830738D01*
X82034625Y-96848152D01*
X82033483Y-96904994D01*
X82028300Y-96938556D01*
X82016443Y-96957279D01*
X81996945Y-96968848D01*
X81953631Y-96977553D01*
X81925508Y-96967949D01*
X81906828Y-96953614D01*
X81896568Y-96930310D01*
X81892361Y-96889578D01*
X81891750Y-96847253D01*
X81891045Y-96791970D01*
X81887076Y-96761241D01*
X81877062Y-96747874D01*
X81858222Y-96744677D01*
X81852062Y-96744625D01*
X81829332Y-96746891D01*
X81817497Y-96758870D01*
X81813025Y-96788331D01*
X81812375Y-96831937D01*
X81808716Y-96892057D01*
X81795946Y-96931179D01*
X81780625Y-96951000D01*
X81738519Y-96979998D01*
X81702548Y-96979474D01*
X81674963Y-96951418D01*
X81658014Y-96897819D01*
X81653625Y-96838741D01*
X81652760Y-96786343D01*
X81648059Y-96758190D01*
X81636360Y-96746783D01*
X81614501Y-96744625D01*
X81613937Y-96744625D01*
X81591207Y-96746891D01*
X81579372Y-96758870D01*
X81574900Y-96788331D01*
X81574250Y-96831937D01*
X81566546Y-96899529D01*
X81545875Y-96948970D01*
X81515902Y-96976894D01*
X81480286Y-96979935D01*
X81442693Y-96954725D01*
X81441772Y-96953718D01*
X81423031Y-96914593D01*
X81415673Y-96849503D01*
X81415500Y-96834656D01*
X81414160Y-96783162D01*
X81408448Y-96755980D01*
X81395818Y-96745726D01*
X81384496Y-96744625D01*
X81321707Y-96729709D01*
X81270534Y-96687843D01*
X81245787Y-96646840D01*
X81228074Y-96610891D01*
X81209086Y-96592868D01*
X81177876Y-96586592D01*
X81137807Y-96585875D01*
X81074900Y-96580863D01*
X81037546Y-96563568D01*
X81020818Y-96530601D01*
X81018625Y-96503883D01*
X81028933Y-96463856D01*
X81061824Y-96439159D01*
X81120240Y-96428105D01*
X81152518Y-96427125D01*
X81197007Y-96425534D01*
X81218241Y-96417677D01*
X81224676Y-96398925D01*
X81225000Y-96387437D01*
X81222369Y-96363738D01*
X81209024Y-96352007D01*
X81176783Y-96348085D01*
X81146923Y-96347750D01*
X81082747Y-96345458D01*
X81044051Y-96336258D01*
X81024750Y-96316663D01*
X81018761Y-96283185D01*
X81018625Y-96274221D01*
X81027768Y-96231572D01*
X81057560Y-96204644D01*
X81111545Y-96191338D01*
X81162533Y-96189000D01*
X81203663Y-96186242D01*
X81221655Y-96175142D01*
X81225000Y-96157250D01*
X81221064Y-96138634D01*
X81204170Y-96129094D01*
X81166682Y-96125750D01*
X81140862Y-96125500D01*
X81076796Y-96120668D01*
X81038465Y-96104085D01*
X81021046Y-96072620D01*
X81018625Y-96046125D01*
X81026065Y-96004523D01*
X81051602Y-95979633D01*
X81100059Y-95968322D01*
X81140862Y-95966750D01*
X81189723Y-95965626D01*
X81214755Y-95959771D01*
X81223863Y-95945454D01*
X81225000Y-95927062D01*
X81222618Y-95904014D01*
X81210204Y-95892207D01*
X81179852Y-95887910D01*
X81140862Y-95887375D01*
X81077058Y-95882637D01*
X81038884Y-95866189D01*
X81021338Y-95834676D01*
X81018625Y-95805383D01*
X81028933Y-95765356D01*
X81061824Y-95740659D01*
X81120240Y-95729605D01*
X81152518Y-95728625D01*
X81197202Y-95726850D01*
X81218537Y-95718795D01*
X81224849Y-95700357D01*
X81225059Y-95692906D01*
X81239742Y-95632889D01*
X81278540Y-95580215D01*
X81333876Y-95544164D01*
X81351275Y-95538319D01*
X81415500Y-95521026D01*
X81415500Y-95437500D01*
X81420290Y-95373875D01*
X81436903Y-95335864D01*
X81468700Y-95318481D01*
X81497491Y-95315875D01*
X81537518Y-95326183D01*
X81562215Y-95359074D01*
X81573269Y-95417490D01*
X81574250Y-95449768D01*
X81576426Y-95495107D01*
X81585091Y-95516666D01*
X81603451Y-95522247D01*
X81604034Y-95522250D01*
X81621835Y-95516956D01*
X81632627Y-95496359D01*
X81639371Y-95453381D01*
X81641180Y-95433476D01*
X81650785Y-95371061D01*
X81669440Y-95334504D01*
X81701099Y-95318322D01*
X81725856Y-95316118D01*
X81763534Y-95324958D01*
X81786081Y-95354750D01*
X81795741Y-95409371D01*
X81796500Y-95438112D01*
X81797623Y-95486973D01*
X81803478Y-95512005D01*
X81817795Y-95521113D01*
X81836187Y-95522250D01*
X81860547Y-95519345D01*
X81872174Y-95504996D01*
X81875697Y-95470749D01*
X81875875Y-95449768D01*
X81881784Y-95379946D01*
X81900640Y-95336867D01*
X81934128Y-95317585D01*
X81952633Y-95315875D01*
X81995430Y-95322937D01*
X82021035Y-95347459D01*
X82032804Y-95394441D01*
X82034625Y-95438112D01*
X82035748Y-95486973D01*
X82041603Y-95512005D01*
X82055920Y-95521113D01*
X82074312Y-95522250D01*
X82098672Y-95519345D01*
X82110299Y-95504996D01*
X82113822Y-95470749D01*
X82113999Y-95449768D01*
X82119693Y-95380461D01*
X82138094Y-95337677D01*
X82171186Y-95318054D01*
X82192996Y-95315875D01*
X82227582Y-95320122D01*
X82227582Y-95320122D01*
G37*
X82227582Y-95320122D02*
X82249657Y-95336947D01*
X82263056Y-95372472D01*
X82271618Y-95432819D01*
X82272582Y-95442875D01*
X82278570Y-95493206D01*
X82287537Y-95520044D01*
X82304043Y-95531605D01*
X82323773Y-95535155D01*
X82369313Y-95554196D01*
X82410914Y-95593963D01*
X82439644Y-95643829D01*
X82447375Y-95682218D01*
X82449016Y-95709031D01*
X82459224Y-95722814D01*
X82485920Y-95727901D01*
X82532227Y-95728625D01*
X82603911Y-95737086D01*
X82649218Y-95762725D01*
X82668713Y-95805917D01*
X82669625Y-95820597D01*
X82656667Y-95855818D01*
X82617000Y-95877762D01*
X82549436Y-95886989D01*
X82527793Y-95887375D01*
X82480297Y-95888623D01*
X82456458Y-95895023D01*
X82448205Y-95910558D01*
X82447375Y-95927062D01*
X82449681Y-95949904D01*
X82461812Y-95961730D01*
X82491584Y-95966141D01*
X82533553Y-95966750D01*
X82605823Y-95974370D01*
X82650800Y-95997474D01*
X82669108Y-96036427D01*
X82669625Y-96046125D01*
X82656561Y-96088282D01*
X82616954Y-96114519D01*
X82550177Y-96125198D01*
X82533553Y-96125500D01*
X82483495Y-96126914D01*
X82457568Y-96133016D01*
X82448206Y-96146592D01*
X82447375Y-96157250D01*
X82452389Y-96177564D01*
X82472897Y-96186931D01*
X82514843Y-96189234D01*
X82586192Y-96197614D01*
X82637682Y-96220631D01*
X82664623Y-96255924D01*
X82666874Y-96265677D01*
X82664369Y-96306606D01*
X82640526Y-96332419D01*
X82592010Y-96345285D01*
X82540681Y-96347750D01*
X82488564Y-96348631D01*
X82460660Y-96353412D01*
X82449440Y-96365295D01*
X82447375Y-96387437D01*
X82449681Y-96410279D01*
X82461812Y-96422105D01*
X82491584Y-96426516D01*
X82533553Y-96427125D01*
X82605823Y-96434745D01*
X82650800Y-96457849D01*
X82669108Y-96496802D01*
X82669625Y-96506500D01*
X82656561Y-96548657D01*
X82616954Y-96574894D01*
X82550177Y-96585573D01*
X82533553Y-96585875D01*
X82483616Y-96587221D01*
X82457749Y-96593208D01*
X82448320Y-96606755D01*
X82447375Y-96618846D01*
X82434252Y-96656873D01*
X82401633Y-96696820D01*
X82359635Y-96729168D01*
X82318380Y-96744398D01*
X82313658Y-96744625D01*
X82290962Y-96746504D01*
X82278729Y-96757127D01*
X82273733Y-96783973D01*
X82272751Y-96834521D01*
X82272750Y-96839509D01*
X82271144Y-96894543D01*
X82264176Y-96927726D01*
X82248620Y-96948885D01*
X82233062Y-96960397D01*
X82201991Y-96977194D01*
X82177561Y-96974477D01*
X82153687Y-96960397D01*
X82131108Y-96941764D01*
X82119138Y-96917262D01*
X82114551Y-96877066D01*
X82114000Y-96839509D01*
X82113152Y-96786846D01*
X82108525Y-96758457D01*
X82096995Y-96746874D01*
X82075439Y-96744626D01*
X82074312Y-96744625D01*
X82053005Y-96746426D01*
X82041122Y-96756604D01*
X82035919Y-96782321D01*
X82034649Y-96830738D01*
X82034625Y-96848152D01*
X82033483Y-96904994D01*
X82028300Y-96938556D01*
X82016443Y-96957279D01*
X81996945Y-96968848D01*
X81953631Y-96977553D01*
X81925508Y-96967949D01*
X81906828Y-96953614D01*
X81896568Y-96930310D01*
X81892361Y-96889578D01*
X81891750Y-96847253D01*
X81891045Y-96791970D01*
X81887076Y-96761241D01*
X81877062Y-96747874D01*
X81858222Y-96744677D01*
X81852062Y-96744625D01*
X81829332Y-96746891D01*
X81817497Y-96758870D01*
X81813025Y-96788331D01*
X81812375Y-96831937D01*
X81808716Y-96892057D01*
X81795946Y-96931179D01*
X81780625Y-96951000D01*
X81738519Y-96979998D01*
X81702548Y-96979474D01*
X81674963Y-96951418D01*
X81658014Y-96897819D01*
X81653625Y-96838741D01*
X81652760Y-96786343D01*
X81648059Y-96758190D01*
X81636360Y-96746783D01*
X81614501Y-96744625D01*
X81613937Y-96744625D01*
X81591207Y-96746891D01*
X81579372Y-96758870D01*
X81574900Y-96788331D01*
X81574250Y-96831937D01*
X81566546Y-96899529D01*
X81545875Y-96948970D01*
X81515902Y-96976894D01*
X81480286Y-96979935D01*
X81442693Y-96954725D01*
X81441772Y-96953718D01*
X81423031Y-96914593D01*
X81415673Y-96849503D01*
X81415500Y-96834656D01*
X81414160Y-96783162D01*
X81408448Y-96755980D01*
X81395818Y-96745726D01*
X81384496Y-96744625D01*
X81321707Y-96729709D01*
X81270534Y-96687843D01*
X81245787Y-96646840D01*
X81228074Y-96610891D01*
X81209086Y-96592868D01*
X81177876Y-96586592D01*
X81137807Y-96585875D01*
X81074900Y-96580863D01*
X81037546Y-96563568D01*
X81020818Y-96530601D01*
X81018625Y-96503883D01*
X81028933Y-96463856D01*
X81061824Y-96439159D01*
X81120240Y-96428105D01*
X81152518Y-96427125D01*
X81197007Y-96425534D01*
X81218241Y-96417677D01*
X81224676Y-96398925D01*
X81225000Y-96387437D01*
X81222369Y-96363738D01*
X81209024Y-96352007D01*
X81176783Y-96348085D01*
X81146923Y-96347750D01*
X81082747Y-96345458D01*
X81044051Y-96336258D01*
X81024750Y-96316663D01*
X81018761Y-96283185D01*
X81018625Y-96274221D01*
X81027768Y-96231572D01*
X81057560Y-96204644D01*
X81111545Y-96191338D01*
X81162533Y-96189000D01*
X81203663Y-96186242D01*
X81221655Y-96175142D01*
X81225000Y-96157250D01*
X81221064Y-96138634D01*
X81204170Y-96129094D01*
X81166682Y-96125750D01*
X81140862Y-96125500D01*
X81076796Y-96120668D01*
X81038465Y-96104085D01*
X81021046Y-96072620D01*
X81018625Y-96046125D01*
X81026065Y-96004523D01*
X81051602Y-95979633D01*
X81100059Y-95968322D01*
X81140862Y-95966750D01*
X81189723Y-95965626D01*
X81214755Y-95959771D01*
X81223863Y-95945454D01*
X81225000Y-95927062D01*
X81222618Y-95904014D01*
X81210204Y-95892207D01*
X81179852Y-95887910D01*
X81140862Y-95887375D01*
X81077058Y-95882637D01*
X81038884Y-95866189D01*
X81021338Y-95834676D01*
X81018625Y-95805383D01*
X81028933Y-95765356D01*
X81061824Y-95740659D01*
X81120240Y-95729605D01*
X81152518Y-95728625D01*
X81197202Y-95726850D01*
X81218537Y-95718795D01*
X81224849Y-95700357D01*
X81225059Y-95692906D01*
X81239742Y-95632889D01*
X81278540Y-95580215D01*
X81333876Y-95544164D01*
X81351275Y-95538319D01*
X81415500Y-95521026D01*
X81415500Y-95437500D01*
X81420290Y-95373875D01*
X81436903Y-95335864D01*
X81468700Y-95318481D01*
X81497491Y-95315875D01*
X81537518Y-95326183D01*
X81562215Y-95359074D01*
X81573269Y-95417490D01*
X81574250Y-95449768D01*
X81576426Y-95495107D01*
X81585091Y-95516666D01*
X81603451Y-95522247D01*
X81604034Y-95522250D01*
X81621835Y-95516956D01*
X81632627Y-95496359D01*
X81639371Y-95453381D01*
X81641180Y-95433476D01*
X81650785Y-95371061D01*
X81669440Y-95334504D01*
X81701099Y-95318322D01*
X81725856Y-95316118D01*
X81763534Y-95324958D01*
X81786081Y-95354750D01*
X81795741Y-95409371D01*
X81796500Y-95438112D01*
X81797623Y-95486973D01*
X81803478Y-95512005D01*
X81817795Y-95521113D01*
X81836187Y-95522250D01*
X81860547Y-95519345D01*
X81872174Y-95504996D01*
X81875697Y-95470749D01*
X81875875Y-95449768D01*
X81881784Y-95379946D01*
X81900640Y-95336867D01*
X81934128Y-95317585D01*
X81952633Y-95315875D01*
X81995430Y-95322937D01*
X82021035Y-95347459D01*
X82032804Y-95394441D01*
X82034625Y-95438112D01*
X82035748Y-95486973D01*
X82041603Y-95512005D01*
X82055920Y-95521113D01*
X82074312Y-95522250D01*
X82098672Y-95519345D01*
X82110299Y-95504996D01*
X82113822Y-95470749D01*
X82113999Y-95449768D01*
X82119693Y-95380461D01*
X82138094Y-95337677D01*
X82171186Y-95318054D01*
X82192996Y-95315875D01*
X82227582Y-95320122D01*
G36*
X86434460Y-95300053D02*
G01*
X86646312Y-95300107D01*
X86814936Y-95610482D01*
X86983561Y-95920856D01*
X87149440Y-95614397D01*
X87315319Y-95307937D01*
X87524534Y-95303507D01*
X87601854Y-95302570D01*
X87666271Y-95303122D01*
X87711936Y-95305013D01*
X87732998Y-95308091D01*
X87733750Y-95308908D01*
X87725997Y-95324503D01*
X87704021Y-95364090D01*
X87669744Y-95424322D01*
X87625089Y-95501854D01*
X87571979Y-95593340D01*
X87512337Y-95695434D01*
X87478647Y-95752852D01*
X87406664Y-95875810D01*
X87349650Y-95974475D01*
X87306139Y-96051718D01*
X87274661Y-96110410D01*
X87253752Y-96153423D01*
X87241943Y-96183626D01*
X87237767Y-96203893D01*
X87239758Y-96217094D01*
X87240574Y-96218787D01*
X87252740Y-96240094D01*
X87278955Y-96285043D01*
X87317066Y-96349974D01*
X87364917Y-96431225D01*
X87420355Y-96525136D01*
X87481226Y-96628044D01*
X87503615Y-96665847D01*
X87564924Y-96769531D01*
X87620655Y-96864172D01*
X87668836Y-96946389D01*
X87707495Y-97012801D01*
X87734660Y-97060029D01*
X87748358Y-97084692D01*
X87749625Y-97087479D01*
X87734722Y-97089835D01*
X87693904Y-97091800D01*
X87633003Y-97093197D01*
X87557854Y-97093849D01*
X87538908Y-97093875D01*
X87328192Y-97093875D01*
X87169814Y-96805778D01*
X87121313Y-96717884D01*
X87077255Y-96638670D01*
X87040185Y-96572660D01*
X87012647Y-96524377D01*
X86997184Y-96498346D01*
X86995555Y-96495915D01*
X86986147Y-96495550D01*
X86969283Y-96512820D01*
X86943522Y-96549939D01*
X86907426Y-96609124D01*
X86859552Y-96692591D01*
X86810865Y-96780043D01*
X86642055Y-97085937D01*
X86423774Y-97090368D01*
X86205493Y-97094798D01*
X86228858Y-97058618D01*
X86256228Y-97014904D01*
X86294028Y-96952644D01*
X86339925Y-96875855D01*
X86391585Y-96788553D01*
X86446674Y-96694756D01*
X86502858Y-96598479D01*
X86557803Y-96503741D01*
X86609175Y-96414556D01*
X86654641Y-96334943D01*
X86691867Y-96268917D01*
X86718519Y-96220496D01*
X86732262Y-96193696D01*
X86733625Y-96189875D01*
X86725860Y-96171605D01*
X86703986Y-96129860D01*
X86670130Y-96068448D01*
X86626421Y-95991178D01*
X86574986Y-95901857D01*
X86521830Y-95810879D01*
X86462376Y-95709762D01*
X86405911Y-95613650D01*
X86355155Y-95527181D01*
X86312830Y-95454993D01*
X86281657Y-95401724D01*
X86266321Y-95375406D01*
X86222608Y-95300000D01*
X86434460Y-95300053D01*
X86434460Y-95300053D01*
G37*
X86434460Y-95300053D02*
X86646312Y-95300107D01*
X86814936Y-95610482D01*
X86983561Y-95920856D01*
X87149440Y-95614397D01*
X87315319Y-95307937D01*
X87524534Y-95303507D01*
X87601854Y-95302570D01*
X87666271Y-95303122D01*
X87711936Y-95305013D01*
X87732998Y-95308091D01*
X87733750Y-95308908D01*
X87725997Y-95324503D01*
X87704021Y-95364090D01*
X87669744Y-95424322D01*
X87625089Y-95501854D01*
X87571979Y-95593340D01*
X87512337Y-95695434D01*
X87478647Y-95752852D01*
X87406664Y-95875810D01*
X87349650Y-95974475D01*
X87306139Y-96051718D01*
X87274661Y-96110410D01*
X87253752Y-96153423D01*
X87241943Y-96183626D01*
X87237767Y-96203893D01*
X87239758Y-96217094D01*
X87240574Y-96218787D01*
X87252740Y-96240094D01*
X87278955Y-96285043D01*
X87317066Y-96349974D01*
X87364917Y-96431225D01*
X87420355Y-96525136D01*
X87481226Y-96628044D01*
X87503615Y-96665847D01*
X87564924Y-96769531D01*
X87620655Y-96864172D01*
X87668836Y-96946389D01*
X87707495Y-97012801D01*
X87734660Y-97060029D01*
X87748358Y-97084692D01*
X87749625Y-97087479D01*
X87734722Y-97089835D01*
X87693904Y-97091800D01*
X87633003Y-97093197D01*
X87557854Y-97093849D01*
X87538908Y-97093875D01*
X87328192Y-97093875D01*
X87169814Y-96805778D01*
X87121313Y-96717884D01*
X87077255Y-96638670D01*
X87040185Y-96572660D01*
X87012647Y-96524377D01*
X86997184Y-96498346D01*
X86995555Y-96495915D01*
X86986147Y-96495550D01*
X86969283Y-96512820D01*
X86943522Y-96549939D01*
X86907426Y-96609124D01*
X86859552Y-96692591D01*
X86810865Y-96780043D01*
X86642055Y-97085937D01*
X86423774Y-97090368D01*
X86205493Y-97094798D01*
X86228858Y-97058618D01*
X86256228Y-97014904D01*
X86294028Y-96952644D01*
X86339925Y-96875855D01*
X86391585Y-96788553D01*
X86446674Y-96694756D01*
X86502858Y-96598479D01*
X86557803Y-96503741D01*
X86609175Y-96414556D01*
X86654641Y-96334943D01*
X86691867Y-96268917D01*
X86718519Y-96220496D01*
X86732262Y-96193696D01*
X86733625Y-96189875D01*
X86725860Y-96171605D01*
X86703986Y-96129860D01*
X86670130Y-96068448D01*
X86626421Y-95991178D01*
X86574986Y-95901857D01*
X86521830Y-95810879D01*
X86462376Y-95709762D01*
X86405911Y-95613650D01*
X86355155Y-95527181D01*
X86312830Y-95454993D01*
X86281657Y-95401724D01*
X86266321Y-95375406D01*
X86222608Y-95300000D01*
X86434460Y-95300053D01*
G36*
X85289195Y-95886650D02*
G01*
X85646187Y-96473301D01*
X85650349Y-95886650D01*
X85654511Y-95300000D01*
X86019250Y-95300000D01*
X86019250Y-97094882D01*
X85833304Y-97090410D01*
X85647359Y-97085937D01*
X84947687Y-95938855D01*
X84943523Y-96516365D01*
X84939358Y-97093875D01*
X84558750Y-97093875D01*
X84558750Y-95300000D01*
X84932202Y-95300000D01*
X85289195Y-95886650D01*
X85289195Y-95886650D01*
G37*
X85289195Y-95886650D02*
X85646187Y-96473301D01*
X85650349Y-95886650D01*
X85654511Y-95300000D01*
X86019250Y-95300000D01*
X86019250Y-97094882D01*
X85833304Y-97090410D01*
X85647359Y-97085937D01*
X84947687Y-95938855D01*
X84943523Y-96516365D01*
X84939358Y-97093875D01*
X84558750Y-97093875D01*
X84558750Y-95300000D01*
X84932202Y-95300000D01*
X85289195Y-95886650D01*
G36*
X83340071Y-95700460D02*
G01*
X83344312Y-96100920D01*
X83407222Y-96013991D01*
X83452999Y-95951756D01*
X83508557Y-95877830D01*
X83570953Y-95795971D01*
X83637241Y-95709933D01*
X83704474Y-95623474D01*
X83769707Y-95540349D01*
X83829995Y-95464316D01*
X83882392Y-95399129D01*
X83923952Y-95348547D01*
X83951730Y-95316324D01*
X83962268Y-95306189D01*
X83984379Y-95303852D01*
X84031697Y-95302518D01*
X84097694Y-95302263D01*
X84175840Y-95303165D01*
X84192090Y-95303485D01*
X84403266Y-95307937D01*
X84098160Y-95688937D01*
X84022041Y-95784310D01*
X83952353Y-95872237D01*
X83891588Y-95949527D01*
X83842237Y-96012986D01*
X83806792Y-96059423D01*
X83787745Y-96085645D01*
X83785249Y-96089825D01*
X83791916Y-96107193D01*
X83814326Y-96147880D01*
X83850579Y-96208809D01*
X83898775Y-96286901D01*
X83957015Y-96379079D01*
X84023399Y-96482266D01*
X84096027Y-96593383D01*
X84096659Y-96594343D01*
X84169457Y-96705060D01*
X84236423Y-96807288D01*
X84295618Y-96898036D01*
X84345101Y-96974311D01*
X84382932Y-97033123D01*
X84407169Y-97071480D01*
X84415872Y-97086391D01*
X84415875Y-97086424D01*
X84400963Y-97089145D01*
X84360083Y-97091421D01*
X84299013Y-97093051D01*
X84223534Y-97093834D01*
X84201236Y-97093875D01*
X83986597Y-97093875D01*
X83876977Y-96923218D01*
X83823540Y-96840043D01*
X83761031Y-96742768D01*
X83697549Y-96643998D01*
X83645505Y-96563041D01*
X83523653Y-96373520D01*
X83430704Y-96475729D01*
X83337756Y-96577937D01*
X83337065Y-96835906D01*
X83336375Y-97093875D01*
X82971250Y-97093875D01*
X82971250Y-95300000D01*
X83335829Y-95300000D01*
X83340071Y-95700460D01*
X83340071Y-95700460D01*
G37*
X83340071Y-95700460D02*
X83344312Y-96100920D01*
X83407222Y-96013991D01*
X83452999Y-95951756D01*
X83508557Y-95877830D01*
X83570953Y-95795971D01*
X83637241Y-95709933D01*
X83704474Y-95623474D01*
X83769707Y-95540349D01*
X83829995Y-95464316D01*
X83882392Y-95399129D01*
X83923952Y-95348547D01*
X83951730Y-95316324D01*
X83962268Y-95306189D01*
X83984379Y-95303852D01*
X84031697Y-95302518D01*
X84097694Y-95302263D01*
X84175840Y-95303165D01*
X84192090Y-95303485D01*
X84403266Y-95307937D01*
X84098160Y-95688937D01*
X84022041Y-95784310D01*
X83952353Y-95872237D01*
X83891588Y-95949527D01*
X83842237Y-96012986D01*
X83806792Y-96059423D01*
X83787745Y-96085645D01*
X83785249Y-96089825D01*
X83791916Y-96107193D01*
X83814326Y-96147880D01*
X83850579Y-96208809D01*
X83898775Y-96286901D01*
X83957015Y-96379079D01*
X84023399Y-96482266D01*
X84096027Y-96593383D01*
X84096659Y-96594343D01*
X84169457Y-96705060D01*
X84236423Y-96807288D01*
X84295618Y-96898036D01*
X84345101Y-96974311D01*
X84382932Y-97033123D01*
X84407169Y-97071480D01*
X84415872Y-97086391D01*
X84415875Y-97086424D01*
X84400963Y-97089145D01*
X84360083Y-97091421D01*
X84299013Y-97093051D01*
X84223534Y-97093834D01*
X84201236Y-97093875D01*
X83986597Y-97093875D01*
X83876977Y-96923218D01*
X83823540Y-96840043D01*
X83761031Y-96742768D01*
X83697549Y-96643998D01*
X83645505Y-96563041D01*
X83523653Y-96373520D01*
X83430704Y-96475729D01*
X83337756Y-96577937D01*
X83337065Y-96835906D01*
X83336375Y-97093875D01*
X82971250Y-97093875D01*
X82971250Y-95300000D01*
X83335829Y-95300000D01*
X83340071Y-95700460D01*
D12*
X143900000Y-116300000D02*
X143900000Y-115700000D01*
X144500000Y-116000000D02*
X143900000Y-116300000D01*
X143900000Y-115700000D02*
X144500000Y-116000000D01*
X151300000Y-118560000D02*
X151300000Y-95940000D01*
X145190000Y-100950000D02*
X145190000Y-99550000D01*
X145190000Y-104450000D02*
X145190000Y-103050000D01*
X145190000Y-107950000D02*
X145190000Y-106550000D01*
X145190000Y-111450000D02*
X145190000Y-110050000D01*
X145190000Y-114950000D02*
X145190000Y-113550000D01*
X145190000Y-95940000D02*
X145190000Y-97450000D01*
X145190000Y-118560000D02*
X145190000Y-117050000D01*
X154610000Y-95940000D02*
X145190000Y-95940000D01*
X154610000Y-118560000D02*
X154610000Y-95940000D01*
X145190000Y-118560000D02*
X154610000Y-118560000D01*
X79100000Y-98300000D02*
X79100000Y-98900000D01*
X78500000Y-98600000D02*
X79100000Y-98300000D01*
X79100000Y-98900000D02*
X78500000Y-98600000D01*
X71700000Y-96040000D02*
X71700000Y-118660000D01*
X77810000Y-113650000D02*
X77810000Y-115050000D01*
X77810000Y-110150000D02*
X77810000Y-111550000D01*
X77810000Y-106650000D02*
X77810000Y-108050000D01*
X77810000Y-103150000D02*
X77810000Y-104550000D01*
X77810000Y-99650000D02*
X77810000Y-101050000D01*
X77810000Y-118660000D02*
X77810000Y-117150000D01*
X77810000Y-96040000D02*
X77810000Y-97550000D01*
X68390000Y-118660000D02*
X77810000Y-118660000D01*
X68390000Y-96040000D02*
X68390000Y-118660000D01*
X77810000Y-96040000D02*
X68390000Y-96040000D01*
D10*
X149852380Y-107583333D02*
X150566666Y-107583333D01*
X150709523Y-107630952D01*
X150804761Y-107726190D01*
X150852380Y-107869047D01*
X150852380Y-107964285D01*
X149947619Y-107154761D02*
X149900000Y-107107142D01*
X149852380Y-107011904D01*
X149852380Y-106773809D01*
X149900000Y-106678571D01*
X149947619Y-106630952D01*
X150042857Y-106583333D01*
X150138095Y-106583333D01*
X150280952Y-106630952D01*
X150852380Y-107202380D01*
X150852380Y-106583333D01*
X72552380Y-107683333D02*
X73266666Y-107683333D01*
X73409523Y-107730952D01*
X73504761Y-107826190D01*
X73552380Y-107969047D01*
X73552380Y-108064285D01*
X73552380Y-106683333D02*
X73552380Y-107254761D01*
X73552380Y-106969047D02*
X72552380Y-106969047D01*
X72695238Y-107064285D01*
X72790476Y-107159523D01*
X72838095Y-107254761D01*
M02*
