solid CATIA STL
  facet normal  -0.000000e+000  0.000000e+000  1.000000e+000
    outer loop
      vertex  4.275000e+001  1.060000e+001  7.000000e+000
      vertex -4.275000e+001  1.060000e+001  7.000000e+000
      vertex -4.275000e+001  9.600000e+000  7.000000e+000
    endloop
  endfacet
  facet normal  0.000000e+000  0.000000e+000  1.000000e+000
    outer loop
      vertex  4.275000e+001  1.060000e+001  7.000000e+000
      vertex -4.275000e+001  9.600000e+000  7.000000e+000
      vertex -4.175000e+001  9.600000e+000  7.000000e+000
    endloop
  endfacet
  facet normal  0.000000e+000  0.000000e+000  1.000000e+000
    outer loop
      vertex  4.275000e+001  1.060000e+001  7.000000e+000
      vertex -4.175000e+001  9.600000e+000  7.000000e+000
      vertex -2.173563e+001  9.600000e+000  7.000000e+000
    endloop
  endfacet
  facet normal  0.000000e+000  0.000000e+000  1.000000e+000
    outer loop
      vertex  4.275000e+001  1.060000e+001  7.000000e+000
      vertex -2.173563e+001  9.600000e+000  7.000000e+000
      vertex -2.788627e+000  9.600000e+000  7.000000e+000
    endloop
  endfacet
  facet normal  0.000000e+000  0.000000e+000  1.000000e+000
    outer loop
      vertex  4.275000e+001  1.060000e+001  7.000000e+000
      vertex -2.788627e+000  9.600000e+000  7.000000e+000
      vertex  3.305000e+001  9.600000e+000  7.000000e+000
    endloop
  endfacet
  facet normal  0.000000e+000  0.000000e+000  1.000000e+000
    outer loop
      vertex  4.275000e+001  1.060000e+001  7.000000e+000
      vertex  3.305000e+001  9.600000e+000  7.000000e+000
      vertex  4.175000e+001  9.600000e+000  7.000000e+000
    endloop
  endfacet
  facet normal  -0.000000e+000  0.000000e+000  1.000000e+000
    outer loop
      vertex  4.275000e+001  1.060000e+001  7.000000e+000
      vertex  4.175000e+001  9.600000e+000  7.000000e+000
      vertex  4.175000e+001  9.400000e+000  7.000000e+000
    endloop
  endfacet
  facet normal  0.000000e+000  0.000000e+000  9.999999e-001
    outer loop
      vertex  4.275000e+001  1.060000e+001  7.000000e+000
      vertex  4.175000e+001  9.400000e+000  7.000000e+000
      vertex  4.275000e+001  9.400000e+000  7.000000e+000
    endloop
  endfacet
  facet normal  0.000000e+000  0.000000e+000  1.000000e+000
    outer loop
      vertex -4.275000e+001  7.340000e+000  7.000000e+000
      vertex -4.175000e+001  7.340000e+000  7.000000e+000
      vertex -4.275000e+001  9.600000e+000  7.000000e+000
    endloop
  endfacet
  facet normal  -0.000000e+000  0.000000e+000  1.000000e+000
    outer loop
      vertex -4.275000e+001  9.600000e+000  7.000000e+000
      vertex -4.175000e+001  7.340000e+000  7.000000e+000
      vertex -4.175000e+001  9.600000e+000  7.000000e+000
    endloop
  endfacet
  facet normal -1.000000e+000  0.000000e+000  0.000000e+000
    outer loop
      vertex -4.175000e+001  7.340000e+000  7.000000e+000
      vertex -4.175000e+001  7.340000e+000  1.160000e+001
      vertex -4.175000e+001  9.600000e+000  7.000000e+000
    endloop
  endfacet
  facet normal -1.000000e+000  0.000000e+000  0.000000e+000
    outer loop
      vertex -4.175000e+001  9.600000e+000  7.000000e+000
      vertex -4.175000e+001  7.340000e+000  1.160000e+001
      vertex -4.175000e+001  9.600000e+000  1.160000e+001
    endloop
  endfacet
  facet normal  0.000000e+000 -1.000000e+000  0.000000e+000
    outer loop
      vertex -3.825000e+001  7.340000e+000  1.160000e+001
      vertex -4.175000e+001  7.340000e+000  1.160000e+001
      vertex -3.825000e+001  7.340000e+000  0.000000e+000
    endloop
  endfacet
  facet normal  0.000000e+000 -1.000000e+000  0.000000e+000
    outer loop
      vertex -3.825000e+001  7.340000e+000  0.000000e+000
      vertex -4.175000e+001  7.340000e+000  1.160000e+001
      vertex -4.175000e+001  7.340000e+000  7.000000e+000
    endloop
  endfacet
  facet normal  0.000000e+000 -1.000000e+000  -0.000000e+000
    outer loop
      vertex -3.825000e+001  7.340000e+000  0.000000e+000
      vertex -4.175000e+001  7.340000e+000  7.000000e+000
      vertex -4.275000e+001  7.340000e+000  0.000000e+000
    endloop
  endfacet
  facet normal  0.000000e+000 -1.000000e+000  0.000000e+000
    outer loop
      vertex -4.275000e+001  7.340000e+000  0.000000e+000
      vertex -4.175000e+001  7.340000e+000  7.000000e+000
      vertex -4.275000e+001  7.340000e+000  7.000000e+000
    endloop
  endfacet
  facet normal  0.000000e+000  0.000000e+000  1.000000e+000
    outer loop
      vertex -3.209000e+001  8.600000e+000  1.160000e+001
      vertex -3.825000e+001  8.340000e+000  1.160000e+001
      vertex -3.425000e+001  8.340000e+000  1.160000e+001
    endloop
  endfacet
  facet normal  0.000000e+000  0.000000e+000  1.000000e+000
    outer loop
      vertex -4.175000e+001  7.340000e+000  1.160000e+001
      vertex -3.825000e+001  7.340000e+000  1.160000e+001
      vertex -4.175000e+001  9.600000e+000  1.160000e+001
    endloop
  endfacet
  facet normal  0.000000e+000  0.000000e+000  1.000000e+000
    outer loop
      vertex -4.175000e+001  9.600000e+000  1.160000e+001
      vertex -3.825000e+001  7.340000e+000  1.160000e+001
      vertex -3.825000e+001  8.340000e+000  1.160000e+001
    endloop
  endfacet
  facet normal  0.000000e+000  -0.000000e+000  1.000000e+000
    outer loop
      vertex -4.175000e+001  9.600000e+000  1.160000e+001
      vertex -3.825000e+001  8.340000e+000  1.160000e+001
      vertex -2.173563e+001  9.600000e+000  1.160000e+001
    endloop
  endfacet
  facet normal  0.000000e+000  0.000000e+000  9.999999e-001
    outer loop
      vertex -2.173563e+001  9.600000e+000  1.160000e+001
      vertex -3.825000e+001  8.340000e+000  1.160000e+001
      vertex -3.209000e+001  8.600000e+000  1.160000e+001
    endloop
  endfacet
  facet normal  0.000000e+000  0.000000e+000  1.000000e+000
    outer loop
      vertex -2.173563e+001  9.600000e+000  1.160000e+001
      vertex -3.209000e+001  8.600000e+000  1.160000e+001
      vertex -2.173563e+001  8.600000e+000  1.160000e+001
    endloop
  endfacet
  facet normal  0.000000e+000  0.000000e+000  1.000000e+000
    outer loop
      vertex -3.425000e+001  8.340000e+000  1.160000e+001
      vertex -3.425000e+001  7.340000e+000  1.160000e+001
      vertex -3.209000e+001  8.600000e+000  1.160000e+001
    endloop
  endfacet
  facet normal  0.000000e+000  0.000000e+000  1.000000e+000
    outer loop
      vertex -3.209000e+001  8.600000e+000  1.160000e+001
      vertex -3.425000e+001  7.340000e+000  1.160000e+001
      vertex -3.295000e+001  7.340000e+000  1.160000e+001
    endloop
  endfacet
  facet normal  -0.000000e+000  0.000000e+000  1.000000e+000
    outer loop
      vertex -3.209000e+001  8.600000e+000  1.160000e+001
      vertex -3.295000e+001  7.340000e+000  1.160000e+001
      vertex -3.209000e+001 -8.600000e+000  1.160000e+001
    endloop
  endfacet
  facet normal  0.000000e+000  0.000000e+000  1.000000e+000
    outer loop
      vertex -3.209000e+001 -8.600000e+000  1.160000e+001
      vertex -3.295000e+001  7.340000e+000  1.160000e+001
      vertex -3.295000e+001 -4.860000e+000  1.160000e+001
    endloop
  endfacet
  facet normal  -0.000000e+000  0.000000e+000  1.000000e+000
    outer loop
      vertex -3.295000e+001 -4.860000e+000  1.160000e+001
      vertex -4.175000e+001 -4.860000e+000  1.160000e+001
      vertex -3.209000e+001 -8.600000e+000  1.160000e+001
    endloop
  endfacet
  facet normal  0.000000e+000  0.000000e+000  1.000000e+000
    outer loop
      vertex -3.209000e+001 -8.600000e+000  1.160000e+001
      vertex -4.175000e+001 -4.860000e+000  1.160000e+001
      vertex -4.175000e+001 -9.600000e+000  1.160000e+001
    endloop
  endfacet
  facet normal  0.000000e+000  0.000000e+000  1.000000e+000
    outer loop
      vertex -3.209000e+001 -8.600000e+000  1.160000e+001
      vertex -4.175000e+001 -9.600000e+000  1.160000e+001
      vertex -2.173563e+001 -8.600000e+000  1.160000e+001
    endloop
  endfacet
  facet normal  0.000000e+000  0.000000e+000  1.000000e+000
    outer loop
      vertex -2.173563e+001 -8.600000e+000  1.160000e+001
      vertex -4.175000e+001 -9.600000e+000  1.160000e+001
      vertex -2.173563e+001 -9.600000e+000  1.160000e+001
    endloop
  endfacet
  facet normal  0.000000e+000  1.000000e+000  0.000000e+000
    outer loop
      vertex -4.175000e+001  9.600000e+000  7.000000e+000
      vertex -4.175000e+001  9.600000e+000  1.160000e+001
      vertex -2.173563e+001  9.600000e+000  7.000000e+000
    endloop
  endfacet
  facet normal  0.000000e+000  1.000000e+000  -0.000000e+000
    outer loop
      vertex -2.173563e+001  9.600000e+000  7.000000e+000
      vertex -4.175000e+001  9.600000e+000  1.160000e+001
      vertex -2.173563e+001  9.600000e+000  1.160000e+001
    endloop
  endfacet
  facet normal -1.000000e+000  0.000000e+000  0.000000e+000
    outer loop
      vertex -4.275000e+001  1.060000e+001  0.000000e+000
      vertex -4.275000e+001  8.340000e+000  0.000000e+000
      vertex -4.275000e+001  1.060000e+001  7.000000e+000
    endloop
  endfacet
  facet normal -1.000000e+000  -0.000000e+000  0.000000e+000
    outer loop
      vertex -4.275000e+001  1.060000e+001  7.000000e+000
      vertex -4.275000e+001  8.340000e+000  0.000000e+000
      vertex -4.275000e+001  9.600000e+000  7.000000e+000
    endloop
  endfacet
  facet normal -1.000000e+000  0.000000e+000  0.000000e+000
    outer loop
      vertex -4.275000e+001  8.340000e+000  0.000000e+000
      vertex -4.275000e+001  7.340000e+000  0.000000e+000
      vertex -4.275000e+001  9.600000e+000  7.000000e+000
    endloop
  endfacet
  facet normal -1.000000e+000  -0.000000e+000  0.000000e+000
    outer loop
      vertex -4.275000e+001  9.600000e+000  7.000000e+000
      vertex -4.275000e+001  7.340000e+000  0.000000e+000
      vertex -4.275000e+001  7.340000e+000  7.000000e+000
    endloop
  endfacet
  facet normal  0.000000e+000 -1.000000e+000  0.000000e+000
    outer loop
      vertex -2.173563e+001 -9.600000e+000  1.160000e+001
      vertex -4.175000e+001 -9.600000e+000  1.160000e+001
      vertex -2.173563e+001 -9.600000e+000  7.000000e+000
    endloop
  endfacet
  facet normal  0.000000e+000 -1.000000e+000  0.000000e+000
    outer loop
      vertex -2.173563e+001 -9.600000e+000  7.000000e+000
      vertex -4.175000e+001 -9.600000e+000  1.160000e+001
      vertex -4.175000e+001 -9.600000e+000  7.000000e+000
    endloop
  endfacet
  facet normal  0.000000e+000  0.000000e+000 -1.000000e+000
    outer loop
      vertex -3.425000e+001  7.340000e+000  0.000000e+000
      vertex -3.425000e+001  8.340000e+000  0.000000e+000
      vertex -3.295000e+001  7.340000e+000  0.000000e+000
    endloop
  endfacet
  facet normal  0.000000e+000  0.000000e+000 -1.000000e+000
    outer loop
      vertex  4.275000e+001  1.060000e+001  0.000000e+000
      vertex  4.275000e+001 -1.060000e+001  0.000000e+000
      vertex -3.295000e+001 -4.860000e+000  0.000000e+000
    endloop
  endfacet
  facet normal  0.000000e+000  0.000000e+000 -1.000000e+000
    outer loop
      vertex  4.275000e+001  1.060000e+001  0.000000e+000
      vertex -3.295000e+001 -4.860000e+000  0.000000e+000
      vertex -3.295000e+001  7.340000e+000  0.000000e+000
    endloop
  endfacet
  facet normal  0.000000e+000  0.000000e+000 -9.999999e-001
    outer loop
      vertex  4.275000e+001  1.060000e+001  0.000000e+000
      vertex -3.295000e+001  7.340000e+000  0.000000e+000
      vertex -3.425000e+001  8.340000e+000  0.000000e+000
    endloop
  endfacet
  facet normal  0.000000e+000  0.000000e+000 -1.000000e+000
    outer loop
      vertex  4.275000e+001  1.060000e+001  0.000000e+000
      vertex -3.425000e+001  8.340000e+000  0.000000e+000
      vertex -3.825000e+001  8.340000e+000  0.000000e+000
    endloop
  endfacet
  facet normal  0.000000e+000  0.000000e+000 -1.000000e+000
    outer loop
      vertex  4.275000e+001  1.060000e+001  0.000000e+000
      vertex -3.825000e+001  8.340000e+000  0.000000e+000
      vertex -4.275000e+001  8.340000e+000  0.000000e+000
    endloop
  endfacet
  facet normal  0.000000e+000  0.000000e+000 -1.000000e+000
    outer loop
      vertex  4.275000e+001  1.060000e+001  0.000000e+000
      vertex -4.275000e+001  8.340000e+000  0.000000e+000
      vertex -4.275000e+001  1.060000e+001  0.000000e+000
    endloop
  endfacet
  facet normal  0.000000e+000  0.000000e+000 -1.000000e+000
    outer loop
      vertex -4.275000e+001  7.340000e+000  0.000000e+000
      vertex -4.275000e+001  8.340000e+000  0.000000e+000
      vertex -3.825000e+001  7.340000e+000  0.000000e+000
    endloop
  endfacet
  facet normal  0.000000e+000  0.000000e+000 -1.000000e+000
    outer loop
      vertex -3.825000e+001  7.340000e+000  0.000000e+000
      vertex -4.275000e+001  8.340000e+000  0.000000e+000
      vertex -3.825000e+001  8.340000e+000  0.000000e+000
    endloop
  endfacet
  facet normal  0.000000e+000  0.000000e+000 -1.000000e+000
    outer loop
      vertex -4.275000e+001 -1.060000e+001  0.000000e+000
      vertex -4.275000e+001 -4.860000e+000  0.000000e+000
      vertex  4.275000e+001 -1.060000e+001  0.000000e+000
    endloop
  endfacet
  facet normal  0.000000e+000  0.000000e+000 -1.000000e+000
    outer loop
      vertex  4.275000e+001 -1.060000e+001  0.000000e+000
      vertex -4.275000e+001 -4.860000e+000  0.000000e+000
      vertex -3.295000e+001 -4.860000e+000  0.000000e+000
    endloop
  endfacet
  facet normal  0.000000e+000  9.999999e-001  -0.000000e+000
    outer loop
      vertex -3.295000e+001 -4.860000e+000  1.160000e+001
      vertex -3.295000e+001 -4.860000e+000  0.000000e+000
      vertex -4.175000e+001 -4.860000e+000  1.160000e+001
    endloop
  endfacet
  facet normal  0.000000e+000  9.999999e-001  0.000000e+000
    outer loop
      vertex -4.175000e+001 -4.860000e+000  1.160000e+001
      vertex -3.295000e+001 -4.860000e+000  0.000000e+000
      vertex -4.175000e+001 -4.860000e+000  7.000000e+000
    endloop
  endfacet
  facet normal  0.000000e+000  1.000000e+000  0.000000e+000
    outer loop
      vertex -3.295000e+001 -4.860000e+000  0.000000e+000
      vertex -4.275000e+001 -4.860000e+000  0.000000e+000
      vertex -4.175000e+001 -4.860000e+000  7.000000e+000
    endloop
  endfacet
  facet normal  0.000000e+000  1.000000e+000  0.000000e+000
    outer loop
      vertex -4.175000e+001 -4.860000e+000  7.000000e+000
      vertex -4.275000e+001 -4.860000e+000  0.000000e+000
      vertex -4.275000e+001 -4.860000e+000  7.000000e+000
    endloop
  endfacet
  facet normal -1.000000e+000  0.000000e+000  0.000000e+000
    outer loop
      vertex -3.295000e+001  7.340000e+000  1.160000e+001
      vertex -3.295000e+001  7.340000e+000  0.000000e+000
      vertex -3.295000e+001 -4.860000e+000  1.160000e+001
    endloop
  endfacet
  facet normal -1.000000e+000  0.000000e+000  0.000000e+000
    outer loop
      vertex -3.295000e+001 -4.860000e+000  1.160000e+001
      vertex -3.295000e+001  7.340000e+000  0.000000e+000
      vertex -3.295000e+001 -4.860000e+000  0.000000e+000
    endloop
  endfacet
  facet normal  0.000000e+000 -9.999999e-001  -0.000000e+000
    outer loop
      vertex -3.425000e+001  8.340000e+000  0.000000e+000
      vertex -3.425000e+001  8.340000e+000  1.160000e+001
      vertex -3.825000e+001  8.340000e+000  0.000000e+000
    endloop
  endfacet
  facet normal  0.000000e+000 -9.999999e-001  0.000000e+000
    outer loop
      vertex -3.825000e+001  8.340000e+000  0.000000e+000
      vertex -3.425000e+001  8.340000e+000  1.160000e+001
      vertex -3.825000e+001  8.340000e+000  1.160000e+001
    endloop
  endfacet
  facet normal  1.000000e+000  0.000000e+000  0.000000e+000
    outer loop
      vertex -3.209000e+001 -8.600000e+000  1.160000e+001
      vertex -3.209000e+001 -8.600000e+000  8.000000e-001
      vertex -3.209000e+001  8.600000e+000  1.160000e+001
    endloop
  endfacet
  facet normal  1.000000e+000  0.000000e+000  0.000000e+000
    outer loop
      vertex -3.209000e+001  8.600000e+000  1.160000e+001
      vertex -3.209000e+001 -8.600000e+000  8.000000e-001
      vertex -3.209000e+001  8.600000e+000  8.000000e-001
    endloop
  endfacet
  facet normal  -0.000000e+000 -1.000000e+000  0.000000e+000
    outer loop
      vertex  9.769570e+000  8.600000e+000  9.600000e+000
      vertex  1.930266e+001  8.600000e+000  1.160000e+001
      vertex  9.769570e+000  8.600000e+000  1.160000e+001
    endloop
  endfacet
  facet normal  -0.000000e+000 -1.000000e+000  -0.000000e+000
    outer loop
      vertex  4.075000e+001  8.600000e+000  8.000000e-001
      vertex  4.075000e+001  8.600000e+000  4.200000e+000
      vertex  3.305000e+001  8.600000e+000  4.200000e+000
    endloop
  endfacet
  facet normal  -0.000000e+000 -1.000000e+000  -0.000000e+000
    outer loop
      vertex  4.075000e+001  8.600000e+000  8.000000e-001
      vertex  3.305000e+001  8.600000e+000  4.200000e+000
      vertex -2.788627e+000  8.600000e+000  4.600000e+000
    endloop
  endfacet
  facet normal  -0.000000e+000 -1.000000e+000  -0.000000e+000
    outer loop
      vertex  4.075000e+001  8.600000e+000  8.000000e-001
      vertex -2.788627e+000  8.600000e+000  4.600000e+000
      vertex -2.173563e+001  8.600000e+000  4.600000e+000
    endloop
  endfacet
  facet normal  0.000000e+000 -1.000000e+000  -0.000000e+000
    outer loop
      vertex  4.075000e+001  8.600000e+000  8.000000e-001
      vertex -2.173563e+001  8.600000e+000  4.600000e+000
      vertex -3.209000e+001  8.600000e+000  8.000000e-001
    endloop
  endfacet
  facet normal  0.000000e+000 -1.000000e+000  0.000000e+000
    outer loop
      vertex -2.788627e+000  8.600000e+000  4.600000e+000
      vertex  3.305000e+001  8.600000e+000  4.200000e+000
      vertex  3.305000e+001  8.600000e+000  8.600000e+000
    endloop
  endfacet
  facet normal  -0.000000e+000 -1.000000e+000  0.000000e+000
    outer loop
      vertex -2.788627e+000  8.600000e+000  4.600000e+000
      vertex  3.305000e+001  8.600000e+000  8.600000e+000
      vertex  1.930266e+001  8.600000e+000  8.600000e+000
    endloop
  endfacet
  facet normal  -0.000000e+000 -1.000000e+000  0.000000e+000
    outer loop
      vertex -2.788627e+000  8.600000e+000  4.600000e+000
      vertex  1.930266e+001  8.600000e+000  8.600000e+000
      vertex  1.930266e+001  8.600000e+000  1.160000e+001
    endloop
  endfacet
  facet normal  0.000000e+000 -1.000000e+000  0.000000e+000
    outer loop
      vertex -2.788627e+000  8.600000e+000  4.600000e+000
      vertex  1.930266e+001  8.600000e+000  1.160000e+001
      vertex  9.769570e+000  8.600000e+000  9.600000e+000
    endloop
  endfacet
  facet normal  -0.000000e+000 -1.000000e+000  0.000000e+000
    outer loop
      vertex -2.788627e+000  8.600000e+000  4.600000e+000
      vertex  9.769570e+000  8.600000e+000  9.600000e+000
      vertex -2.788627e+000  8.600000e+000  9.600000e+000
    endloop
  endfacet
  facet normal  0.000000e+000 -1.000000e+000  0.000000e+000
    outer loop
      vertex -3.209000e+001  8.600000e+000  1.160000e+001
      vertex -3.209000e+001  8.600000e+000  8.000000e-001
      vertex -2.173563e+001  8.600000e+000  1.160000e+001
    endloop
  endfacet
  facet normal  0.000000e+000 -1.000000e+000  -0.000000e+000
    outer loop
      vertex -2.173563e+001  8.600000e+000  1.160000e+001
      vertex -3.209000e+001  8.600000e+000  8.000000e-001
      vertex -2.173563e+001  8.600000e+000  4.600000e+000
    endloop
  endfacet
  facet normal  0.000000e+000  9.999999e-001  0.000000e+000
    outer loop
      vertex  4.075000e+001 -8.600000e+000  8.000000e-001
      vertex -3.209000e+001 -8.600000e+000  8.000000e-001
      vertex -2.173563e+001 -8.600000e+000  6.100000e+000
    endloop
  endfacet
  facet normal  -0.000000e+000  1.000000e+000  0.000000e+000
    outer loop
      vertex  4.075000e+001 -8.600000e+000  8.000000e-001
      vertex -2.173563e+001 -8.600000e+000  6.100000e+000
      vertex -2.788627e+000 -8.600000e+000  6.100000e+000
    endloop
  endfacet
  facet normal  -0.000000e+000  1.000000e+000  0.000000e+000
    outer loop
      vertex  4.075000e+001 -8.600000e+000  8.000000e-001
      vertex -2.788627e+000 -8.600000e+000  6.100000e+000
      vertex -2.788627e+000 -8.600000e+000  1.160000e+001
    endloop
  endfacet
  facet normal  -0.000000e+000  9.999999e-001  0.000000e+000
    outer loop
      vertex  4.075000e+001 -8.600000e+000  8.000000e-001
      vertex -2.788627e+000 -8.600000e+000  1.160000e+001
      vertex  4.075000e+001 -8.600000e+000  1.160000e+001
    endloop
  endfacet
  facet normal  0.000000e+000  9.999999e-001  -0.000000e+000
    outer loop
      vertex -2.173563e+001 -8.600000e+000  1.160000e+001
      vertex -2.173563e+001 -8.600000e+000  6.100000e+000
      vertex -3.209000e+001 -8.600000e+000  1.160000e+001
    endloop
  endfacet
  facet normal  0.000000e+000  1.000000e+000  0.000000e+000
    outer loop
      vertex -3.209000e+001 -8.600000e+000  1.160000e+001
      vertex -2.173563e+001 -8.600000e+000  6.100000e+000
      vertex -3.209000e+001 -8.600000e+000  8.000000e-001
    endloop
  endfacet
  facet normal  0.000000e+000  0.000000e+000  1.000000e+000
    outer loop
      vertex -3.209000e+001 -8.600000e+000  8.000000e-001
      vertex  4.075000e+001 -8.600000e+000  8.000000e-001
      vertex -3.209000e+001  8.600000e+000  8.000000e-001
    endloop
  endfacet
  facet normal  -0.000000e+000  0.000000e+000  1.000000e+000
    outer loop
      vertex -3.209000e+001  8.600000e+000  8.000000e-001
      vertex  4.075000e+001 -8.600000e+000  8.000000e-001
      vertex  4.075000e+001  8.600000e+000  8.000000e-001
    endloop
  endfacet
  facet normal -1.000000e+000  0.000000e+000  0.000000e+000
    outer loop
      vertex -4.175000e+001 -9.600000e+000  7.000000e+000
      vertex -4.175000e+001 -9.600000e+000  1.160000e+001
      vertex -4.175000e+001 -4.860000e+000  7.000000e+000
    endloop
  endfacet
  facet normal -1.000000e+000  0.000000e+000  0.000000e+000
    outer loop
      vertex -4.175000e+001 -4.860000e+000  7.000000e+000
      vertex -4.175000e+001 -9.600000e+000  1.160000e+001
      vertex -4.175000e+001 -4.860000e+000  1.160000e+001
    endloop
  endfacet
  facet normal  0.000000e+000  0.000000e+000  1.000000e+000
    outer loop
      vertex -4.275000e+001 -1.060000e+001  7.000000e+000
      vertex  4.275000e+001 -1.060000e+001  7.000000e+000
      vertex  4.175000e+001 -9.600000e+000  7.000000e+000
    endloop
  endfacet
  facet normal  0.000000e+000  0.000000e+000  1.000000e+000
    outer loop
      vertex -4.275000e+001 -1.060000e+001  7.000000e+000
      vertex  4.175000e+001 -9.600000e+000  7.000000e+000
      vertex -2.788627e+000 -9.600000e+000  7.000000e+000
    endloop
  endfacet
  facet normal  0.000000e+000  0.000000e+000  1.000000e+000
    outer loop
      vertex -4.275000e+001 -1.060000e+001  7.000000e+000
      vertex -2.788627e+000 -9.600000e+000  7.000000e+000
      vertex -2.173563e+001 -9.600000e+000  7.000000e+000
    endloop
  endfacet
  facet normal  0.000000e+000  0.000000e+000  1.000000e+000
    outer loop
      vertex -4.275000e+001 -1.060000e+001  7.000000e+000
      vertex -2.173563e+001 -9.600000e+000  7.000000e+000
      vertex -4.175000e+001 -9.600000e+000  7.000000e+000
    endloop
  endfacet
  facet normal  0.000000e+000  -0.000000e+000  9.999999e-001
    outer loop
      vertex -4.275000e+001 -1.060000e+001  7.000000e+000
      vertex -4.175000e+001 -9.600000e+000  7.000000e+000
      vertex -4.175000e+001 -4.860000e+000  7.000000e+000
    endloop
  endfacet
  facet normal  0.000000e+000  0.000000e+000  1.000000e+000
    outer loop
      vertex -4.275000e+001 -1.060000e+001  7.000000e+000
      vertex -4.175000e+001 -4.860000e+000  7.000000e+000
      vertex -4.275000e+001 -4.860000e+000  7.000000e+000
    endloop
  endfacet
  facet normal  0.000000e+000  0.000000e+000  1.000000e+000
    outer loop
      vertex  4.175000e+001 -9.600000e+000  7.000000e+000
      vertex  4.275000e+001 -1.060000e+001  7.000000e+000
      vertex  4.175000e+001 -6.200000e+000  7.000000e+000
    endloop
  endfacet
  facet normal  -0.000000e+000  0.000000e+000  1.000000e+000
    outer loop
      vertex  4.175000e+001 -6.200000e+000  7.000000e+000
      vertex  4.275000e+001 -1.060000e+001  7.000000e+000
      vertex  4.275000e+001 -6.200000e+000  7.000000e+000
    endloop
  endfacet
  facet normal  9.999999e-001  0.000000e+000  0.000000e+000
    outer loop
      vertex -3.825000e+001  7.340000e+000  0.000000e+000
      vertex -3.825000e+001  8.340000e+000  0.000000e+000
      vertex -3.825000e+001  7.340000e+000  1.160000e+001
    endloop
  endfacet
  facet normal  9.999999e-001  -0.000000e+000  0.000000e+000
    outer loop
      vertex -3.825000e+001  7.340000e+000  1.160000e+001
      vertex -3.825000e+001  8.340000e+000  0.000000e+000
      vertex -3.825000e+001  8.340000e+000  1.160000e+001
    endloop
  endfacet
  facet normal -9.999999e-001  0.000000e+000  0.000000e+000
    outer loop
      vertex -3.425000e+001  8.340000e+000  0.000000e+000
      vertex -3.425000e+001  7.340000e+000  0.000000e+000
      vertex -3.425000e+001  8.340000e+000  1.160000e+001
    endloop
  endfacet
  facet normal -9.999999e-001  -0.000000e+000  0.000000e+000
    outer loop
      vertex -3.425000e+001  8.340000e+000  1.160000e+001
      vertex -3.425000e+001  7.340000e+000  0.000000e+000
      vertex -3.425000e+001  7.340000e+000  1.160000e+001
    endloop
  endfacet
  facet normal  0.000000e+000 -1.000000e+000  0.000000e+000
    outer loop
      vertex -3.425000e+001  7.340000e+000  0.000000e+000
      vertex -3.295000e+001  7.340000e+000  0.000000e+000
      vertex -3.425000e+001  7.340000e+000  1.160000e+001
    endloop
  endfacet
  facet normal  0.000000e+000 -1.000000e+000  0.000000e+000
    outer loop
      vertex -3.425000e+001  7.340000e+000  1.160000e+001
      vertex -3.295000e+001  7.340000e+000  0.000000e+000
      vertex -3.295000e+001  7.340000e+000  1.160000e+001
    endloop
  endfacet
  facet normal -1.000000e+000  -0.000000e+000  0.000000e+000
    outer loop
      vertex -4.275000e+001 -1.060000e+001  7.000000e+000
      vertex -4.275000e+001 -4.860000e+000  7.000000e+000
      vertex -4.275000e+001 -1.060000e+001  0.000000e+000
    endloop
  endfacet
  facet normal -1.000000e+000  0.000000e+000  0.000000e+000
    outer loop
      vertex -4.275000e+001 -1.060000e+001  0.000000e+000
      vertex -4.275000e+001 -4.860000e+000  7.000000e+000
      vertex -4.275000e+001 -4.860000e+000  0.000000e+000
    endloop
  endfacet
  facet normal  0.000000e+000 -1.000000e+000  0.000000e+000
    outer loop
      vertex  4.175000e+001 -9.600000e+000  1.160000e+001
      vertex -2.788627e+000 -9.600000e+000  1.160000e+001
      vertex  4.175000e+001 -9.600000e+000  7.000000e+000
    endloop
  endfacet
  facet normal  0.000000e+000 -1.000000e+000  0.000000e+000
    outer loop
      vertex  4.175000e+001 -9.600000e+000  7.000000e+000
      vertex -2.788627e+000 -9.600000e+000  1.160000e+001
      vertex -2.788627e+000 -9.600000e+000  7.000000e+000
    endloop
  endfacet
  facet normal  -0.000000e+000  0.000000e+000  1.000000e+000
    outer loop
      vertex  4.175000e+001 -6.200000e+000  1.160000e+001
      vertex  4.075000e+001 -6.200000e+000  1.160000e+001
      vertex  4.175000e+001 -9.600000e+000  1.160000e+001
    endloop
  endfacet
  facet normal  0.000000e+000  0.000000e+000  1.000000e+000
    outer loop
      vertex  4.175000e+001 -9.600000e+000  1.160000e+001
      vertex  4.075000e+001 -6.200000e+000  1.160000e+001
      vertex  4.075000e+001 -8.600000e+000  1.160000e+001
    endloop
  endfacet
  facet normal  0.000000e+000  0.000000e+000  1.000000e+000
    outer loop
      vertex  4.175000e+001 -9.600000e+000  1.160000e+001
      vertex  4.075000e+001 -8.600000e+000  1.160000e+001
      vertex -2.788627e+000 -9.600000e+000  1.160000e+001
    endloop
  endfacet
  facet normal  0.000000e+000  0.000000e+000  1.000000e+000
    outer loop
      vertex -2.788627e+000 -9.600000e+000  1.160000e+001
      vertex  4.075000e+001 -8.600000e+000  1.160000e+001
      vertex -2.788627e+000 -8.600000e+000  1.160000e+001
    endloop
  endfacet
  facet normal  1.000000e+000  0.000000e+000  0.000000e+000
    outer loop
      vertex -2.173563e+001 -9.600000e+000  1.160000e+001
      vertex -2.173563e+001 -9.600000e+000  7.000000e+000
      vertex -2.173563e+001 -8.600000e+000  1.160000e+001
    endloop
  endfacet
  facet normal  1.000000e+000  0.000000e+000  0.000000e+000
    outer loop
      vertex -2.173563e+001 -8.600000e+000  1.160000e+001
      vertex -2.173563e+001 -9.600000e+000  7.000000e+000
      vertex -2.173563e+001 -9.600000e+000  6.100000e+000
    endloop
  endfacet
  facet normal  1.000000e+000  0.000000e+000  0.000000e+000
    outer loop
      vertex -2.173563e+001 -8.600000e+000  1.160000e+001
      vertex -2.173563e+001 -9.600000e+000  6.100000e+000
      vertex -2.173563e+001 -8.600000e+000  6.100000e+000
    endloop
  endfacet
  facet normal  0.000000e+000  1.000000e+000  -0.000000e+000
    outer loop
      vertex -2.788627e+000 -9.600000e+000  7.000000e+000
      vertex -2.788627e+000 -9.600000e+000  6.100000e+000
      vertex -2.173563e+001 -9.600000e+000  7.000000e+000
    endloop
  endfacet
  facet normal  0.000000e+000  1.000000e+000  0.000000e+000
    outer loop
      vertex -2.173563e+001 -9.600000e+000  7.000000e+000
      vertex -2.788627e+000 -9.600000e+000  6.100000e+000
      vertex -2.173563e+001 -9.600000e+000  6.100000e+000
    endloop
  endfacet
  facet normal -1.000000e+000  0.000000e+000  0.000000e+000
    outer loop
      vertex -2.788627e+000 -9.600000e+000  6.100000e+000
      vertex -2.788627e+000 -9.600000e+000  7.000000e+000
      vertex -2.788627e+000 -8.600000e+000  6.100000e+000
    endloop
  endfacet
  facet normal -1.000000e+000  0.000000e+000  0.000000e+000
    outer loop
      vertex -2.788627e+000 -8.600000e+000  6.100000e+000
      vertex -2.788627e+000 -9.600000e+000  7.000000e+000
      vertex -2.788627e+000 -9.600000e+000  1.160000e+001
    endloop
  endfacet
  facet normal -1.000000e+000  0.000000e+000  0.000000e+000
    outer loop
      vertex -2.788627e+000 -8.600000e+000  6.100000e+000
      vertex -2.788627e+000 -9.600000e+000  1.160000e+001
      vertex -2.788627e+000 -8.600000e+000  1.160000e+001
    endloop
  endfacet
  facet normal  0.000000e+000  0.000000e+000  1.000000e+000
    outer loop
      vertex -2.173563e+001 -9.600000e+000  6.100000e+000
      vertex -2.788627e+000 -9.600000e+000  6.100000e+000
      vertex -2.173563e+001 -8.600000e+000  6.100000e+000
    endloop
  endfacet
  facet normal  -0.000000e+000  0.000000e+000  1.000000e+000
    outer loop
      vertex -2.173563e+001 -8.600000e+000  6.100000e+000
      vertex -2.788627e+000 -9.600000e+000  6.100000e+000
      vertex -2.788627e+000 -8.600000e+000  6.100000e+000
    endloop
  endfacet
  facet normal  -0.000000e+000  1.000000e+000  0.000000e+000
    outer loop
      vertex -2.788627e+000  9.600000e+000  7.000000e+000
      vertex -2.788627e+000  9.600000e+000  9.600000e+000
      vertex  9.769570e+000  9.600000e+000  9.600000e+000
    endloop
  endfacet
  facet normal  0.000000e+000  9.999999e-001  0.000000e+000
    outer loop
      vertex -2.788627e+000  9.600000e+000  7.000000e+000
      vertex  9.769570e+000  9.600000e+000  9.600000e+000
      vertex  1.930266e+001  9.600000e+000  8.600000e+000
    endloop
  endfacet
  facet normal  -0.000000e+000  1.000000e+000  0.000000e+000
    outer loop
      vertex -2.788627e+000  9.600000e+000  7.000000e+000
      vertex  1.930266e+001  9.600000e+000  8.600000e+000
      vertex  3.305000e+001  9.600000e+000  8.600000e+000
    endloop
  endfacet
  facet normal  0.000000e+000  9.999999e-001  0.000000e+000
    outer loop
      vertex -2.788627e+000  9.600000e+000  7.000000e+000
      vertex  3.305000e+001  9.600000e+000  8.600000e+000
      vertex  3.305000e+001  9.600000e+000  7.000000e+000
    endloop
  endfacet
  facet normal  0.000000e+000  1.000000e+000  0.000000e+000
    outer loop
      vertex  9.769570e+000  9.600000e+000  9.600000e+000
      vertex  9.769570e+000  9.600000e+000  1.160000e+001
      vertex  1.930266e+001  9.600000e+000  8.600000e+000
    endloop
  endfacet
  facet normal  0.000000e+000  9.999999e-001  -0.000000e+000
    outer loop
      vertex  1.930266e+001  9.600000e+000  8.600000e+000
      vertex  9.769570e+000  9.600000e+000  1.160000e+001
      vertex  1.930266e+001  9.600000e+000  1.160000e+001
    endloop
  endfacet
  facet normal  0.000000e+000  0.000000e+000  1.000000e+000
    outer loop
      vertex  9.769570e+000  8.600000e+000  1.160000e+001
      vertex  1.930266e+001  8.600000e+000  1.160000e+001
      vertex  9.769570e+000  9.600000e+000  1.160000e+001
    endloop
  endfacet
  facet normal  -0.000000e+000  0.000000e+000  1.000000e+000
    outer loop
      vertex  9.769570e+000  9.600000e+000  1.160000e+001
      vertex  1.930266e+001  8.600000e+000  1.160000e+001
      vertex  1.930266e+001  9.600000e+000  1.160000e+001
    endloop
  endfacet
  facet normal -1.000000e+000  0.000000e+000  0.000000e+000
    outer loop
      vertex -2.788627e+000  9.600000e+000  9.600000e+000
      vertex -2.788627e+000  9.600000e+000  7.000000e+000
      vertex -2.788627e+000  8.600000e+000  9.600000e+000
    endloop
  endfacet
  facet normal -1.000000e+000  0.000000e+000  0.000000e+000
    outer loop
      vertex -2.788627e+000  8.600000e+000  9.600000e+000
      vertex -2.788627e+000  9.600000e+000  7.000000e+000
      vertex -2.788627e+000  9.600000e+000  4.600000e+000
    endloop
  endfacet
  facet normal -1.000000e+000  0.000000e+000  0.000000e+000
    outer loop
      vertex -2.788627e+000  8.600000e+000  9.600000e+000
      vertex -2.788627e+000  9.600000e+000  4.600000e+000
      vertex -2.788627e+000  8.600000e+000  4.600000e+000
    endloop
  endfacet
  facet normal -1.000000e+000  -0.000000e+000  0.000000e+000
    outer loop
      vertex  9.769570e+000  8.600000e+000  1.160000e+001
      vertex  9.769570e+000  9.600000e+000  1.160000e+001
      vertex  9.769570e+000  8.600000e+000  9.600000e+000
    endloop
  endfacet
  facet normal -1.000000e+000  0.000000e+000  0.000000e+000
    outer loop
      vertex  9.769570e+000  8.600000e+000  9.600000e+000
      vertex  9.769570e+000  9.600000e+000  1.160000e+001
      vertex  9.769570e+000  9.600000e+000  9.600000e+000
    endloop
  endfacet
  facet normal  0.000000e+000  0.000000e+000  1.000000e+000
    outer loop
      vertex -2.788627e+000  8.600000e+000  9.600000e+000
      vertex  9.769570e+000  8.600000e+000  9.600000e+000
      vertex -2.788627e+000  9.600000e+000  9.600000e+000
    endloop
  endfacet
  facet normal  -0.000000e+000  0.000000e+000  1.000000e+000
    outer loop
      vertex -2.788627e+000  9.600000e+000  9.600000e+000
      vertex  9.769570e+000  8.600000e+000  9.600000e+000
      vertex  9.769570e+000  9.600000e+000  9.600000e+000
    endloop
  endfacet
  facet normal  0.000000e+000 -1.000000e+000  0.000000e+000
    outer loop
      vertex -2.173563e+001  9.600000e+000  4.600000e+000
      vertex -2.788627e+000  9.600000e+000  4.600000e+000
      vertex -2.173563e+001  9.600000e+000  7.000000e+000
    endloop
  endfacet
  facet normal  0.000000e+000 -1.000000e+000  0.000000e+000
    outer loop
      vertex -2.173563e+001  9.600000e+000  7.000000e+000
      vertex -2.788627e+000  9.600000e+000  4.600000e+000
      vertex -2.788627e+000  9.600000e+000  7.000000e+000
    endloop
  endfacet
  facet normal  1.000000e+000  0.000000e+000  0.000000e+000
    outer loop
      vertex -2.173563e+001  9.600000e+000  4.600000e+000
      vertex -2.173563e+001  9.600000e+000  7.000000e+000
      vertex -2.173563e+001  8.600000e+000  4.600000e+000
    endloop
  endfacet
  facet normal  1.000000e+000  0.000000e+000  0.000000e+000
    outer loop
      vertex -2.173563e+001  8.600000e+000  4.600000e+000
      vertex -2.173563e+001  9.600000e+000  7.000000e+000
      vertex -2.173563e+001  9.600000e+000  1.160000e+001
    endloop
  endfacet
  facet normal  1.000000e+000  0.000000e+000  0.000000e+000
    outer loop
      vertex -2.173563e+001  8.600000e+000  4.600000e+000
      vertex -2.173563e+001  9.600000e+000  1.160000e+001
      vertex -2.173563e+001  8.600000e+000  1.160000e+001
    endloop
  endfacet
  facet normal  0.000000e+000  0.000000e+000  1.000000e+000
    outer loop
      vertex -2.173563e+001  8.600000e+000  4.600000e+000
      vertex -2.788627e+000  8.600000e+000  4.600000e+000
      vertex -2.173563e+001  9.600000e+000  4.600000e+000
    endloop
  endfacet
  facet normal  -0.000000e+000  0.000000e+000  1.000000e+000
    outer loop
      vertex -2.173563e+001  9.600000e+000  4.600000e+000
      vertex -2.788627e+000  8.600000e+000  4.600000e+000
      vertex -2.788627e+000  9.600000e+000  4.600000e+000
    endloop
  endfacet
  facet normal  1.000000e+000  0.000000e+000  0.000000e+000
    outer loop
      vertex  3.305000e+001  8.600000e+000  4.200000e+000
      vertex  3.305000e+001  9.600000e+000  4.200000e+000
      vertex  3.305000e+001  8.600000e+000  8.600000e+000
    endloop
  endfacet
  facet normal  1.000000e+000  0.000000e+000  0.000000e+000
    outer loop
      vertex  3.305000e+001  8.600000e+000  8.600000e+000
      vertex  3.305000e+001  9.600000e+000  4.200000e+000
      vertex  3.305000e+001  9.600000e+000  7.000000e+000
    endloop
  endfacet
  facet normal  1.000000e+000  0.000000e+000  -0.000000e+000
    outer loop
      vertex  3.305000e+001  8.600000e+000  8.600000e+000
      vertex  3.305000e+001  9.600000e+000  7.000000e+000
      vertex  3.305000e+001  9.600000e+000  8.600000e+000
    endloop
  endfacet
  facet normal  1.000000e+000  -0.000000e+000  0.000000e+000
    outer loop
      vertex  1.930266e+001  9.600000e+000  1.160000e+001
      vertex  1.930266e+001  8.600000e+000  1.160000e+001
      vertex  1.930266e+001  9.600000e+000  8.600000e+000
    endloop
  endfacet
  facet normal  1.000000e+000  0.000000e+000  0.000000e+000
    outer loop
      vertex  1.930266e+001  9.600000e+000  8.600000e+000
      vertex  1.930266e+001  8.600000e+000  1.160000e+001
      vertex  1.930266e+001  8.600000e+000  8.600000e+000
    endloop
  endfacet
  facet normal  0.000000e+000  0.000000e+000  1.000000e+000
    outer loop
      vertex  1.930266e+001  8.600000e+000  8.600000e+000
      vertex  3.305000e+001  8.600000e+000  8.600000e+000
      vertex  1.930266e+001  9.600000e+000  8.600000e+000
    endloop
  endfacet
  facet normal  -0.000000e+000  0.000000e+000  1.000000e+000
    outer loop
      vertex  1.930266e+001  9.600000e+000  8.600000e+000
      vertex  3.305000e+001  8.600000e+000  8.600000e+000
      vertex  3.305000e+001  9.600000e+000  8.600000e+000
    endloop
  endfacet
  facet normal  1.000000e+000  0.000000e+000  0.000000e+000
    outer loop
      vertex  4.275000e+001 -1.060000e+001  0.000000e+000
      vertex  4.275000e+001 -6.200000e+000  7.000000e+000
      vertex  4.275000e+001 -1.060000e+001  7.000000e+000
    endloop
  endfacet
  facet normal  1.000000e+000  0.000000e+000  0.000000e+000
    outer loop
      vertex  4.275000e+001 -6.200000e+000  7.000000e+000
      vertex  4.275000e+001 -1.060000e+001  0.000000e+000
      vertex  4.275000e+001 -6.200000e+000  4.200000e+000
    endloop
  endfacet
  facet normal  1.000000e+000  0.000000e+000  0.000000e+000
    outer loop
      vertex  4.275000e+001 -6.200000e+000  4.200000e+000
      vertex  4.275000e+001 -1.060000e+001  0.000000e+000
      vertex  4.275000e+001  1.060000e+001  0.000000e+000
    endloop
  endfacet
  facet normal  1.000000e+000  0.000000e+000  0.000000e+000
    outer loop
      vertex  4.275000e+001 -6.200000e+000  4.200000e+000
      vertex  4.275000e+001  1.060000e+001  0.000000e+000
      vertex  4.275000e+001  9.400000e+000  4.200000e+000
    endloop
  endfacet
  facet normal  1.000000e+000  -0.000000e+000  0.000000e+000
    outer loop
      vertex  4.275000e+001  9.400000e+000  4.200000e+000
      vertex  4.275000e+001  1.060000e+001  0.000000e+000
      vertex  4.275000e+001  1.060000e+001  7.000000e+000
    endloop
  endfacet
  facet normal  9.999999e-001  0.000000e+000  0.000000e+000
    outer loop
      vertex  4.275000e+001  9.400000e+000  4.200000e+000
      vertex  4.275000e+001  1.060000e+001  7.000000e+000
      vertex  4.275000e+001  9.400000e+000  7.000000e+000
    endloop
  endfacet
  facet normal  0.000000e+000  1.000000e+000  0.000000e+000
    outer loop
      vertex  4.275000e+001 -6.200000e+000  4.200000e+000
      vertex  4.075000e+001 -6.200000e+000  4.200000e+000
      vertex  4.275000e+001 -6.200000e+000  7.000000e+000
    endloop
  endfacet
  facet normal  0.000000e+000  1.000000e+000  0.000000e+000
    outer loop
      vertex  4.275000e+001 -6.200000e+000  7.000000e+000
      vertex  4.075000e+001 -6.200000e+000  4.200000e+000
      vertex  4.175000e+001 -6.200000e+000  7.000000e+000
    endloop
  endfacet
  facet normal  0.000000e+000  1.000000e+000  0.000000e+000
    outer loop
      vertex  4.075000e+001 -6.200000e+000  4.200000e+000
      vertex  4.075000e+001 -6.200000e+000  1.160000e+001
      vertex  4.175000e+001 -6.200000e+000  7.000000e+000
    endloop
  endfacet
  facet normal  0.000000e+000  1.000000e+000  -0.000000e+000
    outer loop
      vertex  4.175000e+001 -6.200000e+000  7.000000e+000
      vertex  4.075000e+001 -6.200000e+000  1.160000e+001
      vertex  4.175000e+001 -6.200000e+000  1.160000e+001
    endloop
  endfacet
  facet normal  0.000000e+000  -0.000000e+000  1.000000e+000
    outer loop
      vertex  3.305000e+001  8.600000e+000  4.200000e+000
      vertex  4.075000e+001  8.600000e+000  4.200000e+000
      vertex  4.275000e+001  9.400000e+000  4.200000e+000
    endloop
  endfacet
  facet normal  0.000000e+000  0.000000e+000  1.000000e+000
    outer loop
      vertex  3.305000e+001  8.600000e+000  4.200000e+000
      vertex  4.275000e+001  9.400000e+000  4.200000e+000
      vertex  4.175000e+001  9.400000e+000  4.200000e+000
    endloop
  endfacet
  facet normal  0.000000e+000  -0.000000e+000  9.999999e-001
    outer loop
      vertex  3.305000e+001  8.600000e+000  4.200000e+000
      vertex  4.175000e+001  9.400000e+000  4.200000e+000
      vertex  4.175000e+001  9.600000e+000  4.200000e+000
    endloop
  endfacet
  facet normal  0.000000e+000  0.000000e+000  1.000000e+000
    outer loop
      vertex  3.305000e+001  8.600000e+000  4.200000e+000
      vertex  4.175000e+001  9.600000e+000  4.200000e+000
      vertex  3.305000e+001  9.600000e+000  4.200000e+000
    endloop
  endfacet
  facet normal  0.000000e+000  0.000000e+000  9.999999e-001
    outer loop
      vertex  4.075000e+001  8.600000e+000  4.200000e+000
      vertex  4.075000e+001 -6.200000e+000  4.200000e+000
      vertex  4.275000e+001  9.400000e+000  4.200000e+000
    endloop
  endfacet
  facet normal  0.000000e+000  0.000000e+000  1.000000e+000
    outer loop
      vertex  4.275000e+001  9.400000e+000  4.200000e+000
      vertex  4.075000e+001 -6.200000e+000  4.200000e+000
      vertex  4.275000e+001 -6.200000e+000  4.200000e+000
    endloop
  endfacet
  facet normal -1.000000e+000  0.000000e+000  0.000000e+000
    outer loop
      vertex  4.175000e+001  9.600000e+000  7.000000e+000
      vertex  4.175000e+001  9.600000e+000  4.200000e+000
      vertex  4.175000e+001  9.400000e+000  7.000000e+000
    endloop
  endfacet
  facet normal -1.000000e+000  0.000000e+000  0.000000e+000
    outer loop
      vertex  4.175000e+001  9.400000e+000  7.000000e+000
      vertex  4.175000e+001  9.600000e+000  4.200000e+000
      vertex  4.175000e+001  9.400000e+000  4.200000e+000
    endloop
  endfacet
  facet normal  1.000000e+000  -0.000000e+000  0.000000e+000
    outer loop
      vertex  4.175000e+001 -6.200000e+000  1.160000e+001
      vertex  4.175000e+001 -9.600000e+000  1.160000e+001
      vertex  4.175000e+001 -6.200000e+000  7.000000e+000
    endloop
  endfacet
  facet normal  1.000000e+000  0.000000e+000  0.000000e+000
    outer loop
      vertex  4.175000e+001 -6.200000e+000  7.000000e+000
      vertex  4.175000e+001 -9.600000e+000  1.160000e+001
      vertex  4.175000e+001 -9.600000e+000  7.000000e+000
    endloop
  endfacet
  facet normal -1.000000e+000  0.000000e+000  0.000000e+000
    outer loop
      vertex  4.075000e+001  8.600000e+000  8.000000e-001
      vertex  4.075000e+001 -8.600000e+000  8.000000e-001
      vertex  4.075000e+001  8.600000e+000  4.200000e+000
    endloop
  endfacet
  facet normal -1.000000e+000  -0.000000e+000  0.000000e+000
    outer loop
      vertex  4.075000e+001  8.600000e+000  4.200000e+000
      vertex  4.075000e+001 -8.600000e+000  8.000000e-001
      vertex  4.075000e+001 -6.200000e+000  4.200000e+000
    endloop
  endfacet
  facet normal -1.000000e+000  0.000000e+000  0.000000e+000
    outer loop
      vertex  4.075000e+001 -8.600000e+000  8.000000e-001
      vertex  4.075000e+001 -8.600000e+000  1.160000e+001
      vertex  4.075000e+001 -6.200000e+000  4.200000e+000
    endloop
  endfacet
  facet normal -1.000000e+000  0.000000e+000  0.000000e+000
    outer loop
      vertex  4.075000e+001 -6.200000e+000  4.200000e+000
      vertex  4.075000e+001 -8.600000e+000  1.160000e+001
      vertex  4.075000e+001 -6.200000e+000  1.160000e+001
    endloop
  endfacet
  facet normal  0.000000e+000 -1.000000e+000  0.000000e+000
    outer loop
      vertex  3.305000e+001  9.600000e+000  4.200000e+000
      vertex  4.175000e+001  9.600000e+000  4.200000e+000
      vertex  3.305000e+001  9.600000e+000  7.000000e+000
    endloop
  endfacet
  facet normal  0.000000e+000 -1.000000e+000  0.000000e+000
    outer loop
      vertex  3.305000e+001  9.600000e+000  7.000000e+000
      vertex  4.175000e+001  9.600000e+000  4.200000e+000
      vertex  4.175000e+001  9.600000e+000  7.000000e+000
    endloop
  endfacet
  facet normal  0.000000e+000 -1.000000e+000  0.000000e+000
    outer loop
      vertex  4.175000e+001  9.400000e+000  7.000000e+000
      vertex  4.175000e+001  9.400000e+000  4.200000e+000
      vertex  4.275000e+001  9.400000e+000  7.000000e+000
    endloop
  endfacet
  facet normal  0.000000e+000 -1.000000e+000  -0.000000e+000
    outer loop
      vertex  4.275000e+001  9.400000e+000  7.000000e+000
      vertex  4.175000e+001  9.400000e+000  4.200000e+000
      vertex  4.275000e+001  9.400000e+000  4.200000e+000
    endloop
  endfacet
  facet normal  0.000000e+000 -1.000000e+000  0.000000e+000
    outer loop
      vertex  4.275000e+001 -1.060000e+001  7.000000e+000
      vertex -4.275000e+001 -1.060000e+001  7.000000e+000
      vertex  4.275000e+001 -1.060000e+001  0.000000e+000
    endloop
  endfacet
  facet normal  0.000000e+000 -1.000000e+000  0.000000e+000
    outer loop
      vertex  4.275000e+001 -1.060000e+001  0.000000e+000
      vertex -4.275000e+001 -1.060000e+001  7.000000e+000
      vertex -4.275000e+001 -1.060000e+001  0.000000e+000
    endloop
  endfacet
  facet normal  0.000000e+000  1.000000e+000  0.000000e+000
    outer loop
      vertex -4.275000e+001  1.060000e+001  7.000000e+000
      vertex  4.275000e+001  1.060000e+001  7.000000e+000
      vertex -4.275000e+001  1.060000e+001  0.000000e+000
    endloop
  endfacet
  facet normal  0.000000e+000  1.000000e+000  0.000000e+000
    outer loop
      vertex -4.275000e+001  1.060000e+001  0.000000e+000
      vertex  4.275000e+001  1.060000e+001  7.000000e+000
      vertex  4.275000e+001  1.060000e+001  0.000000e+000
    endloop
  endfacet
endsolid CATIA STL
