  0
SECTION
  2
HEADER
  9
$ANGBASE
  50
0.0
  9
$ANGDIR
  70
1
  9
$MEASUREMENT
  70
0
  0
ENDSEC
  0
SECTION
  2
TABLES
  0
TABLE
  2
LTYPE
  70
4
  0
LTYPE
  5
40F
  2
CONTINUOUS
  70
0
  3
Solid line
  72
65
  73
0
  40
0.0
  0
LTYPE
  5
410
  2
DASHDOT
 70
0
  3
Dash Dot ____ _ ____ _
 72
65
 73
4
 40
2.0
 49
1.25
 49
-0.25
 49
0.25
 49
-0.25
  0
LTYPE
  5
411
  2
DASHED
 70
0
  3
Dashed __ __ __ __ __
 72
65
 73
2
 40
0.75
 49
0.5
 49
-0.25
  0
LTYPE
  5
43B
  2
DOTTED
 70
0
  3
Dotted .  .  .  .
 72
65
 73
2
 40
0.2
 49
0.0
 49
-0.2
  0
ENDTAB
  0
TABLE
  2
STYLE
  70
4
  0
STYLE
  2
KICAD
  70
0
  40
0
  41
1
  42
1
  50
0
  71
0
  3
isocp.shx
  0
STYLE
  2
KICADB
  70
0
  40
0
  41
1
  42
1
  50
0
  71
0
  3
isocp.shx
  0
STYLE
  2
KICADI
  70
0
  40
0
  41
1
  42
1
  50
15
  71
0
  3
isocp.shx
  0
STYLE
  2
KICADBI
  70
0
  40
0
  41
1
  42
1
  50
15
  71
0
  3
isocp.shx
  0
ENDTAB
  0
TABLE
  2
LAYER
  70
1
  0
LAYER
  2
BLACK
  70
0
  62
7
  6
CONTINUOUS
  0
ENDTAB
  0
ENDSEC
  0
SECTION
  2
ENTITIES
0
LINE
8
BLACK
6
CONTINUOUS
10
5.49132
20
-4.61705
11
5.49149
21
-4.61704
0
LINE
8
BLACK
6
CONTINUOUS
10
5.49149
20
-4.61704
11
5.49218
21
-4.61755
0
LINE
8
BLACK
6
CONTINUOUS
10
5.49218
20
-4.61755
11
5.49293
21
-4.61798
0
LINE
8
BLACK
6
CONTINUOUS
10
5.49293
20
-4.61798
11
5.49298
21
-4.61814
0
LINE
8
BLACK
6
CONTINUOUS
10
5.49298
20
-4.61814
11
5.49312
21
-4.61824
0
LINE
8
BLACK
6
CONTINUOUS
10
5.49312
20
-4.61824
11
5.49671
21
-4.62362
0
LINE
8
BLACK
6
CONTINUOUS
10
5.49671
20
-4.62362
11
5.49991
21
-4.62682
0
LINE
8
BLACK
6
CONTINUOUS
10
5.49991
20
-4.62682
11
5.50323
21
-4.62848
0
LINE
8
BLACK
6
CONTINUOUS
10
5.50323
20
-4.62848
11
5.50406
21
-4.62909
0
LINE
8
BLACK
6
CONTINUOUS
10
5.50406
20
-4.62909
11
5.50486
21
-4.63095
0
LINE
8
BLACK
6
CONTINUOUS
10
5.50486
20
-4.63095
11
5.50428
21
-4.63288
0
LINE
8
BLACK
6
CONTINUOUS
10
5.50428
20
-4.63288
11
5.5026
21
-4.634
0
LINE
8
BLACK
6
CONTINUOUS
10
5.5026
20
-4.634
11
5.50059
21
-4.63376
0
LINE
8
BLACK
6
CONTINUOUS
10
5.50059
20
-4.63376
11
5.49684
21
-4.63189
0
LINE
8
BLACK
6
CONTINUOUS
10
5.49684
20
-4.63189
11
5.49613
21
-4.63136
0
LINE
8
BLACK
6
CONTINUOUS
10
5.49613
20
-4.63136
11
5.49607
21
-4.63134
0
LINE
8
BLACK
6
CONTINUOUS
10
5.49607
20
-4.63134
11
5.49362
21
-4.62888
0
LINE
8
BLACK
6
CONTINUOUS
10
5.49362
20
-4.62888
11
5.49362
21
-4.65629
0
LINE
8
BLACK
6
CONTINUOUS
10
5.49362
20
-4.65629
11
5.50191
21
-4.65629
0
LINE
8
BLACK
6
CONTINUOUS
10
5.50191
20
-4.65629
11
5.50292
21
-4.65647
0
LINE
8
BLACK
6
CONTINUOUS
10
5.50292
20
-4.65647
11
5.50447
21
-4.65777
0
LINE
8
BLACK
6
CONTINUOUS
10
5.50447
20
-4.65777
11
5.50482
21
-4.65976
0
LINE
8
BLACK
6
CONTINUOUS
10
5.50482
20
-4.65976
11
5.50381
21
-4.66151
0
LINE
8
BLACK
6
CONTINUOUS
10
5.50381
20
-4.66151
11
5.50191
21
-4.6622
0
LINE
8
BLACK
6
CONTINUOUS
10
5.50191
20
-4.6622
11
5.47942
21
-4.6622
0
LINE
8
BLACK
6
CONTINUOUS
10
5.47942
20
-4.6622
11
5.47841
21
-4.66202
0
LINE
8
BLACK
6
CONTINUOUS
10
5.47841
20
-4.66202
11
5.47686
21
-4.66072
0
LINE
8
BLACK
6
CONTINUOUS
10
5.47686
20
-4.66072
11
5.47651
21
-4.65873
0
LINE
8
BLACK
6
CONTINUOUS
10
5.47651
20
-4.65873
11
5.47752
21
-4.65698
0
LINE
8
BLACK
6
CONTINUOUS
10
5.47752
20
-4.65698
11
5.47942
21
-4.65629
0
LINE
8
BLACK
6
CONTINUOUS
10
5.47942
20
-4.65629
11
5.48771
21
-4.65629
0
LINE
8
BLACK
6
CONTINUOUS
10
5.48771
20
-4.65629
11
5.48771
21
-4.61987
0
LINE
8
BLACK
6
CONTINUOUS
10
5.48771
20
-4.61987
11
5.48789
21
-4.61886
0
LINE
8
BLACK
6
CONTINUOUS
10
5.48789
20
-4.61886
11
5.488
21
-4.61873
0
LINE
8
BLACK
6
CONTINUOUS
10
5.488
20
-4.61873
11
5.48802
21
-4.61857
0
LINE
8
BLACK
6
CONTINUOUS
10
5.48802
20
-4.61857
11
5.48864
21
-4.61797
0
LINE
8
BLACK
6
CONTINUOUS
10
5.48864
20
-4.61797
11
5.48919
21
-4.61732
0
LINE
8
BLACK
6
CONTINUOUS
10
5.48919
20
-4.61732
11
5.48935
21
-4.61729
0
LINE
8
BLACK
6
CONTINUOUS
10
5.48935
20
-4.61729
11
5.48948
21
-4.61717
0
LINE
8
BLACK
6
CONTINUOUS
10
5.48948
20
-4.61717
11
5.49033
21
-4.61712
0
LINE
8
BLACK
6
CONTINUOUS
10
5.49033
20
-4.61712
11
5.49118
21
-4.61697
0
LINE
8
BLACK
6
CONTINUOUS
10
5.49118
20
-4.61697
11
5.49132
21
-4.61705
0
LINE
8
BLACK
6
CONTINUOUS
10
5.53479
20
-4.6171
11
5.53493
21
-4.61721
0
LINE
8
BLACK
6
CONTINUOUS
10
5.53493
20
-4.61721
11
5.5351
21
-4.61723
0
LINE
8
BLACK
6
CONTINUOUS
10
5.5351
20
-4.61723
11
5.53885
21
-4.61911
0
LINE
8
BLACK
6
CONTINUOUS
10
5.53885
20
-4.61911
11
5.53956
21
-4.61963
0
LINE
8
BLACK
6
CONTINUOUS
10
5.53956
20
-4.61963
11
5.53962
21
-4.61966
0
LINE
8
BLACK
6
CONTINUOUS
10
5.53962
20
-4.61966
11
5.5415
21
-4.62154
0
LINE
8
BLACK
6
CONTINUOUS
10
5.5415
20
-4.62154
11
5.54208
21
-4.62238
0
LINE
8
BLACK
6
CONTINUOUS
10
5.54208
20
-4.62238
11
5.54226
21
-4.62439
0
LINE
8
BLACK
6
CONTINUOUS
10
5.54226
20
-4.62439
11
5.5411
21
-4.62604
0
LINE
8
BLACK
6
CONTINUOUS
10
5.5411
20
-4.62604
11
5.53915
21
-4.62657
0
LINE
8
BLACK
6
CONTINUOUS
10
5.53915
20
-4.62657
11
5.53732
21
-4.62571
0
LINE
8
BLACK
6
CONTINUOUS
10
5.53732
20
-4.62571
11
5.53578
21
-4.62418
0
LINE
8
BLACK
6
CONTINUOUS
10
5.53578
20
-4.62418
11
5.53309
21
-4.62283
0
LINE
8
BLACK
6
CONTINUOUS
10
5.53309
20
-4.62283
11
5.52511
21
-4.62283
0
LINE
8
BLACK
6
CONTINUOUS
10
5.52511
20
-4.62283
11
5.52241
21
-4.62418
0
LINE
8
BLACK
6
CONTINUOUS
10
5.52241
20
-4.62418
11
5.52121
21
-4.62537
0
LINE
8
BLACK
6
CONTINUOUS
10
5.52121
20
-4.62537
11
5.51986
21
-4.62807
0
LINE
8
BLACK
6
CONTINUOUS
10
5.51986
20
-4.62807
11
5.51986
21
-4.63064
0
LINE
8
BLACK
6
CONTINUOUS
10
5.51986
20
-4.63064
11
5.52137
21
-4.63515
0
LINE
8
BLACK
6
CONTINUOUS
10
5.52137
20
-4.63515
11
5.54337
21
-4.65716
0
LINE
8
BLACK
6
CONTINUOUS
10
5.54337
20
-4.65716
11
5.54374
21
-4.65768
0
LINE
8
BLACK
6
CONTINUOUS
10
5.54374
20
-4.65768
11
5.54384
21
-4.65777
0
LINE
8
BLACK
6
CONTINUOUS
10
5.54384
20
-4.65777
11
5.54385
21
-4.65785
0
LINE
8
BLACK
6
CONTINUOUS
10
5.54385
20
-4.65785
11
5.54396
21
-4.658
0
LINE
8
BLACK
6
CONTINUOUS
10
5.54396
20
-4.658
11
5.54404
21
-4.65888
0
LINE
8
BLACK
6
CONTINUOUS
10
5.54404
20
-4.65888
11
5.54419
21
-4.65976
0
LINE
8
BLACK
6
CONTINUOUS
10
5.54419
20
-4.65976
11
5.54412
21
-4.65987
0
LINE
8
BLACK
6
CONTINUOUS
10
5.54412
20
-4.65987
11
5.54413
21
-4.66001
0
LINE
8
BLACK
6
CONTINUOUS
10
5.54413
20
-4.66001
11
5.54362
21
-4.66074
0
LINE
8
BLACK
6
CONTINUOUS
10
5.54362
20
-4.66074
11
5.54318
21
-4.66151
0
LINE
8
BLACK
6
CONTINUOUS
10
5.54318
20
-4.66151
11
5.54305
21
-4.66155
0
LINE
8
BLACK
6
CONTINUOUS
10
5.54305
20
-4.66155
11
5.54298
21
-4.66166
0
LINE
8
BLACK
6
CONTINUOUS
10
5.54298
20
-4.66166
11
5.54212
21
-4.66189
0
LINE
8
BLACK
6
CONTINUOUS
10
5.54212
20
-4.66189
11
5.54128
21
-4.6622
0
LINE
8
BLACK
6
CONTINUOUS
10
5.54128
20
-4.6622
11
5.51691
21
-4.6622
0
LINE
8
BLACK
6
CONTINUOUS
10
5.51691
20
-4.6622
11
5.5159
21
-4.66202
0
LINE
8
BLACK
6
CONTINUOUS
10
5.5159
20
-4.66202
11
5.51435
21
-4.66072
0
LINE
8
BLACK
6
CONTINUOUS
10
5.51435
20
-4.66072
11
5.514
21
-4.65873
0
LINE
8
BLACK
6
CONTINUOUS
10
5.514
20
-4.65873
11
5.51501
21
-4.65698
0
LINE
8
BLACK
6
CONTINUOUS
10
5.51501
20
-4.65698
11
5.51691
21
-4.65629
0
LINE
8
BLACK
6
CONTINUOUS
10
5.51691
20
-4.65629
11
5.53415
21
-4.65629
0
LINE
8
BLACK
6
CONTINUOUS
10
5.53415
20
-4.65629
11
5.5167
21
-4.63884
0
LINE
8
BLACK
6
CONTINUOUS
10
5.5167
20
-4.63884
11
5.51611
21
-4.638
0
LINE
8
BLACK
6
CONTINUOUS
10
5.51611
20
-4.638
11
5.51609
21
-4.63782
0
LINE
8
BLACK
6
CONTINUOUS
10
5.51609
20
-4.63782
11
5.51598
21
-4.63768
0
LINE
8
BLACK
6
CONTINUOUS
10
5.51598
20
-4.63768
11
5.51411
21
-4.63206
0
LINE
8
BLACK
6
CONTINUOUS
10
5.51411
20
-4.63206
11
5.51398
21
-4.63118
0
LINE
8
BLACK
6
CONTINUOUS
10
5.51398
20
-4.63118
11
5.51396
21
-4.63112
0
LINE
8
BLACK
6
CONTINUOUS
10
5.51396
20
-4.63112
11
5.51396
21
-4.62737
0
LINE
8
BLACK
6
CONTINUOUS
10
5.51396
20
-4.62737
11
5.51414
21
-4.62636
0
LINE
8
BLACK
6
CONTINUOUS
10
5.51414
20
-4.62636
11
5.51425
21
-4.62623
0
LINE
8
BLACK
6
CONTINUOUS
10
5.51425
20
-4.62623
11
5.51427
21
-4.62605
0
LINE
8
BLACK
6
CONTINUOUS
10
5.51427
20
-4.62605
11
5.51614
21
-4.6223
0
LINE
8
BLACK
6
CONTINUOUS
10
5.51614
20
-4.6223
11
5.51667
21
-4.62159
0
LINE
8
BLACK
6
CONTINUOUS
10
5.51667
20
-4.62159
11
5.5167
21
-4.62154
0
LINE
8
BLACK
6
CONTINUOUS
10
5.5167
20
-4.62154
11
5.51857
21
-4.61966
0
LINE
8
BLACK
6
CONTINUOUS
10
5.51857
20
-4.61966
11
5.5193
21
-4.61916
0
LINE
8
BLACK
6
CONTINUOUS
10
5.5193
20
-4.61916
11
5.51934
21
-4.61911
0
LINE
8
BLACK
6
CONTINUOUS
10
5.51934
20
-4.61911
11
5.52309
21
-4.61723
0
LINE
8
BLACK
6
CONTINUOUS
10
5.52309
20
-4.61723
11
5.52407
21
-4.61694
0
LINE
8
BLACK
6
CONTINUOUS
10
5.52407
20
-4.61694
11
5.52424
21
-4.61698
0
LINE
8
BLACK
6
CONTINUOUS
10
5.52424
20
-4.61698
11
5.52441
21
-4.61692
0
LINE
8
BLACK
6
CONTINUOUS
10
5.52441
20
-4.61692
11
5.53378
21
-4.61692
0
LINE
8
BLACK
6
CONTINUOUS
10
5.53378
20
-4.61692
11
5.53479
21
-4.6171
0
LINE
8
BLACK
6
CONTINUOUS
10
5.55854
20
-4.61798
11
5.55923
21
-4.61987
0
LINE
8
BLACK
6
CONTINUOUS
10
5.55923
20
-4.61987
11
5.55923
21
-4.64752
0
LINE
8
BLACK
6
CONTINUOUS
10
5.55923
20
-4.64752
11
5.56074
21
-4.65203
0
LINE
8
BLACK
6
CONTINUOUS
10
5.56074
20
-4.65203
11
5.5635
21
-4.65479
0
LINE
8
BLACK
6
CONTINUOUS
10
5.5635
20
-4.65479
11
5.56801
21
-4.65629
0
LINE
8
BLACK
6
CONTINUOUS
10
5.56801
20
-4.65629
11
5.57128
21
-4.65629
0
LINE
8
BLACK
6
CONTINUOUS
10
5.57128
20
-4.65629
11
5.57229
21
-4.65647
0
LINE
8
BLACK
6
CONTINUOUS
10
5.57229
20
-4.65647
11
5.57384
21
-4.65777
0
LINE
8
BLACK
6
CONTINUOUS
10
5.57384
20
-4.65777
11
5.57419
21
-4.65976
0
LINE
8
BLACK
6
CONTINUOUS
10
5.57419
20
-4.65976
11
5.57318
21
-4.66151
0
LINE
8
BLACK
6
CONTINUOUS
10
5.57318
20
-4.66151
11
5.57128
21
-4.6622
0
LINE
8
BLACK
6
CONTINUOUS
10
5.57128
20
-4.6622
11
5.56753
21
-4.6622
0
LINE
8
BLACK
6
CONTINUOUS
10
5.56753
20
-4.6622
11
5.56666
21
-4.66204
0
LINE
8
BLACK
6
CONTINUOUS
10
5.56666
20
-4.66204
11
5.5666
21
-4.66205
0
LINE
8
BLACK
6
CONTINUOUS
10
5.5666
20
-4.66205
11
5.56097
21
-4.66017
0
LINE
8
BLACK
6
CONTINUOUS
10
5.56097
20
-4.66017
11
5.56007
21
-4.65968
0
LINE
8
BLACK
6
CONTINUOUS
10
5.56007
20
-4.65968
11
5.55998
21
-4.65953
0
LINE
8
BLACK
6
CONTINUOUS
10
5.55998
20
-4.65953
11
5.55982
21
-4.65946
0
LINE
8
BLACK
6
CONTINUOUS
10
5.55982
20
-4.65946
11
5.55607
21
-4.65571
0
LINE
8
BLACK
6
CONTINUOUS
10
5.55607
20
-4.65571
11
5.55548
21
-4.65487
0
LINE
8
BLACK
6
CONTINUOUS
10
5.55548
20
-4.65487
11
5.55546
21
-4.65469
0
LINE
8
BLACK
6
CONTINUOUS
10
5.55546
20
-4.65469
11
5.55535
21
-4.65455
0
LINE
8
BLACK
6
CONTINUOUS
10
5.55535
20
-4.65455
11
5.55348
21
-4.64893
0
LINE
8
BLACK
6
CONTINUOUS
10
5.55348
20
-4.64893
11
5.55335
21
-4.64806
0
LINE
8
BLACK
6
CONTINUOUS
10
5.55335
20
-4.64806
11
5.55333
21
-4.648
0
LINE
8
BLACK
6
CONTINUOUS
10
5.55333
20
-4.648
11
5.55333
21
-4.61987
0
LINE
8
BLACK
6
CONTINUOUS
10
5.55333
20
-4.61987
11
5.55351
21
-4.61886
0
LINE
8
BLACK
6
CONTINUOUS
10
5.55351
20
-4.61886
11
5.5548
21
-4.61732
0
LINE
8
BLACK
6
CONTINUOUS
10
5.5548
20
-4.61732
11
5.55679
21
-4.61697
0
LINE
8
BLACK
6
CONTINUOUS
10
5.55679
20
-4.61697
11
5.55854
21
-4.61798
0
LINE
8
BLACK
6
CONTINUOUS
10
3.24409
20
-4.56933
11
3.24423
21
-4.56944
0
LINE
8
BLACK
6
CONTINUOUS
10
3.24423
20
-4.56944
11
3.2444
21
-4.56946
0
LINE
8
BLACK
6
CONTINUOUS
10
3.2444
20
-4.56946
11
3.24815
21
-4.57134
0
LINE
8
BLACK
6
CONTINUOUS
10
3.24815
20
-4.57134
11
3.24886
21
-4.57186
0
LINE
8
BLACK
6
CONTINUOUS
10
3.24886
20
-4.57186
11
3.24892
21
-4.57189
0
LINE
8
BLACK
6
CONTINUOUS
10
3.24892
20
-4.57189
11
3.2508
21
-4.57377
0
LINE
8
BLACK
6
CONTINUOUS
10
3.2508
20
-4.57377
11
3.2513
21
-4.57449
0
LINE
8
BLACK
6
CONTINUOUS
10
3.2513
20
-4.57449
11
3.25135
21
-4.57453
0
LINE
8
BLACK
6
CONTINUOUS
10
3.25135
20
-4.57453
11
3.25322
21
-4.57828
0
LINE
8
BLACK
6
CONTINUOUS
10
3.25322
20
-4.57828
11
3.25352
21
-4.57926
0
LINE
8
BLACK
6
CONTINUOUS
10
3.25352
20
-4.57926
11
3.25348
21
-4.57944
0
LINE
8
BLACK
6
CONTINUOUS
10
3.25348
20
-4.57944
11
3.25354
21
-4.5796
0
LINE
8
BLACK
6
CONTINUOUS
10
3.25354
20
-4.5796
11
3.25354
21
-4.5871
0
LINE
8
BLACK
6
CONTINUOUS
10
3.25354
20
-4.5871
11
3.25336
21
-4.58811
0
LINE
8
BLACK
6
CONTINUOUS
10
3.25336
20
-4.58811
11
3.25324
21
-4.58825
0
LINE
8
BLACK
6
CONTINUOUS
10
3.25324
20
-4.58825
11
3.25322
21
-4.58842
0
LINE
8
BLACK
6
CONTINUOUS
10
3.25322
20
-4.58842
11
3.25135
21
-4.59217
0
LINE
8
BLACK
6
CONTINUOUS
10
3.25135
20
-4.59217
11
3.25082
21
-4.59288
0
LINE
8
BLACK
6
CONTINUOUS
10
3.25082
20
-4.59288
11
3.2508
21
-4.59294
0
LINE
8
BLACK
6
CONTINUOUS
10
3.2508
20
-4.59294
11
3.24892
21
-4.59481
0
LINE
8
BLACK
6
CONTINUOUS
10
3.24892
20
-4.59481
11
3.2482
21
-4.59532
0
LINE
8
BLACK
6
CONTINUOUS
10
3.2482
20
-4.59532
11
3.24815
21
-4.59537
0
LINE
8
BLACK
6
CONTINUOUS
10
3.24815
20
-4.59537
11
3.2444
21
-4.59724
0
LINE
8
BLACK
6
CONTINUOUS
10
3.2444
20
-4.59724
11
3.24342
21
-4.59753
0
LINE
8
BLACK
6
CONTINUOUS
10
3.24342
20
-4.59753
11
3.24325
21
-4.59749
0
LINE
8
BLACK
6
CONTINUOUS
10
3.24325
20
-4.59749
11
3.24308
21
-4.59755
0
LINE
8
BLACK
6
CONTINUOUS
10
3.24308
20
-4.59755
11
3.23371
21
-4.59755
0
LINE
8
BLACK
6
CONTINUOUS
10
3.23371
20
-4.59755
11
3.2327
21
-4.59738
0
LINE
8
BLACK
6
CONTINUOUS
10
3.2327
20
-4.59738
11
3.23257
21
-4.59726
0
LINE
8
BLACK
6
CONTINUOUS
10
3.23257
20
-4.59726
11
3.23239
21
-4.59724
0
LINE
8
BLACK
6
CONTINUOUS
10
3.23239
20
-4.59724
11
3.22864
21
-4.59537
0
LINE
8
BLACK
6
CONTINUOUS
10
3.22864
20
-4.59537
11
3.22793
21
-4.59484
0
LINE
8
BLACK
6
CONTINUOUS
10
3.22793
20
-4.59484
11
3.22787
21
-4.59481
0
LINE
8
BLACK
6
CONTINUOUS
10
3.22787
20
-4.59481
11
3.226
21
-4.59294
0
LINE
8
BLACK
6
CONTINUOUS
10
3.226
20
-4.59294
11
3.22549
21
-4.59222
0
LINE
8
BLACK
6
CONTINUOUS
10
3.22549
20
-4.59222
11
3.22545
21
-4.59217
0
LINE
8
BLACK
6
CONTINUOUS
10
3.22545
20
-4.59217
11
3.22357
21
-4.58842
0
LINE
8
BLACK
6
CONTINUOUS
10
3.22357
20
-4.58842
11
3.22328
21
-4.58744
0
LINE
8
BLACK
6
CONTINUOUS
10
3.22328
20
-4.58744
11
3.22332
21
-4.58727
0
LINE
8
BLACK
6
CONTINUOUS
10
3.22332
20
-4.58727
11
3.22326
21
-4.5871
0
LINE
8
BLACK
6
CONTINUOUS
10
3.22326
20
-4.5871
11
3.22326
21
-4.5796
0
LINE
8
BLACK
6
CONTINUOUS
10
3.22326
20
-4.5796
11
3.22344
21
-4.57859
0
LINE
8
BLACK
6
CONTINUOUS
10
3.22344
20
-4.57859
11
3.22355
21
-4.57846
0
LINE
8
BLACK
6
CONTINUOUS
10
3.22355
20
-4.57846
11
3.22357
21
-4.57828
0
LINE
8
BLACK
6
CONTINUOUS
10
3.22357
20
-4.57828
11
3.22472
21
-4.57599
0
LINE
8
BLACK
6
CONTINUOUS
10
3.22472
20
-4.57599
11
3.2218
21
-4.57672
0
LINE
8
BLACK
6
CONTINUOUS
10
3.2218
20
-4.57672
11
3.21684
21
-4.58002
0
LINE
8
BLACK
6
CONTINUOUS
10
3.21684
20
-4.58002
11
3.21551
21
-4.58135
0
LINE
8
BLACK
6
CONTINUOUS
10
3.21551
20
-4.58135
11
3.21417
21
-4.58405
0
LINE
8
BLACK
6
CONTINUOUS
10
3.21417
20
-4.58405
11
3.21417
21
-4.59085
0
LINE
8
BLACK
6
CONTINUOUS
10
3.21417
20
-4.59085
11
3.21399
21
-4.59186
0
LINE
8
BLACK
6
CONTINUOUS
10
3.21399
20
-4.59186
11
3.21269
21
-4.59341
0
LINE
8
BLACK
6
CONTINUOUS
10
3.21269
20
-4.59341
11
3.2107
21
-4.59376
0
LINE
8
BLACK
6
CONTINUOUS
10
3.2107
20
-4.59376
11
3.20895
21
-4.59275
0
LINE
8
BLACK
6
CONTINUOUS
10
3.20895
20
-4.59275
11
3.20826
21
-4.59085
0
LINE
8
BLACK
6
CONTINUOUS
10
3.20826
20
-4.59085
11
3.20826
21
-4.58335
0
LINE
8
BLACK
6
CONTINUOUS
10
3.20826
20
-4.58335
11
3.20844
21
-4.58234
0
LINE
8
BLACK
6
CONTINUOUS
10
3.20844
20
-4.58234
11
3.20855
21
-4.58221
0
LINE
8
BLACK
6
CONTINUOUS
10
3.20855
20
-4.58221
11
3.20857
21
-4.58203
0
LINE
8
BLACK
6
CONTINUOUS
10
3.20857
20
-4.58203
11
3.21045
21
-4.57828
0
LINE
8
BLACK
6
CONTINUOUS
10
3.21045
20
-4.57828
11
3.21097
21
-4.57757
0
LINE
8
BLACK
6
CONTINUOUS
10
3.21097
20
-4.57757
11
3.211
21
-4.57751
0
LINE
8
BLACK
6
CONTINUOUS
10
3.211
20
-4.57751
11
3.21287
21
-4.57564
0
LINE
8
BLACK
6
CONTINUOUS
10
3.21287
20
-4.57564
11
3.21324
21
-4.57538
0
LINE
8
BLACK
6
CONTINUOUS
10
3.21324
20
-4.57538
11
3.21332
21
-4.57527
0
LINE
8
BLACK
6
CONTINUOUS
10
3.21332
20
-4.57527
11
3.21895
21
-4.57152
0
LINE
8
BLACK
6
CONTINUOUS
10
3.21895
20
-4.57152
11
3.21986
21
-4.57112
0
LINE
8
BLACK
6
CONTINUOUS
10
3.21986
20
-4.57112
11
3.21987
21
-4.57111
0
LINE
8
BLACK
6
CONTINUOUS
10
3.21987
20
-4.57111
11
3.22737
21
-4.56924
0
LINE
8
BLACK
6
CONTINUOUS
10
3.22737
20
-4.56924
11
3.22796
21
-4.5692
0
LINE
8
BLACK
6
CONTINUOUS
10
3.22796
20
-4.5692
11
3.22809
21
-4.56915
0
LINE
8
BLACK
6
CONTINUOUS
10
3.22809
20
-4.56915
11
3.24308
21
-4.56915
0
LINE
8
BLACK
6
CONTINUOUS
10
3.24308
20
-4.56915
11
3.24409
21
-4.56933
0
LINE
8
BLACK
6
CONTINUOUS
10
3.23171
20
-4.57641
11
3.23051
21
-4.5776
0
LINE
8
BLACK
6
CONTINUOUS
10
3.23051
20
-4.5776
11
3.22916
21
-4.5803
0
LINE
8
BLACK
6
CONTINUOUS
10
3.22916
20
-4.5803
11
3.22916
21
-4.5864
0
LINE
8
BLACK
6
CONTINUOUS
10
3.22916
20
-4.5864
11
3.23051
21
-4.5891
0
LINE
8
BLACK
6
CONTINUOUS
10
3.23051
20
-4.5891
11
3.23171
21
-4.5903
0
LINE
8
BLACK
6
CONTINUOUS
10
3.23171
20
-4.5903
11
3.23441
21
-4.59165
0
LINE
8
BLACK
6
CONTINUOUS
10
3.23441
20
-4.59165
11
3.24239
21
-4.59165
0
LINE
8
BLACK
6
CONTINUOUS
10
3.24239
20
-4.59165
11
3.24508
21
-4.5903
0
LINE
8
BLACK
6
CONTINUOUS
10
3.24508
20
-4.5903
11
3.24628
21
-4.5891
0
LINE
8
BLACK
6
CONTINUOUS
10
3.24628
20
-4.5891
11
3.24763
21
-4.5864
0
LINE
8
BLACK
6
CONTINUOUS
10
3.24763
20
-4.5864
11
3.24763
21
-4.5803
0
LINE
8
BLACK
6
CONTINUOUS
10
3.24763
20
-4.5803
11
3.24628
21
-4.5776
0
LINE
8
BLACK
6
CONTINUOUS
10
3.24628
20
-4.5776
11
3.24508
21
-4.57641
0
LINE
8
BLACK
6
CONTINUOUS
10
3.24508
20
-4.57641
11
3.24239
21
-4.57506
0
LINE
8
BLACK
6
CONTINUOUS
10
3.24239
20
-4.57506
11
3.23441
21
-4.57506
0
LINE
8
BLACK
6
CONTINUOUS
10
3.23441
20
-4.57506
11
3.23171
21
-4.57641
0
LINE
8
BLACK
6
CONTINUOUS
10
3.24892
20
-4.53065
11
3.2508
21
-4.53252
0
LINE
8
BLACK
6
CONTINUOUS
10
3.2508
20
-4.53252
11
3.2513
21
-4.53324
0
LINE
8
BLACK
6
CONTINUOUS
10
3.2513
20
-4.53324
11
3.25135
21
-4.53329
0
LINE
8
BLACK
6
CONTINUOUS
10
3.25135
20
-4.53329
11
3.25322
21
-4.53704
0
LINE
8
BLACK
6
CONTINUOUS
10
3.25322
20
-4.53704
11
3.25352
21
-4.53802
0
LINE
8
BLACK
6
CONTINUOUS
10
3.25352
20
-4.53802
11
3.25348
21
-4.53819
0
LINE
8
BLACK
6
CONTINUOUS
10
3.25348
20
-4.53819
11
3.25354
21
-4.53836
0
LINE
8
BLACK
6
CONTINUOUS
10
3.25354
20
-4.53836
11
3.25354
21
-4.54961
0
LINE
8
BLACK
6
CONTINUOUS
10
3.25354
20
-4.54961
11
3.25336
21
-4.55062
0
LINE
8
BLACK
6
CONTINUOUS
10
3.25336
20
-4.55062
11
3.25324
21
-4.55075
0
LINE
8
BLACK
6
CONTINUOUS
10
3.25324
20
-4.55075
11
3.25322
21
-4.55093
0
LINE
8
BLACK
6
CONTINUOUS
10
3.25322
20
-4.55093
11
3.25135
21
-4.55468
0
LINE
8
BLACK
6
CONTINUOUS
10
3.25135
20
-4.55468
11
3.25082
21
-4.55539
0
LINE
8
BLACK
6
CONTINUOUS
10
3.25082
20
-4.55539
11
3.2508
21
-4.55544
0
LINE
8
BLACK
6
CONTINUOUS
10
3.2508
20
-4.55544
11
3.24892
21
-4.55732
0
LINE
8
BLACK
6
CONTINUOUS
10
3.24892
20
-4.55732
11
3.2482
21
-4.55782
0
LINE
8
BLACK
6
CONTINUOUS
10
3.2482
20
-4.55782
11
3.24815
21
-4.55787
0
LINE
8
BLACK
6
CONTINUOUS
10
3.24815
20
-4.55787
11
3.2444
21
-4.55975
0
LINE
8
BLACK
6
CONTINUOUS
10
3.2444
20
-4.55975
11
3.24342
21
-4.56004
0
LINE
8
BLACK
6
CONTINUOUS
10
3.24342
20
-4.56004
11
3.24325
21
-4.56
0
LINE
8
BLACK
6
CONTINUOUS
10
3.24325
20
-4.56
11
3.24308
21
-4.56006
0
LINE
8
BLACK
6
CONTINUOUS
10
3.24308
20
-4.56006
11
3.23371
21
-4.56006
0
LINE
8
BLACK
6
CONTINUOUS
10
3.23371
20
-4.56006
11
3.2327
21
-4.55988
0
LINE
8
BLACK
6
CONTINUOUS
10
3.2327
20
-4.55988
11
3.23257
21
-4.55977
0
LINE
8
BLACK
6
CONTINUOUS
10
3.23257
20
-4.55977
11
3.23239
21
-4.55975
0
LINE
8
BLACK
6
CONTINUOUS
10
3.23239
20
-4.55975
11
3.22864
21
-4.55787
0
LINE
8
BLACK
6
CONTINUOUS
10
3.22864
20
-4.55787
11
3.22793
21
-4.55735
0
LINE
8
BLACK
6
CONTINUOUS
10
3.22793
20
-4.55735
11
3.22787
21
-4.55732
0
LINE
8
BLACK
6
CONTINUOUS
10
3.22787
20
-4.55732
11
3.226
21
-4.55544
0
LINE
8
BLACK
6
CONTINUOUS
10
3.226
20
-4.55544
11
3.22549
21
-4.55472
0
LINE
8
BLACK
6
CONTINUOUS
10
3.22549
20
-4.55472
11
3.22545
21
-4.55468
0
LINE
8
BLACK
6
CONTINUOUS
10
3.22545
20
-4.55468
11
3.22357
21
-4.55093
0
LINE
8
BLACK
6
CONTINUOUS
10
3.22357
20
-4.55093
11
3.2234
21
-4.55036
0
LINE
8
BLACK
6
CONTINUOUS
10
3.2234
20
-4.55036
11
3.21316
21
-4.55933
0
LINE
8
BLACK
6
CONTINUOUS
10
3.21316
20
-4.55933
11
3.21278
21
-4.55956
0
LINE
8
BLACK
6
CONTINUOUS
10
3.21278
20
-4.55956
11
3.21269
21
-4.55966
0
LINE
8
BLACK
6
CONTINUOUS
10
3.21269
20
-4.55966
11
3.21257
21
-4.55968
0
LINE
8
BLACK
6
CONTINUOUS
10
3.21257
20
-4.55968
11
3.21228
21
-4.55986
0
LINE
8
BLACK
6
CONTINUOUS
10
3.21228
20
-4.55986
11
3.21148
21
-4.55987
0
LINE
8
BLACK
6
CONTINUOUS
10
3.21148
20
-4.55987
11
3.2107
21
-4.56001
0
LINE
8
BLACK
6
CONTINUOUS
10
3.2107
20
-4.56001
11
3.2105
21
-4.5599
0
LINE
8
BLACK
6
CONTINUOUS
10
3.2105
20
-4.5599
11
3.21026
21
-4.5599
0
LINE
8
BLACK
6
CONTINUOUS
10
3.21026
20
-4.5599
11
3.20964
21
-4.5594
0
LINE
8
BLACK
6
CONTINUOUS
10
3.20964
20
-4.5594
11
3.20895
21
-4.559
0
LINE
8
BLACK
6
CONTINUOUS
10
3.20895
20
-4.559
11
3.20887
21
-4.55878
0
LINE
8
BLACK
6
CONTINUOUS
10
3.20887
20
-4.55878
11
3.20869
21
-4.55863
0
LINE
8
BLACK
6
CONTINUOUS
10
3.20869
20
-4.55863
11
3.20853
21
-4.55785
0
LINE
8
BLACK
6
CONTINUOUS
10
3.20853
20
-4.55785
11
3.20826
21
-4.55711
0
LINE
8
BLACK
6
CONTINUOUS
10
3.20826
20
-4.55711
11
3.20826
21
-4.53273
0
LINE
8
BLACK
6
CONTINUOUS
10
3.20826
20
-4.53273
11
3.20844
21
-4.53172
0
LINE
8
BLACK
6
CONTINUOUS
10
3.20844
20
-4.53172
11
3.20974
21
-4.53018
0
LINE
8
BLACK
6
CONTINUOUS
10
3.20974
20
-4.53018
11
3.21173
21
-4.52983
0
LINE
8
BLACK
6
CONTINUOUS
10
3.21173
20
-4.52983
11
3.21348
21
-4.53084
0
LINE
8
BLACK
6
CONTINUOUS
10
3.21348
20
-4.53084
11
3.21417
21
-4.53273
0
LINE
8
BLACK
6
CONTINUOUS
10
3.21417
20
-4.53273
11
3.21417
21
-4.5506
0
LINE
8
BLACK
6
CONTINUOUS
10
3.21417
20
-4.5506
11
3.22427
21
-4.54176
0
LINE
8
BLACK
6
CONTINUOUS
10
3.22427
20
-4.54176
11
3.22465
21
-4.54153
0
LINE
8
BLACK
6
CONTINUOUS
10
3.22465
20
-4.54153
11
3.22474
21
-4.54142
0
LINE
8
BLACK
6
CONTINUOUS
10
3.22474
20
-4.54142
11
3.22486
21
-4.5414
0
LINE
8
BLACK
6
CONTINUOUS
10
3.22486
20
-4.5414
11
3.22514
21
-4.54123
0
LINE
8
BLACK
6
CONTINUOUS
10
3.22514
20
-4.54123
11
3.22594
21
-4.54121
0
LINE
8
BLACK
6
CONTINUOUS
10
3.22594
20
-4.54121
11
3.22672
21
-4.54107
0
LINE
8
BLACK
6
CONTINUOUS
10
3.22672
20
-4.54107
11
3.22693
21
-4.54119
0
LINE
8
BLACK
6
CONTINUOUS
10
3.22693
20
-4.54119
11
3.22716
21
-4.54119
0
LINE
8
BLACK
6
CONTINUOUS
10
3.22716
20
-4.54119
11
3.22778
21
-4.54169
0
LINE
8
BLACK
6
CONTINUOUS
10
3.22778
20
-4.54169
11
3.22847
21
-4.54208
0
LINE
8
BLACK
6
CONTINUOUS
10
3.22847
20
-4.54208
11
3.22855
21
-4.54231
0
LINE
8
BLACK
6
CONTINUOUS
10
3.22855
20
-4.54231
11
3.22874
21
-4.54245
0
LINE
8
BLACK
6
CONTINUOUS
10
3.22874
20
-4.54245
11
3.22889
21
-4.54323
0
LINE
8
BLACK
6
CONTINUOUS
10
3.22889
20
-4.54323
11
3.22916
21
-4.54398
0
LINE
8
BLACK
6
CONTINUOUS
10
3.22916
20
-4.54398
11
3.22916
21
-4.54891
0
LINE
8
BLACK
6
CONTINUOUS
10
3.22916
20
-4.54891
11
3.23051
21
-4.55161
0
LINE
8
BLACK
6
CONTINUOUS
10
3.23051
20
-4.55161
11
3.23171
21
-4.5528
0
LINE
8
BLACK
6
CONTINUOUS
10
3.23171
20
-4.5528
11
3.23441
21
-4.55415
0
LINE
8
BLACK
6
CONTINUOUS
10
3.23441
20
-4.55415
11
3.24239
21
-4.55415
0
LINE
8
BLACK
6
CONTINUOUS
10
3.24239
20
-4.55415
11
3.24508
21
-4.5528
0
LINE
8
BLACK
6
CONTINUOUS
10
3.24508
20
-4.5528
11
3.24628
21
-4.55161
0
LINE
8
BLACK
6
CONTINUOUS
10
3.24628
20
-4.55161
11
3.24763
21
-4.54891
0
LINE
8
BLACK
6
CONTINUOUS
10
3.24763
20
-4.54891
11
3.24763
21
-4.53905
0
LINE
8
BLACK
6
CONTINUOUS
10
3.24763
20
-4.53905
11
3.24628
21
-4.53636
0
LINE
8
BLACK
6
CONTINUOUS
10
3.24628
20
-4.53636
11
3.24475
21
-4.53482
0
LINE
8
BLACK
6
CONTINUOUS
10
3.24475
20
-4.53482
11
3.24416
21
-4.53398
0
LINE
8
BLACK
6
CONTINUOUS
10
3.24416
20
-4.53398
11
3.24398
21
-4.53197
0
LINE
8
BLACK
6
CONTINUOUS
10
3.24398
20
-4.53197
11
3.24514
21
-4.53031
0
LINE
8
BLACK
6
CONTINUOUS
10
3.24514
20
-4.53031
11
3.24709
21
-4.52979
0
LINE
8
BLACK
6
CONTINUOUS
10
3.24709
20
-4.52979
11
3.24892
21
-4.53065
0
LINE
8
BLACK
6
CONTINUOUS
10
3.25285
20
-4.50084
11
3.25354
21
-4.50274
0
LINE
8
BLACK
6
CONTINUOUS
10
3.25354
20
-4.50274
11
3.25354
21
-4.50649
0
LINE
8
BLACK
6
CONTINUOUS
10
3.25354
20
-4.50649
11
3.25338
21
-4.50736
0
LINE
8
BLACK
6
CONTINUOUS
10
3.25338
20
-4.50736
11
3.25338
21
-4.50742
0
LINE
8
BLACK
6
CONTINUOUS
10
3.25338
20
-4.50742
11
3.25151
21
-4.51304
0
LINE
8
BLACK
6
CONTINUOUS
10
3.25151
20
-4.51304
11
3.25102
21
-4.51395
0
LINE
8
BLACK
6
CONTINUOUS
10
3.25102
20
-4.51395
11
3.25087
21
-4.51404
0
LINE
8
BLACK
6
CONTINUOUS
10
3.25087
20
-4.51404
11
3.2508
21
-4.5142
0
LINE
8
BLACK
6
CONTINUOUS
10
3.2508
20
-4.5142
11
3.24705
21
-4.51795
0
LINE
8
BLACK
6
CONTINUOUS
10
3.24705
20
-4.51795
11
3.24621
21
-4.51854
0
LINE
8
BLACK
6
CONTINUOUS
10
3.24621
20
-4.51854
11
3.24603
21
-4.51855
0
LINE
8
BLACK
6
CONTINUOUS
10
3.24603
20
-4.51855
11
3.24589
21
-4.51866
0
LINE
8
BLACK
6
CONTINUOUS
10
3.24589
20
-4.51866
11
3.24027
21
-4.52054
0
LINE
8
BLACK
6
CONTINUOUS
10
3.24027
20
-4.52054
11
3.2394
21
-4.52067
0
LINE
8
BLACK
6
CONTINUOUS
10
3.2394
20
-4.52067
11
3.23933
21
-4.52069
0
LINE
8
BLACK
6
CONTINUOUS
10
3.23933
20
-4.52069
11
3.21121
21
-4.52069
0
LINE
8
BLACK
6
CONTINUOUS
10
3.21121
20
-4.52069
11
3.2102
21
-4.52051
0
LINE
8
BLACK
6
CONTINUOUS
10
3.2102
20
-4.52051
11
3.20866
21
-4.51921
0
LINE
8
BLACK
6
CONTINUOUS
10
3.20866
20
-4.51921
11
3.20831
21
-4.51722
0
LINE
8
BLACK
6
CONTINUOUS
10
3.20831
20
-4.51722
11
3.20932
21
-4.51547
0
LINE
8
BLACK
6
CONTINUOUS
10
3.20932
20
-4.51547
11
3.21121
21
-4.51478
0
LINE
8
BLACK
6
CONTINUOUS
10
3.21121
20
-4.51478
11
3.23886
21
-4.51478
0
LINE
8
BLACK
6
CONTINUOUS
10
3.23886
20
-4.51478
11
3.24336
21
-4.51328
0
LINE
8
BLACK
6
CONTINUOUS
10
3.24336
20
-4.51328
11
3.24613
21
-4.51052
0
LINE
8
BLACK
6
CONTINUOUS
10
3.24613
20
-4.51052
11
3.24763
21
-4.50601
0
LINE
8
BLACK
6
CONTINUOUS
10
3.24763
20
-4.50601
11
3.24763
21
-4.50274
0
LINE
8
BLACK
6
CONTINUOUS
10
3.24763
20
-4.50274
11
3.24781
21
-4.50173
0
LINE
8
BLACK
6
CONTINUOUS
10
3.24781
20
-4.50173
11
3.24911
21
-4.50018
0
LINE
8
BLACK
6
CONTINUOUS
10
3.24911
20
-4.50018
11
3.2511
21
-4.49983
0
LINE
8
BLACK
6
CONTINUOUS
10
3.2511
20
-4.49983
11
3.25285
21
-4.50084
0
LINE
8
BLACK
6
CONTINUOUS
10
3.23617
20
-4.46925
11
3.2363
21
-4.46924
0
LINE
8
BLACK
6
CONTINUOUS
10
3.2363
20
-4.46924
11
3.2438
21
-4.47111
0
LINE
8
BLACK
6
CONTINUOUS
10
3.2438
20
-4.47111
11
3.24427
21
-4.47132
0
LINE
8
BLACK
6
CONTINUOUS
10
3.24427
20
-4.47132
11
3.2444
21
-4.47134
0
LINE
8
BLACK
6
CONTINUOUS
10
3.2444
20
-4.47134
11
3.24815
21
-4.47321
0
LINE
8
BLACK
6
CONTINUOUS
10
3.24815
20
-4.47321
11
3.24886
21
-4.47374
0
LINE
8
BLACK
6
CONTINUOUS
10
3.24886
20
-4.47374
11
3.24892
21
-4.47377
0
LINE
8
BLACK
6
CONTINUOUS
10
3.24892
20
-4.47377
11
3.2508
21
-4.47564
0
LINE
8
BLACK
6
CONTINUOUS
10
3.2508
20
-4.47564
11
3.2513
21
-4.47636
0
LINE
8
BLACK
6
CONTINUOUS
10
3.2513
20
-4.47636
11
3.25135
21
-4.47641
0
LINE
8
BLACK
6
CONTINUOUS
10
3.25135
20
-4.47641
11
3.25322
21
-4.48016
0
LINE
8
BLACK
6
CONTINUOUS
10
3.25322
20
-4.48016
11
3.25352
21
-4.48114
0
LINE
8
BLACK
6
CONTINUOUS
10
3.25352
20
-4.48114
11
3.25348
21
-4.48131
0
LINE
8
BLACK
6
CONTINUOUS
10
3.25348
20
-4.48131
11
3.25354
21
-4.48148
0
LINE
8
BLACK
6
CONTINUOUS
10
3.25354
20
-4.48148
11
3.25354
21
-4.48523
0
LINE
8
BLACK
6
CONTINUOUS
10
3.25354
20
-4.48523
11
3.25336
21
-4.48624
0
LINE
8
BLACK
6
CONTINUOUS
10
3.25336
20
-4.48624
11
3.25324
21
-4.48637
0
LINE
8
BLACK
6
CONTINUOUS
10
3.25324
20
-4.48637
11
3.25322
21
-4.48655
0
LINE
8
BLACK
6
CONTINUOUS
10
3.25322
20
-4.48655
11
3.25135
21
-4.4903
0
LINE
8
BLACK
6
CONTINUOUS
10
3.25135
20
-4.4903
11
3.25082
21
-4.49101
0
LINE
8
BLACK
6
CONTINUOUS
10
3.25082
20
-4.49101
11
3.2508
21
-4.49106
0
LINE
8
BLACK
6
CONTINUOUS
10
3.2508
20
-4.49106
11
3.24892
21
-4.49294
0
LINE
8
BLACK
6
CONTINUOUS
10
3.24892
20
-4.49294
11
3.2482
21
-4.49345
0
LINE
8
BLACK
6
CONTINUOUS
10
3.2482
20
-4.49345
11
3.24815
21
-4.49349
0
LINE
8
BLACK
6
CONTINUOUS
10
3.24815
20
-4.49349
11
3.2444
21
-4.49537
0
LINE
8
BLACK
6
CONTINUOUS
10
3.2444
20
-4.49537
11
3.24392
21
-4.49551
0
LINE
8
BLACK
6
CONTINUOUS
10
3.24392
20
-4.49551
11
3.2438
21
-4.49559
0
LINE
8
BLACK
6
CONTINUOUS
10
3.2438
20
-4.49559
11
3.2363
21
-4.49747
0
LINE
8
BLACK
6
CONTINUOUS
10
3.2363
20
-4.49747
11
3.23571
21
-4.49751
0
LINE
8
BLACK
6
CONTINUOUS
10
3.23571
20
-4.49751
11
3.23559
21
-4.49755
0
LINE
8
BLACK
6
CONTINUOUS
10
3.23559
20
-4.49755
11
3.22621
21
-4.49755
0
LINE
8
BLACK
6
CONTINUOUS
10
3.22621
20
-4.49755
11
3.22563
21
-4.49745
0
LINE
8
BLACK
6
CONTINUOUS
10
3.22563
20
-4.49745
11
3.2255
21
-4.49747
0
LINE
8
BLACK
6
CONTINUOUS
10
3.2255
20
-4.49747
11
3.218
21
-4.49559
0
LINE
8
BLACK
6
CONTINUOUS
10
3.218
20
-4.49559
11
3.21753
21
-4.49538
0
LINE
8
BLACK
6
CONTINUOUS
10
3.21753
20
-4.49538
11
3.21739
21
-4.49537
0
LINE
8
BLACK
6
CONTINUOUS
10
3.21739
20
-4.49537
11
3.21364
21
-4.49349
0
LINE
8
BLACK
6
CONTINUOUS
10
3.21364
20
-4.49349
11
3.21293
21
-4.49297
0
LINE
8
BLACK
6
CONTINUOUS
10
3.21293
20
-4.49297
11
3.21287
21
-4.49294
0
LINE
8
BLACK
6
CONTINUOUS
10
3.21287
20
-4.49294
11
3.211
21
-4.49106
0
LINE
8
BLACK
6
CONTINUOUS
10
3.211
20
-4.49106
11
3.21049
21
-4.49034
0
LINE
8
BLACK
6
CONTINUOUS
10
3.21049
20
-4.49034
11
3.21045
21
-4.4903
0
LINE
8
BLACK
6
CONTINUOUS
10
3.21045
20
-4.4903
11
3.20857
21
-4.48655
0
LINE
8
BLACK
6
CONTINUOUS
10
3.20857
20
-4.48655
11
3.20828
21
-4.48556
0
LINE
8
BLACK
6
CONTINUOUS
10
3.20828
20
-4.48556
11
3.20832
21
-4.48539
0
LINE
8
BLACK
6
CONTINUOUS
10
3.20832
20
-4.48539
11
3.20826
21
-4.48523
0
LINE
8
BLACK
6
CONTINUOUS
10
3.20826
20
-4.48523
11
3.20826
21
-4.48148
0
LINE
8
BLACK
6
CONTINUOUS
10
3.20826
20
-4.48148
11
3.20844
21
-4.48047
0
LINE
8
BLACK
6
CONTINUOUS
10
3.20844
20
-4.48047
11
3.20855
21
-4.48033
0
LINE
8
BLACK
6
CONTINUOUS
10
3.20855
20
-4.48033
11
3.20857
21
-4.48016
0
LINE
8
BLACK
6
CONTINUOUS
10
3.20857
20
-4.48016
11
3.21045
21
-4.47641
0
LINE
8
BLACK
6
CONTINUOUS
10
3.21045
20
-4.47641
11
3.21097
21
-4.4757
0
LINE
8
BLACK
6
CONTINUOUS
10
3.21097
20
-4.4757
11
3.211
21
-4.47564
0
LINE
8
BLACK
6
CONTINUOUS
10
3.211
20
-4.47564
11
3.21287
21
-4.47377
0
LINE
8
BLACK
6
CONTINUOUS
10
3.21287
20
-4.47377
11
3.2136
21
-4.47326
0
LINE
8
BLACK
6
CONTINUOUS
10
3.2136
20
-4.47326
11
3.21364
21
-4.47321
0
LINE
8
BLACK
6
CONTINUOUS
10
3.21364
20
-4.47321
11
3.21739
21
-4.47134
0
LINE
8
BLACK
6
CONTINUOUS
10
3.21739
20
-4.47134
11
3.21788
21
-4.47119
0
LINE
8
BLACK
6
CONTINUOUS
10
3.21788
20
-4.47119
11
3.218
21
-4.47111
0
LINE
8
BLACK
6
CONTINUOUS
10
3.218
20
-4.47111
11
3.2255
21
-4.46924
0
LINE
8
BLACK
6
CONTINUOUS
10
3.2255
20
-4.46924
11
3.22608
21
-4.4692
0
LINE
8
BLACK
6
CONTINUOUS
10
3.22608
20
-4.4692
11
3.22621
21
-4.46915
0
LINE
8
BLACK
6
CONTINUOUS
10
3.22621
20
-4.46915
11
3.23559
21
-4.46915
0
LINE
8
BLACK
6
CONTINUOUS
10
3.23559
20
-4.46915
11
3.23617
21
-4.46925
0
LINE
8
BLACK
6
CONTINUOUS
10
3.21974
20
-4.47676
11
3.21671
21
-4.47828
0
LINE
8
BLACK
6
CONTINUOUS
10
3.21671
20
-4.47828
11
3.21551
21
-4.47948
0
LINE
8
BLACK
6
CONTINUOUS
10
3.21551
20
-4.47948
11
3.21417
21
-4.48217
0
LINE
8
BLACK
6
CONTINUOUS
10
3.21417
20
-4.48217
11
3.21417
21
-4.48453
0
LINE
8
BLACK
6
CONTINUOUS
10
3.21417
20
-4.48453
11
3.21551
21
-4.48723
0
LINE
8
BLACK
6
CONTINUOUS
10
3.21551
20
-4.48723
11
3.21671
21
-4.48842
0
LINE
8
BLACK
6
CONTINUOUS
10
3.21671
20
-4.48842
11
3.21974
21
-4.48994
0
LINE
8
BLACK
6
CONTINUOUS
10
3.21974
20
-4.48994
11
3.22657
21
-4.49165
0
LINE
8
BLACK
6
CONTINUOUS
10
3.22657
20
-4.49165
11
3.23522
21
-4.49165
0
LINE
8
BLACK
6
CONTINUOUS
10
3.23522
20
-4.49165
11
3.24205
21
-4.48994
0
LINE
8
BLACK
6
CONTINUOUS
10
3.24205
20
-4.48994
11
3.24508
21
-4.48842
0
LINE
8
BLACK
6
CONTINUOUS
10
3.24508
20
-4.48842
11
3.24628
21
-4.48723
0
LINE
8
BLACK
6
CONTINUOUS
10
3.24628
20
-4.48723
11
3.24763
21
-4.48453
0
LINE
8
BLACK
6
CONTINUOUS
10
3.24763
20
-4.48453
11
3.24763
21
-4.48217
0
LINE
8
BLACK
6
CONTINUOUS
10
3.24763
20
-4.48217
11
3.24628
21
-4.47948
0
LINE
8
BLACK
6
CONTINUOUS
10
3.24628
20
-4.47948
11
3.24508
21
-4.47828
0
LINE
8
BLACK
6
CONTINUOUS
10
3.24508
20
-4.47828
11
3.24205
21
-4.47676
0
LINE
8
BLACK
6
CONTINUOUS
10
3.24205
20
-4.47676
11
3.23522
21
-4.47506
0
LINE
8
BLACK
6
CONTINUOUS
10
3.23522
20
-4.47506
11
3.22657
21
-4.47506
0
LINE
8
BLACK
6
CONTINUOUS
10
3.22657
20
-4.47506
11
3.21974
21
-4.47676
0
LINE
8
BLACK
6
CONTINUOUS
10
3.24892
20
-4.43065
11
3.2508
21
-4.43252
0
LINE
8
BLACK
6
CONTINUOUS
10
3.2508
20
-4.43252
11
3.2513
21
-4.43324
0
LINE
8
BLACK
6
CONTINUOUS
10
3.2513
20
-4.43324
11
3.25135
21
-4.43329
0
LINE
8
BLACK
6
CONTINUOUS
10
3.25135
20
-4.43329
11
3.25322
21
-4.43704
0
LINE
8
BLACK
6
CONTINUOUS
10
3.25322
20
-4.43704
11
3.25352
21
-4.43802
0
LINE
8
BLACK
6
CONTINUOUS
10
3.25352
20
-4.43802
11
3.25348
21
-4.43819
0
LINE
8
BLACK
6
CONTINUOUS
10
3.25348
20
-4.43819
11
3.25354
21
-4.43836
0
LINE
8
BLACK
6
CONTINUOUS
10
3.25354
20
-4.43836
11
3.25354
21
-4.44961
0
LINE
8
BLACK
6
CONTINUOUS
10
3.25354
20
-4.44961
11
3.25336
21
-4.45062
0
LINE
8
BLACK
6
CONTINUOUS
10
3.25336
20
-4.45062
11
3.25324
21
-4.45075
0
LINE
8
BLACK
6
CONTINUOUS
10
3.25324
20
-4.45075
11
3.25322
21
-4.45093
0
LINE
8
BLACK
6
CONTINUOUS
10
3.25322
20
-4.45093
11
3.25135
21
-4.45468
0
LINE
8
BLACK
6
CONTINUOUS
10
3.25135
20
-4.45468
11
3.25082
21
-4.45539
0
LINE
8
BLACK
6
CONTINUOUS
10
3.25082
20
-4.45539
11
3.2508
21
-4.45544
0
LINE
8
BLACK
6
CONTINUOUS
10
3.2508
20
-4.45544
11
3.24892
21
-4.45732
0
LINE
8
BLACK
6
CONTINUOUS
10
3.24892
20
-4.45732
11
3.2482
21
-4.45782
0
LINE
8
BLACK
6
CONTINUOUS
10
3.2482
20
-4.45782
11
3.24815
21
-4.45787
0
LINE
8
BLACK
6
CONTINUOUS
10
3.24815
20
-4.45787
11
3.2444
21
-4.45975
0
LINE
8
BLACK
6
CONTINUOUS
10
3.2444
20
-4.45975
11
3.24342
21
-4.46004
0
LINE
8
BLACK
6
CONTINUOUS
10
3.24342
20
-4.46004
11
3.24325
21
-4.46
0
LINE
8
BLACK
6
CONTINUOUS
10
3.24325
20
-4.46
11
3.24308
21
-4.46006
0
LINE
8
BLACK
6
CONTINUOUS
10
3.24308
20
-4.46006
11
3.23371
21
-4.46006
0
LINE
8
BLACK
6
CONTINUOUS
10
3.23371
20
-4.46006
11
3.2327
21
-4.45988
0
LINE
8
BLACK
6
CONTINUOUS
10
3.2327
20
-4.45988
11
3.23257
21
-4.45977
0
LINE
8
BLACK
6
CONTINUOUS
10
3.23257
20
-4.45977
11
3.23239
21
-4.45975
0
LINE
8
BLACK
6
CONTINUOUS
10
3.23239
20
-4.45975
11
3.22864
21
-4.45787
0
LINE
8
BLACK
6
CONTINUOUS
10
3.22864
20
-4.45787
11
3.22793
21
-4.45735
0
LINE
8
BLACK
6
CONTINUOUS
10
3.22793
20
-4.45735
11
3.22787
21
-4.45732
0
LINE
8
BLACK
6
CONTINUOUS
10
3.22787
20
-4.45732
11
3.226
21
-4.45544
0
LINE
8
BLACK
6
CONTINUOUS
10
3.226
20
-4.45544
11
3.22549
21
-4.45472
0
LINE
8
BLACK
6
CONTINUOUS
10
3.22549
20
-4.45472
11
3.22545
21
-4.45468
0
LINE
8
BLACK
6
CONTINUOUS
10
3.22545
20
-4.45468
11
3.22357
21
-4.45093
0
LINE
8
BLACK
6
CONTINUOUS
10
3.22357
20
-4.45093
11
3.2234
21
-4.45036
0
LINE
8
BLACK
6
CONTINUOUS
10
3.2234
20
-4.45036
11
3.21316
21
-4.45933
0
LINE
8
BLACK
6
CONTINUOUS
10
3.21316
20
-4.45933
11
3.21278
21
-4.45956
0
LINE
8
BLACK
6
CONTINUOUS
10
3.21278
20
-4.45956
11
3.21269
21
-4.45966
0
LINE
8
BLACK
6
CONTINUOUS
10
3.21269
20
-4.45966
11
3.21257
21
-4.45968
0
LINE
8
BLACK
6
CONTINUOUS
10
3.21257
20
-4.45968
11
3.21228
21
-4.45986
0
LINE
8
BLACK
6
CONTINUOUS
10
3.21228
20
-4.45986
11
3.21148
21
-4.45988
0
LINE
8
BLACK
6
CONTINUOUS
10
3.21148
20
-4.45988
11
3.2107
21
-4.46001
0
LINE
8
BLACK
6
CONTINUOUS
10
3.2107
20
-4.46001
11
3.2105
21
-4.4599
0
LINE
8
BLACK
6
CONTINUOUS
10
3.2105
20
-4.4599
11
3.21026
21
-4.4599
0
LINE
8
BLACK
6
CONTINUOUS
10
3.21026
20
-4.4599
11
3.20964
21
-4.4594
0
LINE
8
BLACK
6
CONTINUOUS
10
3.20964
20
-4.4594
11
3.20895
21
-4.459
0
LINE
8
BLACK
6
CONTINUOUS
10
3.20895
20
-4.459
11
3.20887
21
-4.45878
0
LINE
8
BLACK
6
CONTINUOUS
10
3.20887
20
-4.45878
11
3.20869
21
-4.45863
0
LINE
8
BLACK
6
CONTINUOUS
10
3.20869
20
-4.45863
11
3.20853
21
-4.45785
0
LINE
8
BLACK
6
CONTINUOUS
10
3.20853
20
-4.45785
11
3.20826
21
-4.45711
0
LINE
8
BLACK
6
CONTINUOUS
10
3.20826
20
-4.45711
11
3.20826
21
-4.43273
0
LINE
8
BLACK
6
CONTINUOUS
10
3.20826
20
-4.43273
11
3.20844
21
-4.43172
0
LINE
8
BLACK
6
CONTINUOUS
10
3.20844
20
-4.43172
11
3.20974
21
-4.43018
0
LINE
8
BLACK
6
CONTINUOUS
10
3.20974
20
-4.43018
11
3.21173
21
-4.42983
0
LINE
8
BLACK
6
CONTINUOUS
10
3.21173
20
-4.42983
11
3.21348
21
-4.43084
0
LINE
8
BLACK
6
CONTINUOUS
10
3.21348
20
-4.43084
11
3.21417
21
-4.43273
0
LINE
8
BLACK
6
CONTINUOUS
10
3.21417
20
-4.43273
11
3.21417
21
-4.4506
0
LINE
8
BLACK
6
CONTINUOUS
10
3.21417
20
-4.4506
11
3.22427
21
-4.44176
0
LINE
8
BLACK
6
CONTINUOUS
10
3.22427
20
-4.44176
11
3.22465
21
-4.44153
0
LINE
8
BLACK
6
CONTINUOUS
10
3.22465
20
-4.44153
11
3.22474
21
-4.44142
0
LINE
8
BLACK
6
CONTINUOUS
10
3.22474
20
-4.44142
11
3.22486
21
-4.4414
0
LINE
8
BLACK
6
CONTINUOUS
10
3.22486
20
-4.4414
11
3.22514
21
-4.44123
0
LINE
8
BLACK
6
CONTINUOUS
10
3.22514
20
-4.44123
11
3.22594
21
-4.44121
0
LINE
8
BLACK
6
CONTINUOUS
10
3.22594
20
-4.44121
11
3.22672
21
-4.44107
0
LINE
8
BLACK
6
CONTINUOUS
10
3.22672
20
-4.44107
11
3.22693
21
-4.44119
0
LINE
8
BLACK
6
CONTINUOUS
10
3.22693
20
-4.44119
11
3.22716
21
-4.44119
0
LINE
8
BLACK
6
CONTINUOUS
10
3.22716
20
-4.44119
11
3.22778
21
-4.44169
0
LINE
8
BLACK
6
CONTINUOUS
10
3.22778
20
-4.44169
11
3.22847
21
-4.44208
0
LINE
8
BLACK
6
CONTINUOUS
10
3.22847
20
-4.44208
11
3.22855
21
-4.44231
0
LINE
8
BLACK
6
CONTINUOUS
10
3.22855
20
-4.44231
11
3.22874
21
-4.44245
0
LINE
8
BLACK
6
CONTINUOUS
10
3.22874
20
-4.44245
11
3.22889
21
-4.44323
0
LINE
8
BLACK
6
CONTINUOUS
10
3.22889
20
-4.44323
11
3.22916
21
-4.44398
0
LINE
8
BLACK
6
CONTINUOUS
10
3.22916
20
-4.44398
11
3.22916
21
-4.44891
0
LINE
8
BLACK
6
CONTINUOUS
10
3.22916
20
-4.44891
11
3.23051
21
-4.45161
0
LINE
8
BLACK
6
CONTINUOUS
10
3.23051
20
-4.45161
11
3.23171
21
-4.4528
0
LINE
8
BLACK
6
CONTINUOUS
10
3.23171
20
-4.4528
11
3.23441
21
-4.45415
0
LINE
8
BLACK
6
CONTINUOUS
10
3.23441
20
-4.45415
11
3.24239
21
-4.45415
0
LINE
8
BLACK
6
CONTINUOUS
10
3.24239
20
-4.45415
11
3.24508
21
-4.4528
0
LINE
8
BLACK
6
CONTINUOUS
10
3.24508
20
-4.4528
11
3.24628
21
-4.45161
0
LINE
8
BLACK
6
CONTINUOUS
10
3.24628
20
-4.45161
11
3.24763
21
-4.44891
0
LINE
8
BLACK
6
CONTINUOUS
10
3.24763
20
-4.44891
11
3.24763
21
-4.43905
0
LINE
8
BLACK
6
CONTINUOUS
10
3.24763
20
-4.43905
11
3.24628
21
-4.43636
0
LINE
8
BLACK
6
CONTINUOUS
10
3.24628
20
-4.43636
11
3.24475
21
-4.43482
0
LINE
8
BLACK
6
CONTINUOUS
10
3.24475
20
-4.43482
11
3.24416
21
-4.43398
0
LINE
8
BLACK
6
CONTINUOUS
10
3.24416
20
-4.43398
11
3.24398
21
-4.43197
0
LINE
8
BLACK
6
CONTINUOUS
10
3.24398
20
-4.43197
11
3.24514
21
-4.43031
0
LINE
8
BLACK
6
CONTINUOUS
10
3.24514
20
-4.43031
11
3.24709
21
-4.42979
0
LINE
8
BLACK
6
CONTINUOUS
10
3.24709
20
-4.42979
11
3.24892
21
-4.43065
0
LINE
8
BLACK
6
CONTINUOUS
10
3.25285
20
-4.40084
11
3.25354
21
-4.40274
0
LINE
8
BLACK
6
CONTINUOUS
10
3.25354
20
-4.40274
11
3.25354
21
-4.40649
0
LINE
8
BLACK
6
CONTINUOUS
10
3.25354
20
-4.40649
11
3.25338
21
-4.40736
0
LINE
8
BLACK
6
CONTINUOUS
10
3.25338
20
-4.40736
11
3.25338
21
-4.40742
0
LINE
8
BLACK
6
CONTINUOUS
10
3.25338
20
-4.40742
11
3.25151
21
-4.41304
0
LINE
8
BLACK
6
CONTINUOUS
10
3.25151
20
-4.41304
11
3.25102
21
-4.41395
0
LINE
8
BLACK
6
CONTINUOUS
10
3.25102
20
-4.41395
11
3.25087
21
-4.41404
0
LINE
8
BLACK
6
CONTINUOUS
10
3.25087
20
-4.41404
11
3.2508
21
-4.4142
0
LINE
8
BLACK
6
CONTINUOUS
10
3.2508
20
-4.4142
11
3.24705
21
-4.41795
0
LINE
8
BLACK
6
CONTINUOUS
10
3.24705
20
-4.41795
11
3.24621
21
-4.41854
0
LINE
8
BLACK
6
CONTINUOUS
10
3.24621
20
-4.41854
11
3.24603
21
-4.41855
0
LINE
8
BLACK
6
CONTINUOUS
10
3.24603
20
-4.41855
11
3.24589
21
-4.41866
0
LINE
8
BLACK
6
CONTINUOUS
10
3.24589
20
-4.41866
11
3.24027
21
-4.42054
0
LINE
8
BLACK
6
CONTINUOUS
10
3.24027
20
-4.42054
11
3.2394
21
-4.42067
0
LINE
8
BLACK
6
CONTINUOUS
10
3.2394
20
-4.42067
11
3.23933
21
-4.42069
0
LINE
8
BLACK
6
CONTINUOUS
10
3.23933
20
-4.42069
11
3.21121
21
-4.42069
0
LINE
8
BLACK
6
CONTINUOUS
10
3.21121
20
-4.42069
11
3.2102
21
-4.42051
0
LINE
8
BLACK
6
CONTINUOUS
10
3.2102
20
-4.42051
11
3.20866
21
-4.41921
0
LINE
8
BLACK
6
CONTINUOUS
10
3.20866
20
-4.41921
11
3.20831
21
-4.41722
0
LINE
8
BLACK
6
CONTINUOUS
10
3.20831
20
-4.41722
11
3.20932
21
-4.41547
0
LINE
8
BLACK
6
CONTINUOUS
10
3.20932
20
-4.41547
11
3.21121
21
-4.41478
0
LINE
8
BLACK
6
CONTINUOUS
10
3.21121
20
-4.41478
11
3.23886
21
-4.41478
0
LINE
8
BLACK
6
CONTINUOUS
10
3.23886
20
-4.41478
11
3.24336
21
-4.41328
0
LINE
8
BLACK
6
CONTINUOUS
10
3.24336
20
-4.41328
11
3.24613
21
-4.41052
0
LINE
8
BLACK
6
CONTINUOUS
10
3.24613
20
-4.41052
11
3.24763
21
-4.40601
0
LINE
8
BLACK
6
CONTINUOUS
10
3.24763
20
-4.40601
11
3.24763
21
-4.40274
0
LINE
8
BLACK
6
CONTINUOUS
10
3.24763
20
-4.40274
11
3.24781
21
-4.40173
0
LINE
8
BLACK
6
CONTINUOUS
10
3.24781
20
-4.40173
11
3.24911
21
-4.40018
0
LINE
8
BLACK
6
CONTINUOUS
10
3.24911
20
-4.40018
11
3.2511
21
-4.39983
0
LINE
8
BLACK
6
CONTINUOUS
10
3.2511
20
-4.39983
11
3.25285
21
-4.40084
0
LINE
8
BLACK
6
CONTINUOUS
10
3.22422
20
-4.36973
11
3.22533
21
-4.37142
0
LINE
8
BLACK
6
CONTINUOUS
10
3.22533
20
-4.37142
11
3.2251
21
-4.37342
0
LINE
8
BLACK
6
CONTINUOUS
10
3.2251
20
-4.37342
11
3.22323
21
-4.37717
0
LINE
8
BLACK
6
CONTINUOUS
10
3.22323
20
-4.37717
11
3.2227
21
-4.37788
0
LINE
8
BLACK
6
CONTINUOUS
10
3.2227
20
-4.37788
11
3.22268
21
-4.37794
0
LINE
8
BLACK
6
CONTINUOUS
10
3.22268
20
-4.37794
11
3.22022
21
-4.3804
0
LINE
8
BLACK
6
CONTINUOUS
10
3.22022
20
-4.3804
11
3.24763
21
-4.3804
0
LINE
8
BLACK
6
CONTINUOUS
10
3.24763
20
-4.3804
11
3.24763
21
-4.3721
0
LINE
8
BLACK
6
CONTINUOUS
10
3.24763
20
-4.3721
11
3.24781
21
-4.37109
0
LINE
8
BLACK
6
CONTINUOUS
10
3.24781
20
-4.37109
11
3.24911
21
-4.36955
0
LINE
8
BLACK
6
CONTINUOUS
10
3.24911
20
-4.36955
11
3.2511
21
-4.3692
0
LINE
8
BLACK
6
CONTINUOUS
10
3.2511
20
-4.3692
11
3.25285
21
-4.37021
0
LINE
8
BLACK
6
CONTINUOUS
10
3.25285
20
-4.37021
11
3.25354
21
-4.3721
0
LINE
8
BLACK
6
CONTINUOUS
10
3.25354
20
-4.3721
11
3.25354
21
-4.3946
0
LINE
8
BLACK
6
CONTINUOUS
10
3.25354
20
-4.3946
11
3.25336
21
-4.39561
0
LINE
8
BLACK
6
CONTINUOUS
10
3.25336
20
-4.39561
11
3.25206
21
-4.39716
0
LINE
8
BLACK
6
CONTINUOUS
10
3.25206
20
-4.39716
11
3.25007
21
-4.39751
0
LINE
8
BLACK
6
CONTINUOUS
10
3.25007
20
-4.39751
11
3.24832
21
-4.3965
0
LINE
8
BLACK
6
CONTINUOUS
10
3.24832
20
-4.3965
11
3.24763
21
-4.3946
0
LINE
8
BLACK
6
CONTINUOUS
10
3.24763
20
-4.3946
11
3.24763
21
-4.3863
0
LINE
8
BLACK
6
CONTINUOUS
10
3.24763
20
-4.3863
11
3.21121
21
-4.3863
0
LINE
8
BLACK
6
CONTINUOUS
10
3.21121
20
-4.3863
11
3.2102
21
-4.38613
0
LINE
8
BLACK
6
CONTINUOUS
10
3.2102
20
-4.38613
11
3.21007
21
-4.38602
0
LINE
8
BLACK
6
CONTINUOUS
10
3.21007
20
-4.38602
11
3.2099
21
-4.386
0
LINE
8
BLACK
6
CONTINUOUS
10
3.2099
20
-4.386
11
3.20931
21
-4.38538
0
LINE
8
BLACK
6
CONTINUOUS
10
3.20931
20
-4.38538
11
3.20866
21
-4.38483
0
LINE
8
BLACK
6
CONTINUOUS
10
3.20866
20
-4.38483
11
3.20863
21
-4.38466
0
LINE
8
BLACK
6
CONTINUOUS
10
3.20863
20
-4.38466
11
3.20851
21
-4.38454
0
LINE
8
BLACK
6
CONTINUOUS
10
3.20851
20
-4.38454
11
3.20845
21
-4.38368
0
LINE
8
BLACK
6
CONTINUOUS
10
3.20845
20
-4.38368
11
3.20831
21
-4.38284
0
LINE
8
BLACK
6
CONTINUOUS
10
3.20831
20
-4.38284
11
3.20839
21
-4.38269
0
LINE
8
BLACK
6
CONTINUOUS
10
3.20839
20
-4.38269
11
3.20838
21
-4.38252
0
LINE
8
BLACK
6
CONTINUOUS
10
3.20838
20
-4.38252
11
3.20889
21
-4.38183
0
LINE
8
BLACK
6
CONTINUOUS
10
3.20889
20
-4.38183
11
3.20932
21
-4.38109
0
LINE
8
BLACK
6
CONTINUOUS
10
3.20932
20
-4.38109
11
3.20947
21
-4.38103
0
LINE
8
BLACK
6
CONTINUOUS
10
3.20947
20
-4.38103
11
3.20958
21
-4.3809
0
LINE
8
BLACK
6
CONTINUOUS
10
3.20958
20
-4.3809
11
3.21496
21
-4.37731
0
LINE
8
BLACK
6
CONTINUOUS
10
3.21496
20
-4.37731
11
3.21816
21
-4.3741
0
LINE
8
BLACK
6
CONTINUOUS
10
3.21816
20
-4.3741
11
3.21982
21
-4.37078
0
LINE
8
BLACK
6
CONTINUOUS
10
3.21982
20
-4.37078
11
3.22043
21
-4.36996
0
LINE
8
BLACK
6
CONTINUOUS
10
3.22043
20
-4.36996
11
3.22228
21
-4.36916
0
LINE
8
BLACK
6
CONTINUOUS
10
3.22228
20
-4.36916
11
3.22422
21
-4.36973
0
LINE
8
BLACK
6
CONTINUOUS
10
3.24892
20
-4.33065
11
3.2508
21
-4.33252
0
LINE
8
BLACK
6
CONTINUOUS
10
3.2508
20
-4.33252
11
3.2513
21
-4.33324
0
LINE
8
BLACK
6
CONTINUOUS
10
3.2513
20
-4.33324
11
3.25135
21
-4.33329
0
LINE
8
BLACK
6
CONTINUOUS
10
3.25135
20
-4.33329
11
3.25322
21
-4.33704
0
LINE
8
BLACK
6
CONTINUOUS
10
3.25322
20
-4.33704
11
3.25352
21
-4.33802
0
LINE
8
BLACK
6
CONTINUOUS
10
3.25352
20
-4.33802
11
3.25348
21
-4.33819
0
LINE
8
BLACK
6
CONTINUOUS
10
3.25348
20
-4.33819
11
3.25354
21
-4.33836
0
LINE
8
BLACK
6
CONTINUOUS
10
3.25354
20
-4.33836
11
3.25354
21
-4.34961
0
LINE
8
BLACK
6
CONTINUOUS
10
3.25354
20
-4.34961
11
3.25336
21
-4.35062
0
LINE
8
BLACK
6
CONTINUOUS
10
3.25336
20
-4.35062
11
3.25324
21
-4.35075
0
LINE
8
BLACK
6
CONTINUOUS
10
3.25324
20
-4.35075
11
3.25322
21
-4.35093
0
LINE
8
BLACK
6
CONTINUOUS
10
3.25322
20
-4.35093
11
3.25135
21
-4.35468
0
LINE
8
BLACK
6
CONTINUOUS
10
3.25135
20
-4.35468
11
3.25082
21
-4.35539
0
LINE
8
BLACK
6
CONTINUOUS
10
3.25082
20
-4.35539
11
3.2508
21
-4.35544
0
LINE
8
BLACK
6
CONTINUOUS
10
3.2508
20
-4.35544
11
3.24892
21
-4.35732
0
LINE
8
BLACK
6
CONTINUOUS
10
3.24892
20
-4.35732
11
3.2482
21
-4.35782
0
LINE
8
BLACK
6
CONTINUOUS
10
3.2482
20
-4.35782
11
3.24815
21
-4.35787
0
LINE
8
BLACK
6
CONTINUOUS
10
3.24815
20
-4.35787
11
3.2444
21
-4.35975
0
LINE
8
BLACK
6
CONTINUOUS
10
3.2444
20
-4.35975
11
3.24342
21
-4.36004
0
LINE
8
BLACK
6
CONTINUOUS
10
3.24342
20
-4.36004
11
3.24325
21
-4.36
0
LINE
8
BLACK
6
CONTINUOUS
10
3.24325
20
-4.36
11
3.24308
21
-4.36006
0
LINE
8
BLACK
6
CONTINUOUS
10
3.24308
20
-4.36006
11
3.23371
21
-4.36006
0
LINE
8
BLACK
6
CONTINUOUS
10
3.23371
20
-4.36006
11
3.2327
21
-4.35988
0
LINE
8
BLACK
6
CONTINUOUS
10
3.2327
20
-4.35988
11
3.23257
21
-4.35977
0
LINE
8
BLACK
6
CONTINUOUS
10
3.23257
20
-4.35977
11
3.23239
21
-4.35975
0
LINE
8
BLACK
6
CONTINUOUS
10
3.23239
20
-4.35975
11
3.22864
21
-4.35787
0
LINE
8
BLACK
6
CONTINUOUS
10
3.22864
20
-4.35787
11
3.22793
21
-4.35735
0
LINE
8
BLACK
6
CONTINUOUS
10
3.22793
20
-4.35735
11
3.22787
21
-4.35732
0
LINE
8
BLACK
6
CONTINUOUS
10
3.22787
20
-4.35732
11
3.226
21
-4.35544
0
LINE
8
BLACK
6
CONTINUOUS
10
3.226
20
-4.35544
11
3.22549
21
-4.35472
0
LINE
8
BLACK
6
CONTINUOUS
10
3.22549
20
-4.35472
11
3.22545
21
-4.35468
0
LINE
8
BLACK
6
CONTINUOUS
10
3.22545
20
-4.35468
11
3.22357
21
-4.35093
0
LINE
8
BLACK
6
CONTINUOUS
10
3.22357
20
-4.35093
11
3.2234
21
-4.35036
0
LINE
8
BLACK
6
CONTINUOUS
10
3.2234
20
-4.35036
11
3.21316
21
-4.35933
0
LINE
8
BLACK
6
CONTINUOUS
10
3.21316
20
-4.35933
11
3.21278
21
-4.35956
0
LINE
8
BLACK
6
CONTINUOUS
10
3.21278
20
-4.35956
11
3.21269
21
-4.35966
0
LINE
8
BLACK
6
CONTINUOUS
10
3.21269
20
-4.35966
11
3.21257
21
-4.35968
0
LINE
8
BLACK
6
CONTINUOUS
10
3.21257
20
-4.35968
11
3.21228
21
-4.35986
0
LINE
8
BLACK
6
CONTINUOUS
10
3.21228
20
-4.35986
11
3.21148
21
-4.35987
0
LINE
8
BLACK
6
CONTINUOUS
10
3.21148
20
-4.35987
11
3.2107
21
-4.36001
0
LINE
8
BLACK
6
CONTINUOUS
10
3.2107
20
-4.36001
11
3.2105
21
-4.3599
0
LINE
8
BLACK
6
CONTINUOUS
10
3.2105
20
-4.3599
11
3.21026
21
-4.3599
0
LINE
8
BLACK
6
CONTINUOUS
10
3.21026
20
-4.3599
11
3.20964
21
-4.3594
0
LINE
8
BLACK
6
CONTINUOUS
10
3.20964
20
-4.3594
11
3.20895
21
-4.359
0
LINE
8
BLACK
6
CONTINUOUS
10
3.20895
20
-4.359
11
3.20887
21
-4.35878
0
LINE
8
BLACK
6
CONTINUOUS
10
3.20887
20
-4.35878
11
3.20869
21
-4.35863
0
LINE
8
BLACK
6
CONTINUOUS
10
3.20869
20
-4.35863
11
3.20853
21
-4.35785
0
LINE
8
BLACK
6
CONTINUOUS
10
3.20853
20
-4.35785
11
3.20826
21
-4.35711
0
LINE
8
BLACK
6
CONTINUOUS
10
3.20826
20
-4.35711
11
3.20826
21
-4.33273
0
LINE
8
BLACK
6
CONTINUOUS
10
3.20826
20
-4.33273
11
3.20844
21
-4.33172
0
LINE
8
BLACK
6
CONTINUOUS
10
3.20844
20
-4.33172
11
3.20974
21
-4.33018
0
LINE
8
BLACK
6
CONTINUOUS
10
3.20974
20
-4.33018
11
3.21173
21
-4.32983
0
LINE
8
BLACK
6
CONTINUOUS
10
3.21173
20
-4.32983
11
3.21348
21
-4.33084
0
LINE
8
BLACK
6
CONTINUOUS
10
3.21348
20
-4.33084
11
3.21417
21
-4.33273
0
LINE
8
BLACK
6
CONTINUOUS
10
3.21417
20
-4.33273
11
3.21417
21
-4.3506
0
LINE
8
BLACK
6
CONTINUOUS
10
3.21417
20
-4.3506
11
3.22427
21
-4.34176
0
LINE
8
BLACK
6
CONTINUOUS
10
3.22427
20
-4.34176
11
3.22465
21
-4.34153
0
LINE
8
BLACK
6
CONTINUOUS
10
3.22465
20
-4.34153
11
3.22474
21
-4.34142
0
LINE
8
BLACK
6
CONTINUOUS
10
3.22474
20
-4.34142
11
3.22486
21
-4.3414
0
LINE
8
BLACK
6
CONTINUOUS
10
3.22486
20
-4.3414
11
3.22514
21
-4.34123
0
LINE
8
BLACK
6
CONTINUOUS
10
3.22514
20
-4.34123
11
3.22594
21
-4.34121
0
LINE
8
BLACK
6
CONTINUOUS
10
3.22594
20
-4.34121
11
3.22672
21
-4.34107
0
LINE
8
BLACK
6
CONTINUOUS
10
3.22672
20
-4.34107
11
3.22693
21
-4.34119
0
LINE
8
BLACK
6
CONTINUOUS
10
3.22693
20
-4.34119
11
3.22716
21
-4.34119
0
LINE
8
BLACK
6
CONTINUOUS
10
3.22716
20
-4.34119
11
3.22778
21
-4.34169
0
LINE
8
BLACK
6
CONTINUOUS
10
3.22778
20
-4.34169
11
3.22847
21
-4.34208
0
LINE
8
BLACK
6
CONTINUOUS
10
3.22847
20
-4.34208
11
3.22855
21
-4.34231
0
LINE
8
BLACK
6
CONTINUOUS
10
3.22855
20
-4.34231
11
3.22874
21
-4.34245
0
LINE
8
BLACK
6
CONTINUOUS
10
3.22874
20
-4.34245
11
3.22889
21
-4.34323
0
LINE
8
BLACK
6
CONTINUOUS
10
3.22889
20
-4.34323
11
3.22916
21
-4.34398
0
LINE
8
BLACK
6
CONTINUOUS
10
3.22916
20
-4.34398
11
3.22916
21
-4.34891
0
LINE
8
BLACK
6
CONTINUOUS
10
3.22916
20
-4.34891
11
3.23051
21
-4.35161
0
LINE
8
BLACK
6
CONTINUOUS
10
3.23051
20
-4.35161
11
3.23171
21
-4.3528
0
LINE
8
BLACK
6
CONTINUOUS
10
3.23171
20
-4.3528
11
3.23441
21
-4.35415
0
LINE
8
BLACK
6
CONTINUOUS
10
3.23441
20
-4.35415
11
3.24239
21
-4.35415
0
LINE
8
BLACK
6
CONTINUOUS
10
3.24239
20
-4.35415
11
3.24508
21
-4.3528
0
LINE
8
BLACK
6
CONTINUOUS
10
3.24508
20
-4.3528
11
3.24628
21
-4.35161
0
LINE
8
BLACK
6
CONTINUOUS
10
3.24628
20
-4.35161
11
3.24763
21
-4.34891
0
LINE
8
BLACK
6
CONTINUOUS
10
3.24763
20
-4.34891
11
3.24763
21
-4.33905
0
LINE
8
BLACK
6
CONTINUOUS
10
3.24763
20
-4.33905
11
3.24628
21
-4.33636
0
LINE
8
BLACK
6
CONTINUOUS
10
3.24628
20
-4.33636
11
3.24475
21
-4.33482
0
LINE
8
BLACK
6
CONTINUOUS
10
3.24475
20
-4.33482
11
3.24416
21
-4.33398
0
LINE
8
BLACK
6
CONTINUOUS
10
3.24416
20
-4.33398
11
3.24398
21
-4.33197
0
LINE
8
BLACK
6
CONTINUOUS
10
3.24398
20
-4.33197
11
3.24514
21
-4.33031
0
LINE
8
BLACK
6
CONTINUOUS
10
3.24514
20
-4.33031
11
3.24709
21
-4.32979
0
LINE
8
BLACK
6
CONTINUOUS
10
3.24709
20
-4.32979
11
3.24892
21
-4.33065
0
LINE
8
BLACK
6
CONTINUOUS
10
3.25285
20
-4.30084
11
3.25354
21
-4.30274
0
LINE
8
BLACK
6
CONTINUOUS
10
3.25354
20
-4.30274
11
3.25354
21
-4.30649
0
LINE
8
BLACK
6
CONTINUOUS
10
3.25354
20
-4.30649
11
3.25338
21
-4.30736
0
LINE
8
BLACK
6
CONTINUOUS
10
3.25338
20
-4.30736
11
3.25338
21
-4.30742
0
LINE
8
BLACK
6
CONTINUOUS
10
3.25338
20
-4.30742
11
3.25151
21
-4.31304
0
LINE
8
BLACK
6
CONTINUOUS
10
3.25151
20
-4.31304
11
3.25102
21
-4.31395
0
LINE
8
BLACK
6
CONTINUOUS
10
3.25102
20
-4.31395
11
3.25087
21
-4.31404
0
LINE
8
BLACK
6
CONTINUOUS
10
3.25087
20
-4.31404
11
3.2508
21
-4.3142
0
LINE
8
BLACK
6
CONTINUOUS
10
3.2508
20
-4.3142
11
3.24705
21
-4.31795
0
LINE
8
BLACK
6
CONTINUOUS
10
3.24705
20
-4.31795
11
3.24621
21
-4.31854
0
LINE
8
BLACK
6
CONTINUOUS
10
3.24621
20
-4.31854
11
3.24603
21
-4.31855
0
LINE
8
BLACK
6
CONTINUOUS
10
3.24603
20
-4.31855
11
3.24589
21
-4.31866
0
LINE
8
BLACK
6
CONTINUOUS
10
3.24589
20
-4.31866
11
3.24027
21
-4.32054
0
LINE
8
BLACK
6
CONTINUOUS
10
3.24027
20
-4.32054
11
3.2394
21
-4.32067
0
LINE
8
BLACK
6
CONTINUOUS
10
3.2394
20
-4.32067
11
3.23933
21
-4.32069
0
LINE
8
BLACK
6
CONTINUOUS
10
3.23933
20
-4.32069
11
3.21121
21
-4.32069
0
LINE
8
BLACK
6
CONTINUOUS
10
3.21121
20
-4.32069
11
3.2102
21
-4.32051
0
LINE
8
BLACK
6
CONTINUOUS
10
3.2102
20
-4.32051
11
3.20866
21
-4.31921
0
LINE
8
BLACK
6
CONTINUOUS
10
3.20866
20
-4.31921
11
3.20831
21
-4.31722
0
LINE
8
BLACK
6
CONTINUOUS
10
3.20831
20
-4.31722
11
3.20932
21
-4.31547
0
LINE
8
BLACK
6
CONTINUOUS
10
3.20932
20
-4.31547
11
3.21121
21
-4.31478
0
LINE
8
BLACK
6
CONTINUOUS
10
3.21121
20
-4.31478
11
3.23886
21
-4.31478
0
LINE
8
BLACK
6
CONTINUOUS
10
3.23886
20
-4.31478
11
3.24336
21
-4.31328
0
LINE
8
BLACK
6
CONTINUOUS
10
3.24336
20
-4.31328
11
3.24613
21
-4.31052
0
LINE
8
BLACK
6
CONTINUOUS
10
3.24613
20
-4.31052
11
3.24763
21
-4.30601
0
LINE
8
BLACK
6
CONTINUOUS
10
3.24763
20
-4.30601
11
3.24763
21
-4.30274
0
LINE
8
BLACK
6
CONTINUOUS
10
3.24763
20
-4.30274
11
3.24781
21
-4.30173
0
LINE
8
BLACK
6
CONTINUOUS
10
3.24781
20
-4.30173
11
3.24911
21
-4.30018
0
LINE
8
BLACK
6
CONTINUOUS
10
3.24911
20
-4.30018
11
3.2511
21
-4.29983
0
LINE
8
BLACK
6
CONTINUOUS
10
3.2511
20
-4.29983
11
3.25285
21
-4.30084
0
LINE
8
BLACK
6
CONTINUOUS
10
3.25121
20
-4.26739
11
3.25135
21
-4.26738
0
LINE
8
BLACK
6
CONTINUOUS
10
3.25135
20
-4.26738
11
3.25208
21
-4.26789
0
LINE
8
BLACK
6
CONTINUOUS
10
3.25208
20
-4.26789
11
3.25285
21
-4.26833
0
LINE
8
BLACK
6
CONTINUOUS
10
3.25285
20
-4.26833
11
3.25289
21
-4.26846
0
LINE
8
BLACK
6
CONTINUOUS
10
3.25289
20
-4.26846
11
3.253
21
-4.26854
0
LINE
8
BLACK
6
CONTINUOUS
10
3.253
20
-4.26854
11
3.25323
21
-4.26939
0
LINE
8
BLACK
6
CONTINUOUS
10
3.25323
20
-4.26939
11
3.25354
21
-4.27023
0
LINE
8
BLACK
6
CONTINUOUS
10
3.25354
20
-4.27023
11
3.25354
21
-4.2946
0
LINE
8
BLACK
6
CONTINUOUS
10
3.25354
20
-4.2946
11
3.25336
21
-4.29561
0
LINE
8
BLACK
6
CONTINUOUS
10
3.25336
20
-4.29561
11
3.25206
21
-4.29716
0
LINE
8
BLACK
6
CONTINUOUS
10
3.25206
20
-4.29716
11
3.25007
21
-4.29751
0
LINE
8
BLACK
6
CONTINUOUS
10
3.25007
20
-4.29751
11
3.24832
21
-4.2965
0
LINE
8
BLACK
6
CONTINUOUS
10
3.24832
20
-4.2965
11
3.24763
21
-4.2946
0
LINE
8
BLACK
6
CONTINUOUS
10
3.24763
20
-4.2946
11
3.24763
21
-4.27736
0
LINE
8
BLACK
6
CONTINUOUS
10
3.24763
20
-4.27736
11
3.23017
21
-4.29481
0
LINE
8
BLACK
6
CONTINUOUS
10
3.23017
20
-4.29481
11
3.22933
21
-4.2954
0
LINE
8
BLACK
6
CONTINUOUS
10
3.22933
20
-4.2954
11
3.22916
21
-4.29542
0
LINE
8
BLACK
6
CONTINUOUS
10
3.22916
20
-4.29542
11
3.22902
21
-4.29553
0
LINE
8
BLACK
6
CONTINUOUS
10
3.22902
20
-4.29553
11
3.2234
21
-4.2974
0
LINE
8
BLACK
6
CONTINUOUS
10
3.2234
20
-4.2974
11
3.22252
21
-4.29753
0
LINE
8
BLACK
6
CONTINUOUS
10
3.22252
20
-4.29753
11
3.22246
21
-4.29755
0
LINE
8
BLACK
6
CONTINUOUS
10
3.22246
20
-4.29755
11
3.21871
21
-4.29755
0
LINE
8
BLACK
6
CONTINUOUS
10
3.21871
20
-4.29755
11
3.2177
21
-4.29738
0
LINE
8
BLACK
6
CONTINUOUS
10
3.2177
20
-4.29738
11
3.21757
21
-4.29726
0
LINE
8
BLACK
6
CONTINUOUS
10
3.21757
20
-4.29726
11
3.21739
21
-4.29724
0
LINE
8
BLACK
6
CONTINUOUS
10
3.21739
20
-4.29724
11
3.21364
21
-4.29537
0
LINE
8
BLACK
6
CONTINUOUS
10
3.21364
20
-4.29537
11
3.21293
21
-4.29484
0
LINE
8
BLACK
6
CONTINUOUS
10
3.21293
20
-4.29484
11
3.21287
21
-4.29481
0
LINE
8
BLACK
6
CONTINUOUS
10
3.21287
20
-4.29481
11
3.211
21
-4.29294
0
LINE
8
BLACK
6
CONTINUOUS
10
3.211
20
-4.29294
11
3.21049
21
-4.29222
0
LINE
8
BLACK
6
CONTINUOUS
10
3.21049
20
-4.29222
11
3.21045
21
-4.29217
0
LINE
8
BLACK
6
CONTINUOUS
10
3.21045
20
-4.29217
11
3.20857
21
-4.28842
0
LINE
8
BLACK
6
CONTINUOUS
10
3.20857
20
-4.28842
11
3.20828
21
-4.28744
0
LINE
8
BLACK
6
CONTINUOUS
10
3.20828
20
-4.28744
11
3.20832
21
-4.28727
0
LINE
8
BLACK
6
CONTINUOUS
10
3.20832
20
-4.28727
11
3.20826
21
-4.2871
0
LINE
8
BLACK
6
CONTINUOUS
10
3.20826
20
-4.2871
11
3.20826
21
-4.27773
0
LINE
8
BLACK
6
CONTINUOUS
10
3.20826
20
-4.27773
11
3.20844
21
-4.27672
0
LINE
8
BLACK
6
CONTINUOUS
10
3.20844
20
-4.27672
11
3.20855
21
-4.27658
0
LINE
8
BLACK
6
CONTINUOUS
10
3.20855
20
-4.27658
11
3.20857
21
-4.27641
0
LINE
8
BLACK
6
CONTINUOUS
10
3.20857
20
-4.27641
11
3.21045
21
-4.27266
0
LINE
8
BLACK
6
CONTINUOUS
10
3.21045
20
-4.27266
11
3.21097
21
-4.27195
0
LINE
8
BLACK
6
CONTINUOUS
10
3.21097
20
-4.27195
11
3.211
21
-4.27189
0
LINE
8
BLACK
6
CONTINUOUS
10
3.211
20
-4.27189
11
3.21287
21
-4.27002
0
LINE
8
BLACK
6
CONTINUOUS
10
3.21287
20
-4.27002
11
3.21372
21
-4.26943
0
LINE
8
BLACK
6
CONTINUOUS
10
3.21372
20
-4.26943
11
3.21573
21
-4.26925
0
LINE
8
BLACK
6
CONTINUOUS
10
3.21573
20
-4.26925
11
3.21738
21
-4.27041
0
LINE
8
BLACK
6
CONTINUOUS
10
3.21738
20
-4.27041
11
3.2179
21
-4.27236
0
LINE
8
BLACK
6
CONTINUOUS
10
3.2179
20
-4.27236
11
3.21705
21
-4.27419
0
LINE
8
BLACK
6
CONTINUOUS
10
3.21705
20
-4.27419
11
3.21551
21
-4.27573
0
LINE
8
BLACK
6
CONTINUOUS
10
3.21551
20
-4.27573
11
3.21417
21
-4.27842
0
LINE
8
BLACK
6
CONTINUOUS
10
3.21417
20
-4.27842
11
3.21417
21
-4.2864
0
LINE
8
BLACK
6
CONTINUOUS
10
3.21417
20
-4.2864
11
3.21551
21
-4.2891
0
LINE
8
BLACK
6
CONTINUOUS
10
3.21551
20
-4.2891
11
3.21671
21
-4.2903
0
LINE
8
BLACK
6
CONTINUOUS
10
3.21671
20
-4.2903
11
3.21941
21
-4.29165
0
LINE
8
BLACK
6
CONTINUOUS
10
3.21941
20
-4.29165
11
3.22198
21
-4.29165
0
LINE
8
BLACK
6
CONTINUOUS
10
3.22198
20
-4.29165
11
3.22649
21
-4.29015
0
LINE
8
BLACK
6
CONTINUOUS
10
3.22649
20
-4.29015
11
3.2485
21
-4.26814
0
LINE
8
BLACK
6
CONTINUOUS
10
3.2485
20
-4.26814
11
3.24902
21
-4.26777
0
LINE
8
BLACK
6
CONTINUOUS
10
3.24902
20
-4.26777
11
3.24911
21
-4.26767
0
LINE
8
BLACK
6
CONTINUOUS
10
3.24911
20
-4.26767
11
3.24919
21
-4.26766
0
LINE
8
BLACK
6
CONTINUOUS
10
3.24919
20
-4.26766
11
3.24934
21
-4.26755
0
LINE
8
BLACK
6
CONTINUOUS
10
3.24934
20
-4.26755
11
3.25022
21
-4.26748
0
LINE
8
BLACK
6
CONTINUOUS
10
3.25022
20
-4.26748
11
3.2511
21
-4.26732
0
LINE
8
BLACK
6
CONTINUOUS
10
3.2511
20
-4.26732
11
3.25121
21
-4.26739
0
LINE
8
BLACK
6
CONTINUOUS
10
3.24892
20
-4.23065
11
3.2508
21
-4.23252
0
LINE
8
BLACK
6
CONTINUOUS
10
3.2508
20
-4.23252
11
3.2513
21
-4.23324
0
LINE
8
BLACK
6
CONTINUOUS
10
3.2513
20
-4.23324
11
3.25135
21
-4.23329
0
LINE
8
BLACK
6
CONTINUOUS
10
3.25135
20
-4.23329
11
3.25322
21
-4.23704
0
LINE
8
BLACK
6
CONTINUOUS
10
3.25322
20
-4.23704
11
3.25352
21
-4.23802
0
LINE
8
BLACK
6
CONTINUOUS
10
3.25352
20
-4.23802
11
3.25348
21
-4.23819
0
LINE
8
BLACK
6
CONTINUOUS
10
3.25348
20
-4.23819
11
3.25354
21
-4.23836
0
LINE
8
BLACK
6
CONTINUOUS
10
3.25354
20
-4.23836
11
3.25354
21
-4.24961
0
LINE
8
BLACK
6
CONTINUOUS
10
3.25354
20
-4.24961
11
3.25336
21
-4.25062
0
LINE
8
BLACK
6
CONTINUOUS
10
3.25336
20
-4.25062
11
3.25324
21
-4.25075
0
LINE
8
BLACK
6
CONTINUOUS
10
3.25324
20
-4.25075
11
3.25322
21
-4.25093
0
LINE
8
BLACK
6
CONTINUOUS
10
3.25322
20
-4.25093
11
3.25135
21
-4.25468
0
LINE
8
BLACK
6
CONTINUOUS
10
3.25135
20
-4.25468
11
3.25082
21
-4.25539
0
LINE
8
BLACK
6
CONTINUOUS
10
3.25082
20
-4.25539
11
3.2508
21
-4.25544
0
LINE
8
BLACK
6
CONTINUOUS
10
3.2508
20
-4.25544
11
3.24892
21
-4.25732
0
LINE
8
BLACK
6
CONTINUOUS
10
3.24892
20
-4.25732
11
3.2482
21
-4.25782
0
LINE
8
BLACK
6
CONTINUOUS
10
3.2482
20
-4.25782
11
3.24815
21
-4.25787
0
LINE
8
BLACK
6
CONTINUOUS
10
3.24815
20
-4.25787
11
3.2444
21
-4.25975
0
LINE
8
BLACK
6
CONTINUOUS
10
3.2444
20
-4.25975
11
3.24342
21
-4.26004
0
LINE
8
BLACK
6
CONTINUOUS
10
3.24342
20
-4.26004
11
3.24325
21
-4.26
0
LINE
8
BLACK
6
CONTINUOUS
10
3.24325
20
-4.26
11
3.24308
21
-4.26006
0
LINE
8
BLACK
6
CONTINUOUS
10
3.24308
20
-4.26006
11
3.23371
21
-4.26006
0
LINE
8
BLACK
6
CONTINUOUS
10
3.23371
20
-4.26006
11
3.2327
21
-4.25988
0
LINE
8
BLACK
6
CONTINUOUS
10
3.2327
20
-4.25988
11
3.23257
21
-4.25977
0
LINE
8
BLACK
6
CONTINUOUS
10
3.23257
20
-4.25977
11
3.23239
21
-4.25975
0
LINE
8
BLACK
6
CONTINUOUS
10
3.23239
20
-4.25975
11
3.22864
21
-4.25787
0
LINE
8
BLACK
6
CONTINUOUS
10
3.22864
20
-4.25787
11
3.22793
21
-4.25735
0
LINE
8
BLACK
6
CONTINUOUS
10
3.22793
20
-4.25735
11
3.22787
21
-4.25732
0
LINE
8
BLACK
6
CONTINUOUS
10
3.22787
20
-4.25732
11
3.226
21
-4.25544
0
LINE
8
BLACK
6
CONTINUOUS
10
3.226
20
-4.25544
11
3.22549
21
-4.25472
0
LINE
8
BLACK
6
CONTINUOUS
10
3.22549
20
-4.25472
11
3.22545
21
-4.25468
0
LINE
8
BLACK
6
CONTINUOUS
10
3.22545
20
-4.25468
11
3.22357
21
-4.25093
0
LINE
8
BLACK
6
CONTINUOUS
10
3.22357
20
-4.25093
11
3.2234
21
-4.25036
0
LINE
8
BLACK
6
CONTINUOUS
10
3.2234
20
-4.25036
11
3.21316
21
-4.25933
0
LINE
8
BLACK
6
CONTINUOUS
10
3.21316
20
-4.25933
11
3.21278
21
-4.25956
0
LINE
8
BLACK
6
CONTINUOUS
10
3.21278
20
-4.25956
11
3.21269
21
-4.25966
0
LINE
8
BLACK
6
CONTINUOUS
10
3.21269
20
-4.25966
11
3.21257
21
-4.25968
0
LINE
8
BLACK
6
CONTINUOUS
10
3.21257
20
-4.25968
11
3.21228
21
-4.25986
0
LINE
8
BLACK
6
CONTINUOUS
10
3.21228
20
-4.25986
11
3.21148
21
-4.25988
0
LINE
8
BLACK
6
CONTINUOUS
10
3.21148
20
-4.25988
11
3.2107
21
-4.26001
0
LINE
8
BLACK
6
CONTINUOUS
10
3.2107
20
-4.26001
11
3.2105
21
-4.2599
0
LINE
8
BLACK
6
CONTINUOUS
10
3.2105
20
-4.2599
11
3.21026
21
-4.2599
0
LINE
8
BLACK
6
CONTINUOUS
10
3.21026
20
-4.2599
11
3.20964
21
-4.2594
0
LINE
8
BLACK
6
CONTINUOUS
10
3.20964
20
-4.2594
11
3.20895
21
-4.259
0
LINE
8
BLACK
6
CONTINUOUS
10
3.20895
20
-4.259
11
3.20887
21
-4.25878
0
LINE
8
BLACK
6
CONTINUOUS
10
3.20887
20
-4.25878
11
3.20869
21
-4.25863
0
LINE
8
BLACK
6
CONTINUOUS
10
3.20869
20
-4.25863
11
3.20853
21
-4.25785
0
LINE
8
BLACK
6
CONTINUOUS
10
3.20853
20
-4.25785
11
3.20826
21
-4.25711
0
LINE
8
BLACK
6
CONTINUOUS
10
3.20826
20
-4.25711
11
3.20826
21
-4.23273
0
LINE
8
BLACK
6
CONTINUOUS
10
3.20826
20
-4.23273
11
3.20844
21
-4.23172
0
LINE
8
BLACK
6
CONTINUOUS
10
3.20844
20
-4.23172
11
3.20974
21
-4.23018
0
LINE
8
BLACK
6
CONTINUOUS
10
3.20974
20
-4.23018
11
3.21173
21
-4.22983
0
LINE
8
BLACK
6
CONTINUOUS
10
3.21173
20
-4.22983
11
3.21348
21
-4.23084
0
LINE
8
BLACK
6
CONTINUOUS
10
3.21348
20
-4.23084
11
3.21417
21
-4.23273
0
LINE
8
BLACK
6
CONTINUOUS
10
3.21417
20
-4.23273
11
3.21417
21
-4.2506
0
LINE
8
BLACK
6
CONTINUOUS
10
3.21417
20
-4.2506
11
3.22427
21
-4.24176
0
LINE
8
BLACK
6
CONTINUOUS
10
3.22427
20
-4.24176
11
3.22465
21
-4.24153
0
LINE
8
BLACK
6
CONTINUOUS
10
3.22465
20
-4.24153
11
3.22474
21
-4.24142
0
LINE
8
BLACK
6
CONTINUOUS
10
3.22474
20
-4.24142
11
3.22486
21
-4.2414
0
LINE
8
BLACK
6
CONTINUOUS
10
3.22486
20
-4.2414
11
3.22514
21
-4.24123
0
LINE
8
BLACK
6
CONTINUOUS
10
3.22514
20
-4.24123
11
3.22594
21
-4.24121
0
LINE
8
BLACK
6
CONTINUOUS
10
3.22594
20
-4.24121
11
3.22672
21
-4.24107
0
LINE
8
BLACK
6
CONTINUOUS
10
3.22672
20
-4.24107
11
3.22693
21
-4.24119
0
LINE
8
BLACK
6
CONTINUOUS
10
3.22693
20
-4.24119
11
3.22716
21
-4.24119
0
LINE
8
BLACK
6
CONTINUOUS
10
3.22716
20
-4.24119
11
3.22778
21
-4.24169
0
LINE
8
BLACK
6
CONTINUOUS
10
3.22778
20
-4.24169
11
3.22847
21
-4.24208
0
LINE
8
BLACK
6
CONTINUOUS
10
3.22847
20
-4.24208
11
3.22855
21
-4.24231
0
LINE
8
BLACK
6
CONTINUOUS
10
3.22855
20
-4.24231
11
3.22874
21
-4.24245
0
LINE
8
BLACK
6
CONTINUOUS
10
3.22874
20
-4.24245
11
3.22889
21
-4.24323
0
LINE
8
BLACK
6
CONTINUOUS
10
3.22889
20
-4.24323
11
3.22916
21
-4.24398
0
LINE
8
BLACK
6
CONTINUOUS
10
3.22916
20
-4.24398
11
3.22916
21
-4.24891
0
LINE
8
BLACK
6
CONTINUOUS
10
3.22916
20
-4.24891
11
3.23051
21
-4.25161
0
LINE
8
BLACK
6
CONTINUOUS
10
3.23051
20
-4.25161
11
3.23171
21
-4.2528
0
LINE
8
BLACK
6
CONTINUOUS
10
3.23171
20
-4.2528
11
3.23441
21
-4.25415
0
LINE
8
BLACK
6
CONTINUOUS
10
3.23441
20
-4.25415
11
3.24239
21
-4.25415
0
LINE
8
BLACK
6
CONTINUOUS
10
3.24239
20
-4.25415
11
3.24508
21
-4.2528
0
LINE
8
BLACK
6
CONTINUOUS
10
3.24508
20
-4.2528
11
3.24628
21
-4.25161
0
LINE
8
BLACK
6
CONTINUOUS
10
3.24628
20
-4.25161
11
3.24763
21
-4.24891
0
LINE
8
BLACK
6
CONTINUOUS
10
3.24763
20
-4.24891
11
3.24763
21
-4.23905
0
LINE
8
BLACK
6
CONTINUOUS
10
3.24763
20
-4.23905
11
3.24628
21
-4.23636
0
LINE
8
BLACK
6
CONTINUOUS
10
3.24628
20
-4.23636
11
3.24475
21
-4.23482
0
LINE
8
BLACK
6
CONTINUOUS
10
3.24475
20
-4.23482
11
3.24416
21
-4.23398
0
LINE
8
BLACK
6
CONTINUOUS
10
3.24416
20
-4.23398
11
3.24398
21
-4.23197
0
LINE
8
BLACK
6
CONTINUOUS
10
3.24398
20
-4.23197
11
3.24514
21
-4.23031
0
LINE
8
BLACK
6
CONTINUOUS
10
3.24514
20
-4.23031
11
3.24709
21
-4.22979
0
LINE
8
BLACK
6
CONTINUOUS
10
3.24709
20
-4.22979
11
3.24892
21
-4.23065
0
LINE
8
BLACK
6
CONTINUOUS
10
3.25285
20
-4.20084
11
3.25354
21
-4.20274
0
LINE
8
BLACK
6
CONTINUOUS
10
3.25354
20
-4.20274
11
3.25354
21
-4.20649
0
LINE
8
BLACK
6
CONTINUOUS
10
3.25354
20
-4.20649
11
3.25338
21
-4.20736
0
LINE
8
BLACK
6
CONTINUOUS
10
3.25338
20
-4.20736
11
3.25338
21
-4.20742
0
LINE
8
BLACK
6
CONTINUOUS
10
3.25338
20
-4.20742
11
3.25151
21
-4.21304
0
LINE
8
BLACK
6
CONTINUOUS
10
3.25151
20
-4.21304
11
3.25102
21
-4.21395
0
LINE
8
BLACK
6
CONTINUOUS
10
3.25102
20
-4.21395
11
3.25087
21
-4.21404
0
LINE
8
BLACK
6
CONTINUOUS
10
3.25087
20
-4.21404
11
3.2508
21
-4.2142
0
LINE
8
BLACK
6
CONTINUOUS
10
3.2508
20
-4.2142
11
3.24705
21
-4.21795
0
LINE
8
BLACK
6
CONTINUOUS
10
3.24705
20
-4.21795
11
3.24621
21
-4.21854
0
LINE
8
BLACK
6
CONTINUOUS
10
3.24621
20
-4.21854
11
3.24603
21
-4.21855
0
LINE
8
BLACK
6
CONTINUOUS
10
3.24603
20
-4.21855
11
3.24589
21
-4.21866
0
LINE
8
BLACK
6
CONTINUOUS
10
3.24589
20
-4.21866
11
3.24027
21
-4.22054
0
LINE
8
BLACK
6
CONTINUOUS
10
3.24027
20
-4.22054
11
3.2394
21
-4.22067
0
LINE
8
BLACK
6
CONTINUOUS
10
3.2394
20
-4.22067
11
3.23933
21
-4.22069
0
LINE
8
BLACK
6
CONTINUOUS
10
3.23933
20
-4.22069
11
3.21121
21
-4.22069
0
LINE
8
BLACK
6
CONTINUOUS
10
3.21121
20
-4.22069
11
3.2102
21
-4.22051
0
LINE
8
BLACK
6
CONTINUOUS
10
3.2102
20
-4.22051
11
3.20866
21
-4.21921
0
LINE
8
BLACK
6
CONTINUOUS
10
3.20866
20
-4.21921
11
3.20831
21
-4.21722
0
LINE
8
BLACK
6
CONTINUOUS
10
3.20831
20
-4.21722
11
3.20932
21
-4.21547
0
LINE
8
BLACK
6
CONTINUOUS
10
3.20932
20
-4.21547
11
3.21121
21
-4.21478
0
LINE
8
BLACK
6
CONTINUOUS
10
3.21121
20
-4.21478
11
3.23886
21
-4.21478
0
LINE
8
BLACK
6
CONTINUOUS
10
3.23886
20
-4.21478
11
3.24336
21
-4.21328
0
LINE
8
BLACK
6
CONTINUOUS
10
3.24336
20
-4.21328
11
3.24613
21
-4.21052
0
LINE
8
BLACK
6
CONTINUOUS
10
3.24613
20
-4.21052
11
3.24763
21
-4.20601
0
LINE
8
BLACK
6
CONTINUOUS
10
3.24763
20
-4.20601
11
3.24763
21
-4.20274
0
LINE
8
BLACK
6
CONTINUOUS
10
3.24763
20
-4.20274
11
3.24781
21
-4.20173
0
LINE
8
BLACK
6
CONTINUOUS
10
3.24781
20
-4.20173
11
3.24911
21
-4.20018
0
LINE
8
BLACK
6
CONTINUOUS
10
3.24911
20
-4.20018
11
3.2511
21
-4.19983
0
LINE
8
BLACK
6
CONTINUOUS
10
3.2511
20
-4.19983
11
3.25285
21
-4.20084
0
LINE
8
BLACK
6
CONTINUOUS
10
3.24892
20
-4.16814
11
3.2508
21
-4.17002
0
LINE
8
BLACK
6
CONTINUOUS
10
3.2508
20
-4.17002
11
3.2513
21
-4.17074
0
LINE
8
BLACK
6
CONTINUOUS
10
3.2513
20
-4.17074
11
3.25135
21
-4.17078
0
LINE
8
BLACK
6
CONTINUOUS
10
3.25135
20
-4.17078
11
3.25322
21
-4.17453
0
LINE
8
BLACK
6
CONTINUOUS
10
3.25322
20
-4.17453
11
3.25352
21
-4.17552
0
LINE
8
BLACK
6
CONTINUOUS
10
3.25352
20
-4.17552
11
3.25348
21
-4.17569
0
LINE
8
BLACK
6
CONTINUOUS
10
3.25348
20
-4.17569
11
3.25354
21
-4.17585
0
LINE
8
BLACK
6
CONTINUOUS
10
3.25354
20
-4.17585
11
3.25354
21
-4.1871
0
LINE
8
BLACK
6
CONTINUOUS
10
3.25354
20
-4.1871
11
3.25336
21
-4.18811
0
LINE
8
BLACK
6
CONTINUOUS
10
3.25336
20
-4.18811
11
3.25324
21
-4.18825
0
LINE
8
BLACK
6
CONTINUOUS
10
3.25324
20
-4.18825
11
3.25322
21
-4.18842
0
LINE
8
BLACK
6
CONTINUOUS
10
3.25322
20
-4.18842
11
3.25135
21
-4.19217
0
LINE
8
BLACK
6
CONTINUOUS
10
3.25135
20
-4.19217
11
3.25082
21
-4.19288
0
LINE
8
BLACK
6
CONTINUOUS
10
3.25082
20
-4.19288
11
3.2508
21
-4.19294
0
LINE
8
BLACK
6
CONTINUOUS
10
3.2508
20
-4.19294
11
3.24892
21
-4.19481
0
LINE
8
BLACK
6
CONTINUOUS
10
3.24892
20
-4.19481
11
3.2482
21
-4.19532
0
LINE
8
BLACK
6
CONTINUOUS
10
3.2482
20
-4.19532
11
3.24815
21
-4.19537
0
LINE
8
BLACK
6
CONTINUOUS
10
3.24815
20
-4.19537
11
3.2444
21
-4.19724
0
LINE
8
BLACK
6
CONTINUOUS
10
3.2444
20
-4.19724
11
3.24342
21
-4.19753
0
LINE
8
BLACK
6
CONTINUOUS
10
3.24342
20
-4.19753
11
3.24325
21
-4.19749
0
LINE
8
BLACK
6
CONTINUOUS
10
3.24325
20
-4.19749
11
3.24308
21
-4.19755
0
LINE
8
BLACK
6
CONTINUOUS
10
3.24308
20
-4.19755
11
3.23371
21
-4.19755
0
LINE
8
BLACK
6
CONTINUOUS
10
3.23371
20
-4.19755
11
3.2327
21
-4.19738
0
LINE
8
BLACK
6
CONTINUOUS
10
3.2327
20
-4.19738
11
3.23257
21
-4.19726
0
LINE
8
BLACK
6
CONTINUOUS
10
3.23257
20
-4.19726
11
3.23239
21
-4.19724
0
LINE
8
BLACK
6
CONTINUOUS
10
3.23239
20
-4.19724
11
3.22864
21
-4.19537
0
LINE
8
BLACK
6
CONTINUOUS
10
3.22864
20
-4.19537
11
3.22793
21
-4.19484
0
LINE
8
BLACK
6
CONTINUOUS
10
3.22793
20
-4.19484
11
3.22787
21
-4.19481
0
LINE
8
BLACK
6
CONTINUOUS
10
3.22787
20
-4.19481
11
3.226
21
-4.19294
0
LINE
8
BLACK
6
CONTINUOUS
10
3.226
20
-4.19294
11
3.22549
21
-4.19222
0
LINE
8
BLACK
6
CONTINUOUS
10
3.22549
20
-4.19222
11
3.22545
21
-4.19217
0
LINE
8
BLACK
6
CONTINUOUS
10
3.22545
20
-4.19217
11
3.22357
21
-4.18842
0
LINE
8
BLACK
6
CONTINUOUS
10
3.22357
20
-4.18842
11
3.2234
21
-4.18786
0
LINE
8
BLACK
6
CONTINUOUS
10
3.2234
20
-4.18786
11
3.21316
21
-4.19682
0
LINE
8
BLACK
6
CONTINUOUS
10
3.21316
20
-4.19682
11
3.21278
21
-4.19705
0
LINE
8
BLACK
6
CONTINUOUS
10
3.21278
20
-4.19705
11
3.21269
21
-4.19716
0
LINE
8
BLACK
6
CONTINUOUS
10
3.21269
20
-4.19716
11
3.21257
21
-4.19718
0
LINE
8
BLACK
6
CONTINUOUS
10
3.21257
20
-4.19718
11
3.21228
21
-4.19735
0
LINE
8
BLACK
6
CONTINUOUS
10
3.21228
20
-4.19735
11
3.21148
21
-4.19737
0
LINE
8
BLACK
6
CONTINUOUS
10
3.21148
20
-4.19737
11
3.2107
21
-4.19751
0
LINE
8
BLACK
6
CONTINUOUS
10
3.2107
20
-4.19751
11
3.2105
21
-4.19739
0
LINE
8
BLACK
6
CONTINUOUS
10
3.2105
20
-4.19739
11
3.21026
21
-4.1974
0
LINE
8
BLACK
6
CONTINUOUS
10
3.21026
20
-4.1974
11
3.20964
21
-4.1969
0
LINE
8
BLACK
6
CONTINUOUS
10
3.20964
20
-4.1969
11
3.20895
21
-4.1965
0
LINE
8
BLACK
6
CONTINUOUS
10
3.20895
20
-4.1965
11
3.20887
21
-4.19628
0
LINE
8
BLACK
6
CONTINUOUS
10
3.20887
20
-4.19628
11
3.20869
21
-4.19613
0
LINE
8
BLACK
6
CONTINUOUS
10
3.20869
20
-4.19613
11
3.20853
21
-4.19535
0
LINE
8
BLACK
6
CONTINUOUS
10
3.20853
20
-4.19535
11
3.20826
21
-4.1946
0
LINE
8
BLACK
6
CONTINUOUS
10
3.20826
20
-4.1946
11
3.20826
21
-4.17023
0
LINE
8
BLACK
6
CONTINUOUS
10
3.20826
20
-4.17023
11
3.20844
21
-4.16922
0
LINE
8
BLACK
6
CONTINUOUS
10
3.20844
20
-4.16922
11
3.20974
21
-4.16767
0
LINE
8
BLACK
6
CONTINUOUS
10
3.20974
20
-4.16767
11
3.21173
21
-4.16732
0
LINE
8
BLACK
6
CONTINUOUS
10
3.21173
20
-4.16732
11
3.21348
21
-4.16833
0
LINE
8
BLACK
6
CONTINUOUS
10
3.21348
20
-4.16833
11
3.21417
21
-4.17023
0
LINE
8
BLACK
6
CONTINUOUS
10
3.21417
20
-4.17023
11
3.21417
21
-4.18809
0
LINE
8
BLACK
6
CONTINUOUS
10
3.21417
20
-4.18809
11
3.22427
21
-4.17926
0
LINE
8
BLACK
6
CONTINUOUS
10
3.22427
20
-4.17926
11
3.22465
21
-4.17903
0
LINE
8
BLACK
6
CONTINUOUS
10
3.22465
20
-4.17903
11
3.22474
21
-4.17892
0
LINE
8
BLACK
6
CONTINUOUS
10
3.22474
20
-4.17892
11
3.22486
21
-4.1789
0
LINE
8
BLACK
6
CONTINUOUS
10
3.22486
20
-4.1789
11
3.22514
21
-4.17872
0
LINE
8
BLACK
6
CONTINUOUS
10
3.22514
20
-4.17872
11
3.22594
21
-4.17871
0
LINE
8
BLACK
6
CONTINUOUS
10
3.22594
20
-4.17871
11
3.22672
21
-4.17857
0
LINE
8
BLACK
6
CONTINUOUS
10
3.22672
20
-4.17857
11
3.22693
21
-4.17869
0
LINE
8
BLACK
6
CONTINUOUS
10
3.22693
20
-4.17869
11
3.22716
21
-4.17868
0
LINE
8
BLACK
6
CONTINUOUS
10
3.22716
20
-4.17868
11
3.22778
21
-4.17918
0
LINE
8
BLACK
6
CONTINUOUS
10
3.22778
20
-4.17918
11
3.22847
21
-4.17958
0
LINE
8
BLACK
6
CONTINUOUS
10
3.22847
20
-4.17958
11
3.22855
21
-4.1798
0
LINE
8
BLACK
6
CONTINUOUS
10
3.22855
20
-4.1798
11
3.22874
21
-4.17995
0
LINE
8
BLACK
6
CONTINUOUS
10
3.22874
20
-4.17995
11
3.22889
21
-4.18073
0
LINE
8
BLACK
6
CONTINUOUS
10
3.22889
20
-4.18073
11
3.22916
21
-4.18148
0
LINE
8
BLACK
6
CONTINUOUS
10
3.22916
20
-4.18148
11
3.22916
21
-4.1864
0
LINE
8
BLACK
6
CONTINUOUS
10
3.22916
20
-4.1864
11
3.23051
21
-4.1891
0
LINE
8
BLACK
6
CONTINUOUS
10
3.23051
20
-4.1891
11
3.23171
21
-4.1903
0
LINE
8
BLACK
6
CONTINUOUS
10
3.23171
20
-4.1903
11
3.23441
21
-4.19165
0
LINE
8
BLACK
6
CONTINUOUS
10
3.23441
20
-4.19165
11
3.24239
21
-4.19165
0
LINE
8
BLACK
6
CONTINUOUS
10
3.24239
20
-4.19165
11
3.24508
21
-4.1903
0
LINE
8
BLACK
6
CONTINUOUS
10
3.24508
20
-4.1903
11
3.24628
21
-4.1891
0
LINE
8
BLACK
6
CONTINUOUS
10
3.24628
20
-4.1891
11
3.24763
21
-4.1864
0
LINE
8
BLACK
6
CONTINUOUS
10
3.24763
20
-4.1864
11
3.24763
21
-4.17655
0
LINE
8
BLACK
6
CONTINUOUS
10
3.24763
20
-4.17655
11
3.24628
21
-4.17385
0
LINE
8
BLACK
6
CONTINUOUS
10
3.24628
20
-4.17385
11
3.24475
21
-4.17232
0
LINE
8
BLACK
6
CONTINUOUS
10
3.24475
20
-4.17232
11
3.24416
21
-4.17148
0
LINE
8
BLACK
6
CONTINUOUS
10
3.24416
20
-4.17148
11
3.24398
21
-4.16946
0
LINE
8
BLACK
6
CONTINUOUS
10
3.24398
20
-4.16946
11
3.24514
21
-4.16781
0
LINE
8
BLACK
6
CONTINUOUS
10
3.24514
20
-4.16781
11
3.24709
21
-4.16729
0
LINE
8
BLACK
6
CONTINUOUS
10
3.24709
20
-4.16729
11
3.24892
21
-4.16814
0
LINE
8
BLACK
6
CONTINUOUS
10
3.24892
20
-4.13065
11
3.2508
21
-4.13252
0
LINE
8
BLACK
6
CONTINUOUS
10
3.2508
20
-4.13252
11
3.2513
21
-4.13324
0
LINE
8
BLACK
6
CONTINUOUS
10
3.2513
20
-4.13324
11
3.25135
21
-4.13329
0
LINE
8
BLACK
6
CONTINUOUS
10
3.25135
20
-4.13329
11
3.25322
21
-4.13704
0
LINE
8
BLACK
6
CONTINUOUS
10
3.25322
20
-4.13704
11
3.25352
21
-4.13802
0
LINE
8
BLACK
6
CONTINUOUS
10
3.25352
20
-4.13802
11
3.25348
21
-4.13819
0
LINE
8
BLACK
6
CONTINUOUS
10
3.25348
20
-4.13819
11
3.25354
21
-4.13836
0
LINE
8
BLACK
6
CONTINUOUS
10
3.25354
20
-4.13836
11
3.25354
21
-4.14961
0
LINE
8
BLACK
6
CONTINUOUS
10
3.25354
20
-4.14961
11
3.25336
21
-4.15062
0
LINE
8
BLACK
6
CONTINUOUS
10
3.25336
20
-4.15062
11
3.25324
21
-4.15075
0
LINE
8
BLACK
6
CONTINUOUS
10
3.25324
20
-4.15075
11
3.25322
21
-4.15093
0
LINE
8
BLACK
6
CONTINUOUS
10
3.25322
20
-4.15093
11
3.25135
21
-4.15468
0
LINE
8
BLACK
6
CONTINUOUS
10
3.25135
20
-4.15468
11
3.25082
21
-4.15539
0
LINE
8
BLACK
6
CONTINUOUS
10
3.25082
20
-4.15539
11
3.2508
21
-4.15544
0
LINE
8
BLACK
6
CONTINUOUS
10
3.2508
20
-4.15544
11
3.24892
21
-4.15732
0
LINE
8
BLACK
6
CONTINUOUS
10
3.24892
20
-4.15732
11
3.2482
21
-4.15782
0
LINE
8
BLACK
6
CONTINUOUS
10
3.2482
20
-4.15782
11
3.24815
21
-4.15787
0
LINE
8
BLACK
6
CONTINUOUS
10
3.24815
20
-4.15787
11
3.2444
21
-4.15975
0
LINE
8
BLACK
6
CONTINUOUS
10
3.2444
20
-4.15975
11
3.24342
21
-4.16004
0
LINE
8
BLACK
6
CONTINUOUS
10
3.24342
20
-4.16004
11
3.24325
21
-4.16
0
LINE
8
BLACK
6
CONTINUOUS
10
3.24325
20
-4.16
11
3.24308
21
-4.16006
0
LINE
8
BLACK
6
CONTINUOUS
10
3.24308
20
-4.16006
11
3.23371
21
-4.16006
0
LINE
8
BLACK
6
CONTINUOUS
10
3.23371
20
-4.16006
11
3.2327
21
-4.15988
0
LINE
8
BLACK
6
CONTINUOUS
10
3.2327
20
-4.15988
11
3.23257
21
-4.15977
0
LINE
8
BLACK
6
CONTINUOUS
10
3.23257
20
-4.15977
11
3.23239
21
-4.15975
0
LINE
8
BLACK
6
CONTINUOUS
10
3.23239
20
-4.15975
11
3.22864
21
-4.15787
0
LINE
8
BLACK
6
CONTINUOUS
10
3.22864
20
-4.15787
11
3.22793
21
-4.15735
0
LINE
8
BLACK
6
CONTINUOUS
10
3.22793
20
-4.15735
11
3.22787
21
-4.15732
0
LINE
8
BLACK
6
CONTINUOUS
10
3.22787
20
-4.15732
11
3.226
21
-4.15544
0
LINE
8
BLACK
6
CONTINUOUS
10
3.226
20
-4.15544
11
3.22549
21
-4.15472
0
LINE
8
BLACK
6
CONTINUOUS
10
3.22549
20
-4.15472
11
3.22545
21
-4.15468
0
LINE
8
BLACK
6
CONTINUOUS
10
3.22545
20
-4.15468
11
3.22357
21
-4.15093
0
LINE
8
BLACK
6
CONTINUOUS
10
3.22357
20
-4.15093
11
3.2234
21
-4.15036
0
LINE
8
BLACK
6
CONTINUOUS
10
3.2234
20
-4.15036
11
3.21316
21
-4.15933
0
LINE
8
BLACK
6
CONTINUOUS
10
3.21316
20
-4.15933
11
3.21278
21
-4.15956
0
LINE
8
BLACK
6
CONTINUOUS
10
3.21278
20
-4.15956
11
3.21269
21
-4.15966
0
LINE
8
BLACK
6
CONTINUOUS
10
3.21269
20
-4.15966
11
3.21257
21
-4.15968
0
LINE
8
BLACK
6
CONTINUOUS
10
3.21257
20
-4.15968
11
3.21228
21
-4.15986
0
LINE
8
BLACK
6
CONTINUOUS
10
3.21228
20
-4.15986
11
3.21148
21
-4.15987
0
LINE
8
BLACK
6
CONTINUOUS
10
3.21148
20
-4.15987
11
3.2107
21
-4.16001
0
LINE
8
BLACK
6
CONTINUOUS
10
3.2107
20
-4.16001
11
3.2105
21
-4.1599
0
LINE
8
BLACK
6
CONTINUOUS
10
3.2105
20
-4.1599
11
3.21026
21
-4.1599
0
LINE
8
BLACK
6
CONTINUOUS
10
3.21026
20
-4.1599
11
3.20964
21
-4.1594
0
LINE
8
BLACK
6
CONTINUOUS
10
3.20964
20
-4.1594
11
3.20895
21
-4.159
0
LINE
8
BLACK
6
CONTINUOUS
10
3.20895
20
-4.159
11
3.20887
21
-4.15878
0
LINE
8
BLACK
6
CONTINUOUS
10
3.20887
20
-4.15878
11
3.20869
21
-4.15863
0
LINE
8
BLACK
6
CONTINUOUS
10
3.20869
20
-4.15863
11
3.20853
21
-4.15785
0
LINE
8
BLACK
6
CONTINUOUS
10
3.20853
20
-4.15785
11
3.20826
21
-4.15711
0
LINE
8
BLACK
6
CONTINUOUS
10
3.20826
20
-4.15711
11
3.20826
21
-4.13273
0
LINE
8
BLACK
6
CONTINUOUS
10
3.20826
20
-4.13273
11
3.20844
21
-4.13172
0
LINE
8
BLACK
6
CONTINUOUS
10
3.20844
20
-4.13172
11
3.20974
21
-4.13018
0
LINE
8
BLACK
6
CONTINUOUS
10
3.20974
20
-4.13018
11
3.21173
21
-4.12983
0
LINE
8
BLACK
6
CONTINUOUS
10
3.21173
20
-4.12983
11
3.21348
21
-4.13084
0
LINE
8
BLACK
6
CONTINUOUS
10
3.21348
20
-4.13084
11
3.21417
21
-4.13273
0
LINE
8
BLACK
6
CONTINUOUS
10
3.21417
20
-4.13273
11
3.21417
21
-4.1506
0
LINE
8
BLACK
6
CONTINUOUS
10
3.21417
20
-4.1506
11
3.22427
21
-4.14176
0
LINE
8
BLACK
6
CONTINUOUS
10
3.22427
20
-4.14176
11
3.22465
21
-4.14153
0
LINE
8
BLACK
6
CONTINUOUS
10
3.22465
20
-4.14153
11
3.22474
21
-4.14142
0
LINE
8
BLACK
6
CONTINUOUS
10
3.22474
20
-4.14142
11
3.22486
21
-4.1414
0
LINE
8
BLACK
6
CONTINUOUS
10
3.22486
20
-4.1414
11
3.22514
21
-4.14123
0
LINE
8
BLACK
6
CONTINUOUS
10
3.22514
20
-4.14123
11
3.22594
21
-4.14121
0
LINE
8
BLACK
6
CONTINUOUS
10
3.22594
20
-4.14121
11
3.22672
21
-4.14107
0
LINE
8
BLACK
6
CONTINUOUS
10
3.22672
20
-4.14107
11
3.22693
21
-4.14119
0
LINE
8
BLACK
6
CONTINUOUS
10
3.22693
20
-4.14119
11
3.22716
21
-4.14119
0
LINE
8
BLACK
6
CONTINUOUS
10
3.22716
20
-4.14119
11
3.22778
21
-4.14169
0
LINE
8
BLACK
6
CONTINUOUS
10
3.22778
20
-4.14169
11
3.22847
21
-4.14208
0
LINE
8
BLACK
6
CONTINUOUS
10
3.22847
20
-4.14208
11
3.22855
21
-4.14231
0
LINE
8
BLACK
6
CONTINUOUS
10
3.22855
20
-4.14231
11
3.22874
21
-4.14245
0
LINE
8
BLACK
6
CONTINUOUS
10
3.22874
20
-4.14245
11
3.22889
21
-4.14323
0
LINE
8
BLACK
6
CONTINUOUS
10
3.22889
20
-4.14323
11
3.22916
21
-4.14398
0
LINE
8
BLACK
6
CONTINUOUS
10
3.22916
20
-4.14398
11
3.22916
21
-4.14891
0
LINE
8
BLACK
6
CONTINUOUS
10
3.22916
20
-4.14891
11
3.23051
21
-4.15161
0
LINE
8
BLACK
6
CONTINUOUS
10
3.23051
20
-4.15161
11
3.23171
21
-4.1528
0
LINE
8
BLACK
6
CONTINUOUS
10
3.23171
20
-4.1528
11
3.23441
21
-4.15415
0
LINE
8
BLACK
6
CONTINUOUS
10
3.23441
20
-4.15415
11
3.24239
21
-4.15415
0
LINE
8
BLACK
6
CONTINUOUS
10
3.24239
20
-4.15415
11
3.24508
21
-4.1528
0
LINE
8
BLACK
6
CONTINUOUS
10
3.24508
20
-4.1528
11
3.24628
21
-4.15161
0
LINE
8
BLACK
6
CONTINUOUS
10
3.24628
20
-4.15161
11
3.24763
21
-4.14891
0
LINE
8
BLACK
6
CONTINUOUS
10
3.24763
20
-4.14891
11
3.24763
21
-4.13905
0
LINE
8
BLACK
6
CONTINUOUS
10
3.24763
20
-4.13905
11
3.24628
21
-4.13636
0
LINE
8
BLACK
6
CONTINUOUS
10
3.24628
20
-4.13636
11
3.24475
21
-4.13482
0
LINE
8
BLACK
6
CONTINUOUS
10
3.24475
20
-4.13482
11
3.24416
21
-4.13398
0
LINE
8
BLACK
6
CONTINUOUS
10
3.24416
20
-4.13398
11
3.24398
21
-4.13197
0
LINE
8
BLACK
6
CONTINUOUS
10
3.24398
20
-4.13197
11
3.24514
21
-4.13031
0
LINE
8
BLACK
6
CONTINUOUS
10
3.24514
20
-4.13031
11
3.24709
21
-4.12979
0
LINE
8
BLACK
6
CONTINUOUS
10
3.24709
20
-4.12979
11
3.24892
21
-4.13065
0
LINE
8
BLACK
6
CONTINUOUS
10
3.23775
20
-4.06923
11
3.23797
21
-4.0692
0
LINE
8
BLACK
6
CONTINUOUS
10
3.23797
20
-4.0692
11
3.23867
21
-4.0696
0
LINE
8
BLACK
6
CONTINUOUS
10
3.23867
20
-4.0696
11
3.23942
21
-4.06989
0
LINE
8
BLACK
6
CONTINUOUS
10
3.23942
20
-4.06989
11
3.23953
21
-4.07009
0
LINE
8
BLACK
6
CONTINUOUS
10
3.23953
20
-4.07009
11
3.23972
21
-4.07021
0
LINE
8
BLACK
6
CONTINUOUS
10
3.23972
20
-4.07021
11
3.24
21
-4.07096
0
LINE
8
BLACK
6
CONTINUOUS
10
3.24
20
-4.07096
11
3.24038
21
-4.07167
0
LINE
8
BLACK
6
CONTINUOUS
10
3.24038
20
-4.07167
11
3.24034
21
-4.07189
0
LINE
8
BLACK
6
CONTINUOUS
10
3.24034
20
-4.07189
11
3.24041
21
-4.0721
0
LINE
8
BLACK
6
CONTINUOUS
10
3.24041
20
-4.0721
11
3.24041
21
-4.0879
0
LINE
8
BLACK
6
CONTINUOUS
10
3.24041
20
-4.0879
11
3.25058
21
-4.0879
0
LINE
8
BLACK
6
CONTINUOUS
10
3.25058
20
-4.0879
11
3.25159
21
-4.08808
0
LINE
8
BLACK
6
CONTINUOUS
10
3.25159
20
-4.08808
11
3.25314
21
-4.08937
0
LINE
8
BLACK
6
CONTINUOUS
10
3.25314
20
-4.08937
11
3.25349
21
-4.09136
0
LINE
8
BLACK
6
CONTINUOUS
10
3.25349
20
-4.09136
11
3.25248
21
-4.09311
0
LINE
8
BLACK
6
CONTINUOUS
10
3.25248
20
-4.09311
11
3.25058
21
-4.0938
0
LINE
8
BLACK
6
CONTINUOUS
10
3.25058
20
-4.0938
11
3.24041
21
-4.0938
0
LINE
8
BLACK
6
CONTINUOUS
10
3.24041
20
-4.0938
11
3.24041
21
-4.09648
0
LINE
8
BLACK
6
CONTINUOUS
10
3.24041
20
-4.09648
11
3.24028
21
-4.09724
0
LINE
8
BLACK
6
CONTINUOUS
10
3.24028
20
-4.09724
11
3.26969
21
-4.09724
0
LINE
8
BLACK
6
CONTINUOUS
10
3.26969
20
-4.09724
11
3.27038
21
-4.09557
0
LINE
8
BLACK
6
CONTINUOUS
10
3.27038
20
-4.09557
11
3.27205
21
-4.09488
0
LINE
8
BLACK
6
CONTINUOUS
10
3.27205
20
-4.09488
11
3.32441
21
-4.09488
0
LINE
8
BLACK
6
CONTINUOUS
10
3.32441
20
-4.09488
11
3.32608
21
-4.09557
0
LINE
8
BLACK
6
CONTINUOUS
10
3.32608
20
-4.09557
11
3.32677
21
-4.09724
0
LINE
8
BLACK
6
CONTINUOUS
10
3.32677
20
-4.09724
11
3.32608
21
-4.09891
0
LINE
8
BLACK
6
CONTINUOUS
10
3.32608
20
-4.09891
11
3.32441
21
-4.09961
0
LINE
8
BLACK
6
CONTINUOUS
10
3.32441
20
-4.09961
11
3.27913
21
-4.09961
0
LINE
8
BLACK
6
CONTINUOUS
10
3.27913
20
-4.09961
11
3.27913
21
-4.19488
0
LINE
8
BLACK
6
CONTINUOUS
10
3.27913
20
-4.19488
11
3.32441
21
-4.19488
0
LINE
8
BLACK
6
CONTINUOUS
10
3.32441
20
-4.19488
11
3.32608
21
-4.19557
0
LINE
8
BLACK
6
CONTINUOUS
10
3.32608
20
-4.19557
11
3.32677
21
-4.19724
0
LINE
8
BLACK
6
CONTINUOUS
10
3.32677
20
-4.19724
11
3.32608
21
-4.19891
0
LINE
8
BLACK
6
CONTINUOUS
10
3.32608
20
-4.19891
11
3.32441
21
-4.19961
0
LINE
8
BLACK
6
CONTINUOUS
10
3.32441
20
-4.19961
11
3.27913
21
-4.19961
0
LINE
8
BLACK
6
CONTINUOUS
10
3.27913
20
-4.19961
11
3.27913
21
-4.29488
0
LINE
8
BLACK
6
CONTINUOUS
10
3.27913
20
-4.29488
11
3.32441
21
-4.29488
0
LINE
8
BLACK
6
CONTINUOUS
10
3.32441
20
-4.29488
11
3.32608
21
-4.29557
0
LINE
8
BLACK
6
CONTINUOUS
10
3.32608
20
-4.29557
11
3.32677
21
-4.29724
0
LINE
8
BLACK
6
CONTINUOUS
10
3.32677
20
-4.29724
11
3.32608
21
-4.29891
0
LINE
8
BLACK
6
CONTINUOUS
10
3.32608
20
-4.29891
11
3.32441
21
-4.29961
0
LINE
8
BLACK
6
CONTINUOUS
10
3.32441
20
-4.29961
11
3.27913
21
-4.29961
0
LINE
8
BLACK
6
CONTINUOUS
10
3.27913
20
-4.29961
11
3.27913
21
-4.39488
0
LINE
8
BLACK
6
CONTINUOUS
10
3.27913
20
-4.39488
11
3.32441
21
-4.39488
0
LINE
8
BLACK
6
CONTINUOUS
10
3.32441
20
-4.39488
11
3.32608
21
-4.39557
0
LINE
8
BLACK
6
CONTINUOUS
10
3.32608
20
-4.39557
11
3.32677
21
-4.39724
0
LINE
8
BLACK
6
CONTINUOUS
10
3.32677
20
-4.39724
11
3.32608
21
-4.39891
0
LINE
8
BLACK
6
CONTINUOUS
10
3.32608
20
-4.39891
11
3.32441
21
-4.39961
0
LINE
8
BLACK
6
CONTINUOUS
10
3.32441
20
-4.39961
11
3.27913
21
-4.39961
0
LINE
8
BLACK
6
CONTINUOUS
10
3.27913
20
-4.39961
11
3.27913
21
-4.49488
0
LINE
8
BLACK
6
CONTINUOUS
10
3.27913
20
-4.49488
11
3.32441
21
-4.49488
0
LINE
8
BLACK
6
CONTINUOUS
10
3.32441
20
-4.49488
11
3.32608
21
-4.49557
0
LINE
8
BLACK
6
CONTINUOUS
10
3.32608
20
-4.49557
11
3.32677
21
-4.49724
0
LINE
8
BLACK
6
CONTINUOUS
10
3.32677
20
-4.49724
11
3.32608
21
-4.49891
0
LINE
8
BLACK
6
CONTINUOUS
10
3.32608
20
-4.49891
11
3.32441
21
-4.49961
0
LINE
8
BLACK
6
CONTINUOUS
10
3.32441
20
-4.49961
11
3.27913
21
-4.49961
0
LINE
8
BLACK
6
CONTINUOUS
10
3.27913
20
-4.49961
11
3.27913
21
-4.60197
0
LINE
8
BLACK
6
CONTINUOUS
10
3.27913
20
-4.60197
11
3.27844
21
-4.60364
0
LINE
8
BLACK
6
CONTINUOUS
10
3.27844
20
-4.60364
11
3.27677
21
-4.60433
0
LINE
8
BLACK
6
CONTINUOUS
10
3.27677
20
-4.60433
11
3.17205
21
-4.60433
0
LINE
8
BLACK
6
CONTINUOUS
10
3.17205
20
-4.60433
11
3.17038
21
-4.60364
0
LINE
8
BLACK
6
CONTINUOUS
10
3.17038
20
-4.60364
11
3.16969
21
-4.60197
0
LINE
8
BLACK
6
CONTINUOUS
10
3.16969
20
-4.60197
11
3.16969
21
-4.09961
0
LINE
8
BLACK
6
CONTINUOUS
10
3.16969
20
-4.09961
11
3.17038
21
-4.09794
0
LINE
8
BLACK
6
CONTINUOUS
10
3.17038
20
-4.09794
11
3.17205
21
-4.09724
0
LINE
8
BLACK
6
CONTINUOUS
10
3.17205
20
-4.09724
11
3.23479
21
-4.09724
0
LINE
8
BLACK
6
CONTINUOUS
10
3.23479
20
-4.09724
11
3.23451
21
-4.09648
0
LINE
8
BLACK
6
CONTINUOUS
10
3.23451
20
-4.09648
11
3.23451
21
-4.0938
0
LINE
8
BLACK
6
CONTINUOUS
10
3.23451
20
-4.0938
11
3.22434
21
-4.0938
0
LINE
8
BLACK
6
CONTINUOUS
10
3.22434
20
-4.0938
11
3.22333
21
-4.09363
0
LINE
8
BLACK
6
CONTINUOUS
10
3.22333
20
-4.09363
11
3.22178
21
-4.09233
0
LINE
8
BLACK
6
CONTINUOUS
10
3.22178
20
-4.09233
11
3.22143
21
-4.09034
0
LINE
8
BLACK
6
CONTINUOUS
10
3.22143
20
-4.09034
11
3.22244
21
-4.08859
0
LINE
8
BLACK
6
CONTINUOUS
10
3.22244
20
-4.08859
11
3.22434
21
-4.0879
0
LINE
8
BLACK
6
CONTINUOUS
10
3.22434
20
-4.0879
11
3.23451
21
-4.0879
0
LINE
8
BLACK
6
CONTINUOUS
10
3.23451
20
-4.0879
11
3.23451
21
-4.0762
0
LINE
8
BLACK
6
CONTINUOUS
10
3.23451
20
-4.0762
11
3.21027
21
-4.08428
0
LINE
8
BLACK
6
CONTINUOUS
10
3.21027
20
-4.08428
11
3.20926
21
-4.08443
0
LINE
8
BLACK
6
CONTINUOUS
10
3.20926
20
-4.08443
11
3.20738
21
-4.08369
0
LINE
8
BLACK
6
CONTINUOUS
10
3.20738
20
-4.08369
11
3.20642
21
-4.08191
0
LINE
8
BLACK
6
CONTINUOUS
10
3.20642
20
-4.08191
11
3.20682
21
-4.07993
0
LINE
8
BLACK
6
CONTINUOUS
10
3.20682
20
-4.07993
11
3.2084
21
-4.07868
0
LINE
8
BLACK
6
CONTINUOUS
10
3.2084
20
-4.07868
11
3.23653
21
-4.0693
0
LINE
8
BLACK
6
CONTINUOUS
10
3.23653
20
-4.0693
11
3.23754
21
-4.06915
0
LINE
8
BLACK
6
CONTINUOUS
10
3.23754
20
-4.06915
11
3.23775
21
-4.06923
0
LINE
8
BLACK
6
CONTINUOUS
10
3.25326
20
-4.10197
11
3.25354
21
-4.10274
0
LINE
8
BLACK
6
CONTINUOUS
10
3.25354
20
-4.10274
11
3.25354
21
-4.10649
0
LINE
8
BLACK
6
CONTINUOUS
10
3.25354
20
-4.10649
11
3.25338
21
-4.10736
0
LINE
8
BLACK
6
CONTINUOUS
10
3.25338
20
-4.10736
11
3.25338
21
-4.10742
0
LINE
8
BLACK
6
CONTINUOUS
10
3.25338
20
-4.10742
11
3.25151
21
-4.11304
0
LINE
8
BLACK
6
CONTINUOUS
10
3.25151
20
-4.11304
11
3.25102
21
-4.11395
0
LINE
8
BLACK
6
CONTINUOUS
10
3.25102
20
-4.11395
11
3.25087
21
-4.11404
0
LINE
8
BLACK
6
CONTINUOUS
10
3.25087
20
-4.11404
11
3.2508
21
-4.1142
0
LINE
8
BLACK
6
CONTINUOUS
10
3.2508
20
-4.1142
11
3.24705
21
-4.11795
0
LINE
8
BLACK
6
CONTINUOUS
10
3.24705
20
-4.11795
11
3.24621
21
-4.11854
0
LINE
8
BLACK
6
CONTINUOUS
10
3.24621
20
-4.11854
11
3.24603
21
-4.11855
0
LINE
8
BLACK
6
CONTINUOUS
10
3.24603
20
-4.11855
11
3.24589
21
-4.11866
0
LINE
8
BLACK
6
CONTINUOUS
10
3.24589
20
-4.11866
11
3.24027
21
-4.12054
0
LINE
8
BLACK
6
CONTINUOUS
10
3.24027
20
-4.12054
11
3.2394
21
-4.12067
0
LINE
8
BLACK
6
CONTINUOUS
10
3.2394
20
-4.12067
11
3.23933
21
-4.12069
0
LINE
8
BLACK
6
CONTINUOUS
10
3.23933
20
-4.12069
11
3.21121
21
-4.12069
0
LINE
8
BLACK
6
CONTINUOUS
10
3.21121
20
-4.12069
11
3.2102
21
-4.12051
0
LINE
8
BLACK
6
CONTINUOUS
10
3.2102
20
-4.12051
11
3.20866
21
-4.11921
0
LINE
8
BLACK
6
CONTINUOUS
10
3.20866
20
-4.11921
11
3.20831
21
-4.11722
0
LINE
8
BLACK
6
CONTINUOUS
10
3.20831
20
-4.11722
11
3.20932
21
-4.11547
0
LINE
8
BLACK
6
CONTINUOUS
10
3.20932
20
-4.11547
11
3.21121
21
-4.11478
0
LINE
8
BLACK
6
CONTINUOUS
10
3.21121
20
-4.11478
11
3.23886
21
-4.11478
0
LINE
8
BLACK
6
CONTINUOUS
10
3.23886
20
-4.11478
11
3.24336
21
-4.11328
0
LINE
8
BLACK
6
CONTINUOUS
10
3.24336
20
-4.11328
11
3.24613
21
-4.11052
0
LINE
8
BLACK
6
CONTINUOUS
10
3.24613
20
-4.11052
11
3.24763
21
-4.10601
0
LINE
8
BLACK
6
CONTINUOUS
10
3.24763
20
-4.10601
11
3.24763
21
-4.10274
0
LINE
8
BLACK
6
CONTINUOUS
10
3.24763
20
-4.10274
11
3.24777
21
-4.10197
0
LINE
8
BLACK
6
CONTINUOUS
10
3.24777
20
-4.10197
11
3.17441
21
-4.10197
0
LINE
8
BLACK
6
CONTINUOUS
10
3.17441
20
-4.10197
11
3.17441
21
-4.59961
0
LINE
8
BLACK
6
CONTINUOUS
10
3.17441
20
-4.59961
11
3.27441
21
-4.59961
0
LINE
8
BLACK
6
CONTINUOUS
10
3.27441
20
-4.59961
11
3.27441
21
-4.54961
0
LINE
8
BLACK
6
CONTINUOUS
10
3.27441
20
-4.54961
11
3.27372
21
-4.55128
0
LINE
8
BLACK
6
CONTINUOUS
10
3.27372
20
-4.55128
11
3.27205
21
-4.55197
0
LINE
8
BLACK
6
CONTINUOUS
10
3.27205
20
-4.55197
11
3.27038
21
-4.55128
0
LINE
8
BLACK
6
CONTINUOUS
10
3.27038
20
-4.55128
11
3.26969
21
-4.54961
0
LINE
8
BLACK
6
CONTINUOUS
10
3.26969
20
-4.54961
11
3.26969
21
-4.49724
0
LINE
8
BLACK
6
CONTINUOUS
10
3.26969
20
-4.49724
11
3.27038
21
-4.49557
0
LINE
8
BLACK
6
CONTINUOUS
10
3.27038
20
-4.49557
11
3.27205
21
-4.49488
0
LINE
8
BLACK
6
CONTINUOUS
10
3.27205
20
-4.49488
11
3.27441
21
-4.49488
0
LINE
8
BLACK
6
CONTINUOUS
10
3.27441
20
-4.49488
11
3.27441
21
-4.44961
0
LINE
8
BLACK
6
CONTINUOUS
10
3.27441
20
-4.44961
11
3.27372
21
-4.45128
0
LINE
8
BLACK
6
CONTINUOUS
10
3.27372
20
-4.45128
11
3.27205
21
-4.45197
0
LINE
8
BLACK
6
CONTINUOUS
10
3.27205
20
-4.45197
11
3.27038
21
-4.45128
0
LINE
8
BLACK
6
CONTINUOUS
10
3.27038
20
-4.45128
11
3.26969
21
-4.44961
0
LINE
8
BLACK
6
CONTINUOUS
10
3.26969
20
-4.44961
11
3.26969
21
-4.39724
0
LINE
8
BLACK
6
CONTINUOUS
10
3.26969
20
-4.39724
11
3.27038
21
-4.39557
0
LINE
8
BLACK
6
CONTINUOUS
10
3.27038
20
-4.39557
11
3.27205
21
-4.39488
0
LINE
8
BLACK
6
CONTINUOUS
10
3.27205
20
-4.39488
11
3.27441
21
-4.39488
0
LINE
8
BLACK
6
CONTINUOUS
10
3.27441
20
-4.39488
11
3.27441
21
-4.34961
0
LINE
8
BLACK
6
CONTINUOUS
10
3.27441
20
-4.34961
11
3.27372
21
-4.35128
0
LINE
8
BLACK
6
CONTINUOUS
10
3.27372
20
-4.35128
11
3.27205
21
-4.35197
0
LINE
8
BLACK
6
CONTINUOUS
10
3.27205
20
-4.35197
11
3.27038
21
-4.35128
0
LINE
8
BLACK
6
CONTINUOUS
10
3.27038
20
-4.35128
11
3.26969
21
-4.34961
0
LINE
8
BLACK
6
CONTINUOUS
10
3.26969
20
-4.34961
11
3.26969
21
-4.29724
0
LINE
8
BLACK
6
CONTINUOUS
10
3.26969
20
-4.29724
11
3.27038
21
-4.29557
0
LINE
8
BLACK
6
CONTINUOUS
10
3.27038
20
-4.29557
11
3.27205
21
-4.29488
0
LINE
8
BLACK
6
CONTINUOUS
10
3.27205
20
-4.29488
11
3.27441
21
-4.29488
0
LINE
8
BLACK
6
CONTINUOUS
10
3.27441
20
-4.29488
11
3.27441
21
-4.24961
0
LINE
8
BLACK
6
CONTINUOUS
10
3.27441
20
-4.24961
11
3.27372
21
-4.25128
0
LINE
8
BLACK
6
CONTINUOUS
10
3.27372
20
-4.25128
11
3.27205
21
-4.25197
0
LINE
8
BLACK
6
CONTINUOUS
10
3.27205
20
-4.25197
11
3.27038
21
-4.25128
0
LINE
8
BLACK
6
CONTINUOUS
10
3.27038
20
-4.25128
11
3.26969
21
-4.24961
0
LINE
8
BLACK
6
CONTINUOUS
10
3.26969
20
-4.24961
11
3.26969
21
-4.19724
0
LINE
8
BLACK
6
CONTINUOUS
10
3.26969
20
-4.19724
11
3.27038
21
-4.19557
0
LINE
8
BLACK
6
CONTINUOUS
10
3.27038
20
-4.19557
11
3.27205
21
-4.19488
0
LINE
8
BLACK
6
CONTINUOUS
10
3.27205
20
-4.19488
11
3.27441
21
-4.19488
0
LINE
8
BLACK
6
CONTINUOUS
10
3.27441
20
-4.19488
11
3.27441
21
-4.14961
0
LINE
8
BLACK
6
CONTINUOUS
10
3.27441
20
-4.14961
11
3.27372
21
-4.15128
0
LINE
8
BLACK
6
CONTINUOUS
10
3.27372
20
-4.15128
11
3.27205
21
-4.15197
0
LINE
8
BLACK
6
CONTINUOUS
10
3.27205
20
-4.15197
11
3.27038
21
-4.15128
0
LINE
8
BLACK
6
CONTINUOUS
10
3.27038
20
-4.15128
11
3.26969
21
-4.14961
0
LINE
8
BLACK
6
CONTINUOUS
10
3.26969
20
-4.14961
11
3.26969
21
-4.10197
0
LINE
8
BLACK
6
CONTINUOUS
10
3.26969
20
-4.10197
11
3.25326
21
-4.10197
0
LINE
8
BLACK
6
CONTINUOUS
10
5.07441
20
-3.79488
11
5.07608
21
-3.79557
0
LINE
8
BLACK
6
CONTINUOUS
10
5.07608
20
-3.79557
11
5.07677
21
-3.79724
0
LINE
8
BLACK
6
CONTINUOUS
10
5.07677
20
-3.79724
11
5.07677
21
-3.89488
0
LINE
8
BLACK
6
CONTINUOUS
10
5.07677
20
-3.89488
11
5.17441
21
-3.89488
0
LINE
8
BLACK
6
CONTINUOUS
10
5.17441
20
-3.89488
11
5.17441
21
-3.84961
0
LINE
8
BLACK
6
CONTINUOUS
10
5.17441
20
-3.84961
11
5.1751
21
-3.84794
0
LINE
8
BLACK
6
CONTINUOUS
10
5.1751
20
-3.84794
11
5.17677
21
-3.84724
0
LINE
8
BLACK
6
CONTINUOUS
10
5.17677
20
-3.84724
11
5.17844
21
-3.84794
0
LINE
8
BLACK
6
CONTINUOUS
10
5.17844
20
-3.84794
11
5.17913
21
-3.84961
0
LINE
8
BLACK
6
CONTINUOUS
10
5.17913
20
-3.84961
11
5.17913
21
-3.89488
0
LINE
8
BLACK
6
CONTINUOUS
10
5.17913
20
-3.89488
11
5.47677
21
-3.89488
0
LINE
8
BLACK
6
CONTINUOUS
10
5.47677
20
-3.89488
11
5.47844
21
-3.89557
0
LINE
8
BLACK
6
CONTINUOUS
10
5.47844
20
-3.89557
11
5.47913
21
-3.89724
0
LINE
8
BLACK
6
CONTINUOUS
10
5.47913
20
-3.89724
11
5.47913
21
-3.99488
0
LINE
8
BLACK
6
CONTINUOUS
10
5.47913
20
-3.99488
11
5.57677
21
-3.99488
0
LINE
8
BLACK
6
CONTINUOUS
10
5.57677
20
-3.99488
11
5.57844
21
-3.99557
0
LINE
8
BLACK
6
CONTINUOUS
10
5.57844
20
-3.99557
11
5.57913
21
-3.99724
0
LINE
8
BLACK
6
CONTINUOUS
10
5.57913
20
-3.99724
11
5.57913
21
-4.49961
0
LINE
8
BLACK
6
CONTINUOUS
10
5.57913
20
-4.49961
11
5.57844
21
-4.50128
0
LINE
8
BLACK
6
CONTINUOUS
10
5.57844
20
-4.50128
11
5.57677
21
-4.50197
0
LINE
8
BLACK
6
CONTINUOUS
10
5.57677
20
-4.50197
11
5.47913
21
-4.50197
0
LINE
8
BLACK
6
CONTINUOUS
10
5.47913
20
-4.50197
11
5.47913
21
-4.59961
0
LINE
8
BLACK
6
CONTINUOUS
10
5.47913
20
-4.59961
11
5.52441
21
-4.59961
0
LINE
8
BLACK
6
CONTINUOUS
10
5.52441
20
-4.59961
11
5.52608
21
-4.6003
0
LINE
8
BLACK
6
CONTINUOUS
10
5.52608
20
-4.6003
11
5.52677
21
-4.60197
0
LINE
8
BLACK
6
CONTINUOUS
10
5.52677
20
-4.60197
11
5.52608
21
-4.60364
0
LINE
8
BLACK
6
CONTINUOUS
10
5.52608
20
-4.60364
11
5.52441
21
-4.60433
0
LINE
8
BLACK
6
CONTINUOUS
10
5.52441
20
-4.60433
11
5.47677
21
-4.60433
0
LINE
8
BLACK
6
CONTINUOUS
10
5.47677
20
-4.60433
11
5.47205
21
-4.60433
0
LINE
8
BLACK
6
CONTINUOUS
10
5.47205
20
-4.60433
11
3.37441
21
-4.60433
0
LINE
8
BLACK
6
CONTINUOUS
10
3.37441
20
-4.60433
11
3.37274
21
-4.60364
0
LINE
8
BLACK
6
CONTINUOUS
10
3.37274
20
-4.60364
11
3.37205
21
-4.60197
0
LINE
8
BLACK
6
CONTINUOUS
10
3.37205
20
-4.60197
11
3.37205
21
-4.49724
0
LINE
8
BLACK
6
CONTINUOUS
10
3.37205
20
-4.49724
11
3.37205
21
-4.39724
0
LINE
8
BLACK
6
CONTINUOUS
10
3.37205
20
-4.39724
11
3.37205
21
-4.29724
0
LINE
8
BLACK
6
CONTINUOUS
10
3.37205
20
-4.29724
11
3.37205
21
-4.19724
0
LINE
8
BLACK
6
CONTINUOUS
10
3.37205
20
-4.19724
11
3.37205
21
-4.09724
0
LINE
8
BLACK
6
CONTINUOUS
10
3.37205
20
-4.09724
11
3.37205
21
-3.99724
0
LINE
8
BLACK
6
CONTINUOUS
10
3.37205
20
-3.99724
11
3.37205
21
-3.89724
0
LINE
8
BLACK
6
CONTINUOUS
10
3.37205
20
-3.89724
11
3.37274
21
-3.89557
0
LINE
8
BLACK
6
CONTINUOUS
10
3.37274
20
-3.89557
11
3.37441
21
-3.89488
0
LINE
8
BLACK
6
CONTINUOUS
10
3.37441
20
-3.89488
11
4.16969
21
-3.89488
0
LINE
8
BLACK
6
CONTINUOUS
10
4.16969
20
-3.89488
11
4.16969
21
-3.79724
0
LINE
8
BLACK
6
CONTINUOUS
10
4.16969
20
-3.79724
11
4.17038
21
-3.79557
0
LINE
8
BLACK
6
CONTINUOUS
10
4.17038
20
-3.79557
11
4.17205
21
-3.79488
0
LINE
8
BLACK
6
CONTINUOUS
10
4.17205
20
-3.79488
11
5.07441
21
-3.79488
0
LINE
8
BLACK
6
CONTINUOUS
10
3.37677
20
-4.50433
11
3.37677
21
-4.59961
0
LINE
8
BLACK
6
CONTINUOUS
10
3.37677
20
-4.59961
11
5.46969
21
-4.59961
0
LINE
8
BLACK
6
CONTINUOUS
10
5.46969
20
-4.59961
11
5.46969
21
-4.54961
0
LINE
8
BLACK
6
CONTINUOUS
10
5.46969
20
-4.54961
11
5.47038
21
-4.54794
0
LINE
8
BLACK
6
CONTINUOUS
10
5.47038
20
-4.54794
11
5.47205
21
-4.54724
0
LINE
8
BLACK
6
CONTINUOUS
10
5.47205
20
-4.54724
11
5.47372
21
-4.54794
0
LINE
8
BLACK
6
CONTINUOUS
10
5.47372
20
-4.54794
11
5.47441
21
-4.54961
0
LINE
8
BLACK
6
CONTINUOUS
10
5.47441
20
-4.54961
11
5.47441
21
-4.50433
0
LINE
8
BLACK
6
CONTINUOUS
10
5.47441
20
-4.50433
11
3.37677
21
-4.50433
0
LINE
8
BLACK
6
CONTINUOUS
10
5.47913
20
-3.99961
11
5.47913
21
-4.09724
0
LINE
8
BLACK
6
CONTINUOUS
10
5.47913
20
-4.09724
11
5.47913
21
-4.09724
0
LINE
8
BLACK
6
CONTINUOUS
10
5.47913
20
-4.09724
11
5.47913
21
-4.19724
0
LINE
8
BLACK
6
CONTINUOUS
10
5.47913
20
-4.19724
11
5.47913
21
-4.19724
0
LINE
8
BLACK
6
CONTINUOUS
10
5.47913
20
-4.19724
11
5.47913
21
-4.29724
0
LINE
8
BLACK
6
CONTINUOUS
10
5.47913
20
-4.29724
11
5.47913
21
-4.29724
0
LINE
8
BLACK
6
CONTINUOUS
10
5.47913
20
-4.29724
11
5.47913
21
-4.39724
0
LINE
8
BLACK
6
CONTINUOUS
10
5.47913
20
-4.39724
11
5.47913
21
-4.39724
0
LINE
8
BLACK
6
CONTINUOUS
10
5.47913
20
-4.39724
11
5.47913
21
-4.49724
0
LINE
8
BLACK
6
CONTINUOUS
10
5.47913
20
-4.49724
11
5.47913
21
-4.49724
0
LINE
8
BLACK
6
CONTINUOUS
10
5.47913
20
-4.49724
11
5.57441
21
-4.49724
0
LINE
8
BLACK
6
CONTINUOUS
10
5.57441
20
-4.49724
11
5.57441
21
-3.99961
0
LINE
8
BLACK
6
CONTINUOUS
10
5.57441
20
-3.99961
11
5.47913
21
-3.99961
0
LINE
8
BLACK
6
CONTINUOUS
10
3.37677
20
-4.40433
11
3.37677
21
-4.49488
0
LINE
8
BLACK
6
CONTINUOUS
10
3.37677
20
-4.49488
11
5.46969
21
-4.49488
0
LINE
8
BLACK
6
CONTINUOUS
10
5.46969
20
-4.49488
11
5.46969
21
-4.40433
0
LINE
8
BLACK
6
CONTINUOUS
10
5.46969
20
-4.40433
11
3.37677
21
-4.40433
0
LINE
8
BLACK
6
CONTINUOUS
10
3.37677
20
-4.30433
11
3.37677
21
-4.39488
0
LINE
8
BLACK
6
CONTINUOUS
10
3.37677
20
-4.39488
11
5.46969
21
-4.39488
0
LINE
8
BLACK
6
CONTINUOUS
10
5.46969
20
-4.39488
11
5.46969
21
-4.30433
0
LINE
8
BLACK
6
CONTINUOUS
10
5.46969
20
-4.30433
11
3.37677
21
-4.30433
0
LINE
8
BLACK
6
CONTINUOUS
10
3.37677
20
-4.20433
11
3.37677
21
-4.29488
0
LINE
8
BLACK
6
CONTINUOUS
10
3.37677
20
-4.29488
11
5.46969
21
-4.29488
0
LINE
8
BLACK
6
CONTINUOUS
10
5.46969
20
-4.29488
11
5.46969
21
-4.20433
0
LINE
8
BLACK
6
CONTINUOUS
10
5.46969
20
-4.20433
11
3.37677
21
-4.20433
0
LINE
8
BLACK
6
CONTINUOUS
10
3.37677
20
-4.10433
11
3.37677
21
-4.19488
0
LINE
8
BLACK
6
CONTINUOUS
10
3.37677
20
-4.19488
11
5.46969
21
-4.19488
0
LINE
8
BLACK
6
CONTINUOUS
10
5.46969
20
-4.19488
11
5.46969
21
-4.10433
0
LINE
8
BLACK
6
CONTINUOUS
10
5.46969
20
-4.10433
11
3.37677
21
-4.10433
0
LINE
8
BLACK
6
CONTINUOUS
10
3.37677
20
-4.00433
11
3.37677
21
-4.09488
0
LINE
8
BLACK
6
CONTINUOUS
10
3.37677
20
-4.09488
11
5.46969
21
-4.09488
0
LINE
8
BLACK
6
CONTINUOUS
10
5.46969
20
-4.09488
11
5.46969
21
-4.00433
0
LINE
8
BLACK
6
CONTINUOUS
10
5.46969
20
-4.00433
11
3.37677
21
-4.00433
0
LINE
8
BLACK
6
CONTINUOUS
10
5.17913
20
-3.89961
11
5.17913
21
-3.90197
0
LINE
8
BLACK
6
CONTINUOUS
10
5.17913
20
-3.90197
11
5.17844
21
-3.90364
0
LINE
8
BLACK
6
CONTINUOUS
10
5.17844
20
-3.90364
11
5.17677
21
-3.90433
0
LINE
8
BLACK
6
CONTINUOUS
10
5.17677
20
-3.90433
11
5.12441
21
-3.90433
0
LINE
8
BLACK
6
CONTINUOUS
10
5.12441
20
-3.90433
11
5.12274
21
-3.90364
0
LINE
8
BLACK
6
CONTINUOUS
10
5.12274
20
-3.90364
11
5.12205
21
-3.90197
0
LINE
8
BLACK
6
CONTINUOUS
10
5.12205
20
-3.90197
11
5.12274
21
-3.9003
0
LINE
8
BLACK
6
CONTINUOUS
10
5.12274
20
-3.9003
11
5.12441
21
-3.89961
0
LINE
8
BLACK
6
CONTINUOUS
10
5.12441
20
-3.89961
11
5.07677
21
-3.89961
0
LINE
8
BLACK
6
CONTINUOUS
10
5.07677
20
-3.89961
11
5.07677
21
-3.90197
0
LINE
8
BLACK
6
CONTINUOUS
10
5.07677
20
-3.90197
11
5.07608
21
-3.90364
0
LINE
8
BLACK
6
CONTINUOUS
10
5.07608
20
-3.90364
11
5.07441
21
-3.90433
0
LINE
8
BLACK
6
CONTINUOUS
10
5.07441
20
-3.90433
11
4.17205
21
-3.90433
0
LINE
8
BLACK
6
CONTINUOUS
10
4.17205
20
-3.90433
11
4.17038
21
-3.90364
0
LINE
8
BLACK
6
CONTINUOUS
10
4.17038
20
-3.90364
11
4.16969
21
-3.90197
0
LINE
8
BLACK
6
CONTINUOUS
10
4.16969
20
-3.90197
11
4.16969
21
-3.90197
0
LINE
8
BLACK
6
CONTINUOUS
10
4.16969
20
-3.90197
11
4.16969
21
-3.89961
0
LINE
8
BLACK
6
CONTINUOUS
10
4.16969
20
-3.89961
11
3.37677
21
-3.89961
0
LINE
8
BLACK
6
CONTINUOUS
10
3.37677
20
-3.89961
11
3.37677
21
-3.99488
0
LINE
8
BLACK
6
CONTINUOUS
10
3.37677
20
-3.99488
11
5.47441
21
-3.99488
0
LINE
8
BLACK
6
CONTINUOUS
10
5.47441
20
-3.99488
11
5.47441
21
-3.89961
0
LINE
8
BLACK
6
CONTINUOUS
10
5.47441
20
-3.89961
11
5.17913
21
-3.89961
0
LINE
8
BLACK
6
CONTINUOUS
10
4.17441
20
-3.79961
11
4.17441
21
-3.89488
0
LINE
8
BLACK
6
CONTINUOUS
10
4.17441
20
-3.89488
11
5.07205
21
-3.89488
0
LINE
8
BLACK
6
CONTINUOUS
10
5.07205
20
-3.89488
11
5.07205
21
-3.79961
0
LINE
8
BLACK
6
CONTINUOUS
10
5.07205
20
-3.79961
11
4.17441
21
-3.79961
0
LINE
8
BLACK
6
CONTINUOUS
10
3.24892
20
-4.03065
11
3.2508
21
-4.03252
0
LINE
8
BLACK
6
CONTINUOUS
10
3.2508
20
-4.03252
11
3.2513
21
-4.03324
0
LINE
8
BLACK
6
CONTINUOUS
10
3.2513
20
-4.03324
11
3.25135
21
-4.03329
0
LINE
8
BLACK
6
CONTINUOUS
10
3.25135
20
-4.03329
11
3.25322
21
-4.03704
0
LINE
8
BLACK
6
CONTINUOUS
10
3.25322
20
-4.03704
11
3.25352
21
-4.03802
0
LINE
8
BLACK
6
CONTINUOUS
10
3.25352
20
-4.03802
11
3.25348
21
-4.03819
0
LINE
8
BLACK
6
CONTINUOUS
10
3.25348
20
-4.03819
11
3.25354
21
-4.03836
0
LINE
8
BLACK
6
CONTINUOUS
10
3.25354
20
-4.03836
11
3.25354
21
-4.04961
0
LINE
8
BLACK
6
CONTINUOUS
10
3.25354
20
-4.04961
11
3.25336
21
-4.05062
0
LINE
8
BLACK
6
CONTINUOUS
10
3.25336
20
-4.05062
11
3.25324
21
-4.05075
0
LINE
8
BLACK
6
CONTINUOUS
10
3.25324
20
-4.05075
11
3.25322
21
-4.05093
0
LINE
8
BLACK
6
CONTINUOUS
10
3.25322
20
-4.05093
11
3.25135
21
-4.05468
0
LINE
8
BLACK
6
CONTINUOUS
10
3.25135
20
-4.05468
11
3.25082
21
-4.05539
0
LINE
8
BLACK
6
CONTINUOUS
10
3.25082
20
-4.05539
11
3.2508
21
-4.05544
0
LINE
8
BLACK
6
CONTINUOUS
10
3.2508
20
-4.05544
11
3.24892
21
-4.05732
0
LINE
8
BLACK
6
CONTINUOUS
10
3.24892
20
-4.05732
11
3.2482
21
-4.05782
0
LINE
8
BLACK
6
CONTINUOUS
10
3.2482
20
-4.05782
11
3.24815
21
-4.05787
0
LINE
8
BLACK
6
CONTINUOUS
10
3.24815
20
-4.05787
11
3.2444
21
-4.05975
0
LINE
8
BLACK
6
CONTINUOUS
10
3.2444
20
-4.05975
11
3.24342
21
-4.06004
0
LINE
8
BLACK
6
CONTINUOUS
10
3.24342
20
-4.06004
11
3.24325
21
-4.06
0
LINE
8
BLACK
6
CONTINUOUS
10
3.24325
20
-4.06
11
3.24308
21
-4.06006
0
LINE
8
BLACK
6
CONTINUOUS
10
3.24308
20
-4.06006
11
3.23371
21
-4.06006
0
LINE
8
BLACK
6
CONTINUOUS
10
3.23371
20
-4.06006
11
3.2327
21
-4.05988
0
LINE
8
BLACK
6
CONTINUOUS
10
3.2327
20
-4.05988
11
3.23257
21
-4.05977
0
LINE
8
BLACK
6
CONTINUOUS
10
3.23257
20
-4.05977
11
3.23239
21
-4.05975
0
LINE
8
BLACK
6
CONTINUOUS
10
3.23239
20
-4.05975
11
3.22864
21
-4.05787
0
LINE
8
BLACK
6
CONTINUOUS
10
3.22864
20
-4.05787
11
3.22793
21
-4.05735
0
LINE
8
BLACK
6
CONTINUOUS
10
3.22793
20
-4.05735
11
3.22787
21
-4.05732
0
LINE
8
BLACK
6
CONTINUOUS
10
3.22787
20
-4.05732
11
3.226
21
-4.05544
0
LINE
8
BLACK
6
CONTINUOUS
10
3.226
20
-4.05544
11
3.22549
21
-4.05472
0
LINE
8
BLACK
6
CONTINUOUS
10
3.22549
20
-4.05472
11
3.22545
21
-4.05468
0
LINE
8
BLACK
6
CONTINUOUS
10
3.22545
20
-4.05468
11
3.22357
21
-4.05093
0
LINE
8
BLACK
6
CONTINUOUS
10
3.22357
20
-4.05093
11
3.2234
21
-4.05036
0
LINE
8
BLACK
6
CONTINUOUS
10
3.2234
20
-4.05036
11
3.21316
21
-4.05933
0
LINE
8
BLACK
6
CONTINUOUS
10
3.21316
20
-4.05933
11
3.21278
21
-4.05956
0
LINE
8
BLACK
6
CONTINUOUS
10
3.21278
20
-4.05956
11
3.21269
21
-4.05966
0
LINE
8
BLACK
6
CONTINUOUS
10
3.21269
20
-4.05966
11
3.21257
21
-4.05968
0
LINE
8
BLACK
6
CONTINUOUS
10
3.21257
20
-4.05968
11
3.21228
21
-4.05986
0
LINE
8
BLACK
6
CONTINUOUS
10
3.21228
20
-4.05986
11
3.21148
21
-4.05987
0
LINE
8
BLACK
6
CONTINUOUS
10
3.21148
20
-4.05987
11
3.2107
21
-4.06001
0
LINE
8
BLACK
6
CONTINUOUS
10
3.2107
20
-4.06001
11
3.2105
21
-4.0599
0
LINE
8
BLACK
6
CONTINUOUS
10
3.2105
20
-4.0599
11
3.21026
21
-4.0599
0
LINE
8
BLACK
6
CONTINUOUS
10
3.21026
20
-4.0599
11
3.20964
21
-4.0594
0
LINE
8
BLACK
6
CONTINUOUS
10
3.20964
20
-4.0594
11
3.20895
21
-4.059
0
LINE
8
BLACK
6
CONTINUOUS
10
3.20895
20
-4.059
11
3.20887
21
-4.05878
0
LINE
8
BLACK
6
CONTINUOUS
10
3.20887
20
-4.05878
11
3.20869
21
-4.05863
0
LINE
8
BLACK
6
CONTINUOUS
10
3.20869
20
-4.05863
11
3.20853
21
-4.05785
0
LINE
8
BLACK
6
CONTINUOUS
10
3.20853
20
-4.05785
11
3.20826
21
-4.05711
0
LINE
8
BLACK
6
CONTINUOUS
10
3.20826
20
-4.05711
11
3.20826
21
-4.03273
0
LINE
8
BLACK
6
CONTINUOUS
10
3.20826
20
-4.03273
11
3.20844
21
-4.03172
0
LINE
8
BLACK
6
CONTINUOUS
10
3.20844
20
-4.03172
11
3.20974
21
-4.03018
0
LINE
8
BLACK
6
CONTINUOUS
10
3.20974
20
-4.03018
11
3.21173
21
-4.02983
0
LINE
8
BLACK
6
CONTINUOUS
10
3.21173
20
-4.02983
11
3.21348
21
-4.03084
0
LINE
8
BLACK
6
CONTINUOUS
10
3.21348
20
-4.03084
11
3.21417
21
-4.03273
0
LINE
8
BLACK
6
CONTINUOUS
10
3.21417
20
-4.03273
11
3.21417
21
-4.0506
0
LINE
8
BLACK
6
CONTINUOUS
10
3.21417
20
-4.0506
11
3.22427
21
-4.04176
0
LINE
8
BLACK
6
CONTINUOUS
10
3.22427
20
-4.04176
11
3.22465
21
-4.04153
0
LINE
8
BLACK
6
CONTINUOUS
10
3.22465
20
-4.04153
11
3.22474
21
-4.04142
0
LINE
8
BLACK
6
CONTINUOUS
10
3.22474
20
-4.04142
11
3.22486
21
-4.0414
0
LINE
8
BLACK
6
CONTINUOUS
10
3.22486
20
-4.0414
11
3.22514
21
-4.04123
0
LINE
8
BLACK
6
CONTINUOUS
10
3.22514
20
-4.04123
11
3.22594
21
-4.04121
0
LINE
8
BLACK
6
CONTINUOUS
10
3.22594
20
-4.04121
11
3.22672
21
-4.04107
0
LINE
8
BLACK
6
CONTINUOUS
10
3.22672
20
-4.04107
11
3.22693
21
-4.04119
0
LINE
8
BLACK
6
CONTINUOUS
10
3.22693
20
-4.04119
11
3.22716
21
-4.04119
0
LINE
8
BLACK
6
CONTINUOUS
10
3.22716
20
-4.04119
11
3.22778
21
-4.04169
0
LINE
8
BLACK
6
CONTINUOUS
10
3.22778
20
-4.04169
11
3.22847
21
-4.04208
0
LINE
8
BLACK
6
CONTINUOUS
10
3.22847
20
-4.04208
11
3.22855
21
-4.04231
0
LINE
8
BLACK
6
CONTINUOUS
10
3.22855
20
-4.04231
11
3.22874
21
-4.04245
0
LINE
8
BLACK
6
CONTINUOUS
10
3.22874
20
-4.04245
11
3.22889
21
-4.04323
0
LINE
8
BLACK
6
CONTINUOUS
10
3.22889
20
-4.04323
11
3.22916
21
-4.04398
0
LINE
8
BLACK
6
CONTINUOUS
10
3.22916
20
-4.04398
11
3.22916
21
-4.04891
0
LINE
8
BLACK
6
CONTINUOUS
10
3.22916
20
-4.04891
11
3.23051
21
-4.05161
0
LINE
8
BLACK
6
CONTINUOUS
10
3.23051
20
-4.05161
11
3.23171
21
-4.0528
0
LINE
8
BLACK
6
CONTINUOUS
10
3.23171
20
-4.0528
11
3.23441
21
-4.05415
0
LINE
8
BLACK
6
CONTINUOUS
10
3.23441
20
-4.05415
11
3.24239
21
-4.05415
0
LINE
8
BLACK
6
CONTINUOUS
10
3.24239
20
-4.05415
11
3.24508
21
-4.0528
0
LINE
8
BLACK
6
CONTINUOUS
10
3.24508
20
-4.0528
11
3.24628
21
-4.05161
0
LINE
8
BLACK
6
CONTINUOUS
10
3.24628
20
-4.05161
11
3.24763
21
-4.04891
0
LINE
8
BLACK
6
CONTINUOUS
10
3.24763
20
-4.04891
11
3.24763
21
-4.03905
0
LINE
8
BLACK
6
CONTINUOUS
10
3.24763
20
-4.03905
11
3.24628
21
-4.03636
0
LINE
8
BLACK
6
CONTINUOUS
10
3.24628
20
-4.03636
11
3.24475
21
-4.03482
0
LINE
8
BLACK
6
CONTINUOUS
10
3.24475
20
-4.03482
11
3.24416
21
-4.03398
0
LINE
8
BLACK
6
CONTINUOUS
10
3.24416
20
-4.03398
11
3.24398
21
-4.03197
0
LINE
8
BLACK
6
CONTINUOUS
10
3.24398
20
-4.03197
11
3.24514
21
-4.03031
0
LINE
8
BLACK
6
CONTINUOUS
10
3.24514
20
-4.03031
11
3.24709
21
-4.02979
0
LINE
8
BLACK
6
CONTINUOUS
10
3.24709
20
-4.02979
11
3.24892
21
-4.03065
0
LINE
8
BLACK
6
CONTINUOUS
10
3.24892
20
-3.93065
11
3.2508
21
-3.93252
0
LINE
8
BLACK
6
CONTINUOUS
10
3.2508
20
-3.93252
11
3.2513
21
-3.93324
0
LINE
8
BLACK
6
CONTINUOUS
10
3.2513
20
-3.93324
11
3.25135
21
-3.93329
0
LINE
8
BLACK
6
CONTINUOUS
10
3.25135
20
-3.93329
11
3.25322
21
-3.93704
0
LINE
8
BLACK
6
CONTINUOUS
10
3.25322
20
-3.93704
11
3.25333
21
-3.93738
0
LINE
8
BLACK
6
CONTINUOUS
10
3.25333
20
-3.93738
11
3.25333
21
-3.93641
0
LINE
8
BLACK
6
CONTINUOUS
10
3.25333
20
-3.93641
11
3.25351
21
-3.9354
0
LINE
8
BLACK
6
CONTINUOUS
10
3.25351
20
-3.9354
11
3.2548
21
-3.93385
0
LINE
8
BLACK
6
CONTINUOUS
10
3.2548
20
-3.93385
11
3.25679
21
-3.9335
0
LINE
8
BLACK
6
CONTINUOUS
10
3.25679
20
-3.9335
11
3.25854
21
-3.93451
0
LINE
8
BLACK
6
CONTINUOUS
10
3.25854
20
-3.93451
11
3.25923
21
-3.93641
0
LINE
8
BLACK
6
CONTINUOUS
10
3.25923
20
-3.93641
11
3.25923
21
-3.96405
0
LINE
8
BLACK
6
CONTINUOUS
10
3.25923
20
-3.96405
11
3.26074
21
-3.96856
0
LINE
8
BLACK
6
CONTINUOUS
10
3.26074
20
-3.96856
11
3.2635
21
-3.97132
0
LINE
8
BLACK
6
CONTINUOUS
10
3.2635
20
-3.97132
11
3.26801
21
-3.97283
0
LINE
8
BLACK
6
CONTINUOUS
10
3.26801
20
-3.97283
11
3.27128
21
-3.97283
0
LINE
8
BLACK
6
CONTINUOUS
10
3.27128
20
-3.97283
11
3.27229
21
-3.97301
0
LINE
8
BLACK
6
CONTINUOUS
10
3.27229
20
-3.97301
11
3.27384
21
-3.9743
0
LINE
8
BLACK
6
CONTINUOUS
10
3.27384
20
-3.9743
11
3.27419
21
-3.97629
0
LINE
8
BLACK
6
CONTINUOUS
10
3.27419
20
-3.97629
11
3.27318
21
-3.97804
0
LINE
8
BLACK
6
CONTINUOUS
10
3.27318
20
-3.97804
11
3.27128
21
-3.97873
0
LINE
8
BLACK
6
CONTINUOUS
10
3.27128
20
-3.97873
11
3.26753
21
-3.97873
0
LINE
8
BLACK
6
CONTINUOUS
10
3.26753
20
-3.97873
11
3.26666
21
-3.97858
0
LINE
8
BLACK
6
CONTINUOUS
10
3.26666
20
-3.97858
11
3.2666
21
-3.97858
0
LINE
8
BLACK
6
CONTINUOUS
10
3.2666
20
-3.97858
11
3.26097
21
-3.97671
0
LINE
8
BLACK
6
CONTINUOUS
10
3.26097
20
-3.97671
11
3.26007
21
-3.97622
0
LINE
8
BLACK
6
CONTINUOUS
10
3.26007
20
-3.97622
11
3.25998
21
-3.97607
0
LINE
8
BLACK
6
CONTINUOUS
10
3.25998
20
-3.97607
11
3.25982
21
-3.97599
0
LINE
8
BLACK
6
CONTINUOUS
10
3.25982
20
-3.97599
11
3.25607
21
-3.97224
0
LINE
8
BLACK
6
CONTINUOUS
10
3.25607
20
-3.97224
11
3.25548
21
-3.9714
0
LINE
8
BLACK
6
CONTINUOUS
10
3.25548
20
-3.9714
11
3.25546
21
-3.97123
0
LINE
8
BLACK
6
CONTINUOUS
10
3.25546
20
-3.97123
11
3.25535
21
-3.97109
0
LINE
8
BLACK
6
CONTINUOUS
10
3.25535
20
-3.97109
11
3.25348
21
-3.96547
0
LINE
8
BLACK
6
CONTINUOUS
10
3.25348
20
-3.96547
11
3.25335
21
-3.96459
0
LINE
8
BLACK
6
CONTINUOUS
10
3.25335
20
-3.96459
11
3.25333
21
-3.96453
0
LINE
8
BLACK
6
CONTINUOUS
10
3.25333
20
-3.96453
11
3.25333
21
-3.95065
0
LINE
8
BLACK
6
CONTINUOUS
10
3.25333
20
-3.95065
11
3.25324
21
-3.95075
0
LINE
8
BLACK
6
CONTINUOUS
10
3.25324
20
-3.95075
11
3.25322
21
-3.95093
0
LINE
8
BLACK
6
CONTINUOUS
10
3.25322
20
-3.95093
11
3.25135
21
-3.95468
0
LINE
8
BLACK
6
CONTINUOUS
10
3.25135
20
-3.95468
11
3.25082
21
-3.95539
0
LINE
8
BLACK
6
CONTINUOUS
10
3.25082
20
-3.95539
11
3.2508
21
-3.95544
0
LINE
8
BLACK
6
CONTINUOUS
10
3.2508
20
-3.95544
11
3.24892
21
-3.95732
0
LINE
8
BLACK
6
CONTINUOUS
10
3.24892
20
-3.95732
11
3.2482
21
-3.95782
0
LINE
8
BLACK
6
CONTINUOUS
10
3.2482
20
-3.95782
11
3.24815
21
-3.95787
0
LINE
8
BLACK
6
CONTINUOUS
10
3.24815
20
-3.95787
11
3.2444
21
-3.95975
0
LINE
8
BLACK
6
CONTINUOUS
10
3.2444
20
-3.95975
11
3.24342
21
-3.96004
0
LINE
8
BLACK
6
CONTINUOUS
10
3.24342
20
-3.96004
11
3.24325
21
-3.96
0
LINE
8
BLACK
6
CONTINUOUS
10
3.24325
20
-3.96
11
3.24308
21
-3.96006
0
LINE
8
BLACK
6
CONTINUOUS
10
3.24308
20
-3.96006
11
3.23371
21
-3.96006
0
LINE
8
BLACK
6
CONTINUOUS
10
3.23371
20
-3.96006
11
3.2327
21
-3.95988
0
LINE
8
BLACK
6
CONTINUOUS
10
3.2327
20
-3.95988
11
3.23257
21
-3.95977
0
LINE
8
BLACK
6
CONTINUOUS
10
3.23257
20
-3.95977
11
3.23239
21
-3.95975
0
LINE
8
BLACK
6
CONTINUOUS
10
3.23239
20
-3.95975
11
3.23111
21
-3.95911
0
LINE
8
BLACK
6
CONTINUOUS
10
3.23111
20
-3.95911
11
3.23111
21
-3.96952
0
LINE
8
BLACK
6
CONTINUOUS
10
3.23111
20
-3.96952
11
3.23154
21
-3.96982
0
LINE
8
BLACK
6
CONTINUOUS
10
3.23154
20
-3.96982
11
3.23236
21
-3.97038
0
LINE
8
BLACK
6
CONTINUOUS
10
3.23236
20
-3.97038
11
3.23236
21
-3.9704
0
LINE
8
BLACK
6
CONTINUOUS
10
3.23236
20
-3.9704
11
3.23238
21
-3.97041
0
LINE
8
BLACK
6
CONTINUOUS
10
3.23238
20
-3.97041
11
3.23264
21
-3.97137
0
LINE
8
BLACK
6
CONTINUOUS
10
3.23264
20
-3.97137
11
3.23291
21
-3.97232
0
LINE
8
BLACK
6
CONTINUOUS
10
3.23291
20
-3.97232
11
3.2329
21
-3.97234
0
LINE
8
BLACK
6
CONTINUOUS
10
3.2329
20
-3.97234
11
3.2329
21
-3.97236
0
LINE
8
BLACK
6
CONTINUOUS
10
3.2329
20
-3.97236
11
3.23268
21
-3.97283
0
LINE
8
BLACK
6
CONTINUOUS
10
3.23268
20
-3.97283
11
3.23941
21
-3.97283
0
LINE
8
BLACK
6
CONTINUOUS
10
3.23941
20
-3.97283
11
3.24042
21
-3.97301
0
LINE
8
BLACK
6
CONTINUOUS
10
3.24042
20
-3.97301
11
3.24196
21
-3.9743
0
LINE
8
BLACK
6
CONTINUOUS
10
3.24196
20
-3.9743
11
3.24232
21
-3.97629
0
LINE
8
BLACK
6
CONTINUOUS
10
3.24232
20
-3.97629
11
3.24131
21
-3.97804
0
LINE
8
BLACK
6
CONTINUOUS
10
3.24131
20
-3.97804
11
3.23941
21
-3.97873
0
LINE
8
BLACK
6
CONTINUOUS
10
3.23941
20
-3.97873
11
3.22916
21
-3.97873
0
LINE
8
BLACK
6
CONTINUOUS
10
3.22916
20
-3.97873
11
3.22916
21
-3.9864
0
LINE
8
BLACK
6
CONTINUOUS
10
3.22916
20
-3.9864
11
3.23051
21
-3.9891
0
LINE
8
BLACK
6
CONTINUOUS
10
3.23051
20
-3.9891
11
3.23171
21
-3.9903
0
LINE
8
BLACK
6
CONTINUOUS
10
3.23171
20
-3.9903
11
3.23441
21
-3.99165
0
LINE
8
BLACK
6
CONTINUOUS
10
3.23441
20
-3.99165
11
3.24239
21
-3.99165
0
LINE
8
BLACK
6
CONTINUOUS
10
3.24239
20
-3.99165
11
3.24508
21
-3.9903
0
LINE
8
BLACK
6
CONTINUOUS
10
3.24508
20
-3.9903
11
3.24628
21
-3.9891
0
LINE
8
BLACK
6
CONTINUOUS
10
3.24628
20
-3.9891
11
3.24763
21
-3.9864
0
LINE
8
BLACK
6
CONTINUOUS
10
3.24763
20
-3.9864
11
3.24763
21
-3.97842
0
LINE
8
BLACK
6
CONTINUOUS
10
3.24763
20
-3.97842
11
3.24628
21
-3.97573
0
LINE
8
BLACK
6
CONTINUOUS
10
3.24628
20
-3.97573
11
3.24475
21
-3.97419
0
LINE
8
BLACK
6
CONTINUOUS
10
3.24475
20
-3.97419
11
3.24416
21
-3.97335
0
LINE
8
BLACK
6
CONTINUOUS
10
3.24416
20
-3.97335
11
3.24398
21
-3.97134
0
LINE
8
BLACK
6
CONTINUOUS
10
3.24398
20
-3.97134
11
3.24514
21
-3.96968
0
LINE
8
BLACK
6
CONTINUOUS
10
3.24514
20
-3.96968
11
3.24709
21
-3.96916
0
LINE
8
BLACK
6
CONTINUOUS
10
3.24709
20
-3.96916
11
3.24892
21
-3.97002
0
LINE
8
BLACK
6
CONTINUOUS
10
3.24892
20
-3.97002
11
3.2508
21
-3.97189
0
LINE
8
BLACK
6
CONTINUOUS
10
3.2508
20
-3.97189
11
3.2513
21
-3.97261
0
LINE
8
BLACK
6
CONTINUOUS
10
3.2513
20
-3.97261
11
3.25135
21
-3.97266
0
LINE
8
BLACK
6
CONTINUOUS
10
3.25135
20
-3.97266
11
3.25322
21
-3.97641
0
LINE
8
BLACK
6
CONTINUOUS
10
3.25322
20
-3.97641
11
3.25352
21
-3.97739
0
LINE
8
BLACK
6
CONTINUOUS
10
3.25352
20
-3.97739
11
3.25348
21
-3.97756
0
LINE
8
BLACK
6
CONTINUOUS
10
3.25348
20
-3.97756
11
3.25354
21
-3.97773
0
LINE
8
BLACK
6
CONTINUOUS
10
3.25354
20
-3.97773
11
3.25354
21
-3.9871
0
LINE
8
BLACK
6
CONTINUOUS
10
3.25354
20
-3.9871
11
3.25336
21
-3.98811
0
LINE
8
BLACK
6
CONTINUOUS
10
3.25336
20
-3.98811
11
3.25324
21
-3.98825
0
LINE
8
BLACK
6
CONTINUOUS
10
3.25324
20
-3.98825
11
3.25322
21
-3.98842
0
LINE
8
BLACK
6
CONTINUOUS
10
3.25322
20
-3.98842
11
3.25135
21
-3.99217
0
LINE
8
BLACK
6
CONTINUOUS
10
3.25135
20
-3.99217
11
3.25082
21
-3.99288
0
LINE
8
BLACK
6
CONTINUOUS
10
3.25082
20
-3.99288
11
3.2508
21
-3.99294
0
LINE
8
BLACK
6
CONTINUOUS
10
3.2508
20
-3.99294
11
3.24892
21
-3.99481
0
LINE
8
BLACK
6
CONTINUOUS
10
3.24892
20
-3.99481
11
3.24882
21
-3.99488
0
LINE
8
BLACK
6
CONTINUOUS
10
3.24882
20
-3.99488
11
3.27677
21
-3.99488
0
LINE
8
BLACK
6
CONTINUOUS
10
3.27677
20
-3.99488
11
3.32441
21
-3.99488
0
LINE
8
BLACK
6
CONTINUOUS
10
3.32441
20
-3.99488
11
3.32608
21
-3.99557
0
LINE
8
BLACK
6
CONTINUOUS
10
3.32608
20
-3.99557
11
3.32677
21
-3.99724
0
LINE
8
BLACK
6
CONTINUOUS
10
3.32677
20
-3.99724
11
3.32608
21
-3.99891
0
LINE
8
BLACK
6
CONTINUOUS
10
3.32608
20
-3.99891
11
3.32441
21
-3.99961
0
LINE
8
BLACK
6
CONTINUOUS
10
3.32441
20
-3.99961
11
3.27913
21
-3.99961
0
LINE
8
BLACK
6
CONTINUOUS
10
3.27913
20
-3.99961
11
3.27913
21
-4.04961
0
LINE
8
BLACK
6
CONTINUOUS
10
3.27913
20
-4.04961
11
3.27844
21
-4.05128
0
LINE
8
BLACK
6
CONTINUOUS
10
3.27844
20
-4.05128
11
3.27677
21
-4.05197
0
LINE
8
BLACK
6
CONTINUOUS
10
3.27677
20
-4.05197
11
3.2751
21
-4.05128
0
LINE
8
BLACK
6
CONTINUOUS
10
3.2751
20
-4.05128
11
3.27441
21
-4.04961
0
LINE
8
BLACK
6
CONTINUOUS
10
3.27441
20
-4.04961
11
3.27372
21
-4.05128
0
LINE
8
BLACK
6
CONTINUOUS
10
3.27372
20
-4.05128
11
3.27205
21
-4.05197
0
LINE
8
BLACK
6
CONTINUOUS
10
3.27205
20
-4.05197
11
3.27038
21
-4.05128
0
LINE
8
BLACK
6
CONTINUOUS
10
3.27038
20
-4.05128
11
3.26969
21
-4.04961
0
LINE
8
BLACK
6
CONTINUOUS
10
3.26969
20
-4.04961
11
3.26969
21
-3.99961
0
LINE
8
BLACK
6
CONTINUOUS
10
3.26969
20
-3.99961
11
3.22441
21
-3.99961
0
LINE
8
BLACK
6
CONTINUOUS
10
3.22441
20
-3.99961
11
3.22274
21
-3.99891
0
LINE
8
BLACK
6
CONTINUOUS
10
3.22274
20
-3.99891
11
3.22205
21
-3.99724
0
LINE
8
BLACK
6
CONTINUOUS
10
3.22205
20
-3.99724
11
3.22274
21
-3.99557
0
LINE
8
BLACK
6
CONTINUOUS
10
3.22274
20
-3.99557
11
3.22441
21
-3.99488
0
LINE
8
BLACK
6
CONTINUOUS
10
3.22441
20
-3.99488
11
3.22799
21
-3.99488
0
LINE
8
BLACK
6
CONTINUOUS
10
3.22799
20
-3.99488
11
3.22793
21
-3.99484
0
LINE
8
BLACK
6
CONTINUOUS
10
3.22793
20
-3.99484
11
3.22787
21
-3.99481
0
LINE
8
BLACK
6
CONTINUOUS
10
3.22787
20
-3.99481
11
3.226
21
-3.99294
0
LINE
8
BLACK
6
CONTINUOUS
10
3.226
20
-3.99294
11
3.22549
21
-3.99222
0
LINE
8
BLACK
6
CONTINUOUS
10
3.22549
20
-3.99222
11
3.22545
21
-3.99217
0
LINE
8
BLACK
6
CONTINUOUS
10
3.22545
20
-3.99217
11
3.22357
21
-3.98842
0
LINE
8
BLACK
6
CONTINUOUS
10
3.22357
20
-3.98842
11
3.22328
21
-3.98744
0
LINE
8
BLACK
6
CONTINUOUS
10
3.22328
20
-3.98744
11
3.22332
21
-3.98727
0
LINE
8
BLACK
6
CONTINUOUS
10
3.22332
20
-3.98727
11
3.22326
21
-3.9871
0
LINE
8
BLACK
6
CONTINUOUS
10
3.22326
20
-3.9871
11
3.22326
21
-3.97873
0
LINE
8
BLACK
6
CONTINUOUS
10
3.22326
20
-3.97873
11
3.21691
21
-3.97873
0
LINE
8
BLACK
6
CONTINUOUS
10
3.21691
20
-3.97873
11
3.2159
21
-3.97855
0
LINE
8
BLACK
6
CONTINUOUS
10
3.2159
20
-3.97855
11
3.21435
21
-3.97726
0
LINE
8
BLACK
6
CONTINUOUS
10
3.21435
20
-3.97726
11
3.21424
21
-3.97664
0
LINE
8
BLACK
6
CONTINUOUS
10
3.21424
20
-3.97664
11
3.21417
21
-3.97665
0
LINE
8
BLACK
6
CONTINUOUS
10
3.21417
20
-3.97665
11
3.21417
21
-3.99273
0
LINE
8
BLACK
6
CONTINUOUS
10
3.21417
20
-3.99273
11
3.21399
21
-3.99374
0
LINE
8
BLACK
6
CONTINUOUS
10
3.21399
20
-3.99374
11
3.21269
21
-3.99528
0
LINE
8
BLACK
6
CONTINUOUS
10
3.21269
20
-3.99528
11
3.2107
21
-3.99563
0
LINE
8
BLACK
6
CONTINUOUS
10
3.2107
20
-3.99563
11
3.20895
21
-3.99462
0
LINE
8
BLACK
6
CONTINUOUS
10
3.20895
20
-3.99462
11
3.20826
21
-3.99273
0
LINE
8
BLACK
6
CONTINUOUS
10
3.20826
20
-3.99273
11
3.20826
21
-3.97398
0
LINE
8
BLACK
6
CONTINUOUS
10
3.20826
20
-3.97398
11
3.20829
21
-3.97382
0
LINE
8
BLACK
6
CONTINUOUS
10
3.20829
20
-3.97382
11
3.20827
21
-3.97376
0
LINE
8
BLACK
6
CONTINUOUS
10
3.20827
20
-3.97376
11
3.20832
21
-3.97365
0
LINE
8
BLACK
6
CONTINUOUS
10
3.20832
20
-3.97365
11
3.20844
21
-3.97297
0
LINE
8
BLACK
6
CONTINUOUS
10
3.20844
20
-3.97297
11
3.20884
21
-3.97249
0
LINE
8
BLACK
6
CONTINUOUS
10
3.20884
20
-3.97249
11
3.2091
21
-3.97192
0
LINE
8
BLACK
6
CONTINUOUS
10
3.2091
20
-3.97192
11
3.20947
21
-3.97174
0
LINE
8
BLACK
6
CONTINUOUS
10
3.20947
20
-3.97174
11
3.20974
21
-3.97142
0
LINE
8
BLACK
6
CONTINUOUS
10
3.20974
20
-3.97142
11
3.21035
21
-3.97131
0
LINE
8
BLACK
6
CONTINUOUS
10
3.21035
20
-3.97131
11
3.21092
21
-3.97104
0
LINE
8
BLACK
6
CONTINUOUS
10
3.21092
20
-3.97104
11
3.22521
21
-3.96961
0
LINE
8
BLACK
6
CONTINUOUS
10
3.22521
20
-3.96961
11
3.22521
21
-3.9542
0
LINE
8
BLACK
6
CONTINUOUS
10
3.22521
20
-3.9542
11
3.22357
21
-3.95093
0
LINE
8
BLACK
6
CONTINUOUS
10
3.22357
20
-3.95093
11
3.2234
21
-3.95036
0
LINE
8
BLACK
6
CONTINUOUS
10
3.2234
20
-3.95036
11
3.21316
21
-3.95933
0
LINE
8
BLACK
6
CONTINUOUS
10
3.21316
20
-3.95933
11
3.21278
21
-3.95956
0
LINE
8
BLACK
6
CONTINUOUS
10
3.21278
20
-3.95956
11
3.21269
21
-3.95966
0
LINE
8
BLACK
6
CONTINUOUS
10
3.21269
20
-3.95966
11
3.21257
21
-3.95968
0
LINE
8
BLACK
6
CONTINUOUS
10
3.21257
20
-3.95968
11
3.21228
21
-3.95986
0
LINE
8
BLACK
6
CONTINUOUS
10
3.21228
20
-3.95986
11
3.21148
21
-3.95987
0
LINE
8
BLACK
6
CONTINUOUS
10
3.21148
20
-3.95987
11
3.2107
21
-3.96001
0
LINE
8
BLACK
6
CONTINUOUS
10
3.2107
20
-3.96001
11
3.2105
21
-3.9599
0
LINE
8
BLACK
6
CONTINUOUS
10
3.2105
20
-3.9599
11
3.21026
21
-3.9599
0
LINE
8
BLACK
6
CONTINUOUS
10
3.21026
20
-3.9599
11
3.20964
21
-3.9594
0
LINE
8
BLACK
6
CONTINUOUS
10
3.20964
20
-3.9594
11
3.20895
21
-3.959
0
LINE
8
BLACK
6
CONTINUOUS
10
3.20895
20
-3.959
11
3.20887
21
-3.95878
0
LINE
8
BLACK
6
CONTINUOUS
10
3.20887
20
-3.95878
11
3.20869
21
-3.95863
0
LINE
8
BLACK
6
CONTINUOUS
10
3.20869
20
-3.95863
11
3.20853
21
-3.95785
0
LINE
8
BLACK
6
CONTINUOUS
10
3.20853
20
-3.95785
11
3.20826
21
-3.95711
0
LINE
8
BLACK
6
CONTINUOUS
10
3.20826
20
-3.95711
11
3.20826
21
-3.93273
0
LINE
8
BLACK
6
CONTINUOUS
10
3.20826
20
-3.93273
11
3.20844
21
-3.93172
0
LINE
8
BLACK
6
CONTINUOUS
10
3.20844
20
-3.93172
11
3.20974
21
-3.93018
0
LINE
8
BLACK
6
CONTINUOUS
10
3.20974
20
-3.93018
11
3.21173
21
-3.92983
0
LINE
8
BLACK
6
CONTINUOUS
10
3.21173
20
-3.92983
11
3.21348
21
-3.93084
0
LINE
8
BLACK
6
CONTINUOUS
10
3.21348
20
-3.93084
11
3.21417
21
-3.93273
0
LINE
8
BLACK
6
CONTINUOUS
10
3.21417
20
-3.93273
11
3.21417
21
-3.9506
0
LINE
8
BLACK
6
CONTINUOUS
10
3.21417
20
-3.9506
11
3.22427
21
-3.94176
0
LINE
8
BLACK
6
CONTINUOUS
10
3.22427
20
-3.94176
11
3.22465
21
-3.94153
0
LINE
8
BLACK
6
CONTINUOUS
10
3.22465
20
-3.94153
11
3.22474
21
-3.94142
0
LINE
8
BLACK
6
CONTINUOUS
10
3.22474
20
-3.94142
11
3.22486
21
-3.9414
0
LINE
8
BLACK
6
CONTINUOUS
10
3.22486
20
-3.9414
11
3.22514
21
-3.94123
0
LINE
8
BLACK
6
CONTINUOUS
10
3.22514
20
-3.94123
11
3.22521
21
-3.94123
0
LINE
8
BLACK
6
CONTINUOUS
10
3.22521
20
-3.94123
11
3.22521
21
-3.93641
0
LINE
8
BLACK
6
CONTINUOUS
10
3.22521
20
-3.93641
11
3.22538
21
-3.9354
0
LINE
8
BLACK
6
CONTINUOUS
10
3.22538
20
-3.9354
11
3.22549
21
-3.93527
0
LINE
8
BLACK
6
CONTINUOUS
10
3.22549
20
-3.93527
11
3.22551
21
-3.9351
0
LINE
8
BLACK
6
CONTINUOUS
10
3.22551
20
-3.9351
11
3.22613
21
-3.93451
0
LINE
8
BLACK
6
CONTINUOUS
10
3.22613
20
-3.93451
11
3.22668
21
-3.93385
0
LINE
8
BLACK
6
CONTINUOUS
10
3.22668
20
-3.93385
11
3.22685
21
-3.93382
0
LINE
8
BLACK
6
CONTINUOUS
10
3.22685
20
-3.93382
11
3.22697
21
-3.93371
0
LINE
8
BLACK
6
CONTINUOUS
10
3.22697
20
-3.93371
11
3.22783
21
-3.93365
0
LINE
8
BLACK
6
CONTINUOUS
10
3.22783
20
-3.93365
11
3.22867
21
-3.9335
0
LINE
8
BLACK
6
CONTINUOUS
10
3.22867
20
-3.9335
11
3.22882
21
-3.93359
0
LINE
8
BLACK
6
CONTINUOUS
10
3.22882
20
-3.93359
11
3.22899
21
-3.93358
0
LINE
8
BLACK
6
CONTINUOUS
10
3.22899
20
-3.93358
11
3.22968
21
-3.93408
0
LINE
8
BLACK
6
CONTINUOUS
10
3.22968
20
-3.93408
11
3.23042
21
-3.93451
0
LINE
8
BLACK
6
CONTINUOUS
10
3.23042
20
-3.93451
11
3.23048
21
-3.93467
0
LINE
8
BLACK
6
CONTINUOUS
10
3.23048
20
-3.93467
11
3.23062
21
-3.93477
0
LINE
8
BLACK
6
CONTINUOUS
10
3.23062
20
-3.93477
11
3.2342
21
-3.94015
0
LINE
8
BLACK
6
CONTINUOUS
10
3.2342
20
-3.94015
11
3.23741
21
-3.94336
0
LINE
8
BLACK
6
CONTINUOUS
10
3.23741
20
-3.94336
11
3.24073
21
-3.94502
0
LINE
8
BLACK
6
CONTINUOUS
10
3.24073
20
-3.94502
11
3.24155
21
-3.94563
0
LINE
8
BLACK
6
CONTINUOUS
10
3.24155
20
-3.94563
11
3.24235
21
-3.94748
0
LINE
8
BLACK
6
CONTINUOUS
10
3.24235
20
-3.94748
11
3.24178
21
-3.94942
0
LINE
8
BLACK
6
CONTINUOUS
10
3.24178
20
-3.94942
11
3.24009
21
-3.95053
0
LINE
8
BLACK
6
CONTINUOUS
10
3.24009
20
-3.95053
11
3.23809
21
-3.9503
0
LINE
8
BLACK
6
CONTINUOUS
10
3.23809
20
-3.9503
11
3.23434
21
-3.94843
0
LINE
8
BLACK
6
CONTINUOUS
10
3.23434
20
-3.94843
11
3.23363
21
-3.9479
0
LINE
8
BLACK
6
CONTINUOUS
10
3.23363
20
-3.9479
11
3.23357
21
-3.94787
0
LINE
8
BLACK
6
CONTINUOUS
10
3.23357
20
-3.94787
11
3.23111
21
-3.94541
0
LINE
8
BLACK
6
CONTINUOUS
10
3.23111
20
-3.94541
11
3.23111
21
-3.95221
0
LINE
8
BLACK
6
CONTINUOUS
10
3.23111
20
-3.95221
11
3.23171
21
-3.9528
0
LINE
8
BLACK
6
CONTINUOUS
10
3.23171
20
-3.9528
11
3.23441
21
-3.95415
0
LINE
8
BLACK
6
CONTINUOUS
10
3.23441
20
-3.95415
11
3.24239
21
-3.95415
0
LINE
8
BLACK
6
CONTINUOUS
10
3.24239
20
-3.95415
11
3.24508
21
-3.9528
0
LINE
8
BLACK
6
CONTINUOUS
10
3.24508
20
-3.9528
11
3.24628
21
-3.95161
0
LINE
8
BLACK
6
CONTINUOUS
10
3.24628
20
-3.95161
11
3.24763
21
-3.94891
0
LINE
8
BLACK
6
CONTINUOUS
10
3.24763
20
-3.94891
11
3.24763
21
-3.93905
0
LINE
8
BLACK
6
CONTINUOUS
10
3.24763
20
-3.93905
11
3.24628
21
-3.93636
0
LINE
8
BLACK
6
CONTINUOUS
10
3.24628
20
-3.93636
11
3.24475
21
-3.93482
0
LINE
8
BLACK
6
CONTINUOUS
10
3.24475
20
-3.93482
11
3.24416
21
-3.93398
0
LINE
8
BLACK
6
CONTINUOUS
10
3.24416
20
-3.93398
11
3.24398
21
-3.93197
0
LINE
8
BLACK
6
CONTINUOUS
10
3.24398
20
-3.93197
11
3.24514
21
-3.93031
0
LINE
8
BLACK
6
CONTINUOUS
10
3.24514
20
-3.93031
11
3.24709
21
-3.92979
0
LINE
8
BLACK
6
CONTINUOUS
10
3.24709
20
-3.92979
11
3.24892
21
-3.93065
0
LINE
8
BLACK
6
CONTINUOUS
10
3.25285
20
-4.00084
11
3.25354
21
-4.00274
0
LINE
8
BLACK
6
CONTINUOUS
10
3.25354
20
-4.00274
11
3.25354
21
-4.00649
0
LINE
8
BLACK
6
CONTINUOUS
10
3.25354
20
-4.00649
11
3.25338
21
-4.00736
0
LINE
8
BLACK
6
CONTINUOUS
10
3.25338
20
-4.00736
11
3.25338
21
-4.00742
0
LINE
8
BLACK
6
CONTINUOUS
10
3.25338
20
-4.00742
11
3.25151
21
-4.01304
0
LINE
8
BLACK
6
CONTINUOUS
10
3.25151
20
-4.01304
11
3.25102
21
-4.01395
0
LINE
8
BLACK
6
CONTINUOUS
10
3.25102
20
-4.01395
11
3.25087
21
-4.01404
0
LINE
8
BLACK
6
CONTINUOUS
10
3.25087
20
-4.01404
11
3.2508
21
-4.0142
0
LINE
8
BLACK
6
CONTINUOUS
10
3.2508
20
-4.0142
11
3.24705
21
-4.01795
0
LINE
8
BLACK
6
CONTINUOUS
10
3.24705
20
-4.01795
11
3.24621
21
-4.01854
0
LINE
8
BLACK
6
CONTINUOUS
10
3.24621
20
-4.01854
11
3.24603
21
-4.01855
0
LINE
8
BLACK
6
CONTINUOUS
10
3.24603
20
-4.01855
11
3.24589
21
-4.01866
0
LINE
8
BLACK
6
CONTINUOUS
10
3.24589
20
-4.01866
11
3.24027
21
-4.02054
0
LINE
8
BLACK
6
CONTINUOUS
10
3.24027
20
-4.02054
11
3.2394
21
-4.02067
0
LINE
8
BLACK
6
CONTINUOUS
10
3.2394
20
-4.02067
11
3.23933
21
-4.02069
0
LINE
8
BLACK
6
CONTINUOUS
10
3.23933
20
-4.02069
11
3.21121
21
-4.02069
0
LINE
8
BLACK
6
CONTINUOUS
10
3.21121
20
-4.02069
11
3.2102
21
-4.02051
0
LINE
8
BLACK
6
CONTINUOUS
10
3.2102
20
-4.02051
11
3.20866
21
-4.01921
0
LINE
8
BLACK
6
CONTINUOUS
10
3.20866
20
-4.01921
11
3.20831
21
-4.01722
0
LINE
8
BLACK
6
CONTINUOUS
10
3.20831
20
-4.01722
11
3.20932
21
-4.01547
0
LINE
8
BLACK
6
CONTINUOUS
10
3.20932
20
-4.01547
11
3.21121
21
-4.01478
0
LINE
8
BLACK
6
CONTINUOUS
10
3.21121
20
-4.01478
11
3.23886
21
-4.01478
0
LINE
8
BLACK
6
CONTINUOUS
10
3.23886
20
-4.01478
11
3.24336
21
-4.01328
0
LINE
8
BLACK
6
CONTINUOUS
10
3.24336
20
-4.01328
11
3.24613
21
-4.01052
0
LINE
8
BLACK
6
CONTINUOUS
10
3.24613
20
-4.01052
11
3.24763
21
-4.00601
0
LINE
8
BLACK
6
CONTINUOUS
10
3.24763
20
-4.00601
11
3.24763
21
-4.00274
0
LINE
8
BLACK
6
CONTINUOUS
10
3.24763
20
-4.00274
11
3.24781
21
-4.00173
0
LINE
8
BLACK
6
CONTINUOUS
10
3.24781
20
-4.00173
11
3.24911
21
-4.00018
0
LINE
8
BLACK
6
CONTINUOUS
10
3.24911
20
-4.00018
11
3.2511
21
-3.99983
0
LINE
8
BLACK
6
CONTINUOUS
10
3.2511
20
-3.99983
11
3.25285
21
-4.00084
0
LINE
8
BLACK
6
CONTINUOUS
10
3.19132
20
-3.93359
11
3.19149
21
-3.93358
0
LINE
8
BLACK
6
CONTINUOUS
10
3.19149
20
-3.93358
11
3.19218
21
-3.93408
0
LINE
8
BLACK
6
CONTINUOUS
10
3.19218
20
-3.93408
11
3.19293
21
-3.93451
0
LINE
8
BLACK
6
CONTINUOUS
10
3.19293
20
-3.93451
11
3.19298
21
-3.93467
0
LINE
8
BLACK
6
CONTINUOUS
10
3.19298
20
-3.93467
11
3.19312
21
-3.93477
0
LINE
8
BLACK
6
CONTINUOUS
10
3.19312
20
-3.93477
11
3.19671
21
-3.94015
0
LINE
8
BLACK
6
CONTINUOUS
10
3.19671
20
-3.94015
11
3.19991
21
-3.94336
0
LINE
8
BLACK
6
CONTINUOUS
10
3.19991
20
-3.94336
11
3.20323
21
-3.94502
0
LINE
8
BLACK
6
CONTINUOUS
10
3.20323
20
-3.94502
11
3.20406
21
-3.94563
0
LINE
8
BLACK
6
CONTINUOUS
10
3.20406
20
-3.94563
11
3.20486
21
-3.94748
0
LINE
8
BLACK
6
CONTINUOUS
10
3.20486
20
-3.94748
11
3.20428
21
-3.94942
0
LINE
8
BLACK
6
CONTINUOUS
10
3.20428
20
-3.94942
11
3.2026
21
-3.95053
0
LINE
8
BLACK
6
CONTINUOUS
10
3.2026
20
-3.95053
11
3.20059
21
-3.9503
0
LINE
8
BLACK
6
CONTINUOUS
10
3.20059
20
-3.9503
11
3.19684
21
-3.94843
0
LINE
8
BLACK
6
CONTINUOUS
10
3.19684
20
-3.94843
11
3.19613
21
-3.9479
0
LINE
8
BLACK
6
CONTINUOUS
10
3.19613
20
-3.9479
11
3.19607
21
-3.94787
0
LINE
8
BLACK
6
CONTINUOUS
10
3.19607
20
-3.94787
11
3.19362
21
-3.94541
0
LINE
8
BLACK
6
CONTINUOUS
10
3.19362
20
-3.94541
11
3.19362
21
-3.97283
0
LINE
8
BLACK
6
CONTINUOUS
10
3.19362
20
-3.97283
11
3.20191
21
-3.97283
0
LINE
8
BLACK
6
CONTINUOUS
10
3.20191
20
-3.97283
11
3.20292
21
-3.97301
0
LINE
8
BLACK
6
CONTINUOUS
10
3.20292
20
-3.97301
11
3.20447
21
-3.9743
0
LINE
8
BLACK
6
CONTINUOUS
10
3.20447
20
-3.9743
11
3.20482
21
-3.97629
0
LINE
8
BLACK
6
CONTINUOUS
10
3.20482
20
-3.97629
11
3.20381
21
-3.97804
0
LINE
8
BLACK
6
CONTINUOUS
10
3.20381
20
-3.97804
11
3.20191
21
-3.97873
0
LINE
8
BLACK
6
CONTINUOUS
10
3.20191
20
-3.97873
11
3.17942
21
-3.97873
0
LINE
8
BLACK
6
CONTINUOUS
10
3.17942
20
-3.97873
11
3.17841
21
-3.97855
0
LINE
8
BLACK
6
CONTINUOUS
10
3.17841
20
-3.97855
11
3.17686
21
-3.97726
0
LINE
8
BLACK
6
CONTINUOUS
10
3.17686
20
-3.97726
11
3.17651
21
-3.97527
0
LINE
8
BLACK
6
CONTINUOUS
10
3.17651
20
-3.97527
11
3.17752
21
-3.97352
0
LINE
8
BLACK
6
CONTINUOUS
10
3.17752
20
-3.97352
11
3.17942
21
-3.97283
0
LINE
8
BLACK
6
CONTINUOUS
10
3.17942
20
-3.97283
11
3.18771
21
-3.97283
0
LINE
8
BLACK
6
CONTINUOUS
10
3.18771
20
-3.97283
11
3.18771
21
-3.93641
0
LINE
8
BLACK
6
CONTINUOUS
10
3.18771
20
-3.93641
11
3.18789
21
-3.9354
0
LINE
8
BLACK
6
CONTINUOUS
10
3.18789
20
-3.9354
11
3.188
21
-3.93527
0
LINE
8
BLACK
6
CONTINUOUS
10
3.188
20
-3.93527
11
3.18802
21
-3.9351
0
LINE
8
BLACK
6
CONTINUOUS
10
3.18802
20
-3.9351
11
3.18864
21
-3.93451
0
LINE
8
BLACK
6
CONTINUOUS
10
3.18864
20
-3.93451
11
3.18919
21
-3.93385
0
LINE
8
BLACK
6
CONTINUOUS
10
3.18919
20
-3.93385
11
3.18935
21
-3.93382
0
LINE
8
BLACK
6
CONTINUOUS
10
3.18935
20
-3.93382
11
3.18948
21
-3.93371
0
LINE
8
BLACK
6
CONTINUOUS
10
3.18948
20
-3.93371
11
3.19033
21
-3.93365
0
LINE
8
BLACK
6
CONTINUOUS
10
3.19033
20
-3.93365
11
3.19118
21
-3.9335
0
LINE
8
BLACK
6
CONTINUOUS
10
3.19118
20
-3.9335
11
3.19132
21
-3.93359
0
LINE
8
BLACK
6
CONTINUOUS
10
3.32608
20
-3.89557
11
3.32677
21
-3.89724
0
LINE
8
BLACK
6
CONTINUOUS
10
3.32677
20
-3.89724
11
3.32608
21
-3.89891
0
LINE
8
BLACK
6
CONTINUOUS
10
3.32608
20
-3.89891
11
3.32441
21
-3.89961
0
LINE
8
BLACK
6
CONTINUOUS
10
3.32441
20
-3.89961
11
3.27441
21
-3.89961
0
LINE
8
BLACK
6
CONTINUOUS
10
3.27441
20
-3.89961
11
3.27441
21
-3.94961
0
LINE
8
BLACK
6
CONTINUOUS
10
3.27441
20
-3.94961
11
3.27372
21
-3.95128
0
LINE
8
BLACK
6
CONTINUOUS
10
3.27372
20
-3.95128
11
3.27205
21
-3.95197
0
LINE
8
BLACK
6
CONTINUOUS
10
3.27205
20
-3.95197
11
3.27038
21
-3.95128
0
LINE
8
BLACK
6
CONTINUOUS
10
3.27038
20
-3.95128
11
3.26969
21
-3.94961
0
LINE
8
BLACK
6
CONTINUOUS
10
3.26969
20
-3.94961
11
3.26969
21
-3.89724
0
LINE
8
BLACK
6
CONTINUOUS
10
3.26969
20
-3.89724
11
3.27038
21
-3.89557
0
LINE
8
BLACK
6
CONTINUOUS
10
3.27038
20
-3.89557
11
3.27205
21
-3.89488
0
LINE
8
BLACK
6
CONTINUOUS
10
3.27205
20
-3.89488
11
3.32441
21
-3.89488
0
LINE
8
BLACK
6
CONTINUOUS
10
3.32441
20
-3.89488
11
3.32608
21
-3.89557
0
LINE
8
BLACK
6
CONTINUOUS
10
3.25285
20
-3.90084
11
3.25354
21
-3.90274
0
LINE
8
BLACK
6
CONTINUOUS
10
3.25354
20
-3.90274
11
3.25354
21
-3.90649
0
LINE
8
BLACK
6
CONTINUOUS
10
3.25354
20
-3.90649
11
3.25338
21
-3.90736
0
LINE
8
BLACK
6
CONTINUOUS
10
3.25338
20
-3.90736
11
3.25338
21
-3.90742
0
LINE
8
BLACK
6
CONTINUOUS
10
3.25338
20
-3.90742
11
3.25151
21
-3.91304
0
LINE
8
BLACK
6
CONTINUOUS
10
3.25151
20
-3.91304
11
3.25102
21
-3.91395
0
LINE
8
BLACK
6
CONTINUOUS
10
3.25102
20
-3.91395
11
3.25087
21
-3.91404
0
LINE
8
BLACK
6
CONTINUOUS
10
3.25087
20
-3.91404
11
3.2508
21
-3.9142
0
LINE
8
BLACK
6
CONTINUOUS
10
3.2508
20
-3.9142
11
3.24705
21
-3.91795
0
LINE
8
BLACK
6
CONTINUOUS
10
3.24705
20
-3.91795
11
3.24621
21
-3.91854
0
LINE
8
BLACK
6
CONTINUOUS
10
3.24621
20
-3.91854
11
3.24603
21
-3.91855
0
LINE
8
BLACK
6
CONTINUOUS
10
3.24603
20
-3.91855
11
3.24589
21
-3.91866
0
LINE
8
BLACK
6
CONTINUOUS
10
3.24589
20
-3.91866
11
3.24027
21
-3.92054
0
LINE
8
BLACK
6
CONTINUOUS
10
3.24027
20
-3.92054
11
3.2394
21
-3.92067
0
LINE
8
BLACK
6
CONTINUOUS
10
3.2394
20
-3.92067
11
3.23933
21
-3.92069
0
LINE
8
BLACK
6
CONTINUOUS
10
3.23933
20
-3.92069
11
3.21121
21
-3.92069
0
LINE
8
BLACK
6
CONTINUOUS
10
3.21121
20
-3.92069
11
3.2102
21
-3.92051
0
LINE
8
BLACK
6
CONTINUOUS
10
3.2102
20
-3.92051
11
3.20866
21
-3.91921
0
LINE
8
BLACK
6
CONTINUOUS
10
3.20866
20
-3.91921
11
3.20831
21
-3.91722
0
LINE
8
BLACK
6
CONTINUOUS
10
3.20831
20
-3.91722
11
3.20932
21
-3.91547
0
LINE
8
BLACK
6
CONTINUOUS
10
3.20932
20
-3.91547
11
3.21121
21
-3.91478
0
LINE
8
BLACK
6
CONTINUOUS
10
3.21121
20
-3.91478
11
3.23886
21
-3.91478
0
LINE
8
BLACK
6
CONTINUOUS
10
3.23886
20
-3.91478
11
3.24336
21
-3.91328
0
LINE
8
BLACK
6
CONTINUOUS
10
3.24336
20
-3.91328
11
3.24613
21
-3.91052
0
LINE
8
BLACK
6
CONTINUOUS
10
3.24613
20
-3.91052
11
3.24763
21
-3.90601
0
LINE
8
BLACK
6
CONTINUOUS
10
3.24763
20
-3.90601
11
3.24763
21
-3.90274
0
LINE
8
BLACK
6
CONTINUOUS
10
3.24763
20
-3.90274
11
3.24781
21
-3.90173
0
LINE
8
BLACK
6
CONTINUOUS
10
3.24781
20
-3.90173
11
3.24911
21
-3.90018
0
LINE
8
BLACK
6
CONTINUOUS
10
3.24911
20
-3.90018
11
3.2511
21
-3.89983
0
LINE
8
BLACK
6
CONTINUOUS
10
3.2511
20
-3.89983
11
3.25285
21
-3.90084
0
LINE
8
BLACK
6
CONTINUOUS
10
5.23468
20
-3.84864
11
5.23481
21
-3.84863
0
LINE
8
BLACK
6
CONTINUOUS
10
5.23481
20
-3.84863
11
5.23554
21
-3.84914
0
LINE
8
BLACK
6
CONTINUOUS
10
5.23554
20
-3.84914
11
5.23631
21
-3.84958
0
LINE
8
BLACK
6
CONTINUOUS
10
5.23631
20
-3.84958
11
5.23636
21
-3.84971
0
LINE
8
BLACK
6
CONTINUOUS
10
5.23636
20
-3.84971
11
5.23647
21
-3.84979
0
LINE
8
BLACK
6
CONTINUOUS
10
5.23647
20
-3.84979
11
5.2367
21
-3.85065
0
LINE
8
BLACK
6
CONTINUOUS
10
5.2367
20
-3.85065
11
5.237
21
-3.85148
0
LINE
8
BLACK
6
CONTINUOUS
10
5.237
20
-3.85148
11
5.237
21
-3.87585
0
LINE
8
BLACK
6
CONTINUOUS
10
5.237
20
-3.87585
11
5.23682
21
-3.87686
0
LINE
8
BLACK
6
CONTINUOUS
10
5.23682
20
-3.87686
11
5.23552
21
-3.87841
0
LINE
8
BLACK
6
CONTINUOUS
10
5.23552
20
-3.87841
11
5.23354
21
-3.87876
0
LINE
8
BLACK
6
CONTINUOUS
10
5.23354
20
-3.87876
11
5.23179
21
-3.87775
0
LINE
8
BLACK
6
CONTINUOUS
10
5.23179
20
-3.87775
11
5.2311
21
-3.87585
0
LINE
8
BLACK
6
CONTINUOUS
10
5.2311
20
-3.87585
11
5.2311
21
-3.85861
0
LINE
8
BLACK
6
CONTINUOUS
10
5.2311
20
-3.85861
11
5.21364
21
-3.87607
0
LINE
8
BLACK
6
CONTINUOUS
10
5.21364
20
-3.87607
11
5.2128
21
-3.87665
0
LINE
8
BLACK
6
CONTINUOUS
10
5.2128
20
-3.87665
11
5.21262
21
-3.87667
0
LINE
8
BLACK
6
CONTINUOUS
10
5.21262
20
-3.87667
11
5.21248
21
-3.87678
0
LINE
8
BLACK
6
CONTINUOUS
10
5.21248
20
-3.87678
11
5.20686
21
-3.87865
0
LINE
8
BLACK
6
CONTINUOUS
10
5.20686
20
-3.87865
11
5.20599
21
-3.87878
0
LINE
8
BLACK
6
CONTINUOUS
10
5.20599
20
-3.87878
11
5.20593
21
-3.87881
0
LINE
8
BLACK
6
CONTINUOUS
10
5.20593
20
-3.87881
11
5.20218
21
-3.87881
0
LINE
8
BLACK
6
CONTINUOUS
10
5.20218
20
-3.87881
11
5.20117
21
-3.87863
0
LINE
8
BLACK
6
CONTINUOUS
10
5.20117
20
-3.87863
11
5.20103
21
-3.87851
0
LINE
8
BLACK
6
CONTINUOUS
10
5.20103
20
-3.87851
11
5.20086
21
-3.87849
0
LINE
8
BLACK
6
CONTINUOUS
10
5.20086
20
-3.87849
11
5.19711
21
-3.87662
0
LINE
8
BLACK
6
CONTINUOUS
10
5.19711
20
-3.87662
11
5.1964
21
-3.87609
0
LINE
8
BLACK
6
CONTINUOUS
10
5.1964
20
-3.87609
11
5.19634
21
-3.87607
0
LINE
8
BLACK
6
CONTINUOUS
10
5.19634
20
-3.87607
11
5.19446
21
-3.87419
0
LINE
8
BLACK
6
CONTINUOUS
10
5.19446
20
-3.87419
11
5.19396
21
-3.87347
0
LINE
8
BLACK
6
CONTINUOUS
10
5.19396
20
-3.87347
11
5.19391
21
-3.87342
0
LINE
8
BLACK
6
CONTINUOUS
10
5.19391
20
-3.87342
11
5.19204
21
-3.86967
0
LINE
8
BLACK
6
CONTINUOUS
10
5.19204
20
-3.86967
11
5.19174
21
-3.86869
0
LINE
8
BLACK
6
CONTINUOUS
10
5.19174
20
-3.86869
11
5.19179
21
-3.86852
0
LINE
8
BLACK
6
CONTINUOUS
10
5.19179
20
-3.86852
11
5.19173
21
-3.86835
0
LINE
8
BLACK
6
CONTINUOUS
10
5.19173
20
-3.86835
11
5.19173
21
-3.85898
0
LINE
8
BLACK
6
CONTINUOUS
10
5.19173
20
-3.85898
11
5.1919
21
-3.85797
0
LINE
8
BLACK
6
CONTINUOUS
10
5.1919
20
-3.85797
11
5.19202
21
-3.85783
0
LINE
8
BLACK
6
CONTINUOUS
10
5.19202
20
-3.85783
11
5.19204
21
-3.85766
0
LINE
8
BLACK
6
CONTINUOUS
10
5.19204
20
-3.85766
11
5.19391
21
-3.85391
0
LINE
8
BLACK
6
CONTINUOUS
10
5.19391
20
-3.85391
11
5.19444
21
-3.8532
0
LINE
8
BLACK
6
CONTINUOUS
10
5.19444
20
-3.8532
11
5.19446
21
-3.85314
0
LINE
8
BLACK
6
CONTINUOUS
10
5.19446
20
-3.85314
11
5.19634
21
-3.85127
0
LINE
8
BLACK
6
CONTINUOUS
10
5.19634
20
-3.85127
11
5.19718
21
-3.85068
0
LINE
8
BLACK
6
CONTINUOUS
10
5.19718
20
-3.85068
11
5.19919
21
-3.8505
0
LINE
8
BLACK
6
CONTINUOUS
10
5.19919
20
-3.8505
11
5.20085
21
-3.85166
0
LINE
8
BLACK
6
CONTINUOUS
10
5.20085
20
-3.85166
11
5.20137
21
-3.85361
0
LINE
8
BLACK
6
CONTINUOUS
10
5.20137
20
-3.85361
11
5.20052
21
-3.85544
0
LINE
8
BLACK
6
CONTINUOUS
10
5.20052
20
-3.85544
11
5.19898
21
-3.85698
0
LINE
8
BLACK
6
CONTINUOUS
10
5.19898
20
-3.85698
11
5.19763
21
-3.85968
0
LINE
8
BLACK
6
CONTINUOUS
10
5.19763
20
-3.85968
11
5.19763
21
-3.86766
0
LINE
8
BLACK
6
CONTINUOUS
10
5.19763
20
-3.86766
11
5.19898
21
-3.87035
0
LINE
8
BLACK
6
CONTINUOUS
10
5.19898
20
-3.87035
11
5.20018
21
-3.87155
0
LINE
8
BLACK
6
CONTINUOUS
10
5.20018
20
-3.87155
11
5.20287
21
-3.8729
0
LINE
8
BLACK
6
CONTINUOUS
10
5.20287
20
-3.8729
11
5.20545
21
-3.8729
0
LINE
8
BLACK
6
CONTINUOUS
10
5.20545
20
-3.8729
11
5.20996
21
-3.8714
0
LINE
8
BLACK
6
CONTINUOUS
10
5.20996
20
-3.8714
11
5.23196
21
-3.84939
0
LINE
8
BLACK
6
CONTINUOUS
10
5.23196
20
-3.84939
11
5.23249
21
-3.84902
0
LINE
8
BLACK
6
CONTINUOUS
10
5.23249
20
-3.84902
11
5.23257
21
-3.84892
0
LINE
8
BLACK
6
CONTINUOUS
10
5.23257
20
-3.84892
11
5.23265
21
-3.84891
0
LINE
8
BLACK
6
CONTINUOUS
10
5.23265
20
-3.84891
11
5.2328
21
-3.8488
0
LINE
8
BLACK
6
CONTINUOUS
10
5.2328
20
-3.8488
11
5.23369
21
-3.84873
0
LINE
8
BLACK
6
CONTINUOUS
10
5.23369
20
-3.84873
11
5.23456
21
-3.84857
0
LINE
8
BLACK
6
CONTINUOUS
10
5.23456
20
-3.84857
11
5.23468
21
-3.84864
0
LINE
8
BLACK
6
CONTINUOUS
10
5.23631
20
-3.81959
11
5.237
21
-3.82148
0
LINE
8
BLACK
6
CONTINUOUS
10
5.237
20
-3.82148
11
5.237
21
-3.82523
0
LINE
8
BLACK
6
CONTINUOUS
10
5.237
20
-3.82523
11
5.23685
21
-3.8261
0
LINE
8
BLACK
6
CONTINUOUS
10
5.23685
20
-3.8261
11
5.23685
21
-3.82617
0
LINE
8
BLACK
6
CONTINUOUS
10
5.23685
20
-3.82617
11
5.23497
21
-3.83179
0
LINE
8
BLACK
6
CONTINUOUS
10
5.23497
20
-3.83179
11
5.23449
21
-3.83269
0
LINE
8
BLACK
6
CONTINUOUS
10
5.23449
20
-3.83269
11
5.23434
21
-3.83279
0
LINE
8
BLACK
6
CONTINUOUS
10
5.23434
20
-3.83279
11
5.23426
21
-3.83295
0
LINE
8
BLACK
6
CONTINUOUS
10
5.23426
20
-3.83295
11
5.23051
21
-3.8367
0
LINE
8
BLACK
6
CONTINUOUS
10
5.23051
20
-3.8367
11
5.22967
21
-3.83728
0
LINE
8
BLACK
6
CONTINUOUS
10
5.22967
20
-3.83728
11
5.2295
21
-3.8373
0
LINE
8
BLACK
6
CONTINUOUS
10
5.2295
20
-3.8373
11
5.22936
21
-3.83741
0
LINE
8
BLACK
6
CONTINUOUS
10
5.22936
20
-3.83741
11
5.22373
21
-3.83928
0
LINE
8
BLACK
6
CONTINUOUS
10
5.22373
20
-3.83928
11
5.22286
21
-3.83941
0
LINE
8
BLACK
6
CONTINUOUS
10
5.22286
20
-3.83941
11
5.2228
21
-3.83944
0
LINE
8
BLACK
6
CONTINUOUS
10
5.2228
20
-3.83944
11
5.19468
21
-3.83944
0
LINE
8
BLACK
6
CONTINUOUS
10
5.19468
20
-3.83944
11
5.19367
21
-3.83926
0
LINE
8
BLACK
6
CONTINUOUS
10
5.19367
20
-3.83926
11
5.19212
21
-3.83796
0
LINE
8
BLACK
6
CONTINUOUS
10
5.19212
20
-3.83796
11
5.19177
21
-3.83597
0
LINE
8
BLACK
6
CONTINUOUS
10
5.19177
20
-3.83597
11
5.19278
21
-3.83422
0
LINE
8
BLACK
6
CONTINUOUS
10
5.19278
20
-3.83422
11
5.19468
21
-3.83353
0
LINE
8
BLACK
6
CONTINUOUS
10
5.19468
20
-3.83353
11
5.22232
21
-3.83353
0
LINE
8
BLACK
6
CONTINUOUS
10
5.22232
20
-3.83353
11
5.22683
21
-3.83203
0
LINE
8
BLACK
6
CONTINUOUS
10
5.22683
20
-3.83203
11
5.22959
21
-3.82926
0
LINE
8
BLACK
6
CONTINUOUS
10
5.22959
20
-3.82926
11
5.2311
21
-3.82476
0
LINE
8
BLACK
6
CONTINUOUS
10
5.2311
20
-3.82476
11
5.2311
21
-3.82148
0
LINE
8
BLACK
6
CONTINUOUS
10
5.2311
20
-3.82148
11
5.23127
21
-3.82047
0
LINE
8
BLACK
6
CONTINUOUS
10
5.23127
20
-3.82047
11
5.23257
21
-3.81893
0
LINE
8
BLACK
6
CONTINUOUS
10
5.23257
20
-3.81893
11
5.23456
21
-3.81858
0
LINE
8
BLACK
6
CONTINUOUS
10
5.23456
20
-3.81858
11
5.23631
21
-3.81959
0
LINE
8
BLACK
6
CONTINUOUS
10
5.1997
20
-3.71093
11
5.20039
21
-3.7126
0
LINE
8
BLACK
6
CONTINUOUS
10
5.20039
20
-3.7126
11
5.20039
21
-3.7626
0
LINE
8
BLACK
6
CONTINUOUS
10
5.20039
20
-3.7626
11
5.1997
21
-3.76427
0
LINE
8
BLACK
6
CONTINUOUS
10
5.1997
20
-3.76427
11
5.19803
21
-3.76496
0
LINE
8
BLACK
6
CONTINUOUS
10
5.19803
20
-3.76496
11
5.14803
21
-3.76496
0
LINE
8
BLACK
6
CONTINUOUS
10
5.14803
20
-3.76496
11
5.14636
21
-3.76427
0
LINE
8
BLACK
6
CONTINUOUS
10
5.14636
20
-3.76427
11
5.14567
21
-3.7626
0
LINE
8
BLACK
6
CONTINUOUS
10
5.14567
20
-3.7626
11
5.14636
21
-3.76093
0
LINE
8
BLACK
6
CONTINUOUS
10
5.14636
20
-3.76093
11
5.14803
21
-3.76024
0
LINE
8
BLACK
6
CONTINUOUS
10
5.14803
20
-3.76024
11
5.19567
21
-3.76024
0
LINE
8
BLACK
6
CONTINUOUS
10
5.19567
20
-3.76024
11
5.19567
21
-3.7126
0
LINE
8
BLACK
6
CONTINUOUS
10
5.19567
20
-3.7126
11
5.19636
21
-3.71093
0
LINE
8
BLACK
6
CONTINUOUS
10
5.19636
20
-3.71093
11
5.19803
21
-3.71024
0
LINE
8
BLACK
6
CONTINUOUS
10
5.19803
20
-3.71024
11
5.1997
21
-3.71093
0
LINE
8
BLACK
6
CONTINUOUS
10
4.26299
20
-3.3126
11
4.26466
21
-3.31329
0
LINE
8
BLACK
6
CONTINUOUS
10
4.26466
20
-3.31329
11
4.26535
21
-3.31496
0
LINE
8
BLACK
6
CONTINUOUS
10
4.26535
20
-3.31496
11
4.26535
21
-3.54882
0
LINE
8
BLACK
6
CONTINUOUS
10
4.26535
20
-3.54882
11
4.33071
21
-3.54882
0
LINE
8
BLACK
6
CONTINUOUS
10
4.33071
20
-3.54882
11
4.33071
21
-3.31496
0
LINE
8
BLACK
6
CONTINUOUS
10
4.33071
20
-3.31496
11
4.3314
21
-3.31329
0
LINE
8
BLACK
6
CONTINUOUS
10
4.3314
20
-3.31329
11
4.33307
21
-3.3126
0
LINE
8
BLACK
6
CONTINUOUS
10
4.33307
20
-3.3126
11
4.36299
21
-3.3126
0
LINE
8
BLACK
6
CONTINUOUS
10
4.36299
20
-3.3126
11
4.36466
21
-3.31329
0
LINE
8
BLACK
6
CONTINUOUS
10
4.36466
20
-3.31329
11
4.36535
21
-3.31496
0
LINE
8
BLACK
6
CONTINUOUS
10
4.36535
20
-3.31496
11
4.36535
21
-3.54882
0
LINE
8
BLACK
6
CONTINUOUS
10
4.36535
20
-3.54882
11
4.43071
21
-3.54882
0
LINE
8
BLACK
6
CONTINUOUS
10
4.43071
20
-3.54882
11
4.43071
21
-3.31496
0
LINE
8
BLACK
6
CONTINUOUS
10
4.43071
20
-3.31496
11
4.4314
21
-3.31329
0
LINE
8
BLACK
6
CONTINUOUS
10
4.4314
20
-3.31329
11
4.43307
21
-3.3126
0
LINE
8
BLACK
6
CONTINUOUS
10
4.43307
20
-3.3126
11
4.46299
21
-3.3126
0
LINE
8
BLACK
6
CONTINUOUS
10
4.46299
20
-3.3126
11
4.46466
21
-3.31329
0
LINE
8
BLACK
6
CONTINUOUS
10
4.46466
20
-3.31329
11
4.46535
21
-3.31496
0
LINE
8
BLACK
6
CONTINUOUS
10
4.46535
20
-3.31496
11
4.46535
21
-3.54882
0
LINE
8
BLACK
6
CONTINUOUS
10
4.46535
20
-3.54882
11
4.53071
21
-3.54882
0
LINE
8
BLACK
6
CONTINUOUS
10
4.53071
20
-3.54882
11
4.53071
21
-3.31496
0
LINE
8
BLACK
6
CONTINUOUS
10
4.53071
20
-3.31496
11
4.5314
21
-3.31329
0
LINE
8
BLACK
6
CONTINUOUS
10
4.5314
20
-3.31329
11
4.53307
21
-3.3126
0
LINE
8
BLACK
6
CONTINUOUS
10
4.53307
20
-3.3126
11
4.56299
21
-3.3126
0
LINE
8
BLACK
6
CONTINUOUS
10
4.56299
20
-3.3126
11
4.56466
21
-3.31329
0
LINE
8
BLACK
6
CONTINUOUS
10
4.56466
20
-3.31329
11
4.56535
21
-3.31496
0
LINE
8
BLACK
6
CONTINUOUS
10
4.56535
20
-3.31496
11
4.56535
21
-3.54882
0
LINE
8
BLACK
6
CONTINUOUS
10
4.56535
20
-3.54882
11
4.63071
21
-3.54882
0
LINE
8
BLACK
6
CONTINUOUS
10
4.63071
20
-3.54882
11
4.63071
21
-3.31496
0
LINE
8
BLACK
6
CONTINUOUS
10
4.63071
20
-3.31496
11
4.6314
21
-3.31329
0
LINE
8
BLACK
6
CONTINUOUS
10
4.6314
20
-3.31329
11
4.63307
21
-3.3126
0
LINE
8
BLACK
6
CONTINUOUS
10
4.63307
20
-3.3126
11
4.66299
21
-3.3126
0
LINE
8
BLACK
6
CONTINUOUS
10
4.66299
20
-3.3126
11
4.66466
21
-3.31329
0
LINE
8
BLACK
6
CONTINUOUS
10
4.66466
20
-3.31329
11
4.66535
21
-3.31496
0
LINE
8
BLACK
6
CONTINUOUS
10
4.66535
20
-3.31496
11
4.66535
21
-3.54882
0
LINE
8
BLACK
6
CONTINUOUS
10
4.66535
20
-3.54882
11
4.73071
21
-3.54882
0
LINE
8
BLACK
6
CONTINUOUS
10
4.73071
20
-3.54882
11
4.73071
21
-3.31496
0
LINE
8
BLACK
6
CONTINUOUS
10
4.73071
20
-3.31496
11
4.7314
21
-3.31329
0
LINE
8
BLACK
6
CONTINUOUS
10
4.7314
20
-3.31329
11
4.73307
21
-3.3126
0
LINE
8
BLACK
6
CONTINUOUS
10
4.73307
20
-3.3126
11
4.76299
21
-3.3126
0
LINE
8
BLACK
6
CONTINUOUS
10
4.76299
20
-3.3126
11
4.76466
21
-3.31329
0
LINE
8
BLACK
6
CONTINUOUS
10
4.76466
20
-3.31329
11
4.76535
21
-3.31496
0
LINE
8
BLACK
6
CONTINUOUS
10
4.76535
20
-3.31496
11
4.76535
21
-3.54882
0
LINE
8
BLACK
6
CONTINUOUS
10
4.76535
20
-3.54882
11
4.83071
21
-3.54882
0
LINE
8
BLACK
6
CONTINUOUS
10
4.83071
20
-3.54882
11
4.83071
21
-3.31496
0
LINE
8
BLACK
6
CONTINUOUS
10
4.83071
20
-3.31496
11
4.8314
21
-3.31329
0
LINE
8
BLACK
6
CONTINUOUS
10
4.8314
20
-3.31329
11
4.83307
21
-3.3126
0
LINE
8
BLACK
6
CONTINUOUS
10
4.83307
20
-3.3126
11
4.86299
21
-3.3126
0
LINE
8
BLACK
6
CONTINUOUS
10
4.86299
20
-3.3126
11
4.86466
21
-3.31329
0
LINE
8
BLACK
6
CONTINUOUS
10
4.86466
20
-3.31329
11
4.86535
21
-3.31496
0
LINE
8
BLACK
6
CONTINUOUS
10
4.86535
20
-3.31496
11
4.86535
21
-3.54882
0
LINE
8
BLACK
6
CONTINUOUS
10
4.86535
20
-3.54882
11
4.93071
21
-3.54882
0
LINE
8
BLACK
6
CONTINUOUS
10
4.93071
20
-3.54882
11
4.93071
21
-3.31496
0
LINE
8
BLACK
6
CONTINUOUS
10
4.93071
20
-3.31496
11
4.9314
21
-3.31329
0
LINE
8
BLACK
6
CONTINUOUS
10
4.9314
20
-3.31329
11
4.93307
21
-3.3126
0
LINE
8
BLACK
6
CONTINUOUS
10
4.93307
20
-3.3126
11
4.96299
21
-3.3126
0
LINE
8
BLACK
6
CONTINUOUS
10
4.96299
20
-3.3126
11
4.96466
21
-3.31329
0
LINE
8
BLACK
6
CONTINUOUS
10
4.96466
20
-3.31329
11
4.96535
21
-3.31496
0
LINE
8
BLACK
6
CONTINUOUS
10
4.96535
20
-3.31496
11
4.96535
21
-3.54882
0
LINE
8
BLACK
6
CONTINUOUS
10
4.96535
20
-3.54882
11
5.03071
21
-3.54882
0
LINE
8
BLACK
6
CONTINUOUS
10
5.03071
20
-3.54882
11
5.03071
21
-3.31496
0
LINE
8
BLACK
6
CONTINUOUS
10
5.03071
20
-3.31496
11
5.0314
21
-3.31329
0
LINE
8
BLACK
6
CONTINUOUS
10
5.0314
20
-3.31329
11
5.03307
21
-3.3126
0
LINE
8
BLACK
6
CONTINUOUS
10
5.03307
20
-3.3126
11
5.06299
21
-3.3126
0
LINE
8
BLACK
6
CONTINUOUS
10
5.06299
20
-3.3126
11
5.06466
21
-3.31329
0
LINE
8
BLACK
6
CONTINUOUS
10
5.06466
20
-3.31329
11
5.06535
21
-3.31496
0
LINE
8
BLACK
6
CONTINUOUS
10
5.06535
20
-3.31496
11
5.06535
21
-3.54882
0
LINE
8
BLACK
6
CONTINUOUS
10
5.06535
20
-3.54882
11
5.13071
21
-3.54882
0
LINE
8
BLACK
6
CONTINUOUS
10
5.13071
20
-3.54882
11
5.13071
21
-3.31496
0
LINE
8
BLACK
6
CONTINUOUS
10
5.13071
20
-3.31496
11
5.1314
21
-3.31329
0
LINE
8
BLACK
6
CONTINUOUS
10
5.1314
20
-3.31329
11
5.13307
21
-3.3126
0
LINE
8
BLACK
6
CONTINUOUS
10
5.13307
20
-3.3126
11
5.16299
21
-3.3126
0
LINE
8
BLACK
6
CONTINUOUS
10
5.16299
20
-3.3126
11
5.16466
21
-3.31329
0
LINE
8
BLACK
6
CONTINUOUS
10
5.16466
20
-3.31329
11
5.16535
21
-3.31496
0
LINE
8
BLACK
6
CONTINUOUS
10
5.16535
20
-3.31496
11
5.16535
21
-3.54882
0
LINE
8
BLACK
6
CONTINUOUS
10
5.16535
20
-3.54882
11
5.20039
21
-3.54882
0
LINE
8
BLACK
6
CONTINUOUS
10
5.20039
20
-3.54882
11
5.20206
21
-3.54951
0
LINE
8
BLACK
6
CONTINUOUS
10
5.20206
20
-3.54951
11
5.20276
21
-3.55118
0
LINE
8
BLACK
6
CONTINUOUS
10
5.20276
20
-3.55118
11
5.20276
21
-3.65591
0
LINE
8
BLACK
6
CONTINUOUS
10
5.20276
20
-3.65591
11
5.20206
21
-3.65758
0
LINE
8
BLACK
6
CONTINUOUS
10
5.20206
20
-3.65758
11
5.20039
21
-3.65827
0
LINE
8
BLACK
6
CONTINUOUS
10
5.20039
20
-3.65827
11
5.16535
21
-3.65827
0
LINE
8
BLACK
6
CONTINUOUS
10
5.16535
20
-3.65827
11
5.16535
21
-3.6689
0
LINE
8
BLACK
6
CONTINUOUS
10
5.16535
20
-3.6689
11
5.16466
21
-3.67057
0
LINE
8
BLACK
6
CONTINUOUS
10
5.16466
20
-3.67057
11
5.16299
21
-3.67126
0
LINE
8
BLACK
6
CONTINUOUS
10
5.16299
20
-3.67126
11
5.16132
21
-3.67057
0
LINE
8
BLACK
6
CONTINUOUS
10
5.16132
20
-3.67057
11
5.16063
21
-3.6689
0
LINE
8
BLACK
6
CONTINUOUS
10
5.16063
20
-3.6689
11
5.16063
21
-3.65827
0
LINE
8
BLACK
6
CONTINUOUS
10
5.16063
20
-3.65827
11
5.13543
21
-3.65827
0
LINE
8
BLACK
6
CONTINUOUS
10
5.13543
20
-3.65827
11
5.13543
21
-3.6689
0
LINE
8
BLACK
6
CONTINUOUS
10
5.13543
20
-3.6689
11
5.13474
21
-3.67057
0
LINE
8
BLACK
6
CONTINUOUS
10
5.13474
20
-3.67057
11
5.13307
21
-3.67126
0
LINE
8
BLACK
6
CONTINUOUS
10
5.13307
20
-3.67126
11
5.1314
21
-3.67057
0
LINE
8
BLACK
6
CONTINUOUS
10
5.1314
20
-3.67057
11
5.13071
21
-3.6689
0
LINE
8
BLACK
6
CONTINUOUS
10
5.13071
20
-3.6689
11
5.13071
21
-3.65827
0
LINE
8
BLACK
6
CONTINUOUS
10
5.13071
20
-3.65827
11
5.09803
21
-3.65827
0
LINE
8
BLACK
6
CONTINUOUS
10
5.09803
20
-3.65827
11
5.06535
21
-3.65827
0
LINE
8
BLACK
6
CONTINUOUS
10
5.06535
20
-3.65827
11
5.06535
21
-3.67154
0
LINE
8
BLACK
6
CONTINUOUS
10
5.06535
20
-3.67154
11
5.06466
21
-3.67321
0
LINE
8
BLACK
6
CONTINUOUS
10
5.06466
20
-3.67321
11
5.06299
21
-3.6739
0
LINE
8
BLACK
6
CONTINUOUS
10
5.06299
20
-3.6739
11
5.06132
21
-3.67321
0
LINE
8
BLACK
6
CONTINUOUS
10
5.06132
20
-3.67321
11
5.06063
21
-3.67154
0
LINE
8
BLACK
6
CONTINUOUS
10
5.06063
20
-3.67154
11
5.06063
21
-3.65827
0
LINE
8
BLACK
6
CONTINUOUS
10
5.06063
20
-3.65827
11
5.03543
21
-3.65827
0
LINE
8
BLACK
6
CONTINUOUS
10
5.03543
20
-3.65827
11
5.03543
21
-3.67154
0
LINE
8
BLACK
6
CONTINUOUS
10
5.03543
20
-3.67154
11
5.03474
21
-3.67321
0
LINE
8
BLACK
6
CONTINUOUS
10
5.03474
20
-3.67321
11
5.03307
21
-3.6739
0
LINE
8
BLACK
6
CONTINUOUS
10
5.03307
20
-3.6739
11
5.0314
21
-3.67321
0
LINE
8
BLACK
6
CONTINUOUS
10
5.0314
20
-3.67321
11
5.03071
21
-3.67154
0
LINE
8
BLACK
6
CONTINUOUS
10
5.03071
20
-3.67154
11
5.03071
21
-3.65827
0
LINE
8
BLACK
6
CONTINUOUS
10
5.03071
20
-3.65827
11
4.99803
21
-3.65827
0
LINE
8
BLACK
6
CONTINUOUS
10
4.99803
20
-3.65827
11
4.96535
21
-3.65827
0
LINE
8
BLACK
6
CONTINUOUS
10
4.96535
20
-3.65827
11
4.96535
21
-3.67154
0
LINE
8
BLACK
6
CONTINUOUS
10
4.96535
20
-3.67154
11
4.96466
21
-3.67321
0
LINE
8
BLACK
6
CONTINUOUS
10
4.96466
20
-3.67321
11
4.96299
21
-3.6739
0
LINE
8
BLACK
6
CONTINUOUS
10
4.96299
20
-3.6739
11
4.96132
21
-3.67321
0
LINE
8
BLACK
6
CONTINUOUS
10
4.96132
20
-3.67321
11
4.96063
21
-3.67154
0
LINE
8
BLACK
6
CONTINUOUS
10
4.96063
20
-3.67154
11
4.96063
21
-3.65827
0
LINE
8
BLACK
6
CONTINUOUS
10
4.96063
20
-3.65827
11
4.93543
21
-3.65827
0
LINE
8
BLACK
6
CONTINUOUS
10
4.93543
20
-3.65827
11
4.93543
21
-3.67154
0
LINE
8
BLACK
6
CONTINUOUS
10
4.93543
20
-3.67154
11
4.93474
21
-3.67321
0
LINE
8
BLACK
6
CONTINUOUS
10
4.93474
20
-3.67321
11
4.93307
21
-3.6739
0
LINE
8
BLACK
6
CONTINUOUS
10
4.93307
20
-3.6739
11
4.9314
21
-3.67321
0
LINE
8
BLACK
6
CONTINUOUS
10
4.9314
20
-3.67321
11
4.93071
21
-3.67154
0
LINE
8
BLACK
6
CONTINUOUS
10
4.93071
20
-3.67154
11
4.93071
21
-3.65827
0
LINE
8
BLACK
6
CONTINUOUS
10
4.93071
20
-3.65827
11
4.89803
21
-3.65827
0
LINE
8
BLACK
6
CONTINUOUS
10
4.89803
20
-3.65827
11
4.86535
21
-3.65827
0
LINE
8
BLACK
6
CONTINUOUS
10
4.86535
20
-3.65827
11
4.86535
21
-3.67154
0
LINE
8
BLACK
6
CONTINUOUS
10
4.86535
20
-3.67154
11
4.86466
21
-3.67321
0
LINE
8
BLACK
6
CONTINUOUS
10
4.86466
20
-3.67321
11
4.86299
21
-3.6739
0
LINE
8
BLACK
6
CONTINUOUS
10
4.86299
20
-3.6739
11
4.86132
21
-3.67321
0
LINE
8
BLACK
6
CONTINUOUS
10
4.86132
20
-3.67321
11
4.86063
21
-3.67154
0
LINE
8
BLACK
6
CONTINUOUS
10
4.86063
20
-3.67154
11
4.86063
21
-3.65827
0
LINE
8
BLACK
6
CONTINUOUS
10
4.86063
20
-3.65827
11
4.83543
21
-3.65827
0
LINE
8
BLACK
6
CONTINUOUS
10
4.83543
20
-3.65827
11
4.83543
21
-3.67154
0
LINE
8
BLACK
6
CONTINUOUS
10
4.83543
20
-3.67154
11
4.83474
21
-3.67321
0
LINE
8
BLACK
6
CONTINUOUS
10
4.83474
20
-3.67321
11
4.83307
21
-3.6739
0
LINE
8
BLACK
6
CONTINUOUS
10
4.83307
20
-3.6739
11
4.8314
21
-3.67321
0
LINE
8
BLACK
6
CONTINUOUS
10
4.8314
20
-3.67321
11
4.83071
21
-3.67154
0
LINE
8
BLACK
6
CONTINUOUS
10
4.83071
20
-3.67154
11
4.83071
21
-3.65827
0
LINE
8
BLACK
6
CONTINUOUS
10
4.83071
20
-3.65827
11
4.79803
21
-3.65827
0
LINE
8
BLACK
6
CONTINUOUS
10
4.79803
20
-3.65827
11
4.76535
21
-3.65827
0
LINE
8
BLACK
6
CONTINUOUS
10
4.76535
20
-3.65827
11
4.76535
21
-3.67154
0
LINE
8
BLACK
6
CONTINUOUS
10
4.76535
20
-3.67154
11
4.76466
21
-3.67321
0
LINE
8
BLACK
6
CONTINUOUS
10
4.76466
20
-3.67321
11
4.76299
21
-3.6739
0
LINE
8
BLACK
6
CONTINUOUS
10
4.76299
20
-3.6739
11
4.76132
21
-3.67321
0
LINE
8
BLACK
6
CONTINUOUS
10
4.76132
20
-3.67321
11
4.76063
21
-3.67154
0
LINE
8
BLACK
6
CONTINUOUS
10
4.76063
20
-3.67154
11
4.76063
21
-3.65827
0
LINE
8
BLACK
6
CONTINUOUS
10
4.76063
20
-3.65827
11
4.73543
21
-3.65827
0
LINE
8
BLACK
6
CONTINUOUS
10
4.73543
20
-3.65827
11
4.73543
21
-3.67154
0
LINE
8
BLACK
6
CONTINUOUS
10
4.73543
20
-3.67154
11
4.73474
21
-3.67321
0
LINE
8
BLACK
6
CONTINUOUS
10
4.73474
20
-3.67321
11
4.73307
21
-3.6739
0
LINE
8
BLACK
6
CONTINUOUS
10
4.73307
20
-3.6739
11
4.7314
21
-3.67321
0
LINE
8
BLACK
6
CONTINUOUS
10
4.7314
20
-3.67321
11
4.73071
21
-3.67154
0
LINE
8
BLACK
6
CONTINUOUS
10
4.73071
20
-3.67154
11
4.73071
21
-3.65827
0
LINE
8
BLACK
6
CONTINUOUS
10
4.73071
20
-3.65827
11
4.69803
21
-3.65827
0
LINE
8
BLACK
6
CONTINUOUS
10
4.69803
20
-3.65827
11
4.66535
21
-3.65827
0
LINE
8
BLACK
6
CONTINUOUS
10
4.66535
20
-3.65827
11
4.66535
21
-3.67154
0
LINE
8
BLACK
6
CONTINUOUS
10
4.66535
20
-3.67154
11
4.66466
21
-3.67321
0
LINE
8
BLACK
6
CONTINUOUS
10
4.66466
20
-3.67321
11
4.66299
21
-3.6739
0
LINE
8
BLACK
6
CONTINUOUS
10
4.66299
20
-3.6739
11
4.66132
21
-3.67321
0
LINE
8
BLACK
6
CONTINUOUS
10
4.66132
20
-3.67321
11
4.66063
21
-3.67154
0
LINE
8
BLACK
6
CONTINUOUS
10
4.66063
20
-3.67154
11
4.66063
21
-3.65827
0
LINE
8
BLACK
6
CONTINUOUS
10
4.66063
20
-3.65827
11
4.63543
21
-3.65827
0
LINE
8
BLACK
6
CONTINUOUS
10
4.63543
20
-3.65827
11
4.63543
21
-3.67154
0
LINE
8
BLACK
6
CONTINUOUS
10
4.63543
20
-3.67154
11
4.63474
21
-3.67321
0
LINE
8
BLACK
6
CONTINUOUS
10
4.63474
20
-3.67321
11
4.63307
21
-3.6739
0
LINE
8
BLACK
6
CONTINUOUS
10
4.63307
20
-3.6739
11
4.6314
21
-3.67321
0
LINE
8
BLACK
6
CONTINUOUS
10
4.6314
20
-3.67321
11
4.63071
21
-3.67154
0
LINE
8
BLACK
6
CONTINUOUS
10
4.63071
20
-3.67154
11
4.63071
21
-3.65827
0
LINE
8
BLACK
6
CONTINUOUS
10
4.63071
20
-3.65827
11
4.59803
21
-3.65827
0
LINE
8
BLACK
6
CONTINUOUS
10
4.59803
20
-3.65827
11
4.56535
21
-3.65827
0
LINE
8
BLACK
6
CONTINUOUS
10
4.56535
20
-3.65827
11
4.56535
21
-3.67154
0
LINE
8
BLACK
6
CONTINUOUS
10
4.56535
20
-3.67154
11
4.56466
21
-3.67321
0
LINE
8
BLACK
6
CONTINUOUS
10
4.56466
20
-3.67321
11
4.56299
21
-3.6739
0
LINE
8
BLACK
6
CONTINUOUS
10
4.56299
20
-3.6739
11
4.56132
21
-3.67321
0
LINE
8
BLACK
6
CONTINUOUS
10
4.56132
20
-3.67321
11
4.56063
21
-3.67154
0
LINE
8
BLACK
6
CONTINUOUS
10
4.56063
20
-3.67154
11
4.56063
21
-3.65827
0
LINE
8
BLACK
6
CONTINUOUS
10
4.56063
20
-3.65827
11
4.53543
21
-3.65827
0
LINE
8
BLACK
6
CONTINUOUS
10
4.53543
20
-3.65827
11
4.53543
21
-3.67154
0
LINE
8
BLACK
6
CONTINUOUS
10
4.53543
20
-3.67154
11
4.53474
21
-3.67321
0
LINE
8
BLACK
6
CONTINUOUS
10
4.53474
20
-3.67321
11
4.53307
21
-3.6739
0
LINE
8
BLACK
6
CONTINUOUS
10
4.53307
20
-3.6739
11
4.5314
21
-3.67321
0
LINE
8
BLACK
6
CONTINUOUS
10
4.5314
20
-3.67321
11
4.53071
21
-3.67154
0
LINE
8
BLACK
6
CONTINUOUS
10
4.53071
20
-3.67154
11
4.53071
21
-3.65827
0
LINE
8
BLACK
6
CONTINUOUS
10
4.53071
20
-3.65827
11
4.49803
21
-3.65827
0
LINE
8
BLACK
6
CONTINUOUS
10
4.49803
20
-3.65827
11
4.46535
21
-3.65827
0
LINE
8
BLACK
6
CONTINUOUS
10
4.46535
20
-3.65827
11
4.46535
21
-3.67154
0
LINE
8
BLACK
6
CONTINUOUS
10
4.46535
20
-3.67154
11
4.46466
21
-3.67321
0
LINE
8
BLACK
6
CONTINUOUS
10
4.46466
20
-3.67321
11
4.46299
21
-3.6739
0
LINE
8
BLACK
6
CONTINUOUS
10
4.46299
20
-3.6739
11
4.46132
21
-3.67321
0
LINE
8
BLACK
6
CONTINUOUS
10
4.46132
20
-3.67321
11
4.46063
21
-3.67154
0
LINE
8
BLACK
6
CONTINUOUS
10
4.46063
20
-3.67154
11
4.46063
21
-3.65827
0
LINE
8
BLACK
6
CONTINUOUS
10
4.46063
20
-3.65827
11
4.43543
21
-3.65827
0
LINE
8
BLACK
6
CONTINUOUS
10
4.43543
20
-3.65827
11
4.43543
21
-3.67154
0
LINE
8
BLACK
6
CONTINUOUS
10
4.43543
20
-3.67154
11
4.43474
21
-3.67321
0
LINE
8
BLACK
6
CONTINUOUS
10
4.43474
20
-3.67321
11
4.43307
21
-3.6739
0
LINE
8
BLACK
6
CONTINUOUS
10
4.43307
20
-3.6739
11
4.4314
21
-3.67321
0
LINE
8
BLACK
6
CONTINUOUS
10
4.4314
20
-3.67321
11
4.43071
21
-3.67154
0
LINE
8
BLACK
6
CONTINUOUS
10
4.43071
20
-3.67154
11
4.43071
21
-3.65827
0
LINE
8
BLACK
6
CONTINUOUS
10
4.43071
20
-3.65827
11
4.39803
21
-3.65827
0
LINE
8
BLACK
6
CONTINUOUS
10
4.39803
20
-3.65827
11
4.36535
21
-3.65827
0
LINE
8
BLACK
6
CONTINUOUS
10
4.36535
20
-3.65827
11
4.36535
21
-3.67154
0
LINE
8
BLACK
6
CONTINUOUS
10
4.36535
20
-3.67154
11
4.36466
21
-3.67321
0
LINE
8
BLACK
6
CONTINUOUS
10
4.36466
20
-3.67321
11
4.36299
21
-3.6739
0
LINE
8
BLACK
6
CONTINUOUS
10
4.36299
20
-3.6739
11
4.36132
21
-3.67321
0
LINE
8
BLACK
6
CONTINUOUS
10
4.36132
20
-3.67321
11
4.36063
21
-3.67154
0
LINE
8
BLACK
6
CONTINUOUS
10
4.36063
20
-3.67154
11
4.36063
21
-3.65827
0
LINE
8
BLACK
6
CONTINUOUS
10
4.36063
20
-3.65827
11
4.33543
21
-3.65827
0
LINE
8
BLACK
6
CONTINUOUS
10
4.33543
20
-3.65827
11
4.33543
21
-3.67154
0
LINE
8
BLACK
6
CONTINUOUS
10
4.33543
20
-3.67154
11
4.33474
21
-3.67321
0
LINE
8
BLACK
6
CONTINUOUS
10
4.33474
20
-3.67321
11
4.33307
21
-3.6739
0
LINE
8
BLACK
6
CONTINUOUS
10
4.33307
20
-3.6739
11
4.3314
21
-3.67321
0
LINE
8
BLACK
6
CONTINUOUS
10
4.3314
20
-3.67321
11
4.33071
21
-3.67154
0
LINE
8
BLACK
6
CONTINUOUS
10
4.33071
20
-3.67154
11
4.33071
21
-3.65827
0
LINE
8
BLACK
6
CONTINUOUS
10
4.33071
20
-3.65827
11
4.29803
21
-3.65827
0
LINE
8
BLACK
6
CONTINUOUS
10
4.29803
20
-3.65827
11
4.26535
21
-3.65827
0
LINE
8
BLACK
6
CONTINUOUS
10
4.26535
20
-3.65827
11
4.26535
21
-3.67154
0
LINE
8
BLACK
6
CONTINUOUS
10
4.26535
20
-3.67154
11
4.26466
21
-3.67321
0
LINE
8
BLACK
6
CONTINUOUS
10
4.26466
20
-3.67321
11
4.26299
21
-3.6739
0
LINE
8
BLACK
6
CONTINUOUS
10
4.26299
20
-3.6739
11
4.26132
21
-3.67321
0
LINE
8
BLACK
6
CONTINUOUS
10
4.26132
20
-3.67321
11
4.26063
21
-3.67154
0
LINE
8
BLACK
6
CONTINUOUS
10
4.26063
20
-3.67154
11
4.26063
21
-3.65827
0
LINE
8
BLACK
6
CONTINUOUS
10
4.26063
20
-3.65827
11
4.23543
21
-3.65827
0
LINE
8
BLACK
6
CONTINUOUS
10
4.23543
20
-3.65827
11
4.23543
21
-3.67154
0
LINE
8
BLACK
6
CONTINUOUS
10
4.23543
20
-3.67154
11
4.23474
21
-3.67321
0
LINE
8
BLACK
6
CONTINUOUS
10
4.23474
20
-3.67321
11
4.23307
21
-3.6739
0
LINE
8
BLACK
6
CONTINUOUS
10
4.23307
20
-3.6739
11
4.2314
21
-3.67321
0
LINE
8
BLACK
6
CONTINUOUS
10
4.2314
20
-3.67321
11
4.23071
21
-3.67154
0
LINE
8
BLACK
6
CONTINUOUS
10
4.23071
20
-3.67154
11
4.23071
21
-3.65827
0
LINE
8
BLACK
6
CONTINUOUS
10
4.23071
20
-3.65827
11
4.19567
21
-3.65827
0
LINE
8
BLACK
6
CONTINUOUS
10
4.19567
20
-3.65827
11
4.194
21
-3.65758
0
LINE
8
BLACK
6
CONTINUOUS
10
4.194
20
-3.65758
11
4.19331
21
-3.65591
0
LINE
8
BLACK
6
CONTINUOUS
10
4.19331
20
-3.65591
11
4.19331
21
-3.65591
0
LINE
8
BLACK
6
CONTINUOUS
10
4.19331
20
-3.65591
11
4.19331
21
-3.55118
0
LINE
8
BLACK
6
CONTINUOUS
10
4.19331
20
-3.55118
11
4.194
21
-3.54951
0
LINE
8
BLACK
6
CONTINUOUS
10
4.194
20
-3.54951
11
4.19567
21
-3.54882
0
LINE
8
BLACK
6
CONTINUOUS
10
4.19567
20
-3.54882
11
4.23071
21
-3.54882
0
LINE
8
BLACK
6
CONTINUOUS
10
4.23071
20
-3.54882
11
4.23071
21
-3.31496
0
LINE
8
BLACK
6
CONTINUOUS
10
4.23071
20
-3.31496
11
4.2314
21
-3.31329
0
LINE
8
BLACK
6
CONTINUOUS
10
4.2314
20
-3.31329
11
4.23307
21
-3.3126
0
LINE
8
BLACK
6
CONTINUOUS
10
4.23307
20
-3.3126
11
4.26299
21
-3.3126
0
LINE
8
BLACK
6
CONTINUOUS
10
4.26299
20
-3.55354
11
4.23307
21
-3.55354
0
LINE
8
BLACK
6
CONTINUOUS
10
4.23307
20
-3.55354
11
4.19803
21
-3.55354
0
LINE
8
BLACK
6
CONTINUOUS
10
4.19803
20
-3.55354
11
4.19803
21
-3.65354
0
LINE
8
BLACK
6
CONTINUOUS
10
4.19803
20
-3.65354
11
4.29567
21
-3.65354
0
LINE
8
BLACK
6
CONTINUOUS
10
4.29567
20
-3.65354
11
4.29567
21
-3.55354
0
LINE
8
BLACK
6
CONTINUOUS
10
4.29567
20
-3.55354
11
4.26299
21
-3.55354
0
LINE
8
BLACK
6
CONTINUOUS
10
4.36299
20
-3.55354
11
4.33307
21
-3.55354
0
LINE
8
BLACK
6
CONTINUOUS
10
4.33307
20
-3.55354
11
4.30039
21
-3.55354
0
LINE
8
BLACK
6
CONTINUOUS
10
4.30039
20
-3.55354
11
4.30039
21
-3.65354
0
LINE
8
BLACK
6
CONTINUOUS
10
4.30039
20
-3.65354
11
4.39567
21
-3.65354
0
LINE
8
BLACK
6
CONTINUOUS
10
4.39567
20
-3.65354
11
4.39567
21
-3.55354
0
LINE
8
BLACK
6
CONTINUOUS
10
4.39567
20
-3.55354
11
4.36299
21
-3.55354
0
LINE
8
BLACK
6
CONTINUOUS
10
4.46299
20
-3.55354
11
4.43307
21
-3.55354
0
LINE
8
BLACK
6
CONTINUOUS
10
4.43307
20
-3.55354
11
4.40039
21
-3.55354
0
LINE
8
BLACK
6
CONTINUOUS
10
4.40039
20
-3.55354
11
4.40039
21
-3.65354
0
LINE
8
BLACK
6
CONTINUOUS
10
4.40039
20
-3.65354
11
4.49567
21
-3.65354
0
LINE
8
BLACK
6
CONTINUOUS
10
4.49567
20
-3.65354
11
4.49567
21
-3.55354
0
LINE
8
BLACK
6
CONTINUOUS
10
4.49567
20
-3.55354
11
4.46299
21
-3.55354
0
LINE
8
BLACK
6
CONTINUOUS
10
4.56299
20
-3.55354
11
4.53307
21
-3.55354
0
LINE
8
BLACK
6
CONTINUOUS
10
4.53307
20
-3.55354
11
4.50039
21
-3.55354
0
LINE
8
BLACK
6
CONTINUOUS
10
4.50039
20
-3.55354
11
4.50039
21
-3.65354
0
LINE
8
BLACK
6
CONTINUOUS
10
4.50039
20
-3.65354
11
4.59567
21
-3.65354
0
LINE
8
BLACK
6
CONTINUOUS
10
4.59567
20
-3.65354
11
4.59567
21
-3.55354
0
LINE
8
BLACK
6
CONTINUOUS
10
4.59567
20
-3.55354
11
4.56299
21
-3.55354
0
LINE
8
BLACK
6
CONTINUOUS
10
4.66299
20
-3.55354
11
4.63307
21
-3.55354
0
LINE
8
BLACK
6
CONTINUOUS
10
4.63307
20
-3.55354
11
4.60039
21
-3.55354
0
LINE
8
BLACK
6
CONTINUOUS
10
4.60039
20
-3.55354
11
4.60039
21
-3.65354
0
LINE
8
BLACK
6
CONTINUOUS
10
4.60039
20
-3.65354
11
4.69567
21
-3.65354
0
LINE
8
BLACK
6
CONTINUOUS
10
4.69567
20
-3.65354
11
4.69567
21
-3.55354
0
LINE
8
BLACK
6
CONTINUOUS
10
4.69567
20
-3.55354
11
4.66299
21
-3.55354
0
LINE
8
BLACK
6
CONTINUOUS
10
4.76299
20
-3.55354
11
4.73307
21
-3.55354
0
LINE
8
BLACK
6
CONTINUOUS
10
4.73307
20
-3.55354
11
4.70039
21
-3.55354
0
LINE
8
BLACK
6
CONTINUOUS
10
4.70039
20
-3.55354
11
4.70039
21
-3.65354
0
LINE
8
BLACK
6
CONTINUOUS
10
4.70039
20
-3.65354
11
4.79567
21
-3.65354
0
LINE
8
BLACK
6
CONTINUOUS
10
4.79567
20
-3.65354
11
4.79567
21
-3.55354
0
LINE
8
BLACK
6
CONTINUOUS
10
4.79567
20
-3.55354
11
4.76299
21
-3.55354
0
LINE
8
BLACK
6
CONTINUOUS
10
4.86299
20
-3.55354
11
4.83307
21
-3.55354
0
LINE
8
BLACK
6
CONTINUOUS
10
4.83307
20
-3.55354
11
4.80039
21
-3.55354
0
LINE
8
BLACK
6
CONTINUOUS
10
4.80039
20
-3.55354
11
4.80039
21
-3.65354
0
LINE
8
BLACK
6
CONTINUOUS
10
4.80039
20
-3.65354
11
4.89567
21
-3.65354
0
LINE
8
BLACK
6
CONTINUOUS
10
4.89567
20
-3.65354
11
4.89567
21
-3.55354
0
LINE
8
BLACK
6
CONTINUOUS
10
4.89567
20
-3.55354
11
4.86299
21
-3.55354
0
LINE
8
BLACK
6
CONTINUOUS
10
4.96299
20
-3.55354
11
4.93307
21
-3.55354
0
LINE
8
BLACK
6
CONTINUOUS
10
4.93307
20
-3.55354
11
4.90039
21
-3.55354
0
LINE
8
BLACK
6
CONTINUOUS
10
4.90039
20
-3.55354
11
4.90039
21
-3.65354
0
LINE
8
BLACK
6
CONTINUOUS
10
4.90039
20
-3.65354
11
4.99567
21
-3.65354
0
LINE
8
BLACK
6
CONTINUOUS
10
4.99567
20
-3.65354
11
4.99567
21
-3.55354
0
LINE
8
BLACK
6
CONTINUOUS
10
4.99567
20
-3.55354
11
4.96299
21
-3.55354
0
LINE
8
BLACK
6
CONTINUOUS
10
5.06299
20
-3.55354
11
5.03307
21
-3.55354
0
LINE
8
BLACK
6
CONTINUOUS
10
5.03307
20
-3.55354
11
5.00039
21
-3.55354
0
LINE
8
BLACK
6
CONTINUOUS
10
5.00039
20
-3.55354
11
5.00039
21
-3.65354
0
LINE
8
BLACK
6
CONTINUOUS
10
5.00039
20
-3.65354
11
5.09567
21
-3.65354
0
LINE
8
BLACK
6
CONTINUOUS
10
5.09567
20
-3.65354
11
5.09567
21
-3.55354
0
LINE
8
BLACK
6
CONTINUOUS
10
5.09567
20
-3.55354
11
5.06299
21
-3.55354
0
LINE
8
BLACK
6
CONTINUOUS
10
5.16299
20
-3.55354
11
5.16063
21
-3.55354
0
LINE
8
BLACK
6
CONTINUOUS
10
5.16063
20
-3.55354
11
5.15591
21
-3.55354
0
LINE
8
BLACK
6
CONTINUOUS
10
5.15591
20
-3.55354
11
5.15118
21
-3.55354
0
LINE
8
BLACK
6
CONTINUOUS
10
5.15118
20
-3.55354
11
5.14646
21
-3.55354
0
LINE
8
BLACK
6
CONTINUOUS
10
5.14646
20
-3.55354
11
5.14173
21
-3.55354
0
LINE
8
BLACK
6
CONTINUOUS
10
5.14173
20
-3.55354
11
5.13701
21
-3.55354
0
LINE
8
BLACK
6
CONTINUOUS
10
5.13701
20
-3.55354
11
5.13307
21
-3.55354
0
LINE
8
BLACK
6
CONTINUOUS
10
5.13307
20
-3.55354
11
5.10039
21
-3.55354
0
LINE
8
BLACK
6
CONTINUOUS
10
5.10039
20
-3.55354
11
5.10039
21
-3.65354
0
LINE
8
BLACK
6
CONTINUOUS
10
5.10039
20
-3.65354
11
5.19803
21
-3.65354
0
LINE
8
BLACK
6
CONTINUOUS
10
5.19803
20
-3.65354
11
5.19803
21
-3.55354
0
LINE
8
BLACK
6
CONTINUOUS
10
5.19803
20
-3.55354
11
5.16299
21
-3.55354
0
LINE
8
BLACK
6
CONTINUOUS
10
4.23543
20
-3.31732
11
4.23543
21
-3.54882
0
LINE
8
BLACK
6
CONTINUOUS
10
4.23543
20
-3.54882
11
4.26063
21
-3.54882
0
LINE
8
BLACK
6
CONTINUOUS
10
4.26063
20
-3.54882
11
4.26063
21
-3.31732
0
LINE
8
BLACK
6
CONTINUOUS
10
4.26063
20
-3.31732
11
4.23543
21
-3.31732
0
LINE
8
BLACK
6
CONTINUOUS
10
4.33543
20
-3.31732
11
4.33543
21
-3.54882
0
LINE
8
BLACK
6
CONTINUOUS
10
4.33543
20
-3.54882
11
4.36063
21
-3.54882
0
LINE
8
BLACK
6
CONTINUOUS
10
4.36063
20
-3.54882
11
4.36063
21
-3.31732
0
LINE
8
BLACK
6
CONTINUOUS
10
4.36063
20
-3.31732
11
4.33543
21
-3.31732
0
LINE
8
BLACK
6
CONTINUOUS
10
4.43543
20
-3.31732
11
4.43543
21
-3.54882
0
LINE
8
BLACK
6
CONTINUOUS
10
4.43543
20
-3.54882
11
4.46063
21
-3.54882
0
LINE
8
BLACK
6
CONTINUOUS
10
4.46063
20
-3.54882
11
4.46063
21
-3.31732
0
LINE
8
BLACK
6
CONTINUOUS
10
4.46063
20
-3.31732
11
4.43543
21
-3.31732
0
LINE
8
BLACK
6
CONTINUOUS
10
4.53543
20
-3.31732
11
4.53543
21
-3.54882
0
LINE
8
BLACK
6
CONTINUOUS
10
4.53543
20
-3.54882
11
4.56063
21
-3.54882
0
LINE
8
BLACK
6
CONTINUOUS
10
4.56063
20
-3.54882
11
4.56063
21
-3.31732
0
LINE
8
BLACK
6
CONTINUOUS
10
4.56063
20
-3.31732
11
4.53543
21
-3.31732
0
LINE
8
BLACK
6
CONTINUOUS
10
4.63543
20
-3.31732
11
4.63543
21
-3.54882
0
LINE
8
BLACK
6
CONTINUOUS
10
4.63543
20
-3.54882
11
4.66063
21
-3.54882
0
LINE
8
BLACK
6
CONTINUOUS
10
4.66063
20
-3.54882
11
4.66063
21
-3.31732
0
LINE
8
BLACK
6
CONTINUOUS
10
4.66063
20
-3.31732
11
4.63543
21
-3.31732
0
LINE
8
BLACK
6
CONTINUOUS
10
4.73543
20
-3.31732
11
4.73543
21
-3.54882
0
LINE
8
BLACK
6
CONTINUOUS
10
4.73543
20
-3.54882
11
4.76063
21
-3.54882
0
LINE
8
BLACK
6
CONTINUOUS
10
4.76063
20
-3.54882
11
4.76063
21
-3.31732
0
LINE
8
BLACK
6
CONTINUOUS
10
4.76063
20
-3.31732
11
4.73543
21
-3.31732
0
LINE
8
BLACK
6
CONTINUOUS
10
4.83543
20
-3.31732
11
4.83543
21
-3.54882
0
LINE
8
BLACK
6
CONTINUOUS
10
4.83543
20
-3.54882
11
4.86063
21
-3.54882
0
LINE
8
BLACK
6
CONTINUOUS
10
4.86063
20
-3.54882
11
4.86063
21
-3.31732
0
LINE
8
BLACK
6
CONTINUOUS
10
4.86063
20
-3.31732
11
4.83543
21
-3.31732
0
LINE
8
BLACK
6
CONTINUOUS
10
4.93543
20
-3.31732
11
4.93543
21
-3.54882
0
LINE
8
BLACK
6
CONTINUOUS
10
4.93543
20
-3.54882
11
4.96063
21
-3.54882
0
LINE
8
BLACK
6
CONTINUOUS
10
4.96063
20
-3.54882
11
4.96063
21
-3.31732
0
LINE
8
BLACK
6
CONTINUOUS
10
4.96063
20
-3.31732
11
4.93543
21
-3.31732
0
LINE
8
BLACK
6
CONTINUOUS
10
5.03543
20
-3.31732
11
5.03543
21
-3.54882
0
LINE
8
BLACK
6
CONTINUOUS
10
5.03543
20
-3.54882
11
5.06063
21
-3.54882
0
LINE
8
BLACK
6
CONTINUOUS
10
5.06063
20
-3.54882
11
5.06063
21
-3.31732
0
LINE
8
BLACK
6
CONTINUOUS
10
5.06063
20
-3.31732
11
5.03543
21
-3.31732
0
LINE
8
BLACK
6
CONTINUOUS
10
5.22895
20
-3.54134
11
5.23006
21
-3.54302
0
LINE
8
BLACK
6
CONTINUOUS
10
5.23006
20
-3.54302
11
5.22983
21
-3.54503
0
LINE
8
BLACK
6
CONTINUOUS
10
5.22983
20
-3.54503
11
5.22795
21
-3.54878
0
LINE
8
BLACK
6
CONTINUOUS
10
5.22795
20
-3.54878
11
5.22743
21
-3.54949
0
LINE
8
BLACK
6
CONTINUOUS
10
5.22743
20
-3.54949
11
5.2274
21
-3.54955
0
LINE
8
BLACK
6
CONTINUOUS
10
5.2274
20
-3.54955
11
5.22494
21
-3.55201
0
LINE
8
BLACK
6
CONTINUOUS
10
5.22494
20
-3.55201
11
5.25236
21
-3.55201
0
LINE
8
BLACK
6
CONTINUOUS
10
5.25236
20
-3.55201
11
5.25236
21
-3.54371
0
LINE
8
BLACK
6
CONTINUOUS
10
5.25236
20
-3.54371
11
5.25253
21
-3.5427
0
LINE
8
BLACK
6
CONTINUOUS
10
5.25253
20
-3.5427
11
5.25383
21
-3.54115
0
LINE
8
BLACK
6
CONTINUOUS
10
5.25383
20
-3.54115
11
5.25582
21
-3.5408
0
LINE
8
BLACK
6
CONTINUOUS
10
5.25582
20
-3.5408
11
5.25757
21
-3.54181
0
LINE
8
BLACK
6
CONTINUOUS
10
5.25757
20
-3.54181
11
5.25826
21
-3.54371
0
LINE
8
BLACK
6
CONTINUOUS
10
5.25826
20
-3.54371
11
5.25826
21
-3.56621
0
LINE
8
BLACK
6
CONTINUOUS
10
5.25826
20
-3.56621
11
5.25808
21
-3.56722
0
LINE
8
BLACK
6
CONTINUOUS
10
5.25808
20
-3.56722
11
5.25678
21
-3.56876
0
LINE
8
BLACK
6
CONTINUOUS
10
5.25678
20
-3.56876
11
5.2548
21
-3.56912
0
LINE
8
BLACK
6
CONTINUOUS
10
5.2548
20
-3.56912
11
5.25305
21
-3.56811
0
LINE
8
BLACK
6
CONTINUOUS
10
5.25305
20
-3.56811
11
5.25236
21
-3.56621
0
LINE
8
BLACK
6
CONTINUOUS
10
5.25236
20
-3.56621
11
5.25236
21
-3.55791
0
LINE
8
BLACK
6
CONTINUOUS
10
5.25236
20
-3.55791
11
5.21594
21
-3.55791
0
LINE
8
BLACK
6
CONTINUOUS
10
5.21594
20
-3.55791
11
5.21493
21
-3.55773
0
LINE
8
BLACK
6
CONTINUOUS
10
5.21493
20
-3.55773
11
5.2148
21
-3.55762
0
LINE
8
BLACK
6
CONTINUOUS
10
5.2148
20
-3.55762
11
5.21463
21
-3.55761
0
LINE
8
BLACK
6
CONTINUOUS
10
5.21463
20
-3.55761
11
5.21404
21
-3.55699
0
LINE
8
BLACK
6
CONTINUOUS
10
5.21404
20
-3.55699
11
5.21338
21
-3.55644
0
LINE
8
BLACK
6
CONTINUOUS
10
5.21338
20
-3.55644
11
5.21335
21
-3.55627
0
LINE
8
BLACK
6
CONTINUOUS
10
5.21335
20
-3.55627
11
5.21323
21
-3.55615
0
LINE
8
BLACK
6
CONTINUOUS
10
5.21323
20
-3.55615
11
5.21318
21
-3.55529
0
LINE
8
BLACK
6
CONTINUOUS
10
5.21318
20
-3.55529
11
5.21303
21
-3.55445
0
LINE
8
BLACK
6
CONTINUOUS
10
5.21303
20
-3.55445
11
5.21311
21
-3.5543
0
LINE
8
BLACK
6
CONTINUOUS
10
5.21311
20
-3.5543
11
5.2131
21
-3.55413
0
LINE
8
BLACK
6
CONTINUOUS
10
5.2131
20
-3.55413
11
5.21361
21
-3.55344
0
LINE
8
BLACK
6
CONTINUOUS
10
5.21361
20
-3.55344
11
5.21404
21
-3.5527
0
LINE
8
BLACK
6
CONTINUOUS
10
5.21404
20
-3.5527
11
5.2142
21
-3.55264
0
LINE
8
BLACK
6
CONTINUOUS
10
5.2142
20
-3.55264
11
5.2143
21
-3.5525
0
LINE
8
BLACK
6
CONTINUOUS
10
5.2143
20
-3.5525
11
5.21968
21
-3.54891
0
LINE
8
BLACK
6
CONTINUOUS
10
5.21968
20
-3.54891
11
5.22288
21
-3.54571
0
LINE
8
BLACK
6
CONTINUOUS
10
5.22288
20
-3.54571
11
5.22455
21
-3.54239
0
LINE
8
BLACK
6
CONTINUOUS
10
5.22455
20
-3.54239
11
5.22516
21
-3.54157
0
LINE
8
BLACK
6
CONTINUOUS
10
5.22516
20
-3.54157
11
5.22701
21
-3.54076
0
LINE
8
BLACK
6
CONTINUOUS
10
5.22701
20
-3.54076
11
5.22895
21
-3.54134
0
LINE
8
BLACK
6
CONTINUOUS
10
5.25757
20
-3.50994
11
5.25826
21
-3.51184
0
LINE
8
BLACK
6
CONTINUOUS
10
5.25826
20
-3.51184
11
5.25826
21
-3.51559
0
LINE
8
BLACK
6
CONTINUOUS
10
5.25826
20
-3.51559
11
5.25811
21
-3.51646
0
LINE
8
BLACK
6
CONTINUOUS
10
5.25811
20
-3.51646
11
5.25811
21
-3.51652
0
LINE
8
BLACK
6
CONTINUOUS
10
5.25811
20
-3.51652
11
5.25623
21
-3.52215
0
LINE
8
BLACK
6
CONTINUOUS
10
5.25623
20
-3.52215
11
5.25575
21
-3.52305
0
LINE
8
BLACK
6
CONTINUOUS
10
5.25575
20
-3.52305
11
5.2556
21
-3.52314
0
LINE
8
BLACK
6
CONTINUOUS
10
5.2556
20
-3.52314
11
5.25552
21
-3.5233
0
LINE
8
BLACK
6
CONTINUOUS
10
5.25552
20
-3.5233
11
5.25177
21
-3.52705
0
LINE
8
BLACK
6
CONTINUOUS
10
5.25177
20
-3.52705
11
5.25093
21
-3.52764
0
LINE
8
BLACK
6
CONTINUOUS
10
5.25093
20
-3.52764
11
5.25076
21
-3.52765
0
LINE
8
BLACK
6
CONTINUOUS
10
5.25076
20
-3.52765
11
5.25062
21
-3.52776
0
LINE
8
BLACK
6
CONTINUOUS
10
5.25062
20
-3.52776
11
5.24499
21
-3.52964
0
LINE
8
BLACK
6
CONTINUOUS
10
5.24499
20
-3.52964
11
5.24412
21
-3.52977
0
LINE
8
BLACK
6
CONTINUOUS
10
5.24412
20
-3.52977
11
5.24406
21
-3.52979
0
LINE
8
BLACK
6
CONTINUOUS
10
5.24406
20
-3.52979
11
5.21594
21
-3.52979
0
LINE
8
BLACK
6
CONTINUOUS
10
5.21594
20
-3.52979
11
5.21493
21
-3.52961
0
LINE
8
BLACK
6
CONTINUOUS
10
5.21493
20
-3.52961
11
5.21338
21
-3.52831
0
LINE
8
BLACK
6
CONTINUOUS
10
5.21338
20
-3.52831
11
5.21303
21
-3.52632
0
LINE
8
BLACK
6
CONTINUOUS
10
5.21303
20
-3.52632
11
5.21404
21
-3.52458
0
LINE
8
BLACK
6
CONTINUOUS
10
5.21404
20
-3.52458
11
5.21594
21
-3.52388
0
LINE
8
BLACK
6
CONTINUOUS
10
5.21594
20
-3.52388
11
5.24358
21
-3.52388
0
LINE
8
BLACK
6
CONTINUOUS
10
5.24358
20
-3.52388
11
5.24809
21
-3.52238
0
LINE
8
BLACK
6
CONTINUOUS
10
5.24809
20
-3.52238
11
5.25085
21
-3.51962
0
LINE
8
BLACK
6
CONTINUOUS
10
5.25085
20
-3.51962
11
5.25236
21
-3.51511
0
LINE
8
BLACK
6
CONTINUOUS
10
5.25236
20
-3.51511
11
5.25236
21
-3.51184
0
LINE
8
BLACK
6
CONTINUOUS
10
5.25236
20
-3.51184
11
5.25253
21
-3.51083
0
LINE
8
BLACK
6
CONTINUOUS
10
5.25253
20
-3.51083
11
5.25383
21
-3.50928
0
LINE
8
BLACK
6
CONTINUOUS
10
5.25383
20
-3.50928
11
5.25582
21
-3.50893
0
LINE
8
BLACK
6
CONTINUOUS
10
5.25582
20
-3.50893
11
5.25757
21
-3.50994
  0
ENDSEC
  0
EOF
