G04 #@! TF.GenerationSoftware,KiCad,Pcbnew,(5.1.4)-1*
G04 #@! TF.CreationDate,2022-11-05T06:08:51+01:00*
G04 #@! TF.ProjectId,REG1-Front-Universal,52454731-2d46-4726-9f6e-742d556e6976,V00.01*
G04 #@! TF.SameCoordinates,Original*
G04 #@! TF.FileFunction,Legend,Bot*
G04 #@! TF.FilePolarity,Positive*
%FSLAX46Y46*%
G04 Gerber Fmt 4.6, Leading zero omitted, Abs format (unit mm)*
G04 Created by KiCad (PCBNEW (5.1.4)-1) date 2022-11-05 06:08:51*
%MOMM*%
%LPD*%
G04 APERTURE LIST*
%ADD10C,0.150000*%
%ADD11C,0.100000*%
%ADD12C,0.120000*%
G04 APERTURE END LIST*
D10*
X110369047Y-105402380D02*
X110369047Y-106116666D01*
X110416666Y-106259523D01*
X110511904Y-106354761D01*
X110654761Y-106402380D01*
X110750000Y-106402380D01*
X109416666Y-106402380D02*
X109892857Y-106402380D01*
X109892857Y-105402380D01*
X108511904Y-106307142D02*
X108559523Y-106354761D01*
X108702380Y-106402380D01*
X108797619Y-106402380D01*
X108940476Y-106354761D01*
X109035714Y-106259523D01*
X109083333Y-106164285D01*
X109130952Y-105973809D01*
X109130952Y-105830952D01*
X109083333Y-105640476D01*
X109035714Y-105545238D01*
X108940476Y-105450000D01*
X108797619Y-105402380D01*
X108702380Y-105402380D01*
X108559523Y-105450000D01*
X108511904Y-105497619D01*
X107797619Y-105402380D02*
X107797619Y-106116666D01*
X107845238Y-106259523D01*
X107940476Y-106354761D01*
X108083333Y-106402380D01*
X108178571Y-106402380D01*
X106845238Y-106402380D02*
X107321428Y-106402380D01*
X107321428Y-105402380D01*
X105940476Y-106307142D02*
X105988095Y-106354761D01*
X106130952Y-106402380D01*
X106226190Y-106402380D01*
X106369047Y-106354761D01*
X106464285Y-106259523D01*
X106511904Y-106164285D01*
X106559523Y-105973809D01*
X106559523Y-105830952D01*
X106511904Y-105640476D01*
X106464285Y-105545238D01*
X106369047Y-105450000D01*
X106226190Y-105402380D01*
X106130952Y-105402380D01*
X105988095Y-105450000D01*
X105940476Y-105497619D01*
X105226190Y-105402380D02*
X105226190Y-106116666D01*
X105273809Y-106259523D01*
X105369047Y-106354761D01*
X105511904Y-106402380D01*
X105607142Y-106402380D01*
X104273809Y-106402380D02*
X104750000Y-106402380D01*
X104750000Y-105402380D01*
X103369047Y-106307142D02*
X103416666Y-106354761D01*
X103559523Y-106402380D01*
X103654761Y-106402380D01*
X103797619Y-106354761D01*
X103892857Y-106259523D01*
X103940476Y-106164285D01*
X103988095Y-105973809D01*
X103988095Y-105830952D01*
X103940476Y-105640476D01*
X103892857Y-105545238D01*
X103797619Y-105450000D01*
X103654761Y-105402380D01*
X103559523Y-105402380D01*
X103416666Y-105450000D01*
X103369047Y-105497619D01*
X102654761Y-105402380D02*
X102654761Y-106116666D01*
X102702380Y-106259523D01*
X102797619Y-106354761D01*
X102940476Y-106402380D01*
X103035714Y-106402380D01*
X101702380Y-106402380D02*
X102178571Y-106402380D01*
X102178571Y-105402380D01*
X100797619Y-106307142D02*
X100845238Y-106354761D01*
X100988095Y-106402380D01*
X101083333Y-106402380D01*
X101226190Y-106354761D01*
X101321428Y-106259523D01*
X101369047Y-106164285D01*
X101416666Y-105973809D01*
X101416666Y-105830952D01*
X101369047Y-105640476D01*
X101321428Y-105545238D01*
X101226190Y-105450000D01*
X101083333Y-105402380D01*
X100988095Y-105402380D01*
X100845238Y-105450000D01*
X100797619Y-105497619D01*
X111217380Y-131847023D02*
X110741190Y-131513690D01*
X111217380Y-131275595D02*
X110217380Y-131275595D01*
X110217380Y-131656547D01*
X110265000Y-131751785D01*
X110312619Y-131799404D01*
X110407857Y-131847023D01*
X110550714Y-131847023D01*
X110645952Y-131799404D01*
X110693571Y-131751785D01*
X110741190Y-131656547D01*
X110741190Y-131275595D01*
X110693571Y-132275595D02*
X110693571Y-132608928D01*
X111217380Y-132751785D02*
X111217380Y-132275595D01*
X110217380Y-132275595D01*
X110217380Y-132751785D01*
X110265000Y-133704166D02*
X110217380Y-133608928D01*
X110217380Y-133466071D01*
X110265000Y-133323214D01*
X110360238Y-133227976D01*
X110455476Y-133180357D01*
X110645952Y-133132738D01*
X110788809Y-133132738D01*
X110979285Y-133180357D01*
X111074523Y-133227976D01*
X111169761Y-133323214D01*
X111217380Y-133466071D01*
X111217380Y-133561309D01*
X111169761Y-133704166D01*
X111122142Y-133751785D01*
X110788809Y-133751785D01*
X110788809Y-133561309D01*
X111217380Y-134704166D02*
X111217380Y-134132738D01*
X111217380Y-134418452D02*
X110217380Y-134418452D01*
X110360238Y-134323214D01*
X110455476Y-134227976D01*
X110503095Y-134132738D01*
X110836428Y-135132738D02*
X110836428Y-135894642D01*
X110693571Y-136704166D02*
X110693571Y-136370833D01*
X111217380Y-136370833D02*
X110217380Y-136370833D01*
X110217380Y-136847023D01*
X111217380Y-137227976D02*
X110550714Y-137227976D01*
X110741190Y-137227976D02*
X110645952Y-137275595D01*
X110598333Y-137323214D01*
X110550714Y-137418452D01*
X110550714Y-137513690D01*
X111217380Y-137989880D02*
X111169761Y-137894642D01*
X111122142Y-137847023D01*
X111026904Y-137799404D01*
X110741190Y-137799404D01*
X110645952Y-137847023D01*
X110598333Y-137894642D01*
X110550714Y-137989880D01*
X110550714Y-138132738D01*
X110598333Y-138227976D01*
X110645952Y-138275595D01*
X110741190Y-138323214D01*
X111026904Y-138323214D01*
X111122142Y-138275595D01*
X111169761Y-138227976D01*
X111217380Y-138132738D01*
X111217380Y-137989880D01*
X110550714Y-138751785D02*
X111217380Y-138751785D01*
X110645952Y-138751785D02*
X110598333Y-138799404D01*
X110550714Y-138894642D01*
X110550714Y-139037500D01*
X110598333Y-139132738D01*
X110693571Y-139180357D01*
X111217380Y-139180357D01*
X110550714Y-139513690D02*
X110550714Y-139894642D01*
X110217380Y-139656547D02*
X111074523Y-139656547D01*
X111169761Y-139704166D01*
X111217380Y-139799404D01*
X111217380Y-139894642D01*
X110836428Y-140227976D02*
X110836428Y-140989880D01*
X110217380Y-141466071D02*
X111026904Y-141466071D01*
X111122142Y-141513690D01*
X111169761Y-141561309D01*
X111217380Y-141656547D01*
X111217380Y-141847023D01*
X111169761Y-141942261D01*
X111122142Y-141989880D01*
X111026904Y-142037500D01*
X110217380Y-142037500D01*
X110550714Y-142513690D02*
X111217380Y-142513690D01*
X110645952Y-142513690D02*
X110598333Y-142561309D01*
X110550714Y-142656547D01*
X110550714Y-142799404D01*
X110598333Y-142894642D01*
X110693571Y-142942261D01*
X111217380Y-142942261D01*
X111217380Y-143418452D02*
X110550714Y-143418452D01*
X110217380Y-143418452D02*
X110265000Y-143370833D01*
X110312619Y-143418452D01*
X110265000Y-143466071D01*
X110217380Y-143418452D01*
X110312619Y-143418452D01*
X110550714Y-143799404D02*
X111217380Y-144037500D01*
X110550714Y-144275595D01*
X111169761Y-145037500D02*
X111217380Y-144942261D01*
X111217380Y-144751785D01*
X111169761Y-144656547D01*
X111074523Y-144608928D01*
X110693571Y-144608928D01*
X110598333Y-144656547D01*
X110550714Y-144751785D01*
X110550714Y-144942261D01*
X110598333Y-145037500D01*
X110693571Y-145085119D01*
X110788809Y-145085119D01*
X110884047Y-144608928D01*
X111217380Y-145513690D02*
X110550714Y-145513690D01*
X110741190Y-145513690D02*
X110645952Y-145561309D01*
X110598333Y-145608928D01*
X110550714Y-145704166D01*
X110550714Y-145799404D01*
X111169761Y-146085119D02*
X111217380Y-146180357D01*
X111217380Y-146370833D01*
X111169761Y-146466071D01*
X111074523Y-146513690D01*
X111026904Y-146513690D01*
X110931666Y-146466071D01*
X110884047Y-146370833D01*
X110884047Y-146227976D01*
X110836428Y-146132738D01*
X110741190Y-146085119D01*
X110693571Y-146085119D01*
X110598333Y-146132738D01*
X110550714Y-146227976D01*
X110550714Y-146370833D01*
X110598333Y-146466071D01*
X111217380Y-147370833D02*
X110693571Y-147370833D01*
X110598333Y-147323214D01*
X110550714Y-147227976D01*
X110550714Y-147037500D01*
X110598333Y-146942261D01*
X111169761Y-147370833D02*
X111217380Y-147275595D01*
X111217380Y-147037500D01*
X111169761Y-146942261D01*
X111074523Y-146894642D01*
X110979285Y-146894642D01*
X110884047Y-146942261D01*
X110836428Y-147037500D01*
X110836428Y-147275595D01*
X110788809Y-147370833D01*
X111217380Y-147989880D02*
X111169761Y-147894642D01*
X111074523Y-147847023D01*
X110217380Y-147847023D01*
X111867380Y-131132738D02*
X112867380Y-131466071D01*
X111867380Y-131799404D01*
X111867380Y-132323214D02*
X111867380Y-132418452D01*
X111915000Y-132513690D01*
X111962619Y-132561309D01*
X112057857Y-132608928D01*
X112248333Y-132656547D01*
X112486428Y-132656547D01*
X112676904Y-132608928D01*
X112772142Y-132561309D01*
X112819761Y-132513690D01*
X112867380Y-132418452D01*
X112867380Y-132323214D01*
X112819761Y-132227976D01*
X112772142Y-132180357D01*
X112676904Y-132132738D01*
X112486428Y-132085119D01*
X112248333Y-132085119D01*
X112057857Y-132132738D01*
X111962619Y-132180357D01*
X111915000Y-132227976D01*
X111867380Y-132323214D01*
X111867380Y-133275595D02*
X111867380Y-133370833D01*
X111915000Y-133466071D01*
X111962619Y-133513690D01*
X112057857Y-133561309D01*
X112248333Y-133608928D01*
X112486428Y-133608928D01*
X112676904Y-133561309D01*
X112772142Y-133513690D01*
X112819761Y-133466071D01*
X112867380Y-133370833D01*
X112867380Y-133275595D01*
X112819761Y-133180357D01*
X112772142Y-133132738D01*
X112676904Y-133085119D01*
X112486428Y-133037500D01*
X112248333Y-133037500D01*
X112057857Y-133085119D01*
X111962619Y-133132738D01*
X111915000Y-133180357D01*
X111867380Y-133275595D01*
X112772142Y-134037500D02*
X112819761Y-134085119D01*
X112867380Y-134037500D01*
X112819761Y-133989880D01*
X112772142Y-134037500D01*
X112867380Y-134037500D01*
X111867380Y-134704166D02*
X111867380Y-134799404D01*
X111915000Y-134894642D01*
X111962619Y-134942261D01*
X112057857Y-134989880D01*
X112248333Y-135037500D01*
X112486428Y-135037500D01*
X112676904Y-134989880D01*
X112772142Y-134942261D01*
X112819761Y-134894642D01*
X112867380Y-134799404D01*
X112867380Y-134704166D01*
X112819761Y-134608928D01*
X112772142Y-134561309D01*
X112676904Y-134513690D01*
X112486428Y-134466071D01*
X112248333Y-134466071D01*
X112057857Y-134513690D01*
X111962619Y-134561309D01*
X111915000Y-134608928D01*
X111867380Y-134704166D01*
X111962619Y-135418452D02*
X111915000Y-135466071D01*
X111867380Y-135561309D01*
X111867380Y-135799404D01*
X111915000Y-135894642D01*
X111962619Y-135942261D01*
X112057857Y-135989880D01*
X112153095Y-135989880D01*
X112295952Y-135942261D01*
X112867380Y-135370833D01*
X112867380Y-135989880D01*
X112105476Y-137989880D02*
X112057857Y-137894642D01*
X112057857Y-137704166D01*
X112105476Y-137608928D01*
X112200714Y-137513690D01*
X112295952Y-137466071D01*
X112486428Y-137466071D01*
X112581666Y-137513690D01*
X112676904Y-137608928D01*
X112724523Y-137704166D01*
X112724523Y-137894642D01*
X112676904Y-137989880D01*
X111724523Y-137799404D02*
X111772142Y-137561309D01*
X111915000Y-137323214D01*
X112153095Y-137180357D01*
X112391190Y-137132738D01*
X112629285Y-137180357D01*
X112867380Y-137323214D01*
X113010238Y-137561309D01*
X113057857Y-137799404D01*
X113010238Y-138037500D01*
X112867380Y-138275595D01*
X112629285Y-138418452D01*
X112391190Y-138466071D01*
X112153095Y-138418452D01*
X111915000Y-138275595D01*
X111772142Y-138037500D01*
X111724523Y-137799404D01*
X112867380Y-139656547D02*
X111867380Y-139656547D01*
X112200714Y-140132738D02*
X112867380Y-140132738D01*
X112295952Y-140132738D02*
X112248333Y-140180357D01*
X112200714Y-140275595D01*
X112200714Y-140418452D01*
X112248333Y-140513690D01*
X112343571Y-140561309D01*
X112867380Y-140561309D01*
X112200714Y-141466071D02*
X113010238Y-141466071D01*
X113105476Y-141418452D01*
X113153095Y-141370833D01*
X113200714Y-141275595D01*
X113200714Y-141132738D01*
X113153095Y-141037500D01*
X112819761Y-141466071D02*
X112867380Y-141370833D01*
X112867380Y-141180357D01*
X112819761Y-141085119D01*
X112772142Y-141037500D01*
X112676904Y-140989880D01*
X112391190Y-140989880D01*
X112295952Y-141037500D01*
X112248333Y-141085119D01*
X112200714Y-141180357D01*
X112200714Y-141370833D01*
X112248333Y-141466071D01*
X112486428Y-141942261D02*
X112486428Y-142704166D01*
X112867380Y-143180357D02*
X111867380Y-143180357D01*
X111867380Y-143418452D01*
X111915000Y-143561309D01*
X112010238Y-143656547D01*
X112105476Y-143704166D01*
X112295952Y-143751785D01*
X112438809Y-143751785D01*
X112629285Y-143704166D01*
X112724523Y-143656547D01*
X112819761Y-143561309D01*
X112867380Y-143418452D01*
X112867380Y-143180357D01*
X112867380Y-144323214D02*
X112819761Y-144227976D01*
X112772142Y-144180357D01*
X112676904Y-144132738D01*
X112391190Y-144132738D01*
X112295952Y-144180357D01*
X112248333Y-144227976D01*
X112200714Y-144323214D01*
X112200714Y-144466071D01*
X112248333Y-144561309D01*
X112295952Y-144608928D01*
X112391190Y-144656547D01*
X112676904Y-144656547D01*
X112772142Y-144608928D01*
X112819761Y-144561309D01*
X112867380Y-144466071D01*
X112867380Y-144323214D01*
X112867380Y-145085119D02*
X112200714Y-145085119D01*
X112295952Y-145085119D02*
X112248333Y-145132738D01*
X112200714Y-145227976D01*
X112200714Y-145370833D01*
X112248333Y-145466071D01*
X112343571Y-145513690D01*
X112867380Y-145513690D01*
X112343571Y-145513690D02*
X112248333Y-145561309D01*
X112200714Y-145656547D01*
X112200714Y-145799404D01*
X112248333Y-145894642D01*
X112343571Y-145942261D01*
X112867380Y-145942261D01*
X112819761Y-146466071D02*
X112867380Y-146466071D01*
X112962619Y-146418452D01*
X113010238Y-146370833D01*
X111962619Y-147608928D02*
X111915000Y-147656547D01*
X111867380Y-147751785D01*
X111867380Y-147989880D01*
X111915000Y-148085119D01*
X111962619Y-148132738D01*
X112057857Y-148180357D01*
X112153095Y-148180357D01*
X112295952Y-148132738D01*
X112867380Y-147561309D01*
X112867380Y-148180357D01*
X111867380Y-148799404D02*
X111867380Y-148894642D01*
X111915000Y-148989880D01*
X111962619Y-149037500D01*
X112057857Y-149085119D01*
X112248333Y-149132738D01*
X112486428Y-149132738D01*
X112676904Y-149085119D01*
X112772142Y-149037500D01*
X112819761Y-148989880D01*
X112867380Y-148894642D01*
X112867380Y-148799404D01*
X112819761Y-148704166D01*
X112772142Y-148656547D01*
X112676904Y-148608928D01*
X112486428Y-148561309D01*
X112248333Y-148561309D01*
X112057857Y-148608928D01*
X111962619Y-148656547D01*
X111915000Y-148704166D01*
X111867380Y-148799404D01*
X111962619Y-149513690D02*
X111915000Y-149561309D01*
X111867380Y-149656547D01*
X111867380Y-149894642D01*
X111915000Y-149989880D01*
X111962619Y-150037500D01*
X112057857Y-150085119D01*
X112153095Y-150085119D01*
X112295952Y-150037500D01*
X112867380Y-149466071D01*
X112867380Y-150085119D01*
X111962619Y-150466071D02*
X111915000Y-150513690D01*
X111867380Y-150608928D01*
X111867380Y-150847023D01*
X111915000Y-150942261D01*
X111962619Y-150989880D01*
X112057857Y-151037500D01*
X112153095Y-151037500D01*
X112295952Y-150989880D01*
X112867380Y-150418452D01*
X112867380Y-151037500D01*
D11*
X109021904Y-118207857D02*
X108221904Y-118207857D01*
X108221904Y-118512619D01*
X108260000Y-118588809D01*
X108298095Y-118626904D01*
X108374285Y-118665000D01*
X108488571Y-118665000D01*
X108564761Y-118626904D01*
X108602857Y-118588809D01*
X108640952Y-118512619D01*
X108640952Y-118207857D01*
X108602857Y-119274523D02*
X108640952Y-119388809D01*
X108679047Y-119426904D01*
X108755238Y-119465000D01*
X108869523Y-119465000D01*
X108945714Y-119426904D01*
X108983809Y-119388809D01*
X109021904Y-119312619D01*
X109021904Y-119007857D01*
X108221904Y-119007857D01*
X108221904Y-119274523D01*
X108260000Y-119350714D01*
X108298095Y-119388809D01*
X108374285Y-119426904D01*
X108450476Y-119426904D01*
X108526666Y-119388809D01*
X108564761Y-119350714D01*
X108602857Y-119274523D01*
X108602857Y-119007857D01*
X108221904Y-119693571D02*
X108221904Y-120150714D01*
X109021904Y-119922142D02*
X108221904Y-119922142D01*
X109021904Y-120417380D02*
X108221904Y-120417380D01*
X109021904Y-120874523D01*
X108221904Y-120874523D01*
D10*
X102012380Y-129020357D02*
X102012380Y-129639404D01*
X102393333Y-129306071D01*
X102393333Y-129448928D01*
X102440952Y-129544166D01*
X102488571Y-129591785D01*
X102583809Y-129639404D01*
X102821904Y-129639404D01*
X102917142Y-129591785D01*
X102964761Y-129544166D01*
X103012380Y-129448928D01*
X103012380Y-129163214D01*
X102964761Y-129067976D01*
X102917142Y-129020357D01*
X102012380Y-129925119D02*
X103012380Y-130258452D01*
X102012380Y-130591785D01*
X102012380Y-130829880D02*
X102012380Y-131448928D01*
X102393333Y-131115595D01*
X102393333Y-131258452D01*
X102440952Y-131353690D01*
X102488571Y-131401309D01*
X102583809Y-131448928D01*
X102821904Y-131448928D01*
X102917142Y-131401309D01*
X102964761Y-131353690D01*
X103012380Y-131258452D01*
X103012380Y-130972738D01*
X102964761Y-130877500D01*
X102917142Y-130829880D01*
X104060000Y-129539404D02*
X104012380Y-129444166D01*
X104012380Y-129301309D01*
X104060000Y-129158452D01*
X104155238Y-129063214D01*
X104250476Y-129015595D01*
X104440952Y-128967976D01*
X104583809Y-128967976D01*
X104774285Y-129015595D01*
X104869523Y-129063214D01*
X104964761Y-129158452D01*
X105012380Y-129301309D01*
X105012380Y-129396547D01*
X104964761Y-129539404D01*
X104917142Y-129587023D01*
X104583809Y-129587023D01*
X104583809Y-129396547D01*
X105012380Y-130015595D02*
X104012380Y-130015595D01*
X104012380Y-130396547D01*
X104060000Y-130491785D01*
X104107619Y-130539404D01*
X104202857Y-130587023D01*
X104345714Y-130587023D01*
X104440952Y-130539404D01*
X104488571Y-130491785D01*
X104536190Y-130396547D01*
X104536190Y-130015595D01*
X104107619Y-130967976D02*
X104060000Y-131015595D01*
X104012380Y-131110833D01*
X104012380Y-131348928D01*
X104060000Y-131444166D01*
X104107619Y-131491785D01*
X104202857Y-131539404D01*
X104298095Y-131539404D01*
X104440952Y-131491785D01*
X105012380Y-130920357D01*
X105012380Y-131539404D01*
X104345714Y-132396547D02*
X105012380Y-132396547D01*
X103964761Y-132158452D02*
X104679047Y-131920357D01*
X104679047Y-132539404D01*
X107012380Y-129787023D02*
X106536190Y-129453690D01*
X107012380Y-129215595D02*
X106012380Y-129215595D01*
X106012380Y-129596547D01*
X106060000Y-129691785D01*
X106107619Y-129739404D01*
X106202857Y-129787023D01*
X106345714Y-129787023D01*
X106440952Y-129739404D01*
X106488571Y-129691785D01*
X106536190Y-129596547D01*
X106536190Y-129215595D01*
X106488571Y-130215595D02*
X106488571Y-130548928D01*
X107012380Y-130691785D02*
X107012380Y-130215595D01*
X106012380Y-130215595D01*
X106012380Y-130691785D01*
X106964761Y-131072738D02*
X107012380Y-131215595D01*
X107012380Y-131453690D01*
X106964761Y-131548928D01*
X106917142Y-131596547D01*
X106821904Y-131644166D01*
X106726666Y-131644166D01*
X106631428Y-131596547D01*
X106583809Y-131548928D01*
X106536190Y-131453690D01*
X106488571Y-131263214D01*
X106440952Y-131167976D01*
X106393333Y-131120357D01*
X106298095Y-131072738D01*
X106202857Y-131072738D01*
X106107619Y-131120357D01*
X106060000Y-131167976D01*
X106012380Y-131263214D01*
X106012380Y-131501309D01*
X106060000Y-131644166D01*
X108488571Y-129548928D02*
X108536190Y-129691785D01*
X108583809Y-129739404D01*
X108679047Y-129787023D01*
X108821904Y-129787023D01*
X108917142Y-129739404D01*
X108964761Y-129691785D01*
X109012380Y-129596547D01*
X109012380Y-129215595D01*
X108012380Y-129215595D01*
X108012380Y-129548928D01*
X108060000Y-129644166D01*
X108107619Y-129691785D01*
X108202857Y-129739404D01*
X108298095Y-129739404D01*
X108393333Y-129691785D01*
X108440952Y-129644166D01*
X108488571Y-129548928D01*
X108488571Y-129215595D01*
X109012380Y-130691785D02*
X109012380Y-130215595D01*
X108012380Y-130215595D01*
X106160000Y-118942023D02*
X106112380Y-118846785D01*
X106112380Y-118703928D01*
X106160000Y-118561071D01*
X106255238Y-118465833D01*
X106350476Y-118418214D01*
X106540952Y-118370595D01*
X106683809Y-118370595D01*
X106874285Y-118418214D01*
X106969523Y-118465833D01*
X107064761Y-118561071D01*
X107112380Y-118703928D01*
X107112380Y-118799166D01*
X107064761Y-118942023D01*
X107017142Y-118989642D01*
X106683809Y-118989642D01*
X106683809Y-118799166D01*
X107112380Y-119418214D02*
X106112380Y-119418214D01*
X106112380Y-119799166D01*
X106160000Y-119894404D01*
X106207619Y-119942023D01*
X106302857Y-119989642D01*
X106445714Y-119989642D01*
X106540952Y-119942023D01*
X106588571Y-119894404D01*
X106636190Y-119799166D01*
X106636190Y-119418214D01*
X106112380Y-120322976D02*
X106112380Y-120942023D01*
X106493333Y-120608690D01*
X106493333Y-120751547D01*
X106540952Y-120846785D01*
X106588571Y-120894404D01*
X106683809Y-120942023D01*
X106921904Y-120942023D01*
X107017142Y-120894404D01*
X107064761Y-120846785D01*
X107112380Y-120751547D01*
X107112380Y-120465833D01*
X107064761Y-120370595D01*
X107017142Y-120322976D01*
D11*
X104921904Y-118384047D02*
X104121904Y-118384047D01*
X104121904Y-118688809D01*
X104160000Y-118765000D01*
X104198095Y-118803095D01*
X104274285Y-118841190D01*
X104388571Y-118841190D01*
X104464761Y-118803095D01*
X104502857Y-118765000D01*
X104540952Y-118688809D01*
X104540952Y-118384047D01*
X104921904Y-119565000D02*
X104921904Y-119184047D01*
X104121904Y-119184047D01*
X104502857Y-119831666D02*
X104502857Y-120098333D01*
X104921904Y-120212619D02*
X104921904Y-119831666D01*
X104121904Y-119831666D01*
X104121904Y-120212619D01*
X104921904Y-120555476D02*
X104121904Y-120555476D01*
X104121904Y-120745952D01*
X104160000Y-120860238D01*
X104236190Y-120936428D01*
X104312380Y-120974523D01*
X104464761Y-121012619D01*
X104579047Y-121012619D01*
X104731428Y-120974523D01*
X104807619Y-120936428D01*
X104883809Y-120860238D01*
X104921904Y-120745952D01*
X104921904Y-120555476D01*
D10*
X102060000Y-118846785D02*
X102012380Y-118751547D01*
X102012380Y-118608690D01*
X102060000Y-118465833D01*
X102155238Y-118370595D01*
X102250476Y-118322976D01*
X102440952Y-118275357D01*
X102583809Y-118275357D01*
X102774285Y-118322976D01*
X102869523Y-118370595D01*
X102964761Y-118465833D01*
X103012380Y-118608690D01*
X103012380Y-118703928D01*
X102964761Y-118846785D01*
X102917142Y-118894404D01*
X102583809Y-118894404D01*
X102583809Y-118703928D01*
X103012380Y-119322976D02*
X102012380Y-119322976D01*
X103012380Y-119894404D01*
X102012380Y-119894404D01*
X103012380Y-120370595D02*
X102012380Y-120370595D01*
X102012380Y-120608690D01*
X102060000Y-120751547D01*
X102155238Y-120846785D01*
X102250476Y-120894404D01*
X102440952Y-120942023D01*
X102583809Y-120942023D01*
X102774285Y-120894404D01*
X102869523Y-120846785D01*
X102964761Y-120751547D01*
X103012380Y-120608690D01*
X103012380Y-120370595D01*
D12*
X107320000Y-127040000D02*
X107800000Y-127040000D01*
X107320000Y-122920000D02*
X107800000Y-122920000D01*
X105320000Y-127040000D02*
X105800000Y-127040000D01*
X105320000Y-122920000D02*
X105800000Y-122920000D01*
X103320000Y-127040000D02*
X103800000Y-127040000D01*
X103320000Y-122920000D02*
X103800000Y-122920000D01*
X109320000Y-127040000D02*
X109620000Y-127040000D01*
X109320000Y-122920000D02*
X109620000Y-122920000D01*
X101500000Y-127040000D02*
X101800000Y-127040000D01*
X101500000Y-122920000D02*
X101800000Y-122920000D01*
X101800000Y-121665000D02*
X101800000Y-122920000D01*
X109620000Y-122920000D02*
X109620000Y-127040000D01*
X101500000Y-122920000D02*
X101500000Y-127040000D01*
D10*
X110012380Y-125046666D02*
X110726666Y-125046666D01*
X110869523Y-124999047D01*
X110964761Y-124903809D01*
X111012380Y-124760952D01*
X111012380Y-124665714D01*
X111012380Y-126046666D02*
X111012380Y-125475238D01*
X111012380Y-125760952D02*
X110012380Y-125760952D01*
X110155238Y-125665714D01*
X110250476Y-125570476D01*
X110298095Y-125475238D01*
M02*
