G04 #@! TF.GenerationSoftware,KiCad,Pcbnew,(5.1.4)-1*
G04 #@! TF.CreationDate,2022-11-05T06:08:51+01:00*
G04 #@! TF.ProjectId,REG1-Front-Universal,52454731-2d46-4726-9f6e-742d556e6976,V00.01*
G04 #@! TF.SameCoordinates,Original*
G04 #@! TF.FileFunction,Profile,NP*
%FSLAX46Y46*%
G04 Gerber Fmt 4.6, Leading zero omitted, Abs format (unit mm)*
G04 Created by KiCad (PCBNEW (5.1.4)-1) date 2022-11-05 06:08:51*
%MOMM*%
%LPD*%
G04 APERTURE LIST*
%ADD10C,0.050000*%
G04 APERTURE END LIST*
D10*
X103550000Y-152000000D02*
G75*
G02X103550000Y-154000000I0J-1000000D01*
G01*
X96600000Y-154000000D02*
X103550000Y-154000000D01*
X103550000Y-152000000D02*
X98500000Y-152000000D01*
X108350000Y-154000000D02*
G75*
G02X108350000Y-152000000I0J1000000D01*
G01*
X113200000Y-152000000D02*
X108350000Y-152000000D01*
X108350000Y-154000000D02*
X115200000Y-154000000D01*
X115200000Y-107400000D02*
X108250000Y-107400000D01*
X108250000Y-109400000D02*
X113200000Y-109400000D01*
X108250000Y-109400000D02*
G75*
G02X108250000Y-107400000I0J1000000D01*
G01*
X103450000Y-107400000D02*
G75*
G02X103450000Y-109400000I0J-1000000D01*
G01*
X93200000Y-157200000D02*
X93200000Y-104400000D01*
X118600000Y-157200000D02*
X93200000Y-157200000D01*
X118600000Y-104400000D02*
X118600000Y-157200000D01*
X93200000Y-104400000D02*
X118600000Y-104400000D01*
X96600000Y-154000000D02*
G75*
G02X96200000Y-153600000I0J400000D01*
G01*
X115600000Y-153600000D02*
G75*
G02X115200000Y-154000000I-400000J0D01*
G01*
X96200000Y-107800000D02*
G75*
G02X96600000Y-107400000I400000J0D01*
G01*
X115200000Y-107400000D02*
G75*
G02X115600000Y-107800000I0J-400000D01*
G01*
X115600000Y-153600000D02*
X115600000Y-107800000D01*
X96200000Y-153600000D02*
X96200000Y-107800000D01*
X103450000Y-107400000D02*
X96600000Y-107400000D01*
X98200000Y-151700000D02*
X98500000Y-152000000D01*
X113500000Y-151700000D02*
X113200000Y-152000000D01*
X113200000Y-109400000D02*
X113500000Y-109700000D01*
X98500000Y-109400000D02*
X98200000Y-109700000D01*
X98200000Y-151700000D02*
X98200000Y-109700000D01*
X113500000Y-109700000D02*
X113500000Y-151700000D01*
X98500000Y-109400000D02*
X103450000Y-109400000D01*
M02*
