G04 #@! TF.GenerationSoftware,KiCad,Pcbnew,(5.1.4)-1*
G04 #@! TF.CreationDate,2022-11-05T06:08:51+01:00*
G04 #@! TF.ProjectId,REG1-Front-Universal,52454731-2d46-4726-9f6e-742d556e6976,V00.01*
G04 #@! TF.SameCoordinates,Original*
G04 #@! TF.FileFunction,Paste,Top*
G04 #@! TF.FilePolarity,Positive*
%FSLAX46Y46*%
G04 Gerber Fmt 4.6, Leading zero omitted, Abs format (unit mm)*
G04 Created by KiCad (PCBNEW (5.1.4)-1) date 2022-11-05 06:08:51*
%MOMM*%
%LPD*%
G04 APERTURE LIST*
%ADD10C,0.100000*%
%ADD11C,0.875000*%
%ADD12R,0.650000X1.200000*%
%ADD13C,0.590000*%
G04 APERTURE END LIST*
D10*
G36*
X111777691Y-116526053D02*
G01*
X111798926Y-116529203D01*
X111819750Y-116534419D01*
X111839962Y-116541651D01*
X111859368Y-116550830D01*
X111877781Y-116561866D01*
X111895024Y-116574654D01*
X111910930Y-116589070D01*
X111925346Y-116604976D01*
X111938134Y-116622219D01*
X111949170Y-116640632D01*
X111958349Y-116660038D01*
X111965581Y-116680250D01*
X111970797Y-116701074D01*
X111973947Y-116722309D01*
X111975000Y-116743750D01*
X111975000Y-117181250D01*
X111973947Y-117202691D01*
X111970797Y-117223926D01*
X111965581Y-117244750D01*
X111958349Y-117264962D01*
X111949170Y-117284368D01*
X111938134Y-117302781D01*
X111925346Y-117320024D01*
X111910930Y-117335930D01*
X111895024Y-117350346D01*
X111877781Y-117363134D01*
X111859368Y-117374170D01*
X111839962Y-117383349D01*
X111819750Y-117390581D01*
X111798926Y-117395797D01*
X111777691Y-117398947D01*
X111756250Y-117400000D01*
X111243750Y-117400000D01*
X111222309Y-117398947D01*
X111201074Y-117395797D01*
X111180250Y-117390581D01*
X111160038Y-117383349D01*
X111140632Y-117374170D01*
X111122219Y-117363134D01*
X111104976Y-117350346D01*
X111089070Y-117335930D01*
X111074654Y-117320024D01*
X111061866Y-117302781D01*
X111050830Y-117284368D01*
X111041651Y-117264962D01*
X111034419Y-117244750D01*
X111029203Y-117223926D01*
X111026053Y-117202691D01*
X111025000Y-117181250D01*
X111025000Y-116743750D01*
X111026053Y-116722309D01*
X111029203Y-116701074D01*
X111034419Y-116680250D01*
X111041651Y-116660038D01*
X111050830Y-116640632D01*
X111061866Y-116622219D01*
X111074654Y-116604976D01*
X111089070Y-116589070D01*
X111104976Y-116574654D01*
X111122219Y-116561866D01*
X111140632Y-116550830D01*
X111160038Y-116541651D01*
X111180250Y-116534419D01*
X111201074Y-116529203D01*
X111222309Y-116526053D01*
X111243750Y-116525000D01*
X111756250Y-116525000D01*
X111777691Y-116526053D01*
X111777691Y-116526053D01*
G37*
D11*
X111500000Y-116962500D03*
D10*
G36*
X111777691Y-118101053D02*
G01*
X111798926Y-118104203D01*
X111819750Y-118109419D01*
X111839962Y-118116651D01*
X111859368Y-118125830D01*
X111877781Y-118136866D01*
X111895024Y-118149654D01*
X111910930Y-118164070D01*
X111925346Y-118179976D01*
X111938134Y-118197219D01*
X111949170Y-118215632D01*
X111958349Y-118235038D01*
X111965581Y-118255250D01*
X111970797Y-118276074D01*
X111973947Y-118297309D01*
X111975000Y-118318750D01*
X111975000Y-118756250D01*
X111973947Y-118777691D01*
X111970797Y-118798926D01*
X111965581Y-118819750D01*
X111958349Y-118839962D01*
X111949170Y-118859368D01*
X111938134Y-118877781D01*
X111925346Y-118895024D01*
X111910930Y-118910930D01*
X111895024Y-118925346D01*
X111877781Y-118938134D01*
X111859368Y-118949170D01*
X111839962Y-118958349D01*
X111819750Y-118965581D01*
X111798926Y-118970797D01*
X111777691Y-118973947D01*
X111756250Y-118975000D01*
X111243750Y-118975000D01*
X111222309Y-118973947D01*
X111201074Y-118970797D01*
X111180250Y-118965581D01*
X111160038Y-118958349D01*
X111140632Y-118949170D01*
X111122219Y-118938134D01*
X111104976Y-118925346D01*
X111089070Y-118910930D01*
X111074654Y-118895024D01*
X111061866Y-118877781D01*
X111050830Y-118859368D01*
X111041651Y-118839962D01*
X111034419Y-118819750D01*
X111029203Y-118798926D01*
X111026053Y-118777691D01*
X111025000Y-118756250D01*
X111025000Y-118318750D01*
X111026053Y-118297309D01*
X111029203Y-118276074D01*
X111034419Y-118255250D01*
X111041651Y-118235038D01*
X111050830Y-118215632D01*
X111061866Y-118197219D01*
X111074654Y-118179976D01*
X111089070Y-118164070D01*
X111104976Y-118149654D01*
X111122219Y-118136866D01*
X111140632Y-118125830D01*
X111160038Y-118116651D01*
X111180250Y-118109419D01*
X111201074Y-118104203D01*
X111222309Y-118101053D01*
X111243750Y-118100000D01*
X111756250Y-118100000D01*
X111777691Y-118101053D01*
X111777691Y-118101053D01*
G37*
D11*
X111500000Y-118537500D03*
D10*
G36*
X111777691Y-123026053D02*
G01*
X111798926Y-123029203D01*
X111819750Y-123034419D01*
X111839962Y-123041651D01*
X111859368Y-123050830D01*
X111877781Y-123061866D01*
X111895024Y-123074654D01*
X111910930Y-123089070D01*
X111925346Y-123104976D01*
X111938134Y-123122219D01*
X111949170Y-123140632D01*
X111958349Y-123160038D01*
X111965581Y-123180250D01*
X111970797Y-123201074D01*
X111973947Y-123222309D01*
X111975000Y-123243750D01*
X111975000Y-123681250D01*
X111973947Y-123702691D01*
X111970797Y-123723926D01*
X111965581Y-123744750D01*
X111958349Y-123764962D01*
X111949170Y-123784368D01*
X111938134Y-123802781D01*
X111925346Y-123820024D01*
X111910930Y-123835930D01*
X111895024Y-123850346D01*
X111877781Y-123863134D01*
X111859368Y-123874170D01*
X111839962Y-123883349D01*
X111819750Y-123890581D01*
X111798926Y-123895797D01*
X111777691Y-123898947D01*
X111756250Y-123900000D01*
X111243750Y-123900000D01*
X111222309Y-123898947D01*
X111201074Y-123895797D01*
X111180250Y-123890581D01*
X111160038Y-123883349D01*
X111140632Y-123874170D01*
X111122219Y-123863134D01*
X111104976Y-123850346D01*
X111089070Y-123835930D01*
X111074654Y-123820024D01*
X111061866Y-123802781D01*
X111050830Y-123784368D01*
X111041651Y-123764962D01*
X111034419Y-123744750D01*
X111029203Y-123723926D01*
X111026053Y-123702691D01*
X111025000Y-123681250D01*
X111025000Y-123243750D01*
X111026053Y-123222309D01*
X111029203Y-123201074D01*
X111034419Y-123180250D01*
X111041651Y-123160038D01*
X111050830Y-123140632D01*
X111061866Y-123122219D01*
X111074654Y-123104976D01*
X111089070Y-123089070D01*
X111104976Y-123074654D01*
X111122219Y-123061866D01*
X111140632Y-123050830D01*
X111160038Y-123041651D01*
X111180250Y-123034419D01*
X111201074Y-123029203D01*
X111222309Y-123026053D01*
X111243750Y-123025000D01*
X111756250Y-123025000D01*
X111777691Y-123026053D01*
X111777691Y-123026053D01*
G37*
D11*
X111500000Y-123462500D03*
D10*
G36*
X111777691Y-124601053D02*
G01*
X111798926Y-124604203D01*
X111819750Y-124609419D01*
X111839962Y-124616651D01*
X111859368Y-124625830D01*
X111877781Y-124636866D01*
X111895024Y-124649654D01*
X111910930Y-124664070D01*
X111925346Y-124679976D01*
X111938134Y-124697219D01*
X111949170Y-124715632D01*
X111958349Y-124735038D01*
X111965581Y-124755250D01*
X111970797Y-124776074D01*
X111973947Y-124797309D01*
X111975000Y-124818750D01*
X111975000Y-125256250D01*
X111973947Y-125277691D01*
X111970797Y-125298926D01*
X111965581Y-125319750D01*
X111958349Y-125339962D01*
X111949170Y-125359368D01*
X111938134Y-125377781D01*
X111925346Y-125395024D01*
X111910930Y-125410930D01*
X111895024Y-125425346D01*
X111877781Y-125438134D01*
X111859368Y-125449170D01*
X111839962Y-125458349D01*
X111819750Y-125465581D01*
X111798926Y-125470797D01*
X111777691Y-125473947D01*
X111756250Y-125475000D01*
X111243750Y-125475000D01*
X111222309Y-125473947D01*
X111201074Y-125470797D01*
X111180250Y-125465581D01*
X111160038Y-125458349D01*
X111140632Y-125449170D01*
X111122219Y-125438134D01*
X111104976Y-125425346D01*
X111089070Y-125410930D01*
X111074654Y-125395024D01*
X111061866Y-125377781D01*
X111050830Y-125359368D01*
X111041651Y-125339962D01*
X111034419Y-125319750D01*
X111029203Y-125298926D01*
X111026053Y-125277691D01*
X111025000Y-125256250D01*
X111025000Y-124818750D01*
X111026053Y-124797309D01*
X111029203Y-124776074D01*
X111034419Y-124755250D01*
X111041651Y-124735038D01*
X111050830Y-124715632D01*
X111061866Y-124697219D01*
X111074654Y-124679976D01*
X111089070Y-124664070D01*
X111104976Y-124649654D01*
X111122219Y-124636866D01*
X111140632Y-124625830D01*
X111160038Y-124616651D01*
X111180250Y-124609419D01*
X111201074Y-124604203D01*
X111222309Y-124601053D01*
X111243750Y-124600000D01*
X111756250Y-124600000D01*
X111777691Y-124601053D01*
X111777691Y-124601053D01*
G37*
D11*
X111500000Y-125037500D03*
D12*
X100650000Y-135825000D03*
X102800000Y-135825000D03*
X100650000Y-140125000D03*
X102800000Y-140125000D03*
X100645000Y-129480000D03*
X102795000Y-129480000D03*
X100645000Y-133780000D03*
X102795000Y-133780000D03*
X100635000Y-122010000D03*
X102785000Y-122010000D03*
X100635000Y-126310000D03*
X102785000Y-126310000D03*
D10*
G36*
X111176958Y-126030710D02*
G01*
X111191276Y-126032834D01*
X111205317Y-126036351D01*
X111218946Y-126041228D01*
X111232031Y-126047417D01*
X111244447Y-126054858D01*
X111256073Y-126063481D01*
X111266798Y-126073202D01*
X111276519Y-126083927D01*
X111285142Y-126095553D01*
X111292583Y-126107969D01*
X111298772Y-126121054D01*
X111303649Y-126134683D01*
X111307166Y-126148724D01*
X111309290Y-126163042D01*
X111310000Y-126177500D01*
X111310000Y-126522500D01*
X111309290Y-126536958D01*
X111307166Y-126551276D01*
X111303649Y-126565317D01*
X111298772Y-126578946D01*
X111292583Y-126592031D01*
X111285142Y-126604447D01*
X111276519Y-126616073D01*
X111266798Y-126626798D01*
X111256073Y-126636519D01*
X111244447Y-126645142D01*
X111232031Y-126652583D01*
X111218946Y-126658772D01*
X111205317Y-126663649D01*
X111191276Y-126667166D01*
X111176958Y-126669290D01*
X111162500Y-126670000D01*
X110867500Y-126670000D01*
X110853042Y-126669290D01*
X110838724Y-126667166D01*
X110824683Y-126663649D01*
X110811054Y-126658772D01*
X110797969Y-126652583D01*
X110785553Y-126645142D01*
X110773927Y-126636519D01*
X110763202Y-126626798D01*
X110753481Y-126616073D01*
X110744858Y-126604447D01*
X110737417Y-126592031D01*
X110731228Y-126578946D01*
X110726351Y-126565317D01*
X110722834Y-126551276D01*
X110720710Y-126536958D01*
X110720000Y-126522500D01*
X110720000Y-126177500D01*
X110720710Y-126163042D01*
X110722834Y-126148724D01*
X110726351Y-126134683D01*
X110731228Y-126121054D01*
X110737417Y-126107969D01*
X110744858Y-126095553D01*
X110753481Y-126083927D01*
X110763202Y-126073202D01*
X110773927Y-126063481D01*
X110785553Y-126054858D01*
X110797969Y-126047417D01*
X110811054Y-126041228D01*
X110824683Y-126036351D01*
X110838724Y-126032834D01*
X110853042Y-126030710D01*
X110867500Y-126030000D01*
X111162500Y-126030000D01*
X111176958Y-126030710D01*
X111176958Y-126030710D01*
G37*
D13*
X111015000Y-126350000D03*
D10*
G36*
X112146958Y-126030710D02*
G01*
X112161276Y-126032834D01*
X112175317Y-126036351D01*
X112188946Y-126041228D01*
X112202031Y-126047417D01*
X112214447Y-126054858D01*
X112226073Y-126063481D01*
X112236798Y-126073202D01*
X112246519Y-126083927D01*
X112255142Y-126095553D01*
X112262583Y-126107969D01*
X112268772Y-126121054D01*
X112273649Y-126134683D01*
X112277166Y-126148724D01*
X112279290Y-126163042D01*
X112280000Y-126177500D01*
X112280000Y-126522500D01*
X112279290Y-126536958D01*
X112277166Y-126551276D01*
X112273649Y-126565317D01*
X112268772Y-126578946D01*
X112262583Y-126592031D01*
X112255142Y-126604447D01*
X112246519Y-126616073D01*
X112236798Y-126626798D01*
X112226073Y-126636519D01*
X112214447Y-126645142D01*
X112202031Y-126652583D01*
X112188946Y-126658772D01*
X112175317Y-126663649D01*
X112161276Y-126667166D01*
X112146958Y-126669290D01*
X112132500Y-126670000D01*
X111837500Y-126670000D01*
X111823042Y-126669290D01*
X111808724Y-126667166D01*
X111794683Y-126663649D01*
X111781054Y-126658772D01*
X111767969Y-126652583D01*
X111755553Y-126645142D01*
X111743927Y-126636519D01*
X111733202Y-126626798D01*
X111723481Y-126616073D01*
X111714858Y-126604447D01*
X111707417Y-126592031D01*
X111701228Y-126578946D01*
X111696351Y-126565317D01*
X111692834Y-126551276D01*
X111690710Y-126536958D01*
X111690000Y-126522500D01*
X111690000Y-126177500D01*
X111690710Y-126163042D01*
X111692834Y-126148724D01*
X111696351Y-126134683D01*
X111701228Y-126121054D01*
X111707417Y-126107969D01*
X111714858Y-126095553D01*
X111723481Y-126083927D01*
X111733202Y-126073202D01*
X111743927Y-126063481D01*
X111755553Y-126054858D01*
X111767969Y-126047417D01*
X111781054Y-126041228D01*
X111794683Y-126036351D01*
X111808724Y-126032834D01*
X111823042Y-126030710D01*
X111837500Y-126030000D01*
X112132500Y-126030000D01*
X112146958Y-126030710D01*
X112146958Y-126030710D01*
G37*
D13*
X111985000Y-126350000D03*
D10*
G36*
X111176958Y-119530710D02*
G01*
X111191276Y-119532834D01*
X111205317Y-119536351D01*
X111218946Y-119541228D01*
X111232031Y-119547417D01*
X111244447Y-119554858D01*
X111256073Y-119563481D01*
X111266798Y-119573202D01*
X111276519Y-119583927D01*
X111285142Y-119595553D01*
X111292583Y-119607969D01*
X111298772Y-119621054D01*
X111303649Y-119634683D01*
X111307166Y-119648724D01*
X111309290Y-119663042D01*
X111310000Y-119677500D01*
X111310000Y-120022500D01*
X111309290Y-120036958D01*
X111307166Y-120051276D01*
X111303649Y-120065317D01*
X111298772Y-120078946D01*
X111292583Y-120092031D01*
X111285142Y-120104447D01*
X111276519Y-120116073D01*
X111266798Y-120126798D01*
X111256073Y-120136519D01*
X111244447Y-120145142D01*
X111232031Y-120152583D01*
X111218946Y-120158772D01*
X111205317Y-120163649D01*
X111191276Y-120167166D01*
X111176958Y-120169290D01*
X111162500Y-120170000D01*
X110867500Y-120170000D01*
X110853042Y-120169290D01*
X110838724Y-120167166D01*
X110824683Y-120163649D01*
X110811054Y-120158772D01*
X110797969Y-120152583D01*
X110785553Y-120145142D01*
X110773927Y-120136519D01*
X110763202Y-120126798D01*
X110753481Y-120116073D01*
X110744858Y-120104447D01*
X110737417Y-120092031D01*
X110731228Y-120078946D01*
X110726351Y-120065317D01*
X110722834Y-120051276D01*
X110720710Y-120036958D01*
X110720000Y-120022500D01*
X110720000Y-119677500D01*
X110720710Y-119663042D01*
X110722834Y-119648724D01*
X110726351Y-119634683D01*
X110731228Y-119621054D01*
X110737417Y-119607969D01*
X110744858Y-119595553D01*
X110753481Y-119583927D01*
X110763202Y-119573202D01*
X110773927Y-119563481D01*
X110785553Y-119554858D01*
X110797969Y-119547417D01*
X110811054Y-119541228D01*
X110824683Y-119536351D01*
X110838724Y-119532834D01*
X110853042Y-119530710D01*
X110867500Y-119530000D01*
X111162500Y-119530000D01*
X111176958Y-119530710D01*
X111176958Y-119530710D01*
G37*
D13*
X111015000Y-119850000D03*
D10*
G36*
X112146958Y-119530710D02*
G01*
X112161276Y-119532834D01*
X112175317Y-119536351D01*
X112188946Y-119541228D01*
X112202031Y-119547417D01*
X112214447Y-119554858D01*
X112226073Y-119563481D01*
X112236798Y-119573202D01*
X112246519Y-119583927D01*
X112255142Y-119595553D01*
X112262583Y-119607969D01*
X112268772Y-119621054D01*
X112273649Y-119634683D01*
X112277166Y-119648724D01*
X112279290Y-119663042D01*
X112280000Y-119677500D01*
X112280000Y-120022500D01*
X112279290Y-120036958D01*
X112277166Y-120051276D01*
X112273649Y-120065317D01*
X112268772Y-120078946D01*
X112262583Y-120092031D01*
X112255142Y-120104447D01*
X112246519Y-120116073D01*
X112236798Y-120126798D01*
X112226073Y-120136519D01*
X112214447Y-120145142D01*
X112202031Y-120152583D01*
X112188946Y-120158772D01*
X112175317Y-120163649D01*
X112161276Y-120167166D01*
X112146958Y-120169290D01*
X112132500Y-120170000D01*
X111837500Y-120170000D01*
X111823042Y-120169290D01*
X111808724Y-120167166D01*
X111794683Y-120163649D01*
X111781054Y-120158772D01*
X111767969Y-120152583D01*
X111755553Y-120145142D01*
X111743927Y-120136519D01*
X111733202Y-120126798D01*
X111723481Y-120116073D01*
X111714858Y-120104447D01*
X111707417Y-120092031D01*
X111701228Y-120078946D01*
X111696351Y-120065317D01*
X111692834Y-120051276D01*
X111690710Y-120036958D01*
X111690000Y-120022500D01*
X111690000Y-119677500D01*
X111690710Y-119663042D01*
X111692834Y-119648724D01*
X111696351Y-119634683D01*
X111701228Y-119621054D01*
X111707417Y-119607969D01*
X111714858Y-119595553D01*
X111723481Y-119583927D01*
X111733202Y-119573202D01*
X111743927Y-119563481D01*
X111755553Y-119554858D01*
X111767969Y-119547417D01*
X111781054Y-119541228D01*
X111794683Y-119536351D01*
X111808724Y-119532834D01*
X111823042Y-119530710D01*
X111837500Y-119530000D01*
X112132500Y-119530000D01*
X112146958Y-119530710D01*
X112146958Y-119530710D01*
G37*
D13*
X111985000Y-119850000D03*
D12*
X100625000Y-115550000D03*
X102775000Y-115550000D03*
X100625000Y-119850000D03*
X102775000Y-119850000D03*
M02*
