G04 #@! TF.GenerationSoftware,KiCad,Pcbnew,(5.1.4)-1*
G04 #@! TF.CreationDate,2023-01-31T17:13:37+01:00*
G04 #@! TF.ProjectId,REG1-App-Universal,52454731-2d41-4707-902d-556e69766572,V00.10*
G04 #@! TF.SameCoordinates,Original*
G04 #@! TF.FileFunction,Legend,Top*
G04 #@! TF.FilePolarity,Positive*
%FSLAX46Y46*%
G04 Gerber Fmt 4.6, Leading zero omitted, Abs format (unit mm)*
G04 Created by KiCad (PCBNEW (5.1.4)-1) date 2023-01-31 17:13:37*
%MOMM*%
%LPD*%
G04 APERTURE LIST*
%ADD10C,0.150000*%
%ADD11C,0.010000*%
%ADD12C,0.120000*%
G04 APERTURE END LIST*
D10*
X82607023Y-94727380D02*
X82273690Y-94251190D01*
X82035595Y-94727380D02*
X82035595Y-93727380D01*
X82416547Y-93727380D01*
X82511785Y-93775000D01*
X82559404Y-93822619D01*
X82607023Y-93917857D01*
X82607023Y-94060714D01*
X82559404Y-94155952D01*
X82511785Y-94203571D01*
X82416547Y-94251190D01*
X82035595Y-94251190D01*
X83035595Y-94203571D02*
X83368928Y-94203571D01*
X83511785Y-94727380D02*
X83035595Y-94727380D01*
X83035595Y-93727380D01*
X83511785Y-93727380D01*
X84464166Y-93775000D02*
X84368928Y-93727380D01*
X84226071Y-93727380D01*
X84083214Y-93775000D01*
X83987976Y-93870238D01*
X83940357Y-93965476D01*
X83892738Y-94155952D01*
X83892738Y-94298809D01*
X83940357Y-94489285D01*
X83987976Y-94584523D01*
X84083214Y-94679761D01*
X84226071Y-94727380D01*
X84321309Y-94727380D01*
X84464166Y-94679761D01*
X84511785Y-94632142D01*
X84511785Y-94298809D01*
X84321309Y-94298809D01*
X85464166Y-94727380D02*
X84892738Y-94727380D01*
X85178452Y-94727380D02*
X85178452Y-93727380D01*
X85083214Y-93870238D01*
X84987976Y-93965476D01*
X84892738Y-94013095D01*
X85892738Y-94346428D02*
X86654642Y-94346428D01*
X87083214Y-94441666D02*
X87559404Y-94441666D01*
X86987976Y-94727380D02*
X87321309Y-93727380D01*
X87654642Y-94727380D01*
X87987976Y-94060714D02*
X87987976Y-95060714D01*
X87987976Y-94108333D02*
X88083214Y-94060714D01*
X88273690Y-94060714D01*
X88368928Y-94108333D01*
X88416547Y-94155952D01*
X88464166Y-94251190D01*
X88464166Y-94536904D01*
X88416547Y-94632142D01*
X88368928Y-94679761D01*
X88273690Y-94727380D01*
X88083214Y-94727380D01*
X87987976Y-94679761D01*
X88892738Y-94060714D02*
X88892738Y-95060714D01*
X88892738Y-94108333D02*
X88987976Y-94060714D01*
X89178452Y-94060714D01*
X89273690Y-94108333D01*
X89321309Y-94155952D01*
X89368928Y-94251190D01*
X89368928Y-94536904D01*
X89321309Y-94632142D01*
X89273690Y-94679761D01*
X89178452Y-94727380D01*
X88987976Y-94727380D01*
X88892738Y-94679761D01*
X89797500Y-94346428D02*
X90559404Y-94346428D01*
X91035595Y-93727380D02*
X91035595Y-94536904D01*
X91083214Y-94632142D01*
X91130833Y-94679761D01*
X91226071Y-94727380D01*
X91416547Y-94727380D01*
X91511785Y-94679761D01*
X91559404Y-94632142D01*
X91607023Y-94536904D01*
X91607023Y-93727380D01*
X92083214Y-94060714D02*
X92083214Y-94727380D01*
X92083214Y-94155952D02*
X92130833Y-94108333D01*
X92226071Y-94060714D01*
X92368928Y-94060714D01*
X92464166Y-94108333D01*
X92511785Y-94203571D01*
X92511785Y-94727380D01*
X92987976Y-94727380D02*
X92987976Y-94060714D01*
X92987976Y-93727380D02*
X92940357Y-93775000D01*
X92987976Y-93822619D01*
X93035595Y-93775000D01*
X92987976Y-93727380D01*
X92987976Y-93822619D01*
X93368928Y-94060714D02*
X93607023Y-94727380D01*
X93845119Y-94060714D01*
X94607023Y-94679761D02*
X94511785Y-94727380D01*
X94321309Y-94727380D01*
X94226071Y-94679761D01*
X94178452Y-94584523D01*
X94178452Y-94203571D01*
X94226071Y-94108333D01*
X94321309Y-94060714D01*
X94511785Y-94060714D01*
X94607023Y-94108333D01*
X94654642Y-94203571D01*
X94654642Y-94298809D01*
X94178452Y-94394047D01*
X95083214Y-94727380D02*
X95083214Y-94060714D01*
X95083214Y-94251190D02*
X95130833Y-94155952D01*
X95178452Y-94108333D01*
X95273690Y-94060714D01*
X95368928Y-94060714D01*
X95654642Y-94679761D02*
X95749880Y-94727380D01*
X95940357Y-94727380D01*
X96035595Y-94679761D01*
X96083214Y-94584523D01*
X96083214Y-94536904D01*
X96035595Y-94441666D01*
X95940357Y-94394047D01*
X95797500Y-94394047D01*
X95702261Y-94346428D01*
X95654642Y-94251190D01*
X95654642Y-94203571D01*
X95702261Y-94108333D01*
X95797500Y-94060714D01*
X95940357Y-94060714D01*
X96035595Y-94108333D01*
X96940357Y-94727380D02*
X96940357Y-94203571D01*
X96892738Y-94108333D01*
X96797500Y-94060714D01*
X96607023Y-94060714D01*
X96511785Y-94108333D01*
X96940357Y-94679761D02*
X96845119Y-94727380D01*
X96607023Y-94727380D01*
X96511785Y-94679761D01*
X96464166Y-94584523D01*
X96464166Y-94489285D01*
X96511785Y-94394047D01*
X96607023Y-94346428D01*
X96845119Y-94346428D01*
X96940357Y-94298809D01*
X97559404Y-94727380D02*
X97464166Y-94679761D01*
X97416547Y-94584523D01*
X97416547Y-93727380D01*
X81892738Y-95377380D02*
X82226071Y-96377380D01*
X82559404Y-95377380D01*
X83083214Y-95377380D02*
X83178452Y-95377380D01*
X83273690Y-95425000D01*
X83321309Y-95472619D01*
X83368928Y-95567857D01*
X83416547Y-95758333D01*
X83416547Y-95996428D01*
X83368928Y-96186904D01*
X83321309Y-96282142D01*
X83273690Y-96329761D01*
X83178452Y-96377380D01*
X83083214Y-96377380D01*
X82987976Y-96329761D01*
X82940357Y-96282142D01*
X82892738Y-96186904D01*
X82845119Y-95996428D01*
X82845119Y-95758333D01*
X82892738Y-95567857D01*
X82940357Y-95472619D01*
X82987976Y-95425000D01*
X83083214Y-95377380D01*
X84035595Y-95377380D02*
X84130833Y-95377380D01*
X84226071Y-95425000D01*
X84273690Y-95472619D01*
X84321309Y-95567857D01*
X84368928Y-95758333D01*
X84368928Y-95996428D01*
X84321309Y-96186904D01*
X84273690Y-96282142D01*
X84226071Y-96329761D01*
X84130833Y-96377380D01*
X84035595Y-96377380D01*
X83940357Y-96329761D01*
X83892738Y-96282142D01*
X83845119Y-96186904D01*
X83797500Y-95996428D01*
X83797500Y-95758333D01*
X83845119Y-95567857D01*
X83892738Y-95472619D01*
X83940357Y-95425000D01*
X84035595Y-95377380D01*
X84797500Y-96282142D02*
X84845119Y-96329761D01*
X84797500Y-96377380D01*
X84749880Y-96329761D01*
X84797500Y-96282142D01*
X84797500Y-96377380D01*
X85797500Y-96377380D02*
X85226071Y-96377380D01*
X85511785Y-96377380D02*
X85511785Y-95377380D01*
X85416547Y-95520238D01*
X85321309Y-95615476D01*
X85226071Y-95663095D01*
X86416547Y-95377380D02*
X86511785Y-95377380D01*
X86607023Y-95425000D01*
X86654642Y-95472619D01*
X86702261Y-95567857D01*
X86749880Y-95758333D01*
X86749880Y-95996428D01*
X86702261Y-96186904D01*
X86654642Y-96282142D01*
X86607023Y-96329761D01*
X86511785Y-96377380D01*
X86416547Y-96377380D01*
X86321309Y-96329761D01*
X86273690Y-96282142D01*
X86226071Y-96186904D01*
X86178452Y-95996428D01*
X86178452Y-95758333D01*
X86226071Y-95567857D01*
X86273690Y-95472619D01*
X86321309Y-95425000D01*
X86416547Y-95377380D01*
X87940357Y-96377380D02*
X87940357Y-95377380D01*
X87940357Y-95758333D02*
X88035595Y-95710714D01*
X88226071Y-95710714D01*
X88321309Y-95758333D01*
X88368928Y-95805952D01*
X88416547Y-95901190D01*
X88416547Y-96186904D01*
X88368928Y-96282142D01*
X88321309Y-96329761D01*
X88226071Y-96377380D01*
X88035595Y-96377380D01*
X87940357Y-96329761D01*
X88749880Y-95710714D02*
X88987976Y-96377380D01*
X89226071Y-95710714D02*
X88987976Y-96377380D01*
X88892738Y-96615476D01*
X88845119Y-96663095D01*
X88749880Y-96710714D01*
X90368928Y-96377380D02*
X90368928Y-95377380D01*
X90845119Y-95710714D02*
X90845119Y-96377380D01*
X90845119Y-95805952D02*
X90892738Y-95758333D01*
X90987976Y-95710714D01*
X91130833Y-95710714D01*
X91226071Y-95758333D01*
X91273690Y-95853571D01*
X91273690Y-96377380D01*
X92178452Y-95710714D02*
X92178452Y-96520238D01*
X92130833Y-96615476D01*
X92083214Y-96663095D01*
X91987976Y-96710714D01*
X91845119Y-96710714D01*
X91749880Y-96663095D01*
X92178452Y-96329761D02*
X92083214Y-96377380D01*
X91892738Y-96377380D01*
X91797500Y-96329761D01*
X91749880Y-96282142D01*
X91702261Y-96186904D01*
X91702261Y-95901190D01*
X91749880Y-95805952D01*
X91797500Y-95758333D01*
X91892738Y-95710714D01*
X92083214Y-95710714D01*
X92178452Y-95758333D01*
X92654642Y-95996428D02*
X93416547Y-95996428D01*
X93892738Y-96377380D02*
X93892738Y-95377380D01*
X94130833Y-95377380D01*
X94273690Y-95425000D01*
X94368928Y-95520238D01*
X94416547Y-95615476D01*
X94464166Y-95805952D01*
X94464166Y-95948809D01*
X94416547Y-96139285D01*
X94368928Y-96234523D01*
X94273690Y-96329761D01*
X94130833Y-96377380D01*
X93892738Y-96377380D01*
X95035595Y-96377380D02*
X94940357Y-96329761D01*
X94892738Y-96282142D01*
X94845119Y-96186904D01*
X94845119Y-95901190D01*
X94892738Y-95805952D01*
X94940357Y-95758333D01*
X95035595Y-95710714D01*
X95178452Y-95710714D01*
X95273690Y-95758333D01*
X95321309Y-95805952D01*
X95368928Y-95901190D01*
X95368928Y-96186904D01*
X95321309Y-96282142D01*
X95273690Y-96329761D01*
X95178452Y-96377380D01*
X95035595Y-96377380D01*
X95797500Y-96377380D02*
X95797500Y-95710714D01*
X95797500Y-95805952D02*
X95845119Y-95758333D01*
X95940357Y-95710714D01*
X96083214Y-95710714D01*
X96178452Y-95758333D01*
X96226071Y-95853571D01*
X96226071Y-96377380D01*
X96226071Y-95853571D02*
X96273690Y-95758333D01*
X96368928Y-95710714D01*
X96511785Y-95710714D01*
X96607023Y-95758333D01*
X96654642Y-95853571D01*
X96654642Y-96377380D01*
X97845119Y-95472619D02*
X97892738Y-95425000D01*
X97987976Y-95377380D01*
X98226071Y-95377380D01*
X98321309Y-95425000D01*
X98368928Y-95472619D01*
X98416547Y-95567857D01*
X98416547Y-95663095D01*
X98368928Y-95805952D01*
X97797500Y-96377380D01*
X98416547Y-96377380D01*
X99035595Y-95377380D02*
X99130833Y-95377380D01*
X99226071Y-95425000D01*
X99273690Y-95472619D01*
X99321309Y-95567857D01*
X99368928Y-95758333D01*
X99368928Y-95996428D01*
X99321309Y-96186904D01*
X99273690Y-96282142D01*
X99226071Y-96329761D01*
X99130833Y-96377380D01*
X99035595Y-96377380D01*
X98940357Y-96329761D01*
X98892738Y-96282142D01*
X98845119Y-96186904D01*
X98797500Y-95996428D01*
X98797500Y-95758333D01*
X98845119Y-95567857D01*
X98892738Y-95472619D01*
X98940357Y-95425000D01*
X99035595Y-95377380D01*
X99749880Y-95472619D02*
X99797500Y-95425000D01*
X99892738Y-95377380D01*
X100130833Y-95377380D01*
X100226071Y-95425000D01*
X100273690Y-95472619D01*
X100321309Y-95567857D01*
X100321309Y-95663095D01*
X100273690Y-95805952D01*
X99702261Y-96377380D01*
X100321309Y-96377380D01*
X100654642Y-95377380D02*
X101273690Y-95377380D01*
X100940357Y-95758333D01*
X101083214Y-95758333D01*
X101178452Y-95805952D01*
X101226071Y-95853571D01*
X101273690Y-95948809D01*
X101273690Y-96186904D01*
X101226071Y-96282142D01*
X101178452Y-96329761D01*
X101083214Y-96377380D01*
X100797500Y-96377380D01*
X100702261Y-96329761D01*
X100654642Y-96282142D01*
D11*
G36*
X139767732Y-93866770D02*
G01*
X139862945Y-93888676D01*
X139941100Y-93937311D01*
X140002493Y-94012880D01*
X140017236Y-94039925D01*
X140031809Y-94070347D01*
X140042513Y-94098208D01*
X140049945Y-94128979D01*
X140054700Y-94168130D01*
X140057375Y-94221131D01*
X140058565Y-94293453D01*
X140058868Y-94390567D01*
X140058875Y-94421991D01*
X140058875Y-94720500D01*
X139931875Y-94720500D01*
X139931786Y-94454593D01*
X139930793Y-94335083D01*
X139927366Y-94242652D01*
X139920703Y-94172673D01*
X139909998Y-94120517D01*
X139894447Y-94081556D01*
X139873248Y-94051162D01*
X139859182Y-94036696D01*
X139809802Y-94008684D01*
X139746176Y-93996458D01*
X139680781Y-94000363D01*
X139626098Y-94020741D01*
X139613850Y-94029937D01*
X139587147Y-94057432D01*
X139567126Y-94089001D01*
X139552865Y-94129452D01*
X139543447Y-94183594D01*
X139537950Y-94256236D01*
X139535454Y-94352188D01*
X139535000Y-94442177D01*
X139535000Y-94720500D01*
X139408000Y-94720500D01*
X139408000Y-93879125D01*
X139471500Y-93879125D01*
X139514871Y-93882716D01*
X139533252Y-93895102D01*
X139535000Y-93904260D01*
X139540875Y-93922884D01*
X139546906Y-93923267D01*
X139621305Y-93888566D01*
X139681700Y-93870210D01*
X139739354Y-93865319D01*
X139767732Y-93866770D01*
X139767732Y-93866770D01*
G37*
X139767732Y-93866770D02*
X139862945Y-93888676D01*
X139941100Y-93937311D01*
X140002493Y-94012880D01*
X140017236Y-94039925D01*
X140031809Y-94070347D01*
X140042513Y-94098208D01*
X140049945Y-94128979D01*
X140054700Y-94168130D01*
X140057375Y-94221131D01*
X140058565Y-94293453D01*
X140058868Y-94390567D01*
X140058875Y-94421991D01*
X140058875Y-94720500D01*
X139931875Y-94720500D01*
X139931786Y-94454593D01*
X139930793Y-94335083D01*
X139927366Y-94242652D01*
X139920703Y-94172673D01*
X139909998Y-94120517D01*
X139894447Y-94081556D01*
X139873248Y-94051162D01*
X139859182Y-94036696D01*
X139809802Y-94008684D01*
X139746176Y-93996458D01*
X139680781Y-94000363D01*
X139626098Y-94020741D01*
X139613850Y-94029937D01*
X139587147Y-94057432D01*
X139567126Y-94089001D01*
X139552865Y-94129452D01*
X139543447Y-94183594D01*
X139537950Y-94256236D01*
X139535454Y-94352188D01*
X139535000Y-94442177D01*
X139535000Y-94720500D01*
X139408000Y-94720500D01*
X139408000Y-93879125D01*
X139471500Y-93879125D01*
X139514871Y-93882716D01*
X139533252Y-93895102D01*
X139535000Y-93904260D01*
X139540875Y-93922884D01*
X139546906Y-93923267D01*
X139621305Y-93888566D01*
X139681700Y-93870210D01*
X139739354Y-93865319D01*
X139767732Y-93866770D01*
G36*
X138845469Y-93879191D02*
G01*
X138940416Y-93918298D01*
X139023894Y-93976748D01*
X139091215Y-94051938D01*
X139137692Y-94141259D01*
X139158635Y-94242106D01*
X139158995Y-94248860D01*
X139161937Y-94315687D01*
X138790918Y-94319953D01*
X138419900Y-94324219D01*
X138430146Y-94375451D01*
X138453463Y-94433560D01*
X138496337Y-94494414D01*
X138549913Y-94546590D01*
X138577624Y-94565667D01*
X138624022Y-94585473D01*
X138681330Y-94600666D01*
X138697301Y-94603314D01*
X138774039Y-94600889D01*
X138853013Y-94577029D01*
X138923650Y-94536505D01*
X138975379Y-94484088D01*
X138980966Y-94475304D01*
X139005822Y-94439280D01*
X139032444Y-94423031D01*
X139074687Y-94418917D01*
X139083304Y-94418875D01*
X139152348Y-94418875D01*
X139134363Y-94470468D01*
X139103897Y-94525491D01*
X139053072Y-94585349D01*
X138990543Y-94641989D01*
X138924967Y-94687357D01*
X138877193Y-94709763D01*
X138774544Y-94732030D01*
X138671650Y-94731592D01*
X138596506Y-94714458D01*
X138484953Y-94660412D01*
X138398693Y-94587483D01*
X138338364Y-94496559D01*
X138304601Y-94388529D01*
X138297098Y-94296353D01*
X138309275Y-94196625D01*
X138438809Y-94196625D01*
X138724967Y-94196625D01*
X138816317Y-94195914D01*
X138895606Y-94193938D01*
X138957829Y-94190936D01*
X138997980Y-94187142D01*
X139011125Y-94183097D01*
X138999069Y-94150271D01*
X138967995Y-94108625D01*
X138925544Y-94066584D01*
X138879355Y-94032576D01*
X138869721Y-94027151D01*
X138781578Y-93997238D01*
X138690897Y-93995472D01*
X138604256Y-94019826D01*
X138528237Y-94068271D01*
X138469416Y-94138780D01*
X138461521Y-94152968D01*
X138438809Y-94196625D01*
X138309275Y-94196625D01*
X138311682Y-94176913D01*
X138353922Y-94072472D01*
X138422779Y-93984718D01*
X138517214Y-93915338D01*
X138538699Y-93904005D01*
X138639923Y-93869439D01*
X138743742Y-93862036D01*
X138845469Y-93879191D01*
X138845469Y-93879191D01*
G37*
X138845469Y-93879191D02*
X138940416Y-93918298D01*
X139023894Y-93976748D01*
X139091215Y-94051938D01*
X139137692Y-94141259D01*
X139158635Y-94242106D01*
X139158995Y-94248860D01*
X139161937Y-94315687D01*
X138790918Y-94319953D01*
X138419900Y-94324219D01*
X138430146Y-94375451D01*
X138453463Y-94433560D01*
X138496337Y-94494414D01*
X138549913Y-94546590D01*
X138577624Y-94565667D01*
X138624022Y-94585473D01*
X138681330Y-94600666D01*
X138697301Y-94603314D01*
X138774039Y-94600889D01*
X138853013Y-94577029D01*
X138923650Y-94536505D01*
X138975379Y-94484088D01*
X138980966Y-94475304D01*
X139005822Y-94439280D01*
X139032444Y-94423031D01*
X139074687Y-94418917D01*
X139083304Y-94418875D01*
X139152348Y-94418875D01*
X139134363Y-94470468D01*
X139103897Y-94525491D01*
X139053072Y-94585349D01*
X138990543Y-94641989D01*
X138924967Y-94687357D01*
X138877193Y-94709763D01*
X138774544Y-94732030D01*
X138671650Y-94731592D01*
X138596506Y-94714458D01*
X138484953Y-94660412D01*
X138398693Y-94587483D01*
X138338364Y-94496559D01*
X138304601Y-94388529D01*
X138297098Y-94296353D01*
X138309275Y-94196625D01*
X138438809Y-94196625D01*
X138724967Y-94196625D01*
X138816317Y-94195914D01*
X138895606Y-94193938D01*
X138957829Y-94190936D01*
X138997980Y-94187142D01*
X139011125Y-94183097D01*
X138999069Y-94150271D01*
X138967995Y-94108625D01*
X138925544Y-94066584D01*
X138879355Y-94032576D01*
X138869721Y-94027151D01*
X138781578Y-93997238D01*
X138690897Y-93995472D01*
X138604256Y-94019826D01*
X138528237Y-94068271D01*
X138469416Y-94138780D01*
X138461521Y-94152968D01*
X138438809Y-94196625D01*
X138309275Y-94196625D01*
X138311682Y-94176913D01*
X138353922Y-94072472D01*
X138422779Y-93984718D01*
X138517214Y-93915338D01*
X138538699Y-93904005D01*
X138639923Y-93869439D01*
X138743742Y-93862036D01*
X138845469Y-93879191D01*
G36*
X136389104Y-93442612D02*
G01*
X136506698Y-93468292D01*
X136618405Y-93516615D01*
X136720699Y-93588130D01*
X136810052Y-93683387D01*
X136879551Y-93795994D01*
X136906391Y-93851861D01*
X136923717Y-93895486D01*
X136933606Y-93936920D01*
X136938137Y-93986211D01*
X136939389Y-94053407D01*
X136939437Y-94085499D01*
X136938883Y-94162067D01*
X136935834Y-94216937D01*
X136928212Y-94260156D01*
X136913938Y-94301773D01*
X136890933Y-94351838D01*
X136879551Y-94375005D01*
X136803770Y-94494384D01*
X136707212Y-94592000D01*
X136593835Y-94665994D01*
X136467596Y-94714508D01*
X136332456Y-94735682D01*
X136192370Y-94727658D01*
X136147556Y-94718717D01*
X136023586Y-94674146D01*
X135912490Y-94604165D01*
X135817232Y-94513223D01*
X135740777Y-94405772D01*
X135686089Y-94286262D01*
X135656133Y-94159141D01*
X135654205Y-94047959D01*
X135788916Y-94047959D01*
X135793866Y-94164732D01*
X135820779Y-94265833D01*
X135875777Y-94370768D01*
X135954007Y-94460863D01*
X136049687Y-94531449D01*
X136157035Y-94577857D01*
X136224903Y-94592187D01*
X136311203Y-94595607D01*
X136402152Y-94586789D01*
X136484180Y-94567582D01*
X136524461Y-94551342D01*
X136626510Y-94483421D01*
X136709078Y-94395740D01*
X136769798Y-94293450D01*
X136806299Y-94181699D01*
X136816213Y-94065638D01*
X136798634Y-93955342D01*
X136752475Y-93844776D01*
X136684341Y-93746813D01*
X136599394Y-93666845D01*
X136502797Y-93610265D01*
X136451086Y-93592253D01*
X136327458Y-93573448D01*
X136209638Y-93582559D01*
X136100559Y-93616451D01*
X136003153Y-93671992D01*
X135920353Y-93746048D01*
X135855092Y-93835483D01*
X135810302Y-93937165D01*
X135788916Y-94047959D01*
X135654205Y-94047959D01*
X135653873Y-94028862D01*
X135659650Y-93986281D01*
X135697372Y-93850627D01*
X135757422Y-93733214D01*
X135836273Y-93634592D01*
X135930398Y-93555313D01*
X136036271Y-93495925D01*
X136150364Y-93456978D01*
X136269151Y-93439024D01*
X136389104Y-93442612D01*
X136389104Y-93442612D01*
G37*
X136389104Y-93442612D02*
X136506698Y-93468292D01*
X136618405Y-93516615D01*
X136720699Y-93588130D01*
X136810052Y-93683387D01*
X136879551Y-93795994D01*
X136906391Y-93851861D01*
X136923717Y-93895486D01*
X136933606Y-93936920D01*
X136938137Y-93986211D01*
X136939389Y-94053407D01*
X136939437Y-94085499D01*
X136938883Y-94162067D01*
X136935834Y-94216937D01*
X136928212Y-94260156D01*
X136913938Y-94301773D01*
X136890933Y-94351838D01*
X136879551Y-94375005D01*
X136803770Y-94494384D01*
X136707212Y-94592000D01*
X136593835Y-94665994D01*
X136467596Y-94714508D01*
X136332456Y-94735682D01*
X136192370Y-94727658D01*
X136147556Y-94718717D01*
X136023586Y-94674146D01*
X135912490Y-94604165D01*
X135817232Y-94513223D01*
X135740777Y-94405772D01*
X135686089Y-94286262D01*
X135656133Y-94159141D01*
X135654205Y-94047959D01*
X135788916Y-94047959D01*
X135793866Y-94164732D01*
X135820779Y-94265833D01*
X135875777Y-94370768D01*
X135954007Y-94460863D01*
X136049687Y-94531449D01*
X136157035Y-94577857D01*
X136224903Y-94592187D01*
X136311203Y-94595607D01*
X136402152Y-94586789D01*
X136484180Y-94567582D01*
X136524461Y-94551342D01*
X136626510Y-94483421D01*
X136709078Y-94395740D01*
X136769798Y-94293450D01*
X136806299Y-94181699D01*
X136816213Y-94065638D01*
X136798634Y-93955342D01*
X136752475Y-93844776D01*
X136684341Y-93746813D01*
X136599394Y-93666845D01*
X136502797Y-93610265D01*
X136451086Y-93592253D01*
X136327458Y-93573448D01*
X136209638Y-93582559D01*
X136100559Y-93616451D01*
X136003153Y-93671992D01*
X135920353Y-93746048D01*
X135855092Y-93835483D01*
X135810302Y-93937165D01*
X135788916Y-94047959D01*
X135654205Y-94047959D01*
X135653873Y-94028862D01*
X135659650Y-93986281D01*
X135697372Y-93850627D01*
X135757422Y-93733214D01*
X135836273Y-93634592D01*
X135930398Y-93555313D01*
X136036271Y-93495925D01*
X136150364Y-93456978D01*
X136269151Y-93439024D01*
X136389104Y-93442612D01*
G36*
X141374876Y-93380025D02*
G01*
X141397624Y-93409429D01*
X141407424Y-93463388D01*
X141408250Y-93493362D01*
X141409373Y-93542223D01*
X141415228Y-93567255D01*
X141429545Y-93576363D01*
X141447937Y-93577500D01*
X141472297Y-93574595D01*
X141483924Y-93560246D01*
X141487447Y-93525999D01*
X141487625Y-93505018D01*
X141494428Y-93433559D01*
X141514367Y-93388466D01*
X141546732Y-93371255D01*
X141550385Y-93371125D01*
X141592797Y-93375359D01*
X141617168Y-93392370D01*
X141628169Y-93428618D01*
X141630500Y-93481964D01*
X141631330Y-93533599D01*
X141636653Y-93561982D01*
X141650712Y-93575609D01*
X141677754Y-93582978D01*
X141681330Y-93583697D01*
X141747071Y-93611810D01*
X141793947Y-93663026D01*
X141815391Y-93723424D01*
X141825057Y-93783875D01*
X141907166Y-93783875D01*
X141971723Y-93789275D01*
X142010100Y-93807041D01*
X142026245Y-93839518D01*
X142027375Y-93855312D01*
X142018474Y-93893376D01*
X141989070Y-93916124D01*
X141935111Y-93925924D01*
X141905137Y-93926750D01*
X141856276Y-93927873D01*
X141831244Y-93933728D01*
X141822136Y-93948045D01*
X141821000Y-93966437D01*
X141823904Y-93990797D01*
X141838253Y-94002424D01*
X141872500Y-94005947D01*
X141893481Y-94006125D01*
X141965790Y-94013000D01*
X142010112Y-94033860D01*
X142027131Y-94069058D01*
X142027375Y-94074946D01*
X142019017Y-94114158D01*
X141991042Y-94137607D01*
X141939095Y-94147931D01*
X141905137Y-94149000D01*
X141856276Y-94150123D01*
X141831244Y-94155978D01*
X141822136Y-94170295D01*
X141821000Y-94188687D01*
X141823381Y-94211735D01*
X141835795Y-94223542D01*
X141866147Y-94227839D01*
X141905137Y-94228375D01*
X141970268Y-94233576D01*
X142009193Y-94250760D01*
X142025962Y-94282294D01*
X142027375Y-94299812D01*
X142018474Y-94337876D01*
X141989070Y-94360624D01*
X141935111Y-94370424D01*
X141905137Y-94371250D01*
X141856213Y-94372446D01*
X141831145Y-94378387D01*
X141822062Y-94392602D01*
X141821000Y-94408971D01*
X141824003Y-94430773D01*
X141838090Y-94443248D01*
X141870874Y-94450262D01*
X141909773Y-94454055D01*
X141971929Y-94463538D01*
X142008341Y-94482028D01*
X142024648Y-94513718D01*
X142027131Y-94541347D01*
X142013516Y-94578343D01*
X141971918Y-94600964D01*
X141902125Y-94609319D01*
X141894550Y-94609375D01*
X141848520Y-94611929D01*
X141824344Y-94622394D01*
X141812343Y-94644974D01*
X141812307Y-94645093D01*
X141779569Y-94703612D01*
X141726631Y-94746314D01*
X141683523Y-94761711D01*
X141653579Y-94768698D01*
X141637772Y-94780899D01*
X141631584Y-94806855D01*
X141630501Y-94855105D01*
X141630500Y-94861966D01*
X141625492Y-94929947D01*
X141609277Y-94971114D01*
X141580066Y-94988971D01*
X141564958Y-94990375D01*
X141523548Y-94976586D01*
X141497825Y-94935211D01*
X141487780Y-94866238D01*
X141487625Y-94854303D01*
X141486562Y-94804704D01*
X141480976Y-94779024D01*
X141467265Y-94769446D01*
X141447937Y-94768125D01*
X141425657Y-94770235D01*
X141413794Y-94781619D01*
X141409080Y-94809853D01*
X141408250Y-94860200D01*
X141403395Y-94928647D01*
X141387622Y-94970279D01*
X141359118Y-94988696D01*
X141342708Y-94990375D01*
X141301298Y-94976586D01*
X141275575Y-94935211D01*
X141265530Y-94866238D01*
X141265375Y-94854303D01*
X141264312Y-94804704D01*
X141258726Y-94779024D01*
X141245015Y-94769446D01*
X141225687Y-94768125D01*
X141203721Y-94770132D01*
X141191845Y-94781115D01*
X141186968Y-94808516D01*
X141186001Y-94859779D01*
X141186000Y-94863715D01*
X141184735Y-94917807D01*
X141178778Y-94949235D01*
X141164889Y-94967049D01*
X141145079Y-94977950D01*
X141102403Y-94989351D01*
X141073037Y-94976557D01*
X141055057Y-94937378D01*
X141046536Y-94869626D01*
X141046336Y-94865693D01*
X141042815Y-94812041D01*
X141036682Y-94782791D01*
X141024649Y-94770600D01*
X141003432Y-94768125D01*
X141002679Y-94768125D01*
X140980133Y-94770584D01*
X140968539Y-94783204D01*
X140964288Y-94813847D01*
X140963750Y-94852977D01*
X140959648Y-94913341D01*
X140945906Y-94951098D01*
X140934718Y-94964102D01*
X140892689Y-94987953D01*
X140854583Y-94980374D01*
X140829712Y-94955092D01*
X140814255Y-94917027D01*
X140805664Y-94864484D01*
X140805000Y-94846480D01*
X140803428Y-94801244D01*
X140793885Y-94776974D01*
X140769124Y-94762896D01*
X140743252Y-94754650D01*
X140689209Y-94727416D01*
X140648974Y-94686433D01*
X140630714Y-94640448D01*
X140630375Y-94633746D01*
X140622407Y-94618520D01*
X140594367Y-94611049D01*
X140551000Y-94609375D01*
X140489154Y-94601277D01*
X140440483Y-94579687D01*
X140412280Y-94548656D01*
X140408125Y-94530000D01*
X140422712Y-94495530D01*
X140461722Y-94468529D01*
X140518022Y-94452928D01*
X140552104Y-94450625D01*
X140599407Y-94449409D01*
X140622454Y-94443405D01*
X140628716Y-94429073D01*
X140627510Y-94414906D01*
X140620993Y-94394353D01*
X140603581Y-94382763D01*
X140567344Y-94376800D01*
X140531292Y-94374430D01*
X140475140Y-94369035D01*
X140442179Y-94358300D01*
X140423948Y-94339349D01*
X140423008Y-94337647D01*
X140414825Y-94304763D01*
X140430220Y-94268466D01*
X140431175Y-94266997D01*
X140450695Y-94244193D01*
X140477387Y-94232565D01*
X140521558Y-94228602D01*
X140544532Y-94228375D01*
X140594630Y-94227368D01*
X140620215Y-94222278D01*
X140628507Y-94209993D01*
X140627510Y-94192656D01*
X140620993Y-94172103D01*
X140603581Y-94160513D01*
X140567344Y-94154550D01*
X140531292Y-94152180D01*
X140475140Y-94146785D01*
X140442179Y-94136050D01*
X140423948Y-94117099D01*
X140423008Y-94115397D01*
X140414825Y-94082513D01*
X140430220Y-94046216D01*
X140431175Y-94044747D01*
X140450882Y-94021806D01*
X140477895Y-94010188D01*
X140522618Y-94006314D01*
X140543428Y-94006125D01*
X140593303Y-94005084D01*
X140619225Y-93999594D01*
X140628980Y-93986101D01*
X140630375Y-93966437D01*
X140627947Y-93943298D01*
X140615371Y-93931461D01*
X140584709Y-93927123D01*
X140547031Y-93926506D01*
X140475934Y-93920383D01*
X140432962Y-93901604D01*
X140416566Y-93868805D01*
X140425194Y-93820622D01*
X140425574Y-93819593D01*
X140436683Y-93799518D01*
X140456596Y-93788737D01*
X140493795Y-93784472D01*
X140534613Y-93783875D01*
X140630375Y-93783875D01*
X140630375Y-93730630D01*
X140644893Y-93672413D01*
X140683097Y-93622009D01*
X140736959Y-93588775D01*
X140756896Y-93583152D01*
X140785902Y-93574997D01*
X140800046Y-93559505D01*
X140804631Y-93527207D01*
X140805000Y-93497274D01*
X140813508Y-93429589D01*
X140839442Y-93387954D01*
X140883420Y-93371485D01*
X140892887Y-93371125D01*
X140930783Y-93383654D01*
X140954073Y-93422149D01*
X140963473Y-93487963D01*
X140963750Y-93505018D01*
X140965765Y-93550058D01*
X140974161Y-93571521D01*
X140992461Y-93577450D01*
X140995500Y-93577500D01*
X141014650Y-93573257D01*
X141024136Y-93555302D01*
X141027137Y-93515793D01*
X141027250Y-93499258D01*
X141035413Y-93430997D01*
X141060474Y-93388890D01*
X141103285Y-93371690D01*
X141115137Y-93371125D01*
X141153033Y-93383654D01*
X141176323Y-93422149D01*
X141185723Y-93487963D01*
X141186000Y-93505018D01*
X141187590Y-93549507D01*
X141195447Y-93570741D01*
X141214199Y-93577176D01*
X141225687Y-93577500D01*
X141248735Y-93575118D01*
X141260542Y-93562704D01*
X141264839Y-93532352D01*
X141265375Y-93493362D01*
X141270576Y-93428231D01*
X141287760Y-93389306D01*
X141319294Y-93372537D01*
X141336812Y-93371124D01*
X141374876Y-93380025D01*
X141374876Y-93380025D01*
G37*
X141374876Y-93380025D02*
X141397624Y-93409429D01*
X141407424Y-93463388D01*
X141408250Y-93493362D01*
X141409373Y-93542223D01*
X141415228Y-93567255D01*
X141429545Y-93576363D01*
X141447937Y-93577500D01*
X141472297Y-93574595D01*
X141483924Y-93560246D01*
X141487447Y-93525999D01*
X141487625Y-93505018D01*
X141494428Y-93433559D01*
X141514367Y-93388466D01*
X141546732Y-93371255D01*
X141550385Y-93371125D01*
X141592797Y-93375359D01*
X141617168Y-93392370D01*
X141628169Y-93428618D01*
X141630500Y-93481964D01*
X141631330Y-93533599D01*
X141636653Y-93561982D01*
X141650712Y-93575609D01*
X141677754Y-93582978D01*
X141681330Y-93583697D01*
X141747071Y-93611810D01*
X141793947Y-93663026D01*
X141815391Y-93723424D01*
X141825057Y-93783875D01*
X141907166Y-93783875D01*
X141971723Y-93789275D01*
X142010100Y-93807041D01*
X142026245Y-93839518D01*
X142027375Y-93855312D01*
X142018474Y-93893376D01*
X141989070Y-93916124D01*
X141935111Y-93925924D01*
X141905137Y-93926750D01*
X141856276Y-93927873D01*
X141831244Y-93933728D01*
X141822136Y-93948045D01*
X141821000Y-93966437D01*
X141823904Y-93990797D01*
X141838253Y-94002424D01*
X141872500Y-94005947D01*
X141893481Y-94006125D01*
X141965790Y-94013000D01*
X142010112Y-94033860D01*
X142027131Y-94069058D01*
X142027375Y-94074946D01*
X142019017Y-94114158D01*
X141991042Y-94137607D01*
X141939095Y-94147931D01*
X141905137Y-94149000D01*
X141856276Y-94150123D01*
X141831244Y-94155978D01*
X141822136Y-94170295D01*
X141821000Y-94188687D01*
X141823381Y-94211735D01*
X141835795Y-94223542D01*
X141866147Y-94227839D01*
X141905137Y-94228375D01*
X141970268Y-94233576D01*
X142009193Y-94250760D01*
X142025962Y-94282294D01*
X142027375Y-94299812D01*
X142018474Y-94337876D01*
X141989070Y-94360624D01*
X141935111Y-94370424D01*
X141905137Y-94371250D01*
X141856213Y-94372446D01*
X141831145Y-94378387D01*
X141822062Y-94392602D01*
X141821000Y-94408971D01*
X141824003Y-94430773D01*
X141838090Y-94443248D01*
X141870874Y-94450262D01*
X141909773Y-94454055D01*
X141971929Y-94463538D01*
X142008341Y-94482028D01*
X142024648Y-94513718D01*
X142027131Y-94541347D01*
X142013516Y-94578343D01*
X141971918Y-94600964D01*
X141902125Y-94609319D01*
X141894550Y-94609375D01*
X141848520Y-94611929D01*
X141824344Y-94622394D01*
X141812343Y-94644974D01*
X141812307Y-94645093D01*
X141779569Y-94703612D01*
X141726631Y-94746314D01*
X141683523Y-94761711D01*
X141653579Y-94768698D01*
X141637772Y-94780899D01*
X141631584Y-94806855D01*
X141630501Y-94855105D01*
X141630500Y-94861966D01*
X141625492Y-94929947D01*
X141609277Y-94971114D01*
X141580066Y-94988971D01*
X141564958Y-94990375D01*
X141523548Y-94976586D01*
X141497825Y-94935211D01*
X141487780Y-94866238D01*
X141487625Y-94854303D01*
X141486562Y-94804704D01*
X141480976Y-94779024D01*
X141467265Y-94769446D01*
X141447937Y-94768125D01*
X141425657Y-94770235D01*
X141413794Y-94781619D01*
X141409080Y-94809853D01*
X141408250Y-94860200D01*
X141403395Y-94928647D01*
X141387622Y-94970279D01*
X141359118Y-94988696D01*
X141342708Y-94990375D01*
X141301298Y-94976586D01*
X141275575Y-94935211D01*
X141265530Y-94866238D01*
X141265375Y-94854303D01*
X141264312Y-94804704D01*
X141258726Y-94779024D01*
X141245015Y-94769446D01*
X141225687Y-94768125D01*
X141203721Y-94770132D01*
X141191845Y-94781115D01*
X141186968Y-94808516D01*
X141186001Y-94859779D01*
X141186000Y-94863715D01*
X141184735Y-94917807D01*
X141178778Y-94949235D01*
X141164889Y-94967049D01*
X141145079Y-94977950D01*
X141102403Y-94989351D01*
X141073037Y-94976557D01*
X141055057Y-94937378D01*
X141046536Y-94869626D01*
X141046336Y-94865693D01*
X141042815Y-94812041D01*
X141036682Y-94782791D01*
X141024649Y-94770600D01*
X141003432Y-94768125D01*
X141002679Y-94768125D01*
X140980133Y-94770584D01*
X140968539Y-94783204D01*
X140964288Y-94813847D01*
X140963750Y-94852977D01*
X140959648Y-94913341D01*
X140945906Y-94951098D01*
X140934718Y-94964102D01*
X140892689Y-94987953D01*
X140854583Y-94980374D01*
X140829712Y-94955092D01*
X140814255Y-94917027D01*
X140805664Y-94864484D01*
X140805000Y-94846480D01*
X140803428Y-94801244D01*
X140793885Y-94776974D01*
X140769124Y-94762896D01*
X140743252Y-94754650D01*
X140689209Y-94727416D01*
X140648974Y-94686433D01*
X140630714Y-94640448D01*
X140630375Y-94633746D01*
X140622407Y-94618520D01*
X140594367Y-94611049D01*
X140551000Y-94609375D01*
X140489154Y-94601277D01*
X140440483Y-94579687D01*
X140412280Y-94548656D01*
X140408125Y-94530000D01*
X140422712Y-94495530D01*
X140461722Y-94468529D01*
X140518022Y-94452928D01*
X140552104Y-94450625D01*
X140599407Y-94449409D01*
X140622454Y-94443405D01*
X140628716Y-94429073D01*
X140627510Y-94414906D01*
X140620993Y-94394353D01*
X140603581Y-94382763D01*
X140567344Y-94376800D01*
X140531292Y-94374430D01*
X140475140Y-94369035D01*
X140442179Y-94358300D01*
X140423948Y-94339349D01*
X140423008Y-94337647D01*
X140414825Y-94304763D01*
X140430220Y-94268466D01*
X140431175Y-94266997D01*
X140450695Y-94244193D01*
X140477387Y-94232565D01*
X140521558Y-94228602D01*
X140544532Y-94228375D01*
X140594630Y-94227368D01*
X140620215Y-94222278D01*
X140628507Y-94209993D01*
X140627510Y-94192656D01*
X140620993Y-94172103D01*
X140603581Y-94160513D01*
X140567344Y-94154550D01*
X140531292Y-94152180D01*
X140475140Y-94146785D01*
X140442179Y-94136050D01*
X140423948Y-94117099D01*
X140423008Y-94115397D01*
X140414825Y-94082513D01*
X140430220Y-94046216D01*
X140431175Y-94044747D01*
X140450882Y-94021806D01*
X140477895Y-94010188D01*
X140522618Y-94006314D01*
X140543428Y-94006125D01*
X140593303Y-94005084D01*
X140619225Y-93999594D01*
X140628980Y-93986101D01*
X140630375Y-93966437D01*
X140627947Y-93943298D01*
X140615371Y-93931461D01*
X140584709Y-93927123D01*
X140547031Y-93926506D01*
X140475934Y-93920383D01*
X140432962Y-93901604D01*
X140416566Y-93868805D01*
X140425194Y-93820622D01*
X140425574Y-93819593D01*
X140436683Y-93799518D01*
X140456596Y-93788737D01*
X140493795Y-93784472D01*
X140534613Y-93783875D01*
X140630375Y-93783875D01*
X140630375Y-93730630D01*
X140644893Y-93672413D01*
X140683097Y-93622009D01*
X140736959Y-93588775D01*
X140756896Y-93583152D01*
X140785902Y-93574997D01*
X140800046Y-93559505D01*
X140804631Y-93527207D01*
X140805000Y-93497274D01*
X140813508Y-93429589D01*
X140839442Y-93387954D01*
X140883420Y-93371485D01*
X140892887Y-93371125D01*
X140930783Y-93383654D01*
X140954073Y-93422149D01*
X140963473Y-93487963D01*
X140963750Y-93505018D01*
X140965765Y-93550058D01*
X140974161Y-93571521D01*
X140992461Y-93577450D01*
X140995500Y-93577500D01*
X141014650Y-93573257D01*
X141024136Y-93555302D01*
X141027137Y-93515793D01*
X141027250Y-93499258D01*
X141035413Y-93430997D01*
X141060474Y-93388890D01*
X141103285Y-93371690D01*
X141115137Y-93371125D01*
X141153033Y-93383654D01*
X141176323Y-93422149D01*
X141185723Y-93487963D01*
X141186000Y-93505018D01*
X141187590Y-93549507D01*
X141195447Y-93570741D01*
X141214199Y-93577176D01*
X141225687Y-93577500D01*
X141248735Y-93575118D01*
X141260542Y-93562704D01*
X141264839Y-93532352D01*
X141265375Y-93493362D01*
X141270576Y-93428231D01*
X141287760Y-93389306D01*
X141319294Y-93372537D01*
X141336812Y-93371124D01*
X141374876Y-93380025D01*
G36*
X137800689Y-93885072D02*
G01*
X137897845Y-93933439D01*
X137981768Y-94005635D01*
X138047726Y-94099810D01*
X138062549Y-94130363D01*
X138082612Y-94203852D01*
X138088695Y-94292867D01*
X138081209Y-94384634D01*
X138060563Y-94466378D01*
X138051029Y-94488779D01*
X137988760Y-94583300D01*
X137907272Y-94656032D01*
X137811696Y-94705553D01*
X137707166Y-94730445D01*
X137598815Y-94729288D01*
X137491776Y-94700663D01*
X137419996Y-94663277D01*
X137382416Y-94640229D01*
X137357094Y-94626721D01*
X137352527Y-94625250D01*
X137349950Y-94640312D01*
X137347699Y-94682247D01*
X137345910Y-94746181D01*
X137344716Y-94827237D01*
X137344251Y-94920539D01*
X137344250Y-94926875D01*
X137344250Y-95228500D01*
X137217250Y-95228500D01*
X137217250Y-94317213D01*
X137351561Y-94317213D01*
X137371007Y-94404820D01*
X137415750Y-94483141D01*
X137482579Y-94546763D01*
X137568288Y-94590272D01*
X137578629Y-94593568D01*
X137640345Y-94606391D01*
X137699586Y-94603254D01*
X137745527Y-94592545D01*
X137825240Y-94555489D01*
X137888677Y-94496903D01*
X137933718Y-94423058D01*
X137958241Y-94340228D01*
X137960122Y-94254686D01*
X137937240Y-94172704D01*
X137905193Y-94120593D01*
X137833289Y-94051848D01*
X137752006Y-94009713D01*
X137666446Y-93993203D01*
X137581711Y-94001333D01*
X137502905Y-94033118D01*
X137435129Y-94087572D01*
X137383486Y-94163711D01*
X137360618Y-94225734D01*
X137351561Y-94317213D01*
X137217250Y-94317213D01*
X137217250Y-93879125D01*
X137280750Y-93879125D01*
X137321466Y-93881005D01*
X137339566Y-93891197D01*
X137344149Y-93916523D01*
X137344250Y-93926750D01*
X137350267Y-93962996D01*
X137365290Y-93974250D01*
X137384771Y-93957149D01*
X137384945Y-93956868D01*
X137404496Y-93940890D01*
X137443417Y-93918238D01*
X137477164Y-93901461D01*
X137585615Y-93867232D01*
X137695035Y-93862386D01*
X137800689Y-93885072D01*
X137800689Y-93885072D01*
G37*
X137800689Y-93885072D02*
X137897845Y-93933439D01*
X137981768Y-94005635D01*
X138047726Y-94099810D01*
X138062549Y-94130363D01*
X138082612Y-94203852D01*
X138088695Y-94292867D01*
X138081209Y-94384634D01*
X138060563Y-94466378D01*
X138051029Y-94488779D01*
X137988760Y-94583300D01*
X137907272Y-94656032D01*
X137811696Y-94705553D01*
X137707166Y-94730445D01*
X137598815Y-94729288D01*
X137491776Y-94700663D01*
X137419996Y-94663277D01*
X137382416Y-94640229D01*
X137357094Y-94626721D01*
X137352527Y-94625250D01*
X137349950Y-94640312D01*
X137347699Y-94682247D01*
X137345910Y-94746181D01*
X137344716Y-94827237D01*
X137344251Y-94920539D01*
X137344250Y-94926875D01*
X137344250Y-95228500D01*
X137217250Y-95228500D01*
X137217250Y-94317213D01*
X137351561Y-94317213D01*
X137371007Y-94404820D01*
X137415750Y-94483141D01*
X137482579Y-94546763D01*
X137568288Y-94590272D01*
X137578629Y-94593568D01*
X137640345Y-94606391D01*
X137699586Y-94603254D01*
X137745527Y-94592545D01*
X137825240Y-94555489D01*
X137888677Y-94496903D01*
X137933718Y-94423058D01*
X137958241Y-94340228D01*
X137960122Y-94254686D01*
X137937240Y-94172704D01*
X137905193Y-94120593D01*
X137833289Y-94051848D01*
X137752006Y-94009713D01*
X137666446Y-93993203D01*
X137581711Y-94001333D01*
X137502905Y-94033118D01*
X137435129Y-94087572D01*
X137383486Y-94163711D01*
X137360618Y-94225734D01*
X137351561Y-94317213D01*
X137217250Y-94317213D01*
X137217250Y-93879125D01*
X137280750Y-93879125D01*
X137321466Y-93881005D01*
X137339566Y-93891197D01*
X137344149Y-93916523D01*
X137344250Y-93926750D01*
X137350267Y-93962996D01*
X137365290Y-93974250D01*
X137384771Y-93957149D01*
X137384945Y-93956868D01*
X137404496Y-93940890D01*
X137443417Y-93918238D01*
X137477164Y-93901461D01*
X137585615Y-93867232D01*
X137695035Y-93862386D01*
X137800689Y-93885072D01*
G36*
X141241854Y-95048961D02*
G01*
X141251882Y-95062329D01*
X141257676Y-95092489D01*
X141261143Y-95145887D01*
X141262074Y-95168968D01*
X141266710Y-95292000D01*
X141754992Y-95292000D01*
X141904875Y-95292372D01*
X142025263Y-95293547D01*
X142118405Y-95295607D01*
X142186548Y-95298638D01*
X142231941Y-95302724D01*
X142256832Y-95307950D01*
X142262324Y-95311049D01*
X142279348Y-95347316D01*
X142276814Y-95390342D01*
X142262324Y-95415825D01*
X142252950Y-95418272D01*
X142229212Y-95420519D01*
X142190043Y-95422572D01*
X142134373Y-95424439D01*
X142061136Y-95426126D01*
X141969260Y-95427640D01*
X141857680Y-95428988D01*
X141725324Y-95430178D01*
X141571126Y-95431215D01*
X141394015Y-95432107D01*
X141192925Y-95432862D01*
X140966785Y-95433484D01*
X140714528Y-95433983D01*
X140435085Y-95434364D01*
X140127387Y-95434634D01*
X139790366Y-95434801D01*
X139422953Y-95434871D01*
X139318130Y-95434875D01*
X136392986Y-95434875D01*
X136388399Y-95573781D01*
X136385622Y-95640629D01*
X136381511Y-95682121D01*
X136374304Y-95704646D01*
X136362239Y-95714594D01*
X136348726Y-95717677D01*
X136331916Y-95718322D01*
X136321265Y-95710488D01*
X136315031Y-95688255D01*
X136311472Y-95645702D01*
X136309039Y-95582739D01*
X136304437Y-95442812D01*
X136035711Y-95438447D01*
X135930061Y-95435705D01*
X135845068Y-95431379D01*
X135784072Y-95425721D01*
X135750417Y-95418982D01*
X135745992Y-95416659D01*
X135727919Y-95383944D01*
X135728050Y-95342193D01*
X135744049Y-95311050D01*
X135753556Y-95308510D01*
X135777514Y-95306187D01*
X135817031Y-95304072D01*
X135873218Y-95302158D01*
X135947181Y-95300437D01*
X136040030Y-95298900D01*
X136152872Y-95297541D01*
X136286816Y-95296352D01*
X136442971Y-95295325D01*
X136622445Y-95294452D01*
X136826346Y-95293725D01*
X137055783Y-95293137D01*
X137311864Y-95292680D01*
X137595698Y-95292346D01*
X137908392Y-95292128D01*
X138251056Y-95292017D01*
X138473882Y-95292000D01*
X141184664Y-95292000D01*
X141189300Y-95168968D01*
X141192425Y-95106761D01*
X141197266Y-95069857D01*
X141205729Y-95051809D01*
X141219722Y-95046173D01*
X141225687Y-95045937D01*
X141241854Y-95048961D01*
X141241854Y-95048961D01*
G37*
X141241854Y-95048961D02*
X141251882Y-95062329D01*
X141257676Y-95092489D01*
X141261143Y-95145887D01*
X141262074Y-95168968D01*
X141266710Y-95292000D01*
X141754992Y-95292000D01*
X141904875Y-95292372D01*
X142025263Y-95293547D01*
X142118405Y-95295607D01*
X142186548Y-95298638D01*
X142231941Y-95302724D01*
X142256832Y-95307950D01*
X142262324Y-95311049D01*
X142279348Y-95347316D01*
X142276814Y-95390342D01*
X142262324Y-95415825D01*
X142252950Y-95418272D01*
X142229212Y-95420519D01*
X142190043Y-95422572D01*
X142134373Y-95424439D01*
X142061136Y-95426126D01*
X141969260Y-95427640D01*
X141857680Y-95428988D01*
X141725324Y-95430178D01*
X141571126Y-95431215D01*
X141394015Y-95432107D01*
X141192925Y-95432862D01*
X140966785Y-95433484D01*
X140714528Y-95433983D01*
X140435085Y-95434364D01*
X140127387Y-95434634D01*
X139790366Y-95434801D01*
X139422953Y-95434871D01*
X139318130Y-95434875D01*
X136392986Y-95434875D01*
X136388399Y-95573781D01*
X136385622Y-95640629D01*
X136381511Y-95682121D01*
X136374304Y-95704646D01*
X136362239Y-95714594D01*
X136348726Y-95717677D01*
X136331916Y-95718322D01*
X136321265Y-95710488D01*
X136315031Y-95688255D01*
X136311472Y-95645702D01*
X136309039Y-95582739D01*
X136304437Y-95442812D01*
X136035711Y-95438447D01*
X135930061Y-95435705D01*
X135845068Y-95431379D01*
X135784072Y-95425721D01*
X135750417Y-95418982D01*
X135745992Y-95416659D01*
X135727919Y-95383944D01*
X135728050Y-95342193D01*
X135744049Y-95311050D01*
X135753556Y-95308510D01*
X135777514Y-95306187D01*
X135817031Y-95304072D01*
X135873218Y-95302158D01*
X135947181Y-95300437D01*
X136040030Y-95298900D01*
X136152872Y-95297541D01*
X136286816Y-95296352D01*
X136442971Y-95295325D01*
X136622445Y-95294452D01*
X136826346Y-95293725D01*
X137055783Y-95293137D01*
X137311864Y-95292680D01*
X137595698Y-95292346D01*
X137908392Y-95292128D01*
X138251056Y-95292017D01*
X138473882Y-95292000D01*
X141184664Y-95292000D01*
X141189300Y-95168968D01*
X141192425Y-95106761D01*
X141197266Y-95069857D01*
X141205729Y-95051809D01*
X141219722Y-95046173D01*
X141225687Y-95045937D01*
X141241854Y-95048961D01*
G36*
X136727582Y-95820122D02*
G01*
X136749657Y-95836947D01*
X136763056Y-95872472D01*
X136771618Y-95932819D01*
X136772582Y-95942875D01*
X136778570Y-95993206D01*
X136787537Y-96020044D01*
X136804043Y-96031605D01*
X136823773Y-96035155D01*
X136869313Y-96054196D01*
X136910914Y-96093963D01*
X136939644Y-96143829D01*
X136947375Y-96182218D01*
X136949016Y-96209031D01*
X136959224Y-96222814D01*
X136985920Y-96227901D01*
X137032227Y-96228625D01*
X137103911Y-96237086D01*
X137149218Y-96262725D01*
X137168713Y-96305917D01*
X137169625Y-96320597D01*
X137156667Y-96355818D01*
X137117000Y-96377762D01*
X137049436Y-96386989D01*
X137027793Y-96387375D01*
X136980297Y-96388623D01*
X136956458Y-96395023D01*
X136948205Y-96410558D01*
X136947375Y-96427062D01*
X136949681Y-96449904D01*
X136961812Y-96461730D01*
X136991584Y-96466141D01*
X137033553Y-96466750D01*
X137105823Y-96474370D01*
X137150800Y-96497474D01*
X137169108Y-96536427D01*
X137169625Y-96546125D01*
X137156561Y-96588282D01*
X137116954Y-96614519D01*
X137050177Y-96625198D01*
X137033553Y-96625500D01*
X136983495Y-96626914D01*
X136957568Y-96633016D01*
X136948206Y-96646592D01*
X136947375Y-96657250D01*
X136952389Y-96677564D01*
X136972897Y-96686931D01*
X137014843Y-96689234D01*
X137086192Y-96697614D01*
X137137682Y-96720631D01*
X137164623Y-96755924D01*
X137166874Y-96765677D01*
X137164369Y-96806606D01*
X137140526Y-96832419D01*
X137092010Y-96845285D01*
X137040681Y-96847750D01*
X136988564Y-96848631D01*
X136960660Y-96853412D01*
X136949440Y-96865295D01*
X136947375Y-96887437D01*
X136949681Y-96910279D01*
X136961812Y-96922105D01*
X136991584Y-96926516D01*
X137033553Y-96927125D01*
X137105823Y-96934745D01*
X137150800Y-96957849D01*
X137169108Y-96996802D01*
X137169625Y-97006500D01*
X137156561Y-97048657D01*
X137116954Y-97074894D01*
X137050177Y-97085573D01*
X137033553Y-97085875D01*
X136983616Y-97087221D01*
X136957749Y-97093208D01*
X136948320Y-97106755D01*
X136947375Y-97118846D01*
X136934252Y-97156873D01*
X136901633Y-97196820D01*
X136859635Y-97229168D01*
X136818380Y-97244398D01*
X136813658Y-97244625D01*
X136790962Y-97246504D01*
X136778729Y-97257127D01*
X136773733Y-97283973D01*
X136772751Y-97334521D01*
X136772750Y-97339509D01*
X136771144Y-97394543D01*
X136764176Y-97427726D01*
X136748620Y-97448885D01*
X136733062Y-97460397D01*
X136701991Y-97477194D01*
X136677561Y-97474477D01*
X136653687Y-97460397D01*
X136631108Y-97441764D01*
X136619138Y-97417262D01*
X136614551Y-97377066D01*
X136614000Y-97339509D01*
X136613152Y-97286846D01*
X136608525Y-97258457D01*
X136596995Y-97246874D01*
X136575439Y-97244626D01*
X136574312Y-97244625D01*
X136553005Y-97246426D01*
X136541122Y-97256604D01*
X136535919Y-97282321D01*
X136534649Y-97330738D01*
X136534625Y-97348152D01*
X136533483Y-97404994D01*
X136528300Y-97438556D01*
X136516443Y-97457279D01*
X136496945Y-97468848D01*
X136453631Y-97477553D01*
X136425508Y-97467949D01*
X136406828Y-97453614D01*
X136396568Y-97430310D01*
X136392361Y-97389578D01*
X136391750Y-97347253D01*
X136391045Y-97291970D01*
X136387076Y-97261241D01*
X136377062Y-97247874D01*
X136358222Y-97244677D01*
X136352062Y-97244625D01*
X136329332Y-97246891D01*
X136317497Y-97258870D01*
X136313025Y-97288331D01*
X136312375Y-97331937D01*
X136308716Y-97392057D01*
X136295946Y-97431179D01*
X136280625Y-97451000D01*
X136238519Y-97479998D01*
X136202548Y-97479474D01*
X136174963Y-97451418D01*
X136158014Y-97397819D01*
X136153625Y-97338741D01*
X136152760Y-97286343D01*
X136148059Y-97258190D01*
X136136360Y-97246783D01*
X136114501Y-97244625D01*
X136113937Y-97244625D01*
X136091207Y-97246891D01*
X136079372Y-97258870D01*
X136074900Y-97288331D01*
X136074250Y-97331937D01*
X136066546Y-97399529D01*
X136045875Y-97448970D01*
X136015902Y-97476894D01*
X135980286Y-97479935D01*
X135942693Y-97454725D01*
X135941772Y-97453718D01*
X135923031Y-97414593D01*
X135915673Y-97349503D01*
X135915500Y-97334656D01*
X135914160Y-97283162D01*
X135908448Y-97255980D01*
X135895818Y-97245726D01*
X135884496Y-97244625D01*
X135821707Y-97229709D01*
X135770534Y-97187843D01*
X135745787Y-97146840D01*
X135728074Y-97110891D01*
X135709086Y-97092868D01*
X135677876Y-97086592D01*
X135637807Y-97085875D01*
X135574900Y-97080863D01*
X135537546Y-97063568D01*
X135520818Y-97030601D01*
X135518625Y-97003883D01*
X135528933Y-96963856D01*
X135561824Y-96939159D01*
X135620240Y-96928105D01*
X135652518Y-96927125D01*
X135697007Y-96925534D01*
X135718241Y-96917677D01*
X135724676Y-96898925D01*
X135725000Y-96887437D01*
X135722369Y-96863738D01*
X135709024Y-96852007D01*
X135676783Y-96848085D01*
X135646923Y-96847750D01*
X135582747Y-96845458D01*
X135544051Y-96836258D01*
X135524750Y-96816663D01*
X135518761Y-96783185D01*
X135518625Y-96774221D01*
X135527768Y-96731572D01*
X135557560Y-96704644D01*
X135611545Y-96691338D01*
X135662533Y-96689000D01*
X135703663Y-96686242D01*
X135721655Y-96675142D01*
X135725000Y-96657250D01*
X135721064Y-96638634D01*
X135704170Y-96629094D01*
X135666682Y-96625750D01*
X135640862Y-96625500D01*
X135576796Y-96620668D01*
X135538465Y-96604085D01*
X135521046Y-96572620D01*
X135518625Y-96546125D01*
X135526065Y-96504523D01*
X135551602Y-96479633D01*
X135600059Y-96468322D01*
X135640862Y-96466750D01*
X135689723Y-96465626D01*
X135714755Y-96459771D01*
X135723863Y-96445454D01*
X135725000Y-96427062D01*
X135722618Y-96404014D01*
X135710204Y-96392207D01*
X135679852Y-96387910D01*
X135640862Y-96387375D01*
X135577058Y-96382637D01*
X135538884Y-96366189D01*
X135521338Y-96334676D01*
X135518625Y-96305383D01*
X135528933Y-96265356D01*
X135561824Y-96240659D01*
X135620240Y-96229605D01*
X135652518Y-96228625D01*
X135697202Y-96226850D01*
X135718537Y-96218795D01*
X135724849Y-96200357D01*
X135725059Y-96192906D01*
X135739742Y-96132889D01*
X135778540Y-96080215D01*
X135833876Y-96044164D01*
X135851275Y-96038319D01*
X135915500Y-96021026D01*
X135915500Y-95937500D01*
X135920290Y-95873875D01*
X135936903Y-95835864D01*
X135968700Y-95818481D01*
X135997491Y-95815875D01*
X136037518Y-95826183D01*
X136062215Y-95859074D01*
X136073269Y-95917490D01*
X136074250Y-95949768D01*
X136076426Y-95995107D01*
X136085091Y-96016666D01*
X136103451Y-96022247D01*
X136104034Y-96022250D01*
X136121835Y-96016956D01*
X136132627Y-95996359D01*
X136139371Y-95953381D01*
X136141180Y-95933476D01*
X136150785Y-95871061D01*
X136169440Y-95834504D01*
X136201099Y-95818322D01*
X136225856Y-95816118D01*
X136263534Y-95824958D01*
X136286081Y-95854750D01*
X136295741Y-95909371D01*
X136296500Y-95938112D01*
X136297623Y-95986973D01*
X136303478Y-96012005D01*
X136317795Y-96021113D01*
X136336187Y-96022250D01*
X136360547Y-96019345D01*
X136372174Y-96004996D01*
X136375697Y-95970749D01*
X136375875Y-95949768D01*
X136381784Y-95879946D01*
X136400640Y-95836867D01*
X136434128Y-95817585D01*
X136452633Y-95815875D01*
X136495430Y-95822937D01*
X136521035Y-95847459D01*
X136532804Y-95894441D01*
X136534625Y-95938112D01*
X136535748Y-95986973D01*
X136541603Y-96012005D01*
X136555920Y-96021113D01*
X136574312Y-96022250D01*
X136598672Y-96019345D01*
X136610299Y-96004996D01*
X136613822Y-95970749D01*
X136613999Y-95949768D01*
X136619693Y-95880461D01*
X136638094Y-95837677D01*
X136671186Y-95818054D01*
X136692996Y-95815875D01*
X136727582Y-95820122D01*
X136727582Y-95820122D01*
G37*
X136727582Y-95820122D02*
X136749657Y-95836947D01*
X136763056Y-95872472D01*
X136771618Y-95932819D01*
X136772582Y-95942875D01*
X136778570Y-95993206D01*
X136787537Y-96020044D01*
X136804043Y-96031605D01*
X136823773Y-96035155D01*
X136869313Y-96054196D01*
X136910914Y-96093963D01*
X136939644Y-96143829D01*
X136947375Y-96182218D01*
X136949016Y-96209031D01*
X136959224Y-96222814D01*
X136985920Y-96227901D01*
X137032227Y-96228625D01*
X137103911Y-96237086D01*
X137149218Y-96262725D01*
X137168713Y-96305917D01*
X137169625Y-96320597D01*
X137156667Y-96355818D01*
X137117000Y-96377762D01*
X137049436Y-96386989D01*
X137027793Y-96387375D01*
X136980297Y-96388623D01*
X136956458Y-96395023D01*
X136948205Y-96410558D01*
X136947375Y-96427062D01*
X136949681Y-96449904D01*
X136961812Y-96461730D01*
X136991584Y-96466141D01*
X137033553Y-96466750D01*
X137105823Y-96474370D01*
X137150800Y-96497474D01*
X137169108Y-96536427D01*
X137169625Y-96546125D01*
X137156561Y-96588282D01*
X137116954Y-96614519D01*
X137050177Y-96625198D01*
X137033553Y-96625500D01*
X136983495Y-96626914D01*
X136957568Y-96633016D01*
X136948206Y-96646592D01*
X136947375Y-96657250D01*
X136952389Y-96677564D01*
X136972897Y-96686931D01*
X137014843Y-96689234D01*
X137086192Y-96697614D01*
X137137682Y-96720631D01*
X137164623Y-96755924D01*
X137166874Y-96765677D01*
X137164369Y-96806606D01*
X137140526Y-96832419D01*
X137092010Y-96845285D01*
X137040681Y-96847750D01*
X136988564Y-96848631D01*
X136960660Y-96853412D01*
X136949440Y-96865295D01*
X136947375Y-96887437D01*
X136949681Y-96910279D01*
X136961812Y-96922105D01*
X136991584Y-96926516D01*
X137033553Y-96927125D01*
X137105823Y-96934745D01*
X137150800Y-96957849D01*
X137169108Y-96996802D01*
X137169625Y-97006500D01*
X137156561Y-97048657D01*
X137116954Y-97074894D01*
X137050177Y-97085573D01*
X137033553Y-97085875D01*
X136983616Y-97087221D01*
X136957749Y-97093208D01*
X136948320Y-97106755D01*
X136947375Y-97118846D01*
X136934252Y-97156873D01*
X136901633Y-97196820D01*
X136859635Y-97229168D01*
X136818380Y-97244398D01*
X136813658Y-97244625D01*
X136790962Y-97246504D01*
X136778729Y-97257127D01*
X136773733Y-97283973D01*
X136772751Y-97334521D01*
X136772750Y-97339509D01*
X136771144Y-97394543D01*
X136764176Y-97427726D01*
X136748620Y-97448885D01*
X136733062Y-97460397D01*
X136701991Y-97477194D01*
X136677561Y-97474477D01*
X136653687Y-97460397D01*
X136631108Y-97441764D01*
X136619138Y-97417262D01*
X136614551Y-97377066D01*
X136614000Y-97339509D01*
X136613152Y-97286846D01*
X136608525Y-97258457D01*
X136596995Y-97246874D01*
X136575439Y-97244626D01*
X136574312Y-97244625D01*
X136553005Y-97246426D01*
X136541122Y-97256604D01*
X136535919Y-97282321D01*
X136534649Y-97330738D01*
X136534625Y-97348152D01*
X136533483Y-97404994D01*
X136528300Y-97438556D01*
X136516443Y-97457279D01*
X136496945Y-97468848D01*
X136453631Y-97477553D01*
X136425508Y-97467949D01*
X136406828Y-97453614D01*
X136396568Y-97430310D01*
X136392361Y-97389578D01*
X136391750Y-97347253D01*
X136391045Y-97291970D01*
X136387076Y-97261241D01*
X136377062Y-97247874D01*
X136358222Y-97244677D01*
X136352062Y-97244625D01*
X136329332Y-97246891D01*
X136317497Y-97258870D01*
X136313025Y-97288331D01*
X136312375Y-97331937D01*
X136308716Y-97392057D01*
X136295946Y-97431179D01*
X136280625Y-97451000D01*
X136238519Y-97479998D01*
X136202548Y-97479474D01*
X136174963Y-97451418D01*
X136158014Y-97397819D01*
X136153625Y-97338741D01*
X136152760Y-97286343D01*
X136148059Y-97258190D01*
X136136360Y-97246783D01*
X136114501Y-97244625D01*
X136113937Y-97244625D01*
X136091207Y-97246891D01*
X136079372Y-97258870D01*
X136074900Y-97288331D01*
X136074250Y-97331937D01*
X136066546Y-97399529D01*
X136045875Y-97448970D01*
X136015902Y-97476894D01*
X135980286Y-97479935D01*
X135942693Y-97454725D01*
X135941772Y-97453718D01*
X135923031Y-97414593D01*
X135915673Y-97349503D01*
X135915500Y-97334656D01*
X135914160Y-97283162D01*
X135908448Y-97255980D01*
X135895818Y-97245726D01*
X135884496Y-97244625D01*
X135821707Y-97229709D01*
X135770534Y-97187843D01*
X135745787Y-97146840D01*
X135728074Y-97110891D01*
X135709086Y-97092868D01*
X135677876Y-97086592D01*
X135637807Y-97085875D01*
X135574900Y-97080863D01*
X135537546Y-97063568D01*
X135520818Y-97030601D01*
X135518625Y-97003883D01*
X135528933Y-96963856D01*
X135561824Y-96939159D01*
X135620240Y-96928105D01*
X135652518Y-96927125D01*
X135697007Y-96925534D01*
X135718241Y-96917677D01*
X135724676Y-96898925D01*
X135725000Y-96887437D01*
X135722369Y-96863738D01*
X135709024Y-96852007D01*
X135676783Y-96848085D01*
X135646923Y-96847750D01*
X135582747Y-96845458D01*
X135544051Y-96836258D01*
X135524750Y-96816663D01*
X135518761Y-96783185D01*
X135518625Y-96774221D01*
X135527768Y-96731572D01*
X135557560Y-96704644D01*
X135611545Y-96691338D01*
X135662533Y-96689000D01*
X135703663Y-96686242D01*
X135721655Y-96675142D01*
X135725000Y-96657250D01*
X135721064Y-96638634D01*
X135704170Y-96629094D01*
X135666682Y-96625750D01*
X135640862Y-96625500D01*
X135576796Y-96620668D01*
X135538465Y-96604085D01*
X135521046Y-96572620D01*
X135518625Y-96546125D01*
X135526065Y-96504523D01*
X135551602Y-96479633D01*
X135600059Y-96468322D01*
X135640862Y-96466750D01*
X135689723Y-96465626D01*
X135714755Y-96459771D01*
X135723863Y-96445454D01*
X135725000Y-96427062D01*
X135722618Y-96404014D01*
X135710204Y-96392207D01*
X135679852Y-96387910D01*
X135640862Y-96387375D01*
X135577058Y-96382637D01*
X135538884Y-96366189D01*
X135521338Y-96334676D01*
X135518625Y-96305383D01*
X135528933Y-96265356D01*
X135561824Y-96240659D01*
X135620240Y-96229605D01*
X135652518Y-96228625D01*
X135697202Y-96226850D01*
X135718537Y-96218795D01*
X135724849Y-96200357D01*
X135725059Y-96192906D01*
X135739742Y-96132889D01*
X135778540Y-96080215D01*
X135833876Y-96044164D01*
X135851275Y-96038319D01*
X135915500Y-96021026D01*
X135915500Y-95937500D01*
X135920290Y-95873875D01*
X135936903Y-95835864D01*
X135968700Y-95818481D01*
X135997491Y-95815875D01*
X136037518Y-95826183D01*
X136062215Y-95859074D01*
X136073269Y-95917490D01*
X136074250Y-95949768D01*
X136076426Y-95995107D01*
X136085091Y-96016666D01*
X136103451Y-96022247D01*
X136104034Y-96022250D01*
X136121835Y-96016956D01*
X136132627Y-95996359D01*
X136139371Y-95953381D01*
X136141180Y-95933476D01*
X136150785Y-95871061D01*
X136169440Y-95834504D01*
X136201099Y-95818322D01*
X136225856Y-95816118D01*
X136263534Y-95824958D01*
X136286081Y-95854750D01*
X136295741Y-95909371D01*
X136296500Y-95938112D01*
X136297623Y-95986973D01*
X136303478Y-96012005D01*
X136317795Y-96021113D01*
X136336187Y-96022250D01*
X136360547Y-96019345D01*
X136372174Y-96004996D01*
X136375697Y-95970749D01*
X136375875Y-95949768D01*
X136381784Y-95879946D01*
X136400640Y-95836867D01*
X136434128Y-95817585D01*
X136452633Y-95815875D01*
X136495430Y-95822937D01*
X136521035Y-95847459D01*
X136532804Y-95894441D01*
X136534625Y-95938112D01*
X136535748Y-95986973D01*
X136541603Y-96012005D01*
X136555920Y-96021113D01*
X136574312Y-96022250D01*
X136598672Y-96019345D01*
X136610299Y-96004996D01*
X136613822Y-95970749D01*
X136613999Y-95949768D01*
X136619693Y-95880461D01*
X136638094Y-95837677D01*
X136671186Y-95818054D01*
X136692996Y-95815875D01*
X136727582Y-95820122D01*
G36*
X140934460Y-95800053D02*
G01*
X141146312Y-95800107D01*
X141314936Y-96110482D01*
X141483561Y-96420856D01*
X141649440Y-96114397D01*
X141815319Y-95807937D01*
X142024534Y-95803507D01*
X142101854Y-95802570D01*
X142166271Y-95803122D01*
X142211936Y-95805013D01*
X142232998Y-95808091D01*
X142233750Y-95808908D01*
X142225997Y-95824503D01*
X142204021Y-95864090D01*
X142169744Y-95924322D01*
X142125089Y-96001854D01*
X142071979Y-96093340D01*
X142012337Y-96195434D01*
X141978647Y-96252852D01*
X141906664Y-96375810D01*
X141849650Y-96474475D01*
X141806139Y-96551718D01*
X141774661Y-96610410D01*
X141753752Y-96653423D01*
X141741943Y-96683626D01*
X141737767Y-96703893D01*
X141739758Y-96717094D01*
X141740574Y-96718787D01*
X141752740Y-96740094D01*
X141778955Y-96785043D01*
X141817066Y-96849974D01*
X141864917Y-96931225D01*
X141920355Y-97025136D01*
X141981226Y-97128044D01*
X142003615Y-97165847D01*
X142064924Y-97269531D01*
X142120655Y-97364172D01*
X142168836Y-97446389D01*
X142207495Y-97512801D01*
X142234660Y-97560029D01*
X142248358Y-97584692D01*
X142249625Y-97587479D01*
X142234722Y-97589835D01*
X142193904Y-97591800D01*
X142133003Y-97593197D01*
X142057854Y-97593849D01*
X142038908Y-97593875D01*
X141828192Y-97593875D01*
X141669814Y-97305778D01*
X141621313Y-97217884D01*
X141577255Y-97138670D01*
X141540185Y-97072660D01*
X141512647Y-97024377D01*
X141497184Y-96998346D01*
X141495555Y-96995915D01*
X141486147Y-96995550D01*
X141469283Y-97012820D01*
X141443522Y-97049939D01*
X141407426Y-97109124D01*
X141359552Y-97192591D01*
X141310865Y-97280043D01*
X141142055Y-97585937D01*
X140923774Y-97590368D01*
X140705493Y-97594798D01*
X140728858Y-97558618D01*
X140756228Y-97514904D01*
X140794028Y-97452644D01*
X140839925Y-97375855D01*
X140891585Y-97288553D01*
X140946674Y-97194756D01*
X141002858Y-97098479D01*
X141057803Y-97003741D01*
X141109175Y-96914556D01*
X141154641Y-96834943D01*
X141191867Y-96768917D01*
X141218519Y-96720496D01*
X141232262Y-96693696D01*
X141233625Y-96689875D01*
X141225860Y-96671605D01*
X141203986Y-96629860D01*
X141170130Y-96568448D01*
X141126421Y-96491178D01*
X141074986Y-96401857D01*
X141021830Y-96310879D01*
X140962376Y-96209762D01*
X140905911Y-96113650D01*
X140855155Y-96027181D01*
X140812830Y-95954993D01*
X140781657Y-95901724D01*
X140766321Y-95875406D01*
X140722608Y-95800000D01*
X140934460Y-95800053D01*
X140934460Y-95800053D01*
G37*
X140934460Y-95800053D02*
X141146312Y-95800107D01*
X141314936Y-96110482D01*
X141483561Y-96420856D01*
X141649440Y-96114397D01*
X141815319Y-95807937D01*
X142024534Y-95803507D01*
X142101854Y-95802570D01*
X142166271Y-95803122D01*
X142211936Y-95805013D01*
X142232998Y-95808091D01*
X142233750Y-95808908D01*
X142225997Y-95824503D01*
X142204021Y-95864090D01*
X142169744Y-95924322D01*
X142125089Y-96001854D01*
X142071979Y-96093340D01*
X142012337Y-96195434D01*
X141978647Y-96252852D01*
X141906664Y-96375810D01*
X141849650Y-96474475D01*
X141806139Y-96551718D01*
X141774661Y-96610410D01*
X141753752Y-96653423D01*
X141741943Y-96683626D01*
X141737767Y-96703893D01*
X141739758Y-96717094D01*
X141740574Y-96718787D01*
X141752740Y-96740094D01*
X141778955Y-96785043D01*
X141817066Y-96849974D01*
X141864917Y-96931225D01*
X141920355Y-97025136D01*
X141981226Y-97128044D01*
X142003615Y-97165847D01*
X142064924Y-97269531D01*
X142120655Y-97364172D01*
X142168836Y-97446389D01*
X142207495Y-97512801D01*
X142234660Y-97560029D01*
X142248358Y-97584692D01*
X142249625Y-97587479D01*
X142234722Y-97589835D01*
X142193904Y-97591800D01*
X142133003Y-97593197D01*
X142057854Y-97593849D01*
X142038908Y-97593875D01*
X141828192Y-97593875D01*
X141669814Y-97305778D01*
X141621313Y-97217884D01*
X141577255Y-97138670D01*
X141540185Y-97072660D01*
X141512647Y-97024377D01*
X141497184Y-96998346D01*
X141495555Y-96995915D01*
X141486147Y-96995550D01*
X141469283Y-97012820D01*
X141443522Y-97049939D01*
X141407426Y-97109124D01*
X141359552Y-97192591D01*
X141310865Y-97280043D01*
X141142055Y-97585937D01*
X140923774Y-97590368D01*
X140705493Y-97594798D01*
X140728858Y-97558618D01*
X140756228Y-97514904D01*
X140794028Y-97452644D01*
X140839925Y-97375855D01*
X140891585Y-97288553D01*
X140946674Y-97194756D01*
X141002858Y-97098479D01*
X141057803Y-97003741D01*
X141109175Y-96914556D01*
X141154641Y-96834943D01*
X141191867Y-96768917D01*
X141218519Y-96720496D01*
X141232262Y-96693696D01*
X141233625Y-96689875D01*
X141225860Y-96671605D01*
X141203986Y-96629860D01*
X141170130Y-96568448D01*
X141126421Y-96491178D01*
X141074986Y-96401857D01*
X141021830Y-96310879D01*
X140962376Y-96209762D01*
X140905911Y-96113650D01*
X140855155Y-96027181D01*
X140812830Y-95954993D01*
X140781657Y-95901724D01*
X140766321Y-95875406D01*
X140722608Y-95800000D01*
X140934460Y-95800053D01*
G36*
X139789195Y-96386650D02*
G01*
X140146187Y-96973301D01*
X140150349Y-96386650D01*
X140154511Y-95800000D01*
X140519250Y-95800000D01*
X140519250Y-97594882D01*
X140333304Y-97590410D01*
X140147359Y-97585937D01*
X139447687Y-96438855D01*
X139443523Y-97016365D01*
X139439358Y-97593875D01*
X139058750Y-97593875D01*
X139058750Y-95800000D01*
X139432202Y-95800000D01*
X139789195Y-96386650D01*
X139789195Y-96386650D01*
G37*
X139789195Y-96386650D02*
X140146187Y-96973301D01*
X140150349Y-96386650D01*
X140154511Y-95800000D01*
X140519250Y-95800000D01*
X140519250Y-97594882D01*
X140333304Y-97590410D01*
X140147359Y-97585937D01*
X139447687Y-96438855D01*
X139443523Y-97016365D01*
X139439358Y-97593875D01*
X139058750Y-97593875D01*
X139058750Y-95800000D01*
X139432202Y-95800000D01*
X139789195Y-96386650D01*
G36*
X137840071Y-96200460D02*
G01*
X137844312Y-96600920D01*
X137907222Y-96513991D01*
X137952999Y-96451756D01*
X138008557Y-96377830D01*
X138070953Y-96295971D01*
X138137241Y-96209933D01*
X138204474Y-96123474D01*
X138269707Y-96040349D01*
X138329995Y-95964316D01*
X138382392Y-95899129D01*
X138423952Y-95848547D01*
X138451730Y-95816324D01*
X138462268Y-95806189D01*
X138484379Y-95803852D01*
X138531697Y-95802518D01*
X138597694Y-95802263D01*
X138675840Y-95803165D01*
X138692090Y-95803485D01*
X138903266Y-95807937D01*
X138598160Y-96188937D01*
X138522041Y-96284310D01*
X138452353Y-96372237D01*
X138391588Y-96449527D01*
X138342237Y-96512986D01*
X138306792Y-96559423D01*
X138287745Y-96585645D01*
X138285249Y-96589825D01*
X138291916Y-96607193D01*
X138314326Y-96647880D01*
X138350579Y-96708809D01*
X138398775Y-96786901D01*
X138457015Y-96879079D01*
X138523399Y-96982266D01*
X138596027Y-97093383D01*
X138596659Y-97094343D01*
X138669457Y-97205060D01*
X138736423Y-97307288D01*
X138795618Y-97398036D01*
X138845101Y-97474311D01*
X138882932Y-97533123D01*
X138907169Y-97571480D01*
X138915872Y-97586391D01*
X138915875Y-97586424D01*
X138900963Y-97589145D01*
X138860083Y-97591421D01*
X138799013Y-97593051D01*
X138723534Y-97593834D01*
X138701236Y-97593875D01*
X138486597Y-97593875D01*
X138376977Y-97423218D01*
X138323540Y-97340043D01*
X138261031Y-97242768D01*
X138197549Y-97143998D01*
X138145505Y-97063041D01*
X138023653Y-96873520D01*
X137930704Y-96975729D01*
X137837756Y-97077937D01*
X137837065Y-97335906D01*
X137836375Y-97593875D01*
X137471250Y-97593875D01*
X137471250Y-95800000D01*
X137835829Y-95800000D01*
X137840071Y-96200460D01*
X137840071Y-96200460D01*
G37*
X137840071Y-96200460D02*
X137844312Y-96600920D01*
X137907222Y-96513991D01*
X137952999Y-96451756D01*
X138008557Y-96377830D01*
X138070953Y-96295971D01*
X138137241Y-96209933D01*
X138204474Y-96123474D01*
X138269707Y-96040349D01*
X138329995Y-95964316D01*
X138382392Y-95899129D01*
X138423952Y-95848547D01*
X138451730Y-95816324D01*
X138462268Y-95806189D01*
X138484379Y-95803852D01*
X138531697Y-95802518D01*
X138597694Y-95802263D01*
X138675840Y-95803165D01*
X138692090Y-95803485D01*
X138903266Y-95807937D01*
X138598160Y-96188937D01*
X138522041Y-96284310D01*
X138452353Y-96372237D01*
X138391588Y-96449527D01*
X138342237Y-96512986D01*
X138306792Y-96559423D01*
X138287745Y-96585645D01*
X138285249Y-96589825D01*
X138291916Y-96607193D01*
X138314326Y-96647880D01*
X138350579Y-96708809D01*
X138398775Y-96786901D01*
X138457015Y-96879079D01*
X138523399Y-96982266D01*
X138596027Y-97093383D01*
X138596659Y-97094343D01*
X138669457Y-97205060D01*
X138736423Y-97307288D01*
X138795618Y-97398036D01*
X138845101Y-97474311D01*
X138882932Y-97533123D01*
X138907169Y-97571480D01*
X138915872Y-97586391D01*
X138915875Y-97586424D01*
X138900963Y-97589145D01*
X138860083Y-97591421D01*
X138799013Y-97593051D01*
X138723534Y-97593834D01*
X138701236Y-97593875D01*
X138486597Y-97593875D01*
X138376977Y-97423218D01*
X138323540Y-97340043D01*
X138261031Y-97242768D01*
X138197549Y-97143998D01*
X138145505Y-97063041D01*
X138023653Y-96873520D01*
X137930704Y-96975729D01*
X137837756Y-97077937D01*
X137837065Y-97335906D01*
X137836375Y-97593875D01*
X137471250Y-97593875D01*
X137471250Y-95800000D01*
X137835829Y-95800000D01*
X137840071Y-96200460D01*
D12*
X143900000Y-116300000D02*
X143900000Y-115700000D01*
X144500000Y-116000000D02*
X143900000Y-116300000D01*
X143900000Y-115700000D02*
X144500000Y-116000000D01*
X151300000Y-118560000D02*
X151300000Y-95940000D01*
X145190000Y-100950000D02*
X145190000Y-99550000D01*
X145190000Y-104450000D02*
X145190000Y-103050000D01*
X145190000Y-107950000D02*
X145190000Y-106550000D01*
X145190000Y-111450000D02*
X145190000Y-110050000D01*
X145190000Y-114950000D02*
X145190000Y-113550000D01*
X145190000Y-95940000D02*
X145190000Y-97450000D01*
X145190000Y-118560000D02*
X145190000Y-117050000D01*
X154610000Y-95940000D02*
X145190000Y-95940000D01*
X154610000Y-118560000D02*
X154610000Y-95940000D01*
X145190000Y-118560000D02*
X154610000Y-118560000D01*
X79100000Y-98300000D02*
X79100000Y-98900000D01*
X78500000Y-98600000D02*
X79100000Y-98300000D01*
X79100000Y-98900000D02*
X78500000Y-98600000D01*
X71700000Y-96040000D02*
X71700000Y-118660000D01*
X77810000Y-113650000D02*
X77810000Y-115050000D01*
X77810000Y-110150000D02*
X77810000Y-111550000D01*
X77810000Y-106650000D02*
X77810000Y-108050000D01*
X77810000Y-103150000D02*
X77810000Y-104550000D01*
X77810000Y-99650000D02*
X77810000Y-101050000D01*
X77810000Y-118660000D02*
X77810000Y-117150000D01*
X77810000Y-96040000D02*
X77810000Y-97550000D01*
X68390000Y-118660000D02*
X77810000Y-118660000D01*
X68390000Y-96040000D02*
X68390000Y-118660000D01*
X77810000Y-96040000D02*
X68390000Y-96040000D01*
D10*
X149852380Y-108059523D02*
X150566666Y-108059523D01*
X150709523Y-108107142D01*
X150804761Y-108202380D01*
X150852380Y-108345238D01*
X150852380Y-108440476D01*
X149947619Y-107630952D02*
X149900000Y-107583333D01*
X149852380Y-107488095D01*
X149852380Y-107250000D01*
X149900000Y-107154761D01*
X149947619Y-107107142D01*
X150042857Y-107059523D01*
X150138095Y-107059523D01*
X150280952Y-107107142D01*
X150852380Y-107678571D01*
X150852380Y-107059523D01*
X149852380Y-106440476D02*
X149852380Y-106345238D01*
X149900000Y-106250000D01*
X149947619Y-106202380D01*
X150042857Y-106154761D01*
X150233333Y-106107142D01*
X150471428Y-106107142D01*
X150661904Y-106154761D01*
X150757142Y-106202380D01*
X150804761Y-106250000D01*
X150852380Y-106345238D01*
X150852380Y-106440476D01*
X150804761Y-106535714D01*
X150757142Y-106583333D01*
X150661904Y-106630952D01*
X150471428Y-106678571D01*
X150233333Y-106678571D01*
X150042857Y-106630952D01*
X149947619Y-106583333D01*
X149900000Y-106535714D01*
X149852380Y-106440476D01*
X72552380Y-108159523D02*
X73266666Y-108159523D01*
X73409523Y-108207142D01*
X73504761Y-108302380D01*
X73552380Y-108445238D01*
X73552380Y-108540476D01*
X73552380Y-107159523D02*
X73552380Y-107730952D01*
X73552380Y-107445238D02*
X72552380Y-107445238D01*
X72695238Y-107540476D01*
X72790476Y-107635714D01*
X72838095Y-107730952D01*
X72552380Y-106540476D02*
X72552380Y-106445238D01*
X72600000Y-106350000D01*
X72647619Y-106302380D01*
X72742857Y-106254761D01*
X72933333Y-106207142D01*
X73171428Y-106207142D01*
X73361904Y-106254761D01*
X73457142Y-106302380D01*
X73504761Y-106350000D01*
X73552380Y-106445238D01*
X73552380Y-106540476D01*
X73504761Y-106635714D01*
X73457142Y-106683333D01*
X73361904Y-106730952D01*
X73171428Y-106778571D01*
X72933333Y-106778571D01*
X72742857Y-106730952D01*
X72647619Y-106683333D01*
X72600000Y-106635714D01*
X72552380Y-106540476D01*
M02*
