M48
; DRILL file {KiCad (5.1.4)-1} date 31/01/2023 17:13:36
; FORMAT={-:-/ absolute / inch / decimal}
; #@! TF.CreationDate,2023-01-31T17:13:36+01:00
; #@! TF.GenerationSoftware,Kicad,Pcbnew,(5.1.4)-1
; #@! TF.FileFunction,Plated,1,2,PTH
FMAT,2
INCH
T1C0.0394
T2C0.0472
%
G90
G05
T1
X4.248Y-3.7126
X4.348Y-3.7126
X4.448Y-3.7126
X4.548Y-3.7126
X4.648Y-3.7126
X4.748Y-3.7126
X4.848Y-3.7126
X4.948Y-3.7126
X5.048Y-3.7126
X5.148Y-3.7126
X3.3244Y-4.0496
X3.4244Y-4.0496
X3.5244Y-4.0496
X3.6244Y-4.0496
X3.7244Y-4.0496
X3.8244Y-4.0496
X3.9244Y-4.0496
X4.0244Y-4.0496
X4.1244Y-4.0496
X4.2244Y-4.0496
X4.3244Y-4.0496
X4.4244Y-4.0496
X4.5244Y-4.0496
X4.6244Y-4.0496
X4.7244Y-4.0496
X4.8244Y-4.0496
X4.9244Y-4.0496
X5.0244Y-4.0496
X5.1244Y-4.0496
X5.2244Y-4.0496
X5.3244Y-4.0496
X5.4244Y-4.0496
X3.3244Y-4.5496
X3.4244Y-4.5496
X3.5244Y-4.5496
X3.6244Y-4.5496
X3.7244Y-4.5496
X3.8244Y-4.5496
X3.9244Y-4.5496
X4.0244Y-4.5496
X4.1244Y-4.5496
X4.2244Y-4.5496
X4.3244Y-4.5496
X4.4244Y-4.5496
X4.5244Y-4.5496
X4.6244Y-4.5496
X4.7244Y-4.5496
X4.8244Y-4.5496
X4.9244Y-4.5496
X5.0244Y-4.5496
X5.1244Y-4.5496
X5.2244Y-4.5496
X5.3244Y-4.5496
X5.4244Y-4.5496
X3.3244Y-4.4496
X3.4244Y-4.4496
X3.5244Y-4.4496
X3.6244Y-4.4496
X3.7244Y-4.4496
X3.8244Y-4.4496
X3.9244Y-4.4496
X4.0244Y-4.4496
X4.1244Y-4.4496
X4.2244Y-4.4496
X4.3244Y-4.4496
X4.4244Y-4.4496
X4.5244Y-4.4496
X4.6244Y-4.4496
X4.7244Y-4.4496
X4.8244Y-4.4496
X4.9244Y-4.4496
X5.0244Y-4.4496
X5.1244Y-4.4496
X5.2244Y-4.4496
X5.3244Y-4.4496
X5.4244Y-4.4496
X3.3244Y-4.3496
X3.4244Y-4.3496
X3.5244Y-4.3496
X3.6244Y-4.3496
X3.7244Y-4.3496
X3.8244Y-4.3496
X3.9244Y-4.3496
X4.0244Y-4.3496
X4.1244Y-4.3496
X4.2244Y-4.3496
X4.3244Y-4.3496
X4.4244Y-4.3496
X4.5244Y-4.3496
X4.6244Y-4.3496
X4.7244Y-4.3496
X4.8244Y-4.3496
X4.9244Y-4.3496
X5.0244Y-4.3496
X5.1244Y-4.3496
X5.2244Y-4.3496
X5.3244Y-4.3496
X5.4244Y-4.3496
X5.5244Y-4.0496
X5.5244Y-4.1496
X5.5244Y-4.2496
X5.5244Y-4.3496
X5.5244Y-4.4496
X5.5244Y-4.5496
X3.3244Y-3.9496
X3.4244Y-3.9496
X3.5244Y-3.9496
X3.6244Y-3.9496
X3.7244Y-3.9496
X3.8244Y-3.9496
X3.9244Y-3.9496
X4.0244Y-3.9496
X4.1244Y-3.9496
X4.2244Y-3.9496
X4.3244Y-3.9496
X4.4244Y-3.9496
X4.5244Y-3.9496
X4.6244Y-3.9496
X4.7244Y-3.9496
X4.8244Y-3.9496
X4.9244Y-3.9496
X5.0244Y-3.9496
X5.1244Y-3.9496
X5.2244Y-3.9496
X5.3244Y-3.9496
X5.4244Y-3.9496
X3.3244Y-4.1496
X3.4244Y-4.1496
X3.5244Y-4.1496
X3.6244Y-4.1496
X3.7244Y-4.1496
X3.8244Y-4.1496
X3.9244Y-4.1496
X4.0244Y-4.1496
X4.1244Y-4.1496
X4.2244Y-4.1496
X4.3244Y-4.1496
X4.4244Y-4.1496
X4.5244Y-4.1496
X4.6244Y-4.1496
X4.7244Y-4.1496
X4.8244Y-4.1496
X4.9244Y-4.1496
X5.0244Y-4.1496
X5.1244Y-4.1496
X5.2244Y-4.1496
X5.3244Y-4.1496
X5.4244Y-4.1496
X3.2244Y-4.0496
X3.2244Y-4.1496
X3.2244Y-4.2496
X3.2244Y-4.3496
X3.2244Y-4.4496
X3.2244Y-4.5496
X4.2244Y-3.8496
X4.3244Y-3.8496
X4.4244Y-3.8496
X4.5244Y-3.8496
X4.6244Y-3.8496
X4.7244Y-3.8496
X4.8244Y-3.8496
X4.9244Y-3.8496
X5.0244Y-3.8496
X5.1244Y-3.8496
X3.3244Y-4.2496
X3.4244Y-4.2496
X3.5244Y-4.2496
X3.6244Y-4.2496
X3.7244Y-4.2496
X3.8244Y-4.2496
X3.9244Y-4.2496
X4.0244Y-4.2496
X4.1244Y-4.2496
X4.2244Y-4.2496
X4.3244Y-4.2496
X4.4244Y-4.2496
X4.5244Y-4.2496
X4.6244Y-4.2496
X4.7244Y-4.2496
X4.8244Y-4.2496
X4.9244Y-4.2496
X5.0244Y-4.2496
X5.1244Y-4.2496
X5.2244Y-4.2496
X5.3244Y-4.2496
X5.4244Y-4.2496
T2
X3.0118Y-3.8819
X3.0118Y-4.0197
X3.0118Y-4.1575
X3.0118Y-4.2953
X3.0118Y-4.4331
X3.0118Y-4.5709
X5.7677Y-3.878
X5.7677Y-4.0157
X5.7677Y-4.1535
X5.7677Y-4.2913
X5.7677Y-4.4291
X5.7677Y-4.5669
T0
M30
